# Blender 5.0.1
# www.blender.org
mtllib geometrie_table_de_chevet.mtl
o Table_de_chevet
v 0.387565 0.858564 3.985258
v 0.387565 1.274688 3.985258
v 0.387565 0.858564 2.830385
v 0.387565 1.274688 2.830385
v 1.695398 0.782084 4.061738
v 1.695398 1.351168 4.061738
v 1.695398 0.782084 2.753905
v 1.695398 1.351168 2.753905
v 0.387565 0.782084 2.753905
v 0.387565 0.782084 4.061738
v 0.387565 1.351168 4.061738
v 0.387565 1.351168 2.753905
v 1.614403 0.858564 2.830385
v 1.614403 0.858564 3.985258
v 1.614403 1.274688 3.985258
v 1.614403 1.274688 2.830385
v 0.387534 -0.238965 4.058895
v 0.652158 0.793842 3.792175
v 0.387534 -0.238965 3.895322
v 0.652158 0.793842 3.695275
v 0.551106 -0.238965 4.058895
v 0.749058 0.793842 3.792175
v 0.551106 -0.238965 3.895322
v 0.749058 0.793842 3.695275
v 1.514469 -0.239608 4.046207
v 1.319751 0.793461 3.784659
v 1.514469 -0.239608 3.882635
v 1.319751 0.793461 3.687760
v 1.678042 -0.239608 4.046207
v 1.416651 0.793461 3.784659
v 1.678042 -0.239608 3.882635
v 1.416651 0.793461 3.687760
v 1.531016 -0.235108 2.920833
v 1.329553 0.796127 3.117991
v 1.531016 -0.235108 2.757260
v 1.329553 0.796127 3.021091
v 1.694589 -0.235108 2.920833
v 1.426453 0.796127 3.117991
v 1.694589 -0.235108 2.757260
v 1.426453 0.796127 3.021091
v 0.386852 -0.187795 2.919349
v 0.651754 0.824155 3.117112
v 0.386852 -0.187795 2.755776
v 0.651754 0.824155 3.020213
v 0.550424 -0.187795 2.919349
v 0.748654 0.824155 3.117112
v 0.550424 -0.187795 2.755776
v 0.748654 0.824155 3.020213
vn -0.0000 -1.0000 -0.0000
vn -0.0000 -0.0000 -1.0000
vn 1.0000 -0.0000 -0.0000
vn -0.0000 -0.0000 1.0000
vn -0.0000 1.0000 -0.0000
vn -1.0000 -0.0000 -0.0000
vn -0.9687 0.2482 -0.0000
vn -0.0000 -0.1902 -0.9818
vn 0.9821 -0.1882 -0.0000
vn -0.0000 0.2500 0.9682
vn -0.9827 -0.1852 -0.0000
vn -0.0000 -0.1854 -0.9827
vn 0.9694 0.2453 -0.0000
vn -0.0000 0.2454 0.9694
vn -0.9814 -0.1917 -0.0000
vn -0.0000 0.2479 -0.9688
vn 0.9678 0.2516 -0.0000
vn -0.0000 -0.1878 0.9822
vn -0.9674 0.2532 -0.0000
vn -0.0000 0.2528 -0.9675
vn 0.9813 -0.1922 -0.0000
vn -0.0000 -0.1918 0.9814
vt 0.591402 0.014620
vt 0.591402 0.235380
vt 0.375000 0.250000
vt 0.625000 0.250000
vt 0.625000 0.500000
vt 0.375000 0.500000
vt 0.625000 0.750000
vt 0.375000 0.750000
vt 0.625000 1.000000
vt 0.375000 1.000000
vt 0.125000 0.500000
vt 0.125000 0.750000
vt 0.875000 0.500000
vt 0.875000 0.750000
vt 0.408598 0.014620
vt 0.408598 0.235380
vt 0.375000 0.000000
vt 0.625000 0.000000
s 1
f 2/1/1 4/2/1 16/2/1 15/1/1
f 9/3/2 12/4/2 8/5/2 7/6/2
f 7/6/3 8/5/3 6/7/3 5/8/3
f 5/8/4 6/7/4 11/9/4 10/10/4
f 9/11/1 7/6/1 5/8/1 10/12/1
f 8/5/5 12/13/5 11/14/5 6/7/5
f 1/15/6 3/16/6 9/3/6 10/17/6
f 2/1/6 1/15/6 10/17/6 11/18/6
f 4/2/6 2/1/6 11/18/6 12/4/6
f 3/16/6 4/2/6 12/4/6 9/3/6
f 14/15/6 15/1/6 16/2/6 13/16/6
f 3/16/5 1/15/5 14/15/5 13/16/5
f 4/2/4 3/16/4 13/16/4 16/2/4
f 1/15/2 2/1/2 15/1/2 14/15/2
f 17/17/7 18/18/7 20/4/7 19/3/7
f 19/3/8 20/4/8 24/5/8 23/6/8
f 23/6/9 24/5/9 22/7/9 21/8/9
f 21/8/10 22/7/10 18/9/10 17/10/10
f 19/11/1 23/6/1 21/8/1 17/12/1
f 24/5/5 20/13/5 18/14/5 22/7/5
f 25/17/11 26/18/11 28/4/11 27/3/11
f 27/3/12 28/4/12 32/5/12 31/6/12
f 31/6/13 32/5/13 30/7/13 29/8/13
f 29/8/14 30/7/14 26/9/14 25/10/14
f 27/11/1 31/6/1 29/8/1 25/12/1
f 32/5/5 28/13/5 26/14/5 30/7/5
f 33/17/15 34/18/15 36/4/15 35/3/15
f 35/3/16 36/4/16 40/5/16 39/6/16
f 39/6/17 40/5/17 38/7/17 37/8/17
f 37/8/18 38/7/18 34/9/18 33/10/18
f 35/11/1 39/6/1 37/8/1 33/12/1
f 40/5/5 36/13/5 34/14/5 38/7/5
f 41/17/19 42/18/19 44/4/19 43/3/19
f 43/3/20 44/4/20 48/5/20 47/6/20
f 47/6/21 48/5/21 46/7/21 45/8/21
f 45/8/22 46/7/22 42/9/22 41/10/22
f 43/11/1 47/6/1 45/8/1 41/12/1
f 48/5/5 44/13/5 42/14/5 46/7/5
o Tiroir_de_chevet
v 0.386139 0.853533 4.007047
v 0.433242 1.273176 3.959944
v 0.386139 0.853533 2.817966
v 0.433242 1.273176 2.865069
v 1.646913 0.853533 4.007047
v 1.599810 1.273176 3.959944
v 1.646913 0.853533 2.817966
v 1.599810 1.273176 2.865069
v 0.386139 1.273176 4.007047
v 0.386139 1.273176 2.817966
v 1.646913 1.273176 2.817966
v 1.646913 1.273176 4.007047
v 0.433242 0.872524 3.959944
v 0.433242 0.872524 2.865069
v 1.599810 0.872524 2.865069
v 1.599810 0.872524 3.959944
v 0.322635 1.094056 3.390239
v 0.394617 1.094056 3.390239
v 0.322635 1.062887 3.408235
v 0.394617 1.062887 3.408235
v 0.322635 1.062887 3.444226
v 0.394617 1.062887 3.444226
v 0.322635 1.094056 3.462221
v 0.394617 1.094056 3.462221
v 0.322635 1.125225 3.444226
v 0.394617 1.125225 3.444226
v 0.322635 1.125225 3.408235
v 0.394617 1.125225 3.408235
vn -1.0000 -0.0000 -0.0000
vn -0.0000 -0.0000 -1.0000
vn 1.0000 -0.0000 -0.0000
vn -0.0000 -0.0000 1.0000
vn -0.0000 -1.0000 -0.0000
vn -0.0000 1.0000 -0.0000
vn -0.0000 -0.5000 -0.8660
vn -0.0000 -0.5000 0.8660
vn -0.0000 0.5000 0.8660
vn -0.0000 0.5000 -0.8660
vt 0.375000 0.000000
vt 0.625000 0.000000
vt 0.625000 0.250000
vt 0.375000 0.250000
vt 0.625000 0.500000
vt 0.375000 0.500000
vt 0.625000 0.750000
vt 0.375000 0.750000
vt 0.625000 1.000000
vt 0.375000 1.000000
vt 0.125000 0.500000
vt 0.125000 0.750000
vt 0.634340 0.740097
vt 0.634340 0.509903
vt 0.865660 0.740097
vt 0.865660 0.509903
vt 0.875000 0.500000
vt 0.875000 0.750000
vt 1.000000 0.500000
vt 1.000000 1.000000
vt 0.833333 1.000000
vt 0.833333 0.500000
vt 0.666667 1.000000
vt 0.666667 0.500000
vt 0.500000 1.000000
vt 0.500000 0.500000
vt 0.333333 1.000000
vt 0.333333 0.500000
vt 0.457846 0.370000
vt 0.250000 0.490000
vt 0.042154 0.370000
vt 0.042154 0.130000
vt 0.250000 0.010000
vt 0.457846 0.130000
vt 0.166667 1.000000
vt 0.166667 0.500000
vt -0.000000 1.000000
vt -0.000000 0.500000
vt 0.750000 0.490000
vt 0.957846 0.370000
vt 0.957846 0.130000
vt 0.750000 0.010000
vt 0.542154 0.130000
vt 0.542154 0.370000
s 1
f 49/19/23 57/20/23 58/21/23 51/22/23
f 51/22/24 58/21/24 59/23/24 55/24/24
f 55/24/25 59/23/25 60/25/25 53/26/25
f 53/26/26 60/25/26 57/27/26 49/28/26
f 51/29/27 55/24/27 53/26/27 49/30/27
f 54/31/23 56/32/23 63/32/23 64/31/23
f 50/33/28 52/34/28 58/35/28 57/36/28
f 52/34/28 56/32/28 59/23/28 58/35/28
f 56/32/28 54/31/28 60/25/28 59/23/28
f 54/31/28 50/33/28 57/36/28 60/25/28
f 63/32/28 62/34/28 61/33/28 64/31/28
f 52/34/25 50/33/25 61/33/25 62/34/25
f 50/33/24 54/31/24 64/31/24 61/33/24
f 56/32/26 52/34/26 62/34/26 63/32/26
f 65/37/29 66/38/29 68/39/29 67/40/29
f 67/40/27 68/39/27 70/41/27 69/42/27
f 69/42/30 70/41/30 72/43/30 71/44/30
f 71/44/31 72/43/31 74/45/31 73/46/31
f 68/47/25 66/48/25 76/49/25 74/50/25 72/51/25 70/52/25
f 73/46/28 74/45/28 76/53/28 75/54/28
f 75/54/32 76/53/32 66/55/32 65/56/32
f 65/57/23 67/58/23 69/59/23 71/60/23 73/61/23 75/62/23
