# Blender 5.0.1
# www.blender.org
mtllib geometrie_fridge.mtl
o Bottom_Door
v 1.577365 0.020204 1.230270
v 1.577365 1.209149 1.230270
v 1.593503 0.020204 -0.546387
v 1.593503 1.209149 -0.546387
v 1.646607 0.020204 1.230270
v 1.646607 1.209149 1.230270
v 1.646607 0.020204 -0.490216
v 1.646607 1.209149 -0.490216
v 1.546959 0.020204 -0.489986
v 1.546959 1.209149 -0.489986
v 1.579388 0.020204 -0.490216
v 1.579388 1.209149 -0.490216
v 1.546959 0.020204 1.190047
v 1.646607 1.209149 1.190047
v 1.546959 1.209149 1.190047
v 1.646607 0.020204 1.190047
v 1.579388 1.209149 1.190047
v 1.579388 0.020204 1.190047
vn -0.7713 -0.0000 -0.6365
vn -0.0000 -0.0000 -1.0000
vn 1.0000 -0.0000 -0.0000
vn -0.0000 -1.0000 -0.0000
vn -0.0000 1.0000 -0.0000
vn -1.0000 -0.0000 -0.0000
vn -0.0000 -0.0000 1.0000
vn 0.9698 -0.0000 0.2437
vn -0.7977 -0.0000 0.6030
vt 0.375000 0.125000
vt 0.625000 0.125000
vt 0.625000 0.250000
vt 0.375000 0.250000
vt 0.375000 0.375000
vt 0.625000 0.375000
vt 0.625000 0.500000
vt 0.375000 0.500000
vt 0.375000 0.687500
vt 0.625000 0.687500
vt 0.625000 0.750000
vt 0.375000 0.750000
vt 0.250000 0.687500
vt 0.250000 0.750000
vt 0.750000 0.687500
vt 0.875000 0.687500
vt 0.750000 0.750000
vt 0.750000 0.500000
vt 0.875000 0.500000
vt 0.875000 0.625000
vt 0.375000 0.062500
vt 0.625000 0.062500
vt 0.125000 0.500000
vt 0.250000 0.625000
vt 0.125000 0.625000
vt 0.125000 0.687500
vt 0.125000 0.750000
vt 0.625000 0.875000
vt 0.375000 0.875000
vt 0.625000 0.625000
vt 0.750000 0.625000
vt 0.375000 0.000000
vt 0.625000 0.000000
vt 0.375000 0.625000
s 1
f 9/1/1 10/2/1 4/3/1 3/4/1
f 11/5/2 12/6/2 8/7/2 7/8/2
f 16/9/3 14/10/3 6/11/3 5/12/3
f 18/13/4 16/9/4 5/12/4 1/14/4
f 17/15/5 15/16/5 2/17/5
f 12/18/5 4/19/5 10/20/5
f 13/21/6 15/22/6 10/2/6 9/1/6
f 3/23/4 11/24/4 9/25/4
f 14/10/5 17/15/5 2/17/5 6/11/5
f 13/26/4 18/13/4 1/27/4
f 5/12/7 6/11/7 2/28/7 1/29/7
f 3/4/8 4/3/8 12/6/8 11/5/8
f 9/25/4 11/24/4 18/13/4 13/26/4
f 8/30/5 12/31/5 17/15/5 14/10/5
f 1/32/9 2/33/9 15/22/9 13/21/9
f 12/31/5 10/20/5 15/16/5 17/15/5
f 11/24/4 7/34/4 16/9/4 18/13/4
f 7/34/3 8/30/3 14/10/3 16/9/3
o Fridge
v 1.646741 0.087339 1.177586
v 1.646741 4.287803 1.177585
v 1.646741 0.087339 -0.493990
v 1.646741 4.287803 -0.493991
v 2.773621 -0.003015 1.267939
v 2.773621 4.378156 1.267939
v 2.773621 -0.003015 -0.584344
v 2.773621 4.378156 -0.584344
v 1.646741 -0.003015 -0.584344
v 1.646741 -0.003015 1.267939
v 1.646741 4.378156 1.267939
v 1.646741 4.378156 -0.584344
v 1.646741 1.159619 1.267939
v 1.646741 1.159619 -0.584344
v 2.773621 1.159619 -0.584344
v 2.773621 1.159619 1.267939
v 1.646741 1.202018 1.177586
v 1.646741 1.202018 -0.493990
v 1.646741 1.313681 1.267939
v 1.646741 1.349725 1.177586
v 1.646741 1.313681 -0.584344
v 2.773621 1.313681 -0.584344
v 2.773621 1.313681 1.267939
v 1.646741 1.349725 -0.493990
v 2.680903 0.087339 -0.493990
v 2.680903 0.087339 1.177586
v 2.680903 1.349725 1.177586
v 2.680903 4.287803 1.177585
v 2.680903 4.287803 -0.493991
v 2.680903 1.202018 -0.493990
v 2.680903 1.202018 1.177586
v 2.680903 1.349725 -0.493990
v 1.657259 2.433681 1.203060
v 1.657259 2.454496 1.203060
v 1.657259 2.433681 -0.508818
v 1.657259 2.454495 -0.508818
v 2.752971 2.433681 1.203060
v 2.752971 2.454496 1.203060
v 2.752971 2.433681 -0.508818
v 2.752971 2.454495 -0.508818
v 1.657259 3.108790 1.203060
v 1.657259 3.129321 1.203060
v 1.657259 3.108790 -0.508818
v 1.657259 3.129321 -0.508818
v 2.752971 3.108790 1.203060
v 2.752971 3.129321 1.203060
v 2.752971 3.108790 -0.508818
v 2.752971 3.129321 -0.508818
vn -0.0000 -1.0000 -0.0000
vn -0.0000 -0.0000 -1.0000
vn 1.0000 -0.0000 -0.0000
vn -0.0000 -0.0000 1.0000
vn -0.0000 1.0000 -0.0000
vn -1.0000 -0.0000 -0.0000
vt 0.619844 0.012195
vt 0.619844 0.237805
vt 0.562500 0.250000
vt 0.625000 0.250000
vt 0.625000 0.500000
vt 0.562500 0.500000
vt 0.625000 0.750000
vt 0.562500 0.750000
vt 0.625000 1.000000
vt 0.562500 1.000000
vt 0.125000 0.500000
vt 0.375000 0.500000
vt 0.375000 0.750000
vt 0.125000 0.750000
vt 0.875000 0.500000
vt 0.875000 0.750000
vt 0.380156 0.012195
vt 0.380156 0.237805
vt 0.375000 0.250000
vt 0.375000 0.000000
vt 0.500000 0.012195
vt 0.500000 0.000000
vt 0.625000 0.000000
vt 0.559922 0.237805
vt 0.500000 0.237805
vt 0.500000 0.250000
vt 0.559922 0.012195
vt 0.562500 0.000000
vt 0.500000 0.750000
vt 0.500000 1.000000
vt 0.375000 1.000000
vt 0.500000 0.500000
s 1
f 20/35/10 22/36/10 47/36/10 46/35/10
f 39/37/11 30/38/11 26/39/11 40/40/11
f 40/40/12 26/39/12 24/41/12 41/42/12
f 41/42/13 24/41/13 29/43/13 37/44/13
f 27/45/10 25/46/10 23/47/10 28/48/10
f 26/39/14 30/49/14 29/50/14 24/41/14
f 19/51/15 21/52/15 27/53/15 28/54/15
f 35/55/15 19/51/15 28/54/15 31/56/15
f 22/36/15 20/35/15 29/57/15 30/38/15
f 42/58/15 22/36/15 30/38/15 39/37/15
f 21/52/15 36/59/15 32/60/15 27/53/15
f 38/61/15 35/55/15 31/56/15 37/62/15
f 23/47/13 34/63/13 31/64/13 28/65/13
f 25/46/12 33/66/12 34/63/12 23/47/12
f 27/53/11 32/60/11 33/66/11 25/46/11
f 35/55/10 36/59/10 48/59/10 49/55/10
f 20/35/15 38/61/15 37/62/15 29/57/15
f 36/59/15 42/58/15 39/37/15 32/60/15
f 34/63/13 41/42/13 37/44/13 31/64/13
f 33/66/12 40/40/12 41/42/12 34/63/12
f 32/60/11 39/37/11 40/40/11 33/66/11
f 35/55/15 38/61/15 42/58/15 36/59/15
f 45/61/15 46/35/15 47/36/15 50/58/15
f 44/51/15 49/55/15 48/59/15 43/52/15
f 21/52/14 19/51/14 44/51/14 43/52/14
f 42/58/14 38/61/14 45/61/14 50/58/14
f 22/36/13 42/58/13 50/58/13 47/36/13
f 36/59/13 21/52/13 43/52/13 48/59/13
f 19/51/11 35/55/11 49/55/11 44/51/11
f 38/61/11 20/35/11 46/35/11 45/61/11
f 51/54/15 52/57/15 54/38/15 53/53/15
f 53/53/11 54/38/11 58/39/11 57/46/11
f 57/46/12 58/39/12 56/41/12 55/47/12
f 55/47/13 56/41/13 52/43/13 51/65/13
f 53/45/10 57/46/10 55/47/10 51/48/10
f 58/39/14 54/49/14 52/50/14 56/41/14
f 59/54/15 60/57/15 62/38/15 61/53/15
f 61/53/11 62/38/11 66/39/11 65/46/11
f 65/46/12 66/39/12 64/41/12 63/47/12
f 63/47/13 64/41/13 60/43/13 59/65/13
f 61/45/10 65/46/10 63/47/10 59/48/10
f 66/39/14 62/49/14 60/50/14 64/41/14
o Top_Door
v 1.577365 1.321833 1.230270
v 1.577365 4.296457 1.230269
v 1.593503 1.321833 -0.546387
v 1.593503 4.296456 -0.546388
v 1.646607 1.321833 1.230270
v 1.646607 4.296457 1.230269
v 1.646607 1.321833 -0.490216
v 1.646607 4.296456 -0.490216
v 1.546959 1.321833 -0.489986
v 1.546959 4.296456 -0.489986
v 1.579388 1.321833 -0.490216
v 1.579388 4.296456 -0.490216
v 1.546959 1.321833 1.190047
v 1.646607 4.296457 1.190046
v 1.546959 4.296457 1.190046
v 1.646607 1.321833 1.190047
v 1.579388 4.296457 1.190046
v 1.579388 1.321833 1.190047
vn -0.7713 -0.0000 -0.6365
vn -0.0000 -0.0000 -1.0000
vn 1.0000 -0.0000 -0.0000
vn -0.0000 -1.0000 -0.0000
vn -0.0000 1.0000 -0.0000
vn -1.0000 -0.0000 -0.0000
vn -0.0000 -0.0000 1.0000
vn 0.9699 -0.0000 0.2437
vn -0.7977 -0.0000 0.6030
vt 0.375000 0.125000
vt 0.625000 0.125000
vt 0.625000 0.250000
vt 0.375000 0.250000
vt 0.375000 0.375000
vt 0.625000 0.375000
vt 0.625000 0.500000
vt 0.375000 0.500000
vt 0.375000 0.687500
vt 0.625000 0.687500
vt 0.625000 0.750000
vt 0.375000 0.750000
vt 0.250000 0.687500
vt 0.250000 0.750000
vt 0.750000 0.687500
vt 0.875000 0.687500
vt 0.750000 0.750000
vt 0.750000 0.500000
vt 0.875000 0.500000
vt 0.875000 0.625000
vt 0.375000 0.062500
vt 0.625000 0.062500
vt 0.125000 0.500000
vt 0.250000 0.625000
vt 0.125000 0.625000
vt 0.125000 0.687500
vt 0.125000 0.750000
vt 0.625000 0.875000
vt 0.375000 0.875000
vt 0.625000 0.625000
vt 0.750000 0.625000
vt 0.375000 0.000000
vt 0.625000 0.000000
vt 0.375000 0.625000
s 1
f 75/67/16 76/68/16 70/69/16 69/70/16
f 77/71/17 78/72/17 74/73/17 73/74/17
f 82/75/18 80/76/18 72/77/18 71/78/18
f 84/79/19 82/75/19 71/78/19 67/80/19
f 83/81/20 81/82/20 68/83/20
f 78/84/20 70/85/20 76/86/20
f 79/87/21 81/88/21 76/68/21 75/67/21
f 69/89/19 77/90/19 75/91/19
f 80/76/20 83/81/20 68/83/20 72/77/20
f 79/92/19 84/79/19 67/93/19
f 71/78/22 72/77/22 68/94/22 67/95/22
f 69/70/23 70/69/23 78/72/23 77/71/23
f 75/91/19 77/90/19 84/79/19 79/92/19
f 74/96/20 78/97/20 83/81/20 80/76/20
f 67/98/24 68/99/24 81/88/24 79/87/24
f 78/97/20 76/86/20 81/82/20 83/81/20
f 77/90/19 73/100/19 82/75/19 84/79/19
f 73/100/18 74/96/18 80/76/18 82/75/18
