# Blender 5.0.1
# www.blender.org
mtllib geometry_gas_stove.mtl
o Big_Drawer
v -2.195619 0.692670 1.574636
v -2.195619 1.665958 1.574636
v -2.195619 0.692670 0.402639
v -2.195619 1.665958 0.402639
v -2.289058 0.713198 1.524605
v -2.289058 1.158870 1.524605
v -2.289058 0.713198 0.452670
v -2.289058 1.158870 0.452670
v -2.289058 1.158870 0.424700
v -2.289058 0.703867 0.424700
v -2.289058 0.703867 1.552576
v -2.289058 1.158870 1.552576
v -2.289058 1.665958 0.402639
v -2.289058 0.692670 0.409910
v -2.289058 1.665958 1.574636
v -2.289058 0.692670 1.567366
v -2.289058 1.642718 0.474731
v -2.289058 0.715910 0.474731
v -2.289058 1.642719 1.502544
v -2.289058 0.715910 1.502544
v -3.502377 0.692670 1.567366
v -3.502377 0.692670 0.409910
v -3.502377 0.715910 1.502544
v -3.502377 0.715910 0.474731
v -3.502377 1.158870 0.424700
v -3.502377 0.703867 0.424700
v -3.502377 1.158870 1.552576
v -3.502377 0.703867 1.552576
v -3.502377 1.158870 0.452670
v -3.502377 0.713198 0.452670
v -3.502377 1.158870 1.524605
v -3.502377 0.713198 1.524605
v -3.469799 1.158870 0.452670
v -3.469799 0.713198 0.452670
v -3.469799 1.158870 1.524605
v -3.469799 0.713198 1.524605
v -2.289058 1.199759 0.424700
v -2.289058 1.199759 0.452670
v -2.289058 1.199759 1.552576
v -2.289058 1.199759 1.524605
v -3.502377 1.199759 0.424700
v -3.502377 1.199759 0.452670
v -3.502377 1.199759 1.552576
v -3.502377 1.199759 1.524605
v -3.469799 1.199759 0.452670
v -3.469799 1.199759 1.524605
v -2.289058 1.247248 0.424700
v -2.289058 1.247248 0.452670
v -2.289058 1.247249 1.552576
v -2.289058 1.247249 1.524605
v -3.502377 1.247248 0.424700
v -3.502377 1.247248 0.452670
v -3.502377 1.247249 1.552576
v -3.502377 1.247249 1.524605
v -3.469799 1.247248 0.452670
v -3.469799 1.247249 1.524605
v -2.289058 1.199759 1.574636
v -3.502377 1.199759 1.574636
v -2.289058 1.247249 1.574636
v -3.502377 1.247249 1.574636
v -2.289058 1.199759 0.402639
v -3.502377 1.199759 0.402639
v -2.289058 1.247248 0.402639
v -3.502377 1.247248 0.402639
v -2.222137 1.082541 1.257300
v -2.222137 1.193859 1.257300
v -2.110818 1.082541 1.257419
v -2.110818 1.193859 1.257419
v -2.222255 1.082541 1.368618
v -2.222255 1.193859 1.368618
v -2.110938 1.082541 1.368737
v -2.110938 1.193859 1.368737
v -2.060069 1.193859 1.257473
v -2.060069 1.082541 1.257473
v -2.060187 1.082541 1.368791
v -2.060187 1.193859 1.368791
v -2.110272 1.193859 0.745133
v -2.110272 1.082541 0.745133
v -2.059522 1.193859 0.745188
v -2.059522 1.082541 0.745188
v -2.110149 1.193859 0.630497
v -2.110149 1.082541 0.630497
v -2.059399 1.193859 0.630551
v -2.059399 1.082541 0.630551
v -2.221590 1.193859 0.745014
v -2.221590 1.082541 0.745014
v -2.221467 1.193859 0.630378
v -2.221467 1.082541 0.630378
vn 1.0000 -0.0000 -0.0000
vn -0.0389 -0.0037 -0.9992
vn -1.0000 -0.0000 -0.0000
vn -0.0389 -0.0037 0.9992
vn -0.0000 -1.0000 -0.0000
vn -0.0000 1.0000 -0.0000
vn -0.0000 -0.0000 -1.0000
vn -0.0000 0.9413 -0.3375
vn -0.0000 -0.0000 1.0000
vn -0.0000 0.9413 0.3375
vn -0.0000 -0.9486 0.3164
vn -0.0000 -0.9486 -0.3164
vn -0.0000 -0.7973 -0.6036
vn -0.0000 -0.9925 -0.1220
vn -0.0000 -0.9925 0.1220
vn -0.0000 -0.7973 0.6036
vn -0.0011 -0.0000 1.0000
vn 0.0011 -0.0000 -1.0000
vn 1.0000 -0.0000 0.0011
vn -1.0000 -0.0000 -0.0011
vt 0.375000 0.000000
vt 0.375000 0.250000
vt 0.625000 0.250000
vt 0.625000 0.000000
vt 0.375000 0.500000
vt 0.625000 0.500000
vt 0.390378 0.515378
vt 0.390378 0.734622
vt 0.609622 0.734622
vt 0.609622 0.515378
vt 0.375000 0.750000
vt 0.375000 1.000000
vt 0.625000 1.000000
vt 0.625000 0.750000
vt 0.125000 0.500000
vt 0.125000 0.750000
vt 0.875000 0.750000
vt 0.875000 0.500000
vt 0.386361 0.504706
vt 0.613639 0.504706
vt 0.392327 0.739328
vt 0.607673 0.739328
vt 0.386361 0.745294
vt 0.613639 0.745294
vt 0.392327 0.510672
vt 0.607673 0.510672
vt 0.000000 0.000000
s 1
f 1/1/1 3/2/1 4/3/1 2/4/1
f 3/2/2 14/5/2 13/6/2 4/3/2
f 18/7/3 20/8/3 19/9/3 17/10/3
f 16/11/4 1/12/4 2/13/4 15/14/4
f 3/15/5 1/16/5 16/11/5 14/5/5
f 13/6/6 15/14/6 2/17/6 4/18/6
f 10/19/7 26/19/7 25/20/7 9/20/7
f 18/7/6 24/7/6 23/8/6 20/8/6
f 19/9/3 15/14/3 13/6/3 17/10/3
f 5/21/7 32/21/7 31/22/7 6/22/7
f 9/20/3 13/6/3 14/5/3 10/19/3
f 11/23/3 16/11/3 15/14/3 12/24/3
f 7/25/3 18/7/3 17/10/3 8/26/3
f 6/22/3 19/9/3 20/8/3 5/21/3
f 8/26/3 17/10/3 13/6/3 9/20/3
f 10/19/3 14/5/3 18/7/3 7/25/3
f 5/21/3 20/8/3 16/11/3 11/23/3
f 12/24/3 15/14/3 19/9/3 6/22/3
f 29/26/3 25/20/3 26/19/3 30/25/3
f 24/7/3 22/5/3 21/11/3 23/8/3
f 32/21/3 28/23/3 27/24/3 31/22/3
f 29/27/1 42/27/1 44/27/1 31/27/1
f 14/5/8 22/5/8 24/7/8 18/7/8
f 16/11/5 21/11/5 22/5/5 14/5/5
f 8/26/9 38/26/9 42/26/9 29/26/9
f 12/24/9 27/24/9 28/23/9 11/23/9
f 20/8/10 23/8/10 21/11/10 16/11/10
f 7/25/11 30/25/11 26/19/11 10/19/11
f 8/26/9 29/26/9 30/25/9 7/25/9
f 11/23/12 28/23/12 32/21/12 5/21/12
f 11/23/13 16/11/13 21/11/13 28/23/13
f 32/27/1 28/27/1 21/27/1 23/27/1
f 32/27/14 23/27/14 20/27/14 5/27/14
f 18/7/15 24/7/15 30/25/15 7/25/15
f 26/19/16 22/5/16 14/5/16 10/19/16
f 24/27/1 22/27/1 26/27/1 30/27/1
f 31/22/7 35/22/7 36/21/7 32/21/7
f 34/25/3 36/21/3 35/22/3 33/26/3
f 32/27/6 36/27/6 34/27/6 30/27/6
f 30/25/9 34/25/9 33/26/9 29/26/9
f 33/26/9 45/26/9 42/26/9 29/26/9
f 43/24/3 53/24/3 54/22/3 44/22/3
f 39/24/5 57/24/5 58/24/5 43/24/5
f 46/22/3 56/22/3 55/26/3 45/26/3
f 27/24/3 43/24/3 44/22/3 31/22/3
f 31/22/7 44/22/7 46/22/7 35/22/7
f 12/24/9 39/24/9 43/24/9 27/24/9
f 29/26/3 42/26/3 41/20/3 25/20/3
f 6/22/1 40/22/1 39/24/1 12/24/1
f 35/22/3 46/22/3 45/26/3 33/26/3
f 9/20/1 37/20/1 38/26/1 8/26/1
f 31/22/7 44/22/7 40/22/7 6/22/7
f 25/20/7 41/20/7 37/20/7 9/20/7
f 50/22/6 54/22/6 53/24/6 49/24/6
f 47/20/6 51/20/6 52/26/6 48/26/6
f 52/27/5 55/27/5 56/27/5 54/27/5
f 44/22/7 54/22/7 56/22/7 46/22/7
f 37/20/1 47/20/1 48/26/1 38/26/1
f 38/26/9 48/26/9 52/26/9 42/26/9
f 44/22/7 54/22/7 50/22/7 40/22/7
f 45/26/9 55/26/9 52/26/9 42/26/9
f 40/22/1 50/22/1 49/24/1 39/24/1
f 42/27/1 52/27/1 54/27/1 44/27/1
f 51/20/3 64/20/3 62/20/3 41/20/3
f 42/26/3 52/26/3 51/20/3 41/20/3
f 57/24/9 59/24/9 60/24/9 58/24/9
f 53/24/6 60/24/6 59/24/6 49/24/6
f 49/24/1 59/24/1 57/24/1 39/24/1
f 43/24/3 58/24/3 60/24/3 53/24/3
f 62/20/7 64/20/7 63/20/7 61/20/7
f 37/20/1 61/20/1 63/20/1 47/20/1
f 41/20/5 62/20/5 61/20/5 37/20/5
f 47/20/6 63/20/6 64/20/6 51/20/6
f 65/1/17 67/2/17 68/3/17 66/4/17
f 68/18/5 73/18/5 76/6/5 72/6/5
f 71/5/18 69/11/18 70/14/18 72/6/18
f 69/11/19 65/12/19 66/13/19 70/14/19
f 67/15/6 65/16/6 69/11/6 71/5/6
f 72/6/5 70/14/5 66/17/5 68/18/5
f 74/2/20 75/5/20 76/6/20 73/3/20
f 74/15/6 80/15/6 78/15/6 67/15/6
f 72/6/18 76/6/18 75/5/18 71/5/18
f 71/5/6 75/5/6 74/15/6 67/15/6
f 80/15/6 84/15/6 82/15/6 78/15/6
f 67/2/19 78/2/19 77/3/19 68/3/19
f 73/3/20 79/3/20 80/2/20 74/2/20
f 68/18/5 77/18/5 79/18/5 73/18/5
f 82/2/17 84/2/17 83/3/17 81/3/17
f 79/3/20 83/3/20 84/2/20 80/2/20
f 77/18/5 81/18/5 83/18/5 79/18/5
f 82/15/6 88/15/6 86/15/6 78/15/6
f 86/2/19 88/2/19 87/3/19 85/3/19
f 81/3/17 87/3/17 88/2/17 82/2/17
f 77/18/5 85/18/5 87/18/5 81/18/5
f 78/2/18 86/2/18 85/3/18 77/3/18
o Gas_Stove
v -2.255565 0.213477 0.395031
v -2.255565 0.213477 1.582244
v -3.252349 2.203361 0.676307
v -3.624472 0.072032 0.304184
v -3.252349 2.203361 1.300968
v -3.624472 0.072032 1.673091
v -2.627688 2.203361 0.676307
v -2.255565 0.072032 0.304184
v -2.627688 2.203361 1.300968
v -2.255565 0.072032 1.673091
v -2.255565 1.746805 0.304184
v -2.255565 1.320539 0.304184
v -2.255565 0.894273 0.304184
v -2.255565 0.468007 0.304184
v -3.624472 0.468007 1.673091
v -3.624472 0.894273 1.673091
v -3.624472 1.320539 1.673091
v -3.624472 1.746805 1.673091
v -2.255565 1.746805 1.673091
v -2.255565 1.320539 1.673091
v -2.255565 0.894273 1.673091
v -2.255565 0.468007 1.673091
v -3.624472 1.746805 0.304184
v -3.624472 1.320539 0.304184
v -3.624472 0.894273 0.304184
v -3.624472 0.468007 0.304184
v -2.372181 1.199759 0.395031
v -2.372181 1.158869 0.395031
v -2.255565 0.579915 0.395031
v -2.255565 0.210227 0.395031
v -2.372181 1.199759 1.582244
v -2.372181 1.158870 1.582244
v -2.255565 0.579915 1.582244
v -2.255565 0.210227 1.582244
v -3.436113 1.199759 0.395031
v -3.436113 1.158869 0.395031
v -3.436113 1.199759 1.582244
v -3.436113 1.158870 1.582244
v -3.552729 0.579915 0.395031
v -3.552729 0.210227 0.395031
v -3.552729 0.579915 1.582244
v -3.552729 0.210227 1.582244
v -2.255565 0.692671 0.395031
v -2.255565 0.692671 1.582244
v -3.552729 1.665958 0.395031
v -3.552729 0.692671 0.395031
v -3.552729 1.665958 1.582244
v -3.552729 0.692671 1.582244
v -2.255565 1.665958 0.395031
v -2.255565 0.692671 0.395031
v -2.255565 1.665958 1.582244
v -2.255565 0.692671 1.582244
v -3.552729 1.665958 0.395031
v -3.552729 0.692671 0.395031
v -3.552729 1.665958 1.582244
v -3.552729 0.692671 1.582244
v -2.372181 1.199759 0.415691
v -2.372181 1.158869 0.415691
v -3.436113 1.199759 0.415691
v -3.436113 1.158869 0.415691
v -2.372181 1.199759 1.565856
v -2.372181 1.158870 1.565856
v -3.436113 1.199759 1.565856
v -3.436113 1.158870 1.565856
v -2.255565 2.061916 0.395031
v -2.255565 2.061916 1.582244
v -2.255565 1.665958 0.395031
v -2.255565 1.665958 1.582244
v -2.255565 2.009634 0.428610
v -2.255565 2.009634 1.548665
v -2.255565 1.718240 0.428610
v -2.255565 1.718240 1.548665
v -2.243821 1.994727 0.438185
v -2.246625 2.005268 0.431415
v -2.243821 1.994727 1.539090
v -2.246625 2.005269 1.545860
v -2.243821 1.733147 0.438185
v -2.246625 1.722606 0.431415
v -2.243821 1.733147 1.539090
v -2.246625 1.722606 1.545860
v -2.255565 2.203361 1.673091
v -3.624472 2.203361 1.673091
v -2.255565 2.203361 0.304184
v -3.624472 2.203361 0.304184
v -2.255565 0.213477 1.582244
v -2.255565 0.213477 0.395031
v -3.624472 0.072032 1.673091
v -3.624472 0.072032 0.304184
v -2.255565 0.072032 1.673091
v -2.255565 0.072032 0.304184
v -2.255565 1.746805 1.673091
v -2.255565 1.320539 1.673091
v -2.255565 0.894273 1.673091
v -2.255565 0.468007 1.673091
v -3.624472 0.468007 0.304184
v -3.624472 0.894273 0.304184
v -3.624472 1.320539 0.304184
v -3.624472 1.746805 0.304184
v -2.255565 1.746805 0.304184
v -2.255565 1.320539 0.304184
v -2.255565 0.894273 0.304184
v -2.255565 0.468007 0.304184
v -3.624472 1.746805 1.673091
v -3.624472 1.320539 1.673091
v -3.624472 0.894273 1.673091
v -3.624472 0.468007 1.673091
v -2.372181 1.199759 1.582244
v -2.372181 1.158870 1.582244
v -2.255565 0.579915 1.582244
v -2.255565 0.210227 1.582244
v -2.372181 1.199759 0.395031
v -2.372181 1.158869 0.395031
v -2.255565 0.579915 0.395031
v -2.255565 0.210227 0.395031
v -3.436113 1.199759 1.582244
v -3.436113 1.158870 1.582244
v -3.436113 1.199759 0.395031
v -3.436113 1.158869 0.395031
v -3.552729 0.579915 1.582244
v -3.552729 0.210227 1.582244
v -3.552729 0.579915 0.395031
v -3.552729 0.210227 0.395031
v -2.255565 0.692671 1.582244
v -2.255565 0.692671 0.395031
v -3.552729 1.665958 1.582244
v -3.552729 0.692671 1.582244
v -3.552729 1.665958 0.395031
v -3.552729 0.692671 0.395031
v -2.255565 1.665958 1.582244
v -2.255565 0.692671 1.582244
v -2.255565 1.665958 0.395031
v -2.255565 0.692671 0.395031
v -3.552729 1.665958 1.582244
v -3.552729 0.692671 1.582244
v -3.552729 1.665958 0.395031
v -3.552729 0.692671 0.395031
v -2.372181 1.199759 1.561584
v -2.372181 1.158870 1.561584
v -3.436113 1.199759 1.561584
v -3.436113 1.158870 1.561584
v -2.372181 1.199759 0.411420
v -2.372181 1.158869 0.411420
v -3.436113 1.199759 0.411420
v -3.436113 1.158869 0.411420
v -2.255565 2.061916 1.582244
v -2.255565 2.061916 0.395031
v -2.255565 1.665958 1.582244
v -2.255565 1.665958 0.395031
v -2.255565 2.009634 1.548665
v -2.255565 2.009634 0.428610
v -2.255565 1.718240 1.548665
v -2.255565 1.718240 0.428610
v -2.243821 1.994727 1.539090
v -2.246625 2.005269 1.545860
v -2.243821 1.994727 0.438185
v -2.246625 2.005268 0.431415
v -2.243821 1.733147 1.539090
v -2.246625 1.722606 1.545860
v -2.243821 1.733147 0.438185
v -2.246625 1.722606 0.431415
v -2.255565 2.203361 0.304184
v -3.624472 2.203361 0.304184
v -2.255565 2.203361 1.673091
v -3.624472 2.203361 1.673091
v -2.346107 2.203361 1.582549
v -3.533930 2.203361 1.582549
v -2.346107 2.203361 0.394726
v -3.533930 2.203361 0.394726
v -2.346107 2.203361 0.394726
v -3.533930 2.203361 0.394726
v -2.346107 2.203361 1.582549
v -3.533930 2.203361 1.582549
v -2.633211 2.204547 0.486600
v -2.669485 2.204547 0.490173
v -2.704365 2.204547 0.500754
v -2.736511 2.204547 0.517936
v -2.764687 2.204547 0.541059
v -2.787810 2.204547 0.569235
v -2.804993 2.204547 0.601381
v -2.815574 2.204547 0.636261
v -2.819146 2.204547 0.672535
v -2.815574 2.204547 0.708809
v -2.804993 2.204547 0.743690
v -2.787810 2.204547 0.775835
v -2.764687 2.204547 0.804011
v -2.736511 2.204547 0.827135
v -2.704365 2.204547 0.844317
v -2.669485 2.204547 0.854898
v -2.633211 2.204547 0.858470
v -2.596937 2.204547 0.854898
v -2.562057 2.204547 0.844317
v -2.529911 2.204547 0.827135
v -2.501735 2.204547 0.804011
v -2.478612 2.204547 0.775835
v -2.461430 2.204547 0.743690
v -2.450849 2.204547 0.708809
v -2.447276 2.204547 0.672535
v -2.450849 2.204547 0.636261
v -2.461430 2.204547 0.601381
v -2.478612 2.204547 0.569235
v -2.501735 2.204547 0.541059
v -2.529911 2.204547 0.517936
v -2.562057 2.204547 0.500754
v -2.596937 2.204547 0.490173
v -2.693026 2.225461 0.890682
v -2.725031 2.225226 0.879569
v -2.681913 2.225475 0.858676
v -2.713918 2.225240 0.847564
v -2.693105 2.237409 0.890659
v -2.725111 2.237174 0.879547
v -2.713998 2.237188 0.847541
v -2.684695 2.225276 0.763398
v -2.652691 2.225511 0.774510
v -2.684775 2.237224 0.763376
v -2.652771 2.237459 0.774488
v -2.839263 2.225361 0.762629
v -2.852927 2.225361 0.731627
v -2.808261 2.225361 0.748965
v -2.821925 2.225361 0.717963
v -2.839263 2.237310 0.762629
v -2.852927 2.237310 0.731627
v -2.740398 2.225361 0.682030
v -2.726734 2.225361 0.713032
v -2.740398 2.237310 0.682030
v -2.726734 2.237310 0.713032
v -2.832723 2.225361 0.565827
v -2.816998 2.225361 0.535817
v -2.802713 2.225361 0.581551
v -2.786988 2.225361 0.551542
v -2.832723 2.237309 0.565827
v -2.816998 2.237309 0.535817
v -2.802713 2.237309 0.581551
v -2.708071 2.225361 0.592892
v -2.723795 2.225361 0.622902
v -2.708071 2.237309 0.592892
v -2.723795 2.237309 0.622902
v -2.671519 2.225125 0.446380
v -2.637844 2.225355 0.442674
v -2.667814 2.225219 0.480056
v -2.634138 2.225449 0.476351
v -2.671604 2.237073 0.446356
v -2.637928 2.237303 0.442650
v -2.624394 2.225697 0.564910
v -2.658070 2.225466 0.568616
v -2.624479 2.237645 0.564886
v -2.658155 2.237414 0.568592
v -2.482815 2.225378 0.499074
v -2.457866 2.225475 0.521995
v -2.505736 2.225326 0.524024
v -2.480787 2.225424 0.546945
v -2.482853 2.237326 0.499065
v -2.457903 2.237423 0.521986
v -2.541063 2.225288 0.612555
v -2.566012 2.225191 0.589633
v -2.541101 2.237236 0.612545
v -2.566050 2.237139 0.589624
v -2.404963 2.225360 0.678695
v -2.438823 2.225360 0.677531
v -2.439987 2.225360 0.711391
v -2.404963 2.237309 0.678695
v -2.406128 2.237309 0.712555
v -2.439987 2.237309 0.711391
v -2.529030 2.225360 0.708328
v -2.527865 2.225360 0.674468
v -2.529030 2.237309 0.708328
v -2.527865 2.237309 0.674468
v -2.516459 2.225512 0.827644
v -2.545372 2.225324 0.845304
v -2.498894 2.237665 0.856530
v -2.527807 2.237478 0.874190
v -2.545483 2.237272 0.845249
v -2.591809 2.224783 0.769271
v -2.562897 2.224971 0.751611
v -2.591903 2.236731 0.769243
v -2.562991 2.236919 0.751583
v -3.247192 2.204547 0.486600
v -3.210918 2.204547 0.490173
v -3.176038 2.204547 0.500754
v -3.143892 2.204547 0.517936
v -3.115716 2.204547 0.541059
v -3.092593 2.204547 0.569235
v -3.075411 2.204547 0.601381
v -3.064830 2.204547 0.636261
v -3.061257 2.204547 0.672535
v -3.064830 2.204547 0.708809
v -3.075411 2.204547 0.743690
v -3.092593 2.204547 0.775835
v -3.115716 2.204547 0.804011
v -3.143892 2.204547 0.827135
v -3.176038 2.204547 0.844317
v -3.210918 2.204547 0.854898
v -3.247192 2.204547 0.858470
v -3.283466 2.204547 0.854898
v -3.318346 2.204547 0.844317
v -3.350492 2.204547 0.827135
v -3.378668 2.204547 0.804011
v -3.401791 2.204547 0.775835
v -3.418973 2.204547 0.743690
v -3.429554 2.204547 0.708809
v -3.433127 2.204547 0.672535
v -3.429554 2.204547 0.636261
v -3.418973 2.204547 0.601381
v -3.401791 2.204547 0.569235
v -3.378668 2.204547 0.541059
v -3.350492 2.204547 0.517936
v -3.318346 2.204547 0.500754
v -3.283466 2.204547 0.490173
v -3.187377 2.225461 0.890682
v -3.155373 2.225226 0.879569
v -3.198490 2.225475 0.858676
v -3.166485 2.225240 0.847564
v -3.187298 2.237409 0.890659
v -3.155293 2.237174 0.879547
v -3.195708 2.225276 0.763398
v -3.227713 2.225511 0.774510
v -3.195628 2.237224 0.763376
v -3.227633 2.237459 0.774488
v -3.041140 2.225361 0.762629
v -3.027476 2.225361 0.731627
v -3.072142 2.225361 0.748965
v -3.058478 2.225361 0.717963
v -3.041140 2.237310 0.762629
v -3.027476 2.237310 0.731627
v -3.072142 2.237310 0.748965
v -3.140005 2.225361 0.682030
v -3.153670 2.225361 0.713032
v -3.140005 2.237310 0.682030
v -3.153670 2.237310 0.713032
v -3.047681 2.225361 0.565827
v -3.063405 2.225361 0.535817
v -3.077691 2.225361 0.581551
v -3.093415 2.225361 0.551542
v -3.047681 2.237309 0.565827
v -3.063405 2.237309 0.535817
v -3.077691 2.237309 0.581551
v -3.172333 2.225361 0.592892
v -3.156608 2.225361 0.622902
v -3.172333 2.237309 0.592892
v -3.156608 2.237309 0.622902
v -3.208884 2.225125 0.446380
v -3.242559 2.225355 0.442674
v -3.212589 2.225219 0.480056
v -3.246264 2.225449 0.476351
v -3.208799 2.237073 0.446356
v -3.242475 2.237303 0.442650
v -3.256009 2.225697 0.564910
v -3.222333 2.225466 0.568616
v -3.255924 2.237645 0.564886
v -3.222249 2.237414 0.568592
v -3.397588 2.225378 0.499074
v -3.422537 2.225475 0.521995
v -3.374667 2.225326 0.524024
v -3.399616 2.225424 0.546945
v -3.397550 2.237326 0.499065
v -3.422500 2.237423 0.521986
v -3.339340 2.225288 0.612555
v -3.314391 2.225191 0.589633
v -3.339303 2.237236 0.612545
v -3.314353 2.237139 0.589624
v -3.475440 2.225360 0.678695
v -3.474276 2.225360 0.712555
v -3.441580 2.225360 0.677531
v -3.440416 2.225360 0.711391
v -3.475440 2.237309 0.678695
v -3.474276 2.237309 0.712555
v -3.351374 2.225360 0.708328
v -3.352538 2.225360 0.674468
v -3.351374 2.237309 0.708328
v -3.352538 2.237309 0.674468
v -3.381603 2.225717 0.856557
v -3.352690 2.225530 0.874217
v -3.363944 2.225512 0.827644
v -3.335031 2.225324 0.845304
v -3.381509 2.237665 0.856530
v -3.352596 2.237478 0.874190
v -3.288594 2.224783 0.769271
v -3.317506 2.224971 0.751611
v -3.288500 2.236731 0.769243
v -3.317412 2.236919 0.751583
v -2.633211 2.204547 1.472451
v -2.669485 2.204547 1.468879
v -2.704365 2.204547 1.458298
v -2.736511 2.204547 1.441116
v -2.764687 2.204547 1.417992
v -2.787810 2.204547 1.389816
v -2.804993 2.204547 1.357671
v -2.815574 2.204547 1.322790
v -2.819146 2.204547 1.286516
v -2.815574 2.204547 1.250242
v -2.804993 2.204547 1.215362
v -2.787810 2.204547 1.183216
v -2.764687 2.204547 1.155041
v -2.736511 2.204547 1.131917
v -2.704365 2.204547 1.114735
v -2.669485 2.204547 1.104154
v -2.633211 2.204547 1.100581
v -2.596937 2.204547 1.104154
v -2.562057 2.204547 1.114735
v -2.529911 2.204547 1.131917
v -2.501735 2.204547 1.155041
v -2.478612 2.204547 1.183216
v -2.461430 2.204547 1.215362
v -2.450849 2.204547 1.250242
v -2.447276 2.204547 1.286516
v -2.450849 2.204547 1.322790
v -2.461430 2.204547 1.357671
v -2.478612 2.204547 1.389816
v -2.501735 2.204547 1.417992
v -2.529911 2.204547 1.441116
v -2.562057 2.204547 1.458298
v -2.596937 2.204547 1.468879
v -2.693026 2.225461 1.068370
v -2.725031 2.225226 1.079482
v -2.681913 2.225475 1.100376
v -2.713918 2.225240 1.111488
v -2.693105 2.237409 1.068393
v -2.725111 2.237174 1.079505
v -2.713998 2.237188 1.111510
v -2.684695 2.225276 1.195654
v -2.652691 2.225511 1.184541
v -2.684775 2.237224 1.195676
v -2.652771 2.237459 1.184564
v -2.839263 2.225361 1.196422
v -2.852927 2.225361 1.227425
v -2.808261 2.225361 1.210086
v -2.821925 2.225361 1.241089
v -2.839263 2.237310 1.196422
v -2.852927 2.237310 1.227425
v -2.821925 2.237310 1.241089
v -2.740398 2.225361 1.277022
v -2.726734 2.225361 1.246020
v -2.740398 2.237310 1.277022
v -2.726734 2.237310 1.246020
v -2.832723 2.225361 1.393225
v -2.816998 2.225361 1.423235
v -2.802713 2.225361 1.377500
v -2.786988 2.225361 1.407510
v -2.832723 2.237309 1.393225
v -2.816998 2.237309 1.423235
v -2.786988 2.237309 1.407510
v -2.708071 2.225361 1.366159
v -2.723795 2.225361 1.336149
v -2.708071 2.237309 1.366159
v -2.723795 2.237309 1.336149
v -2.671519 2.225125 1.512672
v -2.637844 2.225355 1.516378
v -2.667814 2.225219 1.478995
v -2.634138 2.225449 1.482701
v -2.671604 2.237073 1.512696
v -2.637928 2.237303 1.516402
v -2.667899 2.237167 1.479019
v -2.624394 2.225697 1.394141
v -2.658070 2.225466 1.390435
v -2.624479 2.237645 1.394165
v -2.658155 2.237414 1.390459
v -2.482815 2.225378 1.459977
v -2.457866 2.225475 1.437056
v -2.505736 2.225327 1.435028
v -2.480787 2.225424 1.412107
v -2.482853 2.237326 1.459987
v -2.457903 2.237423 1.437066
v -2.505774 2.237275 1.435038
v -2.541063 2.225288 1.346497
v -2.566012 2.225191 1.369418
v -2.541101 2.237236 1.346507
v -2.566050 2.237139 1.369428
v -2.404963 2.225360 1.280356
v -2.406128 2.225360 1.246496
v -2.438823 2.225360 1.281521
v -2.439987 2.225360 1.247661
v -2.404963 2.237309 1.280356
v -2.406128 2.237309 1.246496
v -2.438823 2.237309 1.281521
v -2.529030 2.225360 1.250724
v -2.527865 2.225360 1.284584
v -2.529030 2.237309 1.250724
v -2.527865 2.237309 1.284584
v -2.498800 2.225717 1.102494
v -2.527713 2.225530 1.084834
v -2.516459 2.225512 1.131407
v -2.545372 2.225324 1.113748
v -2.498894 2.237665 1.102521
v -2.527807 2.237478 1.084862
v -2.545466 2.237272 1.113775
v -2.591809 2.224783 1.189781
v -2.562897 2.224971 1.207441
v -2.591903 2.236731 1.189808
v -2.562991 2.236919 1.207468
v -3.247192 2.204547 1.472451
v -3.210918 2.204547 1.468879
v -3.176038 2.204547 1.458298
v -3.143892 2.204547 1.441116
v -3.115716 2.204547 1.417992
v -3.092593 2.204547 1.389816
v -3.075411 2.204547 1.357671
v -3.064830 2.204547 1.322790
v -3.061257 2.204547 1.286516
v -3.064830 2.204547 1.250242
v -3.075411 2.204547 1.215362
v -3.092593 2.204547 1.183216
v -3.115716 2.204547 1.155041
v -3.143892 2.204547 1.131917
v -3.176038 2.204547 1.114735
v -3.210918 2.204547 1.104154
v -3.247192 2.204547 1.100581
v -3.283466 2.204547 1.104154
v -3.318346 2.204547 1.114735
v -3.350492 2.204547 1.131917
v -3.378668 2.204547 1.155041
v -3.401791 2.204547 1.183216
v -3.418973 2.204547 1.215362
v -3.429554 2.204547 1.250242
v -3.433127 2.204547 1.286516
v -3.429554 2.204547 1.322790
v -3.418973 2.204547 1.357671
v -3.401791 2.204547 1.389816
v -3.378668 2.204547 1.417992
v -3.350492 2.204547 1.441116
v -3.318346 2.204547 1.458298
v -3.283466 2.204547 1.468879
v -3.187377 2.225461 1.068370
v -3.155373 2.225226 1.079482
v -3.198490 2.225475 1.100376
v -3.166485 2.225240 1.111488
v -3.187298 2.237409 1.068393
v -3.155293 2.237174 1.079505
v -3.195708 2.225276 1.195654
v -3.227713 2.225511 1.184541
v -3.195628 2.237224 1.195676
v -3.227633 2.237459 1.184564
v -3.041140 2.225361 1.196422
v -3.027476 2.225361 1.227425
v -3.072142 2.225361 1.210086
v -3.058478 2.225361 1.241089
v -3.041140 2.237310 1.196422
v -3.027476 2.237310 1.227425
v -3.140005 2.225361 1.277022
v -3.153670 2.225361 1.246020
v -3.140005 2.237310 1.277022
v -3.153670 2.237310 1.246020
v -3.047681 2.225361 1.393225
v -3.063405 2.225361 1.423235
v -3.077691 2.225361 1.377500
v -3.093415 2.225361 1.407510
v -3.047681 2.237309 1.393225
v -3.063405 2.237309 1.423235
v -3.172333 2.225361 1.366159
v -3.156608 2.225361 1.336149
v -3.172333 2.237309 1.366159
v -3.156608 2.237309 1.336149
v -3.208884 2.225125 1.512672
v -3.242559 2.225355 1.516378
v -3.212589 2.225219 1.478995
v -3.246264 2.225449 1.482701
v -3.208799 2.237073 1.512696
v -3.242475 2.237303 1.516402
v -3.256009 2.225697 1.394141
v -3.222333 2.225466 1.390435
v -3.255924 2.237645 1.394165
v -3.222249 2.237414 1.390459
v -3.397588 2.225378 1.459977
v -3.422537 2.225475 1.437056
v -3.374667 2.225327 1.435028
v -3.399616 2.225424 1.412107
v -3.397550 2.237326 1.459987
v -3.422500 2.237423 1.437066
v -3.339340 2.225288 1.346497
v -3.314391 2.225191 1.369418
v -3.339303 2.237236 1.346507
v -3.314353 2.237139 1.369428
v -3.475440 2.225360 1.280356
v -3.474276 2.225360 1.246496
v -3.441580 2.225360 1.281521
v -3.440416 2.225360 1.247661
v -3.475440 2.237309 1.280356
v -3.474276 2.237309 1.246496
v -3.351374 2.225360 1.250724
v -3.352538 2.225360 1.284584
v -3.351374 2.237309 1.250724
v -3.352538 2.237309 1.284584
v -3.381603 2.225717 1.102494
v -3.352690 2.225530 1.084834
v -3.363944 2.225512 1.131407
v -3.335031 2.225324 1.113748
v -3.381509 2.237665 1.102521
v -3.352596 2.237478 1.084862
v -3.288594 2.224783 1.189781
v -3.317506 2.224971 1.207441
v -3.288500 2.236731 1.189808
v -3.317412 2.236919 1.207468
v -2.814035 2.203361 0.636567
v -2.803544 2.203361 0.601981
v -2.817578 2.203361 0.672535
v -2.814035 2.203361 0.708503
v -2.803544 2.203361 0.743089
v -2.786506 2.203361 0.774964
v -2.763578 2.203361 0.802902
v -2.735640 2.203361 0.825830
v -2.703765 2.203361 0.842868
v -2.669179 2.203361 0.853359
v -2.633211 2.203361 0.856902
v -2.597243 2.203361 0.853359
v -2.562657 2.203361 0.842868
v -2.530783 2.203361 0.825830
v -2.502845 2.203361 0.802902
v -2.479916 2.203361 0.774964
v -2.462879 2.203361 0.743089
v -2.452388 2.203361 0.708503
v -2.448845 2.203361 0.672535
v -2.452388 2.203361 0.636567
v -2.462879 2.203361 0.601981
v -2.479916 2.203361 0.570107
v -2.502845 2.203361 0.542169
v -2.530783 2.203361 0.519240
v -2.562657 2.203361 0.502203
v -2.597243 2.203361 0.491712
v -2.633211 2.203361 0.488169
v -2.669179 2.203361 0.491712
v -2.703765 2.203361 0.502203
v -2.735640 2.203361 0.519240
v -2.763578 2.203361 0.542169
v -2.786506 2.203361 0.570107
v -2.692878 2.203361 0.890723
v -2.724885 2.203361 0.879611
v -2.713772 2.203361 0.847605
v -2.681766 2.203361 0.858718
v -2.839263 2.203361 0.762629
v -2.852927 2.203361 0.731627
v -2.821925 2.203361 0.717963
v -2.808261 2.203361 0.748965
v -2.832723 2.203361 0.565827
v -2.816998 2.203361 0.535817
v -2.786988 2.203361 0.551542
v -2.802713 2.203361 0.581551
v -2.671365 2.203361 0.446424
v -2.637688 2.203361 0.442718
v -2.633982 2.203361 0.476395
v -2.667660 2.203361 0.480100
v -2.482746 2.203361 0.499092
v -2.465926 2.203361 0.514545
v -2.457797 2.203361 0.522013
v -2.480718 2.203361 0.546963
v -2.489904 2.203361 0.538523
v -2.505667 2.203361 0.524042
v -2.404963 2.203361 0.678695
v -2.406128 2.203361 0.712555
v -2.439987 2.203361 0.711391
v -2.438823 2.203361 0.677531
v -2.498624 2.203361 0.856609
v -2.527538 2.203361 0.874268
v -2.545198 2.203361 0.845354
v -2.516284 2.203361 0.827695
v -3.076860 2.203361 0.601981
v -3.066368 2.203361 0.636567
v -3.062825 2.203361 0.672535
v -3.066368 2.203361 0.708503
v -3.076860 2.203361 0.743089
v -3.093897 2.203361 0.774964
v -3.116825 2.203361 0.802902
v -3.144763 2.203361 0.825830
v -3.176638 2.203361 0.842868
v -3.211224 2.203361 0.853359
v -3.247192 2.203361 0.856902
v -3.283160 2.203361 0.853359
v -3.317746 2.203361 0.842868
v -3.349621 2.203361 0.825830
v -3.377559 2.203361 0.802902
v -3.400487 2.203361 0.774964
v -3.417524 2.203361 0.743089
v -3.428016 2.203361 0.708503
v -3.431559 2.203361 0.672535
v -3.428016 2.203361 0.636567
v -3.417524 2.203361 0.601981
v -3.400487 2.203361 0.570107
v -3.377559 2.203361 0.542169
v -3.349621 2.203361 0.519240
v -3.317746 2.203361 0.502203
v -3.283160 2.203361 0.491712
v -3.247192 2.203361 0.488169
v -3.211224 2.203361 0.491712
v -3.176638 2.203361 0.502203
v -3.144763 2.203361 0.519240
v -3.116825 2.203361 0.542169
v -3.093897 2.203361 0.570107
v -3.155519 2.203361 0.879611
v -3.187525 2.203361 0.890723
v -3.166631 2.203361 0.847605
v -3.198637 2.203361 0.858718
v -3.027476 2.203361 0.731627
v -3.041140 2.203361 0.762629
v -3.058478 2.203361 0.717963
v -3.072142 2.203361 0.748965
v -3.063405 2.203361 0.535817
v -3.047681 2.203361 0.565827
v -3.093415 2.203361 0.551542
v -3.077691 2.203361 0.581551
v -3.242715 2.203361 0.442718
v -3.209037 2.203361 0.446424
v -3.246421 2.203361 0.476395
v -3.212744 2.203361 0.480100
v -3.414287 2.203361 0.514370
v -3.422606 2.203361 0.522013
v -3.397657 2.203361 0.499092
v -3.399685 2.203361 0.546963
v -3.390308 2.203361 0.538348
v -3.374736 2.203361 0.524042
v -3.474276 2.203361 0.712555
v -3.475440 2.203361 0.678695
v -3.440416 2.203361 0.711391
v -3.441580 2.203361 0.677531
v -3.352865 2.203361 0.874268
v -3.381780 2.203361 0.856609
v -3.335205 2.203361 0.845354
v -3.364119 2.203361 0.827695
v -2.803544 2.203361 1.357070
v -2.814035 2.203361 1.322485
v -2.817578 2.203361 1.286516
v -2.814035 2.203361 1.250548
v -2.803544 2.203361 1.215963
v -2.786506 2.203361 1.184088
v -2.763578 2.203361 1.156150
v -2.735640 2.203361 1.133221
v -2.703765 2.203361 1.116184
v -2.669179 2.203361 1.105692
v -2.633211 2.203361 1.102150
v -2.597243 2.203361 1.105692
v -2.562657 2.203361 1.116184
v -2.530783 2.203361 1.133221
v -2.502845 2.203361 1.156150
v -2.479916 2.203361 1.184088
v -2.462879 2.203361 1.215963
v -2.452388 2.203361 1.250548
v -2.448845 2.203361 1.286516
v -2.452388 2.203361 1.322485
v -2.462879 2.203361 1.357070
v -2.479916 2.203361 1.388945
v -2.502845 2.203361 1.416883
v -2.530783 2.203361 1.439811
v -2.562657 2.203361 1.456849
v -2.597243 2.203361 1.467340
v -2.633211 2.203361 1.470883
v -2.669179 2.203361 1.467340
v -2.703765 2.203361 1.456849
v -2.735640 2.203361 1.439811
v -2.763578 2.203361 1.416883
v -2.786506 2.203361 1.388945
v -2.724885 2.203361 1.079441
v -2.692878 2.203361 1.068328
v -2.713772 2.203361 1.111446
v -2.681766 2.203361 1.100334
v -2.852927 2.203361 1.227425
v -2.839263 2.203361 1.196422
v -2.821925 2.203361 1.241089
v -2.808261 2.203361 1.210086
v -2.816998 2.203361 1.423235
v -2.832723 2.203361 1.393225
v -2.786988 2.203361 1.407510
v -2.802713 2.203361 1.377500
v -2.637688 2.203361 1.516333
v -2.671365 2.203361 1.512628
v -2.633982 2.203361 1.482657
v -2.667660 2.203361 1.478951
v -2.457797 2.203361 1.437038
v -2.475424 2.203361 1.453232
v -2.482746 2.203361 1.459959
v -2.480718 2.203361 1.412089
v -2.499402 2.203361 1.429254
v -2.505667 2.203361 1.435010
v -2.406128 2.203361 1.246496
v -2.404963 2.203361 1.280356
v -2.439987 2.203361 1.247661
v -2.438823 2.203361 1.281521
v -2.527538 2.203361 1.084784
v -2.498624 2.203361 1.102443
v -2.545198 2.203361 1.113697
v -2.516284 2.203361 1.131357
v -3.066368 2.203361 1.322485
v -3.076860 2.203361 1.357070
v -3.062825 2.203361 1.286516
v -3.066368 2.203361 1.250548
v -3.076860 2.203361 1.215963
v -3.093897 2.203361 1.184088
v -3.116825 2.203361 1.156150
v -3.144763 2.203361 1.133221
v -3.176638 2.203361 1.116184
v -3.211224 2.203361 1.105692
v -3.247192 2.203361 1.102150
v -3.283160 2.203361 1.105692
v -3.317746 2.203361 1.116184
v -3.349621 2.203361 1.133221
v -3.377559 2.203361 1.156150
v -3.400487 2.203361 1.184088
v -3.417524 2.203361 1.215963
v -3.428016 2.203361 1.250548
v -3.431559 2.203361 1.286516
v -3.428016 2.203361 1.322485
v -3.417524 2.203361 1.357070
v -3.400487 2.203361 1.388945
v -3.377559 2.203361 1.416883
v -3.349621 2.203361 1.439811
v -3.317746 2.203361 1.456849
v -3.283160 2.203361 1.467340
v -3.247192 2.203361 1.470883
v -3.211224 2.203361 1.467340
v -3.176638 2.203361 1.456849
v -3.144763 2.203361 1.439811
v -3.116825 2.203361 1.416883
v -3.093897 2.203361 1.388945
v -3.187525 2.203361 1.068328
v -3.155519 2.203361 1.079441
v -3.166631 2.203361 1.111446
v -3.198637 2.203361 1.100334
v -3.041140 2.203361 1.196422
v -3.027476 2.203361 1.227425
v -3.058478 2.203361 1.241089
v -3.072142 2.203361 1.210086
v -3.047681 2.203361 1.393225
v -3.063405 2.203361 1.423235
v -3.093415 2.203361 1.407510
v -3.077691 2.203361 1.377500
v -3.209037 2.203361 1.512628
v -3.242715 2.203361 1.516333
v -3.246421 2.203361 1.482657
v -3.212744 2.203361 1.478951
v -3.404789 2.203361 1.453407
v -3.397657 2.203361 1.459959
v -3.422606 2.203361 1.437038
v -3.399685 2.203361 1.412089
v -3.380811 2.203361 1.429429
v -3.374736 2.203361 1.435010
v -3.475440 2.203361 1.280356
v -3.474276 2.203361 1.246496
v -3.440416 2.203361 1.247661
v -3.441580 2.203361 1.281521
v -3.381780 2.203361 1.102443
v -3.352865 2.203361 1.084784
v -3.335205 2.203361 1.113697
v -3.364119 2.203361 1.131357
v -2.516452 2.237461 0.827782
v -2.245887 1.867345 0.588166
v -2.245877 1.858854 0.567667
v -2.245887 1.867345 0.547169
v -2.940019 0.000000 0.709556
v -3.137360 0.000000 0.791297
v -3.219101 0.000000 0.988638
v -3.137360 0.000000 1.185979
v -2.940019 0.000000 1.267720
v -2.742678 0.000000 1.185979
v -2.660937 0.000000 0.988638
v -2.742678 0.000000 0.791297
v -2.245877 1.825285 0.567667
v -2.245887 1.833776 0.588166
v -2.245887 1.833776 0.547169
vn -0.0000 1.0000 -0.0000
vn -0.0000 -0.0000 1.0000
vn -1.0000 -0.0000 -0.0000
vn -0.0000 -1.0000 -0.0000
vn -0.0000 -0.0000 -1.0000
vn 1.0000 -0.0000 -0.0000
vn 0.5550 -0.0000 0.8318
vn 0.0005 -0.0000 1.0000
vn 0.9807 -0.0000 -0.1957
vn 0.8318 -0.0000 -0.5550
vn 0.8318 -0.0000 0.5551
vn 0.9807 -0.0000 0.1957
vn 0.7205 -0.6934 -0.0000
vn 0.9192 -0.3938 -0.0000
vn 0.9919 -0.1274 -0.0000
vn 0.0006 -0.0000 1.0000
vn 0.5551 -0.0000 -0.8318
vn 0.0006 -0.0000 -1.0000
vn 0.5550 -0.0000 -0.8319
vn 0.0007 -0.0000 -1.0000
vn 0.8319 -0.0000 0.5550
vn 0.9807 -0.0000 0.1958
vn 0.9192 0.3938 -0.0000
vn 0.9919 0.1274 -0.0000
vn 0.7204 0.6935 -0.0000
vn 0.9919 -0.1272 -0.0000
vn 0.9191 -0.3940 -0.0000
vn 0.5789 0.7963 0.1756
vn 0.6020 0.7963 0.0593
vn 0.6020 0.7963 -0.0593
vn 0.5789 0.7963 -0.1756
vn 0.5335 0.7963 -0.2852
vn 0.4676 0.7963 -0.3837
vn 0.3838 0.7963 -0.4676
vn 0.2852 0.7963 -0.5335
vn 0.1756 0.7963 -0.5789
vn 0.0593 0.7962 -0.6021
vn -0.0593 0.7962 -0.6021
vn -0.1756 0.7963 -0.5789
vn -0.2852 0.7963 -0.5335
vn -0.3838 0.7963 -0.4676
vn -0.4676 0.7963 -0.3838
vn -0.5335 0.7963 -0.2852
vn -0.5789 0.7963 -0.1756
vn -0.6021 0.7962 -0.0593
vn -0.6021 0.7962 0.0593
vn -0.5789 0.7963 0.1756
vn -0.5335 0.7963 0.2852
vn -0.4676 0.7963 0.3837
vn -0.3838 0.7963 0.4676
vn -0.2852 0.7962 0.5336
vn -0.1756 0.7963 0.5789
vn -0.0593 0.7962 0.6021
vn 0.0593 0.7962 0.6021
vn 0.1756 0.7963 0.5789
vn 0.2852 0.7963 0.5335
vn 0.3838 0.7963 0.4676
vn 0.4676 0.7963 0.3837
vn 0.5335 0.7963 0.2851
vn -0.6020 0.7963 0.0593
vn -0.6020 0.7963 -0.0593
vn -0.5335 0.7963 -0.2851
vn 0.6021 0.7962 -0.0593
vn 0.6021 0.7962 0.0593
vn 0.5335 0.7963 0.2852
vn 0.4676 0.7963 0.3838
vn -0.2852 0.7963 0.5335
vn -0.4676 0.7963 0.3838
vn 0.2852 0.7962 0.5335
vn 0.1756 0.7962 0.5789
vn -0.1756 0.7962 0.5789
vn -0.3839 0.7960 -0.4680
vn 0.4676 0.7963 -0.3838
vn -0.4676 0.7962 0.3838
vn -0.4676 0.7962 -0.3839
vn 0.7328 -0.5793 0.3570
vn -0.3583 -0.5756 0.7350
vn -0.7367 -0.5754 -0.3551
vn 0.3538 -0.5791 -0.7345
vn -0.3583 -0.5756 -0.7350
vn 0.7328 -0.5793 -0.3570
vn 0.3538 -0.5791 0.7345
vn -0.7367 -0.5754 0.3551
vn 0.7612 -0.5774 -0.2955
vn 0.2955 -0.5774 0.7612
vn -0.7612 -0.5774 0.2955
vn -0.2955 -0.5774 -0.7612
vn 0.7612 -0.5774 0.2955
vn -0.2955 -0.5773 0.7612
vn -0.7612 -0.5774 -0.2955
vn 0.2955 -0.5774 -0.7612
vn 0.2955 -0.5773 0.7612
vn -0.3538 -0.5791 0.7345
vn -0.7328 -0.5793 -0.3570
vn 0.3583 -0.5756 -0.7350
vn 0.7367 -0.5754 0.3551
vn 0.3583 -0.5756 0.7350
vn -0.7328 -0.5793 0.3570
vn -0.3538 -0.5791 -0.7345
vn 0.7367 -0.5754 -0.3551
vn -0.2955 -0.5774 0.7612
vn -0.7612 -0.5773 -0.2955
vn 0.2955 -0.5773 -0.7612
vn 0.2434 -0.5773 0.7794
vn -0.7794 -0.5774 0.2434
vn -0.2434 -0.5774 -0.7794
vn 0.7794 -0.5774 -0.2434
vn 0.6350 -0.5799 0.5104
vn -0.5131 -0.5763 0.6361
vn -0.6391 -0.5748 -0.5110
vn 0.5083 -0.5784 -0.6380
vn 0.7794 -0.5774 0.2434
vn -0.2434 -0.5773 0.7794
vn -0.7794 -0.5774 -0.2434
vn 0.2434 -0.5774 -0.7794
vn -0.6350 -0.5799 0.5104
vn -0.5083 -0.5784 -0.6380
vn 0.6391 -0.5748 -0.5110
vn 0.5131 -0.5763 0.6361
vn -0.4780 -0.7076 -0.5203
vn 0.4787 -0.7066 0.5211
vn -0.0334 -0.5777 0.8156
vn -0.8149 -0.5785 -0.0349
vn -0.7916 -0.5804 0.1911
vn -0.1889 -0.5772 -0.7945
vn 0.7957 -0.5743 -0.1924
vn 0.1947 -0.5775 0.7929
vn 0.8166 -0.5762 0.0342
vn 0.0357 -0.5770 -0.8160
vn 0.5572 -0.5773 -0.5969
vn 0.5969 -0.5774 0.5572
vn -0.5572 -0.5774 0.5969
vn -0.5969 -0.5774 -0.5572
vn 0.5572 -0.5774 0.5969
vn -0.5969 -0.5774 0.5572
vn -0.5572 -0.5774 -0.5969
vn 0.5969 -0.5773 -0.5572
vn -0.8166 -0.5762 -0.0343
vn -0.4787 -0.7066 -0.5211
vn 0.4780 -0.7076 0.5203
vn -0.0357 -0.5770 0.8160
vn 0.7916 -0.5804 -0.1911
vn 0.1889 -0.5772 0.7945
vn -0.7957 -0.5743 0.1924
vn -0.1947 -0.5775 -0.7929
vn -0.5572 -0.5773 -0.5969
vn -0.8166 -0.5762 0.0342
vn -0.0357 -0.5770 -0.8160
vn 0.4780 -0.7076 -0.5203
vn -0.4787 -0.7066 0.5211
vn -0.7957 -0.5743 -0.1924
vn 0.1889 -0.5772 -0.7945
vn 0.7916 -0.5804 0.1911
vn -0.1947 -0.5775 0.7929
vn 0.4788 -0.7066 -0.5211
vn -0.4780 -0.7076 0.5203
vn -0.8149 -0.5785 0.0349
vn -0.0334 -0.5777 -0.8156
vn 0.8149 -0.5785 0.0349
vn 0.0334 -0.5777 -0.8156
vn 0.7794 -0.5773 -0.2434
vn -0.5131 -0.5763 -0.6361
vn 0.6350 -0.5799 -0.5104
vn 0.5083 -0.5784 0.6380
vn -0.6391 -0.5748 0.5110
vn -0.6350 -0.5799 -0.5104
vn 0.5131 -0.5763 -0.6361
vn 0.6391 -0.5748 0.5110
vn -0.5083 -0.5784 0.6380
vn 0.0357 -0.5770 0.8160
vn 0.8166 -0.5762 -0.0342
vn 0.7957 -0.5743 0.1924
vn -0.1889 -0.5772 0.7945
vn -0.7916 -0.5804 -0.1911
vn 0.1947 -0.5775 -0.7929
vn 0.5572 -0.5774 -0.5969
vn 0.5969 -0.5773 0.5572
vn -0.5572 -0.5773 0.5969
vn 0.8149 -0.5785 -0.0349
vn 0.0334 -0.5777 0.8156
vn 0.9192 0.3937 -0.0000
vn 0.9918 0.1274 -0.0000
vn 0.7204 0.6936 -0.0000
vn 0.8317 -0.0000 -0.5552
vn 0.9807 -0.0000 -0.1955
vn 1.0000 -0.0000 -0.0005
vn 1.0000 -0.0000 0.0005
vn -0.0067 1.0000 -0.0019
vn -0.3280 -0.0004 0.9447
vn -0.9447 -0.0069 -0.3280
vn 0.3280 0.0004 -0.9447
vn 0.9447 0.0069 0.3280
vn 0.0067 -1.0000 0.0019
vn -0.9151 -0.0000 0.4033
vn -0.4033 -0.0000 -0.9151
vn 0.9151 -0.0000 -0.4033
vn 0.4033 -0.0000 0.9151
vn -0.4641 -0.0000 0.8858
vn -0.8858 -0.0000 -0.4641
vn 0.4641 -0.0000 -0.8858
vn 0.8858 -0.0000 0.4641
vn -0.0071 1.0000 -0.0020
vn -0.1094 -0.0028 -0.9940
vn 0.9940 0.0068 -0.1094
vn 0.1094 0.0028 0.9940
vn -0.9940 -0.0068 0.1094
vn 0.0071 -1.0000 0.0020
vn -0.0031 1.0000 -0.0008
vn 0.6765 0.0015 -0.7364
vn 0.7364 0.0029 0.6765
vn -0.6765 -0.0015 0.7364
vn -0.7364 -0.0029 -0.6765
vn 0.0031 -1.0000 0.0008
vn 0.9994 -0.0000 0.0344
vn -0.0344 -0.0000 0.9994
vn -0.9994 -0.0000 -0.0344
vn 0.0344 -0.0000 -0.9994
vn 0.5212 0.0061 0.8534
vn -0.5212 -0.0061 -0.8534
vn -0.0079 1.0000 -0.0023
vn 0.0079 -1.0000 0.0023
vn 0.8534 0.0055 -0.5213
vn 0.0067 1.0000 -0.0019
vn -0.8534 -0.0055 0.5213
vn 0.3280 -0.0004 0.9447
vn 0.9447 -0.0069 -0.3280
vn -0.3280 0.0004 -0.9447
vn -0.9447 0.0069 0.3280
vn -0.0067 -1.0000 0.0019
vn 0.9151 -0.0000 0.4033
vn 0.4033 -0.0000 -0.9151
vn -0.9151 -0.0000 -0.4033
vn -0.4033 -0.0000 0.9151
vn 0.8858 -0.0000 -0.4641
vn -0.4641 -0.0000 -0.8858
vn -0.8858 -0.0000 0.4641
vn 0.4641 -0.0000 0.8858
vn 0.0071 1.0000 -0.0020
vn 0.1094 -0.0028 -0.9940
vn -0.9940 0.0068 -0.1094
vn -0.1094 0.0028 0.9940
vn 0.9940 -0.0068 0.1094
vn -0.0071 -1.0000 0.0020
vn 0.0031 1.0000 -0.0008
vn -0.6765 0.0015 -0.7364
vn -0.7364 0.0029 0.6765
vn 0.6765 -0.0015 0.7364
vn 0.7364 -0.0029 -0.6765
vn -0.0031 -1.0000 0.0008
vn -0.9994 -0.0000 0.0344
vn 0.0344 -0.0000 0.9994
vn 0.9994 -0.0000 -0.0344
vn -0.0344 -0.0000 -0.9994
vn 0.0079 1.0000 -0.0023
vn -0.5212 0.0061 0.8534
vn 0.8534 -0.0055 0.5212
vn 0.5212 -0.0061 -0.8534
vn -0.8534 0.0055 -0.5212
vn -0.0079 -1.0000 0.0023
vn -0.0067 1.0000 0.0019
vn -0.3280 -0.0004 -0.9447
vn -0.9447 -0.0069 0.3280
vn 0.3280 0.0004 0.9447
vn 0.9447 0.0069 -0.3280
vn 0.0067 -1.0000 -0.0019
vn -0.0071 1.0000 0.0020
vn -0.1094 -0.0028 0.9940
vn 0.9940 0.0068 0.1094
vn 0.1094 0.0028 -0.9940
vn -0.9940 -0.0068 -0.1094
vn 0.0071 -1.0000 -0.0020
vn -0.0031 1.0000 0.0008
vn 0.6765 0.0015 0.7364
vn 0.7364 0.0029 -0.6765
vn -0.6765 -0.0015 -0.7364
vn -0.7364 -0.0029 0.6765
vn 0.0031 -1.0000 -0.0008
vn -0.0079 1.0000 0.0023
vn 0.5212 0.0061 -0.8534
vn -0.8534 -0.0055 -0.5212
vn -0.5212 -0.0061 0.8534
vn 0.8534 0.0055 0.5212
vn 0.0079 -1.0000 -0.0023
vn 0.0067 1.0000 0.0019
vn 0.3280 -0.0004 -0.9447
vn 0.9447 -0.0069 0.3280
vn -0.3280 0.0004 0.9447
vn -0.9447 0.0069 -0.3280
vn -0.0067 -1.0000 -0.0019
vn 0.0071 1.0000 0.0020
vn 0.1094 -0.0028 0.9940
vn -0.9940 0.0068 0.1094
vn -0.1094 0.0028 -0.9940
vn 0.9940 -0.0068 -0.1094
vn -0.0071 -1.0000 -0.0020
vn 0.0031 1.0000 0.0008
vn -0.6765 0.0015 0.7364
vn -0.7364 0.0029 -0.6765
vn 0.6765 -0.0015 -0.7364
vn 0.7364 -0.0029 0.6765
vn -0.0031 -1.0000 -0.0008
vn 0.0079 1.0000 0.0023
vn -0.5212 0.0061 -0.8534
vn 0.8534 -0.0055 -0.5212
vn 0.5212 -0.0061 0.8534
vn -0.8534 0.0055 0.5212
vn -0.0079 -1.0000 -0.0023
vn -0.8534 0.0056 0.5212
vn -0.8534 -0.0055 0.5212
vn 0.8534 0.0055 -0.5212
vt 0.692960 0.567960
vt 0.807040 0.567960
vt 0.807040 0.682040
vt 0.692960 0.682040
vt 0.571447 0.750000
vt 0.625000 0.750000
vt 0.625000 1.000000
vt 0.571447 1.000000
vt 0.571447 0.000000
vt 0.625000 0.000000
vt 0.625000 0.250000
vt 0.571447 0.250000
vt 0.125000 0.500000
vt 0.375000 0.500000
vt 0.375000 0.750000
vt 0.125000 0.750000
vt 0.625000 0.500000
vt 0.571447 0.500000
vt 0.431873 0.516591
vt 0.391591 0.516591
vt 0.421447 0.500000
vt 0.561964 0.733409
vt 0.608409 0.733409
vt 0.608409 0.516591
vt 0.391591 0.733409
vt 0.431873 0.733409
vt 0.421447 0.750000
vt 0.475237 0.733409
vt 0.471447 0.750000
vt 0.518600 0.733409
vt 0.521447 0.750000
vt 0.561964 0.516591
vt 0.518600 0.516591
vt 0.521447 0.500000
vt 0.475237 0.516591
vt 0.471447 0.500000
vt 0.375000 0.250000
vt 0.421447 0.250000
vt 0.471447 0.250000
vt 0.521447 0.250000
vt 0.539371 0.733409
vt 0.375000 0.000000
vt 0.421447 0.000000
vt 0.471447 0.000000
vt 0.521447 0.000000
vt 0.421447 1.000000
vt 0.375000 1.000000
vt 0.471447 1.000000
vt 0.521447 1.000000
vt 0.541193 0.516591
vt 0.539371 0.516591
vt 0.000000 0.000000
vt 0.541193 0.733409
vt 0.602276 0.727276
vt 0.602276 0.522724
vt 0.568096 0.522724
vt 0.568096 0.727276
vt 0.602205 0.726836
vt 0.568168 0.726836
vt 0.569845 0.524472
vt 0.568168 0.523164
vt 0.602205 0.523164
vt 0.600528 0.524472
vt 0.569845 0.725528
vt 0.600528 0.725528
vt 0.641536 0.733465
vt 0.858464 0.733465
vt 0.875000 0.750000
vt 0.641536 0.516536
vt 0.858464 0.516536
vt 0.875000 0.500000
vt 0.789356 0.605089
vt 0.795201 0.607118
vt 0.797231 0.601273
vt 0.791386 0.599244
vt 0.795201 0.639554
vt 0.789356 0.641583
vt 0.791386 0.647428
vt 0.797231 0.645399
vt 0.765972 0.578063
vt 0.768468 0.583725
vt 0.774129 0.581229
vt 0.771634 0.575567
vt 0.765972 0.668609
vt 0.771634 0.671105
vt 0.774129 0.665443
vt 0.768468 0.662947
vt 0.734095 0.668609
vt 0.731599 0.662947
vt 0.725937 0.665443
vt 0.728433 0.671105
vt 0.708681 0.647428
vt 0.710711 0.641583
vt 0.704865 0.639554
vt 0.702836 0.645399
vt 0.704865 0.607118
vt 0.710711 0.605089
vt 0.708681 0.599244
vt 0.702836 0.601273
vt 0.731599 0.666275
vt 0.734095 0.671937
vt 0.728433 0.674433
vt 0.725937 0.668771
vt 0.772534 0.704369
vt 0.778014 0.701498
vt 0.775143 0.696017
vt 0.769662 0.698889
vt 0.799130 0.720695
vt 0.805281 0.721372
vt 0.805957 0.715221
vt 0.799807 0.714545
vt 0.722052 0.701498
vt 0.727533 0.704369
vt 0.730405 0.698889
vt 0.724924 0.696017
vt 0.700937 0.720695
vt 0.700260 0.714545
vt 0.694109 0.715222
vt 0.694786 0.721372
vt 0.669531 0.705469
vt 0.665152 0.709848
vt 0.666489 0.711076
vt 0.670676 0.706520
vt 0.677895 0.647839
vt 0.674670 0.642559
vt 0.669389 0.645784
vt 0.672614 0.651065
vt 0.661933 0.706890
vt 0.666119 0.702334
vt 0.652497 0.672092
vt 0.652284 0.678276
vt 0.658468 0.678489
vt 0.658681 0.672305
vt 0.652497 0.574580
vt 0.658680 0.574367
vt 0.658468 0.568183
vt 0.652284 0.568396
vt 0.838134 0.539782
vt 0.836614 0.538386
vt 0.832235 0.542765
vt 0.833948 0.544338
vt 0.822172 0.598833
vt 0.825397 0.604113
vt 0.830678 0.600888
vt 0.827452 0.595608
vt 0.847570 0.672092
vt 0.841386 0.672305
vt 0.841599 0.678489
vt 0.847783 0.678276
vt 0.838134 0.706890
vt 0.833948 0.702334
vt 0.830501 0.705501
vt 0.834880 0.709880
vt 0.830678 0.645784
vt 0.825397 0.642559
vt 0.822172 0.647839
vt 0.827452 0.651065
vt 0.663418 0.538418
vt 0.667797 0.542797
vt 0.670676 0.540152
vt 0.666490 0.535596
vt 0.829391 0.540152
vt 0.833577 0.535596
vt 0.727533 0.707697
vt 0.722052 0.704826
vt 0.724924 0.699345
vt 0.730405 0.702217
vt 0.805281 0.724700
vt 0.799130 0.724023
vt 0.799807 0.717873
vt 0.805957 0.718549
vt 0.778014 0.704826
vt 0.772534 0.707697
vt 0.769662 0.702217
vt 0.775143 0.699345
vt 0.700937 0.724023
vt 0.694786 0.724700
vt 0.694109 0.718550
vt 0.700260 0.717873
vt 0.666119 0.705662
vt 0.667797 0.707203
vt 0.663418 0.711582
vt 0.661933 0.710218
vt 0.669389 0.649112
vt 0.674670 0.645887
vt 0.677895 0.651167
vt 0.672614 0.654392
vt 0.841599 0.681817
vt 0.841386 0.675633
vt 0.847570 0.675420
vt 0.847783 0.681604
vt 0.834880 0.540120
vt 0.830501 0.544499
vt 0.829391 0.543480
vt 0.833577 0.538924
vt 0.461920 0.000000
vt 0.463652 0.250000
vt 0.463551 0.500000
vt 0.461818 0.750000
vt 0.461919 1.000000
vt 0.462661 0.000000
vt 0.462661 0.250000
vt 0.462661 0.500000
vt 0.462661 0.750000
vt 0.462661 1.000000
vt 0.462663 1.000000
vt 0.462663 0.750000
vt 0.462663 0.000000
vt 0.462663 0.250000
vt 0.462663 0.500000
vt 0.462700 0.250000
vt 0.464401 0.000000
vt 0.462701 0.250000
vt 0.462006 0.500000
vt 0.462005 0.500000
vt 0.463707 0.750000
vt 0.463706 0.750000
vt 0.464400 1.000000
vt 0.461819 0.250000
vt 0.462052 0.168539
vt 0.462535 0.000000
vt 0.461820 0.250000
vt 0.462200 0.500000
vt 0.462199 0.500000
vt 0.462915 0.750000
vt 0.462463 0.592053
vt 0.462536 1.000000
vt 0.462668 0.250000
vt 0.462668 0.000000
vt 0.462668 0.500000
vt 0.462668 0.750000
vt 0.462668 1.000000
vt 0.460028 0.000000
vt 0.461412 0.250000
vt 0.461544 0.750000
vt 0.462929 0.500000
vt 0.806518 0.750000
vt 0.806058 0.500000
vt 0.460028 1.000000
vt 0.461545 0.750000
vt 0.625000 0.931518
vt 0.625000 0.318942
vt 0.462058 0.166630
vt 0.462468 0.593962
vt 0.462325 0.073371
vt 0.462735 0.687220
vt 0.462331 0.071463
vt 0.462741 0.689129
s 1
usemtl Material.003
f 95/28/21 91/29/21 93/30/21 97/31/21
f 107/32/22 169/33/22 170/34/22 106/35/22
f 106/36/23 170/37/23 172/38/23 111/39/23
f 92/40/24 96/41/24 98/42/24 94/43/24
f 111/39/25 172/38/25 171/44/25 99/45/25
f 118/46/26 89/47/26 96/41/26 102/48/26
f 156/49/26 154/50/26 169/33/26 107/32/26
f 154/50/26 153/51/26 171/44/26 169/33/26
f 89/47/26 90/52/26 98/42/26 96/41/26
f 90/52/26 122/53/26 110/54/26 98/42/26
f 122/53/26 121/55/26 109/56/26 110/54/26
f 121/55/26 132/57/26 108/58/26 109/56/26
f 132/57/26 156/49/26 107/32/26 108/58/26
f 153/51/26 155/59/26 99/45/26 171/44/26
f 155/59/26 131/60/26 100/61/26 99/45/26
f 131/60/26 117/62/26 101/63/26 100/61/26
f 117/62/26 118/46/26 102/48/26 101/63/26
f 92/64/25 114/65/25 102/48/25 96/41/25
f 114/65/25 113/66/25 101/63/25 102/48/25
f 113/66/25 112/67/25 100/61/25 101/63/25
f 112/67/25 111/39/25 99/45/25 100/61/25
f 89/47/23 118/46/23 122/53/23 90/52/23
f 122/53/21 118/46/21 128/46/21 130/53/21
f 117/62/26 131/60/26 132/57/26 121/55/26
f 120/68/24 126/68/24 152/68/24 150/68/24
f 94/69/23 103/70/23 114/65/23 92/64/23
f 103/70/23 104/71/23 113/66/23 114/65/23
f 104/71/23 105/72/23 112/67/23 113/66/23
f 105/72/23 106/36/23 111/39/23 112/67/23
f 98/42/22 110/54/22 103/73/22 94/74/22
f 110/54/22 109/56/22 104/75/22 103/73/22
f 109/56/22 108/58/22 105/76/22 104/75/22
f 108/58/22 107/32/22 106/35/22 105/76/22
f 134/60/26 133/59/26 135/49/26 136/57/26
f 123/77/23 124/78/23 148/78/23 147/77/23
f 155/59/24 156/49/24 135/49/24 133/59/24
f 132/57/21 131/60/21 134/60/21 136/57/21
f 128/46/26 127/62/26 129/55/26 130/53/26
f 121/55/25 122/53/25 130/53/25 129/55/25
f 118/46/22 117/62/22 127/62/22 128/46/22
f 117/62/24 121/55/24 129/55/24 127/62/24
s 0
f 137/79/21 138/79/22 131/79/21 155/79/22
f 140/79/21 139/79/22 156/79/21 132/79/22
f 142/79/21 141/79/22 133/79/21 134/79/22
f 143/79/21 144/79/22 136/79/21 135/79/22
f 144/57/23 140/57/22 132/57/23 136/57/22
f 139/49/23 143/49/22 135/49/23 156/49/22
f 141/59/23 137/59/22 155/59/23 133/59/22
f 138/60/23 142/60/22 134/60/23 131/60/22
s 1
f 115/77/22 116/78/22 138/60/22 137/59/22
f 120/68/25 119/80/25 139/49/25 140/57/25
f 124/78/22 123/77/22 141/59/22 142/60/22
f 125/80/25 126/68/25 144/57/25 143/49/25
f 126/68/25 120/68/25 140/57/25 144/57/25
f 119/80/25 125/80/25 143/49/25 139/49/25
f 123/77/22 115/77/22 137/59/22 141/59/22
f 116/78/22 124/78/22 142/60/22 138/60/22
f 146/78/22 145/77/22 147/77/22 148/78/22
f 116/78/26 115/77/26 145/77/26 146/78/26
f 124/78/24 116/78/24 146/78/24 148/78/24
f 115/77/21 123/77/21 147/77/21 145/77/21
f 149/80/25 150/68/25 152/68/25 151/80/25
f 125/80/21 119/80/21 149/80/21 151/80/21
f 126/68/23 125/80/23 151/80/23 152/68/23
f 119/80/26 120/68/26 150/68/26 149/80/26
f 158/81/26 157/82/26 153/51/26 154/50/26
f 157/82/26 159/83/26 155/59/26 153/51/26
f 160/84/26 158/81/26 154/50/26 156/49/26
f 159/83/26 160/84/26 156/49/26 155/59/26
f 164/85/27 158/81/28 160/84/28 168/86/27
f 165/87/29 166/88/30 162/89/30 161/90/29
f 168/86/31 167/91/32 163/92/32 164/85/31
f 168/86/33 160/84/24 159/83/24 166/88/33
f 168/86/34 166/88/34 165/87/35 167/91/35
f 242/89/27 237/82/36 239/83/36 246/88/27
f 166/88/37 159/83/38 157/82/38 162/89/37
f 165/87/26 161/90/26 163/92/26 167/91/26
f 253/93/21 254/94/21 170/95/21 169/33/21
f 255/96/21 253/93/21 169/33/21 171/44/21
f 254/94/21 256/97/21 172/98/21 170/95/21
f 256/97/21 255/96/21 171/44/21 172/98/21
f 187/32/25 186/35/25 250/34/25 249/33/25
f 186/36/23 191/39/23 252/38/23 250/37/23
f 175/40/24 176/43/24 178/42/24 177/41/24
f 191/39/22 179/45/22 251/44/22 252/38/22
f 198/46/26 182/48/26 177/41/26 173/47/26
f 236/49/26 187/32/26 249/33/26 234/50/26
f 234/50/26 249/33/26 251/44/26 233/51/26
f 173/47/26 177/41/26 178/42/26 174/52/26
f 174/52/26 178/42/26 190/54/26 202/53/26
f 202/53/26 190/54/26 189/56/26 201/55/26
f 201/55/26 189/56/26 188/58/26 212/57/26
f 212/57/26 188/58/26 187/32/26 236/49/26
f 233/51/26 251/44/26 179/45/26 235/59/26
f 235/59/26 179/45/26 180/61/26 211/60/26
f 211/60/26 180/61/26 181/63/26 197/62/26
f 197/62/26 181/63/26 182/48/26 198/46/26
f 175/64/22 177/41/22 182/48/22 194/65/22
f 194/65/22 182/48/22 181/63/22 193/66/22
f 193/66/22 181/63/22 180/61/22 192/67/22
f 192/67/22 180/61/22 179/45/22 191/39/22
f 173/47/23 174/52/23 202/53/23 198/46/23
f 202/53/21 210/53/21 208/46/21 198/46/21
f 197/62/26 201/55/26 212/57/26 211/60/26
f 200/68/24 230/68/24 232/68/24 206/68/24
f 176/69/23 175/64/23 194/65/23 183/70/23
f 183/70/23 194/65/23 193/66/23 184/71/23
f 184/71/23 193/66/23 192/67/23 185/72/23
f 185/72/23 192/67/23 191/39/23 186/36/23
f 178/42/25 176/74/25 183/73/25 190/54/25
f 190/54/25 183/73/25 184/75/25 189/56/25
f 189/56/25 184/75/25 185/76/25 188/58/25
f 188/58/25 185/76/25 186/35/25 187/32/25
f 214/60/26 216/57/26 215/49/26 213/59/26
f 203/77/23 227/77/23 228/78/23 204/78/23
f 235/59/24 213/59/24 215/49/24 236/49/24
f 212/57/21 216/57/21 214/60/21 211/60/21
f 208/46/26 210/53/26 209/55/26 207/62/26
f 201/55/22 209/55/22 210/53/22 202/53/22
f 198/46/25 208/46/25 207/62/25 197/62/25
f 197/62/24 207/62/24 209/55/24 201/55/24
s 0
f 217/79/22 235/79/21 211/79/22 218/79/21
f 220/79/22 212/79/21 236/79/22 219/79/21
f 222/79/22 214/79/21 213/79/22 221/79/21
f 223/79/22 215/79/21 216/79/22 224/79/21
f 224/57/22 216/57/23 212/57/22 220/57/23
f 219/49/22 236/49/23 215/49/22 223/49/23
f 221/59/22 213/59/23 235/59/22 217/59/23
f 218/60/22 211/60/23 214/60/22 222/60/23
s 1
f 195/77/25 217/59/25 218/60/25 196/78/25
f 200/68/22 220/57/22 219/49/22 199/80/22
f 204/78/25 222/60/25 221/59/25 203/77/25
f 205/80/22 223/49/22 224/57/22 206/68/22
f 206/68/22 224/57/22 220/57/22 200/68/22
f 199/80/22 219/49/22 223/49/22 205/80/22
f 203/77/25 221/59/25 217/59/25 195/77/25
f 196/78/25 218/60/25 222/60/25 204/78/25
f 226/78/25 228/78/25 227/77/25 225/77/25
f 196/78/26 226/78/26 225/77/26 195/77/26
f 204/78/24 228/78/24 226/78/24 196/78/24
f 195/77/21 225/77/21 227/77/21 203/77/21
f 229/80/22 231/80/22 232/68/22 230/68/22
f 205/80/21 231/80/21 229/80/21 199/80/21
f 206/68/23 232/68/23 231/80/23 205/80/23
f 199/80/26 229/80/26 230/68/26 200/68/26
f 238/81/26 234/50/26 233/51/26 237/82/26
f 237/82/26 233/51/26 235/59/26 239/83/26
f 240/84/26 236/49/26 234/50/26 238/81/26
f 239/83/26 235/59/26 236/49/26 240/84/26
f 248/86/39 240/84/40 238/81/40 244/85/39
f 242/89/31 246/88/41 245/87/42 241/90/32
f 164/85/43 163/92/44 161/90/44 162/89/43
f 246/88/33 239/83/24 240/84/24 248/86/33
f 164/85/45 162/89/45 157/82/21 158/81/21
f 245/87/46 246/88/47 248/86/47 247/91/46
f 245/87/26 247/91/26 243/92/26 241/90/26
f 257/93/21 249/33/21 250/95/21 258/94/21
f 259/96/21 251/44/21 249/33/21 257/93/21
f 258/94/21 250/95/21 252/98/21 260/97/21
f 260/97/21 252/98/21 251/44/21 259/96/21
f 97/31/21 93/30/21 254/94/21 253/93/21
f 95/28/21 97/31/21 253/93/21 255/96/21
f 93/30/21 91/29/21 256/97/21 254/94/21
f 91/29/21 95/28/21 255/96/21 256/97/21
f 267/79/48 268/79/48 679/79/48 680/79/48
f 268/79/49 269/79/49 681/79/49 679/79/49
f 681/79/50 269/79/50 270/79/50 682/79/50
f 682/79/51 270/79/51 271/79/51 683/79/51
f 683/79/52 271/79/52 272/79/52 684/79/52
f 684/79/53 272/79/53 273/79/53 685/79/53
f 685/79/54 273/79/54 274/79/54 686/79/54
f 686/79/55 274/79/55 275/79/55 687/79/55
f 687/79/56 275/79/56 276/79/56 688/79/56
f 688/79/57 276/79/57 277/79/57 689/79/57
f 689/79/58 277/79/58 278/79/58 690/79/58
f 278/79/59 279/79/59 691/79/59 690/79/59
f 279/79/60 280/79/60 692/79/60 691/79/60
f 280/79/61 281/79/61 693/79/61 692/79/61
f 693/79/62 281/79/62 282/79/62 694/79/62
f 694/79/63 282/79/63 283/79/63 695/79/63
f 695/79/64 283/79/64 284/79/64 696/79/64
f 696/79/65 284/79/65 285/79/65 697/79/65
f 697/79/66 285/79/66 286/79/66 698/79/66
f 698/79/67 286/79/67 287/79/67 699/79/67
f 699/79/68 287/79/68 288/79/68 700/79/68
f 700/79/69 288/79/69 289/79/69 701/79/69
f 701/79/70 289/79/70 290/79/70 702/79/70
f 702/79/71 290/79/71 291/79/71 703/79/71
f 703/79/72 291/79/72 292/79/72 704/79/72
f 704/79/73 292/79/73 261/79/73 705/79/73
f 705/79/74 261/79/74 262/79/74 706/79/74
f 706/79/75 262/79/75 263/79/75 707/79/75
f 707/79/76 263/79/76 264/79/76 708/79/76
f 708/79/77 264/79/77 265/79/77 709/79/77
f 265/79/78 266/79/78 710/79/78 709/79/78
f 266/79/79 267/79/79 680/79/79 710/79/79
f 742/79/67 371/79/67 370/79/67 741/79/67
f 743/79/80 372/79/80 371/79/80 742/79/80
f 744/79/81 373/79/81 372/79/81 743/79/81
f 374/79/64 373/79/64 744/79/64 745/79/64
f 375/79/82 374/79/82 745/79/82 746/79/82
f 376/79/62 375/79/62 746/79/62 747/79/62
f 748/79/61 377/79/61 376/79/61 747/79/61
f 378/79/60 377/79/60 748/79/60 749/79/60
f 379/79/59 378/79/59 749/79/59 750/79/59
f 751/79/58 380/79/58 379/79/58 750/79/58
f 752/79/57 381/79/57 380/79/57 751/79/57
f 753/79/56 382/79/56 381/79/56 752/79/56
f 754/79/55 383/79/55 382/79/55 753/79/55
f 755/79/54 384/79/54 383/79/54 754/79/54
f 756/79/53 385/79/53 384/79/53 755/79/53
f 757/79/52 386/79/52 385/79/52 756/79/52
f 758/79/51 387/79/51 386/79/51 757/79/51
f 759/79/83 388/79/83 387/79/83 758/79/83
f 760/79/84 389/79/84 388/79/84 759/79/84
f 761/79/48 390/79/48 389/79/48 760/79/48
f 762/79/85 391/79/85 390/79/85 761/79/85
f 763/79/86 392/79/86 391/79/86 762/79/86
f 764/79/77 393/79/77 392/79/77 763/79/77
f 765/79/76 394/79/76 393/79/76 764/79/76
f 766/79/75 395/79/75 394/79/75 765/79/75
f 767/79/74 364/79/74 395/79/74 766/79/74
f 768/79/73 365/79/73 364/79/73 767/79/73
f 769/79/72 366/79/72 365/79/72 768/79/72
f 770/79/87 367/79/87 366/79/87 769/79/87
f 771/79/70 368/79/70 367/79/70 770/79/70
f 772/79/88 369/79/88 368/79/88 771/79/88
f 741/79/68 370/79/68 369/79/68 772/79/68
f 804/79/51 475/79/51 474/79/51 803/79/51
f 805/79/50 476/79/50 475/79/50 804/79/50
f 806/79/49 477/79/49 476/79/49 805/79/49
f 807/79/48 478/79/48 477/79/48 806/79/48
f 808/79/85 479/79/85 478/79/85 807/79/85
f 809/79/86 480/79/86 479/79/86 808/79/86
f 810/79/77 481/79/77 480/79/77 809/79/77
f 811/79/89 482/79/89 481/79/89 810/79/89
f 812/79/90 483/79/90 482/79/90 811/79/90
f 813/79/74 484/79/74 483/79/74 812/79/74
f 814/79/73 485/79/73 484/79/73 813/79/73
f 815/79/91 486/79/91 485/79/91 814/79/91
f 816/79/71 487/79/71 486/79/71 815/79/71
f 817/79/70 488/79/70 487/79/70 816/79/70
f 818/79/88 489/79/88 488/79/88 817/79/88
f 819/79/68 490/79/68 489/79/68 818/79/68
f 820/79/67 491/79/67 490/79/67 819/79/67
f 821/79/66 492/79/66 491/79/66 820/79/66
f 493/79/65 492/79/65 821/79/65 822/79/65
f 494/79/64 493/79/64 822/79/64 823/79/64
f 495/79/63 494/79/63 823/79/63 824/79/63
f 496/79/62 495/79/62 824/79/62 825/79/62
f 826/79/92 497/79/92 496/79/92 825/79/92
f 498/79/60 497/79/60 826/79/60 827/79/60
f 499/79/59 498/79/59 827/79/59 828/79/59
f 829/79/58 468/79/58 499/79/58 828/79/58
f 830/79/57 469/79/57 468/79/57 829/79/57
f 831/79/56 470/79/56 469/79/56 830/79/56
f 832/79/55 471/79/55 470/79/55 831/79/55
f 833/79/54 472/79/54 471/79/54 832/79/54
f 834/79/93 473/79/93 472/79/93 833/79/93
f 803/79/52 474/79/52 473/79/52 834/79/52
f 866/79/64 583/79/64 584/79/64 865/79/64
f 865/79/81 584/79/81 585/79/81 867/79/81
f 867/79/80 585/79/80 586/79/80 868/79/80
f 868/79/67 586/79/67 587/79/67 869/79/67
f 869/79/68 587/79/68 588/79/68 870/79/68
f 870/79/94 588/79/94 589/79/94 871/79/94
f 871/79/70 589/79/70 590/79/70 872/79/70
f 872/79/87 590/79/87 591/79/87 873/79/87
f 873/79/91 591/79/91 592/79/91 874/79/91
f 874/79/73 592/79/73 593/79/73 875/79/73
f 875/79/74 593/79/74 594/79/74 876/79/74
f 876/79/90 594/79/90 595/79/90 877/79/90
f 877/79/89 595/79/89 596/79/89 878/79/89
f 878/79/77 596/79/77 597/79/77 879/79/77
f 597/79/78 598/79/78 880/79/78 879/79/78
f 598/79/85 599/79/85 881/79/85 880/79/85
f 599/79/48 600/79/48 882/79/48 881/79/48
f 600/79/84 601/79/84 883/79/84 882/79/84
f 883/79/83 601/79/83 602/79/83 884/79/83
f 884/79/51 602/79/51 603/79/51 885/79/51
f 885/79/52 603/79/52 604/79/52 886/79/52
f 886/79/93 604/79/93 605/79/93 887/79/93
f 887/79/54 605/79/54 606/79/54 888/79/54
f 888/79/55 606/79/55 607/79/55 889/79/55
f 889/79/56 607/79/56 608/79/56 890/79/56
f 890/79/57 608/79/57 577/79/57 891/79/57
f 891/79/58 577/79/58 578/79/58 892/79/58
f 578/79/59 579/79/59 893/79/59 892/79/59
f 579/79/60 580/79/60 894/79/60 893/79/60
f 580/79/92 581/79/92 895/79/92 894/79/92
f 895/79/95 581/79/95 582/79/95 896/79/95
f 896/79/63 582/79/63 583/79/63 866/79/63
f 773/99/96 774/100/97 776/101/98 775/102/99
f 897/103/100 898/104/101 899/105/102 900/106/103
f 777/107/104 778/108/105 780/109/106 779/110/107
f 902/111/108 903/112/109 904/113/110 901/114/111
f 839/115/106 840/116/107 842/117/104 841/118/112
f 837/119/113 835/120/114 836/121/115 838/122/116
f 711/123/117 712/124/118 713/125/119 714/126/120
f 715/127/121 716/128/122 717/129/123 718/130/108
f 906/131/124 907/132/125 908/133/126 905/134/127
f 909/135/128 910/136/129 911/137/130 912/138/131
f 845/139/132 843/140/133 844/141/134 846/142/135
f 848/143/136 850/144/137 849/145/138 847/146/139
f 855/147/140 852/148/141 853/149/142 856/150/143
f 863/151/144 861/152/145 862/153/146 864/154/147
f 851/155/148 852/148/141 855/147/140 854/156/149
f 857/157/150 858/158/151 860/159/152 859/160/153
f 734/161/154 735/162/155 736/163/156 733/164/157
f 790/165/158 789/166/159 793/167/160 792/168/161
f 801/169/162 799/170/163 800/171/164 802/172/165
f 920/173/166 921/174/157 922/175/154 919/176/155
f 915/177/167 916/178/168 917/179/169 913/180/170
f 923/181/171 924/182/172 925/183/173 926/184/174
f 728/185/175 731/186/176 732/187/177 727/188/178
f 794/189/179 793/167/160 789/166/159 791/190/180
f 720/191/126 721/192/181 722/193/124 719/194/125
f 785/195/182 786/196/183 788/197/184 787/198/185
f 783/199/134 781/200/135 782/201/132 784/202/133
f 723/203/186 724/204/187 725/205/188 726/206/189
f 730/207/190 731/208/176 728/209/175 729/210/191
f 737/211/192 738/212/193 739/213/194 740/214/195
f 798/215/196 797/216/197 795/217/198 796/218/153
f 913/219/170 917/220/169 918/221/199 914/222/200
f 242/89/201 241/90/202 243/92/202 244/85/201
f 244/85/203 238/81/21 237/82/21 242/89/203
f 244/85/204 243/92/205 247/91/205 248/86/204
f 930/79/206 929/79/26 939/79/26 941/79/206
f 929/79/26 928/79/207 940/79/207 939/79/26
usemtl Material.004
f 297/95/208 303/33/208 302/44/208 299/44/208 298/98/208
f 711/223/117 293/37/209 294/38/209 712/224/118
f 712/224/118 294/38/210 296/44/210 713/225/119
f 296/44/211 295/33/211 714/226/120 713/225/119
f 714/226/120 295/33/212 293/34/212 711/227/117
f 295/33/213 296/44/213 300/44/213 301/33/213
f 308/95/21 313/33/21 312/44/21 309/98/21
f 294/38/209 293/37/209 297/37/209 298/38/209
f 296/44/210 294/38/210 298/38/210 299/44/210
f 301/33/211 300/44/211 302/44/211 303/33/211
f 296/44/210 299/44/210 302/44/210 300/44/210
f 715/228/121 304/37/214 305/38/214 716/229/122
f 716/229/122 305/38/215 307/44/215 717/230/123
f 717/230/123 307/44/216 306/33/216 718/231/108
f 718/231/108 306/33/217 304/34/217 715/232/121
f 306/33/24 307/44/24 310/44/24 311/33/24
f 309/38/215 312/44/215 310/44/215 307/44/215 305/38/215
f 305/38/214 304/37/214 308/37/214 309/38/214
f 295/33/212 301/33/212 303/33/212 297/34/212 293/34/212
f 316/33/218 320/33/218 318/34/218 314/34/218 719/233/125 722/234/124
f 311/33/216 310/44/216 312/44/216 313/33/216
f 719/235/125 314/37/219 315/38/219 720/236/126
f 315/38/220 317/44/220 721/237/181 720/236/126
f 721/237/181 317/44/221 316/33/221 722/234/124
f 320/33/21 324/33/21 323/44/21 319/98/21 318/95/21
f 316/33/24 317/44/24 321/44/24 322/33/24
f 319/38/220 323/44/220 321/44/220 317/44/220 315/38/220
f 315/38/219 314/37/219 318/37/219 319/38/219
f 329/95/222 334/33/222 333/44/222 330/98/222
f 322/33/221 321/44/221 323/44/221 324/33/221
f 320/33/218 316/33/218 322/33/218 324/33/218
f 325/37/223 326/38/223 724/238/187 723/239/186
f 724/240/187 326/38/224 328/44/224 725/241/188
f 725/242/188 328/44/225 327/33/225 726/243/189
f 726/244/189 327/33/226 325/34/226 723/245/186
f 327/33/227 328/44/227 331/44/227 332/33/227
f 327/33/226 332/33/226 334/33/226 329/34/226 325/34/226
f 326/38/223 325/37/223 329/37/223 330/38/223
f 330/38/224 333/44/224 331/44/224 328/44/224 326/38/224
f 339/95/228 344/33/228 343/44/228 340/98/228
f 332/33/225 331/44/225 333/44/225 334/33/225
f 335/37/229 336/38/229 729/246/191 728/247/175 727/248/178
f 729/249/191 336/38/230 338/44/230 730/250/190
f 730/251/190 338/44/231 337/33/231 732/252/177 731/253/176
f 732/252/177 337/33/232 335/34/232 727/254/178
f 337/33/233 338/44/233 341/44/233 342/33/233
f 337/33/232 342/33/232 344/33/232 339/34/232 335/34/232
f 336/38/229 335/37/229 339/37/229 340/38/229
f 340/38/230 343/44/230 341/44/230 338/44/230 336/38/230
f 345/37/234 348/37/234 349/38/234 734/255/154 733/256/157
f 342/33/231 341/44/231 343/44/231 344/33/231
f 734/255/154 349/38/235 350/44/235 347/44/235 735/257/155
f 348/95/21 354/33/21 353/44/21 350/44/21 349/98/21
f 735/257/155 347/44/236 346/33/236 736/258/156
f 736/258/156 346/33/237 345/34/237 733/259/157
f 346/33/24 347/44/24 351/44/24 352/33/24
f 346/33/237 352/33/237 354/33/237 348/34/237 345/34/237
f 737/260/192 357/37/238 358/38/238 738/261/193
f 352/33/236 351/44/236 353/44/236 354/33/236
f 347/44/235 350/44/235 353/44/235 351/44/235
f 356/44/239 355/33/239 740/262/195 739/263/194
f 357/95/240 927/264/240 363/33/240 362/44/240 359/265/240 358/98/240
f 355/33/241 356/44/241 360/44/241 361/33/241
f 357/34/242 737/266/192 740/267/195 355/33/242 927/268/242
f 361/33/239 360/44/239 362/44/239 363/33/239
f 401/98/243 404/44/243 405/33/243 400/95/243
f 356/44/244 359/269/244 362/44/244 360/44/244
f 773/224/96 397/38/245 396/37/245 774/223/97
f 775/225/99 399/44/246 397/38/246 773/224/96
f 776/226/98 398/33/247 399/44/247 775/225/99
f 774/227/97 396/34/248 398/33/248 776/226/98
f 398/33/249 403/33/249 402/44/249 399/44/249
f 400/34/248 405/33/248 403/33/248 398/33/248 396/34/248
f 397/38/245 401/38/245 400/37/245 396/37/245
f 399/44/246 402/44/246 404/44/246 401/38/246 397/38/246
f 411/98/21 415/44/21 416/33/21 412/33/21 410/95/21
f 403/33/247 405/33/247 404/44/247 402/44/247
f 777/229/104 407/38/250 406/37/250 778/228/105
f 779/230/107 409/44/251 407/38/251 777/229/104
f 780/231/106 408/33/252 409/44/252 779/230/107
f 778/232/105 406/34/253 408/33/253 780/231/106
f 408/33/24 414/33/24 413/44/24 409/44/24
f 409/44/251 413/44/251 415/44/251 411/38/251 407/38/251
f 407/38/250 411/38/250 410/37/250 406/37/250
f 406/34/253 410/34/253 412/33/253 408/33/253
f 422/98/21 426/44/21 427/33/21 423/33/21 421/95/21
f 414/33/252 416/33/252 415/44/252 413/44/252
f 412/33/253 416/33/253 414/33/253 408/33/253
f 781/236/135 418/38/254 417/37/254 782/235/132
f 783/237/134 420/44/255 418/38/255 781/236/135
f 784/234/133 419/33/256 420/44/256 783/237/134
f 782/233/132 417/34/257 419/33/257 784/234/133
f 419/33/24 425/33/24 424/44/24 420/44/24
f 420/44/255 424/44/255 426/44/255 422/38/255 418/38/255
f 418/38/254 422/38/254 421/37/254 417/37/254
f 417/34/257 421/34/257 423/33/257 419/33/257
f 433/98/258 436/44/258 437/33/258 432/95/258
f 425/33/256 427/33/256 426/44/256 424/44/256
f 423/33/257 427/33/257 425/33/257 419/33/257
f 785/238/182 429/38/259 428/37/259 786/239/183
f 787/241/185 431/44/260 429/38/260 785/240/182
f 788/243/184 430/33/261 431/44/261 787/242/185
f 786/245/183 428/34/262 430/33/262 788/244/184
f 430/33/263 435/33/263 434/44/263 431/44/263
f 432/34/262 437/33/262 435/33/262 430/33/262 428/34/262
f 429/38/259 433/38/259 432/37/259 428/37/259
f 431/44/260 434/44/260 436/44/260 433/38/260 429/38/260
f 443/98/264 446/44/264 447/33/264 442/95/264
f 435/33/261 437/33/261 436/44/261 434/44/261
f 439/38/265 438/37/265 791/248/180 789/270/159 790/246/158
f 792/250/161 441/44/266 439/38/266 790/249/158
f 794/252/179 440/33/267 441/44/267 792/251/161 793/271/160
f 791/254/180 438/34/268 440/33/268 794/252/179
f 440/33/269 445/33/269 444/44/269 441/44/269
f 442/34/268 447/33/268 445/33/268 440/33/268 438/34/268
f 439/38/265 443/38/265 442/37/265 438/37/265
f 441/44/266 444/44/266 446/44/266 443/38/266 439/38/266
f 453/98/21 456/44/21 457/33/21 452/95/21
f 445/33/267 447/33/267 446/44/267 444/44/267
f 795/255/198 449/38/270 448/37/270 796/256/153
f 797/257/197 451/44/271 449/38/271 795/255/198
f 798/258/196 450/33/272 451/44/272 797/257/197
f 796/259/153 448/34/273 450/33/273 798/258/196
f 450/33/24 455/33/24 454/44/24 451/44/24
f 452/34/273 457/33/273 455/33/273 450/33/273 448/34/273
f 449/38/270 453/38/270 452/37/270 448/37/270
f 451/44/271 454/44/271 456/44/271 453/38/271 449/38/271
f 463/98/274 466/44/274 467/33/274 462/95/274
f 455/33/272 457/33/272 456/44/272 454/44/272
f 799/261/163 459/38/275 458/37/275 800/260/164
f 801/263/162 461/44/276 459/38/276 799/261/163
f 802/262/165 460/33/277 461/44/277 801/263/162
f 800/266/164 458/34/278 460/33/278 802/267/165
f 460/33/279 465/33/279 464/44/279 461/44/279
f 462/34/278 467/33/278 465/33/278 460/33/278 458/34/278
f 459/38/275 463/38/275 462/37/275 458/37/275
f 461/44/276 464/44/276 466/44/276 463/38/276 459/38/276
f 506/44/280 509/44/280 510/33/280 504/95/280 505/98/280
f 465/33/277 467/33/277 466/44/277 464/44/277
f 501/38/281 500/37/281 836/223/115 835/224/114
f 503/44/282 501/38/282 835/224/114 837/225/113
f 838/226/116 502/33/283 503/44/283 837/225/113
f 836/227/115 500/34/284 502/33/284 838/226/116
f 502/33/285 508/33/285 507/44/285 503/44/285
f 504/34/284 510/33/284 508/33/284 502/33/284 500/34/284
f 501/38/281 505/38/281 504/37/281 500/37/281
f 517/44/21 520/44/21 521/33/21 515/95/21 516/98/21
f 503/44/282 506/44/282 505/38/282 501/38/282
f 508/33/283 510/33/283 509/44/283 507/44/283
f 503/44/282 507/44/282 509/44/282 506/44/282
f 839/229/106 512/38/252 511/37/252 840/228/107
f 841/230/112 514/44/253 512/38/253 839/229/106
f 842/231/104 513/33/250 514/44/250 841/230/112
f 840/232/107 511/34/251 513/33/251 842/231/104
f 513/33/24 519/33/24 518/44/24 514/44/24
f 515/34/251 521/33/251 519/33/251 513/33/251 511/34/251
f 512/38/252 516/38/252 515/37/252 511/37/252
f 528/44/21 531/44/21 532/33/21 526/95/21 527/98/21
f 514/44/253 517/44/253 516/38/253 512/38/253
f 519/33/250 521/33/250 520/44/250 518/44/250
f 514/44/253 518/44/253 520/44/253 517/44/253
f 843/236/133 523/38/256 522/37/256 844/235/134
f 845/237/132 525/44/257 523/38/257 843/236/133
f 846/234/135 524/33/254 525/44/254 845/237/132
f 844/233/134 522/34/255 524/33/255 846/234/135
f 524/33/24 530/33/24 529/44/24 525/44/24
f 526/34/255 532/33/255 530/33/255 524/33/255 522/34/255
f 523/38/256 527/38/256 526/37/256 522/37/256
f 538/98/286 542/44/286 543/33/286 539/33/286 537/95/286
f 525/44/257 528/44/257 527/38/257 523/38/257
f 530/33/254 532/33/254 531/44/254 529/44/254
f 525/44/257 529/44/257 531/44/257 528/44/257
f 847/238/139 534/38/287 533/37/287 848/239/136
f 849/241/138 536/44/288 534/38/288 847/240/139
f 535/33/289 536/44/289 849/242/138 850/243/137
f 533/34/290 535/33/290 850/244/137 848/245/136
f 535/33/291 541/33/291 540/44/291 536/44/291
f 536/44/288 540/44/288 542/44/288 538/38/288 534/38/288
f 534/38/287 538/38/287 537/37/287 533/37/287
f 533/34/290 537/34/290 539/33/290 535/33/290
f 549/98/292 553/44/292 554/33/292 550/33/292 548/95/292
f 541/33/289 543/33/289 542/44/289 540/44/289
f 539/33/290 543/33/290 541/33/290 535/33/290
f 851/246/148 545/38/293 544/37/293 853/248/142 852/272/141
f 854/250/149 547/44/294 545/38/294 851/249/148
f 546/33/295 547/44/295 854/251/149 855/273/140 856/252/143
f 544/34/296 546/33/296 856/252/143 853/254/142
f 546/33/297 552/33/297 551/44/297 547/44/297
f 547/44/294 551/44/294 553/44/294 549/38/294 545/38/294
f 545/38/293 549/38/293 548/37/293 544/37/293
f 544/34/296 548/34/296 550/33/296 546/33/296
f 560/98/21 564/44/21 565/33/21 561/33/21 559/95/21
f 552/33/295 554/33/295 553/44/295 551/44/295
f 550/33/296 554/33/296 552/33/296 546/33/296
f 857/255/150 556/38/272 555/37/272 858/256/151
f 859/257/153 558/44/273 556/38/273 857/255/150
f 860/258/152 557/33/270 558/44/270 859/257/153
f 858/259/151 555/34/271 557/33/271 860/258/152
f 557/33/24 563/33/24 562/44/24 558/44/24
f 558/44/273 562/44/273 564/44/273 560/38/273 556/38/273
f 556/38/272 560/38/272 559/37/272 555/37/272
f 555/34/271 559/34/271 561/33/271 557/33/271
f 572/44/298 575/44/298 576/33/298 570/95/298 571/98/298
f 563/33/270 565/33/270 564/44/270 562/44/270
f 561/33/271 565/33/271 563/33/271 557/33/271
f 567/38/299 566/37/299 862/260/146 861/261/145
f 569/44/300 567/38/300 861/261/145 863/263/144
f 864/262/147 568/33/301 569/44/301 863/263/144
f 862/266/146 566/34/302 568/33/302 864/267/147
f 568/33/303 574/33/303 573/44/303 569/44/303
f 570/34/302 576/33/302 574/33/302 568/33/302 566/34/302
f 567/38/299 571/38/299 570/37/299 566/37/299
f 613/95/304 618/33/304 617/44/304 614/98/304
f 569/44/300 572/44/300 571/38/300 567/38/300
f 574/33/301 576/33/301 575/44/301 573/44/301
f 569/44/300 573/44/300 575/44/300 572/44/300
f 897/223/100 609/37/305 610/38/305 898/224/101
f 898/224/101 610/38/306 612/44/306 899/225/102
f 899/225/102 612/44/307 611/33/307 900/226/103
f 611/33/308 609/34/308 897/227/100 900/226/103
f 611/33/309 612/44/309 615/44/309 616/33/309
f 611/33/308 616/33/308 618/33/308 613/34/308 609/34/308
f 610/38/305 609/37/305 613/37/305 614/38/305
f 614/38/306 617/44/306 615/44/306 612/44/306 610/38/306
f 623/95/21 628/33/21 627/44/21 624/98/21
f 616/33/307 615/44/307 617/44/307 618/33/307
f 901/228/111 619/37/216 620/38/216 902/229/108
f 902/229/108 620/38/217 622/44/217 903/230/109
f 903/230/109 622/44/214 621/33/214 904/231/110
f 904/231/110 621/33/215 619/34/215 901/232/111
f 621/33/24 622/44/24 625/44/24 626/33/24
f 621/33/215 626/33/215 628/33/215 623/34/215 619/34/215
f 620/38/216 619/37/216 623/37/216 624/38/216
f 624/38/217 627/44/217 625/44/217 622/44/217 620/38/217
f 633/95/21 638/33/21 637/44/21 634/98/21
f 626/33/214 625/44/214 627/44/214 628/33/214
f 905/235/127 629/37/221 630/38/221 906/236/124
f 906/236/124 630/38/218 632/44/218 907/237/125
f 907/237/125 632/44/219 631/33/219 908/234/126
f 908/234/126 631/33/220 629/34/220 905/233/127
f 631/33/24 632/44/24 635/44/24 636/33/24
f 631/33/220 636/33/220 638/33/220 633/34/220 629/34/220
f 630/38/221 629/37/221 633/37/221 634/38/221
f 634/38/218 637/44/218 635/44/218 632/44/218 630/38/218
f 643/95/310 648/33/310 647/44/310 644/98/310
f 636/33/219 635/44/219 637/44/219 638/33/219
f 909/239/128 639/37/311 640/38/311 910/238/129
f 640/38/312 642/44/312 911/241/130 910/240/129
f 911/242/130 642/44/313 641/33/313 912/243/131
f 912/244/131 641/33/314 639/34/314 909/245/128
f 641/33/315 642/44/315 645/44/315 646/33/315
f 641/33/314 646/33/314 648/33/314 643/34/314 639/34/314
f 640/38/311 639/37/311 643/37/311 644/38/311
f 644/38/312 647/44/312 645/44/312 642/44/312 640/38/312
f 653/95/316 658/33/316 657/44/316 654/98/316
f 646/33/313 645/44/313 647/44/313 648/33/313
f 914/248/200 649/37/317 650/38/317 915/246/167 913/274/170
f 650/38/318 652/44/318 916/250/168 915/249/167
f 916/251/168 652/44/319 651/33/319 918/252/199 917/275/169
f 918/252/199 651/33/320 649/34/320 914/254/200
f 651/33/321 652/44/321 655/44/321 656/33/321
f 651/33/320 656/33/320 658/33/320 653/34/320 649/34/320
f 650/38/317 649/37/317 653/37/317 654/38/317
f 654/38/318 657/44/318 655/44/318 652/44/318 650/38/318
f 663/95/21 668/33/21 667/44/21 664/98/21
f 656/33/319 655/44/319 657/44/319 658/33/319
f 919/256/155 659/37/236 660/38/236 920/255/166
f 920/255/166 660/38/237 662/44/237 921/257/157
f 921/257/157 662/44/234 661/33/234 922/258/154
f 922/258/154 661/33/235 659/34/235 919/259/155
f 661/33/24 662/44/24 665/44/24 666/33/24
f 661/33/235 666/33/235 668/33/235 663/34/235 659/34/235
f 660/38/236 659/37/236 663/37/236 664/38/236
f 664/38/237 667/44/237 665/44/237 662/44/237 660/38/237
f 673/95/322 678/33/322 677/44/322 674/98/322
f 666/33/234 665/44/234 667/44/234 668/33/234
f 923/260/171 669/37/323 670/38/323 924/261/172
f 924/261/172 670/38/324 672/44/324 925/263/173
f 925/263/173 672/44/325 671/33/325 926/262/174
f 671/33/326 669/34/326 923/266/171 926/267/174
f 671/33/327 672/44/327 675/44/327 676/33/327
f 671/33/326 676/33/328 678/33/328 673/34/328 669/34/326
f 670/38/323 669/37/323 673/37/323 674/38/323
f 674/38/324 677/44/324 675/44/324 672/44/324 670/38/324
f 306/33/217 311/33/217 313/33/217 308/34/217 304/34/217
f 676/33/325 675/44/325 677/44/325 678/33/325
f 358/38/329 359/269/244 356/44/244 739/263/194 738/261/193
f 927/268/242 355/33/242 361/33/330 363/33/330
l 932 931
l 933 932
l 934 933
l 935 934
l 936 935
l 937 936
l 938 937
l 931 938
o Gas_Stove.001
v -2.223045 1.858050 0.604845
v -2.223034 1.849560 0.625344
v -2.223045 1.858050 0.645843
v -2.243785 1.878549 0.596354
v -2.243810 1.899048 0.604845
v -2.243821 1.907539 0.625344
v -2.243810 1.899048 0.645843
v -2.243785 1.878549 0.654334
v -2.243759 1.858050 0.645843
v -2.243759 1.858050 0.604845
v -2.223071 1.878549 0.596354
v -2.223071 1.878549 0.654334
v -2.223097 1.899048 0.645843
v -2.223107 1.907539 0.625344
v -2.223097 1.899048 0.604845
v -2.243748 1.815990 0.625344
v -2.243759 1.824482 0.645843
v -2.243759 1.824482 0.604845
v -2.223045 1.824482 0.604845
v -2.223034 1.815990 0.625344
v -2.223045 1.824482 0.645843
v -2.223071 1.878549 0.625344
vn -0.0000 -0.0000 -1.0000
vn -1.0000 -0.0011 -0.0000
vn -1.0000 -0.0008 0.0002
vn -1.0000 -0.0000 0.0005
vn -1.0000 -0.0000 -0.0000
vn -1.0000 -0.0008 -0.0002
vn -1.0000 -0.0000 -0.0005
vn -0.0000 0.9239 -0.3827
vn -0.0000 0.9239 0.3827
vn -0.0000 0.3827 0.9239
vn -0.0000 -0.3827 0.9239
vn -0.0000 -0.9239 -0.3827
vn -0.0000 0.3827 -0.9239
vn -0.0000 -0.0000 1.0000
vn -0.0000 -0.9239 0.3827
vn -0.0000 -0.3827 -0.9239
vn -1.0000 -0.0013 -0.0000
vn -1.0000 -0.0012 -0.0000
vt 0.000000 0.000000
s 1
usemtl Material.003
f 950/276/331 944/276/331 962/276/331 958/276/331
f 943/276/332 942/276/333 960/276/334 961/276/335
f 944/276/336 943/276/332 961/276/335 962/276/337
f 957/276/338 958/276/338 962/276/338 961/276/338
f 959/276/339 957/276/339 961/276/339 960/276/339
f 945/276/340 951/276/340 942/276/340 952/276/340
f 946/276/341 945/276/341 952/276/341 956/276/341
f 948/276/342 947/276/342 955/276/342 954/276/342
f 950/276/343 949/276/343 953/276/343 944/276/343
f 942/276/344 951/276/344 959/276/344 960/276/344
f 947/276/345 946/276/345 956/276/345 955/276/345
f 949/276/346 948/276/346 954/276/346 953/276/346
f 952/276/347 942/276/333 963/276/347
f 942/276/333 943/276/332 963/276/347
f 943/276/332 944/276/336 963/276/347
f 944/276/336 953/276/347 963/276/347
f 953/276/347 954/276/347 963/276/347
f 954/276/347 955/276/348 963/276/347
f 955/276/348 956/276/348 963/276/347
f 956/276/348 952/276/347 963/276/347
o Gas_Stove.002
v -2.223045 1.856593 0.850310
v -2.223034 1.848102 0.870808
v -2.223045 1.856593 0.891307
v -2.243785 1.877092 0.841819
v -2.243810 1.897591 0.850310
v -2.243821 1.906082 0.870808
v -2.243810 1.897591 0.891307
v -2.243785 1.877092 0.899798
v -2.243759 1.856593 0.891307
v -2.243759 1.856593 0.850310
v -2.223071 1.877092 0.841819
v -2.223071 1.877092 0.899798
v -2.223097 1.897591 0.891307
v -2.223107 1.906082 0.870808
v -2.223097 1.897591 0.850310
v -2.243748 1.814533 0.870808
v -2.243759 1.823024 0.891307
v -2.243759 1.823024 0.850310
v -2.223045 1.823024 0.850310
v -2.223034 1.814533 0.870808
v -2.223045 1.823024 0.891307
v -2.223071 1.877092 0.870808
vn -0.0000 -0.0000 -1.0000
vn -1.0000 -0.0011 -0.0000
vn -1.0000 -0.0008 0.0002
vn -1.0000 -0.0000 0.0005
vn -1.0000 -0.0000 -0.0000
vn -1.0000 -0.0008 -0.0002
vn -1.0000 -0.0000 -0.0005
vn -0.0000 0.9239 -0.3827
vn -0.0000 0.9239 0.3827
vn -0.0000 0.3827 0.9239
vn -0.0000 -0.3827 0.9239
vn -0.0000 -0.9239 -0.3827
vn -0.0000 0.3827 -0.9239
vn -0.0000 -0.0000 1.0000
vn -0.0000 -0.9239 0.3827
vn -0.0000 -0.3827 -0.9239
vn -1.0000 -0.0013 -0.0000
vn -1.0000 -0.0012 -0.0000
vt 0.000000 0.000000
s 1
usemtl Material.003
f 972/277/349 966/277/349 984/277/349 980/277/349
f 965/277/350 964/277/351 982/277/352 983/277/353
f 966/277/354 965/277/350 983/277/353 984/277/355
f 979/277/356 980/277/356 984/277/356 983/277/356
f 981/277/357 979/277/357 983/277/357 982/277/357
f 967/277/358 973/277/358 964/277/358 974/277/358
f 968/277/359 967/277/359 974/277/359 978/277/359
f 970/277/360 969/277/360 977/277/360 976/277/360
f 972/277/361 971/277/361 975/277/361 966/277/361
f 964/277/362 973/277/362 981/277/362 982/277/362
f 969/277/363 968/277/363 978/277/363 977/277/363
f 971/277/364 970/277/364 976/277/364 975/277/364
f 974/277/365 964/277/351 985/277/365
f 964/277/351 965/277/350 985/277/365
f 965/277/350 966/277/354 985/277/365
f 966/277/354 975/277/365 985/277/365
f 975/277/365 976/277/365 985/277/365
f 976/277/365 977/277/366 985/277/365
f 977/277/366 978/277/366 985/277/365
f 978/277/366 974/277/365 985/277/365
o Gas_Stove.003
v -2.223045 1.856733 1.097773
v -2.223034 1.848242 1.118272
v -2.223045 1.856733 1.138771
v -2.243785 1.877232 1.089282
v -2.243810 1.897731 1.097773
v -2.243821 1.906222 1.118272
v -2.243810 1.897731 1.138771
v -2.243785 1.877232 1.147262
v -2.243759 1.856733 1.138771
v -2.243759 1.856733 1.097773
v -2.223071 1.877232 1.089282
v -2.223071 1.877232 1.147262
v -2.223097 1.897731 1.138771
v -2.223107 1.906222 1.118272
v -2.223097 1.897731 1.097773
v -2.243748 1.814674 1.118272
v -2.243759 1.823164 1.138771
v -2.243759 1.823164 1.097773
v -2.223045 1.823164 1.097773
v -2.223034 1.814674 1.118272
v -2.223045 1.823164 1.138771
v -2.223071 1.877232 1.118272
vn -0.0000 -0.0000 -1.0000
vn -1.0000 -0.0011 -0.0000
vn -1.0000 -0.0008 0.0002
vn -1.0000 -0.0000 0.0005
vn -1.0000 -0.0000 -0.0000
vn -1.0000 -0.0008 -0.0002
vn -1.0000 -0.0000 -0.0005
vn -0.0000 0.9239 -0.3827
vn -0.0000 0.9239 0.3827
vn -0.0000 0.3827 0.9239
vn -0.0000 -0.3827 0.9239
vn -0.0000 -0.9239 -0.3827
vn -0.0000 0.3827 -0.9239
vn -0.0000 -0.0000 1.0000
vn -0.0000 -0.9239 0.3827
vn -0.0000 -0.3827 -0.9239
vn -1.0000 -0.0013 -0.0000
vn -1.0000 -0.0012 -0.0000
vt 0.000000 0.000000
s 1
usemtl Material.003
f 994/278/367 988/278/367 1006/278/367 1002/278/367
f 987/278/368 986/278/369 1004/278/370 1005/278/371
f 988/278/372 987/278/368 1005/278/371 1006/278/373
f 1001/278/374 1002/278/374 1006/278/374 1005/278/374
f 1003/278/375 1001/278/375 1005/278/375 1004/278/375
f 989/278/376 995/278/376 986/278/376 996/278/376
f 990/278/377 989/278/377 996/278/377 1000/278/377
f 992/278/378 991/278/378 999/278/378 998/278/378
f 994/278/379 993/278/379 997/278/379 988/278/379
f 986/278/380 995/278/380 1003/278/380 1004/278/380
f 991/278/381 990/278/381 1000/278/381 999/278/381
f 993/278/382 992/278/382 998/278/382 997/278/382
f 996/278/383 986/278/369 1007/278/383
f 986/278/369 987/278/368 1007/278/383
f 987/278/368 988/278/372 1007/278/383
f 988/278/372 997/278/383 1007/278/383
f 997/278/383 998/278/384 1007/278/383
f 998/278/384 999/278/384 1007/278/383
f 999/278/384 1000/278/384 1007/278/383
f 1000/278/384 996/278/383 1007/278/383
o Gas_Stove.004
v -2.223045 1.855276 1.343238
v -2.223034 1.846785 1.363737
v -2.223045 1.855276 1.384235
v -2.243785 1.875775 1.334747
v -2.243810 1.896274 1.343238
v -2.243821 1.904765 1.363737
v -2.243810 1.896274 1.384235
v -2.243785 1.875775 1.392726
v -2.243759 1.855276 1.384235
v -2.243759 1.855276 1.343238
v -2.223071 1.875775 1.334747
v -2.223071 1.875775 1.392726
v -2.223097 1.896274 1.384235
v -2.223107 1.904765 1.363737
v -2.223097 1.896274 1.343238
v -2.243748 1.813216 1.363737
v -2.243759 1.821707 1.384235
v -2.243759 1.821707 1.343238
v -2.223045 1.821707 1.343238
v -2.223034 1.813216 1.363737
v -2.223045 1.821707 1.384235
v -2.223071 1.875775 1.363737
vn -0.0000 -0.0000 -1.0000
vn -1.0000 -0.0011 -0.0000
vn -1.0000 -0.0008 0.0002
vn -1.0000 -0.0000 0.0005
vn -1.0000 -0.0000 -0.0000
vn -1.0000 -0.0008 -0.0002
vn -1.0000 -0.0000 -0.0005
vn -0.0000 0.9239 -0.3827
vn -0.0000 0.9239 0.3827
vn -0.0000 0.3827 0.9239
vn -0.0000 -0.3827 0.9239
vn -0.0000 -0.9239 -0.3827
vn -0.0000 0.3827 -0.9239
vn -0.0000 -0.0000 1.0000
vn -0.0000 -0.9239 0.3827
vn -0.0000 -0.3827 -0.9239
vn -1.0000 -0.0012 -0.0000
vn -1.0000 -0.0013 -0.0000
vt 0.000000 0.000000
s 1
usemtl Material.003
f 1016/279/385 1010/279/385 1028/279/385 1024/279/385
f 1009/279/386 1008/279/387 1026/279/388 1027/279/389
f 1010/279/390 1009/279/386 1027/279/389 1028/279/391
f 1023/279/392 1024/279/392 1028/279/392 1027/279/392
f 1025/279/393 1023/279/393 1027/279/393 1026/279/393
f 1011/279/394 1017/279/394 1008/279/394 1018/279/394
f 1012/279/395 1011/279/395 1018/279/395 1022/279/395
f 1014/279/396 1013/279/396 1021/279/396 1020/279/396
f 1016/279/397 1015/279/397 1019/279/397 1010/279/397
f 1008/279/398 1017/279/398 1025/279/398 1026/279/398
f 1013/279/399 1012/279/399 1022/279/399 1021/279/399
f 1015/279/400 1014/279/400 1020/279/400 1019/279/400
f 1018/279/401 1008/279/387 1029/279/402
f 1008/279/387 1009/279/386 1029/279/402
f 1009/279/386 1010/279/390 1029/279/402
f 1010/279/390 1019/279/402 1029/279/402
f 1019/279/402 1020/279/401 1029/279/402
f 1020/279/401 1021/279/401 1029/279/402
f 1021/279/401 1022/279/401 1029/279/402
f 1022/279/401 1018/279/401 1029/279/402
o Little_Drawer
v -2.195619 0.210227 1.574636
v -2.195619 0.588035 1.574636
v -2.195619 0.210227 0.402639
v -2.195619 0.588035 0.402639
v -2.289058 0.230755 1.524605
v -2.289058 0.567508 1.524605
v -2.289058 0.230755 0.452670
v -2.289058 0.567508 0.452670
v -2.289058 0.567508 0.424700
v -2.289058 0.221424 0.424700
v -2.289058 0.221424 1.552576
v -2.289058 0.567508 1.552576
v -2.289058 0.588035 0.402639
v -2.289058 0.221424 0.409910
v -2.289058 0.588035 1.574636
v -2.289058 0.210227 1.567366
v -2.289058 0.564795 0.474731
v -2.289058 0.233467 0.474731
v -2.289058 0.564795 1.502544
v -2.289058 0.233467 1.502544
v -3.502377 0.210227 1.567366
v -3.502377 0.221424 0.409910
v -3.502377 0.233467 1.502544
v -3.502377 0.233467 0.474731
v -3.502377 0.567508 0.424700
v -3.502377 0.221424 0.424700
v -3.502377 0.567508 1.552576
v -3.502377 0.221424 1.552576
v -3.502377 0.567508 0.452670
v -3.502377 0.230755 0.452670
v -3.502377 0.567508 1.524605
v -3.502377 0.230755 1.524605
v -3.469798 0.567508 0.452670
v -3.469798 0.230755 0.452670
v -3.469798 0.567508 1.524605
v -3.469798 0.230755 1.524605
v -2.185157 0.359542 1.153373
v -2.185157 0.425822 1.153373
v -2.118876 0.359542 1.153444
v -2.118876 0.425822 1.153444
v -2.185227 0.359542 1.219653
v -2.185227 0.425822 1.219653
v -2.118947 0.359542 1.219724
v -2.118947 0.425822 1.219724
v -2.088658 0.425822 1.153476
v -2.088658 0.359542 1.153476
v -2.088729 0.359542 1.219756
v -2.088729 0.425822 1.219756
v -2.118550 0.425822 0.848419
v -2.118550 0.359542 0.848419
v -2.088333 0.425822 0.848452
v -2.088333 0.359542 0.848452
v -2.118477 0.425822 0.780163
v -2.118477 0.359542 0.780163
v -2.088260 0.425822 0.780195
v -2.088260 0.359542 0.780195
v -2.184831 0.425822 0.848349
v -2.184831 0.359542 0.848349
v -2.184758 0.425822 0.780092
v -2.184758 0.359542 0.780092
vn 1.0000 -0.0000 -0.0000
vn -0.0395 -0.0098 -0.9992
vn -1.0000 -0.0000 -0.0000
vn -0.0389 -0.0096 0.9992
vn -0.0598 -0.9982 -0.0048
vn -0.0000 1.0000 -0.0000
vn -0.0000 -0.0000 -1.0000
vn -0.0000 0.9832 -0.1827
vn -0.0000 -1.0000 -0.0097
vn -0.0000 -0.0000 1.0000
vn -0.0000 0.9413 0.3375
vn -0.0000 -0.9486 0.3164
vn -0.0000 -0.9486 -0.3164
vn -0.0000 -0.7973 -0.6036
vn -0.0000 -0.9925 -0.1220
vn -0.0000 -0.9925 0.1220
vn -0.0000 -1.0000 -0.0000
vn -0.0011 -0.0000 1.0000
vn 0.0011 -0.0000 -1.0000
vn 1.0000 -0.0000 0.0011
vn -1.0000 -0.0000 -0.0011
vt 0.375000 0.000000
vt 0.375000 0.250000
vt 0.625000 0.250000
vt 0.625000 0.000000
vt 0.375000 0.500000
vt 0.625000 0.500000
vt 0.390378 0.515378
vt 0.390378 0.734622
vt 0.609622 0.734622
vt 0.609622 0.515378
vt 0.375000 0.750000
vt 0.375000 1.000000
vt 0.625000 1.000000
vt 0.625000 0.750000
vt 0.125000 0.500000
vt 0.125000 0.750000
vt 0.875000 0.750000
vt 0.875000 0.500000
vt 0.386361 0.504706
vt 0.613639 0.504706
vt 0.392327 0.739328
vt 0.607673 0.739328
vt 0.386361 0.745294
vt 0.613639 0.745294
vt 0.392327 0.510672
vt 0.607673 0.510672
vt 0.000000 0.000000
s 1
usemtl Material.004
f 1030/280/403 1032/281/403 1033/282/403 1031/283/403
f 1032/281/404 1043/284/404 1042/285/404 1033/282/404
f 1047/286/405 1049/287/405 1048/288/405 1046/289/405
f 1045/290/406 1030/291/406 1031/292/406 1044/293/406
f 1032/294/407 1030/295/407 1045/290/407 1043/284/407
f 1042/285/408 1044/293/408 1031/296/408 1033/297/408
f 1039/298/409 1055/298/409 1054/299/409 1038/299/409
f 1047/286/408 1053/286/408 1052/287/408 1049/287/408
f 1048/288/405 1044/293/405 1042/285/405 1046/289/405
f 1034/300/409 1061/300/409 1060/301/409 1035/301/409
f 1038/299/405 1042/285/405 1043/284/405 1039/298/405
f 1040/302/405 1045/290/405 1044/293/405 1041/303/405
f 1036/304/405 1047/286/405 1046/289/405 1037/305/405
f 1035/301/405 1048/288/405 1049/287/405 1034/300/405
f 1037/305/405 1046/289/405 1042/285/405 1038/299/405
f 1039/298/403 1043/284/403 1047/286/403 1036/304/403
f 1034/300/405 1049/287/405 1045/290/405 1040/302/405
f 1041/303/405 1044/293/405 1048/288/405 1035/301/405
f 1058/305/405 1054/299/405 1055/298/405 1059/304/405
f 1053/286/405 1051/284/405 1050/290/405 1052/287/405
f 1061/300/405 1057/302/405 1056/303/405 1060/301/405
f 1035/301/408 1060/301/408 1056/303/408 1041/303/408
f 1043/284/410 1051/284/410 1053/286/410 1047/286/410
f 1045/290/411 1050/290/411 1051/284/411 1043/284/411
f 1038/299/408 1054/299/408 1058/305/408 1037/305/408
f 1041/303/412 1056/303/412 1057/302/412 1040/302/412
f 1049/287/413 1052/287/413 1050/290/413 1045/290/413
f 1036/304/414 1059/304/414 1055/298/414 1039/298/414
f 1037/305/412 1058/305/412 1059/304/412 1036/304/412
f 1040/302/415 1057/302/415 1061/300/415 1034/300/415
f 1040/302/416 1045/290/416 1050/290/416 1057/302/416
f 1061/306/403 1057/306/403 1050/306/403 1052/306/403
f 1061/306/417 1052/306/417 1049/306/417 1034/306/417
f 1047/286/418 1053/286/418 1059/304/418 1036/304/418
f 1055/298/419 1051/284/419 1043/284/419 1039/298/419
f 1053/306/405 1051/306/405 1055/306/405 1059/306/405
f 1060/301/409 1064/301/409 1065/300/409 1061/300/409
f 1063/304/405 1065/300/405 1064/301/405 1062/305/405
f 1061/306/408 1065/306/408 1063/306/408 1059/306/408
f 1059/304/412 1063/304/412 1062/305/412 1058/305/412
f 1058/306/419 1062/306/419 1064/306/419 1060/306/419
f 1066/280/420 1068/281/420 1069/282/420 1067/283/420
f 1069/297/419 1074/297/419 1077/285/419 1073/285/419
f 1072/284/421 1070/290/421 1071/293/421 1073/285/421
f 1070/290/422 1066/291/422 1067/292/422 1071/293/422
f 1068/294/408 1066/295/408 1070/290/408 1072/284/408
f 1073/285/419 1071/293/419 1067/296/419 1069/297/419
f 1075/281/423 1076/284/423 1077/285/423 1074/282/423
f 1075/294/408 1081/294/408 1079/294/408 1068/294/408
f 1073/285/421 1077/285/421 1076/284/421 1072/284/421
f 1072/284/408 1076/284/408 1075/294/408 1068/294/408
f 1081/294/408 1085/294/408 1083/294/408 1079/294/408
f 1068/281/422 1079/281/422 1078/282/422 1069/282/422
f 1074/282/423 1080/282/423 1081/281/423 1075/281/423
f 1069/297/419 1078/297/419 1080/297/419 1074/297/419
f 1083/281/420 1085/281/420 1084/282/420 1082/282/420
f 1080/282/423 1084/282/423 1085/281/423 1081/281/423
f 1078/297/419 1082/297/419 1084/297/419 1080/297/419
f 1083/294/408 1089/294/408 1087/294/408 1079/294/408
f 1087/281/422 1089/281/422 1088/282/422 1086/282/422
f 1082/282/420 1088/282/420 1089/281/420 1083/281/420
f 1078/297/419 1086/297/419 1088/297/419 1082/297/419
f 1079/281/421 1087/281/421 1086/282/421 1078/282/421
