# Blender 5.1.2
# www.blender.org
mtllib props_table_basse.mtl
o night_stand
v -1.356181 0.841373 1.680943
v -1.356181 2.496217 1.680943
v -1.356181 0.841373 -1.632018
v -1.356181 2.496217 -1.632018
v 0.808617 0.841373 1.680943
v 0.808617 2.496217 1.680943
v 0.808617 0.841373 -1.632018
v 0.808617 2.496217 -1.632018
v -1.270775 -0.000950 1.714979
v -1.271988 0.858868 1.451897
v -1.272041 -0.000950 1.440256
v -1.273254 0.858868 1.177174
v -0.975560 -0.000950 1.713618
v -0.976773 0.858868 1.450536
v -0.976827 -0.000950 1.438895
v -0.978040 0.858868 1.175813
v 0.723210 -0.000950 1.714979
v 0.724423 0.858868 1.451897
v 0.724477 -0.000950 1.440256
v 0.725690 0.858868 1.177174
v 0.427996 -0.000950 1.713618
v 0.429209 0.858868 1.450535
v 0.429263 -0.000950 1.438895
v 0.430476 0.858868 1.175812
v -1.270774 -0.000950 -1.666055
v -1.271988 0.858868 -1.402972
v -1.272041 -0.000950 -1.391332
v -1.273254 0.858868 -1.128249
v -0.975560 -0.000950 -1.664694
v -0.976773 0.858868 -1.401611
v -0.976827 -0.000950 -1.389971
v -0.978040 0.858868 -1.126888
v 0.723210 -0.000950 -1.666055
v 0.724423 0.858868 -1.402972
v 0.724477 -0.000950 -1.391332
v 0.725690 0.858868 -1.128249
v 0.427996 -0.000950 -1.664693
v 0.429209 0.858868 -1.401611
v 0.429263 -0.000950 -1.389971
v 0.430476 0.858868 -1.126888
v -1.356181 1.699252 1.680943
v -1.356181 1.699252 -1.632018
v 0.808617 1.699252 -1.632018
v 0.808617 1.699252 1.680943
v -1.356181 1.663508 -1.632018
v 0.808617 1.663508 -1.632018
v 0.808617 1.663508 1.680943
v -1.356181 1.663508 1.680943
v -1.356181 0.995523 -1.632018
v 0.808617 0.995523 -1.632018
v 0.808617 0.995523 1.680943
v -1.356181 0.995523 1.680943
v -1.356181 2.358281 1.680943
v -1.356181 2.358281 -1.632018
v 0.808617 2.358281 -1.632018
v 0.808617 2.358281 1.680943
v -1.356181 0.841373 -1.494825
v -1.356181 2.496217 -1.494825
v 0.808617 0.841373 -1.494825
v 0.808617 2.496217 -1.494825
v 0.808617 1.699252 -1.494825
v -1.356181 1.699252 -1.494825
v -1.356181 1.663508 -1.494825
v 0.808617 1.663508 -1.494825
v 0.808617 0.995523 -1.494825
v -1.356181 0.995523 -1.494825
v 0.808617 2.358281 -1.494825
v -1.356181 2.358281 -1.494825
v -1.356181 0.841373 1.487546
v 0.808617 2.496217 1.487546
v 0.808617 1.699252 1.487546
v 0.808617 1.663508 1.487546
v 0.808617 0.995523 1.487546
v 0.808617 2.358281 1.487546
v -1.356181 2.496217 1.487546
v 0.808617 0.841373 1.487546
v -1.356181 1.699252 1.487546
v -1.356181 1.663508 1.487546
v -1.356181 0.995523 1.487546
v -1.356181 2.358281 1.487546
v -1.035737 2.358281 -1.494825
v -1.035737 1.699252 -1.494825
v -1.035737 1.663508 -1.494825
v -1.035737 0.995523 -1.494825
v -1.035737 1.699252 1.487546
v -1.035737 1.663508 1.487546
v -1.035737 0.995523 1.487546
v -1.035737 2.358281 1.487546
vn -1.0000 -0.0000 -0.0000
vn -0.0000 -0.0000 -1.0000
vn 1.0000 -0.0000 -0.0000
vn -0.0000 -0.0000 1.0000
vn -0.0000 -1.0000 -0.0000
vn -0.0000 1.0000 -0.0000
vn -1.0000 -0.0000 0.0046
vn -0.0044 -0.2926 -0.9562
vn 1.0000 -0.0000 -0.0046
vn 0.0044 0.2926 0.9562
vn 1.0000 -0.0000 0.0046
vn 0.0044 -0.2926 -0.9562
vn -1.0000 -0.0000 -0.0046
vn -0.0044 0.2926 0.9562
vn -0.0044 -0.2926 0.9562
vn 0.0044 0.2926 -0.9562
vn 0.0044 -0.2926 0.9562
vn -0.0044 0.2926 -0.9562
vt 0.612344 0.535936
vt 0.580116 0.535936
vt 0.580116 0.557524
vt 0.612344 0.557524
vt 0.612344 0.036226
vt 0.580116 0.036226
vt 0.054244 0.440256
vt 0.054244 0.475111
vt 0.024237 0.475111
vt 0.024237 0.440256
vt 0.024237 0.494435
vt 0.538263 0.494435
vt 0.538263 0.464429
vt 0.024237 0.464429
vt 0.555074 0.590315
vt 0.620500 0.804144
vt 0.688821 0.804144
vt 0.623395 0.590315
vt 0.803477 0.590315
vt 0.803779 0.804144
vt 0.730362 0.804144
vt 0.730060 0.590315
vt 0.623733 0.590315
vt 0.689160 0.804144
vt 0.620839 0.804144
vt 0.555412 0.590315
vt 0.729745 0.590315
vt 0.730047 0.804144
vt 0.803464 0.804144
vt 0.803162 0.590315
vt 0.774673 0.557524
vt 0.766321 0.557524
vt 0.766321 0.036226
vt 0.774673 0.036226
vt 0.054244 0.264694
vt 0.054244 0.273726
vt 0.024237 0.273726
vt 0.024237 0.264694
vt 0.774673 0.535936
vt 0.766321 0.535936
vt 0.930743 0.535936
vt 0.930743 0.557524
vt 0.930743 0.036226
vt 0.054244 0.095902
vt 0.024237 0.095902
vt 0.930743 0.557524
vt 0.930743 0.036226
vt 0.966759 0.557524
vt 0.966759 0.036226
vt 0.054244 0.056950
vt 0.024237 0.056950
vt 0.966759 0.535936
vt 0.766322 0.066657
vt 0.612344 0.066657
vt 0.538263 0.273726
vt 0.538263 0.440256
vt 0.516976 0.440256
vt 0.516976 0.273726
vt 0.966759 0.066657
vt 0.930743 0.066657
vt 0.538263 0.056950
vt 0.538263 0.095902
vt 0.516976 0.095902
vt 0.516976 0.056950
vt 0.538263 0.264694
vt 0.516976 0.264694
vt 0.774673 0.066657
vt 0.538263 0.978454
vt 0.024237 0.978454
vt 0.024237 0.957168
vt 0.538263 0.957168
vt 0.538263 0.475111
vt 0.516976 0.475111
vt 0.580116 0.066657
vt 0.952689 0.052945
vt 0.952689 0.130849
vt 0.591187 0.130849
vt 0.591187 0.052945
vt 0.965372 0.570427
vt 0.965372 0.031444
vt 0.578689 0.031444
vt 0.578689 0.570427
s 0
usemtl Material.001
f 68/1/1 58/2/1 4/3/1 54/4/1
f 54/5/2 4/6/2 8/3/2 55/4/2
f 74/7/3 70/8/3 6/9/3 56/10/3
f 56/4/4 6/3/4 2/6/4 53/5/4
f 69/11/5 76/12/5 5/13/5 1/14/5
f 70/12/6 75/11/6 2/14/6 6/13/6
f 9/15/7 10/16/7 12/17/7 11/18/7
f 11/19/8 12/20/8 16/21/8 15/22/8
f 15/23/9 16/24/9 14/25/9 13/26/9
f 13/27/10 14/28/10 10/29/10 9/30/10
f 11/18/5 15/23/5 13/26/5 9/15/5
f 17/15/11 19/18/11 20/17/11 18/16/11
f 19/19/12 23/22/12 24/21/12 20/20/12
f 23/23/13 21/26/13 22/25/13 24/24/13
f 21/27/14 17/30/14 18/29/14 22/28/14
f 19/18/5 17/15/5 21/26/5 23/23/5
f 25/15/13 27/18/13 28/17/13 26/16/13
f 27/19/15 31/22/15 32/21/15 28/20/15
f 31/23/11 29/26/11 30/25/11 32/24/11
f 29/27/16 25/30/16 26/29/16 30/28/16
f 27/18/5 25/15/5 29/26/5 31/23/5
f 33/15/9 34/16/9 36/17/9 35/18/9
f 35/19/17 36/20/17 40/21/17 39/22/17
f 39/23/7 40/24/7 38/25/7 37/26/7
f 37/27/18 38/28/18 34/29/18 33/30/18
f 35/18/5 39/23/5 37/26/5 33/15/5
f 47/31/4 44/32/4 41/33/4 48/34/4
f 72/35/3 71/36/3 44/37/3 47/38/3
f 45/34/2 42/33/2 43/32/2 46/31/2
f 63/39/1 62/40/1 42/32/1 45/31/1
f 66/41/1 63/39/1 45/31/1 49/42/1
f 49/43/2 45/34/2 46/31/2 50/42/2
f 73/44/3 72/35/3 47/38/3 51/45/3
f 51/46/4 47/31/4 48/34/4 52/47/4
f 5/48/4 51/46/4 52/47/4 1/49/4
f 76/50/3 73/44/3 51/45/3 5/51/3
f 3/49/2 49/43/2 50/42/2 7/48/2
f 57/52/1 66/41/1 49/42/1 3/48/1
f 44/32/4 56/4/4 53/5/4 41/33/4
f 71/36/3 74/7/3 56/10/3 44/37/3
f 42/33/2 54/5/2 55/4/2 43/32/2
f 62/40/1 68/1/1 54/4/1 42/32/1
f 77/53/1 80/54/1 68/1/1 62/40/1
f 43/55/3 55/56/3 67/57/3 61/58/3
f 69/59/1 79/60/1 66/41/1 57/52/1
f 7/61/3 50/62/3 65/63/3 59/64/3
f 50/62/3 46/65/3 64/66/3 65/63/3
f 79/60/1 78/67/1 63/39/1 66/41/1
f 78/67/1 77/53/1 62/40/1 63/39/1
f 46/65/3 43/55/3 61/58/3 64/66/3
f 8/68/6 4/69/6 58/70/6 60/71/6
f 3/69/5 7/68/5 59/71/5 57/70/5
f 55/56/3 8/72/3 60/73/3 67/57/3
f 80/54/1 75/74/1 58/2/1 68/1/1
f 53/5/1 2/6/1 75/74/1 80/54/1
f 48/34/1 41/33/1 77/53/1 78/67/1
f 52/47/1 48/34/1 78/67/1 79/60/1
f 1/49/1 52/47/1 79/60/1 69/59/1
f 41/33/1 53/5/1 80/54/1 77/53/1
f 67/57/5 74/7/5 88/7/5 81/57/5
f 59/64/3 65/63/3 73/44/3 76/50/3
f 61/58/4 67/57/4 81/57/4 82/58/4
f 64/75/3 61/76/3 71/77/3 72/78/3
f 60/71/6 58/70/6 75/11/6 70/12/6
f 57/70/5 59/71/5 76/12/5 69/11/5
f 67/57/3 60/73/3 70/8/3 74/7/3
f 82/58/3 81/57/3 88/7/3 85/36/3
f 84/63/3 83/66/3 86/35/3 87/44/3
f 65/63/4 64/66/4 83/66/4 84/63/4
f 64/79/5 72/80/5 86/81/5 83/82/5
f 72/35/2 73/44/2 87/44/2 86/35/2
f 74/7/2 71/36/2 85/36/2 88/7/2
f 73/44/6 65/63/6 84/63/6 87/44/6
f 71/80/6 61/79/6 82/82/6 85/81/6
o shelf_down
v -1.179178 0.996150 1.487826
v -1.085602 1.661721 1.394250
v -1.179178 0.996150 -1.496007
v -1.085602 1.661721 -1.402431
v 0.809142 0.996150 1.487826
v 0.715566 1.661721 1.394250
v 0.809142 0.996150 -1.496007
v 0.715566 1.661721 -1.402431
v -1.179178 1.661721 1.487826
v -1.179178 1.661721 -1.496007
v 0.809142 1.661721 -1.496007
v 0.809142 1.661721 1.487826
v -1.085602 1.058623 1.394250
v -1.085602 1.058623 -1.402431
v 0.715566 1.058623 -1.402431
v 0.715566 1.058623 1.394250
v 0.990568 1.312069 -0.010520
v 0.796058 1.312069 -0.061197
v 0.990568 1.312069 -0.107775
v 0.796058 1.268182 -0.035858
v 0.990568 1.227843 -0.059148
v 0.796058 1.268182 0.014818
v 0.990568 1.227843 0.038107
v 0.796058 1.312069 0.040156
v 0.990568 1.312069 0.086735
v 0.796058 1.355955 0.014818
v 0.990568 1.396294 0.038107
v 0.796058 1.355955 -0.035858
v 0.990568 1.396294 -0.059148
vn -1.0000 -0.0000 -0.0000
vn -0.0000 -0.0000 -1.0000
vn 1.0000 -0.0000 -0.0000
vn -0.0000 -0.0000 1.0000
vn -0.0000 -1.0000 -0.0000
vn -0.0000 1.0000 -0.0000
vn -0.2031 -0.4896 -0.8480
vn -0.2031 -0.9792 -0.0000
vn -0.2031 -0.4896 0.8480
vn -0.2031 0.4896 0.8480
vn -0.2031 0.9792 -0.0000
vn -0.2031 0.4896 -0.8480
vt 0.592793 0.253066
vt 0.592793 0.335070
vt 0.960431 0.335070
vt 0.960431 0.253066
vt 0.654122 0.253066
vt 0.654122 0.335070
vt 0.899102 0.335070
vt 0.899102 0.253066
vt 0.516119 0.271927
vt 0.516119 0.443386
vt 0.057145 0.443386
vt 0.057145 0.271927
vt 0.105766 0.960598
vt 0.417672 0.960598
vt 0.417672 0.492527
vt 0.105766 0.492527
vt 0.887573 0.335070
vt 0.665651 0.335070
vt 0.665651 0.260763
vt 0.887573 0.260763
vt 0.665651 0.129286
vt 0.665651 0.473864
vt 0.654122 0.485394
vt 0.654122 0.117756
vt 0.887573 0.473864
vt 0.899102 0.485394
vt 0.887573 0.129286
vt 0.899102 0.117756
vt 0.402993 0.945919
vt 0.120445 0.945919
vt 0.120445 0.507206
vt 0.402993 0.507206
vt 0.073121 0.443386
vt 0.500143 0.443386
vt 0.500143 0.282593
vt 0.073121 0.282593
vt 0.948901 0.335070
vt 0.604323 0.335070
vt 0.604323 0.260763
vt 0.948901 0.260763
vt 0.899319 0.916065
vt 0.912756 0.892791
vt 0.926193 0.916065
vt 0.875111 0.928368
vt 0.919982 0.939113
vt 0.919982 0.927895
vt 0.875111 0.922523
vt 0.885882 0.892791
vt 0.919982 0.905460
vt 0.875111 0.910832
vt 0.872445 0.916065
vt 0.919982 0.894242
vt 0.875111 0.904987
vt 0.885882 0.939339
vt 0.912756 0.939339
s 0
usemtl Material.001
f 89/83/19 97/84/19 98/85/19 91/86/19
f 91/87/20 98/88/20 99/89/20 95/90/20
f 95/91/21 99/92/21 100/93/21 93/94/21
f 93/90/22 100/89/22 97/88/22 89/87/22
f 91/95/23 95/96/23 93/97/23 89/98/23
f 96/99/22 92/100/22 102/101/22 103/102/22
f 90/103/24 92/104/24 98/105/24 97/106/24
f 92/104/24 96/107/24 99/108/24 98/105/24
f 96/107/24 94/109/24 100/110/24 99/108/24
f 94/109/24 90/103/24 97/106/24 100/110/24
f 103/111/24 102/112/24 101/113/24 104/114/24
f 94/115/19 96/116/19 103/117/19 104/118/19
f 92/119/21 90/120/21 101/121/21 102/122/21
f 90/100/20 94/99/20 104/102/20 101/101/20
f 105/123/21 109/124/21 107/125/21
f 106/126/25 107/127/25 109/128/25 108/129/25
f 105/123/21 111/130/21 109/124/21
f 108/129/26 109/128/26 111/131/26 110/132/26
f 105/123/21 113/133/21 111/130/21
f 110/132/27 111/131/27 113/134/27 112/135/27
f 105/123/21 115/136/21 113/133/21
f 112/135/28 113/134/28 115/131/28 114/132/28
f 105/123/21 117/137/21 115/136/21
f 114/132/29 115/131/29 117/128/29 116/129/29
f 105/123/21 107/125/21 117/137/21
f 116/129/30 117/128/30 107/127/30 106/126/30
o shelf_up
v -1.172731 1.698714 1.487826
v -1.079155 2.364284 1.394250
v -1.172731 1.698714 -1.496007
v -1.079155 2.364284 -1.402431
v 0.815589 1.698714 1.487826
v 0.722013 2.364284 1.394250
v 0.815589 1.698714 -1.496007
v 0.722013 2.364284 -1.402431
v -1.172731 2.364284 1.487826
v -1.172731 2.364284 -1.496007
v 0.815589 2.364284 -1.496007
v 0.815589 2.364284 1.487826
v -1.079155 1.761186 1.394250
v -1.079155 1.761186 -1.402431
v 0.722013 1.761186 -1.402431
v 0.722013 1.761186 1.394250
v 0.996791 2.014257 -0.010520
v 0.802281 2.014257 -0.061197
v 0.996791 2.014257 -0.107775
v 0.802281 1.970370 -0.035858
v 0.996791 1.930031 -0.059148
v 0.802281 1.970370 0.014818
v 0.996791 1.930031 0.038107
v 0.802281 2.014257 0.040156
v 0.996791 2.014257 0.086735
v 0.802281 2.058144 0.014818
v 0.996791 2.098482 0.038107
v 0.802281 2.058144 -0.035858
v 0.996791 2.098482 -0.059148
vn -1.0000 -0.0000 -0.0000
vn -0.0000 -0.0000 -1.0000
vn 1.0000 -0.0000 -0.0000
vn -0.0000 -0.0000 1.0000
vn -0.0000 -1.0000 -0.0000
vn -0.0000 1.0000 -0.0000
vn -0.2031 -0.4896 -0.8480
vn -0.2031 -0.9792 -0.0000
vn -0.2031 -0.4896 0.8480
vn -0.2031 0.4896 0.8480
vn -0.2031 0.9792 -0.0000
vn -0.2031 0.4896 -0.8480
vt 0.592793 0.253066
vt 0.592793 0.335070
vt 0.960431 0.335070
vt 0.960431 0.253066
vt 0.654122 0.253066
vt 0.654122 0.335070
vt 0.899102 0.335070
vt 0.899102 0.253066
vt 0.516119 0.271927
vt 0.516119 0.443386
vt 0.057145 0.443386
vt 0.057145 0.271927
vt 0.105766 0.960598
vt 0.417672 0.960598
vt 0.417672 0.492527
vt 0.105766 0.492527
vt 0.887573 0.335070
vt 0.665651 0.335070
vt 0.665651 0.260763
vt 0.887573 0.260763
vt 0.665651 0.129286
vt 0.665651 0.473864
vt 0.654122 0.485394
vt 0.654122 0.117756
vt 0.887573 0.473864
vt 0.899102 0.485394
vt 0.887573 0.129286
vt 0.899102 0.117756
vt 0.402993 0.945919
vt 0.120445 0.945919
vt 0.120445 0.507206
vt 0.402993 0.507206
vt 0.073121 0.443386
vt 0.500143 0.443386
vt 0.500143 0.282593
vt 0.073121 0.282593
vt 0.948901 0.335070
vt 0.604323 0.335070
vt 0.604323 0.260763
vt 0.948901 0.260763
vt 0.899319 0.916065
vt 0.912756 0.892791
vt 0.926193 0.916065
vt 0.875111 0.928368
vt 0.919982 0.939113
vt 0.919982 0.927895
vt 0.875111 0.922523
vt 0.885882 0.892791
vt 0.919982 0.905460
vt 0.875111 0.910832
vt 0.872445 0.916065
vt 0.919982 0.894242
vt 0.875111 0.904987
vt 0.885882 0.939339
vt 0.912756 0.939339
s 0
usemtl Material.001
f 118/138/31 126/139/31 127/140/31 120/141/31
f 120/142/32 127/143/32 128/144/32 124/145/32
f 124/146/33 128/147/33 129/148/33 122/149/33
f 122/145/34 129/144/34 126/143/34 118/142/34
f 120/150/35 124/151/35 122/152/35 118/153/35
f 125/154/34 121/155/34 131/156/34 132/157/34
f 119/158/36 121/159/36 127/160/36 126/161/36
f 121/159/36 125/162/36 128/163/36 127/160/36
f 125/162/36 123/164/36 129/165/36 128/163/36
f 123/164/36 119/158/36 126/161/36 129/165/36
f 132/166/36 131/167/36 130/168/36 133/169/36
f 123/170/31 125/171/31 132/172/31 133/173/31
f 121/174/33 119/175/33 130/176/33 131/177/33
f 119/155/32 123/154/32 133/157/32 130/156/32
f 134/178/33 138/179/33 136/180/33
f 135/181/37 136/182/37 138/183/37 137/184/37
f 134/178/33 140/185/33 138/179/33
f 137/184/38 138/183/38 140/186/38 139/187/38
f 134/178/33 142/188/33 140/185/33
f 139/187/39 140/186/39 142/189/39 141/190/39
f 134/178/33 144/191/33 142/188/33
f 141/190/40 142/189/40 144/186/40 143/187/40
f 134/178/33 146/192/33 144/191/33
f 143/187/41 144/186/41 146/183/41 145/184/41
f 134/178/33 136/180/33 146/192/33
f 145/184/42 146/183/42 136/182/42 135/181/42
