# Blender 5.1.2
# www.blender.org
mtllib props_garage_shelf.mtl
o Cube.005
v -1.116931 0.426795 2.783522
v -1.116931 0.284024 2.783522
v -1.116931 0.426795 -2.767059
v -1.116931 0.284024 -2.767059
v 0.396837 0.426795 2.783522
v 0.396837 0.284024 2.783522
v 0.396837 0.426795 -2.767059
v 0.396837 0.284024 -2.767059
v -1.116178 0.013419 2.785149
v -1.116178 6.107829 2.785149
v -1.116178 0.013419 2.507989
v -1.116178 6.107829 2.507989
v -0.839017 0.013419 2.785149
v -0.839017 6.107829 2.785149
v -0.839017 0.013419 2.507989
v -0.839017 6.107829 2.507989
v 0.125327 0.013419 2.785149
v 0.125327 6.107829 2.785149
v 0.125327 0.013419 2.507989
v 0.125327 6.107829 2.507989
v 0.402488 0.013419 2.785149
v 0.402488 6.107829 2.785149
v 0.402488 0.013419 2.507989
v 0.402488 6.107829 2.507989
v -1.116178 0.013419 -2.491025
v -1.116178 6.107829 -2.491025
v -1.116178 0.013419 -2.768186
v -1.116178 6.107829 -2.768186
v -0.839017 0.013419 -2.491025
v -0.839017 6.107829 -2.491025
v -0.839017 0.013419 -2.768186
v -0.839017 6.107829 -2.768186
v 0.125327 0.013419 -2.491025
v 0.125327 6.107829 -2.491025
v 0.125327 0.013419 -2.768186
v 0.125327 6.107829 -2.768186
v 0.402488 0.013419 -2.491025
v 0.402488 6.107829 -2.491025
v 0.402488 0.013419 -2.768186
v 0.402488 6.107829 -2.768186
v -1.116931 1.512534 2.783521
v -1.116931 1.369762 2.783521
v -1.116931 1.512534 -2.767060
v -1.116931 1.369762 -2.767060
v 0.396837 1.512534 2.783521
v 0.396837 1.369762 2.783521
v 0.396837 1.512534 -2.767060
v 0.396837 1.369762 -2.767060
v -1.116931 2.598272 2.783521
v -1.116931 2.455500 2.783521
v -1.116931 2.598272 -2.767060
v -1.116931 2.455500 -2.767060
v 0.396837 2.598272 2.783521
v 0.396837 2.455500 2.783521
v 0.396837 2.598272 -2.767060
v 0.396837 2.455500 -2.767060
v -1.116931 3.684010 2.783521
v -1.116931 3.541238 2.783521
v -1.116931 3.684010 -2.767060
v -1.116931 3.541238 -2.767060
v 0.396837 3.684010 2.783521
v 0.396837 3.541238 2.783521
v 0.396837 3.684010 -2.767060
v 0.396837 3.541238 -2.767060
v -1.116931 4.769748 2.783521
v -1.116931 4.626976 2.783521
v -1.116931 4.769748 -2.767060
v -1.116931 4.626976 -2.767060
v 0.396837 4.769748 2.783521
v 0.396837 4.626976 2.783521
v 0.396837 4.769748 -2.767060
v 0.396837 4.626976 -2.767060
v -1.116931 5.855486 2.783521
v -1.116931 5.712714 2.783521
v -1.116931 5.855486 -2.767060
v -1.116931 5.712714 -2.767060
v 0.396837 5.855486 2.783521
v 0.396837 5.712714 2.783521
v 0.396837 5.855486 -2.767060
v 0.396837 5.712714 -2.767060
vn -1.0000 -0.0000 -0.0000
vn -0.0000 -0.0000 -1.0000
vn 1.0000 -0.0000 -0.0000
vn -0.0000 -0.0000 1.0000
vn -0.0000 1.0000 -0.0000
vn -0.0000 -1.0000 -0.0000
vt 0.242179 0.716599
vt 0.242179 0.025332
vt 0.224398 0.025332
vt 0.224398 0.716599
vt 0.108015 0.501647
vt 0.108015 0.815390
vt 0.078424 0.815390
vt 0.078424 0.501647
vt 0.108015 0.815390
vt 0.108015 0.501647
vt 0.078424 0.501647
vt 0.078424 0.815390
vt 0.078657 0.487362
vt 0.078657 0.025038
vt 0.204743 0.025038
vt 0.204743 0.487362
vt 0.013210 0.014633
vt 0.013210 0.981079
vt 0.057162 0.981079
vt 0.057162 0.014633
vt 0.213629 0.842745
vt 0.081893 0.842745
vt 0.081893 0.974483
vt 0.213629 0.974483
vt 0.213629 0.842745
vt 0.213629 0.974483
vt 0.081893 0.974482
vt 0.213629 0.974482
vt 0.213629 0.974482
vt 0.224398 0.025332
vt 0.224398 0.716599
vt 0.108015 0.501647
vt 0.108015 0.815390
vt 0.078424 0.815390
vt 0.078424 0.501647
vt 0.078424 0.501647
vt 0.078424 0.815390
vt 0.108015 0.815390
vt 0.108015 0.501647
vt 0.078425 0.501647
vt 0.078425 0.815390
vt 0.078425 0.501647
vt 0.078425 0.815390
vt 0.108016 0.815390
vt 0.108016 0.501647
vt 0.108015 0.501647
vt 0.108015 0.815390
vt 0.078425 0.815390
vt 0.078425 0.501647
s 0
f 1/1/1 3/2/1 4/3/1 2/4/1
f 3/5/2 7/6/2 8/7/2 4/8/2
f 7/2/3 5/1/3 6/4/3 8/3/3
f 5/9/4 1/10/4 2/11/4 6/12/4
f 3/13/5 1/14/5 5/15/5 7/16/5
f 8/16/6 6/15/6 2/14/6 4/13/6
f 9/17/1 10/18/1 12/19/1 11/20/1
f 11/17/2 12/18/2 16/19/2 15/20/2
f 15/20/3 16/19/3 14/18/3 13/17/3
f 13/20/4 14/19/4 10/18/4 9/17/4
f 11/21/6 15/22/6 13/23/6 9/24/6
f 16/22/5 12/21/5 10/24/5 14/23/5
f 17/17/1 18/18/1 20/19/1 19/20/1
f 19/17/2 20/18/2 24/19/2 23/20/2
f 23/20/3 24/19/3 22/18/3 21/17/3
f 21/20/4 22/19/4 18/18/4 17/17/4
f 19/25/6 23/22/6 21/23/6 17/26/6
f 24/22/5 20/25/5 18/26/5 22/23/5
f 25/17/1 26/18/1 28/19/1 27/20/1
f 27/17/2 28/18/2 32/19/2 31/20/2
f 31/20/3 32/19/3 30/18/3 29/17/3
f 29/20/4 30/19/4 26/18/4 25/17/4
f 27/21/6 31/22/6 29/27/6 25/28/6
f 32/22/5 28/21/5 26/28/5 30/27/5
f 33/17/1 34/18/1 36/19/1 35/20/1
f 35/17/2 36/18/2 40/19/2 39/20/2
f 39/20/3 40/19/3 38/18/3 37/17/3
f 37/20/4 38/19/4 34/18/4 33/17/4
f 35/25/6 39/22/6 37/27/6 33/29/6
f 40/22/5 36/25/5 34/29/5 38/27/5
f 41/1/1 43/2/1 44/30/1 42/31/1
f 43/32/2 47/33/2 48/34/2 44/35/2
f 47/2/3 45/1/3 46/31/3 48/30/3
f 45/9/4 41/10/4 42/36/4 46/37/4
f 43/13/5 41/14/5 45/15/5 47/16/5
f 48/16/6 46/15/6 42/14/6 44/13/6
f 49/1/1 51/2/1 52/30/1 50/31/1
f 51/10/2 55/9/2 56/37/2 52/36/2
f 55/2/3 53/1/3 54/31/3 56/30/3
f 53/38/4 49/39/4 50/40/4 54/41/4
f 51/13/5 49/14/5 53/15/5 55/16/5
f 56/16/6 54/15/6 50/14/6 52/13/6
f 57/1/1 59/2/1 60/30/1 58/31/1
f 59/39/2 63/38/2 64/12/2 60/11/2
f 63/2/3 61/1/3 62/31/3 64/30/3
f 61/38/4 57/39/4 58/42/4 62/43/4
f 59/13/5 57/14/5 61/15/5 63/16/5
f 64/16/6 62/15/6 58/14/6 60/13/6
f 65/1/1 67/2/1 68/30/1 66/31/1
f 67/39/2 71/38/2 72/41/2 68/40/2
f 71/2/3 69/1/3 70/31/3 72/30/3
f 69/44/4 65/45/4 66/42/4 70/43/4
f 67/13/5 65/14/5 69/15/5 71/16/5
f 72/16/6 70/15/6 66/14/6 68/13/6
f 73/1/1 75/2/1 76/3/1 74/4/1
f 75/46/2 79/47/2 80/48/2 76/49/2
f 79/2/3 77/1/3 78/4/3 80/3/3
f 77/44/4 73/45/4 74/49/4 78/48/4
f 75/13/5 73/14/5 77/15/5 79/16/5
f 80/16/6 78/15/6 74/14/6 76/13/6
