# Blender 5.1.2
# www.blender.org
mtllib props_closet.mtl
o closet
v -1.194059 0.334915 2.405030
v -1.194059 5.352697 2.405030
v -1.194059 0.334915 -2.438511
v -1.194059 5.352697 -2.438511
v 0.641622 0.334915 2.405030
v 0.641622 5.352697 2.405030
v 0.641622 0.334915 -2.438511
v 0.641622 5.352697 -2.438511
v -1.194059 6.072774 2.405030
v -1.194059 6.072774 -2.438511
v 0.641622 6.072774 -2.438511
v 0.641622 6.072774 2.405030
v -1.194059 0.334915 -2.225303
v -1.194059 0.334915 2.218850
v -1.194059 5.352697 2.218850
v -1.194059 5.352697 -2.225303
v 0.641622 0.334915 2.218850
v 0.641622 0.334915 -2.225303
v 0.641622 5.352697 -2.225303
v 0.641622 5.352697 2.218850
v -1.194059 6.072774 2.218850
v -1.194059 6.072774 -2.225303
v 0.641622 6.072774 -2.225303
v 0.641622 6.072774 2.218850
v -1.194059 0.560433 2.405030
v -1.194059 0.560433 -2.438511
v 0.641622 0.560433 -2.438511
v 0.641622 0.560433 2.405030
v 0.641622 0.560433 -2.225303
v 0.641622 0.560433 2.218850
v -1.194059 0.560433 2.218850
v -1.194059 0.560433 -2.225303
v -1.007204 5.352697 -2.225303
v -1.007204 5.352697 2.218850
v -1.007204 0.560433 -2.225303
v -1.007204 0.560433 2.218850
v -1.194059 5.712736 2.405030
v -1.194059 5.712736 -2.438511
v 0.641622 5.712736 2.405030
v 0.641622 5.712736 -2.438511
v 0.641622 5.712736 2.218850
v 0.641622 5.712736 -2.225303
v -1.194059 5.712736 -2.225303
v -1.194059 5.712736 2.218850
v -1.194059 0.334915 -0.003226
v -1.194059 5.352697 -0.003227
v 0.641622 0.334915 -0.003227
v 0.641622 5.352697 -0.003226
v -1.194059 6.072774 -0.003227
v 0.641622 6.072774 -0.003226
v -1.194059 0.560433 -0.003227
v 0.641622 0.560433 -0.003226
v -1.007204 5.352697 -0.003226
v -1.007204 0.560433 -0.003226
v -1.194059 5.712736 -0.003227
v 0.641622 5.712736 -0.003226
v -1.086841 0.032069 2.276854
v -1.095243 0.361530 2.285255
v -1.086841 0.032069 2.010132
v -1.095243 0.361530 2.001731
v -0.820120 0.032069 2.276854
v -0.811719 0.361530 2.285255
v -0.820120 0.032069 2.010132
v -0.811719 0.361530 2.001731
v -1.124358 0.196800 2.314370
v -1.124358 0.196800 1.972616
v -0.782604 0.196800 1.972616
v -0.782604 0.196800 2.314370
v -1.129528 0.032069 2.143493
v -1.140619 0.361530 2.143493
v -0.777433 0.032069 2.143493
v -0.766343 0.361530 2.143493
v -0.727908 0.196800 2.143493
v -1.179053 0.196800 2.143493
v 0.534404 0.032069 2.276854
v 0.542806 0.361530 2.285255
v 0.534404 0.032069 2.010132
v 0.542806 0.361530 2.001731
v 0.267683 0.032069 2.276854
v 0.259282 0.361530 2.285255
v 0.267683 0.032069 2.010132
v 0.259282 0.361530 2.001731
v 0.571921 0.196800 2.314370
v 0.571921 0.196800 1.972616
v 0.230167 0.196800 1.972616
v 0.230167 0.196800 2.314370
v 0.577091 0.032069 2.143493
v 0.588182 0.361530 2.143493
v 0.224996 0.032069 2.143493
v 0.213906 0.361530 2.143493
v 0.175471 0.196800 2.143493
v 0.626616 0.196800 2.143493
v -1.086841 0.032069 -2.310334
v -1.095243 0.361530 -2.318736
v -1.086841 0.032069 -2.043613
v -1.095243 0.361530 -2.035212
v -0.820120 0.032069 -2.310334
v -0.811719 0.361530 -2.318736
v -0.820120 0.032069 -2.043613
v -0.811719 0.361530 -2.035212
v -1.124358 0.196800 -2.347851
v -1.124358 0.196800 -2.006096
v -0.782604 0.196800 -2.006096
v -0.782604 0.196800 -2.347851
v -1.129528 0.032069 -2.176974
v -1.140619 0.361530 -2.176974
v -0.777433 0.032069 -2.176974
v -0.766343 0.361530 -2.176974
v -0.727908 0.196800 -2.176974
v -1.179053 0.196800 -2.176974
v 0.534404 0.032069 -2.310334
v 0.542806 0.361530 -2.318736
v 0.534404 0.032069 -2.043613
v 0.542806 0.361530 -2.035212
v 0.267683 0.032069 -2.310334
v 0.259282 0.361530 -2.318736
v 0.267683 0.032069 -2.043613
v 0.259282 0.361530 -2.035212
v 0.571921 0.196800 -2.347851
v 0.571921 0.196800 -2.006096
v 0.230167 0.196800 -2.006096
v 0.230167 0.196800 -2.347851
v 0.577091 0.032069 -2.176974
v 0.588182 0.361530 -2.176974
v 0.224996 0.032069 -2.176974
v 0.213906 0.361530 -2.176974
v 0.175471 0.196800 -2.176974
v 0.626616 0.196800 -2.176974
v 0.401044 0.032069 -2.176973
v -0.953481 0.032069 -2.176974
v 0.401044 0.032069 2.143493
v -0.953481 0.032069 2.143493
vn -1.0000 -0.0000 -0.0000
vn -0.0000 -0.0000 -1.0000
vn 1.0000 -0.0000 -0.0000
vn -0.0000 -0.0000 1.0000
vn -0.0000 -1.0000 -0.0000
vn -0.0000 1.0000 -0.0000
vn -0.9297 0.2169 -0.2976
vn -0.0000 0.1740 -0.9847
vn 0.9297 0.2169 0.2976
vn -0.0000 0.1740 0.9847
vn -0.0000 -0.2221 0.9750
vn 0.9156 -0.2753 0.2931
vn -0.0000 -0.2221 -0.9750
vn -0.9156 -0.2753 -0.2931
vn -0.9156 -0.2753 0.2931
vn 0.9156 -0.2753 -0.2931
vn 0.9297 0.2169 -0.2976
vn -0.9297 0.2169 0.2976
vt 0.446774 0.272853
vt 0.446774 0.443926
vt 0.437727 0.443926
vt 0.437727 0.272853
vt 0.018032 0.812010
vt 0.018032 0.648669
vt 0.214267 0.648669
vt 0.214267 0.812010
vt 0.445627 0.040029
vt 0.445627 0.211102
vt 0.437727 0.211102
vt 0.437727 0.040029
vt 0.214267 0.240006
vt 0.214267 0.403348
vt 0.018032 0.403348
vt 0.018032 0.240006
vt 0.018032 0.224777
vt 0.214267 0.224777
vt 0.214267 0.232320
vt 0.018032 0.232320
vt 0.635350 0.456779
vt 0.643250 0.456779
vt 0.643250 0.469632
vt 0.635350 0.469632
vt 0.214267 0.435434
vt 0.018032 0.435434
vt 0.018032 0.427891
vt 0.214267 0.427891
vt 0.018032 0.415619
vt 0.214267 0.415619
vt 0.214267 0.636397
vt 0.018032 0.636397
vt 0.018032 0.624126
vt 0.214267 0.624126
vt 0.634203 0.223954
vt 0.643250 0.223954
vt 0.643250 0.236807
vt 0.634203 0.236807
vt 0.437727 0.223954
vt 0.445627 0.223954
vt 0.445627 0.236807
vt 0.437727 0.236807
vt 0.539915 0.223954
vt 0.539915 0.236807
vt 0.018032 0.615487
vt 0.214267 0.615487
vt 0.214267 0.525461
vt 0.018032 0.525461
vt 0.437727 0.456779
vt 0.446774 0.456779
vt 0.446774 0.469632
vt 0.437727 0.469632
vt 0.541062 0.456779
vt 0.541062 0.469632
vt 0.018032 0.036085
vt 0.214267 0.036085
vt 0.214267 0.044723
vt 0.018032 0.044723
vt 0.018032 0.134750
vt 0.214267 0.134750
vt 0.643250 0.040029
vt 0.643250 0.211102
vt 0.634203 0.211102
vt 0.634203 0.040029
vt 0.240334 0.126112
vt 0.240334 0.036085
vt 0.416594 0.036085
vt 0.416594 0.126112
vt 0.643250 0.272853
vt 0.643250 0.443926
vt 0.635350 0.443926
vt 0.635350 0.272853
vt 0.541062 0.272853
vt 0.541062 0.443926
vt 0.541062 0.264803
vt 0.446774 0.264803
vt 0.643250 0.264803
vt 0.635350 0.264803
vt 0.539915 0.031978
vt 0.539915 0.040029
vt 0.445627 0.031978
vt 0.643250 0.031978
vt 0.634203 0.031978
vt 0.437727 0.031978
vt 0.018032 0.819697
vt 0.214267 0.819697
vt 0.437727 0.264803
vt 0.542879 0.494839
vt 0.542879 0.665913
vt 0.448591 0.665913
vt 0.448591 0.494839
vt 0.240334 0.722875
vt 0.240334 0.559533
vt 0.416594 0.559533
vt 0.416594 0.722875
vt 0.240334 0.469507
vt 0.240334 0.379480
vt 0.416594 0.379480
vt 0.416594 0.469507
vt 0.240334 0.216139
vt 0.416594 0.216139
vt 0.539915 0.211102
vt 0.637167 0.494839
vt 0.637167 0.665913
vt 0.825825 0.473222
vt 0.825825 0.534364
vt 0.887756 0.534364
vt 0.887756 0.473222
vt 0.763980 0.473222
vt 0.763980 0.535234
vt 0.887837 0.535234
vt 0.887837 0.473222
vt 0.763980 0.534364
vt 0.887837 0.473222
vt 0.763980 0.473222
vt 0.887837 0.411211
vt 0.763980 0.411211
vt 0.825825 0.412081
vt 0.763980 0.412081
vt 0.887756 0.412081
vt 0.763980 0.473223
vt 0.887837 0.473223
vt 0.887837 0.535234
vt 0.763980 0.535234
vt 0.763980 0.411211
vt 0.887837 0.411211
vt 0.825825 0.473222
vt 0.825825 0.534364
vt 0.763980 0.473222
vt 0.887837 0.473222
vt 0.887837 0.535234
vt 0.763980 0.535234
vt 0.887837 0.411211
vt 0.763980 0.411211
vt 0.825825 0.412081
vt 0.887837 0.473222
vt 0.887837 0.535234
vt 0.763980 0.535234
vt 0.763980 0.473222
vt 0.763980 0.411211
vt 0.887837 0.411211
vt 0.324450 0.953309
vt 0.258699 0.933503
vt 0.324450 0.871625
vt 0.324450 0.789941
vt 0.390202 0.809748
vt 0.324451 0.953309
vt 0.324451 0.871625
vt 0.390202 0.933503
vt 0.258699 0.809747
vt 0.258699 0.809747
vt 0.324450 0.789941
vt 0.390202 0.809747
vt 0.324451 0.789941
s 0
usemtl closet
f 32/1/1 16/2/1 4/3/1 26/4/1
f 26/5/2 4/6/2 8/7/2 27/8/2
f 30/9/3 20/10/3 6/11/3 28/12/3
f 28/13/4 6/14/4 2/15/4 25/16/4
f 14/17/5 17/18/5 5/19/5 1/20/5
f 44/21/1 37/22/1 9/23/1 21/24/1
f 24/25/6 21/26/6 9/27/6 12/28/6
f 37/29/4 39/30/4 12/28/4 9/27/4
f 40/31/2 38/32/2 10/33/2 11/34/2
f 42/35/3 40/36/3 11/37/3 23/38/3
f 39/39/3 41/40/3 24/41/3 12/42/3
f 56/43/3 42/35/3 23/38/3 50/44/3
f 11/34/6 10/33/6 22/45/6 23/46/6
f 50/47/6 49/48/6 21/26/6 24/25/6
f 38/49/1 43/50/1 22/51/1 10/52/1
f 55/53/1 44/21/1 21/24/1 49/54/1
f 3/55/5 7/56/5 18/57/5 13/58/5
f 45/59/5 47/60/5 17/18/5 14/17/5
f 27/61/3 8/62/3 19/63/3 29/64/3
f 52/65/6 29/66/6 35/67/6 54/68/6
f 25/69/1 2/70/1 15/71/1 31/72/1
f 51/73/1 46/74/1 16/2/1 32/1/1
f 45/75/1 51/73/1 32/1/1 13/76/1
f 1/77/1 25/69/1 31/72/1 14/78/1
f 47/79/3 52/80/3 30/9/3 17/81/3
f 7/82/3 27/61/3 29/64/3 18/83/3
f 5/19/4 28/13/4 25/16/4 1/20/4
f 17/81/3 30/9/3 28/12/3 5/84/3
f 3/85/2 26/5/2 27/8/2 7/86/2
f 13/76/1 32/1/1 26/4/1 3/87/1
f 54/88/3 53/89/3 34/90/3 36/91/3
f 29/92/4 19/93/4 33/94/4 35/95/4
f 48/96/5 20/97/5 34/98/5 53/99/5
f 20/97/2 30/100/2 36/101/2 34/98/2
f 46/74/1 15/71/1 44/21/1 55/53/1
f 4/3/1 16/2/1 43/50/1 38/49/1
f 48/102/3 19/63/3 42/35/3 56/43/3
f 6/11/3 20/10/3 41/40/3 39/39/3
f 19/63/3 8/62/3 40/36/3 42/35/3
f 8/7/2 4/6/2 38/32/2 40/31/2
f 2/15/4 6/14/4 39/30/4 37/29/4
f 15/71/1 2/70/1 37/22/1 44/21/1
f 20/10/3 48/102/3 56/43/3 41/40/3
f 16/2/1 46/74/1 55/53/1 43/50/1
f 19/93/5 48/96/5 53/99/5 33/94/5
f 35/103/3 33/104/3 53/89/3 54/88/3
f 18/83/3 29/64/3 52/80/3 47/79/3
f 14/78/1 31/72/1 51/73/1 45/75/1
f 31/72/1 15/71/1 46/74/1 51/73/1
f 30/100/6 52/65/6 54/68/6 36/101/6
f 13/58/5 18/57/5 47/60/5 45/59/5
f 43/50/1 55/53/1 49/54/1 22/51/1
f 23/46/6 22/45/6 49/48/6 50/47/6
f 41/40/3 56/43/3 50/44/3 24/41/3
f 74/105/7 70/106/7 60/107/7 66/108/7
f 66/109/8 60/110/8 64/111/8 67/112/8
f 73/105/9 72/106/9 62/113/9 68/109/9
f 68/114/10 62/111/10 58/110/10 65/115/10
f 61/116/11 68/114/11 65/115/11 57/117/11
f 71/118/12 73/105/12 68/109/12 61/119/12
f 59/117/13 66/109/13 67/112/13 63/116/13
f 69/118/14 74/105/14 66/108/14 59/120/14
f 57/119/15 65/109/15 74/105/15 69/118/15
f 63/120/16 67/108/16 73/105/16 71/118/16
f 67/108/17 64/107/17 72/106/17 73/105/17
f 65/109/18 58/113/18 70/106/18 74/105/18
f 92/105/17 84/108/17 78/107/17 88/106/17
f 84/114/8 85/115/8 82/110/8 78/111/8
f 91/105/18 86/109/18 80/113/18 90/106/18
f 86/121/10 83/122/10 76/123/10 80/124/10
f 79/125/11 75/126/11 83/122/11 86/121/11
f 89/118/15 79/119/15 86/109/15 91/105/15
f 77/126/13 81/125/13 85/115/13 84/114/13
f 87/118/16 77/120/16 84/108/16 92/105/16
f 75/119/12 87/118/12 92/105/12 83/109/12
f 81/120/14 89/118/14 91/105/14 85/108/14
f 85/108/7 91/105/7 90/106/7 82/107/7
f 83/109/9 92/105/9 88/106/9 76/113/9
f 110/127/18 102/109/18 96/113/18 106/128/18
f 102/129/10 103/130/10 100/131/10 96/132/10
f 109/127/17 104/108/17 98/107/17 108/128/17
f 104/130/8 101/129/8 94/132/8 98/131/8
f 97/133/13 93/134/13 101/129/13 104/130/13
f 107/135/16 97/120/16 104/108/16 109/127/16
f 95/134/11 99/133/11 103/130/11 102/129/11
f 105/135/15 95/119/15 102/109/15 110/127/15
f 93/120/14 105/135/14 110/127/14 101/108/14
f 99/119/12 107/135/12 109/127/12 103/109/12
f 103/109/9 109/127/9 108/128/9 100/113/9
f 101/108/7 110/127/7 106/128/7 94/107/7
f 128/127/9 124/128/9 114/113/9 120/109/9
f 120/136/10 114/137/10 118/138/10 121/139/10
f 127/127/7 126/128/7 116/107/7 122/108/7
f 122/139/8 116/138/8 112/137/8 119/136/8
f 115/140/13 122/139/13 119/136/13 111/141/13
f 125/135/14 127/127/14 122/108/14 115/120/14
f 113/141/11 120/136/11 121/139/11 117/140/11
f 123/135/12 128/127/12 120/109/12 113/119/12
f 111/120/16 119/108/16 128/127/16 123/135/16
f 117/119/15 121/109/15 127/127/15 125/135/15
f 121/109/18 118/113/18 126/128/18 127/127/18
f 119/108/17 112/107/17 124/128/17 128/127/17
f 105/142/5 93/143/5 130/144/5
f 87/145/5 75/146/5 131/144/5
f 69/147/5 59/143/5 132/148/5
f 123/145/5 113/146/5 129/144/5
f 113/146/5 117/149/5 129/144/5
f 117/149/5 125/142/5 129/144/5
f 125/142/5 115/143/5 129/144/5
f 115/143/5 111/150/5 129/144/5
f 111/150/5 123/145/5 129/144/5
f 93/143/5 97/151/5 130/144/5
f 97/151/5 107/152/5 130/144/5
f 107/152/5 99/153/5 130/144/5
f 99/153/5 95/149/5 130/144/5
f 95/149/5 105/142/5 130/144/5
f 75/146/5 79/149/5 131/144/5
f 79/149/5 89/142/5 131/144/5
f 89/142/5 81/143/5 131/144/5
f 81/143/5 77/150/5 131/144/5
f 77/150/5 87/145/5 131/144/5
f 59/143/5 63/151/5 132/148/5
f 63/151/5 71/154/5 132/148/5
f 71/154/5 61/153/5 132/148/5
f 61/153/5 57/149/5 132/148/5
f 57/149/5 69/147/5 132/148/5
o closet_left_door
v 0.543630 0.552964 -0.019215
v 0.543630 5.349651 -0.019215
v 0.543630 0.552964 -2.241108
v 0.543630 5.349651 -2.241108
v 0.630732 0.552964 -0.019215
v 0.630732 5.349651 -0.019215
v 0.630732 0.552964 -2.241108
v 0.630732 5.349651 -2.241108
v 0.543630 2.951308 -0.019215
v 0.543630 2.951308 -2.241108
v 0.630732 2.951308 -2.241108
v 0.630732 2.951308 -0.019215
v 0.587181 0.552964 -2.241108
v 0.587181 5.349651 -2.241108
v 0.587181 0.552964 -0.019215
v 0.587181 5.349651 -0.019215
v 0.587181 2.951308 -0.019215
v 0.587181 2.951308 -2.241108
v 0.603258 3.005658 -0.173755
v 0.800604 3.010691 -0.168723
v 0.603258 3.005658 -0.333521
v 0.800604 3.010691 -0.338553
v 0.603258 2.845893 -0.173755
v 0.800604 2.840861 -0.168723
v 0.603258 2.845893 -0.333521
v 0.800604 2.840861 -0.338553
v 0.701931 3.028131 -0.151283
v 0.701931 3.028131 -0.355993
v 0.701931 2.823421 -0.355993
v 0.701931 2.823421 -0.151283
v 0.603258 3.031228 -0.253638
v 0.800604 3.037871 -0.253638
v 0.603258 2.820323 -0.253638
v 0.800604 2.813680 -0.253638
v 0.701931 2.790658 -0.253638
v 0.701931 3.060893 -0.253638
vn -1.0000 -0.0000 -0.0000
vn -0.0000 -0.0000 -1.0000
vn 1.0000 -0.0000 -0.0000
vn -0.0000 -0.0000 1.0000
vn -0.0000 -1.0000 -0.0000
vn -0.0000 1.0000 -0.0000
vn 0.2169 0.9297 -0.2976
vn 0.1740 -0.0000 -0.9847
vn 0.2169 -0.9297 0.2976
vn 0.1740 -0.0000 0.9847
vn -0.2221 -0.0000 0.9750
vn -0.2753 -0.9156 0.2931
vn -0.2221 -0.0000 -0.9750
vn -0.2753 0.9156 -0.2931
vn -0.2753 0.9156 0.2931
vn -0.2753 -0.9156 -0.2931
vn 0.2169 -0.9297 -0.2976
vn 0.2169 0.9297 0.2976
vt 0.681127 0.350674
vt 0.681127 0.661741
vt 0.984080 0.661741
vt 0.984080 0.350674
vt 0.825628 0.350674
vt 0.825628 0.661741
vt 0.831839 0.661741
vt 0.831839 0.350674
vt 0.819416 0.661741
vt 0.819416 0.350674
vt 0.825628 0.509126
vt 0.831839 0.509126
vt 0.831839 0.192221
vt 0.825628 0.192221
vt 0.819416 0.509126
vt 0.819416 0.192221
vt 0.825628 0.008602
vt 0.819416 0.008602
vt 0.984080 0.008602
vt 0.681127 0.008602
vt 0.831839 0.008602
vt 0.322560 0.956421
vt 0.322560 0.942479
vt 0.373986 0.926017
vt 0.384548 0.936580
vt 0.373986 0.823164
vt 0.384548 0.812602
vt 0.322560 0.792760
vt 0.322560 0.806703
vt 0.271133 0.823164
vt 0.260571 0.812602
vt 0.271133 0.926017
vt 0.260571 0.936580
vt 0.274181 0.826212
vt 0.274181 0.922970
vt 0.322560 0.810726
vt 0.370939 0.922970
vt 0.370939 0.826212
vt 0.322560 0.938455
s 0
usemtl closet
f 141/155/19 134/156/19 136/157/19 142/158/19
f 150/159/20 146/160/20 140/161/20 143/162/20
f 143/158/21 140/157/21 138/156/21 144/155/21
f 149/159/22 148/160/22 134/163/22 141/164/22
f 145/165/23 139/166/23 137/167/23 147/168/23
f 146/165/24 136/169/24 134/170/24 148/168/24
f 147/171/22 149/159/22 141/164/22 133/172/22
f 139/173/21 143/158/21 144/155/21 137/174/21
f 145/171/20 150/159/20 143/162/20 139/175/20
f 133/174/19 141/155/19 142/158/19 135/173/19
f 135/172/20 142/164/20 150/159/20 145/171/20
f 137/175/22 144/162/22 149/159/22 147/171/22
f 140/166/24 146/165/24 148/168/24 138/167/24
f 135/169/23 145/165/23 147/168/23 133/170/23
f 144/162/22 138/161/22 148/160/22 149/159/22
f 142/164/20 136/163/20 146/160/20 150/159/20
f 168/176/25 164/177/25 154/178/25 160/179/25
f 160/179/26 154/178/26 158/180/26 161/181/26
f 167/182/27 166/183/27 156/184/27 162/185/27
f 162/185/28 156/184/28 152/186/28 159/187/28
f 166/183/21 164/177/21 152/186/21 156/184/21
f 155/188/29 162/185/29 159/187/29 151/189/29
f 165/190/30 167/182/30 162/185/30 155/188/30
f 153/191/31 160/179/31 161/181/31 157/192/31
f 163/193/32 168/176/32 160/179/32 153/191/32
f 151/189/33 159/187/33 168/176/33 163/193/33
f 157/192/34 161/181/34 167/182/34 165/190/34
f 158/180/21 154/178/21 164/177/21 166/183/21
f 161/181/35 158/180/35 166/183/35 167/182/35
f 159/187/36 152/186/36 164/177/36 168/176/36
o closet_right_door
v 0.543630 0.552964 -0.015718
v 0.543630 5.349651 -0.015718
v 0.543630 0.552964 2.206175
v 0.543630 5.349651 2.206175
v 0.630732 0.552964 -0.015718
v 0.630732 5.349651 -0.015718
v 0.630732 0.552964 2.206175
v 0.630732 5.349651 2.206175
v 0.543630 2.951308 -0.015718
v 0.543630 2.951308 2.206175
v 0.630732 2.951308 2.206175
v 0.630732 2.951308 -0.015718
v 0.587181 0.552964 2.206175
v 0.587181 5.349651 2.206175
v 0.587181 0.552964 -0.015718
v 0.587181 5.349651 -0.015718
v 0.587181 2.951308 -0.015718
v 0.587181 2.951308 2.206175
v 0.603258 3.005658 0.098923
v 0.800604 3.010691 0.093890
v 0.603258 3.005658 0.258688
v 0.800604 3.010691 0.263721
v 0.603258 2.845893 0.098923
v 0.800604 2.840861 0.093890
v 0.603258 2.845893 0.258688
v 0.800604 2.840861 0.263721
v 0.701931 3.028131 0.076451
v 0.701931 3.028131 0.281161
v 0.701931 2.823421 0.281161
v 0.701931 2.823421 0.076451
v 0.603258 3.031228 0.178805
v 0.800604 3.037871 0.178805
v 0.603258 2.820323 0.178805
v 0.800604 2.813680 0.178805
v 0.701931 2.790658 0.178805
v 0.701931 3.060893 0.178805
vn -1.0000 -0.0000 -0.0000
vn -0.0000 -0.0000 1.0000
vn 1.0000 -0.0000 -0.0000
vn -0.0000 -0.0000 -1.0000
vn -0.0000 -1.0000 -0.0000
vn -0.0000 1.0000 -0.0000
vn 0.2169 0.9297 0.2976
vn 0.1740 -0.0000 0.9847
vn 0.2169 -0.9297 -0.2976
vn 0.1740 -0.0000 -0.9847
vn -0.2221 -0.0000 -0.9750
vn -0.2753 -0.9156 -0.2931
vn -0.2221 -0.0000 0.9750
vn -0.2753 0.9156 0.2931
vn -0.2753 0.9156 -0.2931
vn -0.2753 -0.9156 0.2931
vn 0.2169 -0.9297 0.2976
vn 0.2169 0.9297 -0.2976
vt 0.717300 0.725883
vt 0.717300 0.991179
vt 0.985062 0.991179
vt 0.985062 0.725883
vt 0.717300 0.858531
vt 0.717300 0.853331
vt 0.985062 0.853331
vt 0.985062 0.858531
vt 0.717300 0.863731
vt 0.985062 0.863731
vt 0.584652 0.858531
vt 0.849948 0.858531
vt 0.849948 0.853331
vt 0.584652 0.853331
vt 0.849948 0.863731
vt 0.584652 0.863731
vt 0.430936 0.858531
vt 0.430936 0.863731
vt 0.430936 0.991179
vt 0.430936 0.725883
vt 0.430936 0.853331
vt 0.322560 0.956421
vt 0.384548 0.936580
vt 0.373986 0.926017
vt 0.322560 0.942479
vt 0.384548 0.812602
vt 0.373986 0.823164
vt 0.322560 0.792760
vt 0.260571 0.812602
vt 0.271133 0.823164
vt 0.322560 0.806703
vt 0.260571 0.936580
vt 0.271133 0.926017
vt 0.274181 0.826212
vt 0.274181 0.922970
vt 0.322560 0.810726
vt 0.370939 0.922970
vt 0.370939 0.826212
vt 0.322560 0.938455
s 0
usemtl closet
f 177/194/37 178/195/37 172/196/37 170/197/37
f 186/198/38 179/199/38 176/200/38 182/201/38
f 179/195/39 180/194/39 174/197/39 176/196/39
f 185/198/40 177/202/40 170/203/40 184/201/40
f 181/204/41 183/205/41 173/206/41 175/207/41
f 182/204/42 184/205/42 170/208/42 172/209/42
f 183/210/40 169/211/40 177/202/40 185/198/40
f 175/212/39 173/213/39 180/194/39 179/195/39
f 181/210/38 175/214/38 179/199/38 186/198/38
f 169/213/37 171/212/37 178/195/37 177/194/37
f 171/211/38 181/210/38 186/198/38 178/202/38
f 173/214/40 183/210/40 185/198/40 180/199/40
f 176/207/42 174/206/42 184/205/42 182/204/42
f 171/209/41 169/208/41 183/205/41 181/204/41
f 180/199/40 185/198/40 184/201/40 174/200/40
f 178/202/38 186/198/38 182/201/38 172/203/38
f 204/215/43 196/216/43 190/217/43 200/218/43
f 196/216/44 197/219/44 194/220/44 190/217/44
f 203/221/45 198/222/45 192/223/45 202/224/45
f 198/222/46 195/225/46 188/226/46 192/223/46
f 202/224/39 192/223/39 188/226/39 200/218/39
f 191/227/47 187/228/47 195/225/47 198/222/47
f 201/229/48 191/227/48 198/222/48 203/221/48
f 189/230/49 193/231/49 197/219/49 196/216/49
f 199/232/50 189/230/50 196/216/50 204/215/50
f 187/228/51 199/232/51 204/215/51 195/225/51
f 193/231/52 201/229/52 203/221/52 197/219/52
f 194/220/39 202/224/39 200/218/39 190/217/39
f 197/219/53 203/221/53 202/224/53 194/220/53
f 195/225/54 204/215/54 200/218/54 188/226/54
