# Blender 4.5.0
# www.blender.org
mtllib geometry_map_stair.mtl
o Stair
v -11.069380 6.107093 -7.371861
v -11.069380 6.258623 -7.371861
v -11.069380 6.107093 -8.371861
v -11.069380 6.258623 -8.371861
v -7.469380 6.107093 -7.371861
v -7.469380 6.258623 -7.371861
v -7.469380 6.107093 -8.371861
v -7.469380 6.258623 -8.371861
v -11.069380 6.258623 -9.371861
v -7.469380 6.258623 -9.371861
v -11.069380 6.558623 -8.371861
v -7.469380 6.558623 -8.371861
v -11.069380 6.558623 -9.371861
v -7.469380 6.558623 -9.371861
v -11.069380 6.558623 -10.371861
v -7.469380 6.558623 -10.371861
v -11.069380 6.858624 -9.371861
v -7.469380 6.858624 -9.371861
v -11.069380 6.858624 -10.371861
v -7.469380 6.858624 -10.371861
v -11.069380 6.858624 -11.371861
v -7.469380 6.858624 -11.371861
v -11.069380 7.158624 -10.371861
v -7.469380 7.158624 -10.371861
v -11.069380 7.158624 -11.371861
v -7.469380 7.158624 -11.371861
v -11.069380 7.158624 -12.371861
v -7.469380 7.158624 -12.371861
v -11.069380 7.458624 -11.371861
v -7.469380 7.458624 -11.371861
v -11.069380 7.458624 -12.371861
v -7.469380 7.458624 -12.371861
v -11.069380 7.458624 -13.371861
v -7.469380 7.458624 -13.371861
v -11.069380 7.758623 -12.371861
v -7.469380 7.758623 -12.371861
v -11.069380 7.758623 -13.371861
v -7.469380 7.758623 -13.371861
v -11.069380 7.758623 -14.371861
v -7.469380 7.758623 -14.371861
v -11.069380 8.058623 -13.371861
v -7.469380 8.058623 -13.371861
v -11.069380 8.058623 -14.371861
v -7.469380 8.058623 -14.371861
v -11.069380 8.058622 -15.371861
v -7.469380 8.058622 -15.371861
v -11.069380 8.358624 -14.371861
v -7.469380 8.358624 -14.371861
v -11.069380 8.358624 -15.371861
v -7.469380 8.358624 -15.371861
v -11.069380 8.358624 -16.371861
v -7.469380 8.358624 -16.371861
v -11.069380 8.658624 -15.371861
v -7.469380 8.658624 -15.371861
v -11.069380 8.658623 -16.371861
v -7.469380 8.658623 -16.371861
v -11.069380 8.658623 -17.371861
v -7.469380 8.658623 -17.371861
v -11.069380 8.958622 -16.371861
v -7.469380 8.958622 -16.371861
v -11.069380 8.958622 -17.371861
v -7.469380 8.958622 -17.371861
v -11.069380 8.958622 -18.371861
v -7.469380 8.958622 -18.371861
v -11.069380 9.258623 -17.371861
v -7.469380 9.258623 -17.371861
v -11.069380 9.258622 -18.371861
v -7.469380 9.258622 -18.371861
v -11.069380 9.258622 -19.371861
v -7.469380 9.258622 -19.371861
v -11.069380 9.558622 -18.371861
v -7.469380 9.558622 -18.371861
v -11.069380 9.558622 -19.371861
v -7.469380 9.558622 -19.371861
v -11.069380 9.258622 -22.882034
v -7.469380 9.258622 -22.882034
v -11.069380 9.558622 -22.882034
v -7.469380 9.558622 -22.882034
v -1.778153 9.258622 -19.371861
v -1.778153 9.558622 -19.371861
v -1.778153 9.258622 -22.882034
v -1.778153 9.558622 -22.882034
v 1.826388 9.258622 -19.371861
v 1.826388 9.558622 -19.371861
v 1.826388 9.258622 -22.882034
v 1.826388 9.558622 -22.882034
v -1.778153 9.558622 -18.371861
v 1.826388 9.558622 -18.371861
v -1.778153 9.858623 -19.371861
v 1.826388 9.858623 -19.371861
v -1.778153 9.858623 -18.371861
v 1.826388 9.858623 -18.371861
v -1.778153 9.858624 -17.371861
v 1.826388 9.858624 -17.371861
v -1.778153 10.158623 -18.371861
v 1.826388 10.158623 -18.371861
v -1.778153 10.158623 -17.371861
v 1.826388 10.158623 -17.371861
v -1.778153 10.158623 -16.371861
v 1.826388 10.158623 -16.371861
v -1.778153 10.458622 -17.371861
v 1.826388 10.458622 -17.371861
v -1.778153 10.458622 -16.371861
v 1.826388 10.458622 -16.371861
v -1.778153 10.458623 -15.371861
v 1.826388 10.458623 -15.371861
v -1.774129 10.465759 -16.372746
v 1.830411 10.465759 -16.372746
v -1.774129 10.465760 -15.372745
v 1.830411 10.465760 -15.372745
v -1.774129 10.765760 -16.372746
v 1.830411 10.765760 -16.372746
v -1.774129 10.765760 -15.372745
v 1.830411 10.765760 -15.372745
v -1.774129 10.765761 -14.372745
v 1.830411 10.765761 -14.372745
v -1.774129 11.065760 -15.372745
v 1.830411 11.065760 -15.372745
v -1.774129 11.065761 -14.372745
v 1.830411 11.065761 -14.372745
v -1.774129 11.065761 -13.372745
v 1.830411 11.065761 -13.372745
v -1.774129 11.365761 -14.372745
v 1.830411 11.365761 -14.372745
v -1.774129 11.365761 -13.372745
v 1.830411 11.365761 -13.372745
v -1.774129 11.365761 -12.372745
v 1.830411 11.365761 -12.372745
v -1.774129 11.665761 -13.372745
v 1.830411 11.665761 -13.372745
v -1.774129 11.665761 -12.372745
v 1.830411 11.665761 -12.372745
v -1.774129 11.665761 -11.372745
v 1.830411 11.665761 -11.372745
v -1.774129 11.965760 -12.372745
v 1.830411 11.965760 -12.372745
v -1.774129 11.965760 -11.372745
v 1.830411 11.965760 -11.372745
v -1.774129 11.965760 -10.372746
v 1.830411 11.965760 -10.372746
v -1.774129 12.265761 -11.372745
v 1.830411 12.265761 -11.372745
v -1.774129 12.265761 -10.372746
v 1.830411 12.265761 -10.372746
v -1.774129 12.265761 -9.372746
v 1.830411 12.265761 -9.372746
v -1.774129 12.565761 -10.372746
v 1.830411 12.565761 -10.372746
v -1.774129 12.565761 -9.372746
v 1.830411 12.565761 -9.372746
v -1.774129 12.565761 -8.372746
v 1.830411 12.565761 -8.372746
v -1.774129 12.865761 -9.372746
v 1.830411 12.865761 -9.372746
v -1.774129 12.865761 -8.372746
v 1.830411 12.865761 -8.372746
v -1.774129 12.565761 -7.372746
v 1.830411 12.565761 -7.372746
v -1.774129 12.865761 -7.372746
v 1.830411 12.865761 -7.372746
vn -1.0000 -0.0000 -0.0000
vn -0.0000 -0.0000 1.0000
vn 1.0000 -0.0000 -0.0000
vn -0.0000 -1.0000 -0.0000
vn -0.0000 1.0000 -0.0000
vn -0.0000 -0.9887 -0.1498
vn -0.0000 -0.9578 -0.2873
vn -0.0000 -0.0000 -1.0000
vn -0.0000 -0.9578 0.2873
vn -0.8711 0.4911 -0.0000
vn -0.0000 0.1231 0.9924
vn -0.0000 -0.1231 -0.9924
vn 0.8711 -0.4910 -0.0000
vt 0.375000 0.000000
vt 0.625000 0.000000
vt 0.625000 0.250000
vt 0.375000 0.250000
vt 0.875000 0.500000
vt 0.625000 0.500000
vt 0.375000 0.500000
vt 0.625000 0.750000
vt 0.375000 0.750000
vt 0.625000 1.000000
vt 0.375000 1.000000
vt 0.125000 0.500000
vt 0.125000 0.750000
vt 0.875000 0.750000
s 1
f 1/1/1 2/2/1 4/3/1 3/4/1
f 4/5/2 8/6/2 12/6/2 11/5/2
f 7/7/3 8/6/3 6/8/3 5/9/3
f 5/9/2 6/8/2 2/10/2 1/11/2
f 3/12/4 7/7/4 5/9/4 1/13/4
f 8/6/5 4/5/5 2/14/5 6/8/5
f 3/4/1 4/3/1 9/4/1
f 8/6/3 7/7/3 10/6/3
f 7/7/6 3/12/6 9/12/6 10/7/6
f 11/5/5 12/6/5 14/6/5 13/5/5
f 8/6/3 10/6/3 14/6/3 12/6/3
f 9/3/1 13/3/1 15/3/1
f 9/3/1 4/3/1 11/3/1 13/3/1
f 10/6/7 9/3/7 15/3/7 16/6/7
f 14/6/3 16/6/3 20/6/3 18/6/3
f 14/6/3 10/6/3 16/6/3
f 17/5/5 18/6/5 20/6/5 19/5/5
f 19/5/2 20/6/2 24/6/2 23/5/2
f 13/5/2 14/6/2 18/6/2 17/5/2
f 15/3/1 13/3/1 17/3/1 19/3/1
f 15/3/1 19/3/1 21/3/1
f 16/6/7 15/3/7 21/3/7 22/6/7
f 20/6/3 16/6/3 22/6/3
f 23/5/5 24/6/5 26/6/5 25/5/5
f 20/6/3 22/6/3 26/6/3 24/6/3
f 21/3/1 19/3/1 23/3/1 25/3/1
f 21/3/1 25/3/1 27/3/1
f 28/6/7 27/3/7 33/3/7 34/6/7
f 26/6/3 22/6/3 28/6/3
f 22/6/7 21/3/7 27/3/7 28/6/7
f 29/5/5 30/6/5 32/6/5 31/5/5
f 26/6/3 28/6/3 32/6/3 30/6/3
f 25/5/2 26/6/2 30/6/2 29/5/2
f 27/3/1 25/3/1 29/3/1 31/3/1
f 27/3/1 31/3/1 33/3/1
f 32/6/3 28/6/3 34/6/3
f 32/6/3 34/6/3 38/6/3 36/6/3
f 35/5/5 36/6/5 38/6/5 37/5/5
f 37/5/2 38/6/2 42/6/2 41/5/2
f 33/3/1 31/3/1 35/3/1 37/3/1
f 31/5/2 32/6/2 36/6/2 35/5/2
f 33/3/1 37/3/1 39/3/1
f 34/6/7 33/3/7 39/3/7 40/6/7
f 38/6/3 34/6/3 40/6/3
f 41/5/5 42/6/5 44/6/5 43/5/5
f 38/6/3 40/6/3 44/6/3 42/6/3
f 39/3/1 37/3/1 41/3/1 43/3/1
f 39/3/1 43/3/1 45/3/1
f 44/6/3 46/6/3 50/6/3 48/6/3
f 44/6/3 40/6/3 46/6/3
f 40/6/7 39/3/7 45/3/7 46/6/7
f 47/5/5 48/6/5 50/6/5 49/5/5
f 43/5/2 44/6/2 48/6/2 47/5/2
f 45/3/1 43/3/1 47/3/1 49/3/1
f 45/3/1 49/3/1 51/3/1
f 52/6/7 51/3/7 57/3/7 58/6/7
f 46/6/7 45/3/7 51/3/7 52/6/7
f 50/6/3 46/6/3 52/6/3
f 53/5/5 54/6/5 56/6/5 55/5/5
f 50/6/3 52/6/3 56/6/3 54/6/3
f 49/5/2 50/6/2 54/6/2 53/5/2
f 51/3/1 49/3/1 53/3/1 55/3/1
f 51/3/1 55/3/1 57/3/1
f 56/6/3 52/6/3 58/6/3
f 56/6/3 58/6/3 62/6/3 60/6/3
f 59/5/5 60/6/5 62/6/5 61/5/5
f 63/3/1 61/3/1 65/3/1 67/3/1
f 57/3/1 55/3/1 59/3/1 61/3/1
f 55/5/2 56/6/2 60/6/2 59/5/2
f 57/3/1 61/3/1 63/3/1
f 58/6/7 57/3/7 63/3/7 64/6/7
f 62/6/3 58/6/3 64/6/3
f 65/5/5 66/6/5 68/6/5 67/5/5
f 68/6/3 64/6/3 70/6/3
f 61/5/2 62/6/2 66/6/2 65/5/2
f 62/6/3 64/6/3 68/6/3 66/6/3
f 64/6/7 63/3/7 69/3/7 70/6/7
f 63/3/1 67/3/1 69/3/1
f 69/3/1 67/3/1 71/3/1 73/3/1
f 71/5/5 72/6/5 74/6/5 73/5/5
f 68/6/3 70/6/3 74/6/3 72/6/3
f 73/5/5 74/6/5 78/6/5 77/5/5
f 67/5/2 68/6/2 72/6/2 71/5/2
f 76/6/8 75/3/8 77/3/8 78/6/8
f 78/6/5 74/6/5 80/6/5 82/6/5
f 70/6/4 69/3/4 75/3/4 76/6/4
f 69/3/1 73/3/1 77/3/1 75/3/1
f 82/6/5 80/6/5 84/6/5 86/6/5
f 74/6/2 70/6/2 79/6/2 80/6/2
f 76/6/8 78/6/8 82/6/8 81/6/8
f 70/6/4 76/6/4 81/6/4 79/6/4
f 84/6/3 83/6/3 85/6/3 86/6/3
f 83/6/3 84/6/3 88/6/3
f 79/6/4 81/6/4 85/6/4 83/6/4
f 81/6/8 82/6/8 86/6/8 85/6/8
f 80/6/1 79/6/1 87/6/1
f 79/6/9 83/6/9 88/6/9 87/6/9
f 88/6/3 84/6/3 90/6/3 92/6/3
f 90/6/5 89/6/5 91/6/5 92/6/5
f 91/6/1 87/6/1 93/6/1
f 84/6/8 80/6/8 89/6/8 90/6/8
f 80/6/1 87/6/1 91/6/1 89/6/1
f 87/6/9 88/6/9 94/6/9 93/6/9
f 88/6/3 92/6/3 94/6/3
f 92/6/8 91/6/8 95/6/8 96/6/8
f 96/6/5 95/6/5 97/6/5 98/6/5
f 94/6/3 92/6/3 96/6/3 98/6/3
f 91/6/1 93/6/1 97/6/1 95/6/1
f 97/6/1 93/6/1 99/6/1
f 97/6/1 99/6/1 103/6/1 101/6/1
f 94/6/3 98/6/3 100/6/3
f 93/6/9 94/6/9 100/6/9 99/6/9
f 102/6/5 101/6/5 103/6/5 104/6/5
f 100/6/3 104/6/3 106/6/3
f 100/6/3 98/6/3 102/6/3 104/6/3
f 98/6/8 97/6/8 101/6/8 102/6/8
f 99/6/9 100/6/9 106/6/9 105/6/9
f 103/6/1 99/6/1 105/6/1
f 103/6/10 105/6/10 109/6/10 107/6/10
f 107/6/1 109/6/1 113/6/1 111/6/1
f 105/6/11 106/6/11 110/6/11 109/6/11
f 104/6/12 103/6/12 107/6/12 108/6/12
f 106/6/13 104/6/13 108/6/13 110/6/13
f 112/6/5 111/6/5 113/6/5 114/6/5
f 110/6/3 114/6/3 116/6/3
f 110/6/3 108/6/3 112/6/3 114/6/3
f 108/6/8 107/6/8 111/6/8 112/6/8
f 109/6/9 110/6/9 116/6/9 115/6/9
f 113/6/1 109/6/1 115/6/1
f 113/6/1 115/6/1 119/6/1 117/6/1
f 118/6/5 117/6/5 119/6/5 120/6/5
f 120/6/8 119/6/8 123/6/8 124/6/8
f 114/6/8 113/6/8 117/6/8 118/6/8
f 116/6/3 114/6/3 118/6/3 120/6/3
f 116/6/3 120/6/3 122/6/3
f 115/6/9 116/6/9 122/6/9 121/6/9
f 119/6/1 115/6/1 121/6/1
f 124/6/5 123/6/5 125/6/5 126/6/5
f 119/6/1 121/6/1 125/6/1 123/6/1
f 122/6/3 120/6/3 124/6/3 126/6/3
f 122/6/3 126/6/3 128/6/3
f 125/6/1 127/6/1 131/6/1 129/6/1
f 125/6/1 121/6/1 127/6/1
f 121/6/9 122/6/9 128/6/9 127/6/9
f 130/6/5 129/6/5 131/6/5 132/6/5
f 126/6/8 125/6/8 129/6/8 130/6/8
f 128/6/3 126/6/3 130/6/3 132/6/3
f 128/6/3 132/6/3 134/6/3
f 133/6/9 134/6/9 140/6/9 139/6/9
f 127/6/9 128/6/9 134/6/9 133/6/9
f 131/6/1 127/6/1 133/6/1
f 136/6/5 135/6/5 137/6/5 138/6/5
f 131/6/1 133/6/1 137/6/1 135/6/1
f 132/6/8 131/6/8 135/6/8 136/6/8
f 134/6/3 132/6/3 136/6/3 138/6/3
f 134/6/3 138/6/3 140/6/3
f 137/6/1 133/6/1 139/6/1
f 137/6/1 139/6/1 143/6/1 141/6/1
f 142/6/5 141/6/5 143/6/5 144/6/5
f 145/6/9 146/6/9 152/6/9 151/6/9
f 140/6/3 138/6/3 142/6/3 144/6/3
f 138/6/8 137/6/8 141/6/8 142/6/8
f 140/6/3 144/6/3 146/6/3
f 139/6/9 140/6/9 146/6/9 145/6/9
f 143/6/1 139/6/1 145/6/1
f 148/6/5 147/6/5 149/6/5 150/6/5
f 144/6/8 143/6/8 147/6/8 148/6/8
f 143/6/1 145/6/1 149/6/1 147/6/1
f 146/6/3 144/6/3 148/6/3 150/6/3
f 146/6/3 150/6/3 152/6/3
f 149/6/1 145/6/1 151/6/1
f 149/6/1 151/6/1 155/6/1 153/6/1
f 154/6/5 153/6/5 155/6/5 156/6/5
f 152/6/3 156/6/3 160/6/3 158/6/3
f 152/6/3 150/6/3 154/6/3 156/6/3
f 150/6/8 149/6/8 153/6/8 154/6/8
f 157/6/2 158/6/2 160/6/2 159/6/2
f 151/6/4 152/6/4 158/6/4 157/6/4
f 155/6/1 151/6/1 157/6/1 159/6/1
f 156/6/5 155/6/5 159/6/5 160/6/5
o StairRail
v -1.537560 12.692049 -7.596643
v -1.537560 14.433006 -7.596643
v -1.513139 12.692049 -7.586530
v -1.513139 14.433006 -7.586531
v -1.503026 12.692049 -7.562112
v -1.503026 14.433006 -7.562113
v -1.513139 12.692049 -7.537691
v -1.513139 14.433006 -7.537691
v -1.537560 12.692049 -7.527574
v -1.537560 14.433006 -7.527575
v -1.561979 12.692049 -7.537691
v -1.561979 14.433006 -7.537691
v -1.572093 12.692049 -7.562112
v -1.572093 14.433006 -7.562113
v -1.561979 12.692049 -7.586530
v -1.561979 14.433006 -7.586531
v -7.741721 7.107321 -6.765225
v -7.741721 7.201742 -6.736897
v -7.516367 7.107321 -6.765225
v -7.516367 7.201742 -6.736897
v -7.741721 10.872745 -19.316034
v -7.741721 10.967165 -19.287706
v -7.516367 10.872745 -19.316034
v -7.516367 10.967165 -19.287706
v -7.741721 10.872745 -19.390709
v -7.741721 10.967165 -19.390709
v -7.516367 10.872745 -19.390709
v -7.516367 10.967165 -19.390709
v -7.741721 10.872745 -19.675001
v -7.741721 10.967165 -19.675001
v -7.516367 10.872745 -19.675001
v -7.516367 10.967165 -19.675001
v -1.646354 10.966373 -19.394016
v -1.646354 10.871953 -19.394016
v -1.646354 10.966372 -19.674162
v -1.646354 10.871952 -19.674162
v -1.425281 10.871161 -19.397322
v -1.425281 10.965582 -19.397322
v -1.425276 14.410551 -7.697660
v -1.425276 14.504971 -7.725988
v -1.650630 14.410551 -7.697660
v -1.650630 14.504971 -7.725988
v -1.425276 14.410549 -7.622984
v -1.425276 14.504971 -7.622984
v -1.650630 14.410549 -7.622984
v -1.650630 14.504971 -7.622984
v -1.425276 14.410551 -7.338690
v -1.425276 14.504971 -7.338690
v -1.650630 14.410551 -7.338690
v -1.650630 14.504971 -7.338690
v -7.524923 14.504971 -7.622980
v -7.524923 14.410551 -7.622980
v -7.524923 14.504971 -7.338686
v -7.524923 14.410551 -7.338690
v -1.425281 10.871159 -19.673321
v -1.425281 10.965580 -19.673323
v -7.625289 6.082011 -6.835805
v -7.625289 7.151548 -6.835805
v -7.600869 6.082011 -6.825692
v -7.600869 7.151548 -6.825692
v -7.590755 6.082011 -6.801270
v -7.590755 7.151548 -6.801270
v -7.600869 6.082011 -6.776853
v -7.600869 7.151548 -6.776853
v -7.625289 6.082011 -6.766736
v -7.625289 7.151548 -6.766736
v -7.649708 6.082011 -6.776853
v -7.649708 7.151548 -6.776853
v -7.659822 6.082011 -6.801270
v -7.659822 7.151548 -6.801270
v -7.649708 6.082011 -6.825692
v -7.649708 7.151548 -6.825692
v -7.625289 6.541318 -8.928296
v -7.625289 7.763285 -8.928297
v -7.600869 6.541318 -8.918180
v -7.600869 7.763285 -8.918180
v -7.590755 6.541318 -8.893762
v -7.590755 7.763285 -8.893763
v -7.600869 6.541318 -8.869344
v -7.600869 7.763285 -8.869345
v -7.625289 6.541318 -8.859227
v -7.625289 7.763285 -8.859228
v -7.649708 6.541318 -8.869344
v -7.649708 7.763285 -8.869345
v -7.659822 6.541318 -8.893762
v -7.659822 7.763285 -8.893763
v -7.649708 6.541318 -8.918180
v -7.649708 7.763285 -8.918180
v -7.625289 7.119157 -11.038587
v -7.625289 8.399611 -11.038587
v -7.600869 7.119157 -11.028472
v -7.600869 8.399611 -11.028472
v -7.590755 7.119157 -11.004052
v -7.590755 8.399611 -11.004052
v -7.600869 7.119157 -10.979634
v -7.600869 8.399611 -10.979634
v -7.625289 7.119157 -10.969518
v -7.625289 8.399611 -10.969518
v -7.649708 7.119157 -10.979634
v -7.649708 8.399611 -10.979634
v -7.659822 7.119157 -11.004052
v -7.659822 8.399611 -11.004052
v -7.649708 7.119157 -11.028472
v -7.649708 8.399611 -11.028472
v -7.625289 7.686754 -12.919061
v -7.625289 8.967207 -12.919061
v -7.600869 7.686754 -12.908946
v -7.600869 8.967207 -12.908946
v -7.590755 7.686754 -12.884526
v -7.590755 8.967207 -12.884526
v -7.600869 7.686754 -12.860106
v -7.600869 8.967207 -12.860106
v -7.625289 7.686754 -12.849992
v -7.625289 8.967207 -12.849992
v -7.649708 7.686754 -12.860106
v -7.649708 8.967207 -12.860106
v -7.659822 7.686754 -12.884526
v -7.659822 8.967207 -12.884526
v -7.649708 7.686754 -12.908946
v -7.649708 8.967207 -12.908946
v -7.625289 8.303707 -14.947602
v -7.625289 9.584160 -14.947602
v -7.600869 8.303707 -14.937488
v -7.600869 9.584160 -14.937488
v -7.590755 8.303707 -14.913070
v -7.590755 9.584160 -14.913070
v -7.600869 8.303707 -14.888650
v -7.600869 9.584160 -14.888650
v -7.625289 8.303707 -14.878535
v -7.625289 9.584160 -14.878535
v -7.649708 8.303707 -14.888650
v -7.649708 9.584160 -14.888650
v -7.659822 8.303707 -14.913070
v -7.659822 9.584160 -14.913070
v -7.649708 8.303707 -14.937488
v -7.649708 9.584160 -14.937488
v -7.625289 8.930531 -16.990952
v -7.625289 10.210984 -16.990952
v -7.600869 8.930531 -16.980837
v -7.600869 10.210984 -16.980837
v -7.590755 8.930531 -16.956417
v -7.590755 10.210984 -16.956417
v -7.600869 8.930531 -16.931999
v -7.600869 10.210984 -16.931999
v -7.625289 8.930531 -16.921883
v -7.625289 10.210984 -16.921883
v -7.649708 8.930531 -16.931999
v -7.649708 10.210984 -16.931999
v -7.659822 8.930531 -16.956417
v -7.659822 10.210984 -16.956417
v -7.649708 8.930531 -16.980837
v -7.649708 10.210984 -16.980837
v -7.625289 9.510961 -18.898079
v -7.625289 10.791413 -18.898079
v -7.600869 9.510961 -18.887962
v -7.600869 10.791413 -18.887962
v -7.590755 9.510961 -18.863544
v -7.590755 10.791413 -18.863544
v -7.600869 9.510961 -18.839125
v -7.600869 10.791413 -18.839125
v -7.625289 9.510961 -18.829010
v -7.625289 10.791413 -18.829010
v -7.649708 9.510961 -18.839125
v -7.649708 10.791413 -18.839125
v -7.659822 9.510961 -18.863544
v -7.659822 10.791413 -18.863544
v -7.649708 9.510961 -18.887962
v -7.649708 10.791413 -18.887962
v -7.625289 9.503363 -19.600561
v -7.625289 10.894333 -19.600561
v -7.600869 9.503363 -19.590445
v -7.600869 10.894333 -19.590445
v -7.590755 9.503363 -19.566027
v -7.590755 10.894333 -19.566027
v -7.600869 9.503363 -19.541609
v -7.600869 10.894333 -19.541609
v -7.625289 9.503363 -19.531492
v -7.625289 10.894333 -19.531492
v -7.649708 9.503363 -19.541609
v -7.649708 10.894333 -19.541609
v -7.659822 9.503363 -19.566027
v -7.659822 10.894333 -19.566027
v -7.649708 9.503363 -19.590445
v -7.649708 10.894333 -19.590445
v -1.537560 9.503363 -19.600561
v -1.537560 10.894333 -19.600561
v -1.513139 9.503363 -19.590445
v -1.513139 10.894333 -19.590445
v -1.503025 9.503363 -19.566027
v -1.503025 10.894333 -19.566027
v -1.513139 9.503363 -19.541609
v -1.513139 10.894333 -19.541609
v -1.537560 9.503363 -19.531492
v -1.537560 10.894333 -19.531492
v -1.561979 9.503363 -19.541609
v -1.561979 10.894333 -19.541609
v -1.572093 9.503363 -19.566027
v -1.572093 10.894333 -19.566027
v -1.561979 9.503363 -19.590445
v -1.561979 10.894333 -19.590445
v -4.440989 9.503363 -19.600561
v -4.440989 10.894333 -19.600561
v -4.416570 9.503363 -19.590445
v -4.416570 10.894333 -19.590445
v -4.406455 9.503363 -19.566027
v -4.406455 10.894333 -19.566027
v -4.416570 9.503363 -19.541609
v -4.416570 10.894333 -19.541609
v -4.440989 9.503363 -19.531492
v -4.440989 10.894333 -19.531492
v -4.465409 9.503363 -19.541609
v -4.465409 10.894333 -19.541609
v -4.475524 9.503363 -19.566027
v -4.475524 10.894333 -19.566027
v -4.465409 9.503363 -19.590445
v -4.465409 10.894333 -19.590445
v -2.946639 9.503363 -19.600561
v -2.946639 10.894333 -19.600561
v -2.922220 9.503363 -19.590445
v -2.922220 10.894333 -19.590445
v -2.912105 9.503363 -19.566027
v -2.912105 10.894333 -19.566027
v -2.922220 9.503363 -19.541609
v -2.922220 10.894333 -19.541609
v -2.946639 9.503363 -19.531492
v -2.946639 10.894333 -19.531492
v -2.971060 9.503363 -19.541609
v -2.971060 10.894333 -19.541609
v -2.981175 9.503363 -19.566027
v -2.981175 10.894333 -19.566027
v -2.971060 9.503363 -19.590445
v -2.971060 10.894333 -19.590445
v -6.192877 9.503363 -19.600561
v -6.192877 10.894333 -19.600561
v -6.168456 9.503363 -19.590445
v -6.168456 10.894333 -19.590445
v -6.158342 9.503363 -19.566027
v -6.158342 10.894333 -19.566027
v -6.168456 9.503363 -19.541609
v -6.168456 10.894333 -19.541609
v -6.192877 9.503363 -19.531492
v -6.192877 10.894333 -19.531492
v -6.217296 9.503363 -19.541609
v -6.217296 10.894333 -19.541609
v -6.227410 9.503363 -19.566027
v -6.227410 10.894333 -19.566027
v -6.217296 9.503363 -19.590445
v -6.217296 10.894333 -19.590445
v -1.537560 10.085341 -17.896349
v -1.537560 11.372631 -17.896349
v -1.513139 10.085341 -17.886234
v -1.513139 11.372631 -17.886234
v -1.503025 10.085341 -17.861814
v -1.503025 11.372631 -17.861814
v -1.513139 10.085341 -17.837397
v -1.513139 11.372631 -17.837397
v -1.537560 10.085341 -17.827282
v -1.537560 11.372631 -17.827282
v -1.561979 10.085341 -17.837397
v -1.561979 11.372631 -17.837397
v -1.572093 10.085341 -17.861814
v -1.572093 11.372631 -17.861814
v -1.561979 10.085341 -17.886234
v -1.561979 11.372631 -17.886234
v -1.537560 10.697750 -15.915860
v -1.537560 11.985039 -15.915861
v -1.513139 10.697750 -15.905746
v -1.513139 11.985039 -15.905746
v -1.503025 10.697750 -15.881326
v -1.503025 11.985039 -15.881327
v -1.513139 10.697750 -15.856906
v -1.513139 11.985039 -15.856907
v -1.537560 10.697750 -15.846791
v -1.537560 11.985039 -15.846792
v -1.561979 10.697750 -15.856906
v -1.561979 11.985039 -15.856907
v -1.572093 10.697750 -15.881326
v -1.572093 11.985039 -15.881327
v -1.561979 10.697750 -15.905746
v -1.561979 11.985039 -15.905746
v -1.537560 11.303943 -13.846429
v -1.537560 12.591231 -13.846430
v -1.513139 11.303943 -13.836314
v -1.513139 12.591231 -13.836315
v -1.503025 11.303943 -13.811894
v -1.503025 12.591231 -13.811895
v -1.513139 11.303943 -13.787475
v -1.513139 12.591231 -13.787476
v -1.537560 11.303943 -13.777360
v -1.537560 12.591231 -13.777361
v -1.561979 11.303943 -13.787475
v -1.561979 12.591231 -13.787476
v -1.572093 11.303943 -13.811894
v -1.572093 12.591231 -13.811895
v -1.561979 11.303943 -13.836314
v -1.561979 12.591231 -13.836315
v -1.537560 11.916259 -11.898972
v -1.537560 13.203547 -11.898972
v -1.513139 11.916259 -11.888857
v -1.513139 13.203547 -11.888857
v -1.503025 11.916259 -11.864437
v -1.503025 13.203547 -11.864437
v -1.513139 11.916259 -11.840017
v -1.513139 13.203547 -11.840017
v -1.537560 11.916259 -11.829905
v -1.537560 13.203547 -11.829905
v -1.561979 11.916259 -11.840017
v -1.561979 13.203547 -11.840017
v -1.572093 11.916259 -11.864437
v -1.572093 13.203547 -11.864437
v -1.561979 11.916259 -11.888857
v -1.561979 13.203547 -11.888857
v -1.537560 12.491549 -9.877535
v -1.537560 13.778837 -9.877535
v -1.513139 12.491549 -9.867418
v -1.513139 13.778837 -9.867418
v -1.503025 12.491549 -9.843000
v -1.503025 13.778837 -9.843000
v -1.513139 12.491549 -9.818583
v -1.513139 13.778837 -9.818583
v -1.537560 12.491549 -9.808466
v -1.537560 13.778837 -9.808466
v -1.561979 12.491549 -9.818583
v -1.561979 13.778837 -9.818583
v -1.572093 12.491549 -9.843000
v -1.572093 13.778837 -9.843000
v -1.561979 12.491549 -9.867418
v -1.561979 13.778837 -9.867418
v -1.650630 12.828590 -7.622980
v -1.650630 12.828590 -7.338686
v -7.524923 12.828590 -7.622980
v -7.524923 12.828590 -7.338686
v -11.079370 14.504971 -7.622980
v -11.079370 14.410551 -7.622980
v -11.079370 14.504971 -7.338686
v -11.079370 14.410551 -7.338690
v -11.089776 14.410551 -7.622980
v -11.089776 14.410551 -7.338690
v -11.089776 12.828592 -7.622980
v -11.089776 12.828592 -7.338686
vn 0.3827 -0.0000 -0.9239
vn 0.9239 -0.0000 -0.3827
vn 0.9239 -0.0000 0.3826
vn 0.3827 -0.0000 0.9239
vn -0.3827 -0.0000 0.9239
vn -0.9239 -0.0000 0.3827
vn -0.9239 -0.0000 -0.3827
vn -0.3827 -0.0000 -0.9239
vn 1.0000 -0.0000 -0.0000
vn -0.0000 -0.2874 0.9578
vn -0.0000 -0.9578 -0.2874
vn -0.0000 0.9578 0.2874
vn -1.0000 -0.0000 -0.0000
vn -0.0000 -1.0000 -0.0000
vn -0.0000 1.0000 -0.0000
vn 0.0001 -0.0000 -1.0000
vn 0.0001 1.0000 -0.0000
vn -0.0001 -1.0000 -0.0000
vn -0.0000 -0.0000 -1.0000
vn 0.0006 -0.0000 1.0000
vn -1.0000 -0.0000 -0.0002
vn -1.0000 -0.0001 -0.0004
vn 0.0004 -0.9572 0.2896
vn -0.0005 0.9570 -0.2902
vn -0.0000 -0.0000 1.0000
vn 0.0038 -0.0000 -1.0000
vn -0.0036 -1.0000 -0.0000
vn 0.0036 1.0000 -0.0000
vn 0.3829 -0.0000 -0.9238
vn 0.9239 -0.0000 0.3827
vn 0.3828 -0.0000 0.9238
vn -0.3828 -0.0000 0.9238
vn -0.3826 -0.0000 -0.9239
vn 0.3828 -0.0000 -0.9238
vn -0.3828 -0.0000 -0.9238
vn 0.3826 -0.0000 0.9239
vn -0.3828 -0.0000 -0.9239
vn 0.3826 -0.0000 -0.9239
vn -0.3828 -0.0000 0.9239
vt 1.000000 0.500000
vt 1.000000 1.000000
vt 0.875000 1.000000
vt 0.875000 0.500000
vt 0.750000 1.000000
vt 0.750000 0.500000
vt 0.625000 1.000000
vt 0.625000 0.500000
vt 0.500000 1.000000
vt 0.500000 0.500000
vt 0.375000 1.000000
vt 0.375000 0.500000
vt 0.250000 1.000000
vt 0.250000 0.500000
vt 0.125000 1.000000
vt 0.125000 0.500000
vt 0.000000 1.000000
vt 0.000000 0.500000
vt 0.375000 0.549739
vt 0.625000 0.549739
vt 0.625000 0.750000
vt 0.375000 0.750000
vt 0.125000 0.549739
vt 0.125000 0.750000
vt 0.875000 0.549739
vt 0.875000 0.750000
vt 0.375000 0.000000
vt 0.625000 0.000000
vt 0.625000 0.200261
vt 0.375000 0.200261
s 1
f 161/15/14 162/16/14 164/17/14 163/18/14
f 163/18/15 164/17/15 166/19/15 165/20/15
f 165/20/16 166/19/16 168/21/16 167/22/16
f 167/22/17 168/21/17 170/23/17 169/24/17
f 169/24/18 170/23/18 172/25/18 171/26/18
f 171/26/19 172/25/19 174/27/19 173/28/19
f 173/28/20 174/27/20 176/29/20 175/30/20
f 175/30/21 176/29/21 162/31/21 161/32/21
f 183/33/22 184/34/22 180/35/22 179/36/22
f 179/36/23 180/35/23 178/21/23 177/25/23
f 181/37/24 183/33/24 179/36/24 177/38/24
f 184/34/25 182/39/25 178/40/25 180/35/25
f 177/41/26 178/42/26 182/43/26 181/44/26
f 181/44/26 182/43/26 186/43/26 185/44/26
f 183/33/27 181/37/27 185/37/27 187/33/27
f 184/34/22 183/33/22 187/33/22 188/34/22
f 182/39/28 184/34/28 188/34/28 186/39/28
f 191/33/29 192/34/29 195/34/29 196/33/29
f 186/39/28 188/34/28 192/34/30 190/39/28
f 185/44/26 186/43/26 190/43/26 189/44/26
f 187/33/27 185/37/27 189/37/27 191/33/31
f 190/43/32 192/34/29 191/33/29 189/44/32
f 193/34/22 194/33/22 196/33/22 195/34/22
f 188/34/33 187/33/33 194/33/33 193/34/33
f 192/34/30 188/34/28 193/34/30 195/34/30
f 187/33/27 191/33/31 196/33/31 194/33/31
f 201/33/34 202/34/34 193/35/35 194/36/35
f 199/37/36 201/33/36 194/36/36 197/38/36
f 202/34/37 200/39/37 198/40/37 193/35/37
f 197/41/22 198/42/22 200/43/22 199/44/22
f 199/44/22 200/43/22 204/43/22 203/44/22
f 201/33/27 199/37/27 203/37/27 205/33/27
f 202/34/34 201/33/34 205/33/26 206/34/26
f 200/39/28 202/34/28 206/34/28 204/39/28
f 209/33/38 210/34/38 213/34/38 214/33/38
f 204/39/28 206/34/28 210/34/28 208/39/28
f 203/44/22 204/43/22 208/43/22 207/44/22
f 205/33/27 203/37/27 207/37/27 209/33/27
f 208/43/38 210/34/38 209/33/38 207/44/38
f 212/33/27 214/33/27 496/33/27 494/33/27
f 206/34/32 205/33/32 212/33/32 211/34/32
f 210/34/28 206/34/28 211/34/28 213/34/28
f 205/33/22 209/33/22 490/33/22 489/33/22
f 196/36/39 195/35/39 216/21/39 215/25/39
f 198/42/22 197/41/22 215/41/22 216/42/22
f 197/38/40 194/36/40 196/36/40 215/38/40
f 193/35/41 198/40/41 216/40/41 195/35/41
f 217/15/42 218/16/42 220/17/42 219/18/42
f 219/18/15 220/17/15 222/19/15 221/20/15
f 221/20/43 222/19/43 224/21/43 223/22/43
f 223/22/44 224/21/44 226/23/44 225/24/44
f 225/24/45 226/23/45 228/25/45 227/26/45
f 227/26/19 228/25/19 230/27/19 229/28/19
f 229/28/20 230/27/20 232/29/20 231/30/20
f 231/30/46 232/29/46 218/31/46 217/32/46
f 233/15/14 234/16/14 236/17/14 235/18/14
f 235/18/15 236/17/15 238/19/15 237/20/15
f 237/20/43 238/19/43 240/21/43 239/22/43
f 239/22/44 240/21/44 242/23/44 241/24/44
f 241/24/45 242/23/45 244/25/45 243/26/45
f 243/26/19 244/25/19 246/27/19 245/28/19
f 245/28/20 246/27/20 248/29/20 247/30/20
f 247/30/21 248/29/21 234/31/21 233/32/21
f 249/15/14 250/16/14 252/17/14 251/18/14
f 251/18/15 252/17/15 254/19/15 253/20/15
f 253/20/43 254/19/43 256/21/43 255/22/43
f 255/22/44 256/21/44 258/23/44 257/24/44
f 257/24/45 258/23/45 260/25/45 259/26/45
f 259/26/19 260/25/19 262/27/19 261/28/19
f 261/28/20 262/27/20 264/29/20 263/30/20
f 263/30/21 264/29/21 250/31/21 249/32/21
f 265/15/14 266/16/14 268/17/14 267/18/14
f 267/18/15 268/17/15 270/19/15 269/20/15
f 269/20/43 270/19/43 272/21/43 271/22/43
f 271/22/17 272/21/17 274/23/17 273/24/17
f 273/24/18 274/23/18 276/25/18 275/26/18
f 275/26/19 276/25/19 278/27/19 277/28/19
f 277/28/20 278/27/20 280/29/20 279/30/20
f 279/30/21 280/29/21 266/31/21 265/32/21
f 281/15/14 282/16/14 284/17/14 283/18/14
f 283/18/15 284/17/15 286/19/15 285/20/15
f 285/20/43 286/19/43 288/21/43 287/22/43
f 287/22/17 288/21/17 290/23/17 289/24/17
f 289/24/18 290/23/18 292/25/18 291/26/18
f 291/26/19 292/25/19 294/27/19 293/28/19
f 293/28/20 294/27/20 296/29/20 295/30/20
f 295/30/21 296/29/21 282/31/21 281/32/21
f 297/15/14 298/16/14 300/17/14 299/18/14
f 299/18/15 300/17/15 302/19/15 301/20/15
f 301/20/43 302/19/43 304/21/43 303/22/43
f 303/22/44 304/21/44 306/23/44 305/24/44
f 305/24/45 306/23/45 308/25/45 307/26/45
f 307/26/19 308/25/19 310/27/19 309/28/19
f 309/28/20 310/27/20 312/29/20 311/30/20
f 311/30/21 312/29/21 298/31/21 297/32/21
f 313/15/47 314/16/47 316/17/47 315/18/47
f 315/18/15 316/17/15 318/19/15 317/20/15
f 317/20/43 318/19/43 320/21/43 319/22/43
f 319/22/17 320/21/17 322/23/17 321/24/17
f 321/24/18 322/23/18 324/25/18 323/26/18
f 323/26/19 324/25/19 326/27/19 325/28/19
f 325/28/20 326/27/20 328/29/20 327/30/20
f 327/30/48 328/29/48 314/31/48 313/32/48
f 329/15/14 330/16/14 332/17/14 331/18/14
f 331/18/15 332/17/15 334/19/15 333/20/15
f 333/20/43 334/19/43 336/21/43 335/22/43
f 335/22/17 336/21/17 338/23/17 337/24/17
f 337/24/45 338/23/45 340/25/45 339/26/45
f 339/26/19 340/25/19 342/27/19 341/28/19
f 341/28/20 342/27/20 344/29/20 343/30/20
f 343/30/48 344/29/48 330/31/48 329/32/48
f 345/15/14 346/16/14 348/17/14 347/18/14
f 347/18/15 348/17/15 350/19/15 349/20/15
f 349/20/43 350/19/43 352/21/43 351/22/43
f 351/22/17 352/21/17 354/23/17 353/24/17
f 353/24/45 354/23/45 356/25/45 355/26/45
f 355/26/19 356/25/19 358/27/19 357/28/19
f 357/28/20 358/27/20 360/29/20 359/30/20
f 359/30/48 360/29/48 346/31/48 345/32/48
f 361/15/47 362/16/47 364/17/47 363/18/47
f 363/18/15 364/17/15 366/19/15 365/20/15
f 365/20/43 366/19/43 368/21/43 367/22/43
f 367/22/44 368/21/44 370/23/44 369/24/44
f 369/24/18 370/23/18 372/25/18 371/26/18
f 371/26/19 372/25/19 374/27/19 373/28/19
f 373/28/20 374/27/20 376/29/20 375/30/20
f 375/30/21 376/29/21 362/31/21 361/32/21
f 377/15/47 378/16/47 380/17/47 379/18/47
f 379/18/15 380/17/15 382/19/15 381/20/15
f 381/20/43 382/19/43 384/21/43 383/22/43
f 383/22/44 384/21/44 386/23/44 385/24/44
f 385/24/18 386/23/18 388/25/18 387/26/18
f 387/26/19 388/25/19 390/27/19 389/28/19
f 389/28/20 390/27/20 392/29/20 391/30/20
f 391/30/21 392/29/21 378/31/21 377/32/21
f 393/15/14 394/16/14 396/17/14 395/18/14
f 395/18/15 396/17/15 398/19/15 397/20/15
f 397/20/43 398/19/43 400/21/43 399/22/43
f 399/22/17 400/21/17 402/23/17 401/24/17
f 401/24/45 402/23/45 404/25/45 403/26/45
f 403/26/19 404/25/19 406/27/19 405/28/19
f 405/28/20 406/27/20 408/29/20 407/30/20
f 407/30/48 408/29/48 394/31/48 393/32/48
f 409/15/14 410/16/14 412/17/14 411/18/14
f 411/18/15 412/17/15 414/19/15 413/20/15
f 413/20/43 414/19/43 416/21/43 415/22/43
f 415/22/49 416/21/49 418/23/49 417/24/49
f 417/24/18 418/23/18 420/25/18 419/26/18
f 419/26/19 420/25/19 422/27/19 421/28/19
f 421/28/20 422/27/20 424/29/20 423/30/20
f 423/30/50 424/29/50 410/31/50 409/32/50
f 425/15/51 426/16/51 428/17/51 427/18/51
f 427/18/15 428/17/15 430/19/15 429/20/15
f 429/20/43 430/19/43 432/21/43 431/22/43
f 431/22/49 432/21/49 434/23/49 433/24/49
f 433/24/18 434/23/18 436/25/18 435/26/18
f 435/26/19 436/25/19 438/27/19 437/28/19
f 437/28/20 438/27/20 440/29/20 439/30/20
f 439/30/21 440/29/21 426/31/21 425/32/21
f 441/15/51 442/16/51 444/17/51 443/18/51
f 443/18/15 444/17/15 446/19/15 445/20/15
f 445/20/43 446/19/43 448/21/43 447/22/43
f 447/22/49 448/21/49 450/23/49 449/24/49
f 449/24/18 450/23/18 452/25/18 451/26/18
f 451/26/19 452/25/19 454/27/19 453/28/19
f 453/28/20 454/27/20 456/29/20 455/30/20
f 455/30/21 456/29/21 442/31/21 441/32/21
f 457/15/51 458/16/51 460/17/51 459/18/51
f 459/18/15 460/17/15 462/19/15 461/20/15
f 461/20/43 462/19/43 464/21/43 463/22/43
f 463/22/49 464/21/49 466/23/49 465/24/49
f 465/24/18 466/23/18 468/25/18 467/26/18
f 467/26/19 468/25/19 470/27/19 469/28/19
f 469/28/20 470/27/20 472/29/20 471/30/20
f 471/30/21 472/29/21 458/31/21 457/32/21
f 473/15/14 474/16/14 476/17/14 475/18/14
f 475/18/15 476/17/15 478/19/15 477/20/15
f 477/20/43 478/19/43 480/21/43 479/22/43
f 479/22/17 480/21/17 482/23/17 481/24/17
f 481/24/52 482/23/52 484/25/52 483/26/52
f 483/26/19 484/25/19 486/27/19 485/28/19
f 485/28/20 486/27/20 488/29/20 487/30/20
f 487/30/50 488/29/50 474/31/50 473/32/50
f 489/33/27 490/33/27 492/33/27 491/33/27
f 209/33/38 214/33/38 492/33/38 490/33/38
f 212/33/32 205/33/32 489/33/32 491/33/32
f 492/33/38 214/33/38 498/33/38 500/33/38
f 493/34/26 494/33/26 496/33/26 495/34/26
f 211/34/32 212/33/32 494/33/32 493/34/32
f 213/34/28 211/34/28 493/34/28 495/34/28
f 214/33/38 213/34/38 495/34/38 496/33/38
f 498/33/26 497/33/26 499/33/26 500/33/26
f 214/33/28 212/33/28 497/33/28 498/33/28
f 212/33/32 491/33/32 499/33/32 497/33/32
f 491/33/27 492/33/27 500/33/27 499/33/27
