# Blender 4.5.0
# www.blender.org
mtllib geometry_map_entry_stair.mtl
o EntranceStair
v -1.733555 4.792914 16.720375
v -1.733555 4.973436 16.720375
v -1.733555 4.792914 14.720375
v -1.733555 4.973436 14.720375
v 5.580824 4.792914 16.720375
v 5.580824 4.973436 16.720375
v 5.580824 4.792914 14.720375
v 5.580824 4.973436 14.720375
v -1.733555 5.273436 16.720375
v -1.733555 5.273436 14.720375
v 5.580824 5.273436 14.720375
v 5.580824 5.273436 16.720375
v -1.733555 5.573436 16.720375
v -1.733555 5.573436 14.720375
v 5.580824 5.573436 14.720375
v 5.580824 5.573436 16.720375
v -1.733555 5.873436 16.720375
v -1.733555 5.873436 14.720375
v 5.580824 5.873436 14.720375
v 5.580824 5.873436 16.720375
v -1.733555 6.170054 16.720375
v -1.733555 6.173436 14.720375
v 5.580824 6.173436 14.720375
v 5.580824 6.170054 16.720375
v -1.733555 4.792914 17.720375
v -1.733555 4.973436 17.720375
v 5.580824 4.973436 17.720375
v 5.580824 4.792914 17.720375
v 5.580824 5.273436 17.720375
v -1.733555 5.273436 17.720375
v 5.580824 5.573436 17.720375
v -1.733555 5.573436 17.720375
v 5.580824 5.870054 17.720375
v -1.733555 5.870054 17.720375
v -1.733555 4.792914 18.720375
v -1.733555 4.973436 18.720375
v 5.580824 4.973436 18.720375
v 5.580824 4.792914 18.720375
v 5.580824 5.273436 18.720375
v -1.733555 5.273436 18.720375
v 5.580824 5.570054 18.720375
v -1.733555 5.570054 18.720375
v -1.733555 4.792914 19.720375
v -1.733555 4.973436 19.720375
v 5.580824 4.973436 19.720375
v 5.580824 4.792914 19.720375
v -1.733555 5.270054 19.720375
v -1.733555 4.792914 20.720375
v -1.733555 4.973436 20.720375
v 5.580824 4.973436 20.720375
v 5.580824 4.792914 20.720375
v 4.987225 4.792914 14.720375
v -1.139957 4.792914 14.720375
v -1.139957 4.973436 14.720375
v 4.987225 4.973436 14.720375
v -1.139957 4.792914 16.720375
v 4.987225 4.792914 16.720375
v -1.139957 5.273436 14.720375
v 4.987225 5.273436 14.720375
v -1.139957 5.573436 14.720375
v 4.987225 5.573436 14.720375
v -1.139957 5.873436 14.720375
v 4.987225 5.873436 14.720375
v 4.987225 5.873436 16.720375
v -1.139957 5.873436 16.720375
v -1.139957 6.173436 14.720375
v 4.987225 6.173436 14.720375
v 4.987225 6.170054 16.720375
v -1.139957 6.170054 16.720375
v -1.139957 4.792914 17.720375
v 4.987225 4.792914 17.720375
v 4.987225 5.573436 17.720375
v -1.139957 5.573436 17.720375
v 4.987225 5.870054 17.720375
v -1.139957 5.870054 17.720375
v -1.139957 4.792914 18.720375
v 4.987225 4.792914 18.720375
v 4.987225 5.273436 18.720375
v -1.139957 5.273436 18.720375
v 4.987225 5.570054 18.720375
v -1.139957 5.570054 18.720375
v -1.139957 4.792914 19.720375
v 4.987225 4.792914 19.720375
v 4.987225 4.973436 19.720375
v -1.139957 4.973436 19.720375
v 4.987225 5.270054 19.720375
v -1.139957 5.270054 19.720375
v -1.139957 4.792914 20.720375
v 4.987225 4.792914 20.720375
v 4.987225 4.973436 20.720375
v -1.139957 4.973436 20.720375
v 5.580824 6.166672 17.720375
v -1.733555 6.166672 17.720375
v -1.139957 6.166672 17.720375
v 5.580824 5.566672 19.720375
v -1.139957 5.866672 18.720375
v -1.733555 5.866672 18.720375
v 5.580824 5.866672 18.720375
v -1.139957 5.566672 19.720375
v -1.733555 5.566672 19.720375
v -1.139957 5.266672 20.720375
v -1.733555 5.266672 20.720375
v 5.580824 5.266672 20.720375
v 5.580824 5.266672 19.720375
v 4.987225 6.166672 17.720375
v 4.987225 5.866672 18.720375
v 4.987225 5.566672 19.720375
v 4.987225 5.266672 20.720375
vn -1.0000 -0.0000 -0.0000
vn -0.0000 -0.0000 -1.0000
vn 1.0000 -0.0000 -0.0000
vn -0.0000 -1.0000 -0.0000
vn -0.0000 1.0000 0.0017
vn -0.0000 1.0000 0.0025
vn -0.0000 1.0000 0.0023
vn -0.0000 -0.0000 1.0000
vn -0.0000 1.0000 -0.0000
vn -0.0000 1.0000 0.0034
vn 0.0028 1.0000 0.0017
vt 0.375000 0.000000
vt 0.625000 0.000000
vt 0.625000 0.250000
vt 0.375000 0.250000
vt 0.375000 0.416667
vt 0.625000 0.416667
vt 0.625000 0.500000
vt 0.375000 0.500000
vt 0.625000 0.750000
vt 0.375000 0.750000
vt 0.291667 0.500000
vt 0.291667 0.750000
vt 0.625000 0.333333
vt 0.625000 0.833333
vt 0.791667 0.500000
vt 0.875000 0.500000
vt 0.875000 0.750000
vt 0.791667 0.750000
vt 0.375000 0.916667
vt 0.625000 0.916667
vt 0.625000 1.000000
vt 0.375000 1.000000
vt 0.125000 0.750000
vt 0.208333 0.750000
vt 0.375000 0.833333
vt 0.708333 0.500000
vt 0.708333 0.750000
vt 0.125000 0.500000
vt 0.208333 0.500000
vt 0.375000 0.333333
s 1
f 1/1/1 2/2/1 4/3/1 3/4/1
f 52/5/2 55/6/2 8/7/2 7/8/2
f 7/8/3 8/7/3 6/9/3 5/10/3
f 12/9/3 16/9/3 31/9/3 29/9/3
f 52/11/4 7/8/4 5/10/4 57/12/4
f 6/9/3 8/7/3 11/7/3 12/9/3
f 12/9/3 11/7/3 15/7/3 16/9/3
f 4/3/1 2/2/1 9/2/1 10/3/1
f 2/2/1 1/1/1 25/1/1 26/2/1
f 54/13/2 4/3/2 10/3/2 58/13/2
f 9/2/1 2/2/1 26/2/1 30/2/1
f 10/3/1 9/2/1 13/2/1 14/3/1
f 72/14/1 80/14/1 106/14/1 74/14/1
f 58/13/2 10/3/2 14/3/2 60/13/2
f 20/9/3 19/7/3 23/7/3 24/9/3
f 60/13/2 14/3/2 18/3/2 62/13/2
f 16/9/3 15/7/3 19/7/3 20/9/3
f 14/3/1 13/2/1 17/2/1 18/3/1
f 66/15/5 22/16/5 21/17/6 69/18/7
f 18/3/1 17/2/1 21/2/1 22/3/1
f 62/13/2 18/3/2 22/3/2 66/13/2
f 30/2/1 26/2/1 36/2/1 40/2/1
f 29/9/3 31/9/3 41/9/3 39/9/3
f 28/10/3 27/9/3 37/9/3 38/10/3
f 16/9/3 20/9/3 33/9/3 31/9/3
f 5/10/3 6/9/3 27/9/3 28/10/3
f 13/2/1 9/2/1 30/2/1 32/2/1
f 17/2/1 13/2/1 32/2/1 34/2/1
f 57/12/4 5/10/4 28/10/4 71/12/4
f 6/9/3 12/9/3 29/9/3 27/9/3
f 38/10/3 37/9/3 45/9/3 46/10/3
f 37/9/3 39/9/3 104/9/3 45/9/3
f 71/12/4 28/10/4 38/10/4 77/12/4
f 26/2/1 25/1/1 35/1/1 36/2/1
f 32/2/1 30/2/1 40/2/1 42/2/1
f 27/9/3 29/9/3 39/9/3 37/9/3
f 44/2/1 43/1/1 48/1/1 49/2/1
f 40/2/1 36/2/1 44/2/1 47/2/1
f 50/9/3 45/9/3 104/9/3 103/9/3
f 77/12/4 38/10/4 46/10/4 83/12/4
f 36/2/1 35/1/1 43/1/1 44/2/1
f 88/19/8 91/20/8 49/21/8 48/22/8
f 42/21/8 81/20/8 96/20/8 97/21/8
f 46/10/3 45/9/3 50/9/3 51/10/3
f 83/12/4 46/10/4 51/10/4 89/12/4
f 43/23/4 82/24/4 88/24/4 48/23/4
f 82/24/4 83/12/4 89/12/4 88/24/4
f 90/14/8 50/9/8 103/9/8 108/14/8
f 84/14/9 85/20/9 91/20/9 90/14/9
f 51/10/8 50/9/8 90/14/8 89/25/8
f 89/25/8 90/14/8 91/20/8 88/19/8
f 35/23/4 76/24/4 82/24/4 43/23/4
f 76/24/4 77/12/4 83/12/4 82/24/4
f 47/21/8 87/20/8 99/20/8 100/21/8
f 78/14/10 79/20/10 87/20/10 86/14/10
f 85/20/8 84/14/8 86/14/8 87/20/8
f 44/2/1 49/2/1 102/2/1 47/2/1
f 72/14/10 73/20/10 81/20/10 80/14/10
f 25/23/4 70/24/4 76/24/4 35/23/4
f 70/24/4 71/12/4 77/12/4 76/24/4
f 79/20/8 78/14/8 80/14/8 81/20/8
f 1/23/4 56/24/4 70/24/4 25/23/4
f 56/24/4 57/12/4 71/12/4 70/24/4
f 73/20/8 72/14/8 74/14/8 75/20/8
f 19/7/2 63/6/2 67/6/2 23/7/2
f 63/6/2 62/13/2 66/13/2 67/6/2
f 65/20/8 64/14/8 68/14/8 69/20/8
f 23/7/5 67/26/5 68/27/7 24/9/6
f 67/26/5 66/15/5 69/18/7 68/27/7
f 15/7/2 61/6/2 63/6/2 19/7/2
f 61/6/2 60/13/2 62/13/2 63/6/2
f 11/7/2 59/6/2 61/6/2 15/7/2
f 59/6/2 58/13/2 60/13/2 61/6/2
f 64/14/10 65/20/10 75/20/10 74/14/10
f 8/7/2 55/6/2 59/6/2 11/7/2
f 55/6/2 54/13/2 58/13/2 59/6/2
f 3/28/4 53/29/4 56/24/4 1/23/4
f 53/29/4 52/11/4 57/12/4 56/24/4
f 3/4/2 4/3/2 54/13/2 53/30/2
f 53/30/2 54/13/2 55/6/2 52/5/2
f 69/20/7 21/21/6 93/21/10 94/20/10
f 75/20/10 34/21/10 97/21/10 96/20/10
f 81/20/10 42/21/10 100/21/10 99/20/10
f 87/20/10 47/21/10 102/21/10 101/20/10
f 104/9/11 86/14/11 108/14/11 103/9/11
f 41/9/10 80/14/10 107/14/10 95/9/10
f 33/9/10 74/14/10 106/14/10 98/9/10
f 24/9/6 68/14/7 105/14/10 92/9/10
f 81/20/3 73/20/3 75/20/3 96/20/3
f 41/9/3 31/9/3 33/9/3 98/9/3
f 80/14/8 41/9/8 98/9/8 106/14/8
f 84/14/1 90/14/1 108/14/1 86/14/1
f 91/20/3 85/20/3 87/20/3 101/20/3
f 40/2/1 47/2/1 100/2/1 42/2/1
f 17/2/1 34/2/1 93/2/1 21/2/1
f 64/14/1 74/14/1 105/14/1 68/14/1
f 32/2/1 42/2/1 97/2/1 34/2/1
f 75/20/3 65/20/3 69/20/3 94/20/3
f 86/14/8 104/9/8 95/9/8 107/14/8
f 104/9/3 39/9/3 41/9/3 95/9/3
f 34/21/8 75/20/8 94/20/8 93/21/8
f 78/14/1 86/14/1 107/14/1 80/14/1
f 49/21/8 91/20/8 101/20/8 102/21/8
f 74/14/8 33/9/8 92/9/8 105/14/8
f 87/20/3 79/20/3 81/20/3 99/20/3
f 33/9/3 20/9/3 24/9/3 92/9/3
