# Blender 4.5.0
# www.blender.org
mtllib geometry_map_ground_1.mtl
o Roof1
v 6.456470 12.715197 14.875273
v 27.102755 12.715195 5.122286
v 29.570971 12.715195 5.122286
v 29.570971 12.715193 -17.661249
v 26.370428 12.715193 -17.661249
v 9.789886 12.561795 -17.445810
v -28.057867 12.715196 14.919058
v -28.057867 12.715194 -1.255362
v -32.487995 12.715194 -1.255362
v 2.145772 12.561795 -17.445810
v 1.784757 12.561795 -17.134607
v 1.784757 12.561796 -7.610216
v 1.784757 12.561795 -22.810852
v 2.145772 12.561795 -23.080788
v -11.046738 12.561795 -22.810852
v -11.353065 12.561795 -23.080788
v -11.353065 12.561795 -21.793690
v -11.018384 12.561796 -7.610216
v -32.527981 12.715194 -5.023428
v -17.060574 12.561795 -21.793690
v -28.195999 12.561795 -21.793690
v -32.325153 12.561795 -21.764074
v -28.195999 12.561795 -21.613182
v -21.819414 12.561795 -21.613182
v -23.453045 12.561795 -21.793690
v -23.453045 12.561795 -21.613182
v 6.456470 13.262149 14.875273
v 27.102755 13.262148 5.122286
v 29.570971 13.262148 5.122286
v 29.570971 13.262146 -17.661249
v 26.370428 13.262146 -17.661249
v 9.789886 13.108748 -17.445810
v -28.057867 13.262149 14.919058
v -28.057867 13.262147 -1.255362
v -32.487995 13.262147 -1.255362
v 2.145772 13.108748 -17.445810
v 1.784757 13.108748 -17.134607
v 1.784757 13.108749 -7.610216
v 1.784757 13.108748 -22.810852
v 2.145772 13.108748 -23.080788
v -11.046738 13.108748 -22.810852
v -11.353065 13.108748 -23.080788
v -11.353065 13.108748 -21.793690
v -11.044187 13.108749 -7.610216
v -32.527981 13.262147 -5.023428
v -17.060574 13.108748 -21.793690
v -28.195999 13.108748 -21.793690
v -32.325153 13.108748 -21.764074
v -28.195999 13.108748 -21.613182
v -21.819414 13.108748 -21.613182
v -23.453045 13.108748 -21.793690
v -23.453045 13.108748 -21.613182
v 27.102755 12.715197 14.831488
v 27.102755 13.262149 14.831488
v 6.456470 12.715197 16.695007
v 6.456470 13.262149 16.695007
v 27.102755 12.715197 16.651222
v 27.102755 13.262149 16.651222
vn -0.0000 -1.0000 -0.0000
vn -0.0010 -1.0000 0.0075
vn 0.0032 -1.0000 0.0048
vn -0.0024 -1.0000 0.0084
vn -0.0019 -1.0000 0.0022
vn 0.0009 -1.0000 0.0069
vn -0.0053 -1.0000 0.0063
vn -0.0043 -1.0000 0.0053
vn -0.0013 -1.0000 0.0069
vn 0.0023 -1.0000 0.0073
vn -0.5236 -0.6716 0.5243
vn 0.7071 -0.7071 -0.0000
vn 0.0076 -1.0000 0.0001
vn 0.0092 -1.0000 -0.0013
vn -0.0030 -1.0000 0.0023
vn -0.0000 1.0000 -0.0000
vn 0.0010 1.0000 -0.0076
vn -0.0032 1.0000 -0.0048
vn 0.0060 1.0000 -0.0074
vn 0.0053 1.0000 -0.0063
vn -0.0008 1.0000 -0.0069
vn 0.0042 1.0000 -0.0058
vn -0.3056 0.9043 0.2982
vn -0.0024 1.0000 -0.0019
vn -0.0017 1.0000 -0.0027
vn 0.7071 0.7071 -0.0000
vn -0.0004 1.0000 0.0001
vn -0.0020 1.0000 0.0003
vn -0.0000 1.0000 -0.0068
vn -0.0092 1.0000 0.0013
vn -0.0000 -0.0000 -1.0000
vn 1.0000 -0.0000 -0.0000
vn -1.0000 -0.0000 -0.0000
vn -0.0072 -0.0000 -1.0000
vn -0.0000 -0.0000 1.0000
vn -0.9999 -0.0000 0.0106
vn 0.0013 -0.0000 1.0000
vn 0.9997 0.0236 -0.0010
vn 0.0003 1.0000 -0.0091
vn 0.0062 1.0000 -0.0076
vn -0.0003 -1.0000 0.0091
vn 0.7066 0.7076 -0.0000
vn 0.7066 -0.7076 -0.0000
vn -0.7076 -0.7066 -0.0000
vn -0.7053 0.7089 0.0008
vt 0.000000 0.000000
s 1
f 15/1/1 18/1/1 16/1/1
f 15/1/1 16/1/1 14/1/1 13/1/1
f 12/1/2 11/1/1 13/1/1 14/1/1 10/1/3
f 26/1/1 25/1/1 24/1/1
f 25/1/1 20/1/1 24/1/1
f 20/1/1 17/1/1 24/1/1
f 19/1/4 18/1/5 8/1/6 9/1/7
f 7/1/1 8/1/6 1/1/8
f 18/1/5 12/1/2 1/1/8
f 8/1/6 18/1/5 1/1/8
f 3/1/9 2/1/10 12/1/2
f 12/1/2 2/1/10 1/1/8
f 1/1/11 2/1/1 53/1/12
f 4/1/1 3/1/1 5/1/1
f 12/1/2 10/1/3 3/1/9
f 6/1/13 3/1/9 10/1/3
f 3/1/9 6/1/13 5/1/14
f 18/1/5 24/1/1 17/1/1
f 23/1/15 24/1/1 18/1/5
f 41/1/16 42/1/16 44/1/16
f 41/1/16 39/1/16 40/1/16 42/1/16
f 38/1/17 36/1/18 40/1/16 39/1/16 37/1/16
f 52/1/16 50/1/16 51/1/16
f 51/1/16 50/1/16 46/1/16
f 46/1/16 50/1/16 43/1/16
f 45/1/19 35/1/20 34/1/21 44/1/22
f 33/1/16 27/1/23 34/1/21
f 44/1/22 27/1/23 38/1/17
f 34/1/21 27/1/23 44/1/22
f 29/1/24 38/1/17 28/1/25
f 38/1/17 27/1/23 28/1/25
f 27/1/23 54/1/26 28/1/25
f 30/1/16 31/1/27 29/1/28
f 38/1/17 29/1/24 36/1/18
f 32/1/29 36/1/18 29/1/24
f 29/1/28 31/1/27 32/1/30
f 44/1/16 43/1/16 50/1/16
f 49/1/16 44/1/16 50/1/16
f 5/1/31 31/1/31 30/1/31 4/1/31
f 6/1/31 10/1/31 36/1/31 32/1/31
f 14/1/32 40/1/32 36/1/32 10/1/32
f 16/1/31 42/1/31 40/1/31 14/1/31
f 17/1/33 43/1/33 42/1/33 16/1/33
f 25/1/31 51/1/31 46/1/31 20/1/31
f 20/1/31 46/1/31 43/1/31 17/1/31
f 49/1/31 52/1/31 26/1/31 23/1/31
f 26/1/33 52/1/33 51/1/33 25/1/33
f 23/1/32 21/1/32 47/1/32 49/1/32
f 21/1/34 22/1/34 48/1/34 47/1/34
f 9/1/35 8/1/35 34/1/35 35/1/35
f 19/1/36 9/1/36 35/1/36 45/1/36
f 8/1/33 7/1/33 33/1/33 34/1/33
f 7/1/37 1/1/11 27/1/23 33/1/37
f 3/1/35 29/1/35 28/1/35 2/1/35
f 4/1/32 30/1/32 29/1/32 3/1/32
f 18/1/31 44/1/31 38/1/31 12/1/31
f 12/1/33 38/1/33 37/1/33 11/1/33
f 13/1/33 11/1/33 37/1/33 39/1/33
f 15/1/35 13/1/35 39/1/35 41/1/35
f 18/1/38 15/1/38 41/1/38 44/1/38
f 2/1/32 28/1/32 54/1/26 53/1/12
f 48/1/39 45/1/39 49/1/39 47/1/39
f 44/1/22 49/1/40 45/1/19
f 18/1/5 19/1/4 23/1/15
f 22/1/41 21/1/41 23/1/15 19/1/4
f 53/1/12 54/1/26 58/1/42 57/1/43
f 1/1/11 53/1/12 57/1/43 55/1/44
f 54/1/26 27/1/23 56/1/45 58/1/42
f 27/1/23 1/1/11 55/1/44 56/1/45
