# Blender 4.5.0
# www.blender.org
mtllib geometry_map_roof_1.mtl
o Roof1.001
v 6.464043 12.717209 16.695805
v 6.464043 12.717209 25.768833
v 27.110329 12.717209 25.768833
v 6.464043 13.264162 16.695805
v 6.464043 13.264162 25.768833
v 27.110329 13.264162 25.768833
v 27.110329 12.717209 16.652020
v 27.110329 13.264162 16.652020
vn -0.0000 -0.0000 1.0000
vn 1.0000 -0.0000 -0.0000
vn -1.0000 -0.0000 -0.0000
vn -0.0000 1.0000 -0.0000
vn -0.0000 -1.0000 -0.0000
vt 0.000000 0.000000
s 1
f 3/1/1 6/1/1 5/1/1 2/1/1
f 7/1/2 8/1/2 6/1/2 3/1/2
f 2/1/3 5/1/3 4/1/3 1/1/3
f 5/1/4 6/1/4 8/1/4 4/1/4
f 2/1/5 1/1/5 7/1/5 3/1/5
o Roof1.002
v 26.361385 12.717206 -17.685173
v 22.835361 12.717206 -20.451744
v 13.132810 12.717206 -20.459312
v 9.780840 12.563808 -17.469734
v 26.361385 13.264159 -17.685173
v 22.835361 13.264159 -20.451744
v 13.132810 13.264159 -20.459312
v 9.780840 13.110762 -17.469734
vn 0.0056 -0.9996 -0.0268
vn -0.0056 0.9996 0.0268
vn 0.6173 -0.0000 -0.7867
vn 0.0008 -0.0000 -1.0000
vn -0.6656 -0.0000 -0.7463
vt 0.000000 0.000000
s 1
f 10/2/6 9/2/6 12/2/6 11/2/6
f 14/2/7 15/2/7 16/2/7 13/2/7
f 10/2/8 14/2/8 13/2/8 9/2/8
f 10/2/9 11/2/9 15/2/9 14/2/9
f 12/2/10 16/2/10 15/2/10 11/2/10
o Roof1.003
v -32.537025 12.717207 -5.047351
v -32.334202 12.563808 -21.787998
v -35.718704 12.563808 -16.922071
v -35.718704 12.563809 -8.786558
v -32.537025 13.264159 -5.047351
v -32.334202 13.110761 -21.787998
v -35.718704 13.110761 -16.922071
v -35.718704 13.110762 -8.786558
vn -0.8209 -0.0000 -0.5710
vn -1.0000 -0.0000 -0.0000
vn -0.7616 -0.0000 0.6480
vn -0.0244 0.9997 -0.0064
vn 0.0244 -0.9997 0.0064
vt 0.000000 0.000000
s 1
f 18/3/11 19/3/11 23/3/11 22/3/11
f 20/3/12 24/3/12 23/3/12 19/3/12
f 20/3/13 17/3/13 21/3/13 24/3/13
f 23/3/14 24/3/14 21/3/14 22/3/14
f 19/3/15 18/3/15 17/3/15 20/3/15
