# Blender 4.5.0
# www.blender.org
mtllib geometry_map_floor.mtl
o Door
v -0.170034 6.100486 14.684569
v -0.170034 11.726612 14.684569
v -0.170034 6.100486 14.542289
v -0.170034 11.726612 14.542289
v 3.995063 6.100486 14.684569
v 3.995063 11.726612 14.684569
v 3.995063 6.100486 14.542289
v 3.995063 11.726612 14.542289
vn -1.0000 -0.0000 -0.0000
vn -0.0000 -0.0000 -1.0000
vn 1.0000 -0.0000 -0.0000
vn -0.0000 -0.0000 1.0000
vn -0.0000 -1.0000 -0.0000
vn -0.0000 1.0000 -0.0000
vt 0.375000 0.000000
vt 0.625000 0.000000
vt 0.625000 0.250000
vt 0.375000 0.250000
vt 0.625000 0.500000
vt 0.375000 0.500000
vt 0.625000 0.750000
vt 0.375000 0.750000
vt 0.625000 1.000000
vt 0.375000 1.000000
vt 0.125000 0.500000
vt 0.125000 0.750000
vt 0.875000 0.500000
vt 0.875000 0.750000
s 1
f 1/1/1 2/2/1 4/3/1 3/4/1
f 3/4/2 4/3/2 8/5/2 7/6/2
f 7/6/3 8/5/3 6/7/3 5/8/3
f 5/8/4 6/7/4 2/9/4 1/10/4
f 3/11/5 7/6/5 5/8/5 1/12/5
f 8/5/6 4/13/6 2/14/6 6/7/6
o DoorFrame
v 4.059444 6.118932 14.892833
v 4.059444 12.727455 14.892833
v 4.059444 6.118932 14.042537
v 4.059444 12.727455 14.042537
v 5.676493 6.118932 14.892833
v 5.676493 12.727455 14.892833
v 5.676493 6.118932 14.042537
v 5.676493 12.727455 14.042537
v 5.303551 6.118932 14.042537
v 4.432387 6.118932 14.042537
v 4.432387 12.727455 14.042537
v 5.303551 12.727455 14.042537
v 4.432387 6.118932 14.892833
v 5.303551 6.118932 14.892833
v 5.303551 12.727455 14.892833
v 4.432387 12.727455 14.892833
v 4.059444 6.618819 14.892833
v 4.059444 12.227572 14.892833
v 4.059444 12.227572 14.042537
v 4.059444 6.618819 14.042537
v 5.676493 12.227572 14.042537
v 5.676493 6.618819 14.042537
v 5.676493 12.227572 14.892833
v 5.676493 6.618819 14.892833
v 5.303551 12.227572 14.892833
v 5.303551 6.618819 14.892833
v 4.432387 12.227572 14.892833
v 4.432387 6.618819 14.892833
v 4.432387 12.227572 14.042537
v 4.432387 6.618819 14.042537
v 5.303551 12.227572 14.042537
v 5.303551 6.618819 14.042537
v 5.303551 12.227572 14.692836
v 5.303551 6.618819 14.692836
v 4.432387 12.227572 14.692836
v 4.432387 6.618819 14.692836
v 4.432387 12.227572 14.242534
v 4.432387 6.618819 14.242534
v 5.303551 12.227572 14.242534
v 5.303551 6.618819 14.242534
v 4.059444 11.718448 14.892833
v 4.059444 11.718447 14.042537
v 5.676493 11.718447 14.042537
v 5.676493 11.718447 14.892833
v 5.303551 11.718447 14.892833
v 4.432387 11.718447 14.892833
v 4.432387 11.718447 14.042537
v 5.303551 11.718447 14.042537
v 5.303551 11.718447 14.692836
v 4.432387 11.718447 14.692836
v 4.432387 11.718447 14.242534
v 5.303551 11.718447 14.242534
v -1.745458 6.118932 14.892833
v -1.745458 12.727455 14.892833
v -1.745458 6.118932 14.042537
v -1.745458 12.727455 14.042537
v -0.128409 6.118932 14.892833
v -0.128409 12.727455 14.892833
v -0.128409 6.118932 14.042537
v -0.128409 12.727455 14.042537
v -0.501351 6.118932 14.042537
v -1.372516 6.118932 14.042537
v -1.372515 12.727455 14.042537
v -0.501351 12.727455 14.042537
v -1.372515 6.118932 14.892833
v -0.501351 6.118932 14.892833
v -0.501351 12.727455 14.892833
v -1.372516 12.727455 14.892833
v -1.745458 6.618819 14.892833
v -1.745458 12.227572 14.892833
v -1.745458 12.227572 14.042537
v -1.745458 6.618819 14.042537
v -0.128409 12.227572 14.042537
v -0.128409 6.618819 14.042537
v -0.128409 12.227572 14.892833
v -0.128409 6.618819 14.892833
v -0.501351 12.227572 14.892833
v -0.501351 6.618819 14.892833
v -1.372515 12.227572 14.892833
v -1.372515 6.618819 14.892833
v -1.372515 12.227572 14.042537
v -1.372516 6.618819 14.042537
v -0.501351 12.227572 14.042537
v -0.501351 6.618819 14.042537
v -0.501351 12.227572 14.692836
v -0.501351 6.618819 14.692836
v -1.372515 12.227572 14.692836
v -1.372515 6.618819 14.692836
v -1.372515 12.227572 14.242534
v -1.372516 6.618819 14.242534
v -0.501351 12.227572 14.242534
v -0.501351 6.618819 14.242534
v -1.745458 11.718448 14.892833
v -1.745458 11.718447 14.042537
v -0.128409 11.718447 14.042537
v -0.128409 11.718447 14.892833
v -0.501351 11.718447 14.892833
v -1.372515 11.718447 14.892833
v -1.372515 11.718447 14.042537
v -0.501351 11.718447 14.042537
v -0.501351 11.718447 14.692836
v -1.372515 11.718447 14.692836
v -1.372515 11.718447 14.242534
v -0.501351 11.718447 14.242534
vn -0.0000 -0.0000 -1.0000
vn 1.0000 -0.0000 -0.0000
vn -0.0000 -0.0000 1.0000
vn -0.0000 -1.0000 -0.0000
vn -1.0000 -0.0000 -0.0000
vn -0.0000 1.0000 -0.0000
vt 0.541667 0.416667
vt 0.625000 0.416667
vt 0.625000 0.500000
vt 0.541667 0.500000
vt 0.625000 0.750000
vt 0.541667 0.750000
vt 0.541667 0.916667
vt 0.625000 0.916667
vt 0.625000 1.000000
vt 0.541667 1.000000
vt 0.625000 0.833333
vt 0.541667 0.833333
vt 0.541667 0.250000
vt 0.625000 0.250000
vt 0.625000 0.333333
vt 0.541667 0.333333
vt 0.375000 0.333333
vt 0.458333 0.333333
vt 0.458333 0.416667
vt 0.375000 0.416667
vt 0.375000 0.250000
vt 0.458333 0.250000
vt 0.534102 0.250000
vt 0.534102 0.333333
vt 0.375000 0.833333
vt 0.458333 0.833333
vt 0.458333 0.916667
vt 0.375000 0.916667
vt 0.375000 0.750000
vt 0.458333 0.750000
vt 0.534102 0.750000
vt 0.534102 0.833333
vt 0.458333 1.000000
vt 0.375000 1.000000
vt 0.534102 0.916667
vt 0.534102 1.000000
vt 0.375000 0.500000
vt 0.458333 0.500000
vt 0.534102 0.500000
vt 0.534102 0.416667
vt 0.375000 0.000000
vt 0.458333 0.000000
vt 0.534102 0.000000
vt 0.541667 0.000000
vt 0.625000 0.000000
vt 0.000000 0.000000
s 1
f 39/15/7 20/16/7 16/17/7 29/18/7
f 29/18/8 16/17/8 14/19/8 31/20/8
f 35/21/9 24/22/9 10/23/9 26/24/9
f 31/20/9 14/19/9 23/25/9 33/26/9
f 33/26/9 23/25/9 24/22/9 35/21/9
f 27/27/7 12/28/7 19/29/7 37/30/7
f 37/30/7 19/29/7 20/16/7 39/15/7
f 18/31/7 38/32/7 40/33/7 17/34/7
f 37/30/10 39/15/10 47/15/10 45/30/10
f 11/35/7 28/36/7 38/32/7 18/31/7
f 50/37/7 27/27/7 37/30/7 55/38/7
f 22/39/9 34/40/9 36/41/9 21/42/9
f 33/26/10 35/21/10 43/21/10 41/26/10
f 13/43/9 32/44/9 34/40/9 22/39/9
f 52/45/9 31/20/9 33/26/9 53/46/9
f 21/42/9 36/41/9 25/47/9 9/48/9
f 54/49/9 35/21/9 26/24/9 49/50/9
f 15/51/8 30/52/8 32/44/8 13/43/8
f 51/53/8 29/18/8 31/20/8 52/45/8
f 17/34/7 40/33/7 30/52/7 15/51/7
f 56/54/7 39/15/7 29/18/7 51/53/7
f 9/55/11 25/56/11 28/36/11 11/35/11
f 57/46/9 41/26/9 43/21/9 58/49/9
f 54/49/8 36/41/8 44/41/8 58/49/8
f 53/46/11 33/26/11 41/26/11 57/46/11
f 36/41/12 34/40/12 42/40/12 44/41/12
f 59/38/7 45/30/7 47/15/7 60/54/7
f 56/54/11 40/33/11 48/33/11 60/54/11
f 55/38/8 37/30/8 45/30/8 59/38/8
f 40/33/12 38/32/12 46/32/12 48/33/12
f 38/32/8 55/38/8 59/38/8 46/32/8
f 39/15/11 56/54/11 60/54/11 47/15/11
f 46/32/7 59/38/7 60/54/7 48/33/7
f 34/40/11 53/46/11 57/46/11 42/40/11
f 35/21/8 54/49/8 58/49/8 43/21/8
f 42/40/9 57/46/9 58/49/9 44/41/9
f 25/56/11 49/57/11 50/37/11 28/36/11
f 40/33/7 56/54/7 51/53/7 30/52/7
f 30/52/8 51/53/8 52/45/8 32/44/8
f 36/41/9 54/49/9 49/50/9 25/47/9
f 32/44/9 52/45/9 53/46/9 34/40/9
f 28/36/7 50/37/7 55/38/7 38/32/7
f 78/58/11 62/59/11 64/28/11 79/27/11
f 91/15/7 72/16/7 68/17/7 81/18/7
f 87/21/9 76/22/9 62/23/9 78/24/9
f 83/20/9 66/19/9 75/25/9 85/26/9
f 85/26/9 75/25/9 76/22/9 87/21/9
f 79/27/7 64/28/7 71/29/7 89/30/7
f 89/30/7 71/29/7 72/16/7 91/15/7
f 70/31/7 90/32/7 92/33/7 69/34/7
f 89/30/10 91/15/10 99/15/10 97/30/10
f 63/35/7 80/36/7 90/32/7 70/31/7
f 102/37/7 79/27/7 89/30/7 107/38/7
f 74/39/9 86/40/9 88/41/9 73/42/9
f 85/26/10 87/21/10 95/21/10 93/26/10
f 65/43/9 84/44/9 86/40/9 74/39/9
f 104/45/9 83/20/9 85/26/9 105/46/9
f 73/42/9 88/41/9 77/47/9 61/48/9
f 106/49/9 87/21/9 78/24/9 101/50/9
f 67/51/8 82/52/8 84/44/8 65/43/8
f 69/34/7 92/33/7 82/52/7 67/51/7
f 108/54/7 91/15/7 81/18/7 103/53/7
f 61/55/11 77/56/11 80/36/11 63/35/11
f 101/57/11 78/58/11 79/27/11 102/37/11
f 109/46/9 93/26/9 95/21/9 110/49/9
f 106/49/8 88/41/8 96/41/8 110/49/8
f 105/46/11 85/26/11 93/26/11 109/46/11
f 88/41/12 86/40/12 94/40/12 96/41/12
f 111/38/7 97/30/7 99/15/7 112/54/7
f 108/54/11 92/33/11 100/33/11 112/54/11
f 107/38/8 89/30/8 97/30/8 111/38/8
f 92/33/12 90/32/12 98/32/12 100/33/12
f 90/32/8 107/38/8 111/38/8 98/32/8
f 91/15/11 108/54/11 112/54/11 99/15/11
f 98/32/7 111/38/7 112/54/7 100/33/7
f 86/40/11 105/46/11 109/46/11 94/40/11
f 87/21/8 106/49/8 110/49/8 95/21/8
f 94/40/9 109/46/9 110/49/9 96/41/9
f 77/56/11 101/57/11 102/37/11 80/36/11
f 92/33/7 108/54/7 103/53/7 82/52/7
f 82/52/8 103/53/8 104/45/8 84/44/8
f 88/41/9 106/49/9 101/50/9 77/47/9
f 84/44/9 104/45/9 105/46/9 86/40/9
f 80/36/7 102/37/7 107/38/7 90/32/7
f 49/60/9 10/60/9 66/60/9 104/60/9
f 68/60/7 12/60/7 50/60/7 103/60/7
f 49/60/10 104/60/10 103/53/10 50/60/10
o Floor1
v 6.469763 5.946554 14.895140
v 6.469763 12.711857 14.895140
v 6.469763 5.946554 14.452208
v 6.469763 12.711857 14.452208
v 6.999639 5.946554 14.895140
v 6.999639 12.711857 14.895140
v 6.999639 5.946554 14.452208
v 6.999639 12.711857 14.452208
v 6.999639 5.946555 25.763269
v 6.999639 12.711858 25.763269
v 6.469763 12.711858 25.763269
v 6.469763 5.946555 25.763269
v 6.469763 5.946555 25.386560
v 6.469763 12.711858 25.386560
v 6.999639 12.711858 25.386560
v 6.999639 5.946555 25.386560
v 26.739338 5.946555 25.386560
v 26.739338 12.711858 25.386560
v 26.739338 5.946555 25.763269
v 26.739338 12.711858 25.763269
v 27.116049 12.711858 25.763269
v 27.116049 12.711858 25.386560
v 27.116049 5.946555 25.386560
v 27.116049 5.946555 25.763269
v 26.739338 12.711857 5.098365
v 26.739338 5.946553 5.098365
v 27.116049 5.946553 5.098365
v 27.116049 12.711857 5.098365
v 26.739338 12.711857 4.583022
v 26.739338 5.946553 4.583022
v 27.116049 5.946553 4.583022
v 27.116049 12.711857 4.583022
v 29.177416 12.711857 5.098365
v 29.177416 5.946553 5.098365
v 29.177416 12.711857 4.583022
v 29.177416 5.946553 4.583022
v 29.584265 12.711857 5.098365
v 29.584265 5.946553 5.098365
v 29.584265 12.711857 4.583022
v 29.584265 5.946553 4.583022
v 29.177416 12.711856 -4.313405
v 29.177416 5.946552 -4.313405
v 29.584265 12.711856 -4.313405
v 29.584265 5.946552 -4.313405
v 29.177416 12.711856 -4.828748
v 29.177416 5.946552 -4.828747
v 29.584265 12.711856 -4.828748
v 29.584265 5.946552 -4.828747
v 29.177416 12.711855 -17.278320
v 29.177416 5.946551 -17.278320
v 29.584265 12.711855 -17.278320
v 29.584265 5.946551 -17.278320
v 29.177416 12.711855 -17.685169
v 29.177416 5.946551 -17.685169
v 29.584265 12.711855 -17.685169
v 29.584265 5.946551 -17.685169
v 26.383722 12.711855 -17.278320
v 26.383722 5.946551 -17.278320
v 26.383722 12.711855 -17.685169
v 26.383722 5.946551 -17.685169
v 22.857700 12.711855 -20.044889
v 22.857700 5.946551 -20.044889
v 22.857700 12.711855 -20.451738
v 22.857700 5.946551 -20.451738
v 13.261119 12.711855 -20.060030
v 13.261119 5.946551 -20.060030
v 13.155145 12.711855 -20.459307
v 13.155145 5.946551 -20.459307
v 10.106521 12.558457 -17.158527
v 10.106521 6.099949 -17.158527
v 9.803176 12.558457 -17.469730
v 9.803176 6.099949 -17.469730
v 9.803176 12.558457 -17.158527
v 9.803176 6.099949 -17.158527
v 10.106521 12.558457 -9.404547
v 10.106521 6.099949 -9.404545
v 9.803176 12.558457 -9.404547
v 9.803176 6.099949 -9.404545
v 10.106521 12.558457 -9.059229
v 10.106521 6.099949 -9.059227
v 9.803176 12.558457 -9.059229
v 9.803176 6.099949 -9.059227
v 10.106521 12.558457 -8.352896
v 10.106521 6.099949 -8.352894
v 9.803176 12.558457 -8.352896
v 9.803176 6.099949 -8.352894
v 7.982403 12.558457 -9.404547
v 7.982403 6.099949 -9.404545
v 7.982403 12.558457 -9.059229
v 7.982403 6.099949 -9.059227
v 10.191137 12.711856 -4.313405
v 10.191137 5.946552 -4.313405
v 10.191137 12.711856 -4.828748
v 10.191137 5.946552 -4.828747
v 9.811414 12.711856 -4.313405
v 9.811414 5.946552 -4.313405
v 9.811414 12.711856 -4.828748
v 9.811414 5.946552 -4.828747
v 6.746486 12.711856 -4.313405
v 6.746486 5.946552 -4.313405
v 6.746486 12.711856 -4.828748
v 6.746486 5.946552 -4.828747
v 6.339638 12.711856 -4.313405
v 6.339638 5.946552 -4.313405
v 6.339638 12.711856 -4.828748
v 6.339638 5.946552 -4.828747
v 6.746486 12.711856 -1.655328
v 6.746486 5.946553 -1.655327
v 6.339638 12.711856 -1.655328
v 6.339638 5.946553 -1.655327
v 6.746486 12.711856 -1.248479
v 6.746486 5.946553 -1.248478
v 6.339638 12.711856 -1.248479
v 6.339638 5.946553 -1.248478
v 6.746486 12.711856 -0.460355
v 6.746486 5.946553 -0.460354
v 6.339638 12.711856 -0.460355
v 6.339638 5.946553 -0.460354
v 2.352520 12.711856 -1.655328
v 2.352520 5.946553 -1.655327
v 2.352520 12.711856 -1.248479
v 2.352520 5.946553 -1.248478
v 10.191137 12.711855 -5.425458
v 10.191137 5.946552 -5.425457
v 9.811414 12.711855 -5.425458
v 9.811414 5.946552 -5.425457
v 24.799273 12.711857 5.098365
v 24.799273 5.946553 5.098365
v 24.799273 12.711857 4.583022
v 24.799273 5.946553 4.583022
v 21.879757 12.711857 5.098365
v 21.879757 5.946553 5.098365
v 21.879757 12.711857 4.583022
v 21.879757 5.946553 4.583022
v 6.830121 12.711857 5.098365
v 6.830121 5.946553 5.098365
v 6.830121 12.711857 4.583022
v 6.830121 5.946553 4.583022
v 6.340396 12.711857 5.098365
v 6.340396 5.946553 5.098365
v 6.340396 12.711857 4.583022
v 6.340396 5.946553 4.583022
v 6.830121 12.711856 4.112132
v 6.830121 5.946553 4.112133
v 6.340396 12.711856 4.112132
v 6.340396 5.946553 4.112133
v 6.830121 12.711857 6.021308
v 6.830121 5.946553 6.021308
v 6.340396 12.711857 6.021308
v 6.340396 5.946553 6.021308
v 6.469763 12.711857 10.541934
v 6.469763 5.946553 10.541934
v 6.999639 5.946553 10.541934
v 6.999639 12.711857 10.541934
v 5.588257 5.946554 14.452208
v 5.588257 5.946554 14.895140
v 5.588257 12.711857 14.895140
v 5.588257 12.711857 14.452208
v -1.712418 5.946554 14.452208
v -1.712418 5.946554 14.895140
v -1.712418 12.711857 14.895140
v -1.712418 12.711857 14.452208
v -2.706937 5.946554 14.452208
v -2.706937 5.946554 14.895140
v -2.706937 12.711857 14.895140
v -2.706937 12.711857 14.452208
v -10.911723 5.946554 14.452208
v -10.911723 5.946554 14.895140
v -10.911723 12.711857 14.895140
v -10.911723 12.711857 14.452208
v -11.386380 5.946554 14.452208
v -11.386380 5.946554 14.895140
v -11.386380 12.711857 14.895140
v -11.386380 12.711857 14.452208
v -27.524712 5.946554 14.452208
v -27.524712 5.946554 14.895140
v -27.524712 12.711857 14.895140
v -27.524712 12.711857 14.452208
v -28.044575 5.946554 14.452208
v -28.044575 5.946554 14.895140
v -28.044575 12.711857 14.895140
v -28.044575 12.711857 14.452208
v -10.911723 12.711857 13.299471
v -10.911723 5.946554 13.299471
v -11.386380 12.711857 13.299471
v -11.386380 5.946554 13.299471
v -27.524712 12.711856 -1.279283
v -27.524712 5.946553 -1.279282
v -28.044575 12.711856 -1.279283
v -28.044575 5.946553 -1.279282
v -27.524712 12.711856 -1.708733
v -27.524712 5.946553 -1.708733
v -28.044575 12.711856 -1.708733
v -28.044575 5.946553 -1.708733
v -25.108932 12.711856 -1.279283
v -25.108932 5.946553 -1.279282
v -25.108932 12.711856 -1.708733
v -25.108932 5.946553 -1.708733
v -32.022655 12.711856 -1.279283
v -32.022655 5.946553 -1.279282
v -32.022655 12.711856 -1.708733
v -32.022655 5.946553 -1.708733
v -32.474709 12.711856 -1.279283
v -32.474709 5.946553 -1.279282
v -32.474709 12.711856 -1.708733
v -32.474709 5.946553 -1.708733
v -20.721296 12.711856 -1.279283
v -20.721296 5.946553 -1.279282
v -20.721296 12.711856 -1.708733
v -20.721296 5.946553 -1.708733
v -11.408984 12.711856 -1.279283
v -11.408984 5.946553 -1.279282
v -11.408984 12.711856 -1.708733
v -11.408984 5.946553 -1.708733
v -10.956931 12.711856 -1.279283
v -10.956931 5.946553 -1.279282
v -10.956931 12.711856 -1.708733
v -10.956931 5.946553 -1.708733
v -6.820636 12.711856 -1.279283
v -6.820636 5.946553 -1.279282
v -6.820636 12.711856 -1.708733
v -6.820636 5.946553 -1.708733
v -11.408984 12.711857 8.838908
v -11.408984 5.946553 8.838908
v -10.956931 12.711857 8.838908
v -10.956931 5.946553 8.838908
v -11.408984 12.711856 -2.477227
v -11.408984 5.946552 -2.477226
v -10.956931 12.711856 -2.477227
v -10.956931 5.946552 -2.477226
v 2.159065 12.558457 -17.469730
v 2.159065 6.099949 -17.469730
v 2.159065 12.558457 -17.158527
v 2.159065 6.099949 -17.158527
v 1.798050 12.558457 -17.469730
v 1.798050 6.099949 -17.469730
v 1.798050 12.558457 -17.158527
v 1.798050 6.099949 -17.158527
v 2.159065 12.558457 -9.404547
v 2.159065 6.099949 -9.404545
v 1.798050 12.558457 -9.404547
v 1.798050 6.099949 -9.404545
v 2.159065 12.558457 -9.043531
v 2.159065 6.099949 -9.043530
v 1.798050 12.558457 -9.043531
v 1.798050 6.099949 -9.043530
v 3.744394 12.558457 -9.404547
v 3.744394 6.099949 -9.404545
v 3.744394 12.558457 -9.043531
v 3.744394 6.099949 -9.043530
v 2.159065 12.558456 -22.853567
v 2.159065 6.099948 -22.853567
v 1.798050 12.558456 -22.853567
v 1.798050 6.099948 -22.853567
v 2.159065 12.558456 -23.104708
v 2.159065 6.099948 -23.104708
v 1.798050 12.558456 -23.104708
v 1.798050 6.099948 -23.104708
v -11.057240 12.558456 -22.853567
v -11.057240 6.099948 -22.853567
v -11.057240 12.558456 -23.104708
v -11.057240 6.099948 -23.104708
v -11.339774 12.558456 -22.853567
v -11.339774 6.099948 -22.853567
v -11.339774 12.558456 -23.104708
v -11.339774 6.099948 -23.104708
v -11.057240 12.558456 -21.817610
v -11.057240 6.099948 -21.817610
v -11.339774 12.558456 -21.817610
v -11.339774 6.099948 -21.817610
v -11.057240 12.558456 -21.456594
v -11.057240 6.099948 -21.456594
v -11.339774 12.558456 -21.456594
v -11.339774 6.099948 -21.456594
v -11.057240 12.558458 -6.926263
v -11.057240 6.099949 -6.926262
v -11.339774 12.558458 -6.926263
v -11.339774 6.099949 -6.926262
v -32.062637 12.711856 -5.047349
v -32.062637 5.946552 -5.047348
v -32.514690 12.711856 -5.047349
v -32.514690 5.946552 -5.047348
v -17.047279 12.558456 -21.817610
v -17.047279 6.099948 -21.817610
v -17.047279 12.558456 -21.456594
v -17.047279 6.099948 -21.456594
v -28.182707 12.558456 -21.817610
v -28.182707 6.099948 -21.817610
v -28.182707 12.558456 -21.456594
v -28.182707 6.099948 -21.456594
v -32.311867 12.558456 -21.787994
v -32.311867 6.099948 -21.787994
v -32.104317 12.558456 -21.463028
v -32.104317 6.099948 -21.463028
v -35.696369 12.558457 -16.922070
v -35.696369 6.099949 -16.922070
v -35.264889 12.558457 -16.922070
v -35.264889 6.099949 -16.922070
v -35.696369 12.558457 -8.786558
v -35.696369 6.099949 -8.786556
v -35.264889 12.558457 -8.786558
v -35.264889 6.099949 -8.786556
v -11.057240 6.099948 -21.637102
v -11.057240 12.558456 -21.637102
v -11.339774 6.099948 -21.637102
v -17.047279 6.167966 -21.637102
v -17.047279 12.558456 -21.637102
v -28.182707 6.099948 -21.637102
v -28.182707 12.558456 -21.637102
v -32.208092 6.099948 -21.625511
v -35.480629 6.099949 -16.922070
v -21.806120 12.558456 -21.456594
v -21.806120 6.099948 -21.456594
v -21.806120 12.558456 -21.637102
v -21.806120 6.099948 -21.637102
v -23.439753 12.558456 -21.817610
v -23.439753 6.099948 -21.817610
v -23.439753 6.099948 -21.637102
v -23.439753 12.558456 -21.637102
v -17.047279 6.099948 -21.637102
vn -0.0000 -0.0000 -1.0000
vn 1.0000 -0.0000 -0.0000
vn -1.0000 -0.0000 -0.0000
vn -0.0000 -0.0000 1.0000
vn 0.0008 -0.0000 -1.0000
vn 0.6173 -0.0000 -0.7867
vn -0.6173 -0.0000 0.7867
vn -0.0016 -0.0000 1.0000
vn 0.6770 -0.0000 0.7360
vn -0.6656 -0.0000 -0.7463
vn -1.0000 -0.0000 0.0060
vn -0.0000 -1.0000 -0.0000
vn -0.9999 -0.0000 0.0120
vn 0.9999 -0.0000 -0.0120
vn -0.0072 -0.0000 -1.0000
vn -0.0008 -0.0000 1.0000
vn -0.8209 -0.0000 -0.5710
vn 0.8208 -0.0000 0.5713
vn 0.7595 -0.0000 -0.6505
vn -0.7616 -0.0000 0.6480
vn 0.0052 -0.9827 0.1851
vt 0.591955 0.405885
vt 0.586611 0.349847
vt 0.575749 0.350421
vt 0.580419 0.406438
vt 0.593150 0.349502
vt 0.598901 0.405553
vt 0.599169 0.401711
vt 0.593364 0.345517
vt 0.606822 0.291925
vt 0.599416 0.232978
vt 0.592175 0.402049
vt 0.586782 0.345867
vt 0.591616 0.233469
vt 0.598437 0.292409
vt 0.591823 0.228657
vt 0.598708 0.287659
vt 0.928169 0.273377
vt 0.897712 0.214220
vt 0.599675 0.228160
vt 0.900018 0.209148
vt 0.930877 0.268350
vt 0.607153 0.287168
vt 0.905903 0.208776
vt 0.937233 0.267980
vt 0.903555 0.213853
vt 0.934476 0.273014
vt 0.828762 0.466019
vt 0.811635 0.412658
vt 0.834916 0.411578
vt 0.853362 0.464992
vt 0.824278 0.466207
vt 0.807391 0.412855
vt 0.805722 0.416524
vt 0.822398 0.469695
vt 0.826850 0.469511
vt 0.809938 0.416330
vt 0.833058 0.415264
vt 0.851270 0.468498
vt 0.819349 0.521993
vt 0.804525 0.471850
vt 0.858229 0.464788
vt 0.839522 0.411364
vt 0.837632 0.415053
vt 0.856101 0.468297
vt 0.808610 0.471681
vt 0.823638 0.521834
vt 0.803055 0.474767
vt 0.817713 0.524734
vt 0.783650 0.581819
vt 0.772227 0.535905
vt 0.807114 0.474600
vt 0.821975 0.524577
vt 0.775761 0.535778
vt 0.787336 0.581701
vt 0.771351 0.537642
vt 0.782688 0.583431
vt 0.786358 0.583314
vt 0.774871 0.537516
vt 0.747242 0.538506
vt 0.757550 0.584232
vt 0.758401 0.582628
vt 0.748016 0.536776
vt 0.721289 0.595737
vt 0.712696 0.550926
vt 0.632420 0.553755
vt 0.637731 0.598354
vt 0.721961 0.594231
vt 0.713307 0.549298
vt 0.638956 0.596869
vt 0.633576 0.552149
vt 0.610714 0.585680
vt 0.606534 0.542494
vt 0.610436 0.507427
vt 0.615152 0.552937
vt 0.613382 0.585594
vt 0.609100 0.542401
vt 0.606390 0.543787
vt 0.610551 0.586883
vt 0.542300 0.546082
vt 0.543944 0.589018
vt 0.618057 0.552836
vt 0.613221 0.507319
vt 0.618285 0.551242
vt 0.613421 0.505618
vt 0.613835 0.502097
vt 0.618756 0.547941
vt 0.615815 0.548045
vt 0.611017 0.502208
vt 0.615368 0.551344
vt 0.610625 0.505727
vt 0.597745 0.553547
vt 0.593748 0.508078
vt 0.593874 0.506382
vt 0.597892 0.551958
vt 0.622616 0.529277
vt 0.617016 0.479606
vt 0.616681 0.482430
vt 0.622231 0.531928
vt 0.618749 0.529421
vt 0.613327 0.479758
vt 0.616298 0.485659
vt 0.621790 0.534955
vt 0.618388 0.532069
vt 0.613014 0.482581
vt 0.583502 0.483794
vt 0.587462 0.533207
vt 0.587630 0.530573
vt 0.583639 0.480986
vt 0.579709 0.481149
vt 0.583511 0.530725
vt 0.583369 0.533358
vt 0.579596 0.483955
vt 0.580316 0.466128
vt 0.584274 0.516611
vt 0.588529 0.516448
vt 0.584370 0.465955
vt 0.588672 0.514203
vt 0.584486 0.463569
vt 0.584611 0.460999
vt 0.588826 0.511782
vt 0.584526 0.511948
vt 0.580516 0.461176
vt 0.584395 0.514367
vt 0.580412 0.463744
vt 0.542737 0.518200
vt 0.540737 0.467816
vt 0.540641 0.465449
vt 0.542647 0.515972
vt 0.612656 0.485808
vt 0.617974 0.535095
vt 0.801238 0.467169
vt 0.785579 0.413867
vt 0.784061 0.417522
vt 0.799526 0.470644
vt 0.752910 0.415383
vt 0.766736 0.468610
vt 0.592065 0.475907
vt 0.587360 0.423063
vt 0.765273 0.472065
vt 0.751616 0.419018
vt 0.587183 0.426596
vt 0.591845 0.479259
vt 0.582052 0.423309
vt 0.586469 0.476141
vt 0.586288 0.479490
vt 0.581910 0.426839
vt 0.591646 0.482282
vt 0.587022 0.429783
vt 0.581781 0.430023
vt 0.586125 0.482509
vt 0.587685 0.416617
vt 0.592467 0.469784
vt 0.586799 0.470023
vt 0.582312 0.416869
vt 0.585191 0.382857
vt 0.590145 0.437584
vt 0.596689 0.437289
vt 0.591373 0.382549
vt 0.580557 0.402609
vt 0.575849 0.346448
vt 0.485753 0.410969
vt 0.486574 0.355127
vt 0.474534 0.355762
vt 0.472979 0.411581
vt 0.486092 0.351215
vt 0.485236 0.407203
vt 0.472374 0.407823
vt 0.473974 0.351859
vt 0.368671 0.416574
vt 0.376164 0.360954
vt 0.379188 0.370709
vt 0.372005 0.425943
vt 0.367358 0.412886
vt 0.374975 0.357118
vt 0.361342 0.413175
vt 0.369300 0.357419
vt 0.362695 0.416860
vt 0.370525 0.361251
vt 0.182109 0.371195
vt 0.163225 0.426409
vt 0.160556 0.422854
vt 0.179710 0.367490
vt 0.173709 0.367809
vt 0.154207 0.423160
vt 0.156917 0.426711
vt 0.176144 0.371509
vt 0.234202 0.527997
vt 0.246376 0.478242
vt 0.373641 0.370997
vt 0.366132 0.426219
vt 0.239337 0.527800
vt 0.251282 0.478032
vt 0.267950 0.477317
vt 0.256788 0.527129
vt 0.241008 0.530026
vt 0.252817 0.480403
vt 0.247935 0.480611
vt 0.235899 0.530221
vt 0.210721 0.482198
vt 0.196955 0.531710
vt 0.258371 0.529362
vt 0.269404 0.479696
vt 0.195061 0.529502
vt 0.208982 0.479845
vt 0.204748 0.480026
vt 0.190631 0.529672
vt 0.192547 0.531879
vt 0.206508 0.482378
vt 0.317101 0.477662
vt 0.308310 0.527453
vt 0.401760 0.523880
vt 0.406301 0.473858
vt 0.306983 0.525200
vt 0.315879 0.475263
vt 0.405521 0.471421
vt 0.400918 0.521589
vt 0.409909 0.471233
vt 0.405518 0.521413
vt 0.385961 0.466630
vt 0.391895 0.413300
vt 0.447783 0.519788
vt 0.450219 0.469505
vt 0.450776 0.471962
vt 0.448381 0.522098
vt 0.410668 0.473672
vt 0.406336 0.523705
vt 0.380790 0.466854
vt 0.386990 0.413536
vt 0.407678 0.478160
vt 0.403246 0.527920
vt 0.407780 0.527748
vt 0.412006 0.477977
vt 0.543890 0.587829
vt 0.542243 0.544804
vt 0.540818 0.589119
vt 0.539290 0.546190
vt 0.539224 0.544912
vt 0.540754 0.587930
vt 0.541863 0.608532
vt 0.540376 0.567107
vt 0.542425 0.555483
vt 0.540698 0.510145
vt 0.537425 0.510273
vt 0.539013 0.555602
vt 0.540620 0.508388
vt 0.542351 0.553837
vt 0.538925 0.553958
vt 0.537334 0.508517
vt 0.557432 0.554957
vt 0.555092 0.509584
vt 0.557420 0.553308
vt 0.555070 0.507823
vt 0.543232 0.567010
vt 0.544824 0.608442
vt 0.544863 0.609298
vt 0.543273 0.567935
vt 0.540424 0.568031
vt 0.541909 0.609388
vt 0.437406 0.611703
vt 0.439609 0.570532
vt 0.439894 0.571440
vt 0.437707 0.612544
vt 0.437414 0.570607
vt 0.435132 0.611773
vt 0.435438 0.612612
vt 0.437704 0.571514
vt 0.438419 0.566743
vt 0.436150 0.608195
vt 0.435928 0.607575
vt 0.438209 0.566074
vt 0.436203 0.566819
vt 0.433853 0.608265
vt 0.435989 0.566150
vt 0.391331 0.567686
vt 0.391621 0.568349
vt 0.435775 0.565482
vt 0.391042 0.567022
vt 0.418794 0.504244
vt 0.415301 0.549954
vt 0.412623 0.550050
vt 0.416227 0.504347
vt 0.433401 0.607026
vt 0.437999 0.565405
vt 0.435706 0.606955
vt 0.206417 0.548297
vt 0.219254 0.499913
vt 0.223315 0.499746
vt 0.210659 0.548142
vt 0.387030 0.608453
vt 0.387644 0.609682
vt 0.305209 0.570648
vt 0.304775 0.569994
vt 0.274725 0.571052
vt 0.274368 0.571666
vt 0.391332 0.567687
vt 0.387338 0.609069
vt 0.354365 0.568958
vt 0.354013 0.568298
vt 0.236836 0.554825
vt 0.235123 0.554886
vt 0.298568 0.612415
vt 0.305642 0.571300
vt 0.274013 0.572277
vt 0.265809 0.613318
vt 0.297644 0.611205
vt 0.266520 0.612185
vt 0.233410 0.554948
vt 0.223278 0.597256
vt 0.226831 0.597142
vt 0.205118 0.520289
vt 0.208830 0.520144
vt 0.196763 0.564836
vt 0.192901 0.564972
vt 0.298107 0.611811
vt 0.349031 0.610246
vt 0.348656 0.609635
vt 0.342102 0.570049
vt 0.341731 0.569392
vt 0.335940 0.610648
vt 0.336336 0.611256
s 1
f 116/61/13 115/62/13 267/63/13 270/64/13
f 119/65/14 120/66/14 118/67/14 117/68/14
f 117/68/14 118/67/14 127/69/14 128/70/14
f 114/71/15 113/72/15 125/73/15 126/74/15
f 126/74/15 125/73/15 124/75/15 123/76/15
f 128/70/13 127/69/13 130/77/13 129/78/13
f 121/79/16 131/80/16 132/81/16 122/82/16
f 131/80/16 136/83/16 133/84/16 132/81/16
f 135/85/14 134/86/14 133/84/14 136/83/14
f 140/87/16 139/88/16 146/89/16 145/90/16
f 134/86/14 135/85/14 139/88/14 140/87/14
f 129/78/15 130/77/15 137/91/15 138/92/15
f 142/93/13 141/94/13 144/95/13 143/96/13
f 148/97/15 147/98/15 153/99/15 154/100/15
f 143/96/13 144/95/13 147/98/13 148/97/13
f 149/101/14 150/102/14 152/103/14 151/104/14
f 145/90/16 146/89/16 150/102/16 149/101/16
f 151/104/14 152/103/14 156/105/14 155/106/14
f 158/107/15 157/108/15 161/109/15 162/110/15
f 155/106/14 156/105/14 160/111/14 159/112/14
f 159/112/14 160/111/14 164/113/14 163/114/14
f 166/115/13 165/116/13 167/117/13 168/118/13
f 163/114/14 164/113/14 168/118/14 167/117/14
f 165/116/13 166/115/13 172/119/13 171/120/13
f 162/110/16 161/109/16 169/121/16 170/122/16
f 175/123/17 176/124/17 180/125/17 179/126/17
f 171/120/18 172/119/18 176/124/18 175/123/18
f 170/122/19 169/121/19 173/127/19 174/128/19
f 174/128/20 173/127/20 177/129/20 178/130/20
f 185/131/15 186/132/15 190/133/15 189/134/15
f 178/130/21 177/129/21 181/135/21 182/136/21
f 179/126/22 180/125/22 184/137/22 183/138/22
f 183/138/13 184/137/13 344/139/13 343/140/13
f 182/136/14 181/135/14 187/141/14 188/142/14
f 188/142/14 187/141/14 191/143/14 192/144/14
f 196/145/16 195/146/16 197/147/16 198/148/16
f 192/144/14 191/143/14 195/146/14 196/145/14
f 193/149/15 194/150/15 198/148/15 197/147/15
f 199/151/15 200/152/15 202/153/15 201/154/15
f 189/134/13 190/133/13 200/152/13 199/151/13
f 194/150/16 193/149/16 201/154/16 202/153/16
f 154/100/16 153/99/16 203/155/16 204/156/16
f 157/108/13 158/107/13 206/157/13 205/158/13
f 204/156/16 203/155/16 207/159/16 208/160/16
f 205/158/14 206/157/14 236/161/14 235/162/14
f 209/163/13 210/164/13 214/165/13 213/166/13
f 208/160/16 207/159/16 211/167/16 212/168/16
f 216/169/15 215/170/15 217/171/15 218/172/15
f 215/170/15 216/169/15 222/173/15 221/174/15
f 213/166/13 214/165/13 218/172/13 217/171/13
f 212/168/14 211/167/14 219/175/14 220/176/14
f 220/176/14 219/175/14 223/177/14 224/178/14
f 228/179/16 227/180/16 229/181/16 230/182/16
f 224/178/14 223/177/14 227/180/14 228/179/14
f 225/183/15 226/184/15 230/182/15 229/181/15
f 231/185/15 232/186/15 234/187/15 233/188/15
f 221/174/13 222/173/13 232/186/13 231/185/13
f 226/184/16 225/183/16 233/188/16 234/187/16
f 235/162/13 236/161/13 238/189/13 237/190/13
f 210/164/15 209/163/15 237/190/15 238/189/15
f 138/92/16 137/91/16 239/191/16 240/192/16
f 141/94/13 142/93/13 242/193/13 241/194/13
f 244/195/16 243/196/16 247/197/16 248/198/16
f 245/199/13 246/200/13 250/201/13 249/202/13
f 252/203/15 251/204/15 253/205/15 254/206/15
f 255/207/13 256/208/13 258/209/13 257/210/13
f 249/202/14 250/201/14 256/208/14 255/207/14
f 254/206/15 253/205/15 257/210/15 258/209/15
f 260/211/16 259/212/16 261/213/16 262/214/16
f 248/198/14 247/197/14 259/212/14 260/211/14
f 251/204/15 252/203/15 262/214/15 261/213/15
f 264/215/13 263/216/13 266/217/13 265/218/13
f 115/62/15 116/61/15 263/216/15 264/215/15
f 120/66/14 119/65/14 265/218/14 266/217/14
f 113/72/16 114/71/16 269/219/16 268/220/16
f 274/221/13 271/222/13 275/223/13 278/224/13
f 272/225/16 273/226/16 277/227/16 276/228/16
f 282/229/14 279/230/14 296/231/14 295/232/14
f 278/224/13 275/223/13 279/230/13 282/229/13
f 276/228/16 277/227/16 281/233/16 280/234/16
f 280/234/16 281/233/16 285/235/16 284/236/16
f 286/237/13 283/238/13 287/239/13 290/240/13
f 284/236/16 285/235/16 289/241/16 288/242/16
f 292/243/15 293/244/15 294/245/15 291/246/15
f 291/246/15 294/245/15 301/247/15 302/248/15
f 288/242/16 289/241/16 293/244/16 292/243/16
f 295/232/13 296/231/13 298/249/13 297/250/13
f 283/238/15 286/237/15 297/250/15 298/249/15
f 299/251/16 300/252/16 308/253/16 307/254/16
f 290/240/14 287/239/14 300/252/14 299/251/14
f 303/255/13 304/256/13 306/257/13 305/258/13
f 305/258/13 306/257/13 314/259/13 313/260/13
f 304/256/13 303/255/13 309/261/13 310/262/13
f 302/248/16 301/247/16 311/263/16 312/264/16
f 316/265/15 315/266/15 317/267/23 318/268/23
f 312/264/16 311/263/16 315/266/16 316/265/16
f 322/269/13 321/270/13 325/271/13 326/272/13
f 319/273/16 320/274/16 324/275/16 323/276/16
f 328/277/14 327/278/14 337/279/14 338/280/14
f 331/281/14 332/282/14 334/283/14 333/284/14
f 327/278/16 328/277/16 332/282/16 331/281/16
f 330/285/13 329/286/13 333/284/13 334/283/13
f 335/287/16 336/288/16 338/280/16 337/279/16
f 323/276/15 324/275/15 336/288/15 335/287/15
f 340/289/13 339/290/13 341/291/13 342/292/13
f 329/286/14 330/285/14 342/292/14 341/291/14
f 326/272/15 325/271/15 339/290/15 340/289/15
f 186/132/16 185/131/16 345/293/16 346/294/16
f 347/295/15 348/296/15 350/297/15 349/298/15
f 348/296/15 347/295/15 365/299/15 366/300/15
f 346/294/14 345/293/14 351/301/14 352/302/14
f 349/298/15 350/297/15 354/303/15 353/304/15
f 356/305/16 355/306/16 357/307/16 358/308/16
f 352/302/13 351/301/13 359/309/13 360/310/13
f 353/304/15 354/303/15 358/308/15 357/307/15
f 360/310/14 359/309/14 361/311/14 362/312/14
f 355/306/16 356/305/16 362/312/16 361/311/16
f 343/140/14 344/139/14 364/313/14 363/314/14
f 367/315/13 368/316/13 370/317/13 369/318/13
f 363/314/14 364/313/14 368/316/14 367/315/14
f 366/300/16 365/299/16 371/319/16 372/320/16
f 369/318/13 370/317/13 374/321/13 373/322/13
f 376/323/15 375/324/15 377/325/15 378/326/15
f 373/322/13 374/321/13 378/326/13 377/325/13
f 380/327/14 379/328/14 416/329/14 415/330/14
f 375/324/15 376/323/15 382/331/15 381/332/15
f 372/320/14 371/319/14 379/328/14 380/327/14
f 382/331/24 417/333/24 432/334/24 396/335/24
f 417/333/24 386/336/24 398/337/24 432/334/24
f 388/338/16 387/339/16 389/340/16 390/341/16
f 385/342/15 386/336/15 390/341/15 389/340/15
f 384/343/14 383/344/14 387/339/14 388/338/14
f 271/222/14 274/221/14 273/226/14 272/225/14
f 308/253/14 310/262/14 309/261/14 307/254/14
f 320/274/15 319/273/15 321/270/15 322/269/15
f 267/63/15 268/220/15 269/219/15 270/64/15
f 244/195/14 246/200/14 245/199/14 243/196/14
f 240/192/15 239/191/15 241/194/15 242/193/15
f 318/268/23 317/267/23 393/345/25 394/346/25
f 313/260/26 314/259/26 392/347/26 391/348/26
f 415/330/14 416/329/14 383/344/14 384/343/14
f 417/333/24 415/330/24 384/343/24 386/336/24
f 386/336/16 385/342/16 397/349/16 398/337/16
f 381/332/13 382/331/13 396/335/13 395/350/13
f 420/351/24 402/352/24 406/353/24 422/354/24
f 418/355/15 398/337/15 397/349/15 419/356/15
f 402/352/24 420/351/24 427/357/24 425/358/24
f 422/354/24 406/353/24 410/359/24 423/360/24
f 399/361/27 400/362/27 404/363/27 403/364/27
f 402/352/28 401/365/28 405/366/20 406/353/20
f 403/364/29 404/363/29 408/367/29 407/368/29
f 406/353/30 405/366/30 409/369/30 410/359/30
f 412/370/16 414/371/16 413/372/16 411/373/16
f 410/359/14 409/369/14 413/372/14 414/371/14
f 408/367/24 423/360/24 410/359/24 414/371/24 412/370/24
f 407/368/15 408/367/15 412/370/15 411/373/15
f 392/347/13 394/346/13 393/345/13 391/348/13
f 413/372/31 391/348/31 392/347/31 414/371/31
f 393/345/32 411/373/32 412/370/32 394/346/32
f 382/331/24 380/327/24 415/330/24 417/333/24
f 404/363/24 422/354/24 423/360/24 408/367/24
f 400/362/14 399/361/14 421/374/14 420/351/14
f 400/362/24 420/351/24 422/354/24 404/363/24
f 427/357/14 426/375/14 424/376/14 425/358/14
f 420/351/13 421/374/13 426/375/13 427/357/13
f 401/365/28 402/352/28 425/358/16 424/376/16
f 429/377/15 430/378/15 431/379/15 428/380/15
f 396/335/33 418/355/33 430/378/33 429/377/33
f 418/355/16 419/356/16 431/379/16 430/378/16
f 395/350/13 396/335/13 429/377/13 428/380/13
f 122/82/16 123/76/16 124/75/16 121/79/16
