# Blender 4.5.0
# www.blender.org
mtllib geometry_map_ground.mtl
o Ground
v 6.683987 6.121028 25.465538
v 26.857323 6.121028 25.465538
v 6.683987 6.121027 4.467166
v 26.857323 6.121027 4.467166
v 29.174610 6.121027 4.467166
v 6.683987 6.121026 -4.821240
v 29.174610 6.121026 -4.821240
v -11.243909 6.121027 14.774268
v 6.683987 6.121027 14.774268
v -11.243909 6.121026 -1.798569
v 6.683987 6.121026 -1.798569
v -28.002487 6.121027 14.774268
v 1.883130 6.121026 -9.207749
v 10.087093 6.121026 -9.207749
v 1.883130 6.121025 -17.232018
v 10.087093 6.121025 -17.232016
v 1.883130 6.121026 -1.798569
v -11.243909 6.121025 -23.029228
v 1.883130 6.121025 -23.029228
v 1.883130 6.121026 -4.821240
v 10.087093 6.121026 -4.821240
v -32.092186 6.121026 -1.798569
v -32.095032 6.121025 -21.851444
v -11.243909 6.121025 -21.851444
v -32.095032 6.121026 -4.821240
v -35.540615 6.121026 -9.207749
v 29.174610 6.121025 -17.232018
v 22.805931 6.121025 -20.233360
v 13.366759 6.121025 -20.233360
v -11.243909 6.121027 4.467166
v -28.002487 6.121027 4.467166
v 26.857323 6.121027 14.774268
v 29.174610 6.121026 -1.798569
v -11.243909 6.121026 -4.821240
v 6.683987 6.121026 -9.207749
v 6.683987 6.121025 -17.232016
v 10.087093 6.121027 4.467166
v 10.087093 6.121026 -1.798569
v 10.087093 6.121028 25.465530
v 10.087093 6.121027 14.774268
v -27.920074 6.121025 -21.851444
v -27.920074 6.121026 -1.798569
v -27.920074 6.121026 -4.821240
v 1.883130 6.121025 -21.851444
v 1.883130 6.121027 14.774268
v 26.857323 6.121026 -4.821240
v 26.857323 6.121025 -17.232014
v 26.857323 6.121026 -1.798569
v -11.243909 6.121026 -9.207749
v 29.174610 6.121026 -9.207749
v 26.857323 6.121026 -9.207749
v -32.095032 6.121026 -9.207749
v -27.920074 6.121026 -9.207749
v 1.883130 6.121027 4.467166
v 13.366759 6.121028 25.465530
v -27.920074 6.121025 -17.232018
v 13.366759 6.121025 -17.232018
v 13.366759 6.121026 -1.798569
v 13.366759 6.121027 14.774268
v 13.366759 6.121027 4.467166
v 13.366759 6.121026 -4.821240
v 13.366759 6.121026 -9.207749
v 22.805931 6.121028 25.465530
v 22.805931 6.121026 -4.821240
v -11.243909 6.121025 -17.232018
v 22.805931 6.121025 -17.232018
v 22.805931 6.121026 -1.798569
v 22.805931 6.121027 14.774268
v 22.805931 6.121027 4.467166
v 22.805931 6.121026 -9.207749
v -32.095032 6.121025 -17.232018
v -35.540615 6.121025 -17.232018
vn -0.0000 1.0000 -0.0000
vt 0.874382 0.508815
vt 1.000000 0.508815
vt 1.000000 1.000000
vt 0.874382 1.000000
vt 0.876045 0.681244
vt 1.000000 0.681244
vt 0.876045 1.000000
vt 0.734127 0.623529
vt 1.000000 0.623529
vt 0.734127 1.000000
vt 0.000000 0.623529
vt 0.000000 1.000000
vt 0.580813 0.000000
vt 1.000000 0.000000
vt 0.580812 1.000000
vt 0.000000 0.944520
vt 1.000000 0.944520
vt 0.580812 0.000000
vt 0.000000 0.000000
vt 0.200000 0.836290
vt 1.000000 0.836290
vt 0.200000 1.000000
vt 0.854037 0.349642
vt 1.000000 0.349642
vt 0.854037 1.000000
vt 0.734127 0.000000
vt 0.874382 0.000000
vt 0.876045 0.000000
vt 0.200000 0.000000
vt 1.000000 0.159314
vt 0.200000 0.159314
vt 1.000000 0.151163
vt 0.000000 0.151163
vt 0.150775 0.000000
vt 0.150775 0.681244
vt 0.000000 0.681244
vt 0.150775 1.000000
vt 0.168639 0.000000
vt 0.168639 0.508815
vt 0.000000 0.508815
vt 0.168639 1.000000
vt 0.000000 0.159314
vt 0.000000 0.836290
vt 0.000000 0.790286
vt 1.000000 0.790286
vt 0.766457 0.000000
vt 0.766457 0.681244
vt 0.724993 0.349642
vt 0.724993 1.000000
vt 0.766457 1.000000
vt 1.000000 0.357952
vt 0.000000 0.357952
vt 0.724993 0.000000
vt 0.854037 0.000000
vt 0.200000 0.377394
vt 0.000000 0.377394
vt 1.000000 0.377394
vt 0.427019 0.000000
vt 0.427019 0.349642
vt 0.000000 0.349642
vt 0.513410 0.681244
vt 0.513410 1.000000
vt 0.427019 1.000000
vt 0.513410 0.000000
vt 0.584319 0.000000
vt 0.584320 0.508815
vt 0.584320 1.000000
s 1
f 68/1/1 32/2/1 4/3/1 69/4/1
f 48/5/1 33/6/1 7/3/1 46/7/1
f 54/8/1 3/9/1 11/3/1 17/10/1
f 31/11/1 30/9/1 10/3/1 42/12/1
f 35/13/1 14/14/1 16/3/1 36/15/1
f 24/16/1 44/17/1 19/3/1 18/12/1
f 6/18/1 21/14/1 14/3/1 35/15/1
f 17/19/1 11/14/1 6/3/1 20/12/1
f 56/20/1 65/21/1 24/3/1 41/22/1
f 72/19/1 71/19/1 23/19/1
f 51/23/1 50/24/1 27/3/1 47/25/1
f 29/19/1 16/19/1 57/19/1
f 12/19/1 8/14/1 30/9/1 31/11/1
f 45/26/1 9/14/1 3/9/1 54/8/1
f 63/27/1 2/14/1 32/2/1 68/1/1
f 4/28/1 5/14/1 33/6/1 48/5/1
f 42/29/1 10/14/1 34/30/1 43/31/1
f 10/19/1 17/14/1 20/32/1 34/33/1
f 20/19/1 6/18/1 35/15/1 13/12/1
f 13/19/1 35/13/1 36/15/1 15/12/1
f 3/19/1 37/34/1 38/35/1 11/36/1
f 11/36/1 38/35/1 21/37/1 6/12/1
f 1/19/1 39/38/1 40/39/1 9/40/1
f 9/40/1 40/39/1 37/41/1 3/12/1
f 22/19/1 42/29/1 43/31/1 25/42/1
f 71/43/1 56/20/1 41/22/1 23/12/1
f 65/44/1 15/45/1 44/17/1 24/16/1
f 69/46/1 4/28/1 48/5/1 67/47/1
f 70/48/1 51/23/1 47/25/1 66/49/1
f 67/47/1 48/5/1 46/7/1 64/50/1
f 34/33/1 20/32/1 13/51/1 49/52/1
f 64/53/1 46/54/1 51/23/1 70/48/1
f 46/54/1 7/14/1 50/24/1 51/23/1
f 25/42/1 43/31/1 53/55/1 52/56/1
f 43/31/1 34/30/1 49/57/1 53/55/1
f 26/19/1 25/19/1 52/19/1
f 8/19/1 45/26/1 54/8/1 30/11/1
f 30/11/1 54/8/1 17/10/1 10/12/1
f 21/19/1 61/58/1 62/59/1 14/60/1
f 38/35/1 58/61/1 61/62/1 21/37/1
f 14/60/1 62/59/1 57/63/1 16/12/1
f 37/34/1 60/64/1 58/61/1 38/35/1
f 39/38/1 55/65/1 59/66/1 40/39/1
f 28/19/1 29/19/1 57/19/1 66/19/1
f 40/39/1 59/66/1 60/67/1 37/41/1
f 28/19/1 66/19/1 47/19/1
f 61/58/1 64/53/1 70/48/1 62/59/1
f 58/61/1 67/47/1 64/50/1 61/62/1
f 62/59/1 70/48/1 66/49/1 57/63/1
f 60/64/1 69/46/1 67/47/1 58/61/1
f 55/65/1 63/27/1 68/1/1 59/66/1
f 59/66/1 68/1/1 69/4/1 60/67/1
f 49/52/1 13/51/1 15/45/1 65/44/1
f 52/56/1 53/55/1 56/20/1 71/43/1
f 26/19/1 52/19/1 71/19/1 72/19/1
f 53/55/1 49/57/1 65/21/1 56/20/1
