# Blender 4.5.0
# www.blender.org
mtllib geometry_map_floor_1.mtl
o Floor2
v 6.473320 13.226343 14.889135
v 6.473320 13.226343 14.446203
v 7.003195 13.226343 14.889135
v 7.003195 13.226343 14.446203
v 7.003195 13.226343 16.905260
v 6.473320 13.226343 16.905260
v 6.473320 13.226343 16.528551
v 7.003195 13.226343 16.528551
v 26.651453 13.226343 16.528551
v 26.651453 13.226343 16.905260
v 27.028164 13.226343 16.905260
v 27.028164 13.226343 16.528551
v 26.651453 13.226342 5.092368
v 27.028164 13.226342 5.092368
v 26.651453 13.226342 4.577025
v 27.028164 13.226342 4.577025
v 29.089531 13.226342 5.092368
v 29.089531 13.226342 4.577025
v 29.496380 13.226342 5.092368
v 29.496380 13.226342 4.577025
v 29.089861 13.226341 -1.446645
v 29.496380 13.226341 -1.446645
v 29.089861 13.226341 -1.961988
v 29.496380 13.226341 -1.961988
v 29.089531 13.226340 -17.284317
v 29.496380 13.226340 -17.284317
v 29.089531 13.226340 -17.691170
v 29.496380 13.226340 -17.691170
v 11.373673 13.074673 -1.906015
v 17.146000 18.731527 -1.907693
v 17.148245 13.075975 -1.906015
v 17.148245 13.076122 -1.411927
v 17.146000 18.731676 -1.413606
v 13.866101 13.074818 -1.411927
v 14.357942 18.730568 -1.413606
v 14.360188 13.075014 -1.411927
v 13.863856 18.730371 -1.413606
v -10.999606 13.226343 14.889135
v -10.999606 13.226343 14.446203
v -11.474263 13.226343 14.889135
v -11.474263 13.226343 14.446203
v -27.612597 13.226343 14.889135
v -27.612597 13.226343 14.446203
v -28.132460 13.226343 14.889135
v -28.132460 13.226343 14.446203
v -10.999606 13.226343 13.293471
v -11.474263 13.226343 13.293471
v -27.612597 13.226341 -1.285279
v -28.132460 13.226341 -1.285279
v -27.612597 13.226341 -1.714730
v -28.132460 13.226341 -1.714730
v -17.430914 13.226341 -1.285279
v -17.430914 13.226341 -1.714730
v -32.110535 13.226341 -1.285279
v -32.110535 13.226341 -1.714730
v -32.562588 13.226341 -1.285279
v -32.562588 13.226341 -1.714730
v -12.985143 13.226341 -1.285279
v -12.985143 13.226341 -1.714730
v -11.496867 13.226341 -1.285279
v -11.496867 13.226341 -1.714730
v -11.044814 13.226341 -1.285279
v -11.044814 13.226341 -1.714730
v -6.908518 13.226341 -1.285279
v -6.908518 13.226341 -1.714730
v -11.496867 13.226342 8.851734
v -11.044814 13.226342 8.851734
v -11.496867 13.226341 -2.775081
v -11.044814 13.226341 -2.775081
v 2.071182 13.072942 -17.475727
v 2.071182 13.072942 -17.164524
v 1.710167 13.072942 -17.475727
v 1.710167 13.072942 -17.164524
v 2.071182 13.072943 -8.748819
v 1.710167 13.072943 -8.748819
v 2.071182 13.072943 -8.387804
v 1.710167 13.072943 -8.387804
v 13.866103 13.072943 -8.748819
v 13.866103 13.072943 -8.387804
v 2.071182 13.072942 -22.859570
v 1.710167 13.072942 -22.859570
v 2.071182 13.072942 -23.110710
v 1.710167 13.072942 -23.110710
v -11.145123 13.072942 -22.859570
v -11.145123 13.072942 -23.110710
v -11.427657 13.072942 -22.859570
v -11.427657 13.072942 -23.110710
v -11.145123 13.072942 -21.823612
v -11.427657 13.072942 -21.823612
v -11.145123 13.072942 -21.462597
v -11.427657 13.072942 -21.462597
v -11.145123 13.072943 -7.245492
v -11.427657 13.072943 -7.245492
v -32.150517 13.226341 -5.053346
v -32.602570 13.226341 -5.053346
v -32.399746 13.072942 -21.793997
v -32.192196 13.072942 -21.469030
v 6.471076 18.881895 14.887457
v 6.471076 18.881895 14.444525
v 7.000950 18.881895 14.444525
v 7.000950 18.881895 14.887457
v 7.000950 18.881895 16.903582
v 6.471076 18.881895 16.903582
v 7.000950 18.881895 16.526873
v 6.471076 18.881895 16.526873
v 26.649208 18.881895 16.903582
v 26.649208 18.881895 16.526873
v 27.025919 18.881895 16.903582
v 27.025919 18.881895 16.526873
v 26.649208 18.881893 5.090689
v 27.025919 18.881893 5.090689
v 26.649208 18.881893 4.575346
v 27.025919 18.881893 4.575346
v 29.087286 18.881893 4.575346
v 29.087286 18.881893 5.090689
v 29.494135 18.881893 4.575346
v 29.494135 18.881893 5.090689
v 29.086956 18.881893 -1.448324
v 29.494135 18.881893 -1.448324
v 29.086956 18.881893 -1.963666
v 29.494135 18.881893 -1.963666
v 29.087286 18.881893 -17.285995
v 29.494135 18.881893 -17.285995
v 29.087286 18.881893 -17.692848
v 29.494135 18.881893 -17.692848
v 11.371428 18.730225 -1.907693
v 11.371428 18.730371 -1.413606
v 11.373673 13.074818 -1.411927
v 13.863856 18.730225 -1.907693
v 14.360188 13.074867 -1.906015
v 14.357942 18.730421 -1.907693
v 13.866101 13.074673 -1.906015
v 14.357944 18.728693 -8.389482
v 14.357944 18.728693 -8.750498
v 14.360188 13.073139 -8.387804
v 14.360188 13.073139 -8.748819
v -11.001851 18.881895 14.887457
v -11.001851 18.881895 14.444525
v -11.476508 18.881895 14.887457
v -11.476508 18.881895 14.444525
v -27.614841 18.881895 14.887457
v -27.614841 18.881895 14.444525
v -28.134705 18.881895 14.887457
v -28.134705 18.881895 14.444525
v -11.476508 18.881895 13.291793
v -11.001851 18.881895 13.291793
v -27.614841 18.881893 -1.286958
v -28.134705 18.881893 -1.286958
v -27.614841 18.881893 -1.716409
v -28.134705 18.881893 -1.716409
v -17.433157 18.881893 -1.716409
v -17.433157 18.881893 -1.286958
v -32.112782 18.881893 -1.286958
v -32.112782 18.881893 -1.716409
v -32.564835 18.881893 -1.286958
v -32.564835 18.881893 -1.716409
v -12.987388 18.881893 -1.716409
v -12.987388 18.881893 -1.286958
v -11.499112 18.881893 -1.716409
v -11.499112 18.881893 -1.286958
v -11.047059 18.881893 -1.716409
v -11.047059 18.881893 -1.286958
v -6.910763 18.881893 -1.716409
v -6.910763 18.881893 -1.286958
v -11.047059 18.881895 8.850056
v -11.499112 18.881895 8.850056
v -11.047059 18.881893 -2.776760
v -11.499112 18.881893 -2.776760
v 2.068937 18.728497 -17.477406
v 2.068937 18.728497 -17.166203
v 1.707922 18.728497 -17.477406
v 1.707922 18.728497 -17.166203
v 2.068937 18.728497 -8.750498
v 1.707922 18.728497 -8.750498
v 2.068937 18.728497 -8.389482
v 1.707922 18.728497 -8.389482
v 13.863856 18.728497 -8.750498
v 13.863856 18.728497 -8.389482
v 2.068937 18.728495 -22.861248
v 1.707922 18.728495 -22.861248
v 2.068937 18.728495 -23.112389
v 1.707922 18.728495 -23.112389
v -11.147368 18.728495 -23.112389
v -11.147368 18.728495 -22.861248
v -11.429902 18.728495 -23.112389
v -11.429902 18.728495 -22.861248
v -11.429902 18.728497 -21.825291
v -11.147368 18.728497 -21.825291
v -11.429902 18.728497 -21.464275
v -11.147368 18.728497 -21.464275
v -11.429902 18.728497 -7.247171
v -11.147368 18.728497 -7.247171
v -32.152763 18.881893 -5.055025
v -32.604816 18.881893 -5.055025
v -32.194443 18.728497 -21.470709
v -32.401993 18.728497 -21.795675
v 25.269836 13.226341 -1.446645
v 25.269836 13.226341 -1.961988
v 25.266932 18.881893 -1.448324
v 25.266932 18.881893 -1.963666
v 8.279698 13.072943 -8.748819
v 11.153792 13.072943 -8.748819
v 8.279698 13.072943 -8.387804
v 11.153792 13.072943 -8.387804
v 8.276263 18.728497 -8.750498
v 11.150355 18.728497 -8.750498
v 8.276263 18.728497 -8.389482
v 11.150355 18.728497 -8.389482
v 6.375744 13.221483 -1.339177
v 6.905621 13.221483 -1.339177
v 6.373498 18.877035 -1.340856
v 6.903375 18.877035 -1.340856
v 6.375744 13.221294 -1.974431
v 6.905621 13.221294 -1.974431
v 6.373498 18.876844 -1.976110
v 6.903375 18.876844 -1.976110
v 8.526799 18.877680 -1.340856
v 8.529045 13.222128 -1.339177
v 8.526799 18.877489 -1.976110
v 8.529045 13.221939 -1.974431
v 4.752319 13.220839 -1.339177
v 4.750074 18.876390 -1.340856
v 4.752319 13.220650 -1.974431
v 4.750074 18.876200 -1.976110
v 6.471076 18.880276 13.407912
v 6.373498 18.878656 8.990149
v 6.375744 13.223103 8.991828
v 6.473320 13.224724 13.409591
v 7.003195 13.224723 13.409591
v 6.905621 13.223103 8.991828
v 6.903375 18.878654 8.990149
v 7.000950 18.880276 13.407912
v -11.044814 13.226342 2.695963
v -11.496867 13.226342 2.695967
v -11.047059 18.881893 2.694285
v -11.499112 18.881893 2.694289
v -11.044814 13.226342 3.137793
v -11.047059 18.881893 3.136115
v -11.496867 13.226342 3.137793
v -11.499112 18.881893 3.136115
v 6.373498 18.877844 3.136115
v 6.905621 13.222293 3.137793
v 6.375744 13.222293 3.137793
v 6.903375 18.877844 3.136115
v 6.373498 18.877752 2.683070
v 6.905621 13.222201 2.684748
v 6.375744 13.222201 2.684748
v 6.903375 18.877752 2.683070
vn -1.0000 -0.0004 -0.0000
vn 1.0000 0.0004 -0.0000
vn -0.0000 0.0003 1.0000
vn 1.0000 0.0004 -0.0072
vn 1.0000 0.0004 -0.0025
vn 1.0000 0.0004 -0.0073
vn -1.0000 -0.0004 0.0060
vn -0.0000 -0.0003 -1.0000
vn 0.9999 0.0004 -0.0120
vn -0.9999 -0.0004 0.0120
vn -1.0000 -0.0005 -0.0000
vn -0.0040 -0.0003 -1.0000
vn -0.0014 -0.0003 -1.0000
vn -0.0003 0.0003 1.0000
vn -0.9999 -0.0004 -0.0121
vn 0.0044 0.0003 1.0000
vn -1.0000 -0.0006 -0.0000
vn 1.0000 0.0006 -0.0000
vn -0.0080 -0.0003 -1.0000
vn -0.0006 -0.0003 -1.0000
vt 0.156917 0.426711
vt 0.154207 0.423160
vt 0.823638 0.521834
vt 0.821975 0.524577
vt 0.190631 0.529672
vt 0.195061 0.529502
vt 0.607153 0.287168
vt 0.930877 0.268350
vt 0.210659 0.548142
vt 0.000000 0.000000
vt 0.192547 0.531879
vt 0.928169 0.273377
vt 0.606822 0.291925
vt 0.598437 0.292409
vt 0.598708 0.287659
vt 0.544824 0.608442
vt 0.544863 0.609298
vt 0.196955 0.531710
vt 0.160556 0.422854
vt 0.361342 0.413175
vt 0.541909 0.609388
vt 0.362695 0.416860
vt 0.163225 0.426409
vt 0.234202 0.527997
vt 0.206417 0.548297
vt 0.403246 0.527920
vt 0.401760 0.523880
vt 0.856101 0.468297
vt 0.235899 0.530221
vt 0.406336 0.523705
vt 0.407780 0.527748
vt 0.819349 0.521993
vt 0.851270 0.468498
vt 0.543944 0.589018
vt 0.367358 0.412886
vt 0.541863 0.608532
vt 0.540818 0.589119
vt 0.557420 0.553308
vt 0.391230 0.495245
vt 0.380790 0.466854
vt 0.258371 0.529362
vt 0.241008 0.530026
vt 0.415301 0.549954
vt 0.435706 0.606955
vt 0.853362 0.464992
vt 0.858229 0.464788
vt 0.433401 0.607026
vt 0.412623 0.550050
vt 0.239337 0.527800
vt 0.256788 0.527129
vt 0.592175 0.402049
vt 0.396927 0.497349
vt 0.405518 0.521413
vt 0.385961 0.466630
vt 0.552397 0.553484
vt 0.599169 0.401711
vt 0.547428 0.555308
vt 0.542425 0.555483
vt 0.557432 0.554957
vt 0.448381 0.522098
vt 0.937233 0.267980
vt 0.934476 0.273014
vt 0.540754 0.587930
vt 0.308310 0.527453
vt 0.306983 0.525200
vt 0.437406 0.611703
vt 0.783650 0.581819
vt 0.817713 0.524734
vt 0.437707 0.612544
vt 0.372005 0.425943
vt 0.366132 0.426219
vt 0.787336 0.581701
vt 0.435438 0.612612
vt 0.435132 0.611773
vt 0.400918 0.521589
vt 0.368671 0.416574
vt 0.828762 0.466019
vt 0.786358 0.583314
vt 0.782688 0.583431
vt 0.824278 0.466207
vt 0.539013 0.555602
vt 0.543890 0.587829
vt 0.826850 0.469511
vt 0.822398 0.469695
vt 0.265809 0.613318
vt 0.433853 0.608265
vt 0.538925 0.553958
vt 0.542351 0.553837
vt 0.436150 0.608195
vt 0.598901 0.405553
vt 0.447783 0.519788
vt 0.552430 0.555132
vt 0.547374 0.553661
vt 0.598902 0.405553
vt 0.396105 0.495045
vt 0.392076 0.497547
s 1
f 45/1/1 44/2/1 143/2/1 144/1/1
f 22/3/2 24/4/2 121/4/2 119/3/2
f 56/5/3 54/6/3 153/6/3 155/5/3
f 5/7/3 10/8/3 106/8/3 102/7/3
f 94/9/4 97/10/5 195/10/5 193/9/6
f 57/11/7 56/5/1 155/5/1 156/11/7
f 9/12/8 8/13/8 104/13/8 107/12/8
f 7/14/1 6/15/1 103/15/1 105/14/1
f 80/16/2 82/17/2 181/17/2 179/16/2
f 55/18/9 94/9/4 193/9/6 154/18/9
f 42/19/3 40/20/3 139/20/3 141/19/3
f 82/17/8 83/21/8 182/21/8 181/17/8
f 41/22/8 43/23/8 142/23/8 140/22/8
f 54/6/3 49/24/3 148/24/3 153/6/3
f 95/25/10 57/11/7 156/11/7 194/25/10
f 68/26/1 61/27/1 159/27/1 168/26/1
f 20/28/2 22/3/2 119/3/2 116/28/2
f 51/29/8 55/18/8 154/18/8 150/29/8
f 63/30/2 69/31/2 167/31/2 161/30/2
f 69/31/8 68/26/8 168/26/8 167/31/8
f 21/32/11 18/33/11 114/33/11 118/32/11
f 70/34/2 80/16/2 179/16/2 169/34/2
f 40/20/3 38/35/3 137/35/3 139/20/3
f 81/36/1 72/37/1 171/37/1 180/36/1
f 34/38/3 37/38/3 127/38/3 128/38/3
f 239/39/1 66/40/1 166/40/1 240/39/1
f 53/41/8 50/42/8 149/42/8 151/41/8
f 92/43/2 90/44/2 190/44/2 192/43/2
f 17/45/3 19/46/3 117/46/3 115/45/3
f 91/47/1 93/48/1 191/48/1 189/47/1
f 48/49/3 52/50/3 152/50/3 147/49/3
f 1/51/1 7/14/1 105/14/1 98/51/1
f 93/48/3 92/43/3 192/43/3 191/48/3
f 233/52/2 62/53/2 162/53/2 235/52/2
f 66/40/3 67/54/3 165/54/3 166/40/3
f 204/55/3 79/38/3 178/38/3 208/55/3
f 52/50/2 53/41/2 151/41/2 152/50/2
f 8/13/2 3/56/2 101/56/2 104/13/2
f 19/46/2 20/28/2 116/28/2 117/46/2
f 135/38/2 133/38/2 131/38/2 130/38/2
f 201/57/8 74/58/8 173/58/8 205/57/8
f 135/38/2 136/59/2 134/59/2 133/38/2
f 129/38/8 132/38/8 29/38/8 126/38/8
f 65/60/8 63/30/8 161/30/8 163/60/8
f 35/38/3 36/38/3 32/38/3 33/38/3
f 130/38/8 131/38/8 30/38/8 31/38/8
f 178/38/1 79/38/1 132/38/1 129/38/1
f 37/38/3 34/38/3 36/38/3 35/38/3
f 11/61/2 12/62/2 109/62/2 108/61/2
f 44/2/3 42/19/3 141/19/3 143/2/3
f 10/8/3 11/61/3 108/61/3 106/8/3
f 72/37/1 73/63/1 172/63/1 171/37/1
f 59/64/1 58/65/1 158/65/1 157/64/1
f 84/66/3 81/36/3 180/36/3 184/66/3
f 25/67/11 23/68/11 120/68/11 122/67/11
f 83/21/8 85/69/8 183/69/8 182/21/8
f 31/38/2 30/38/2 33/38/2 32/38/2
f 46/70/8 47/71/8 145/71/8 146/70/8
f 24/4/2 26/72/2 123/72/2 121/4/2
f 126/38/1 29/38/1 128/38/1 127/38/1
f 87/73/1 86/74/1 186/74/1 185/73/1
f 58/65/3 60/75/3 160/75/3 158/65/3
f 39/76/2 46/70/2 146/70/2 138/76/2
f 12/62/2 14/77/2 111/77/2 109/62/2
f 61/27/8 59/64/8 157/64/8 159/27/8
f 28/78/8 27/79/12 124/79/12 125/78/8
f 13/80/1 9/12/1 107/12/1 110/80/1
f 47/71/1 41/22/1 140/22/1 145/71/1
f 85/69/8 87/73/8 185/73/8 183/69/8
f 73/63/1 75/81/1 174/81/1 172/63/1
f 26/72/2 28/78/2 125/78/2 123/72/2
f 74/58/2 71/82/2 170/82/2 173/58/2
f 16/83/8 15/84/8 112/84/8 113/83/8
f 49/24/1 45/1/1 144/1/1 148/24/1
f 196/85/13 187/86/13 89/86/13 96/85/13
f 91/47/14 189/47/14 195/10/14 97/10/14
f 43/23/2 48/49/2 147/49/2 142/23/2
f 78/59/8 177/59/8 134/59/8 136/59/8
f 86/74/1 89/86/1 187/86/1 186/74/1
f 77/87/3 76/88/3 175/88/3 176/87/3
f 39/76/8 138/76/8 99/10/8 2/10/8
f 88/89/2 84/66/2 184/66/2 188/89/2
f 50/42/8 51/29/8 150/29/8 149/42/8
f 3/56/2 4/90/2 100/90/2 101/56/2
f 64/91/2 65/60/2 163/60/2 164/91/2
f 75/81/1 77/87/1 176/87/1 174/81/1
f 14/77/3 17/45/3 115/45/3 111/77/3
f 194/25/15 196/85/15 96/85/15 95/25/15
f 18/33/8 16/83/8 113/83/8 114/33/8
f 190/44/2 90/44/2 88/89/2 188/89/2
f 62/53/3 64/91/3 164/91/3 162/53/3
f 6/15/3 5/7/3 102/7/3 103/15/3
f 1/51/3 98/51/3 137/35/3 38/35/3
f 120/68/8 23/68/8 198/68/8 200/68/8
f 21/32/3 118/32/3 199/32/3 197/32/3
f 78/59/8 202/92/8 206/92/8 177/59/8
f 76/88/3 203/93/3 207/93/3 175/88/3
f 247/10/1 245/10/1 211/10/1 209/10/1
f 25/67/16 122/67/16 170/82/16 71/82/16
f 209/10/3 211/10/3 222/10/3 221/10/3
f 248/90/2 246/90/2 210/90/2 212/90/2
f 215/10/8 216/90/8 214/90/8 213/10/8
f 217/90/2 218/90/2 220/90/2 219/90/2
f 214/90/8 216/90/8 219/90/8 220/90/8
f 212/90/3 210/90/3 218/90/3 217/90/3
f 221/10/1 222/10/1 224/10/1 223/10/1
f 215/10/8 213/10/8 223/10/8 224/10/8
f 208/55/17 206/92/17 202/92/17 204/55/17
f 207/93/18 203/93/18 201/57/18 205/57/18
f 100/90/2 4/90/2 229/90/2 232/90/2
f 227/10/3 230/90/3 231/94/3 226/10/3
f 2/10/1 99/10/1 225/10/1 228/10/1
f 228/10/8 225/10/8 232/90/8 229/90/8
f 237/95/2 233/52/2 235/52/2 238/95/2
f 60/75/1 234/96/1 236/96/1 160/75/1
f 67/54/2 237/95/2 238/95/2 165/54/2
f 234/96/1 239/39/1 240/39/1 236/96/1
f 231/94/2 230/90/2 242/90/2 244/90/2
f 227/10/1 226/10/1 241/10/1 243/10/1
f 169/34/19 124/79/12 27/79/12 70/34/19
f 244/90/2 242/90/2 246/90/2 248/90/2
f 243/10/1 241/10/1 245/10/1 247/10/1
f 235/52/20 245/10/20 247/10/20 233/52/20
f 238/95/3 237/95/3 243/10/3 241/10/3
f 112/84/1 15/84/1 13/80/1 110/80/1
f 197/32/11 199/32/11 200/68/11 198/68/11
