# Blender 4.5.0
# www.blender.org
mtllib geometry_map_roof_2.mtl
o Roof2
v 6.485558 19.547050 14.872062
v 6.485558 19.547050 16.888184
v 27.040401 19.547050 16.888184
v 27.040401 19.547049 5.075286
v 29.508617 19.547049 5.075286
v 29.508617 19.547047 -17.708248
v -28.120222 19.547050 14.872062
v -28.120222 19.547049 -1.302361
v -32.550354 19.547049 -1.302361
v 2.083418 19.393650 -17.492809
v 2.083418 19.393650 -23.127789
v -11.415421 19.393650 -23.127789
v -11.415421 19.393650 -21.840691
v -32.387512 19.393650 -21.811073
v 6.485558 18.872591 14.872062
v 6.485558 18.872591 16.888184
v 27.040401 18.872591 16.888184
v 27.040401 18.872589 5.075286
v 29.508617 18.872589 5.075286
v 29.508617 18.872587 -17.708248
v -28.120222 18.872591 14.872062
v -28.120222 18.872589 -1.302361
v -32.550354 18.872589 -1.302361
v 2.083418 18.719191 -17.492809
v 2.083418 18.719191 -23.127789
v -11.415421 18.719191 -23.127789
v -11.415421 18.719191 -21.840691
v -32.387512 18.719191 -21.811073
vn -0.0000 1.0000 -0.0000
vn 0.0001 1.0000 0.0002
vn -0.0023 1.0000 -0.0037
vn -0.0011 1.0000 -0.0007
vn -0.0023 1.0000 -0.0030
vn 0.0015 1.0000 -0.0033
vn 0.0015 1.0000 -0.0030
vn -0.0014 1.0000 -0.0022
vn 0.0027 1.0000 -0.0031
vn -0.0000 1.0000 -0.0011
vn -0.0003 1.0000 -0.0078
vn -0.0000 -1.0000 -0.0000
vn 0.0023 -1.0000 0.0037
vn -0.0001 -1.0000 -0.0002
vn 0.0024 -1.0000 0.0030
vn 0.0011 -1.0000 0.0007
vn -0.0015 -1.0000 0.0033
vn -0.0016 -1.0000 0.0030
vn 0.0014 -1.0000 0.0023
vn -0.0027 -1.0000 0.0031
vn -0.0000 -1.0000 0.0012
vn 0.0003 -1.0000 0.0078
vn -1.0000 -0.0000 -0.0079
vn -0.0000 -0.0000 1.0000
vn -1.0000 -0.0000 -0.0000
vn -0.0014 -0.0000 -1.0000
vn -0.0000 -0.0000 -1.0000
vn 1.0000 -0.0000 -0.0000
vn -0.0079 -0.0000 -1.0000
vt 0.000000 0.000000
s 1
f 2/1/1 3/1/1 4/1/2 1/1/3
f 1/1/3 4/1/2 6/1/4 10/1/5
f 5/1/1 6/1/4 4/1/2
f 7/1/6 1/1/3 10/1/5 8/1/7
f 11/1/8 9/1/9 8/1/7 10/1/5
f 12/1/1 13/1/10 11/1/8
f 14/1/11 9/1/9 11/1/8 13/1/10
f 16/1/12 15/1/13 18/1/14 17/1/12
f 15/1/13 24/1/15 20/1/16 18/1/14
f 19/1/12 18/1/14 20/1/16
f 21/1/17 22/1/18 24/1/15 15/1/13
f 25/1/19 24/1/15 22/1/18 23/1/20
f 26/1/12 25/1/19 27/1/21
f 28/1/22 27/1/21 25/1/19 23/1/20
f 14/1/23 28/1/23 23/1/23 9/1/23
f 9/1/24 23/1/24 22/1/24 8/1/24
f 8/1/25 22/1/25 21/1/25 7/1/25
f 7/1/24 21/1/24 15/1/24 1/1/24
f 2/1/25 1/1/25 15/1/25 16/1/25
f 3/1/24 2/1/24 16/1/24 17/1/24
f 14/1/26 13/1/26 27/1/26 28/1/26
f 13/1/25 12/1/25 26/1/25 27/1/25
f 12/1/27 11/1/27 25/1/27 26/1/27
f 11/1/28 10/1/28 24/1/28 25/1/28
f 10/1/29 6/1/29 20/1/29 24/1/29
f 6/1/28 5/1/28 19/1/28 20/1/28
f 5/1/24 4/1/24 18/1/24 19/1/24
f 4/1/28 3/1/28 17/1/28 18/1/28
