# Blender 4.5.1 LTS
# www.blender.org
mtllib Geometry_Computer_UV.mtl
o Screan
v 0.087916 0.649972 -1.511147
v 0.461181 1.624587 -1.822540
v 0.086046 0.649972 -0.825834
v 0.457605 1.624587 -0.510873
v -0.724859 0.585311 -1.915897
v -0.724859 1.689251 -1.915897
v -0.728915 0.585309 -0.428877
v -0.728915 1.689251 -0.428877
v -0.752367 1.724010 -0.382856
v -0.752367 0.550552 -0.382856
v -0.748061 0.550552 -1.962138
v -0.748061 1.724010 -1.962139
v -0.504293 0.550552 -0.381669
v -0.504293 1.724010 -0.381669
v -0.499984 0.550552 -1.960951
v -0.499984 1.724010 -1.960951
v -0.231878 0.649972 -0.827353
v -0.329456 1.624587 -1.826328
v -0.333035 1.624587 -0.514657
v -0.230012 0.649972 -1.512670
v 0.457605 0.649972 -0.510873
v 0.461181 0.649972 -1.822540
v -0.333035 0.649972 -0.514657
v -0.329456 0.649972 -1.826328
v 0.086046 0.467567 -0.825834
v 0.087916 0.467567 -1.511147
v -0.231878 0.467567 -0.827353
v -0.230012 0.467567 -1.512670
v 0.169224 0.399465 -0.645076
v 0.172076 0.399465 -1.691101
v -0.316039 0.399465 -0.647399
v -0.313187 0.399465 -1.693424
v 0.217019 0.336926 -0.541213
v 0.220439 0.336926 -1.794504
v -0.364402 0.336926 -0.543995
v -0.360982 0.336926 -1.797290
v 0.217019 0.246406 -0.541213
v 0.220439 0.246405 -1.794504
v -0.364402 0.246406 -0.543995
v -0.360982 0.246405 -1.797290
vn 1.0000 -0.0000 0.0027
vn -0.0048 -0.0000 1.0000
vn -1.0000 -0.0000 -0.0027
vn 0.0048 -0.0000 -1.0000
vn -0.0000 -1.0000 -0.0000
vn -0.0000 1.0000 -0.0000
vn -0.8910 -0.0000 -0.4540
vn -0.8303 0.5573 -0.0023
vn -0.8303 -0.5572 -0.0023
vn -0.8938 -0.0000 0.4485
vn 0.5029 -0.8644 0.0014
vn 0.6133 -0.0000 0.7898
vn 0.5029 0.8644 0.0014
vn 0.6196 -0.0000 -0.7849
vn 0.6313 0.7756 0.0017
vn -0.7928 0.6095 -0.0022
vn -0.6313 0.7756 -0.0017
vn -0.0017 0.9355 0.3532
vn 0.0017 0.9355 -0.3533
vn -0.0025 0.8562 0.5167
vn 0.0025 0.8562 -0.5167
vn 0.7928 0.6095 0.0022
vt 0.674315 0.050348
vt 0.674315 0.177150
vt 0.439408 0.177150
vt 0.439408 0.050348
vt 0.092324 0.290685
vt 0.092324 0.531195
vt 0.031084 0.531195
vt 0.031084 0.290685
vt 0.960537 0.055441
vt 0.960537 0.184328
vt 0.724827 0.184328
vt 0.724827 0.055441
vt 0.135484 0.311062
vt 0.135484 0.510818
vt 0.330663 0.510818
vt 0.330663 0.311062
vt 0.694471 0.286931
vt 0.694696 0.230359
vt 0.993708 0.231341
vt 0.993483 0.287914
vt 0.504823 0.311673
vt 0.649341 0.311099
vt 0.649994 0.510157
vt 0.505477 0.510731
vt 0.967832 0.051383
vt 0.967831 0.188386
vt 0.717497 0.051383
vt 0.717497 0.188386
vt 0.428174 0.291671
vt 0.473519 0.291491
vt 0.474307 0.531162
vt 0.428962 0.531342
vt 0.719650 0.325985
vt 0.967994 0.326801
vt 0.032147 0.290685
vt 0.032147 0.531195
vt 0.093387 0.531195
vt 0.093387 0.290685
vt 0.134601 0.311062
vt 0.134601 0.510818
vt 0.329780 0.311062
vt 0.329780 0.510818
vt 0.610374 0.293670
vt 0.538457 0.293670
vt 0.538457 0.259412
vt 0.610374 0.259413
vt 0.778567 0.421554
vt 0.908320 0.421980
vt 0.967277 0.507101
vt 0.718934 0.506285
vt 0.778854 0.349053
vt 0.908608 0.349479
vt 0.266904 0.257234
vt 0.166421 0.257234
vt 0.139918 0.248943
vt 0.293289 0.248943
vt 0.266904 0.279439
vt 0.166421 0.279439
vt 0.166644 0.279439
vt 0.267127 0.279439
vt 0.267127 0.257234
vt 0.166644 0.257234
vt 0.538879 0.293670
vt 0.610797 0.293670
vt 0.610797 0.259413
vt 0.538879 0.259412
vt 0.140259 0.248943
vt 0.293630 0.248943
vt 0.308859 0.241330
vt 0.125097 0.241330
vt 0.629834 0.246622
vt 0.520064 0.246622
vt 0.519419 0.246622
vt 0.629189 0.246622
vt 0.640001 0.234877
vt 0.508479 0.234877
vt 0.508479 0.217876
vt 0.640001 0.217876
vt 0.640774 0.234877
vt 0.509252 0.234877
vt 0.124689 0.241330
vt 0.308450 0.241330
vt 0.124689 0.230311
vt 0.308450 0.230311
vt 0.308859 0.230311
vt 0.125097 0.230311
vt 0.640774 0.217876
vt 0.509252 0.217876
s 1
usemtl Material.005
f 22/1/1 2/2/1 4/3/1 21/4/1
f 13/5/2 14/6/2 9/7/2 10/8/2
f 7/9/3 8/10/3 6/11/3 5/12/3
f 24/13/4 18/14/4 2/15/4 22/16/4
f 13/17/5 10/18/5 11/19/5 15/20/5
f 19/21/6 4/22/6 2/23/6 18/24/6
f 8/10/7 7/9/7 10/25/7 9/26/7
f 7/9/8 5/12/8 11/27/8 10/25/8
f 6/11/9 8/10/9 9/26/9 12/28/9
f 5/12/10 6/11/10 12/28/10 11/27/10
f 9/29/6 14/30/6 16/31/6 12/32/6
f 23/33/11 13/17/11 15/20/11 24/34/11
f 11/35/4 12/36/4 16/37/4 15/38/4
f 23/39/12 19/40/12 14/6/12 13/5/12
f 21/41/2 4/42/2 19/40/2 23/39/2
f 20/43/4 1/44/4 26/45/4 28/46/4
f 14/30/13 19/21/13 18/24/13 16/31/13
f 15/38/14 16/37/14 18/14/14 24/13/14
f 3/47/5 1/48/5 22/49/5 21/50/5
f 17/51/5 3/47/5 21/50/5 23/33/5
f 1/48/5 20/52/5 24/34/5 22/49/5
f 20/52/5 17/51/5 23/33/5 24/34/5
f 26/53/15 25/54/15 29/55/15 30/56/15
f 1/57/1 3/58/1 25/54/1 26/53/1
f 17/59/3 20/60/3 28/61/3 27/62/3
f 3/63/2 17/64/2 27/65/2 25/66/2
f 31/67/16 32/68/16 36/69/16 35/70/16
f 27/62/17 28/61/17 32/68/17 31/67/17
f 25/66/18 27/65/18 31/71/18 29/72/18
f 28/46/19 26/45/19 30/73/19 32/74/19
f 36/75/4 34/76/4 38/77/4 40/78/4
f 29/72/20 31/71/20 35/79/20 33/80/20
f 32/74/21 30/73/21 34/76/21 36/75/21
f 30/56/22 29/55/22 33/81/22 34/82/22
f 34/82/1 33/81/1 37/83/1 38/84/1
f 35/70/3 36/69/3 40/85/3 39/86/3
f 33/80/2 35/79/2 39/87/2 37/88/2
o PC
v -1.189359 0.203380 -3.647567
v -1.189359 1.802475 -3.647568
v -1.191633 0.203380 -2.908624
v -1.191633 1.802475 -2.908625
v 0.407453 0.203380 -2.901834
v 0.409727 0.203380 -3.640776
v 0.409727 1.802475 -3.640776
v 0.407453 1.802475 -2.901834
vn -0.0042 -0.0000 1.0000
vn -1.0000 -0.0000 -0.0031
vn 0.0042 -0.0000 -1.0000
vn -0.0000 1.0000 -0.0000
vn 1.0000 -0.0000 0.0031
vt 0.430683 0.548849
vt 0.430683 0.807690
vt 0.604263 0.807690
vt 0.604263 0.548849
vt 0.777202 0.991716
vt 0.777202 0.530167
vt 0.642638 0.530167
vt 0.642638 0.991716
vt 0.604016 0.548849
vt 0.604016 0.807690
vt 0.430437 0.807690
vt 0.430437 0.548849
vt 0.826205 0.533141
vt 0.824836 0.988380
vt 0.973708 0.989028
vt 0.975077 0.533788
vt 0.607210 0.979389
vt 0.392889 0.979389
vt 0.392889 0.829249
vt 0.607210 0.829249
s 1
usemtl Material.005
f 45/89/23 48/90/23 44/91/23 43/92/23
f 43/93/24 44/94/24 42/95/24 41/96/24
f 41/97/25 42/98/25 47/99/25 46/100/25
f 44/101/26 48/102/26 47/103/26 42/104/26
f 48/105/27 45/106/27 46/107/27 47/108/27
o Mouse
v -1.120491 0.261862 0.134581
v -1.133446 0.305427 0.148283
v -1.121569 0.261860 0.433318
v -1.134156 0.305390 0.419794
v -1.638322 0.268077 0.160500
v -1.638322 0.336055 0.160500
v -1.639202 0.268075 0.403657
v -1.639202 0.336055 0.403657
v -1.371408 0.261860 0.432411
v -1.358724 0.350549 0.418980
v -1.370327 0.261862 0.133677
v -1.357473 0.350512 0.147472
v -1.121032 0.261862 0.283948
v -1.133673 0.305390 0.285863
v -1.638762 0.268075 0.282077
v -1.638762 0.345376 0.282077
v -1.358240 0.350549 0.285052
v -1.133929 0.305427 0.281666
v -1.122720 0.300384 0.433312
v -1.370257 0.348681 0.432418
v -1.357953 0.350512 0.280856
v -1.369176 0.348681 0.133680
v -1.121642 0.300384 0.134574
v -1.369717 0.348681 0.283051
v -1.122180 0.300384 0.283945
v -1.527201 0.364291 0.431851
v -1.526600 0.261862 0.133113
v -1.527678 0.261860 0.431851
v -1.526120 0.364290 0.133113
v -1.526660 0.364290 0.282484
vn 0.9995 0.0298 0.0036
vn -0.2447 0.0007 0.9696
vn -1.0000 -0.0000 -0.0036
vn 0.0036 -0.0000 -1.0000
vn 0.1973 0.9803 0.0007
vn 0.0990 0.9951 0.0004
vn -0.0036 -0.0000 1.0000
vn 0.1971 0.9804 0.0007
vn 0.3995 0.9167 0.0014
vn 0.1875 0.9516 0.2434
vn -0.1606 0.9870 -0.0006
vn 0.1895 0.9527 -0.2375
vn -0.1540 0.9881 -0.0006
vn 0.3942 0.9190 0.0014
vn -0.2098 0.9772 0.0329
vn -0.2377 0.0007 -0.9713
vn -0.2095 0.9772 -0.0344
vt 0.071759 0.135290
vt 0.084141 0.135289
vt 0.084141 0.183296
vt 0.071759 0.183299
vt 0.107774 0.041106
vt 0.101973 0.076582
vt 0.076534 0.066803
vt 0.076534 0.043259
vt 0.224009 0.133281
vt 0.249156 0.133281
vt 0.246124 0.172831
vt 0.224010 0.172831
vt 0.151849 0.041107
vt 0.152172 0.071175
vt 0.221509 0.054449
vt 0.221831 0.041107
vt 0.158620 0.133227
vt 0.209228 0.133000
vt 0.209338 0.170257
vt 0.158728 0.170483
vt 0.120507 0.132772
vt 0.155962 0.132614
vt 0.156084 0.174336
vt 0.120629 0.174494
vt 0.108075 0.041107
vt 0.108210 0.076582
vt 0.221529 0.041106
vt 0.221207 0.054449
vt 0.151869 0.071176
vt 0.151546 0.041106
vt 0.120385 0.091051
vt 0.155840 0.090892
vt 0.158446 0.094646
vt 0.209177 0.094419
vt 0.209286 0.131828
vt 0.158555 0.132054
vt 0.224009 0.093730
vt 0.246124 0.093730
vt 0.071759 0.087282
vt 0.084141 0.087280
vt 0.211761 0.090643
vt 0.211883 0.132364
vt 0.218003 0.056182
vt 0.155099 0.071822
vt 0.155450 0.071810
vt 0.218202 0.056195
vt 0.212004 0.174086
vt 0.095083 0.098926
vt 0.095183 0.132886
vt 0.076781 0.043259
vt 0.076781 0.066803
vt 0.095282 0.166844
s 1
usemtl Material.005
f 61/109/28 73/110/28 67/111/28 51/112/28
f 76/113/29 74/114/29 56/115/29 55/116/29
f 63/117/30 64/118/30 54/119/30 53/120/30
f 59/121/31 70/122/31 71/123/31 49/124/31
f 69/125/32 66/126/32 50/127/32 60/128/32
f 78/129/33 72/130/33 70/131/33 77/132/33
f 75/133/31 77/134/31 70/122/31 59/121/31
f 51/135/34 67/136/34 68/137/34 57/138/34
f 74/139/33 68/140/33 72/130/33 78/129/33
f 58/141/35 52/142/35 62/143/35 65/144/35
f 55/145/30 56/146/30 64/118/30 63/117/30
f 49/147/28 71/148/28 73/110/28 61/109/28
f 62/143/36 52/142/36 67/149/36 73/150/36
f 52/151/37 58/152/37 68/137/37 67/136/37
f 58/141/38 65/144/38 72/130/38 68/140/38
f 60/153/39 50/154/39 71/123/39 70/122/39
f 69/125/40 60/128/40 70/131/40 72/130/40
f 50/127/41 66/126/41 73/150/41 71/155/41
f 56/156/42 74/139/42 78/129/42 64/157/42
f 53/158/43 54/159/43 77/134/43 75/133/43
f 64/157/44 78/129/44 77/132/44 54/160/44
f 57/138/34 68/137/34 74/114/34 76/113/34
o Keyboard
v -0.880499 0.362968 -2.089124
v -0.931877 0.467473 -2.048892
v -0.887323 0.362968 -0.201364
v -0.938408 0.467473 -0.241968
v -1.688205 0.280997 -2.092045
v -1.659159 0.393664 -2.051520
v -1.695026 0.280997 -0.204285
v -1.665690 0.393665 -0.244597
v -0.891519 0.471552 -2.089164
v -0.898343 0.471552 -0.201404
v -1.706045 0.389582 -0.204325
v -1.699225 0.389582 -2.092085
v -0.933305 0.481533 -2.048899
v -0.939836 0.481533 -0.241975
v -1.667117 0.407722 -0.244604
v -1.660586 0.407722 -2.051527
v -0.967178 0.300900 -0.201653
v -0.978198 0.463449 -0.201693
v -0.960358 0.300900 -2.089414
v -0.971377 0.463448 -2.089453
v -1.010312 0.460175 -0.242228
v -1.003784 0.460175 -2.049151
v -1.011739 0.474235 -0.242235
v -1.005208 0.474235 -2.049158
vn 0.9949 0.1010 0.0036
vn -0.0036 -0.0000 1.0000
vn -0.9949 -0.1010 -0.0036
vn 0.0036 -0.0000 -1.0000
vn 0.0273 -0.9996 0.0001
vn 0.0036 -0.0001 -1.0000
vn -0.1009 0.9949 -0.0004
vn -0.1010 0.9949 -0.0003
vn -0.1010 0.9949 -0.0004
vn -0.0036 0.0001 1.0000
vn -0.9948 -0.1015 -0.0036
vn 0.9949 0.1007 0.0036
vn 0.6137 -0.7896 0.0022
vt 0.350954 0.595144
vt 0.350959 0.612078
vt 0.110374 0.612078
vt 0.110369 0.595144
vt 0.018854 0.655896
vt 0.038570 0.655896
vt 0.037420 0.767814
vt 0.018449 0.767814
vt 0.357873 0.808775
vt 0.357867 0.831473
vt 0.130577 0.831473
vt 0.102609 0.808775
vt 0.038570 0.643330
vt 0.018854 0.643330
vt 0.078134 0.961624
vt 0.078537 0.850341
vt 0.367162 0.851384
vt 0.366760 0.962667
vt 0.083246 0.762325
vt 0.084762 0.646712
vt 0.092473 0.651330
vt 0.090982 0.762325
vt 0.070638 0.791341
vt 0.386941 0.791341
vt 0.394017 0.799868
vt 0.063563 0.799868
vt 0.386941 0.776093
vt 0.386941 0.637112
vt 0.394016 0.628585
vt 0.394016 0.782934
vt 0.070638 0.637112
vt 0.063563 0.628584
vt 0.070638 0.776092
vt 0.063563 0.782933
vt 0.355425 0.757111
vt 0.355425 0.768282
vt 0.106846 0.768282
vt 0.106846 0.757111
vt 0.376644 0.768896
vt 0.376644 0.782756
vt 0.368674 0.777753
vt 0.368674 0.768896
vt 0.376346 0.646712
vt 0.368451 0.651330
vt 0.083246 0.782756
vt 0.090982 0.777753
vt 0.355150 0.660793
vt 0.107175 0.660793
vt 0.078090 0.973834
vt 0.366716 0.974877
vt 0.018384 0.767814
s 1
usemtl Material.005
f 79/161/45 87/162/45 88/163/45 81/164/45
f 95/165/46 96/166/46 89/167/46 85/168/46
f 85/169/47 89/170/47 90/171/47 83/172/47
f 97/165/48 98/166/48 87/173/48 79/174/48
f 95/175/49 85/176/49 83/177/49 97/178/49
f 100/179/50 84/180/50 94/181/50 102/182/50
f 80/183/51 82/184/51 88/185/51 87/186/51
f 99/187/52 86/188/53 89/189/53 96/190/52
f 86/188/53 84/191/53 90/192/53 89/189/53
f 100/193/53 80/183/51 87/186/51 98/194/53
f 101/195/53 92/196/53 91/197/53 102/198/53
f 99/199/54 82/200/54 92/201/54 101/202/54
f 84/180/55 86/203/55 93/204/55 94/181/55
f 82/200/56 80/205/56 91/206/56 92/201/56
f 86/203/54 99/199/54 101/202/54 93/204/54
f 93/207/53 101/195/53 102/198/53 94/208/53
f 84/191/53 100/193/53 98/194/53 90/192/53
f 82/184/51 99/187/52 96/190/52 88/185/51
f 80/205/50 100/179/50 102/182/50 91/206/50
f 81/209/57 95/175/57 97/178/57 79/210/57
f 83/211/48 90/167/48 98/166/48 97/165/48
f 81/174/46 88/173/46 96/166/46 95/165/46
o Mouse.001
v -1.225051 0.349513 0.295788
v -1.224971 0.349513 0.273126
v -1.251387 0.334306 0.295695
v -1.251307 0.334306 0.273032
v -1.251387 0.303896 0.295695
v -1.251307 0.303896 0.273032
v -1.225051 0.288691 0.295788
v -1.224971 0.288691 0.273126
v -1.198715 0.303896 0.295885
v -1.198632 0.303896 0.273222
v -1.198715 0.334306 0.295885
v -1.198632 0.334306 0.273222
vn -0.5000 0.8660 -0.0018
vn -1.0000 -0.0000 -0.0035
vn -0.5000 -0.8660 -0.0018
vn 0.5000 -0.8660 0.0018
vn 0.0036 -0.0000 -1.0000
vn 1.0000 -0.0000 0.0037
vn 0.5000 0.8660 0.0018
vn -0.0036 -0.0000 1.0000
vt 0.379167 0.045541
vt 0.379167 0.088691
vt 0.364783 0.088691
vt 0.364783 0.045541
vt 0.350400 0.088691
vt 0.350400 0.045541
vt 0.336017 0.088691
vt 0.336017 0.045541
vt 0.321633 0.088691
vt 0.321633 0.045541
vt 0.337705 0.120821
vt 0.327349 0.138758
vt 0.306637 0.138758
vt 0.296281 0.120821
vt 0.306637 0.102884
vt 0.327349 0.102884
vt 0.307250 0.088691
vt 0.307250 0.045541
vt 0.292867 0.088691
vt 0.292867 0.045541
vt 0.337743 0.120821
vt 0.348099 0.138758
vt 0.368811 0.138758
vt 0.379167 0.120821
vt 0.368811 0.102884
vt 0.348099 0.102884
s 1
usemtl Material.005
f 103/212/58 104/213/58 106/214/58 105/215/58
f 105/215/59 106/214/59 108/216/59 107/217/59
f 107/217/60 108/216/60 110/218/60 109/219/60
f 109/219/61 110/218/61 112/220/61 111/221/61
f 106/222/62 104/223/62 114/224/62 112/225/62 110/226/62 108/227/62
f 111/221/63 112/220/63 114/228/63 113/229/63
f 113/229/64 114/228/64 104/230/64 103/231/64
f 103/232/65 105/233/65 107/234/65 109/235/65 111/236/65 113/237/65
