# Blender 5.1.2
# www.blender.org
mtllib props_knife.mtl
o Cube.014
v -0.078737 0.016496 0.018757
v -0.041850 0.028083 0.018757
v -0.078737 0.014127 -0.013606
v -0.078737 0.023501 -0.013606
v 0.358491 0.005208 0.018757
v 0.358491 0.032420 0.018757
v 0.363642 0.000057 -0.018757
v 0.363642 0.037572 -0.018757
v -0.041850 0.009546 -0.018757
v -0.041850 0.009546 0.018757
v -0.078737 0.021133 0.018757
v -0.041850 0.028083 -0.018757
v 0.363642 0.037572 0.018757
v 0.363642 0.000057 0.018757
v -0.299337 0.016496 0.018757
v -0.299337 0.021133 0.018757
v -0.299337 0.014127 -0.013606
v -0.299337 0.023501 -0.013606
v 0.280670 0.001998 -0.018757
v 0.280670 0.035630 -0.018757
v 0.280670 0.001998 0.018757
v 0.280670 0.035630 0.018757
v 0.269024 0.007518 0.018757
v 0.269024 0.030111 0.018757
vn -0.0000 -0.0000 -1.0000
vn 1.0000 -0.0000 -0.0000
vn -0.0000 -0.0000 1.0000
vn -0.0234 -0.9997 -0.0000
vn -0.0234 0.9997 -0.0000
vn -0.1521 -0.9878 0.0335
vn -0.1521 0.9878 0.0335
vn -0.1383 -0.0000 -0.9904
vn -1.0000 -0.0000 -0.0000
vn -0.0000 -0.9973 0.0730
vn -0.0000 0.9973 0.0730
vt 0.108680 0.196782
vt 0.108680 0.200195
vt 0.028357 0.200195
vt 0.028357 0.196782
vt 0.239675 0.204612
vt 0.239675 0.192366
vt 0.269886 0.191659
vt 0.269886 0.205319
vt 0.026247 0.214662
vt 0.032030 0.214662
vt 0.032030 0.223815
vt 0.026247 0.223815
vt 0.235304 0.176054
vt 0.235304 0.184280
vt 0.108680 0.181011
vt 0.108680 0.179323
vt 0.386439 0.214663
vt 0.410459 0.214663
vt 0.410459 0.223815
vt 0.386439 0.223815
vt 0.056050 0.214662
vt 0.149417 0.214662
vt 0.149417 0.223815
vt 0.056050 0.223815
vt 0.286356 0.223815
vt 0.286356 0.214663
vt 0.293071 0.214663
vt 0.293071 0.223815
vt 0.156133 0.214662
vt 0.156133 0.223815
vt 0.122241 0.195114
vt 0.122241 0.201863
vt 0.267880 0.185121
vt 0.267880 0.175213
vt 0.269756 0.173338
vt 0.269756 0.186997
vt 0.122111 0.176793
vt 0.239544 0.174044
vt 0.239544 0.186290
vt 0.224136 0.223815
vt 0.218353 0.223815
vt 0.218353 0.214663
vt 0.224136 0.214663
vt 0.028357 0.181011
vt 0.028357 0.179323
vt 0.122111 0.183542
s 0
usemtl Utililities
f 4/1/1 3/2/1 17/3/1 18/4/1
f 19/5/1 20/6/1 8/7/1 7/8/1
f 7/9/2 8/10/2 13/11/2 14/12/2
f 23/13/3 24/14/3 11/15/3 1/16/3
f 19/17/4 7/18/4 14/19/4 21/20/4
f 20/21/5 12/22/5 2/23/5 22/24/5
f 1/25/6 3/26/6 9/27/6 10/28/6
f 4/29/7 11/30/7 2/23/7 12/22/7
f 3/2/8 4/1/8 12/31/8 9/32/8
f 6/33/3 5/34/3 14/35/3 13/36/3
f 23/13/3 1/16/3 10/37/3 21/38/3
f 24/14/3 6/33/3 13/36/3 22/39/3
f 15/40/9 16/41/9 18/42/9 17/43/9
f 1/16/3 11/15/3 16/44/3 15/45/3
f 3/26/10 1/25/10 15/40/10 17/43/10
f 11/30/11 4/29/11 18/42/11 16/41/11
f 11/15/3 24/14/3 22/39/3 2/46/3
f 5/34/3 23/13/3 21/38/3 14/35/3
f 8/10/5 20/21/5 22/24/5 13/11/5
f 9/27/4 19/17/4 21/20/4 10/28/4
f 5/34/3 6/33/3 24/14/3 23/13/3
f 9/32/1 12/31/1 20/6/1 19/5/1
