# Blender 5.1.2
# www.blender.org
mtllib round_table.mtl
o table
v 0.191786 0.375593 -0.135755
v 0.191786 0.700523 -0.135755
v 0.486320 0.375593 -0.135755
v 0.486320 0.700523 -0.135755
v 0.191786 0.375593 0.109881
v 0.191786 0.700523 0.109881
v 0.486320 0.375593 0.109881
v 0.486320 0.700523 0.109881
v 0.797094 0.540498 -0.135755
v 0.667414 0.320080 -0.135755
v 0.667414 0.320080 0.109881
v 0.797094 0.540498 0.109881
v 0.991627 0.408119 -0.135755
v 0.826985 0.195804 -0.135755
v 0.826985 0.195804 0.109881
v 0.991627 0.408119 0.109881
v 1.092085 0.212828 -0.135755
v 0.900235 0.090585 -0.135755
v 0.900235 0.090585 0.109881
v 1.092085 0.212828 0.109881
v 1.194711 0.000174 -0.135755
v 0.977675 0.000174 -0.135755
v 0.977675 0.000174 0.109881
v 1.194711 0.000174 0.109881
v -0.191786 0.375593 -0.135755
v -0.191786 0.700523 -0.135755
v -0.486320 0.375593 -0.135755
v -0.486320 0.700523 -0.135755
v -0.191786 0.375593 0.109881
v -0.191786 0.700523 0.109881
v -0.486320 0.375593 0.109881
v -0.486320 0.700523 0.109881
v -0.797094 0.540498 -0.135755
v -0.667414 0.320080 -0.135755
v -0.667414 0.320080 0.109881
v -0.797094 0.540498 0.109881
v -0.991627 0.408119 -0.135755
v -0.826985 0.195804 -0.135755
v -0.826985 0.195804 0.109881
v -0.991627 0.408119 0.109881
v -1.092085 0.212828 -0.135755
v -0.900235 0.090585 -0.135755
v -0.900235 0.090585 0.109881
v -1.092085 0.212828 0.109881
v -1.194711 0.000174 -0.135755
v -0.977675 0.000174 -0.135755
v -0.977675 0.000174 0.109881
v -1.194711 0.000174 0.109881
v -0.017269 2.499997 -2.129451
v -0.017269 2.258706 -2.129451
v 1.487424 2.499997 -1.506186
v 1.487424 2.258706 -1.506186
v 2.110688 2.499997 -0.001494
v 2.110688 2.258706 -0.001494
v 1.487424 2.499997 1.503199
v 1.487424 2.258706 1.503199
v -0.017269 2.499997 2.126463
v -0.017269 2.258706 2.126463
v -1.521962 2.499997 1.503199
v -1.521962 2.258706 1.503199
v -2.145226 2.499997 -0.001494
v -2.145226 2.258706 -0.001494
v -1.521962 2.499997 -1.506186
v -1.521962 2.258706 -1.506186
v 0.000000 1.432374 -0.218215
v 0.000000 2.353735 -0.218215
v 0.145153 1.432374 -0.158091
v 0.145153 2.353735 -0.158091
v 0.205277 1.432374 -0.012937
v 0.205277 2.353735 -0.012937
v 0.145153 1.432374 0.132216
v 0.145153 2.353735 0.132216
v -0.000000 1.432374 0.192340
v -0.000000 2.353735 0.192340
v -0.145153 1.432374 0.132216
v -0.145153 2.353735 0.132216
v -0.205277 1.432374 -0.012937
v -0.205277 2.353735 -0.012937
v -0.145153 1.432374 -0.158091
v -0.145153 2.353735 -0.158091
v 0.000000 1.739494 -0.319889
v 0.000000 2.064877 -0.218215
v 0.145153 2.064877 -0.158091
v 0.217048 1.739494 -0.229985
v 0.205277 2.064877 -0.012937
v 0.306952 1.739494 -0.012937
v 0.145153 2.064877 0.132216
v 0.217048 1.739494 0.204111
v -0.000000 2.064877 0.192340
v -0.000000 1.739494 0.294014
v -0.145153 2.064877 0.132216
v -0.217048 1.739494 0.204111
v -0.205277 2.064877 -0.012937
v -0.306952 1.739494 -0.012937
v -0.145153 2.064877 -0.158091
v -0.217048 1.739494 -0.229985
v 0.000000 1.372687 -0.218215
v 0.145153 1.372687 -0.158091
v 0.205277 1.372687 -0.012937
v 0.145153 1.372687 0.132216
v -0.000000 1.372687 0.192340
v -0.145153 1.372687 0.132216
v -0.205277 1.372687 -0.012937
v -0.145153 1.372687 -0.158091
v 0.000000 1.372687 -0.271823
v 0.183060 1.372687 -0.195997
v 0.258887 1.372687 -0.012937
v 0.183060 1.372687 0.170123
v -0.000000 1.372687 0.245948
v -0.183060 1.372687 0.170123
v -0.258887 1.372687 -0.012937
v -0.183060 1.372687 -0.195997
v 0.000000 0.705715 -0.271823
v 0.183060 0.705715 -0.195997
v 0.258887 0.705715 -0.012937
v 0.183060 0.705715 0.170123
v -0.000000 0.705715 0.245948
v -0.183060 0.705715 0.170123
v -0.258887 0.705715 -0.012937
v -0.183060 0.705715 -0.195997
v 0.000000 0.705715 -0.316417
v 0.214593 0.705715 -0.227530
v 0.303480 0.705715 -0.012937
v 0.214593 0.705715 0.201655
v -0.000000 0.705715 0.290542
v -0.214593 0.705715 0.201655
v -0.303480 0.705715 -0.012937
v -0.214593 0.705715 -0.227530
v 0.000000 0.374772 -0.316417
v 0.214593 0.374772 -0.227530
v 0.303480 0.374772 -0.012937
v 0.214593 0.374772 0.201655
v -0.000000 0.374772 0.290542
v -0.214593 0.374772 0.201655
v -0.303480 0.374772 -0.012937
v -0.214593 0.374772 -0.227530
v -0.122818 0.375593 -0.204724
v -0.122818 0.700523 -0.204724
v -0.122818 0.375593 -0.499257
v -0.122818 0.700523 -0.499257
v 0.122818 0.375593 -0.204724
v 0.122818 0.700523 -0.204724
v 0.122818 0.375593 -0.499257
v 0.122818 0.700523 -0.499257
v -0.122818 0.540498 -0.810030
v -0.122818 0.320080 -0.680351
v 0.122818 0.320080 -0.680351
v 0.122818 0.540498 -0.810030
v -0.122818 0.408119 -1.004564
v -0.122818 0.195804 -0.839923
v 0.122818 0.195804 -0.839923
v 0.122818 0.408119 -1.004564
v -0.122818 0.212828 -1.105023
v -0.122818 0.090585 -0.913171
v 0.122818 0.090585 -0.913171
v 0.122818 0.212828 -1.105023
v -0.122818 0.000174 -1.207648
v -0.122818 0.000174 -0.990612
v 0.122818 0.000174 -0.990612
v 0.122818 0.000174 -1.207648
v -0.122818 0.375593 0.178849
v -0.122818 0.700523 0.178849
v -0.122818 0.375593 0.473383
v -0.122818 0.700523 0.473383
v 0.122818 0.375593 0.178849
v 0.122818 0.700523 0.178849
v 0.122818 0.375593 0.473383
v 0.122818 0.700523 0.473383
v -0.122818 0.540498 0.784156
v -0.122818 0.320080 0.654476
v 0.122818 0.320080 0.654476
v 0.122818 0.540498 0.784156
v -0.122818 0.408119 0.978690
v -0.122818 0.195804 0.814048
v 0.122818 0.195804 0.814048
v 0.122818 0.408119 0.978690
v -0.122818 0.212828 1.079148
v -0.122818 0.090585 0.887297
v 0.122818 0.090585 0.887297
v 0.122818 0.212828 1.079148
v -0.122818 0.000174 1.181774
v -0.122818 0.000174 0.964738
v 0.122818 0.000174 0.964738
v 0.122818 0.000174 1.181774
vn -0.0000 -0.0000 -1.0000
vn -0.0000 -0.0000 1.0000
vn -0.0000 -1.0000 -0.0000
vn -0.0000 1.0000 -0.0000
vn -0.2931 -0.9561 -0.0000
vn 0.4578 0.8891 -0.0000
vn 0.8892 0.4574 -0.0000
vn -0.6144 -0.7890 -0.0000
vn 0.5626 0.8267 -0.0000
vn 0.9006 0.4346 -0.0000
vn -0.8207 -0.5713 -0.0000
vn -0.7595 -0.6505 -0.0000
vn 0.2931 -0.9561 -0.0000
vn -0.4578 0.8891 -0.0000
vn -0.8892 0.4574 -0.0000
vn 0.6144 -0.7890 -0.0000
vn -0.5626 0.8267 -0.0000
vn -0.9006 0.4346 -0.0000
vn 0.8207 -0.5713 -0.0000
vn 0.7595 -0.6505 -0.0000
vn 0.3827 -0.0000 -0.9239
vn 0.9239 -0.0000 -0.3827
vn 0.9239 -0.0000 0.3827
vn 0.3827 -0.0000 0.9239
vn -0.3827 -0.0000 0.9239
vn -0.9239 -0.0000 0.3827
vn -0.9239 -0.0000 -0.3827
vn -0.3827 -0.0000 -0.9239
vn -0.3659 -0.2925 -0.8835
vn -0.3677 0.2774 -0.8876
vn -0.8835 -0.2925 -0.3659
vn -0.8876 0.2774 -0.3677
vn -0.8835 -0.2925 0.3659
vn -0.8876 0.2774 0.3677
vn -0.3659 -0.2925 0.8835
vn -0.3677 0.2774 0.8876
vn 0.3659 -0.2925 0.8835
vn 0.3677 0.2774 0.8876
vn 0.8835 -0.2925 0.3659
vn 0.8876 0.2774 0.3677
vn 0.8835 -0.2925 -0.3659
vn 0.8876 0.2774 -0.3677
vn 0.3659 -0.2925 -0.8835
vn 0.3677 0.2774 -0.8876
vn -1.0000 -0.0000 -0.0000
vn 1.0000 -0.0000 -0.0000
vn -0.0000 -0.9561 0.2931
vn -0.0000 0.8891 -0.4578
vn -0.0000 0.4574 -0.8892
vn -0.0000 -0.7890 0.6144
vn -0.0000 0.8267 -0.5626
vn -0.0000 0.4346 -0.9006
vn -0.0000 -0.5713 0.8207
vn -0.0000 -0.6505 0.7595
vn -0.0000 -0.9561 -0.2931
vn -0.0000 0.8891 0.4578
vn -0.0000 0.4574 0.8892
vn -0.0000 -0.7890 -0.6144
vn -0.0000 0.8267 0.5626
vn -0.0000 0.4346 0.9006
vn -0.0000 -0.5713 -0.8207
vn -0.0000 -0.6505 -0.7595
vt 0.613045 0.013057
vt 0.683285 0.013057
vt 0.683285 0.066678
vt 0.613045 0.066678
vt 0.478855 0.066678
vt 0.549096 0.066678
vt 0.549096 0.115739
vt 0.478855 0.115739
vt 0.478855 0.013057
vt 0.549096 0.013057
vt 0.747235 0.066678
vt 0.747235 0.013057
vt 0.549096 0.155568
vt 0.478855 0.155568
vt 0.613045 0.115739
vt 0.747235 0.115739
vt 0.683285 0.115739
vt 0.683285 0.155568
vt 0.747235 0.155568
vt 0.747235 0.187229
vt 0.683285 0.187229
vt 0.613045 0.155568
vt 0.747235 0.219559
vt 0.683285 0.219559
vt 0.613045 0.187229
vt 0.549096 0.187229
vt 0.478855 0.187229
vt 0.613045 0.219559
vt 0.549096 0.219559
vt 0.478855 0.219559
vt 0.872429 0.452908
vt 0.872429 0.395240
vt 0.929758 0.395240
vt 0.929758 0.452908
vt 0.762905 0.395240
vt 0.762905 0.342476
vt 0.820234 0.342476
vt 0.820234 0.395240
vt 0.820234 0.452908
vt 0.762905 0.452908
vt 0.981952 0.395240
vt 0.981952 0.452908
vt 0.762905 0.299640
vt 0.820234 0.299640
vt 0.872429 0.342476
vt 0.929758 0.342476
vt 0.981952 0.342476
vt 0.929758 0.299640
vt 0.929758 0.265590
vt 0.981952 0.265590
vt 0.981952 0.299640
vt 0.872429 0.299640
vt 0.929758 0.230820
vt 0.981952 0.230820
vt 0.872429 0.265590
vt 0.762905 0.265590
vt 0.820234 0.265590
vt 0.872429 0.230820
vt 0.762905 0.230820
vt 0.820234 0.230820
vt 0.089613 0.923176
vt 0.089613 0.855179
vt 0.011260 0.855179
vt 0.011260 0.923176
vt 0.089613 0.787181
vt 0.011260 0.787181
vt 0.089613 0.719184
vt 0.011260 0.719184
vt 0.089613 0.651186
vt 0.011260 0.651186
vt 0.089613 0.583189
vt 0.011260 0.583189
vt 0.089613 0.515191
vt 0.011260 0.515191
vt 0.021820 0.138753
vt 0.023603 0.322950
vt 0.454297 0.141109
vt 0.330529 0.014241
vt 0.089613 0.451069
vt 0.011260 0.451069
vt 0.089613 0.988073
vt 0.011260 0.988074
vt 0.152826 0.011673
vt 0.021729 0.138662
vt 0.330529 0.014370
vt 0.023511 0.323170
vt 0.454077 0.141018
vt 0.153058 0.446284
vt 0.452496 0.310537
vt 0.329382 0.445307
vt 0.153370 0.446284
vt 0.452716 0.310316
vt 0.153138 0.011543
vt 0.596806 0.931150
vt 0.596806 0.987858
vt 0.517647 0.987858
vt 0.517647 0.931150
vt 0.438488 0.987858
vt 0.438488 0.931150
vt 0.359329 0.987858
vt 0.359329 0.931150
vt 0.280170 0.987858
vt 0.280170 0.931150
vt 0.201011 0.987858
vt 0.201011 0.931150
vt 0.121851 0.987858
vt 0.121851 0.931150
vt 0.755124 0.931150
vt 0.755124 0.987858
vt 0.675965 0.987858
vt 0.675965 0.931150
vt 0.675965 0.778021
vt 0.675965 0.853132
vt 0.596806 0.853132
vt 0.596806 0.778021
vt 0.755124 0.778021
vt 0.755124 0.853132
vt 0.201011 0.778021
vt 0.201011 0.853132
vt 0.121851 0.853132
vt 0.121851 0.778021
vt 0.280170 0.778021
vt 0.280170 0.853132
vt 0.359329 0.778021
vt 0.359329 0.853132
vt 0.438488 0.778021
vt 0.438488 0.853132
vt 0.517647 0.778021
vt 0.517647 0.853132
vt 0.438488 0.766303
vt 0.517647 0.766303
vt 0.201011 0.766303
vt 0.280170 0.766303
vt 0.596806 0.766303
vt 0.675965 0.766303
vt 0.359329 0.766303
vt 0.121851 0.766303
vt 0.755124 0.766303
vt 0.219282 0.627471
vt 0.132708 0.627471
vt 0.132708 0.604011
vt 0.219282 0.604011
vt 0.392431 0.627471
vt 0.305857 0.627471
vt 0.305857 0.604011
vt 0.392431 0.604011
vt 0.565580 0.627471
vt 0.479006 0.627471
vt 0.479006 0.604011
vt 0.565580 0.604011
vt 0.825303 0.627471
vt 0.738729 0.627471
vt 0.738729 0.604011
vt 0.825303 0.604011
vt 0.652154 0.627471
vt 0.652154 0.604011
vt 0.565580 0.473949
vt 0.652154 0.473949
vt 0.738729 0.473949
vt 0.132708 0.473949
vt 0.219282 0.473949
vt 0.305857 0.473949
vt 0.392431 0.473949
vt 0.479006 0.473949
vt 0.825303 0.473949
vt 0.883406 0.738424
vt 0.788592 0.738424
vt 0.788592 0.718005
vt 0.883406 0.718005
vt 0.314527 0.738424
vt 0.219713 0.738424
vt 0.219713 0.718005
vt 0.314527 0.718005
vt 0.504153 0.738424
vt 0.409340 0.738424
vt 0.409340 0.718005
vt 0.504153 0.718005
vt 0.693779 0.738424
vt 0.598966 0.738424
vt 0.598966 0.718005
vt 0.693779 0.718005
vt 0.124900 0.738424
vt 0.124900 0.718005
vt 0.504153 0.650481
vt 0.598966 0.650481
vt 0.788592 0.650481
vt 0.883406 0.650481
vt 0.219713 0.650481
vt 0.314527 0.650481
vt 0.409340 0.650481
vt 0.693779 0.650481
vt 0.124900 0.650481
vt 0.613045 0.013398
vt 0.683285 0.013530
vt 0.683285 0.066973
vt 0.613045 0.066841
vt 0.478855 0.066841
vt 0.549096 0.066841
vt 0.478855 0.013398
vt 0.549096 0.013398
vt 0.747235 0.067078
vt 0.747235 0.013635
vt 0.549096 0.155436
vt 0.478855 0.155436
vt 0.747235 0.115976
vt 0.683285 0.115871
vt 0.747235 0.155673
vt 0.683285 0.187124
vt 0.613045 0.155436
vt 0.747235 0.219451
vt 0.683285 0.219346
vt 0.613045 0.186992
vt 0.549096 0.186992
vt 0.478855 0.186992
vt 0.613045 0.219214
vt 0.549096 0.219214
vt 0.478855 0.219214
vt 0.872429 0.453008
vt 0.929758 0.453008
vt 0.762905 0.342384
vt 0.820234 0.395332
vt 0.820234 0.453101
vt 0.762905 0.453008
vt 0.981952 0.453008
vt 0.762905 0.299473
vt 0.820234 0.299566
vt 0.872429 0.342384
vt 0.929758 0.342384
vt 0.981952 0.342384
vt 0.929758 0.299473
vt 0.929758 0.265363
vt 0.981952 0.265363
vt 0.981952 0.299473
vt 0.872429 0.299473
vt 0.929758 0.230533
vt 0.981952 0.230533
vt 0.872429 0.265363
vt 0.762905 0.265363
vt 0.820234 0.265455
vt 0.872429 0.230533
vt 0.762905 0.230533
vt 0.820234 0.230625
s 0
usemtl Material.003
f 1/1/1 2/2/1 4/3/1 3/4/1
f 8/5/2 7/6/2 11/7/2 12/8/2
f 7/6/2 8/5/2 6/9/2 5/10/2
f 3/4/3 7/6/3 5/10/3 1/1/3
f 8/11/4 4/3/4 2/2/4 6/12/4
f 12/8/2 11/7/2 15/13/2 16/14/2
f 7/6/5 3/4/5 10/15/5 11/7/5
f 4/3/6 8/11/6 12/16/6 9/17/6
f 3/4/1 4/3/1 9/17/1 10/15/1
f 13/18/7 16/19/7 20/20/7 17/21/7
f 11/7/8 10/15/8 14/22/8 15/13/8
f 9/17/9 12/16/9 16/19/9 13/18/9
f 10/15/1 9/17/1 13/18/1 14/22/1
f 17/21/10 20/20/10 24/23/10 21/24/10
f 14/22/1 13/18/1 17/21/1 18/25/1
f 16/14/2 15/13/2 19/26/2 20/27/2
f 15/13/11 14/22/11 18/25/11 19/26/11
f 18/25/1 17/21/1 21/24/1 22/28/1
f 20/27/2 19/26/2 23/29/2 24/30/2
f 19/26/12 18/25/12 22/28/12 23/29/12
f 25/31/1 27/32/1 28/33/1 26/34/1
f 32/35/2 36/36/2 35/37/2 31/38/2
f 31/38/2 29/39/2 30/40/2 32/35/2
f 27/32/3 25/31/3 29/39/3 31/38/3
f 32/41/4 30/42/4 26/34/4 28/33/4
f 36/36/2 40/43/2 39/44/2 35/37/2
f 31/38/13 35/37/13 34/45/13 27/32/13
f 28/33/14 33/46/14 36/47/14 32/41/14
f 27/32/1 34/45/1 33/46/1 28/33/1
f 37/48/15 41/49/15 44/50/15 40/51/15
f 35/37/16 39/44/16 38/52/16 34/45/16
f 33/46/17 37/48/17 40/51/17 36/47/17
f 34/45/1 38/52/1 37/48/1 33/46/1
f 41/49/18 45/53/18 48/54/18 44/50/18
f 38/52/1 42/55/1 41/49/1 37/48/1
f 40/43/2 44/56/2 43/57/2 39/44/2
f 39/44/19 43/57/19 42/55/19 38/52/19
f 42/55/1 46/58/1 45/53/1 41/49/1
f 44/56/2 48/59/2 47/60/2 43/57/2
f 43/57/20 47/60/20 46/58/20 42/55/20
f 49/61/21 51/62/21 52/63/21 50/64/21
f 51/62/22 53/65/22 54/66/22 52/63/22
f 53/65/23 55/67/23 56/68/23 54/66/23
f 55/67/24 57/69/24 58/70/24 56/68/24
f 57/69/25 59/71/25 60/72/25 58/70/25
f 59/71/26 61/73/26 62/74/26 60/72/26
f 52/75/3 54/76/3 62/77/3 64/78/3
f 61/73/27 63/79/27 64/80/27 62/74/27
f 63/81/28 49/61/28 50/64/28 64/82/28
f 49/83/4 63/84/4 51/85/4
f 63/84/4 61/86/4 53/87/4 51/85/4
f 61/86/4 59/88/4 55/89/4 53/87/4
f 59/88/4 57/90/4 55/89/4
f 56/91/3 58/90/3 60/92/3
f 54/76/3 56/91/3 60/92/3 62/77/3
f 64/78/3 50/93/3 52/75/3
f 82/94/21 66/95/21 68/96/21 83/97/21
f 83/97/22 68/96/22 70/98/22 85/99/22
f 85/99/23 70/98/23 72/100/23 87/101/23
f 87/101/24 72/100/24 74/102/24 89/103/24
f 89/103/25 74/102/25 76/104/25 91/105/25
f 91/105/26 76/104/26 78/106/26 93/107/26
f 93/108/27 78/109/27 80/110/27 95/111/27
f 95/111/28 80/110/28 66/95/28 82/94/28
f 79/112/29 96/113/29 81/114/29 65/115/29
f 96/113/30 95/111/30 82/94/30 81/114/30
f 77/116/31 94/117/31 96/113/31 79/112/31
f 94/117/32 93/108/32 95/111/32 96/113/32
f 75/118/33 92/119/33 94/120/33 77/121/33
f 92/119/34 91/105/34 93/107/34 94/120/34
f 73/122/35 90/123/35 92/119/35 75/118/35
f 90/123/36 89/103/36 91/105/36 92/119/36
f 71/124/37 88/125/37 90/123/37 73/122/37
f 88/125/38 87/101/38 89/103/38 90/123/38
f 69/126/39 86/127/39 88/125/39 71/124/39
f 86/127/40 85/99/40 87/101/40 88/125/40
f 67/128/41 84/129/41 86/127/41 69/126/41
f 84/129/42 83/97/42 85/99/42 86/127/42
f 65/115/43 81/114/43 84/129/43 67/128/43
f 81/114/44 82/94/44 83/97/44 84/129/44
f 67/128/22 69/126/22 99/130/22 98/131/22
f 73/122/25 75/118/25 102/132/25 101/133/25
f 79/112/28 65/115/28 97/134/28 104/135/28
f 65/115/21 67/128/21 98/131/21 97/134/21
f 69/126/23 71/124/23 100/136/23 99/130/23
f 75/118/26 77/121/26 103/137/26 102/132/26
f 71/124/24 73/122/24 101/133/24 100/136/24
f 77/116/27 79/112/27 104/135/27 103/138/27
f 102/139/4 103/140/4 111/141/4 110/142/4
f 100/143/4 101/144/4 109/145/4 108/146/4
f 98/147/4 99/148/4 107/149/4 106/150/4
f 103/151/4 104/152/4 112/153/4 111/154/4
f 101/144/4 102/139/4 110/142/4 109/145/4
f 99/148/4 100/143/4 108/146/4 107/149/4
f 97/155/4 98/147/4 106/150/4 105/156/4
f 104/152/4 97/155/4 105/156/4 112/153/4
f 105/156/21 106/150/21 114/157/21 113/158/21
f 112/153/28 105/156/28 113/158/28 120/159/28
f 110/142/26 111/141/26 119/160/26 118/161/26
f 108/146/24 109/145/24 117/162/24 116/163/24
f 106/150/22 107/149/22 115/164/22 114/157/22
f 111/154/27 112/153/27 120/159/27 119/165/27
f 109/145/25 110/142/25 118/161/25 117/162/25
f 107/149/23 108/146/23 116/163/23 115/164/23
f 119/166/4 120/167/4 128/168/4 127/169/4
f 117/170/4 118/171/4 126/172/4 125/173/4
f 115/174/4 116/175/4 124/176/4 123/177/4
f 113/178/4 114/179/4 122/180/4 121/181/4
f 120/167/4 113/178/4 121/181/4 128/168/4
f 118/171/4 119/182/4 127/183/4 126/172/4
f 116/175/4 117/170/4 125/173/4 124/176/4
f 114/179/4 115/174/4 123/177/4 122/180/4
f 122/180/22 123/177/22 131/184/22 130/185/22
f 127/169/27 128/168/27 136/186/27 135/187/27
f 125/173/25 126/172/25 134/188/25 133/189/25
f 123/177/23 124/176/23 132/190/23 131/184/23
f 121/181/21 122/180/21 130/185/21 129/191/21
f 128/168/28 121/181/28 129/191/28 136/186/28
f 126/172/26 127/183/26 135/192/26 134/188/26
f 124/176/24 125/173/24 133/189/24 132/190/24
f 137/193/45 138/194/45 140/195/45 139/196/45
f 144/197/46 143/198/46 147/7/46 148/8/46
f 143/198/46 144/197/46 142/199/46 141/200/46
f 139/196/3 143/198/3 141/200/3 137/193/3
f 144/201/4 140/195/4 138/194/4 142/202/4
f 148/8/46 147/7/46 151/203/46 152/204/46
f 143/198/47 139/196/47 146/15/47 147/7/47
f 140/195/48 144/201/48 148/205/48 145/206/48
f 139/196/45 140/195/45 145/206/45 146/15/45
f 149/18/49 152/207/49 156/20/49 153/208/49
f 147/7/50 146/15/50 150/209/50 151/203/50
f 145/206/51 148/205/51 152/207/51 149/18/51
f 146/15/45 145/206/45 149/18/45 150/209/45
f 153/208/52 156/20/52 160/210/52 157/211/52
f 150/209/45 149/18/45 153/208/45 154/212/45
f 152/204/46 151/203/46 155/213/46 156/214/46
f 151/203/53 150/209/53 154/212/53 155/213/53
f 154/212/45 153/208/45 157/211/45 158/215/45
f 156/214/46 155/213/46 159/216/46 160/217/46
f 155/213/54 154/212/54 158/215/54 159/216/54
f 161/218/45 163/32/45 164/33/45 162/219/45
f 168/35/46 172/220/46 171/37/46 167/221/46
f 167/221/46 165/222/46 166/223/46 168/35/46
f 163/32/3 161/218/3 165/222/3 167/221/3
f 168/41/4 166/224/4 162/219/4 164/33/4
f 172/220/46 176/225/46 175/226/46 171/37/46
f 167/221/55 171/37/55 170/227/55 163/32/55
f 164/33/56 169/228/56 172/229/56 168/41/56
f 163/32/45 170/227/45 169/228/45 164/33/45
f 173/230/57 177/231/57 180/232/57 176/233/57
f 171/37/58 175/226/58 174/234/58 170/227/58
f 169/228/59 173/230/59 176/233/59 172/229/59
f 170/227/45 174/234/45 173/230/45 169/228/45
f 177/231/60 181/235/60 184/236/60 180/232/60
f 174/234/45 178/237/45 177/231/45 173/230/45
f 176/225/46 180/238/46 179/239/46 175/226/46
f 175/226/61 179/239/61 178/237/61 174/234/61
f 178/237/45 182/240/45 181/235/45 177/231/45
f 180/238/46 184/241/46 183/242/46 179/239/46
f 179/239/62 183/242/62 182/240/62 178/237/62
