# Blender 5.1.2
# www.blender.org
mtllib props_boite_utilles.mtl
o Cube.014
v -0.424794 0.007399 0.838004
v -0.424794 0.856988 0.838004
v -0.424794 0.007399 -0.838004
v -0.424794 0.856988 -0.838004
v 0.424794 0.007399 0.838004
v 0.424794 0.856988 0.838004
v 0.424794 0.007399 -0.838004
v 0.424794 0.856988 -0.838004
v -0.051947 0.862915 0.341488
v -0.051947 0.959516 0.298210
v -0.051947 0.862915 0.244773
v -0.051947 0.910813 0.214652
v 0.044768 0.862915 0.341488
v 0.044768 0.959516 0.298210
v 0.044768 0.862915 0.244773
v 0.044768 0.910813 0.214652
v -0.051947 1.051239 0.240830
v -0.051947 0.975232 0.181024
v 0.044768 0.975232 0.181024
v 0.044768 1.051239 0.240830
v -0.051947 1.081183 0.136035
v -0.051947 0.984472 0.135160
v 0.044768 0.984472 0.135160
v 0.044768 1.081183 0.136035
v 0.044768 1.082374 0.000000
v -0.051947 1.082374 0.000000
v -0.051947 0.985663 0.000000
v 0.044768 0.985663 0.000000
v -0.051947 0.862915 -0.341488
v -0.051947 0.959516 -0.298210
v -0.051947 0.862915 -0.244773
v -0.051947 0.910813 -0.214652
v 0.044768 0.862915 -0.341488
v 0.044768 0.959516 -0.298210
v 0.044768 0.862915 -0.244773
v 0.044768 0.910813 -0.214652
v -0.051947 1.051239 -0.240830
v -0.051947 0.975232 -0.181024
v 0.044768 0.975232 -0.181024
v 0.044768 1.051239 -0.240830
v -0.051947 1.081183 -0.136035
v -0.051947 0.984472 -0.135160
v 0.044768 0.984472 -0.135160
v 0.044768 1.081183 -0.136035
vn -1.0000 -0.0000 -0.0000
vn -0.0000 -0.0000 -1.0000
vn 1.0000 -0.0000 -0.0000
vn -0.0000 -0.0000 1.0000
vn -0.0000 -1.0000 -0.0000
vn -0.0000 1.0000 -0.0000
vn -0.0000 -0.5323 -0.8465
vn -0.0000 0.4089 0.9126
vn -0.0000 -0.4628 -0.8865
vn -0.0000 0.5304 0.8478
vn -0.0000 0.9615 0.2747
vn -0.0000 -0.9803 -0.1975
vn -0.0000 -1.0000 -0.0088
vn -0.0000 1.0000 0.0088
vn -0.0000 -0.5323 0.8465
vn -0.0000 0.4089 -0.9126
vn -0.0000 -0.4628 0.8865
vn -0.0000 0.5304 -0.8478
vn -0.0000 0.9615 -0.2747
vn -0.0000 -0.9803 0.1975
vn -0.0000 -1.0000 0.0088
vn -0.0000 1.0000 -0.0088
vt 0.620149 0.018367
vt 0.620149 0.187853
vt 0.954498 0.187853
vt 0.954498 0.018367
vt 0.702581 0.018367
vt 0.702581 0.187853
vt 0.872066 0.187853
vt 0.872066 0.018367
vt 0.593412 0.020693
vt 0.593412 0.165176
vt 0.308388 0.165176
vt 0.308388 0.020693
vt 0.311145 0.449547
vt 0.445457 0.449547
vt 0.445457 0.184587
vt 0.311145 0.184587
vt 0.856902 0.272223
vt 0.832422 0.326865
vt 0.785158 0.299317
vt 0.802196 0.272223
vt 0.568825 0.409102
vt 0.600830 0.409102
vt 0.600830 0.463808
vt 0.568825 0.463808
vt 0.525286 0.272223
vt 0.542323 0.299317
vt 0.495059 0.326865
vt 0.470579 0.272223
vt 0.467806 0.202610
vt 0.527681 0.202610
vt 0.527681 0.257317
vt 0.467806 0.257317
vt 0.641935 0.409102
vt 0.641935 0.463808
vt 0.527516 0.378748
vt 0.561345 0.335755
vt 0.587288 0.340981
vt 0.586793 0.395686
vt 0.799965 0.378748
vt 0.766136 0.335755
vt 0.588879 0.202610
vt 0.588879 0.257317
vt 0.740688 0.395686
vt 0.740193 0.340982
vt 0.650529 0.202610
vt 0.650529 0.257317
vt 0.668399 0.409102
vt 0.668399 0.463808
vt 0.663741 0.396359
vt 0.663741 0.341655
vt 0.663741 0.341655
vt 0.663741 0.396359
vt 0.744855 0.409102
vt 0.744855 0.463808
vt 0.727480 0.202610
vt 0.727480 0.257317
vt 0.525286 0.272223
vt 0.542323 0.299317
vt 0.495059 0.326865
vt 0.920884 0.409102
vt 0.920884 0.463808
vt 0.888879 0.463808
vt 0.888879 0.409102
vt 0.802196 0.272223
vt 0.856902 0.272223
vt 0.785158 0.299317
vt 0.987153 0.202610
vt 0.987153 0.257317
vt 0.927278 0.257317
vt 0.927278 0.202610
vt 0.847774 0.463808
vt 0.847774 0.409102
vt 0.740688 0.395686
vt 0.766136 0.335755
vt 0.866080 0.257317
vt 0.866080 0.202610
vt 0.587288 0.340982
vt 0.586793 0.395686
vt 0.804430 0.257317
vt 0.804430 0.202610
vt 0.821310 0.463808
vt 0.821310 0.409102
s 0
f 1/1/1 2/2/1 4/3/1 3/4/1
f 3/5/2 4/6/2 8/7/2 7/8/2
f 7/9/3 8/10/3 6/11/3 5/12/3
f 5/8/4 6/7/4 2/6/4 1/5/4
f 3/13/5 7/14/5 5/15/5 1/16/5
f 8/14/6 4/13/6 2/16/6 6/15/6
f 9/17/1 10/18/1 12/19/1 11/20/1
f 11/21/7 12/22/7 16/23/7 15/24/7
f 15/25/3 16/26/3 14/27/3 13/28/3
f 13/29/8 14/30/8 10/31/8 9/32/8
f 16/23/9 12/22/9 18/33/9 19/34/9
f 20/35/3 19/36/3 23/37/3 24/38/3
f 14/27/3 16/26/3 19/36/3 20/35/3
f 12/19/1 10/18/1 17/39/1 18/40/1
f 10/31/10 14/30/10 20/41/10 17/42/10
f 18/40/1 17/39/1 21/43/1 22/44/1
f 17/42/11 20/41/11 24/45/11 21/46/11
f 19/34/12 18/33/12 22/47/12 23/48/12
f 22/44/1 21/43/1 26/49/1 27/50/1
f 24/38/3 23/37/3 28/51/3 25/52/3
f 23/48/13 22/47/13 27/53/13 28/54/13
f 21/46/14 24/45/14 25/55/14 26/56/14
f 29/28/1 31/57/1 32/58/1 30/59/1
f 31/60/15 35/61/15 36/62/15 32/63/15
f 35/64/3 33/65/3 34/18/3 36/66/3
f 33/67/16 29/68/16 30/69/16 34/70/16
f 36/62/17 39/71/17 38/72/17 32/63/17
f 40/39/3 44/73/3 43/44/3 39/74/3
f 34/18/3 40/39/3 39/74/3 36/66/3
f 32/58/1 38/36/1 37/35/1 30/59/1
f 30/69/18 37/75/18 40/76/18 34/70/18
f 38/36/1 42/77/1 41/78/1 37/35/1
f 37/75/19 41/79/19 44/80/19 40/76/19
f 39/71/20 43/81/20 42/82/20 38/72/20
f 42/77/1 27/50/1 26/49/1 41/78/1
f 44/73/3 25/52/3 28/51/3 43/44/3
f 43/81/21 28/54/21 27/53/21 42/82/21
f 41/79/22 26/56/22 25/55/22 44/80/22
