# Blender 5.1.2
# www.blender.org
mtllib props_tape.mtl
o Cylinder
v -0.066133 0.194373 -0.074873
v 0.066133 0.194373 -0.074873
v -0.066133 0.141429 -0.052944
v 0.066133 0.141429 -0.052944
v -0.066133 0.119499 0.000000
v 0.066133 0.119499 0.000000
v -0.066133 0.141429 0.052944
v 0.066133 0.141429 0.052944
v -0.066133 0.194373 0.074873
v 0.066133 0.194373 0.074873
v -0.066133 0.247316 0.052944
v 0.066133 0.247316 0.052944
v -0.066133 0.269246 0.000000
v 0.066133 0.269246 0.000000
v -0.066133 0.247316 -0.052944
v 0.066133 0.247316 -0.052944
v -0.066133 0.194373 -0.189766
v -0.066133 0.060188 -0.134185
v 0.066133 0.060188 -0.134185
v 0.066133 0.194373 -0.189766
v -0.066133 0.004606 0.000000
v 0.066133 0.004606 0.000000
v -0.066133 0.060188 0.134185
v 0.066133 0.060188 0.134185
v -0.066133 0.194373 0.189766
v 0.066133 0.194373 0.189766
v -0.066133 0.328558 0.134185
v 0.066133 0.328558 0.134185
v -0.066133 0.384139 0.000000
v 0.066133 0.384139 0.000000
v -0.066133 0.328558 -0.134185
v 0.066133 0.328558 -0.134185
vn -0.0000 -0.3827 -0.9239
vn -0.0000 -0.9239 -0.3827
vn -0.0000 -0.9239 0.3827
vn -0.0000 -0.3827 0.9239
vn -0.0000 0.3827 0.9239
vn -0.0000 0.9239 0.3827
vn -0.0000 0.9239 -0.3827
vn -0.0000 0.3827 -0.9239
vn -1.0000 -0.0000 -0.0000
vn 1.0000 -0.0000 -0.0000
vt 0.317013 0.678586
vt 0.262221 0.678586
vt 0.262221 0.618418
vt 0.317013 0.618418
vt 0.262221 0.558250
vt 0.317013 0.558250
vt 0.262221 0.498083
vt 0.317013 0.498083
vt 0.317013 0.979425
vt 0.262221 0.979425
vt 0.262221 0.919257
vt 0.317013 0.919257
vt 0.262221 0.859089
vt 0.317013 0.859089
vt 0.262221 0.798922
vt 0.317013 0.798922
vt 0.262221 0.738754
vt 0.317013 0.738754
vt 0.351851 0.552875
vt 0.328112 0.552875
vt 0.328112 0.498083
vt 0.351851 0.498083
vt 0.518029 0.552875
vt 0.494289 0.552875
vt 0.494289 0.498083
vt 0.518029 0.498083
vt 0.472670 0.720416
vt 0.433359 0.720416
vt 0.403198 0.647599
vt 0.502832 0.647599
vt 0.500468 0.748213
vt 0.573284 0.718051
vt 0.433359 0.720416
vt 0.500468 0.787524
vt 0.573284 0.817686
vt 0.405562 0.748213
vt 0.332746 0.718051
vt 0.472670 0.815321
vt 0.502832 0.888138
vt 0.405562 0.787524
vt 0.332746 0.817686
vt 0.332746 0.718051
vt 0.433359 0.815321
vt 0.403198 0.888138
vt 0.433359 0.815321
vt 0.403198 0.888138
vt 0.502832 0.888138
vt 0.573284 0.817686
vt 0.375591 0.552875
vt 0.375591 0.498083
vt 0.399331 0.552875
vt 0.399331 0.498083
vt 0.423070 0.552875
vt 0.423070 0.498083
vt 0.446810 0.552875
vt 0.446810 0.498083
vt 0.470549 0.552875
vt 0.470549 0.498083
s 0
f 17/1/1 20/2/1 19/3/1 18/4/1
f 18/4/2 19/3/2 22/5/2 21/6/2
f 21/6/3 22/5/3 24/7/3 23/8/3
f 23/9/4 24/10/4 26/11/4 25/12/4
f 25/12/5 26/11/5 28/13/5 27/14/5
f 27/14/6 28/13/6 30/15/6 29/16/6
f 29/16/7 30/15/7 32/17/7 31/18/7
f 31/18/8 32/17/8 20/2/8 17/1/8
f 5/19/7 7/20/7 8/21/7 6/22/7
f 7/23/8 9/24/8 10/25/8 8/26/8
f 3/27/9 1/28/9 17/29/9 18/30/9
f 2/31/10 4/27/10 19/30/10 20/32/10
f 5/31/9 3/27/9 18/30/9 21/32/9
f 4/27/10 6/33/10 22/29/10 19/30/10
f 7/34/9 5/31/9 21/32/9 23/35/9
f 6/33/10 8/36/10 24/37/10 22/29/10
f 9/38/9 7/34/9 23/35/9 25/39/9
f 8/36/10 10/40/10 26/41/10 24/42/10
f 11/43/9 9/38/9 25/39/9 27/44/9
f 10/40/10 12/45/10 28/46/10 26/41/10
f 13/40/9 11/43/9 27/44/9 29/41/9
f 12/45/10 14/38/10 30/47/10 28/46/10
f 15/36/9 13/40/9 29/41/9 31/37/9
f 14/38/10 16/34/10 32/48/10 30/47/10
f 1/28/9 15/36/9 31/37/9 17/29/9
f 16/34/10 2/31/10 20/32/10 32/48/10
f 3/49/6 5/19/6 6/22/6 4/50/6
f 1/51/5 3/49/5 4/50/5 2/52/5
f 15/53/4 1/51/4 2/52/4 16/54/4
f 13/55/3 15/53/3 16/54/3 14/56/3
f 11/57/2 13/55/2 14/56/2 12/58/2
f 9/24/1 11/57/1 12/58/1 10/25/1
