# Blender 4.5.0
# www.blender.org
mtllib Geometry_Bed_UV.mtl
o Bed
v -2.312748 0.810504 3.366626
v -2.312748 1.233865 3.366626
v -2.312748 0.810503 -3.319334
v -2.312748 1.233864 -3.319334
v 2.131670 0.810504 3.366626
v 2.131670 1.233865 3.366626
v 2.131670 0.810503 -3.319334
v 2.131670 1.233864 -3.319334
vn -1.0000 -0.0000 -0.0000
vn -0.0000 -0.0000 -1.0000
vn 1.0000 -0.0000 -0.0000
vn -0.0000 -0.0000 1.0000
vn -0.0000 1.0000 -0.0000
vt 0.305311 0.964169
vt 0.363877 0.964169
vt 0.363877 0.638866
vt 0.305311 0.638866
vt 0.014759 0.463897
vt 0.014759 0.511425
vt 0.364249 0.511425
vt 0.364249 0.463897
vt 0.362577 0.530539
vt 0.362577 0.580540
vt 0.011936 0.580540
vt 0.011936 0.530539
vt 0.270001 0.606067
vt 0.037290 0.606067
vt 0.037290 0.968135
vt 0.270001 0.968135
s 1
usemtl Material.001
f 1/1/1 2/2/1 4/3/1 3/4/1
f 3/5/2 4/6/2 8/7/2 7/8/2
f 7/4/3 8/3/3 6/2/3 5/1/3
f 5/9/4 6/10/4 2/11/4 1/12/4
f 8/13/5 4/14/5 2/15/5 6/16/5
o Bed_Pillow_Right
v 1.851873 1.167508 -1.708972
v 1.852131 1.503067 -1.666975
v 0.037677 1.166306 -1.688249
v 0.037934 1.501865 -1.646253
v 1.838503 1.312965 -2.870991
v 1.838760 1.648521 -2.828988
v 0.024308 1.311763 -2.850268
v 0.024566 1.647319 -2.808264
vn 0.5835 -0.6442 0.4945
vn 0.5843 0.5016 0.6379
vn -0.5703 0.5008 0.6511
vn -0.5712 -0.6450 0.5077
vn -0.5835 0.6442 -0.4945
vn -0.5843 -0.5016 -0.6380
vn 0.5712 0.6450 -0.5077
vn 0.5703 -0.5008 -0.6511
vt 0.667352 0.352758
vt 0.667309 0.315457
vt 0.975404 0.315457
vt 0.975448 0.352758
vt 0.702062 0.258852
vt 0.770011 0.258850
vt 0.770011 0.023546
vt 0.702062 0.023546
vt 0.961847 0.256306
vt 0.812540 0.256306
vt 0.812540 0.024492
vt 0.961847 0.024492
vt 0.961846 0.256306
vt 0.961846 0.024492
s 1
usemtl Material.001
f 9/17/6 10/18/7 12/19/8 11/20/9
f 11/21/9 12/22/8 16/23/10 15/24/11
f 15/20/11 16/19/10 14/18/12 13/17/13
f 13/24/13 14/23/12 10/22/7 9/21/6
f 11/25/9 15/26/11 13/27/13 9/28/6
f 16/26/10 12/29/8 10/30/7 14/27/12
o Bed_Pillow_Left
v -0.242182 1.203633 -1.696822
v -0.241924 1.541061 -1.674330
v -2.056378 1.203633 -1.676064
v -2.056121 1.541061 -1.653573
v -0.255552 1.281546 -2.865315
v -0.255295 1.618971 -2.842816
v -2.069747 1.281546 -2.844557
v -2.069489 1.618971 -2.822058
vn 0.5835 -0.6145 0.5310
vn 0.5843 0.5377 0.6078
vn -0.5703 0.5377 0.6210
vn -0.5712 -0.6145 0.5442
vn -0.5835 0.6145 -0.5310
vn -0.5843 -0.5377 -0.6078
vn 0.5712 0.6145 -0.5442
vn 0.5703 -0.5377 -0.6210
vt 0.667352 0.352758
vt 0.667309 0.315457
vt 0.975404 0.315457
vt 0.975448 0.352758
vt 0.702062 0.258852
vt 0.770011 0.258850
vt 0.770011 0.023546
vt 0.702062 0.023546
vt 0.961847 0.256306
vt 0.812540 0.256306
vt 0.812540 0.024492
vt 0.961847 0.024492
vt 0.961846 0.256306
vt 0.961846 0.024492
s 1
usemtl Material.001
f 17/31/14 18/32/15 20/33/16 19/34/17
f 19/35/17 20/36/16 24/37/18 23/38/19
f 23/34/19 24/33/18 22/32/20 21/31/21
f 21/38/21 22/37/20 18/36/15 17/35/14
f 19/39/17 23/40/19 21/41/21 17/42/14
f 24/40/18 20/43/16 18/44/15 22/41/20
o Bed_Feet
v -2.243393 0.018936 2.991943
v -2.309763 0.675573 3.085837
v -2.243393 0.018936 2.807294
v -2.309763 0.675573 2.713400
v -2.112873 0.018936 2.991943
v -2.046503 0.675573 3.085837
v -2.112873 0.018936 2.807294
v -2.046503 0.675573 2.713400
v -2.243393 0.018936 -3.001683
v -2.309763 0.675573 -2.907789
v -2.243393 0.018936 -3.186332
v -2.309763 0.675573 -3.280226
v -2.112871 0.018936 -3.001683
v -2.046501 0.675573 -2.907789
v -2.112871 0.018936 -3.186332
v -2.046501 0.675573 -3.280226
v 1.828062 0.018936 -3.001683
v 1.761692 0.675573 -2.907789
v 1.828062 0.018936 -3.186332
v 1.761692 0.675573 -3.280226
v 1.958584 0.018936 -3.001683
v 2.024954 0.675573 -2.907789
v 1.958584 0.018936 -3.186332
v 2.024954 0.675573 -3.280226
v 1.828062 0.018936 2.991943
v 1.761692 0.675573 3.085837
v 1.828062 0.018936 2.807294
v 1.761692 0.675573 2.713400
v 1.958584 0.018936 2.991943
v 2.024954 0.675573 3.085837
v 1.958584 0.018936 2.807294
v 2.024954 0.675573 2.713400
vn -0.9949 -0.1006 -0.0000
vn -0.0000 -0.1416 -0.9899
vn 0.9949 -0.1006 -0.0000
vn -0.0000 -0.1416 0.9899
vt 0.581782 0.053560
vt 0.567583 0.152858
vt 0.623904 0.152858
vt 0.609705 0.053560
vt 0.581595 0.052741
vt 0.567583 0.153677
vt 0.623164 0.153677
vt 0.609152 0.052741
vt 0.581596 0.052741
s 1
usemtl Material.001
f 25/45/22 26/46/22 28/47/22 27/48/22
f 27/49/23 28/50/23 32/51/23 31/52/23
f 31/48/24 32/47/24 30/46/24 29/45/24
f 29/52/25 30/51/25 26/50/25 25/49/25
f 33/45/22 34/46/22 36/47/22 35/48/22
f 35/53/23 36/50/23 40/51/23 39/52/23
f 39/48/24 40/47/24 38/46/24 37/45/24
f 37/52/25 38/51/25 34/50/25 33/53/25
f 41/45/22 42/46/22 44/47/22 43/48/22
f 43/53/23 44/50/23 48/51/23 47/52/23
f 47/48/24 48/47/24 46/46/24 45/45/24
f 45/52/25 46/51/25 42/50/25 41/53/25
f 49/45/22 50/46/22 52/47/22 51/48/22
f 51/53/23 52/50/23 56/51/23 55/52/23
f 55/48/24 56/47/24 54/46/24 53/45/24
f 53/52/25 54/51/25 50/50/25 49/53/25
o Bed_Support
v -2.529119 0.680825 3.691198
v -2.529119 0.806679 3.691198
v -2.529119 0.680825 -3.348467
v -2.529119 0.806679 -3.348467
v 2.273479 0.680825 3.679223
v 2.273479 0.806679 3.679223
v 2.273479 0.680825 -3.360442
v 2.273479 0.806679 -3.360442
vn -1.0000 -0.0000 -0.0000
vn -0.0025 -0.0000 -1.0000
vn 1.0000 -0.0000 -0.0000
vn 0.0025 -0.0000 1.0000
vn -0.0000 -1.0000 -0.0000
vn -0.0000 1.0000 -0.0000
vt 0.284397 0.020297
vt 0.284397 0.210551
vt 0.474651 0.210551
vt 0.474651 0.020297
vt 0.284376 0.020297
vt 0.284376 0.210551
vt 0.474996 0.210551
vt 0.474996 0.020297
vt 0.474974 0.020297
vt 0.474974 0.210551
vt 0.284721 0.210551
vt 0.284721 0.020297
vt 0.237838 0.020297
vt 0.237838 0.210551
vt 0.047218 0.210551
vt 0.047218 0.020297
vt 0.047218 0.433947
vt 0.237838 0.434270
vt 0.237838 0.244017
vt 0.047218 0.243693
s 1
usemtl Material.001
f 57/54/26 58/55/26 60/56/26 59/57/26
f 59/58/27 60/59/27 64/60/27 63/61/27
f 63/62/28 64/63/28 62/64/28 61/65/28
f 61/66/29 62/67/29 58/68/29 57/69/29
f 59/70/30 63/71/30 61/72/30 57/73/30
f 64/71/31 60/70/31 58/73/31 62/72/31
o Plane.001
v -2.715837 0.551246 3.499476
v 2.411985 0.411274 3.584755
v -2.538057 0.570613 -2.104647
v 2.322316 0.760901 -2.120336
v -2.617705 0.396191 2.985855
v -2.740915 0.502338 3.525527
v 0.392913 0.585205 3.851297
v 1.675021 0.592929 3.938570
v 2.215925 0.428298 3.826874
v 2.562337 0.733466 -0.873008
v 2.396152 0.782617 -1.489916
v -0.904765 1.619031 -2.006169
v -2.181122 1.593866 -2.020238
v -2.598727 1.258847 -1.998511
v -2.629029 0.589314 -1.491512
v -2.840267 0.535059 -0.855306
v -2.693842 0.522062 3.867927
v -2.171404 0.642598 3.853925
v -0.894813 0.596675 3.846468
v 2.480962 0.517172 3.550819
v 2.361169 0.450763 2.965855
v 2.089037 1.409568 -2.034343
v 1.675438 1.695696 -1.936333
v 0.386144 1.641482 -1.979051
v 0.399572 1.312288 3.607866
v 0.401295 1.349162 3.004978
v 1.683226 1.393651 3.612813
v 1.717204 1.500706 3.125588
v 2.303279 1.175730 3.622215
v 2.244730 1.342523 2.986573
v -2.766145 1.090636 3.608938
v -2.795377 1.054717 3.000557
v -2.168130 1.277095 3.636701
v -2.374958 1.440591 3.018836
v -0.886692 1.328337 3.611377
v -0.888241 1.362910 3.011222
v -2.699727 1.095810 -0.835486
v -2.700618 1.307542 -1.400403
v -2.359015 1.405167 -0.829172
v -2.179957 1.734682 -1.388583
v -0.916146 1.340935 -0.843119
v -0.911005 1.621142 -1.416223
v 0.368317 1.330312 -0.847478
v 0.374229 1.668981 -1.417535
v 1.651172 1.338116 -0.843812
v 1.659154 1.718233 -1.383121
v 2.163436 1.362092 -0.861727
v 2.220274 1.392249 -1.409593
vn 0.1249 0.9920 -0.0205
vn 0.0071 0.3129 0.9497
vn 0.0028 0.3117 0.9502
vn 0.0071 0.3129 0.9498
vn -0.0117 0.8794 0.4760
vn -0.0946 0.9873 0.1273
vn -0.1101 0.3603 0.9263
vn 0.7090 0.0664 0.7021
vn -0.4879 0.8535 0.1827
vn -0.9859 -0.1556 -0.0614
vn 0.9732 0.1921 -0.1264
vn 0.0115 0.3142 0.9493
vn -0.0270 0.9993 -0.0261
vn 0.1839 0.3084 0.9333
vn -0.0601 0.9979 -0.0224
vn 0.9040 0.4238 -0.0560
vn -0.0267 0.8391 0.5433
vn -0.6225 0.7642 -0.1688
vn 0.0094 0.9999 -0.0054
vn 0.9469 0.3204 0.0274
vn 0.5260 0.8487 -0.0551
vn 0.9335 0.3239 -0.1537
vn -0.6319 0.7328 0.2526
vn 0.0338 0.9927 -0.1160
vn -0.9852 0.0668 -0.1577
vn -0.0387 0.9982 -0.0458
vn 0.0113 0.9873 0.1586
vn 0.0483 0.9988 -0.0075
vn -0.0458 0.3491 0.9360
vn -0.9994 -0.0309 0.0158
vn 0.0647 0.8742 0.4812
vn -0.9857 -0.0712 -0.1530
vn -0.6742 0.7385 -0.0092
vn -0.9825 -0.1205 0.1420
vn 0.3261 0.9200 0.2172
vn 0.2668 0.8963 0.3542
vn 0.0118 0.9982 0.0593
vt 0.902008 0.508279
vt 0.902008 0.847770
vt 0.845426 0.847770
vt 0.845426 0.508279
vt 0.619098 0.395116
vt 0.732262 0.395116
vt 0.732262 0.451697
vt 0.619098 0.451697
vt 0.732262 0.904352
vt 0.619098 0.904352
vt 0.619098 0.847770
vt 0.732262 0.847770
vt 0.732262 0.508279
vt 0.845426 0.451697
vt 0.505935 0.451697
vt 0.449353 0.451697
vt 0.449353 0.395116
vt 0.505935 0.395116
vt 0.958590 0.451697
vt 0.902008 0.451697
vt 0.902008 0.395116
vt 0.958590 0.395116
vt 0.505935 0.508279
vt 0.449353 0.508279
vt 0.392771 0.451697
vt 0.392771 0.508279
vt 0.958590 0.508279
vt 0.732262 0.960934
vt 0.619098 0.960934
vt 0.845426 0.395116
vt 0.958590 0.904352
vt 0.902008 0.904352
vt 0.958590 0.847770
vt 0.845426 0.904352
vt 0.449353 0.960934
vt 0.449353 0.904352
vt 0.505935 0.904352
vt 0.505935 0.960934
vt 0.619098 0.508279
vt 0.845426 0.960934
vt 0.902008 0.960934
vt 0.958590 0.960934
vt 0.505935 0.847770
vt 0.449353 0.847770
vt 0.392771 0.904352
vt 0.392771 0.847770
vt 0.392771 0.960934
vt 0.392771 0.395116
s 1
usemtl Material.001
f 94/74/32 111/75/32 109/76/32 92/77/32
f 83/78/33 71/79/34 89/80/34 99/81/35
f 108/82/36 106/83/36 105/84/36 107/85/36
f 90/86/37 89/80/37 91/87/37 92/77/37
f 97/88/38 95/89/38 81/90/38 82/91/38
f 84/92/39 93/93/39 73/94/39 66/95/39
f 98/96/40 96/97/40 95/89/40 97/88/40
f 70/98/41 95/89/41 96/97/41 69/99/41
f 94/74/42 93/93/42 84/92/42 85/100/42
f 82/91/43 83/78/33 99/81/35 97/88/43
f 108/82/44 88/101/44 76/102/44 106/83/44
f 93/93/45 91/87/45 72/103/45 73/94/45
f 107/85/46 90/86/46 92/77/46 109/76/46
f 75/104/47 112/105/47 111/75/47 74/106/47
f 109/76/48 110/107/48 108/82/48 107/85/48
f 78/108/49 102/109/49 104/110/49 77/111/49
f 107/85/50 105/84/50 100/112/50 90/86/50
f 94/74/51 85/100/51 74/106/51 111/75/51
f 87/113/52 110/107/52 112/105/52 86/114/52
f 68/115/53 86/114/53 112/105/53 75/104/53
f 103/116/54 104/110/54 102/109/54 101/117/54
f 104/110/55 106/83/55 76/102/55 77/111/55
f 102/109/56 79/118/56 80/119/56 101/117/56
f 87/113/57 88/101/57 108/82/57 110/107/57
f 98/96/58 97/88/58 99/81/58 100/112/58
f 98/96/59 100/112/59 105/84/59 103/116/59
f 89/80/60 71/79/60 72/103/60 91/87/60
f 80/119/61 69/99/61 96/97/61 101/117/61
f 104/110/62 103/116/62 105/84/62 106/83/62
f 67/120/63 79/118/63 102/109/63 78/108/63
f 101/117/64 96/97/64 98/96/64 103/116/64
f 95/89/65 70/98/65 65/121/65 81/90/65
f 94/74/66 92/77/66 91/87/66 93/93/66
f 109/76/67 111/75/67 112/105/67 110/107/67
f 100/112/68 99/81/68 89/80/68 90/86/68
