# Blender 5.1.2
# www.blender.org
mtllib props_cup.mtl
o Cube
v 0.025450 0.381725 0.188676
v 0.025450 0.330826 0.194109
v 0.025450 0.381725 0.239575
v 0.025450 0.330826 0.239575
v -0.025450 0.381725 0.188676
v -0.025450 0.330826 0.194109
v -0.025450 0.381725 0.239575
v -0.025450 0.330826 0.239575
v 0.025450 0.319185 0.330708
v 0.025450 0.361447 0.337092
v -0.025450 0.361447 0.337092
v -0.025450 0.319185 0.330708
v -0.025450 0.321438 0.281439
v 0.025450 0.321438 0.281439
v 0.025450 0.381725 0.296084
v -0.025450 0.381725 0.296084
v 0.025450 0.119509 0.382628
v -0.025450 0.119509 0.382628
v -0.025450 0.134530 0.314314
v 0.025450 0.134530 0.314314
v 0.025450 0.076804 0.351084
v -0.025450 0.076804 0.351084
v -0.025450 0.071922 0.292533
v 0.025450 0.071922 0.292533
v -0.025450 0.122138 0.215595
v 0.025450 0.122138 0.215595
v -0.025450 0.053897 0.222354
v 0.025450 0.053897 0.222354
v -0.096428 0.002553 -0.237594
v -0.065279 0.414149 -0.162392
v 0.096428 0.002553 -0.237594
v 0.065279 0.414149 -0.162392
v 0.232798 0.002553 -0.101224
v 0.157597 0.414149 -0.070074
v 0.232799 0.002553 0.091633
v 0.157597 0.414149 0.060483
v 0.096428 0.002553 0.228003
v 0.065279 0.414149 0.152801
v -0.096428 0.002553 0.228003
v -0.065279 0.414149 0.152801
v -0.232798 0.002553 0.091633
v -0.157597 0.414149 0.060483
v -0.232798 0.002553 -0.101224
v -0.157597 0.414149 -0.070074
v 0.078755 0.414149 -0.194928
v -0.078755 0.414149 -0.194928
v 0.190132 0.414149 -0.083551
v 0.190132 0.414149 0.073960
v 0.078755 0.414149 0.185337
v -0.078755 0.414149 0.185337
v -0.190132 0.414149 0.073960
v -0.190132 0.414149 -0.083551
v 0.065279 0.028841 -0.162392
v -0.065279 0.028841 -0.162392
v 0.157597 0.028841 -0.070074
v 0.157597 0.028841 0.060483
v 0.065279 0.028841 0.152801
v -0.065279 0.028841 0.152801
v -0.157597 0.028841 0.060483
v -0.157597 0.028841 -0.070074
v 0.000000 0.028841 -0.004796
vn 1.0000 -0.0000 -0.0000
vn -1.0000 -0.0000 -0.0000
vn -0.0000 1.0000 -0.0000
vn -0.0000 -1.0000 -0.0000
vn -0.0000 -0.1494 0.9888
vn -0.0000 0.8964 0.4433
vn -0.0000 -0.9758 -0.2188
vn -0.0000 -0.5941 0.8044
vn -0.0000 -0.1732 -0.9849
vn -0.0000 0.2517 0.9678
vn -0.0000 -0.9965 0.0831
vn -0.0000 -0.9686 0.2488
vn -0.0000 0.9922 -0.1246
vn -0.0000 0.1031 -0.9947
vn 0.7033 0.1031 -0.7033
vn 0.9947 0.1031 -0.0000
vn 0.7033 0.1031 0.7033
vn -0.0000 0.1031 0.9947
vn -0.7033 0.1031 0.7033
vn -0.7071 -0.0000 -0.7071
vn -0.9947 0.1031 -0.0000
vn -0.7033 0.1031 -0.7033
vn -0.7071 -0.0000 0.7071
vn -0.0000 -0.0000 -1.0000
vn -0.0000 -0.0000 1.0000
vn 0.7071 -0.0000 0.7071
vn 0.7071 -0.0000 -0.7071
vt 0.791579 0.342961
vt 0.775683 0.344594
vt 0.777316 0.360490
vt 0.791515 0.359031
vt 0.837913 0.364765
vt 0.842184 0.424192
vt 0.863037 0.431075
vt 0.853228 0.367049
vt 0.826773 0.344594
vt 0.810877 0.342961
vt 0.810941 0.359031
vt 0.825140 0.360490
vt 0.702684 0.360398
vt 0.720121 0.360398
vt 0.720121 0.342961
vt 0.702684 0.342961
vt 0.976040 0.486218
vt 0.990314 0.486218
vt 0.990314 0.470238
vt 0.976040 0.470238
vt 0.667653 0.360398
vt 0.667653 0.342961
vt 0.653010 0.342961
vt 0.653010 0.360398
vt 0.758035 0.346407
vt 0.745878 0.354056
vt 0.749228 0.367049
vt 0.764543 0.364765
vt 0.856578 0.354055
vt 0.844421 0.346407
vt 0.683325 0.342961
vt 0.683325 0.360398
vt 0.962571 0.470238
vt 0.962571 0.486218
vt 0.582330 0.342961
vt 0.564142 0.342961
vt 0.564142 0.360398
vt 0.582330 0.360398
vt 0.902990 0.470238
vt 0.902990 0.486218
vt 0.739419 0.431075
vt 0.760272 0.424192
vt 0.544014 0.360398
vt 0.544014 0.342961
vt 0.519192 0.342961
vt 0.519192 0.360398
vt 0.833373 0.443047
vt 0.851815 0.443400
vt 0.750641 0.443400
vt 0.769083 0.443047
vt 0.871754 0.470238
vt 0.871754 0.486218
vt 0.810955 0.424895
vt 0.810877 0.446424
vt 0.791579 0.446424
vt 0.791501 0.424895
vt 0.641450 0.153589
vt 0.641450 0.011957
vt 0.725942 0.011957
vt 0.725942 0.153589
vt 0.785902 0.011957
vt 0.785902 0.153589
vt 0.845862 0.011957
vt 0.845862 0.153589
vt 0.905822 0.011957
vt 0.905822 0.153589
vt 0.990314 0.011957
vt 0.990314 0.153589
vt 0.461570 0.153589
vt 0.461570 0.011957
vt 0.521530 0.011957
vt 0.521530 0.153589
vt 0.944780 0.311036
vt 0.912466 0.311036
vt 0.912466 0.172887
vt 0.944780 0.172887
vt 0.581490 0.011957
vt 0.581490 0.153589
vt 0.559723 0.209892
vt 0.596728 0.172887
vt 0.649061 0.172887
vt 0.559723 0.262226
vt 0.802305 0.311036
vt 0.847840 0.311036
vt 0.847840 0.323663
vt 0.802305 0.323663
vt 0.880153 0.311036
vt 0.880153 0.323663
vt 0.912466 0.323663
vt 0.944780 0.323663
vt 0.990314 0.311036
vt 0.990314 0.323663
vt 0.705365 0.311036
vt 0.737678 0.311036
vt 0.737678 0.323663
vt 0.705365 0.323663
vt 0.769992 0.311036
vt 0.769992 0.323663
vt 0.847840 0.172887
vt 0.880153 0.172887
vt 0.737678 0.172887
vt 0.769992 0.172887
vt 0.990314 0.172887
vt 0.802305 0.172887
vt 0.705365 0.172887
vt 0.596728 0.299231
vt 0.686067 0.209892
vt 0.686067 0.262226
vt 0.649061 0.299231
vt 0.904859 0.346989
vt 0.936540 0.346989
vt 0.920699 0.385232
vt 0.958942 0.369391
vt 0.958942 0.401072
vt 0.936540 0.423474
vt 0.904859 0.423474
vt 0.882457 0.401072
vt 0.882457 0.369391
s 0
usemtl Utililities
f 1/1/1 3/2/1 4/3/1 2/4/1
f 13/5/2 19/6/2 18/7/2 12/8/2
f 7/9/2 5/10/2 6/11/2 8/12/2
f 3/13/3 1/14/3 5/15/3 7/16/3
f 8/17/4 6/18/4 2/19/4 4/20/4
f 10/21/5 11/22/5 12/23/5 9/24/5
f 15/25/1 10/26/1 9/27/1 14/28/1
f 13/5/2 12/8/2 11/29/2 16/30/2
f 16/31/6 11/22/6 10/21/6 15/32/6
f 7/16/3 16/31/3 15/32/3 3/13/3
f 8/12/2 13/5/2 16/30/2 7/9/2
f 3/2/1 15/25/1 14/28/1 4/3/1
f 4/20/7 14/33/7 13/34/7 8/17/7
f 18/35/8 22/36/8 21/37/8 17/38/8
f 14/33/9 20/39/9 19/40/9 13/34/9
f 12/23/10 18/35/10 17/38/10 9/24/10
f 9/27/1 17/41/1 20/42/1 14/28/1
f 24/43/11 21/37/11 22/36/11 23/44/11
f 23/44/12 27/45/12 28/46/12 24/43/12
f 19/6/2 23/47/2 22/48/2 18/7/2
f 17/41/1 21/49/1 24/50/1 20/42/1
f 20/39/13 26/51/13 25/52/13 19/40/13
f 19/6/2 25/53/2 27/54/2 23/47/2
f 24/50/1 28/55/1 26/56/1 20/42/1
f 29/57/14 46/58/14 45/59/14 31/60/14
f 31/60/15 45/59/15 47/61/15 33/62/15
f 33/62/16 47/61/16 48/63/16 35/64/16
f 35/64/17 48/63/17 49/65/17 37/66/17
f 37/66/18 49/65/18 50/67/18 39/68/18
f 39/69/19 50/70/19 51/71/19 41/72/19
f 38/73/20 36/74/20 56/75/20 57/76/20
f 41/72/21 51/71/21 52/77/21 43/78/21
f 43/78/22 52/77/22 46/58/22 29/57/22
f 29/79/4 31/80/4 33/81/4 43/82/4
f 30/83/3 32/84/3 45/85/3 46/86/3
f 32/84/3 34/87/3 47/88/3 45/85/3
f 34/87/3 36/74/3 48/89/3 47/88/3
f 36/74/3 38/73/3 49/90/3 48/89/3
f 38/73/3 40/91/3 50/92/3 49/90/3
f 40/93/3 42/94/3 51/95/3 50/96/3
f 42/94/3 44/97/3 52/98/3 51/95/3
f 44/97/3 30/83/3 46/86/3 52/98/3
f 34/87/23 32/84/23 53/99/23 55/100/23
f 44/97/1 42/94/1 59/101/1 60/102/1
f 40/91/24 38/73/24 57/76/24 58/103/24
f 36/74/2 34/87/2 55/100/2 56/75/2
f 32/84/25 30/83/25 54/104/25 53/99/25
f 30/83/26 44/97/26 60/102/26 54/104/26
f 42/94/27 40/93/27 58/105/27 59/101/27
f 41/106/4 35/107/4 37/108/4 39/109/4
f 43/82/4 33/81/4 35/107/4 41/106/4
f 53/110/3 54/111/3 61/112/3
f 54/111/3 60/113/3 61/112/3
f 60/113/3 59/114/3 61/112/3
f 59/114/3 58/115/3 61/112/3
f 58/115/3 57/116/3 61/112/3
f 57/116/3 56/117/3 61/112/3
f 56/117/3 55/118/3 61/112/3
f 55/118/3 53/110/3 61/112/3
