# Blender 5.1.2
# www.blender.org
mtllib props_bathtub.mtl
o Cube.013
v -0.754638 0.020517 2.309085
v -1.135503 0.020517 1.897839
v -1.171291 1.518113 3.488270
v -1.551929 1.518113 3.079533
v -1.135503 0.020517 -2.001999
v -0.754638 0.020517 -2.413245
v -1.551929 1.518113 -3.183693
v -1.171291 1.518113 -3.592430
v 1.135503 0.020517 1.897839
v 0.754638 0.020517 2.309085
v 1.551929 1.518113 3.079533
v 1.171291 1.518113 3.488270
v 1.135503 0.020517 -2.001999
v 1.551929 1.518113 -3.183693
v -1.171611 2.221413 -3.726452
v -1.551929 2.221413 -3.320173
v 1.171611 2.221413 -3.726452
v 1.551929 2.221413 -3.320173
v 1.551929 2.221413 3.216013
v 1.171611 2.221413 3.622292
v -1.551929 2.221413 3.216013
v -1.171611 2.221413 3.622292
v -1.551929 2.476234 -3.384084
v -1.171715 2.476234 -3.789564
v -1.171715 2.476234 3.685404
v -1.551929 2.476234 3.279924
v 1.171715 2.476234 -3.789564
v 1.551929 2.476234 -3.384084
v 1.551929 2.476234 3.279924
v 1.171715 2.476234 3.685404
v -1.156174 1.532202 -2.932256
v -0.937462 1.532202 -3.169338
v -0.937462 1.532202 3.065178
v -1.156174 1.532202 2.828096
v 0.937462 1.532202 -3.169338
v 1.156174 1.532202 -2.932256
v 1.156174 1.532202 2.828096
v 0.937462 1.532202 3.065177
v -1.034155 0.235921 -2.017881
v -0.838525 0.235921 -2.179696
v -0.838525 0.235921 2.075536
v -1.034155 0.235921 1.913721
v 0.838525 0.235921 -2.179696
v 1.034155 0.235921 -2.017881
v 1.034155 0.235921 1.913721
v 0.838525 0.235921 2.075536
v -1.765465 2.315052 -3.523317
v -1.624766 2.476234 -3.443632
v -1.217612 2.476234 -3.845311
v -1.332874 2.315083 -3.950490
v -1.332874 2.315083 3.846330
v -1.217612 2.476234 3.741151
v -1.624766 2.476234 3.339472
v -1.765465 2.315052 3.419157
v 1.332874 2.315083 -3.950490
v 1.217612 2.476234 -3.845311
v 1.624766 2.476234 -3.443632
v 1.765465 2.315052 -3.523317
v 1.765465 2.315052 3.419157
v 1.624766 2.476234 3.339472
v 1.217612 2.476234 3.741151
v 1.332874 2.315083 3.846330
v -1.332836 2.216149 -3.929068
v -1.299120 2.169493 -3.878723
v -1.724390 2.169493 -3.458464
v -1.765465 2.216158 -3.501632
v 1.299120 2.169493 -3.878723
v 1.332836 2.216149 -3.929068
v 1.765465 2.216158 -3.501632
v 1.724390 2.169493 -3.458464
v 1.724390 2.169493 3.354304
v 1.765465 2.216158 3.397473
v 1.332836 2.216149 3.824908
v 1.299120 2.169493 3.774564
v -1.765465 2.216158 3.397473
v -1.724390 2.169493 3.354304
v -1.299120 2.169493 3.774564
v -1.332836 2.216149 3.824908
v 0.737593 0.020517 -2.371210
v 1.160008 1.553820 -3.571840
v -1.304365 2.373195 3.149780
v -1.431889 2.476234 3.232448
v -1.119717 2.476234 3.565365
v -1.057623 2.373220 3.413350
v -1.057623 2.373220 -3.517510
v -1.119717 2.476234 -3.669525
v -1.431889 2.476234 -3.336608
v -1.304365 2.373195 -3.253940
v 1.057623 2.373220 3.413350
v 1.119717 2.476234 3.565365
v 1.431889 2.476234 3.232447
v 1.304365 2.373195 3.149780
v 1.304365 2.373195 -3.253940
v 1.431889 2.476234 -3.336608
v 1.119717 2.476234 -3.669525
v 1.057623 2.373220 -3.517510
vn -0.5890 -0.5949 0.5470
vn -0.5890 -0.5949 -0.5470
vn 0.5890 -0.5949 0.5470
vn 0.7247 -0.1303 0.6766
vn -0.7247 -0.1303 -0.6766
vn -0.7247 -0.1303 0.6766
vn -0.9634 -0.2679 -0.0000
vn -0.0000 -0.6186 0.7857
vn -0.0000 -0.1872 0.9823
vn -1.0000 -0.0000 -0.0000
vn 0.9634 -0.2679 -0.0000
vn 1.0000 -0.0000 -0.0000
vn 0.5978 0.5070 0.6210
vn -0.0000 1.0000 -0.0000
vn -0.0000 0.6068 -0.7948
vn -0.9956 0.0937 -0.0000
vn -0.5978 0.5070 -0.6210
vn 0.5978 0.5070 -0.6210
vn -0.0000 0.6068 0.7948
vn 0.9956 0.0937 -0.0000
vn -0.5978 0.5070 0.6210
vn -0.5053 0.6948 -0.5119
vn -0.5053 0.6948 0.5119
vn 0.5053 0.6948 -0.5119
vn 0.5053 0.6948 0.5119
vn -0.7534 0.6576 -0.0000
vn 0.7534 0.6576 -0.0000
vn -0.0000 0.5466 -0.8374
vn -0.0000 0.5466 0.8374
vn -0.4335 -0.7871 -0.4387
vn 0.4335 -0.7871 -0.4387
vn 0.4335 -0.7871 0.4387
vn -0.4335 -0.7871 0.4387
vn -0.0000 -0.7335 0.6797
vn -0.7506 -0.6607 -0.0000
vn -0.0000 -0.7335 -0.6797
vn 0.7506 -0.6607 -0.0000
vn -0.6944 -0.1533 -0.7030
vn -0.0000 -0.9465 0.3227
vn 0.1728 -0.9705 0.1684
vn -0.0000 -0.2116 -0.9774
vn 0.2883 -0.9575 -0.0000
vn 0.6944 -0.1533 -0.7030
vn -0.1728 -0.9705 0.1684
vn -0.2883 -0.9575 -0.0000
vn -0.1728 -0.9705 -0.1684
vn 0.6944 -0.1533 0.7030
vn -0.0000 -0.9465 -0.3227
vn -0.0000 -0.2116 0.9773
vn -0.6944 -0.1533 0.7030
vn 0.1728 -0.9705 -0.1684
vn 0.4142 0.8233 0.3882
vn 0.4142 0.8233 -0.3882
vn -0.4142 0.8233 0.3882
vn -0.4142 0.8233 -0.3882
vn 0.6285 0.7778 -0.0000
vn -0.6285 0.7778 -0.0000
vn -0.0000 0.8278 0.5610
vn -0.0000 0.8278 -0.5610
vn -0.0000 -1.0000 -0.0000
vn 0.5346 -0.6087 -0.5862
vn 0.0186 -0.6175 -0.7864
vn 0.7052 -0.1530 -0.6923
vn 0.0059 -0.2061 -0.9785
vn 0.6828 0.3617 -0.6348
vn 0.9848 0.1735 -0.0000
vn -0.0000 0.3825 -0.9240
vn 0.6828 0.3617 0.6348
vn -0.0000 0.3825 0.9240
vn -0.6828 0.3617 -0.6348
vn -0.9848 0.1735 -0.0000
vn -0.6828 0.3617 0.6348
vt 0.164643 0.133449
vt 0.279198 0.133449
vt 0.279198 0.158599
vt 0.164643 0.158599
vt 0.279198 0.491064
vt 0.164643 0.491064
vt 0.164643 0.465963
vt 0.279198 0.465963
vt 0.279198 0.960334
vt 0.164643 0.960334
vt 0.164643 0.935184
vt 0.279198 0.935184
vt 0.320896 0.960334
vt 0.320896 0.935184
vt 0.320896 0.465963
vt 0.320896 0.491064
vt 0.320896 0.133449
vt 0.320896 0.158599
vt 0.164643 0.021793
vt 0.279198 0.021793
vt 0.320896 0.021793
vt 0.164643 0.627820
vt 0.279198 0.627820
vt 0.320896 0.627820
vt 0.498513 0.477940
vt 0.498513 0.501642
vt 0.401538 0.501642
vt 0.401538 0.477940
vt 0.613773 0.371880
vt 0.739694 0.371880
vt 0.739694 0.611242
vt 0.613773 0.611242
vt 0.498513 0.815634
vt 0.498513 0.921070
vt 0.401538 0.921070
vt 0.401538 0.815634
vt 0.498513 0.058559
vt 0.498513 0.348801
vt 0.401538 0.348801
vt 0.401538 0.058559
vt 0.498513 0.034810
vt 0.401538 0.034810
vt 0.498513 0.791885
vt 0.401538 0.791885
vt 0.498513 0.372504
vt 0.401538 0.372504
vt 0.053425 0.513955
vt 0.053425 0.488755
vt 0.077667 0.488755
vt 0.077667 0.513955
vt 0.053425 0.850703
vt 0.053425 0.825233
vt 0.077667 0.825233
vt 0.077667 0.850703
vt 0.053425 0.374458
vt 0.053425 0.349259
vt 0.077667 0.349259
vt 0.077667 0.374458
vt 0.053425 0.037980
vt 0.053425 0.012510
vt 0.077667 0.012510
vt 0.077667 0.037980
vt 0.077667 0.965001
vt 0.053425 0.965001
vt 0.044519 0.513955
vt 0.044519 0.488755
vt 0.044519 0.825233
vt 0.044519 0.374458
vt 0.044519 0.965001
vt 0.044519 0.850703
vt 0.044519 0.349259
vt 0.044519 0.037980
vt 0.044519 0.012510
vt 0.096661 0.488755
vt 0.096661 0.513955
vt 0.088512 0.513955
vt 0.088512 0.488755
vt 0.088512 0.374458
vt 0.088512 0.349259
vt 0.096661 0.349259
vt 0.096661 0.374458
vt 0.088512 0.037980
vt 0.088512 0.012510
vt 0.096661 0.012510
vt 0.096661 0.037980
vt 0.096661 0.825233
vt 0.096661 0.850703
vt 0.088512 0.850703
vt 0.088512 0.825233
vt 0.088512 0.965001
vt 0.096661 0.965001
vt 0.119818 0.374458
vt 0.119818 0.488755
vt 0.119818 0.513955
vt 0.119818 0.825233
vt 0.119818 0.349259
vt 0.119818 0.037980
vt 0.119818 0.012510
vt 0.119818 0.850703
vt 0.119818 0.965001
vt 0.010382 0.513955
vt 0.010382 0.488755
vt 0.030598 0.488755
vt 0.030598 0.513955
vt 0.010382 0.850703
vt 0.010382 0.825233
vt 0.030598 0.825233
vt 0.030598 0.850703
vt 0.010382 0.374458
vt 0.010382 0.349259
vt 0.030598 0.349259
vt 0.030598 0.374458
vt 0.010382 0.037980
vt 0.010382 0.012510
vt 0.030598 0.012510
vt 0.030598 0.037980
vt 0.030598 0.965001
vt 0.010382 0.965001
vt 0.752035 0.305747
vt 0.613773 0.305747
vt 0.613773 0.068319
vt 0.752035 0.068319
vt 0.164643 0.602720
vt 0.279198 0.602720
vt 0.320896 0.602720
vt 0.553562 0.791885
vt 0.553562 0.815634
vt 0.553562 0.501642
vt 0.553562 0.921070
vt 0.553562 0.477940
vt 0.553562 0.372504
vt 0.553562 0.034810
vt 0.553562 0.058559
vt 0.553562 0.348801
vt 0.625683 0.362028
vt 0.727784 0.362028
vt 0.727784 0.621093
vt 0.625683 0.621093
vt 0.636960 0.043282
vt 0.728847 0.043282
vt 0.728847 0.330785
vt 0.637998 0.328225
s 0
f 1/1/1 3/2/1 4/3/1 2/4/1
f 8/5/2 6/6/2 5/7/2 7/8/2
f 12/9/3 10/10/3 9/11/3 11/12/3
f 20/13/4 12/9/4 11/12/4 19/14/4
f 7/8/5 16/15/5 15/16/5 8/5/5
f 3/2/6 22/17/6 21/18/6 4/3/6
f 2/4/7 4/3/7 7/8/7 5/7/7
f 10/19/8 12/20/8 3/2/8 1/1/8
f 3/2/9 12/20/9 20/21/9 22/17/9
f 7/8/10 4/3/10 21/18/10 16/15/10
f 13/22/11 14/23/11 11/12/11 9/11/11
f 11/12/12 14/23/12 18/24/12 19/14/12
f 32/25/13 31/26/13 39/27/13 40/28/13
f 44/29/14 39/30/14 42/31/14 45/32/14
f 33/33/15 38/34/15 46/35/15 41/36/15
f 37/37/16 36/38/16 44/39/16 45/40/16
f 38/41/17 37/37/17 45/40/17 46/42/17
f 34/43/18 33/33/18 41/36/18 42/44/18
f 35/45/19 32/25/19 40/28/19 43/46/19
f 31/26/20 34/43/20 42/44/20 39/27/20
f 36/38/21 35/45/21 43/46/21 44/39/21
f 48/47/22 49/48/22 50/49/22 47/50/22
f 52/51/23 53/52/23 54/53/23 51/54/23
f 56/55/24 57/56/24 58/57/24 55/58/24
f 60/59/25 61/60/25 62/61/25 59/62/25
f 53/52/26 48/47/26 47/50/26 54/53/26
f 59/62/27 58/57/27 57/56/27 60/59/27
f 55/58/28 50/49/28 49/48/28 56/55/28
f 51/54/29 62/63/29 61/64/29 52/51/29
f 23/65/14 24/66/14 49/48/14 48/47/14
f 26/67/14 23/65/14 48/47/14 53/52/14
f 24/66/14 27/68/14 56/55/14 49/48/14
f 30/69/14 25/70/14 52/51/14 61/64/14
f 25/70/14 26/67/14 53/52/14 52/51/14
f 27/68/14 28/71/14 57/56/14 56/55/14
f 28/71/14 29/72/14 60/59/14 57/56/14
f 29/72/14 30/73/14 61/60/14 60/59/14
f 64/74/30 65/75/30 66/76/30 63/77/30
f 68/78/31 69/79/31 70/80/31 67/81/31
f 72/82/32 73/83/32 74/84/32 71/85/32
f 76/86/33 77/87/33 78/88/33 75/89/33
f 73/90/34 78/88/34 77/87/34 74/91/34
f 75/89/35 66/76/35 65/75/35 76/86/35
f 63/77/36 68/78/36 67/81/36 64/74/36
f 69/79/37 72/82/37 71/85/37 70/80/37
f 66/76/38 47/50/38 50/49/38 63/77/38
f 17/92/39 15/93/39 64/74/39 67/81/39
f 15/93/40 16/94/40 65/75/40 64/74/40
f 68/78/41 63/77/41 50/49/41 55/58/41
f 66/76/10 75/89/10 54/53/10 47/50/10
f 16/94/42 21/95/42 76/86/42 65/75/42
f 58/57/43 69/79/43 68/78/43 55/58/43
f 18/96/44 17/92/44 67/81/44 70/80/44
f 19/97/45 18/96/45 70/80/45 71/85/45
f 72/82/12 69/79/12 58/57/12 59/62/12
f 20/98/46 19/97/46 71/85/46 74/84/46
f 62/61/47 73/83/47 72/82/47 59/62/47
f 22/99/48 20/100/48 74/91/48 77/87/48
f 78/88/49 73/90/49 62/63/49 51/54/49
f 78/88/50 51/54/50 54/53/50 75/89/50
f 21/95/51 22/99/51 77/87/51 76/86/51
f 88/101/52 85/102/52 86/103/52 87/104/52
f 84/105/53 81/106/53 82/107/53 83/108/53
f 96/109/54 93/110/54 94/111/54 95/112/54
f 92/113/55 89/114/55 90/115/55 91/116/55
f 81/106/56 88/101/56 87/104/56 82/107/56
f 91/116/57 94/111/57 93/110/57 92/113/57
f 95/112/58 86/103/58 85/102/58 96/109/58
f 83/108/59 90/117/59 89/118/59 84/105/59
f 5/119/60 13/120/60 9/121/60 2/122/60
f 14/23/61 13/22/61 79/123/61 80/124/61
f 6/6/62 8/5/62 80/124/62 79/123/62
f 18/24/63 14/23/63 80/124/63 17/125/63
f 80/124/64 8/5/64 15/16/64 17/125/64
f 81/126/65 84/127/65 33/33/65 34/43/65
f 82/107/14 87/104/14 23/65/14 26/67/14
f 83/108/14 82/107/14 26/67/14 25/70/14
f 88/128/66 81/126/66 34/43/66 31/26/66
f 84/127/67 89/129/67 38/34/67 33/33/67
f 90/117/14 83/108/14 25/70/14 30/69/14
f 85/130/68 88/128/68 31/26/68 32/25/68
f 86/103/14 95/112/14 27/68/14 24/66/14
f 87/104/14 86/103/14 24/66/14 23/65/14
f 96/131/69 85/130/69 32/25/69 35/45/69
f 89/132/70 92/133/70 37/37/70 38/41/70
f 91/116/14 90/115/14 30/73/14 29/72/14
f 92/133/71 93/134/71 36/38/71 37/37/71
f 94/111/14 91/116/14 29/72/14 28/71/14
f 93/134/72 96/131/72 35/45/72 36/38/72
f 95/112/14 94/111/14 28/71/14 27/68/14
f 39/30/14 44/29/14 43/135/14 40/136/14
f 45/32/14 42/31/14 41/137/14 46/138/14
f 2/122/60 9/121/60 10/139/60 1/140/60
f 13/120/60 5/119/60 6/141/60 79/142/60
