# Blender 4.5.1 LTS
# www.blender.org
mtllib Géometry_Chair_UV.mtl
o Ajustement_Bar
v -0.088594 0.759571 0.087517
v 0.007109 0.705222 0.089415
v -0.088963 0.725682 0.101549
v 0.006741 0.671332 0.103447
v -0.089891 0.711644 0.135427
v 0.005812 0.657295 0.137325
v -0.090836 0.725682 0.169304
v 0.004868 0.671332 0.171202
v -0.091244 0.759571 0.183334
v 0.004459 0.705222 0.185234
v -0.090876 0.793461 0.169302
v 0.004827 0.739112 0.171200
v -0.089947 0.807499 0.135426
v 0.005756 0.753150 0.137323
v -0.089003 0.793461 0.101549
v 0.006701 0.739112 0.103447
v -0.164104 0.791918 0.069113
v -0.165701 0.757015 0.080284
v -0.169067 0.740305 0.112766
v -0.172230 0.751576 0.147530
v -0.173340 0.784227 0.164211
v -0.171743 0.819130 0.153040
v -0.168377 0.835840 0.120558
v -0.165215 0.824568 0.085794
v 0.025255 0.663941 0.094435
v 0.012249 0.697830 0.089153
v 0.056641 0.649903 0.107224
v 0.088018 0.663941 0.120026
v 0.101009 0.697830 0.125343
v 0.088003 0.731720 0.120062
v 0.056620 0.745758 0.107275
v 0.025240 0.731720 0.094471
v 0.037285 0.663963 0.072601
v 0.023252 0.697853 0.073038
v 0.071159 0.649925 0.071585
v 0.105034 0.663963 0.070583
v 0.119066 0.697853 0.070185
v 0.105036 0.731743 0.070623
v 0.071161 0.745780 0.071640
v 0.037285 0.731743 0.072639
v 0.041410 0.671860 -0.051723
v 0.030619 0.697925 -0.051388
v 0.067234 0.671380 -0.060232
v 0.093517 0.671860 -0.053274
v 0.104309 0.697925 -0.053581
v 0.093517 0.723990 -0.053246
v 0.067234 0.724479 -0.060202
v 0.041412 0.723990 -0.051693
v 0.037523 0.677882 -0.515255
v 0.029211 0.697957 -0.514996
v 0.057819 0.677504 -0.508120
v 0.077656 0.677882 -0.516451
v 0.085968 0.697957 -0.516685
v 0.077658 0.718033 -0.516426
v 0.057821 0.718401 -0.508097
v 0.037523 0.718033 -0.515232
vn -0.1941 -0.3735 -0.9071
vn -0.4571 -0.8172 -0.3511
vn -0.4717 -0.8192 0.3263
vn -0.2306 -0.3746 0.8981
vn 0.1941 0.3735 0.9071
vn 0.4571 0.8172 0.3512
vn 0.4784 -0.3220 0.8169
vn 0.4717 0.8192 -0.3263
vn 0.2306 0.3746 -0.8981
vn -0.2197 -0.8797 -0.4218
vn -0.9953 0.0150 -0.0954
vn -0.0963 0.3448 0.9337
vn 0.3568 0.3982 -0.8451
vn 0.0990 -0.3448 -0.9334
vn -0.3802 -0.8749 0.2999
vn 0.2161 0.8805 0.4220
vn -0.3370 -0.4009 0.8519
vn 0.3933 0.8700 -0.2973
vn 0.8799 0.3721 0.2954
vn -0.0803 0.8764 -0.4748
vn -0.3573 -0.8848 -0.2991
vn 0.5166 0.3224 0.7932
vn -0.1779 0.3005 -0.9370
vn -0.5130 -0.3225 -0.7955
vn 0.1621 -0.8887 0.4288
vn 0.3031 0.8909 0.3382
vn -0.2514 0.9617 -0.1093
vn 0.3705 -0.9187 0.1369
vn -0.7994 -0.3536 -0.4856
vn -0.7995 0.3540 -0.4852
vn 0.3703 0.9186 0.1379
vn 0.8800 -0.3723 0.2949
vn -0.3637 -0.9161 -0.1687
vn -0.3639 0.9162 -0.1676
vn 0.0182 0.9997 -0.0137
vn 0.9179 0.3814 -0.1092
vn 0.2444 -0.9616 -0.1252
vn -0.9228 -0.3814 -0.0548
vn -0.9228 0.3815 -0.0544
vn 0.2445 0.9617 -0.1240
vn 0.9179 -0.3813 -0.1097
vn -0.2515 -0.9616 -0.1104
vn -0.0298 0.0006 -0.9996
vn 0.9232 -0.3827 -0.0366
vn -0.0190 -0.9997 -0.0130
vn -0.0190 0.9997 -0.0129
vn 0.9232 0.3827 -0.0365
vn 0.0182 -0.9997 -0.0138
vn -0.9239 -0.3826 0.0028
vn -0.9239 0.3826 0.0028
vt 2.926422 0.566055
vt 2.926422 0.642568
vt 2.907294 0.642568
vt 2.907294 0.566055
vt 2.888166 0.642568
vt 2.888166 0.566055
vt 2.869038 0.642568
vt 2.869038 0.566055
vt 2.849910 0.642568
vt 2.849910 0.566055
vt 2.830782 0.642568
vt 2.830782 0.566055
vt 2.811654 0.642568
vt 2.811654 0.566055
vt 2.792526 0.642568
vt 2.792526 0.566055
vt 2.773397 0.642568
vt 2.773397 0.566055
vt 2.842293 0.491504
vt 2.889218 0.472067
vt 2.908655 0.425142
vt 2.889218 0.378217
vt 2.842293 0.358781
vt 2.795368 0.378217
vt 2.775932 0.425142
vt 2.795368 0.472067
s 1
usemtl Material.012
f 1/1/1 2/2/1 4/3/1 3/4/1
f 3/4/2 4/3/2 6/5/2 5/6/2
f 5/6/3 6/5/3 8/7/3 7/8/3
f 7/8/4 8/7/4 10/9/4 9/10/4
f 9/10/5 10/9/5 12/11/5 11/12/5
f 11/12/6 12/11/6 14/13/6 13/14/6
f 10/9/7 8/7/7 28/7/7 29/9/7
f 13/14/8 14/13/8 16/15/8 15/16/8
f 15/16/9 16/15/9 2/17/9 1/18/9
f 3/4/10 5/6/10 19/6/10 18/4/10
f 17/19/11 18/20/11 19/21/11 20/22/11 21/23/11 22/24/11 23/25/11 24/26/11
f 9/10/12 11/12/12 22/12/12 21/10/12
f 15/16/13 1/18/13 17/18/13 24/16/13
f 1/1/14 3/4/14 18/4/14 17/1/14
f 5/6/15 7/8/15 20/8/15 19/6/15
f 11/12/16 13/14/16 23/14/16 22/12/16
f 7/8/17 9/10/17 21/10/17 20/8/17
f 13/14/18 15/16/18 24/16/18 23/14/18
f 30/11/19 29/9/19 37/9/19 38/11/19
f 16/15/20 14/13/20 31/13/20 32/15/20
f 6/5/21 4/3/21 25/3/21 27/5/21
f 12/11/22 10/9/22 29/9/22 30/11/22
f 2/17/23 16/15/23 32/15/23 26/17/23
f 4/3/24 2/2/24 26/2/24 25/3/24
f 8/7/25 6/5/25 27/5/25 28/7/25
f 14/13/26 12/11/26 30/11/26 31/13/26
f 40/15/27 39/13/27 47/13/27 48/15/27
f 28/7/28 27/5/28 35/5/28 36/7/28
f 25/3/29 26/2/29 34/2/29 33/3/29
f 26/17/30 32/15/30 40/15/30 34/17/30
f 31/13/31 30/11/31 38/11/31 39/13/31
f 29/9/32 28/7/32 36/7/32 37/9/32
f 27/5/33 25/3/33 33/3/33 35/5/33
f 32/15/34 31/13/34 39/13/34 40/15/34
f 47/13/35 46/11/35 54/11/35 55/13/35
f 38/11/36 37/9/36 45/9/36 46/11/36
f 36/7/37 35/5/37 43/5/37 44/7/37
f 33/3/38 34/2/38 42/2/38 41/3/38
f 34/17/39 40/15/39 48/15/39 42/17/39
f 39/13/40 38/11/40 46/11/40 47/13/40
f 37/9/41 36/7/41 44/7/41 45/9/41
f 35/5/42 33/3/42 41/3/42 43/5/42
f 49/20/43 50/19/43 56/26/43 55/25/43 54/24/43 53/23/43 52/22/43 51/21/43
f 45/9/44 44/7/44 52/7/44 53/9/44
f 43/5/45 41/3/45 49/3/45 51/5/45
f 48/15/46 47/13/46 55/13/46 56/15/46
f 46/11/47 45/9/47 53/9/47 54/11/47
f 44/7/48 43/5/48 51/5/48 52/7/48
f 41/3/49 42/2/49 50/2/49 49/3/49
f 42/17/50 48/15/50 56/15/50 50/17/50
o Armrest
v 0.585532 1.359505 0.669950
v 0.585532 1.217902 0.669950
v 0.585532 1.359505 0.811553
v 0.585532 1.217902 0.811553
v -0.435801 1.359505 0.669950
v -0.435801 1.217902 0.669950
v -0.435801 1.359505 0.811553
v -0.435801 1.217902 0.811553
v -0.300709 1.217902 0.669950
v -0.300709 1.359505 0.811553
v -0.300709 1.359505 0.669950
v -0.300709 1.217902 0.811553
v 0.451772 1.359505 0.669950
v 0.451772 1.217902 0.811553
v 0.451772 1.217902 0.669950
v 0.451772 1.359505 0.811553
v 0.451772 0.990853 0.669950
v 0.264684 0.990853 0.669950
v 0.451772 0.990853 0.811553
v 0.264684 0.990853 0.811553
v 0.264684 1.359505 0.811553
v 0.264684 1.217902 0.811553
v 0.264684 1.217902 0.669950
v 0.264684 1.359505 0.669950
v -0.112589 1.359505 0.811553
v -0.112589 1.217902 0.811553
v -0.112589 1.217902 0.669950
v -0.112589 1.359505 0.669950
v -0.300709 0.990853 0.669950
v -0.300709 0.990853 0.811553
v -0.112589 0.990853 0.811553
v -0.112589 0.990853 0.669950
v -0.112589 0.893174 0.811553
v -0.112589 0.893174 0.669950
v 0.451772 0.893174 0.669950
v 0.451772 0.893174 0.811553
v 0.264684 0.893174 0.811553
v -0.300709 0.893174 0.669950
v -0.300709 0.893174 0.811553
v 0.264684 0.893174 0.669950
v 0.585532 1.359505 -0.601776
v 0.585532 1.217901 -0.601776
v 0.585532 1.359504 -0.743379
v 0.585532 1.217901 -0.743379
v -0.435801 1.359505 -0.601776
v -0.435801 1.217901 -0.601776
v -0.435801 1.359504 -0.743379
v -0.435801 1.217901 -0.743379
v -0.300709 1.217901 -0.601776
v -0.300709 1.359504 -0.743379
v -0.300709 1.359505 -0.601776
v -0.300709 1.217901 -0.743379
v 0.451772 1.359505 -0.601776
v 0.451772 1.217901 -0.743379
v 0.451772 1.217901 -0.601776
v 0.451772 1.359504 -0.743379
v 0.451772 0.990853 -0.601776
v 0.264684 0.990853 -0.601776
v 0.451772 0.990853 -0.743379
v 0.264684 0.990853 -0.743379
v 0.264684 1.359504 -0.743379
v 0.264684 1.217901 -0.743379
v 0.264684 1.217901 -0.601776
v 0.264684 1.359505 -0.601776
v -0.112589 1.359504 -0.743379
v -0.112589 1.217901 -0.743379
v -0.112589 1.217901 -0.601776
v -0.112589 1.359505 -0.601776
v -0.300709 0.990853 -0.601776
v -0.300709 0.990853 -0.743379
v -0.112589 0.990853 -0.743379
v -0.112589 0.990853 -0.601776
v -0.112589 0.893174 -0.743379
v -0.112589 0.893174 -0.601776
v 0.451772 0.893174 -0.601776
v 0.451772 0.893174 -0.743379
v 0.264684 0.893174 -0.743379
v -0.300709 0.893174 -0.601776
v -0.300709 0.893174 -0.743379
v 0.264684 0.893174 -0.601776
vn -1.0000 -0.0000 -0.0000
vn -0.0000 -1.0000 -0.0000
vn 1.0000 -0.0000 -0.0000
vn -0.0000 -0.0000 -1.0000
vn -0.0000 1.0000 -0.0000
vn -0.0000 -0.0000 1.0000
vt 0.646105 0.274407
vt 0.646105 0.327691
vt 0.605461 0.327691
vt 0.605461 0.274407
vt 0.926593 0.068897
vt 0.964626 0.068897
vt 0.964626 0.108583
vt 0.926593 0.108583
vt 0.926290 0.274736
vt 0.926290 0.327465
vt 0.964282 0.327465
vt 0.964282 0.274736
vt 0.712635 0.068897
vt 0.674223 0.068897
vt 0.674223 0.108583
vt 0.712635 0.108583
vt 0.712564 0.274736
vt 0.712564 0.327465
vt 0.674194 0.327465
vt 0.674194 0.274736
vt 0.549249 0.300644
vt 0.593350 0.300644
vt 0.593350 0.160603
vt 0.549249 0.160603
vt 0.765995 0.327465
vt 0.765995 0.274736
vt 0.712564 0.327465
vt 0.712564 0.274736
vt 0.766124 0.108583
vt 0.766124 0.068897
vt 0.873397 0.108583
vt 0.873397 0.068897
vt 0.926290 0.190189
vt 0.873151 0.190189
vt 0.873151 0.153817
vt 0.926290 0.153817
vt 0.522997 0.062939
vt 0.644448 0.062939
vt 0.644448 0.122702
vt 0.522997 0.122702
vt 0.873151 0.327465
vt 0.873151 0.274736
vt 0.646105 0.188969
vt 0.605461 0.188969
vt 0.712564 0.190189
vt 0.765995 0.190189
vt 0.712564 0.190189
vt 0.766124 0.108583
vt 0.766124 0.068897
vt 0.605461 0.152213
vt 0.646105 0.152213
vt 0.765995 0.153817
vt 0.712564 0.153817
vt 0.712564 0.153817
vt 0.605461 0.274406
vt 0.646105 0.274406
vt 0.646105 0.327691
vt 0.926593 0.068897
vt 0.964626 0.068897
vt 0.926290 0.274736
vt 0.964282 0.274736
vt 0.964282 0.327464
vt 0.926290 0.327464
vt 0.712635 0.068897
vt 0.674223 0.068897
vt 0.712564 0.274736
vt 0.674194 0.274736
vt 0.674194 0.327464
vt 0.712564 0.327464
vt 0.765995 0.327464
vt 0.765995 0.274736
vt 0.712564 0.274736
vt 0.712564 0.327464
vt 0.766124 0.068897
vt 0.873397 0.068897
vt 0.926290 0.190189
vt 0.926290 0.153816
vt 0.873151 0.153816
vt 0.873151 0.190189
vt 0.873151 0.274736
vt 0.873151 0.327464
vt 0.646105 0.188969
vt 0.605461 0.188969
vt 0.765995 0.190189
vt 0.712564 0.190189
vt 0.712564 0.190189
vt 0.766124 0.068897
vt 0.712564 0.153816
vt 0.765995 0.153816
vt 0.646105 0.152213
vt 0.605461 0.152213
vt 0.712564 0.153816
s 0
usemtl Material.012
f 64/27/51 63/28/51 61/29/51 62/30/51
f 71/31/52 58/32/52 60/33/52 70/34/52
f 58/30/53 57/29/53 59/28/53 60/27/53
f 71/35/54 69/36/54 57/37/54 58/38/54
f 67/39/55 61/40/55 63/41/55 66/42/55
f 68/43/56 66/44/56 63/45/56 64/46/56
f 78/47/51 79/48/51 74/49/51 76/50/51
f 81/51/56 66/44/56 68/43/56 82/52/56
f 62/40/52 65/39/52 68/42/52 64/41/52
f 62/46/54 61/45/54 67/53/54 65/54/54
f 81/55/55 84/56/55 67/39/55 66/42/55
f 57/32/55 69/31/55 72/34/55 59/33/55
f 60/38/56 59/37/56 72/36/56 70/35/56
f 83/52/54 65/54/54 67/53/54 84/51/54
f 81/55/55 77/57/55 80/58/55 84/56/55
f 75/59/56 76/60/56 93/61/56 92/62/56
f 83/63/52 79/64/52 78/65/52 82/66/52
f 83/48/53 82/47/53 87/50/53 88/49/53
f 72/36/56 77/67/56 78/68/56 70/35/56
f 72/34/55 69/31/55 80/58/55 77/57/55
f 71/35/54 79/68/54 80/67/54 69/36/54
f 81/51/56 82/52/56 78/68/56 77/67/56
f 71/30/53 70/27/53 75/69/53 73/70/53
f 79/68/54 71/35/54 73/59/54 74/60/54
f 83/52/54 84/51/54 80/67/54 79/68/54
f 82/52/56 68/43/56 86/71/56 87/72/56
f 68/27/51 65/30/51 85/70/51 86/69/51
f 65/54/54 83/52/54 88/72/54 85/73/54
f 70/35/56 78/68/56 76/60/56 75/59/56
f 92/34/52 93/57/52 96/58/52 91/31/52
f 89/74/52 95/42/52 94/39/52 90/75/52
f 74/60/54 73/59/54 91/62/54 96/61/54
f 86/69/51 85/70/51 94/76/51 95/77/51
f 85/73/54 88/72/54 90/78/54 94/79/54
f 73/70/53 75/69/53 92/77/53 91/76/53
f 87/72/56 86/71/56 95/80/56 89/78/56
f 76/65/52 87/66/52 88/63/52 74/64/52
f 87/72/54 76/60/54 93/61/54 89/78/54
f 89/74/55 93/57/55 96/58/55 90/75/55
f 90/78/56 96/61/56 74/60/56 88/72/56
f 104/81/51 102/82/51 101/83/51 103/29/51
f 111/34/52 110/84/52 100/85/52 98/33/52
f 98/82/53 100/81/53 99/29/53 97/83/53
f 111/86/56 98/87/56 97/88/56 109/89/56
f 107/42/55 106/90/55 103/91/55 101/41/55
f 108/92/54 104/93/54 103/94/54 106/95/54
f 118/48/51 116/49/51 114/50/51 119/47/51
f 121/96/54 122/97/54 108/92/54 106/95/54
f 102/41/52 104/91/52 108/90/52 105/42/52
f 102/93/56 105/98/56 107/99/56 101/94/56
f 121/100/55 106/90/55 107/42/55 124/74/55
f 97/33/55 99/85/55 112/84/55 109/34/55
f 100/87/54 110/86/54 112/89/54 99/88/54
f 123/97/56 124/96/56 107/99/56 105/98/56
f 121/100/55 124/74/55 120/57/55 117/101/55
f 115/102/54 132/103/54 133/104/54 116/105/54
f 123/66/52 122/63/52 118/64/52 119/65/52
f 123/47/53 128/50/53 127/49/53 122/48/53
f 112/89/54 110/86/54 118/106/54 117/107/54
f 112/84/55 117/101/55 120/57/55 109/34/55
f 111/86/56 109/89/56 120/107/56 119/106/56
f 121/96/54 117/107/54 118/106/54 122/97/54
f 111/82/53 113/108/53 115/109/53 110/81/53
f 119/106/56 114/105/56 113/102/56 111/86/56
f 123/97/56 119/106/56 120/107/56 124/96/56
f 122/97/54 127/110/54 126/111/54 108/92/54
f 108/81/51 126/109/51 125/108/51 105/82/51
f 105/98/56 125/112/56 128/110/56 123/97/56
f 110/86/54 115/102/54 116/105/54 118/106/54
f 132/84/52 131/34/52 136/57/52 133/101/52
f 129/113/52 130/55/52 134/42/52 135/90/52
f 114/105/56 136/104/56 131/103/56 113/102/56
f 126/90/51 135/90/51 134/42/51 125/42/51
f 125/112/56 134/114/56 130/115/56 128/110/56
f 113/108/53 131/116/53 132/117/53 115/109/53
f 127/110/54 129/115/54 135/118/54 126/111/54
f 116/64/52 114/65/52 128/66/52 127/63/52
f 127/110/56 129/115/56 133/104/56 116/105/56
f 129/113/55 130/55/55 136/57/55 133/101/55
f 130/115/54 128/110/54 114/105/54 136/104/54
o Back_Chair
v -0.584602 0.979426 -0.595137
v -0.584602 0.841786 -0.595137
v 0.687885 0.979426 -0.620795
v 0.687885 0.841786 -0.620795
v -0.558945 0.979426 0.677350
v -0.558945 0.841786 0.677350
v 0.713543 0.979426 0.651693
v 0.713543 0.841786 0.651693
v -0.420370 0.979426 -0.598449
v -0.420370 0.841786 -0.598449
v -0.394713 0.979426 0.674039
v -0.394713 0.841786 0.674039
v -0.546654 2.090208 -0.595902
v -0.710165 2.074825 -0.592605
v -0.684507 2.074825 0.679883
v -0.520996 2.090208 0.676587
vn -0.0202 -0.0000 -0.9998
vn 0.9998 -0.0000 -0.0202
vn 0.0202 -0.0000 0.9998
vn -0.9998 -0.0000 0.0202
vn -0.0000 -1.0000 -0.0000
vn -0.0000 1.0000 -0.0000
vn -0.0936 0.9956 0.0019
vn -0.9933 -0.1139 0.0200
vn 0.9934 0.1130 -0.0200
vt 0.052729 0.100723
vt 0.052729 0.426188
vt 0.016375 0.426188
vt 0.016375 0.100723
vt 0.513106 0.068309
vt 0.077959 0.068309
vt 0.077959 0.035455
vt 0.513106 0.035455
vt 0.053766 0.480923
vt 0.015852 0.480923
vt 0.015852 0.448760
vt 0.053766 0.448760
vt 0.133804 0.547490
vt 0.468326 0.547490
vt 0.468326 0.512219
vt 0.133804 0.512219
vt 0.074525 0.566438
vt 0.074525 0.906529
vt 0.025996 0.906529
vt 0.025996 0.566438
vt 0.106568 0.450847
vt 0.106568 0.487205
vt 0.490775 0.487205
vt 0.490775 0.450847
vt 0.107852 0.098130
vt 0.107852 0.427263
vt 0.492735 0.427263
vt 0.492735 0.098130
vt 0.504040 0.937264
vt 0.504040 0.979716
vt 0.107709 0.979716
vt 0.107709 0.937264
vt 0.109415 0.570633
vt 0.108648 0.903624
vt 0.494023 0.903624
vt 0.494790 0.570633
vt 0.495793 0.570633
vt 0.495021 0.903362
vt 0.109646 0.903362
vt 0.110418 0.570633
s 1
usemtl Material.003
f 145/119/57 139/120/57 140/121/57 146/122/57
f 139/123/58 143/124/58 144/125/58 140/126/58
f 147/127/59 141/128/59 142/129/59 148/130/59
f 141/131/60 137/132/60 138/133/60 142/134/60
f 137/135/57 150/136/57 149/137/57 145/138/57
f 148/139/61 142/140/61 138/141/61 146/142/61
f 144/143/61 148/144/61 146/145/61 140/146/61
f 139/146/62 145/145/62 147/144/62 143/143/62
f 143/120/59 147/119/59 148/122/59 144/121/59
f 137/128/57 145/127/57 146/130/57 138/129/57
f 149/147/63 150/148/63 151/149/63 152/150/63
f 147/138/59 152/137/59 151/136/59 141/135/59
f 141/151/64 151/152/64 150/153/64 137/154/64
f 145/155/65 149/156/65 152/157/65 147/158/65
o Cube.005
o Top_Feet.001
v -2.377306 7.334086 37.638405
v -2.394903 7.322327 37.638405
v -2.371226 7.334086 37.623730
v -2.383669 7.322327 37.611286
vn -0.5414 0.8103 -0.2243
vt 0.982393 0.729132
vt 0.982393 0.822864
vt 0.888661 0.822864
vt 0.888661 0.729132
s 1
usemtl Sofa.001
f 154/159/66 153/160/66 155/161/66 156/162/66
o Weeling_chair
v -0.067471 0.145162 0.001354
v -0.067471 0.840375 0.001354
v -0.048672 0.145162 -0.046753
v -0.048672 0.840375 -0.046753
v -0.001360 0.145162 -0.067476
v -0.001360 0.840375 -0.067476
v 0.046747 0.145162 -0.048677
v 0.046747 0.840375 -0.048677
v 0.067471 0.145162 -0.001366
v 0.067471 0.840375 -0.001366
v 0.048672 0.145162 0.046742
v 0.048672 0.840375 0.046741
v 0.001360 0.145162 0.067465
v 0.001360 0.840375 0.067465
v -0.046747 0.145162 0.048666
v -0.046747 0.840375 0.048666
vn -0.9314 -0.0000 -0.3640
vn -0.4012 -0.0000 -0.9160
vn 0.3640 -0.0000 -0.9314
vn 0.9160 -0.0000 -0.4012
vn 0.9314 -0.0000 0.3640
vn 0.4012 -0.0000 0.9160
vn -0.0000 1.0000 -0.0000
vn -0.3640 -0.0000 0.9314
vn -0.9160 -0.0000 0.4012
vn -0.0000 -1.0000 -0.0000
vt 0.707152 0.971792
vt 0.707152 0.839444
vt 0.697994 0.839444
vt 0.697994 0.971792
vt 0.707001 0.971792
vt 0.707001 0.839444
vt 0.716159 0.971792
vt 0.716159 0.839444
vt 0.697628 0.971792
vt 0.697628 0.839444
vt 0.706634 0.839444
vt 0.706634 0.971792
vt 0.715793 0.839444
vt 0.715793 0.971792
vt 0.716525 0.839444
vt 0.716525 0.971792
vt 0.707519 0.971792
vt 0.707519 0.839444
vt 0.555362 0.838979
vt 0.537112 0.885680
vt 0.557230 0.931608
vt 0.603931 0.949858
vt 0.649859 0.929740
vt 0.668109 0.883039
vt 0.647991 0.837111
vt 0.601290 0.818861
vt 0.698360 0.971792
vt 0.698360 0.839444
s 1
usemtl Material.012
f 157/163/67 158/164/67 160/165/67 159/166/67
f 159/165/68 160/166/68 162/167/68 161/168/68
f 161/168/69 162/167/69 164/169/69 163/170/69
f 163/171/70 164/172/70 166/173/70 165/174/70
f 165/174/71 166/173/71 168/175/71 167/176/71
f 167/177/72 168/178/72 170/179/72 169/180/72
f 160/181/73 158/182/73 172/183/73 170/184/73 168/185/73 166/186/73 164/187/73 162/188/73
f 169/180/74 170/179/74 172/189/74 171/190/74
f 171/169/75 172/170/75 158/164/75 157/163/75
f 157/182/76 159/181/76 161/188/76 163/187/76 165/186/76 167/185/76 169/184/76 171/183/76
o Cube
v -0.058147 0.111606 0.090301
v -0.058147 0.175043 0.090301
v -0.058147 0.111606 -0.080103
v -0.058147 0.175043 -0.080103
v 0.065124 0.111606 0.037964
v 0.065124 0.175043 0.037964
v 0.065124 0.111606 -0.027766
v 0.065124 0.175043 -0.027766
v 0.724253 0.141915 -0.051500
v 0.724253 0.079594 -0.051500
v 0.724253 0.079594 0.061698
v 0.724253 0.141915 0.061698
v 0.689628 -0.004492 -0.014791
v 0.689628 -0.004492 0.024989
v 0.705475 -0.005953 -0.015519
v 0.705475 -0.005953 0.025717
v 0.612864 0.175043 0.047676
v 0.612864 0.061099 0.047676
v 0.612864 0.175043 -0.037478
v 0.612864 0.061099 -0.037478
v 0.680751 0.141915 0.026160
v 0.680751 0.083606 0.026160
v 0.680751 0.141915 -0.015962
v 0.680751 0.083606 -0.015962
v 0.818281 0.086466 -0.051500
v 0.818281 0.040154 -0.051500
v 0.818281 0.040154 0.061698
v 0.818281 0.086466 0.061698
v 0.863535 -0.003053 -0.051500
v 0.863535 -0.049364 -0.051500
v 0.863535 -0.049364 0.061698
v 0.863535 -0.003053 0.061698
vn -1.0000 -0.0000 -0.0000
vn 0.3908 -0.0000 -0.9205
vn -0.0000 1.0000 -0.0000
vn 0.3908 -0.0000 0.9205
vn -0.0000 -1.0000 -0.0000
vn 0.5080 0.8614 -0.0000
vn -0.6327 -0.0000 -0.7744
vn -0.6327 -0.0000 0.7744
vn 0.9767 -0.2144 -0.0000
vn -0.5256 -0.1492 0.8376
vn -0.0918 -0.9958 -0.0000
vn -0.5256 -0.1492 -0.8376
vn -0.0177 -0.0000 -0.9998
vn -0.9950 -0.1002 -0.0000
vn -0.0177 -0.0000 0.9998
vn 0.3147 -0.9492 -0.0000
vn 0.3021 -0.0000 0.9533
vn 0.3021 -0.0000 -0.9533
vn 0.4386 0.8987 -0.0000
vn -0.0000 -0.0000 1.0000
vn -0.0000 -0.0000 -1.0000
vn -0.3868 -0.9222 -0.0000
vn 1.0000 -0.0000 -0.0000
vn -0.8924 -0.4512 -0.0000
vn 0.8924 0.4512 -0.0000
vt 0.940235 0.879018
vt 0.970095 0.879018
vt 0.970095 0.959228
vt 0.940235 0.959228
vt 0.902475 0.359988
vt 0.971561 0.359988
vt 0.971561 0.463923
vt 0.902475 0.463923
vt 0.884508 0.768215
vt 0.838143 0.768215
vt 0.838143 0.789365
vt 0.884508 0.789365
vt 0.884508 0.361896
vt 0.884508 0.463597
vt 0.838143 0.463597
vt 0.838143 0.361896
vt 0.838143 0.835044
vt 0.884508 0.835044
vt 0.902475 0.753971
vt 0.971561 0.753971
vt 0.971561 0.773004
vt 0.902475 0.773004
vt 0.867238 0.899298
vt 0.867238 0.938860
vt 0.831670 0.938860
vt 0.831670 0.899298
vt 0.838143 0.712312
vt 0.884508 0.712312
vt 0.899411 0.973166
vt 0.899411 0.939193
vt 0.867905 0.939193
vt 0.867905 0.973166
vt 0.971561 0.703575
vt 0.902475 0.703575
vt 0.867802 0.898224
vt 0.867802 0.866953
vt 0.899351 0.866953
vt 0.899351 0.898224
vt 0.971561 0.785667
vt 0.902475 0.785667
vt 0.902475 0.857907
vt 0.971561 0.857907
vt 0.867383 0.899230
vt 0.898985 0.899230
vt 0.898985 0.938611
vt 0.867383 0.938611
vt 0.884508 0.857021
vt 0.838143 0.857021
vt 0.898948 0.899160
vt 0.898948 0.938463
vt 0.931695 0.938463
vt 0.931695 0.899160
s 0
usemtl Material.003
f 173/191/77 174/192/77 176/193/77 175/194/77
f 175/195/78 176/196/78 180/197/78 179/198/78
f 195/199/79 193/200/79 184/201/79 181/202/79
f 177/198/80 178/197/80 174/196/80 173/195/80
f 175/203/81 179/204/81 177/205/81 173/206/81
f 180/204/79 176/203/79 174/206/79 178/205/79
f 181/202/82 184/201/82 200/207/82 197/208/82
f 196/209/83 195/210/83 181/211/83 182/212/83
f 193/210/84 194/209/84 183/212/84 184/211/84
f 182/213/85 183/214/85 188/215/85 187/216/85
f 180/204/79 178/205/79 189/217/79 191/218/79
f 183/219/86 194/220/86 186/221/86 188/222/86
f 177/205/87 179/204/87 192/218/87 190/217/87
f 196/220/88 182/219/88 187/222/88 185/221/88
f 179/198/89 180/197/89 191/223/89 192/224/89
f 194/225/90 196/226/90 185/227/90 186/228/90
f 178/197/91 177/198/91 190/224/91 189/223/91
f 190/217/92 192/218/92 196/199/92 194/200/92
f 189/223/93 190/224/93 194/209/93 193/210/93
f 192/224/94 191/223/94 195/210/94 196/209/94
f 191/218/95 189/217/95 193/200/95 195/199/95
f 200/229/96 199/230/96 203/231/96 204/232/96
f 182/212/97 181/211/97 197/229/97 198/230/97
f 184/211/96 183/212/96 199/230/96 200/229/96
f 183/201/98 182/202/98 198/208/98 199/207/98
f 202/233/99 201/234/99 204/235/99 203/236/99
f 199/207/100 198/208/100 202/237/100 203/238/100
f 197/239/101 200/240/101 204/241/101 201/242/101
f 198/230/97 197/229/97 201/232/97 202/231/97
o Cube.001
o Cube.002
v 0.082100 0.111606 0.071921
v 0.082100 0.175043 0.071921
v -0.082497 0.111606 0.027817
v -0.082497 0.175043 0.027817
v 0.063451 0.111606 -0.060696
v 0.063451 0.175043 -0.060696
v -0.000039 0.111606 -0.077708
v -0.000039 0.175043 -0.077708
v 0.147631 0.141915 -0.720521
v 0.147631 0.079594 -0.720521
v 0.256972 0.079594 -0.691223
v 0.256972 0.141915 -0.691223
v 0.174127 -0.004492 -0.677573
v 0.212552 -0.004492 -0.667278
v 0.177525 -0.005953 -0.693069
v 0.217357 -0.005953 -0.682397
v 0.214598 0.175043 -0.587258
v 0.214598 0.061099 -0.587258
v 0.132345 0.175043 -0.609298
v 0.132345 0.061099 -0.609298
v 0.211385 0.141915 -0.658401
v 0.211385 0.083606 -0.658401
v 0.170699 0.141915 -0.669303
v 0.170699 0.083606 -0.669303
v 0.171967 0.086466 -0.811344
v 0.171967 0.040154 -0.811344
v 0.281308 0.040154 -0.782047
v 0.281308 0.086466 -0.782047
v 0.183680 -0.003053 -0.855056
v 0.183680 -0.049364 -0.855056
v 0.293021 -0.049364 -0.825758
v 0.293021 -0.003053 -0.825758
vn -0.2588 -0.0000 0.9659
vn -0.7880 -0.0000 -0.6157
vn -0.0000 1.0000 -0.0000
vn 0.9903 -0.0000 -0.1392
vn -0.0000 -1.0000 -0.0000
vn 0.1315 0.8614 -0.4907
vn -0.9118 -0.0000 0.4107
vn 0.5843 -0.0000 0.8115
vn 0.2528 -0.2144 -0.9435
vn 0.6730 -0.1492 0.7244
vn -0.0238 -0.9958 0.0887
vn -0.9450 -0.1492 0.2909
vn -0.9704 -0.0000 -0.2417
vn -0.2575 -0.1002 0.9611
vn 0.9612 -0.0000 0.2759
vn 0.0814 -0.9492 -0.3040
vn 0.9990 -0.0000 -0.0451
vn -0.8426 -0.0000 -0.5386
vn 0.1135 0.8987 -0.4236
vn 0.9659 -0.0000 0.2588
vn -0.9659 -0.0000 -0.2588
vn -0.1001 -0.9222 0.3736
vn 0.2588 -0.0000 -0.9659
vn -0.2310 -0.4512 0.8620
vn 0.2310 0.4512 -0.8620
vt 0.940235 0.879018
vt 0.970095 0.879018
vt 0.970095 0.959228
vt 0.940235 0.959228
vt 0.902475 0.359988
vt 0.971561 0.359988
vt 0.971561 0.463923
vt 0.902475 0.463923
vt 0.884508 0.768215
vt 0.838143 0.768215
vt 0.838143 0.789365
vt 0.884508 0.789365
vt 0.884508 0.361896
vt 0.884508 0.463597
vt 0.838143 0.463597
vt 0.838143 0.361896
vt 0.838143 0.835044
vt 0.884508 0.835044
vt 0.902475 0.753971
vt 0.971561 0.753971
vt 0.971561 0.773004
vt 0.902475 0.773004
vt 0.867238 0.899298
vt 0.867238 0.938860
vt 0.831670 0.938860
vt 0.831670 0.899298
vt 0.838143 0.712312
vt 0.884508 0.712312
vt 0.899411 0.973166
vt 0.899411 0.939193
vt 0.867905 0.939193
vt 0.867905 0.973166
vt 0.971561 0.703575
vt 0.902475 0.703575
vt 0.867802 0.898224
vt 0.867802 0.866953
vt 0.899351 0.866953
vt 0.899351 0.898224
vt 0.971561 0.785667
vt 0.902475 0.785667
vt 0.902475 0.857907
vt 0.971561 0.857907
vt 0.867383 0.899230
vt 0.898985 0.899230
vt 0.898985 0.938611
vt 0.867383 0.938611
vt 0.884508 0.857021
vt 0.838143 0.857021
vt 0.898948 0.899160
vt 0.898948 0.938463
vt 0.931695 0.938463
vt 0.931695 0.899160
s 0
usemtl Material.003
f 205/243/102 206/244/102 208/245/102 207/246/102
f 207/247/103 208/248/103 212/249/103 211/250/103
f 227/251/104 225/252/104 216/253/104 213/254/104
f 209/250/105 210/249/105 206/248/105 205/247/105
f 207/255/106 211/256/106 209/257/106 205/258/106
f 212/256/104 208/255/104 206/258/104 210/257/104
f 213/254/107 216/253/107 232/259/107 229/260/107
f 228/261/108 227/262/108 213/263/108 214/264/108
f 225/262/109 226/261/109 215/264/109 216/263/109
f 214/265/110 215/266/110 220/267/110 219/268/110
f 212/256/104 210/257/104 221/269/104 223/270/104
f 215/271/111 226/272/111 218/273/111 220/274/111
f 209/257/112 211/256/112 224/270/112 222/269/112
f 228/272/113 214/271/113 219/274/113 217/273/113
f 211/250/114 212/249/114 223/275/114 224/276/114
f 226/277/115 228/278/115 217/279/115 218/280/115
f 210/249/116 209/250/116 222/276/116 221/275/116
f 222/269/117 224/270/117 228/251/117 226/252/117
f 221/275/118 222/276/118 226/261/118 225/262/118
f 224/276/119 223/275/119 227/262/119 228/261/119
f 223/270/120 221/269/120 225/252/120 227/251/120
f 232/281/121 231/282/121 235/283/121 236/284/121
f 214/264/122 213/263/122 229/281/122 230/282/122
f 216/263/121 215/264/121 231/282/121 232/281/121
f 215/253/123 214/254/123 230/260/123 231/259/123
f 234/285/124 233/286/124 236/287/124 235/288/124
f 231/259/125 230/260/125 234/289/125 235/290/125
f 229/291/126 232/292/126 236/293/126 233/294/126
f 230/282/122 229/281/122 233/284/122 234/283/122
o Cube.003
v 0.100645 0.111606 -0.068304
v 0.100645 0.175043 -0.068304
v 0.015443 0.111606 0.079270
v 0.015443 0.175043 0.079270
v -0.032279 0.111606 -0.084615
v -0.032279 0.175043 -0.084615
v -0.065144 0.111606 -0.027691
v -0.065144 0.175043 -0.027691
v -0.647834 0.141915 -0.336701
v -0.647834 0.079594 -0.336701
v -0.591235 0.079594 -0.434734
v -0.591235 0.141915 -0.434734
v -0.599493 -0.004492 -0.351179
v -0.579603 -0.004492 -0.385630
v -0.613581 -0.005953 -0.358472
v -0.592963 -0.005953 -0.394184
v -0.501780 0.175043 -0.366896
v -0.501780 0.061099 -0.366896
v -0.544357 0.175043 -0.293150
v -0.544357 0.061099 -0.293150
v -0.571330 0.141915 -0.382205
v -0.571330 0.083606 -0.382205
v -0.592391 0.141915 -0.345727
v -0.592391 0.083606 -0.345727
v -0.729264 0.086466 -0.383715
v -0.729264 0.040154 -0.383715
v -0.672665 0.040154 -0.481748
v -0.672665 0.086466 -0.481748
v -0.768455 -0.003053 -0.406342
v -0.768455 -0.049364 -0.406342
v -0.711856 -0.049364 -0.504374
v -0.711856 -0.003053 -0.504374
vn 0.8660 -0.0000 0.5000
vn -0.7987 -0.0000 0.6018
vn -0.0000 1.0000 -0.0000
vn 0.1218 -0.0000 -0.9926
vn -0.0000 -1.0000 -0.0000
vn -0.4399 0.8614 -0.2540
vn 0.1607 -0.0000 0.9870
vn 0.9351 -0.0000 -0.3543
vn -0.8459 -0.2144 -0.4884
vn 0.8739 -0.1492 -0.4626
vn 0.0795 -0.9958 0.0459
vn 0.0364 -0.1492 0.9881
vn -0.4846 -0.0000 0.8748
vn 0.8617 -0.1002 0.4975
vn 0.5153 -0.0000 -0.8570
vn -0.2725 -0.9492 -0.1573
vn 0.2150 -0.0000 -0.9766
vn -0.7383 -0.0000 0.6745
vn -0.3798 0.8987 -0.2193
vn 0.5000 -0.0000 -0.8660
vn -0.5000 -0.0000 0.8660
vn 0.3350 -0.9222 0.1934
vn -0.8660 -0.0000 -0.5000
vn 0.7729 -0.4512 0.4462
vn -0.7729 0.4512 -0.4462
vt 0.940235 0.879018
vt 0.970095 0.879018
vt 0.970095 0.959228
vt 0.940235 0.959228
vt 0.902475 0.359988
vt 0.971561 0.359988
vt 0.971561 0.463923
vt 0.902475 0.463923
vt 0.884508 0.768215
vt 0.838143 0.768215
vt 0.838143 0.789365
vt 0.884508 0.789365
vt 0.884508 0.361896
vt 0.884508 0.463597
vt 0.838143 0.463597
vt 0.838143 0.361896
vt 0.838143 0.835044
vt 0.884508 0.835044
vt 0.902475 0.753971
vt 0.971561 0.753971
vt 0.971561 0.773004
vt 0.902475 0.773004
vt 0.867238 0.899298
vt 0.867238 0.938860
vt 0.831670 0.938860
vt 0.831670 0.899298
vt 0.838143 0.712312
vt 0.884508 0.712312
vt 0.899411 0.973166
vt 0.899411 0.939193
vt 0.867905 0.939193
vt 0.867905 0.973166
vt 0.971561 0.703575
vt 0.902475 0.703575
vt 0.867802 0.898224
vt 0.867802 0.866953
vt 0.899351 0.866953
vt 0.899351 0.898224
vt 0.971561 0.785667
vt 0.902475 0.785667
vt 0.902475 0.857907
vt 0.971561 0.857907
vt 0.867383 0.899230
vt 0.898985 0.899230
vt 0.898985 0.938611
vt 0.867383 0.938611
vt 0.884508 0.857021
vt 0.838143 0.857021
vt 0.898948 0.899160
vt 0.898948 0.938463
vt 0.931695 0.938463
vt 0.931695 0.899160
s 0
usemtl Material.003
f 237/295/127 238/296/127 240/297/127 239/298/127
f 239/299/128 240/300/128 244/301/128 243/302/128
f 259/303/129 257/304/129 248/305/129 245/306/129
f 241/302/130 242/301/130 238/300/130 237/299/130
f 239/307/131 243/308/131 241/309/131 237/310/131
f 244/308/129 240/307/129 238/310/129 242/309/129
f 245/306/132 248/305/132 264/311/132 261/312/132
f 260/313/133 259/314/133 245/315/133 246/316/133
f 257/314/134 258/313/134 247/316/134 248/315/134
f 246/317/135 247/318/135 252/319/135 251/320/135
f 244/308/129 242/309/129 253/321/129 255/322/129
f 247/323/136 258/324/136 250/325/136 252/326/136
f 241/309/137 243/308/137 256/322/137 254/321/137
f 260/324/138 246/323/138 251/326/138 249/325/138
f 243/302/139 244/301/139 255/327/139 256/328/139
f 258/329/140 260/330/140 249/331/140 250/332/140
f 242/301/141 241/302/141 254/328/141 253/327/141
f 254/321/142 256/322/142 260/303/142 258/304/142
f 253/327/143 254/328/143 258/313/143 257/314/143
f 256/328/144 255/327/144 259/314/144 260/313/144
f 255/322/145 253/321/145 257/304/145 259/303/145
f 264/333/146 263/334/146 267/335/146 268/336/146
f 246/316/147 245/315/147 261/333/147 262/334/147
f 248/315/146 247/316/146 263/334/146 264/333/146
f 247/305/148 246/306/148 262/312/148 263/311/148
f 266/337/149 265/338/149 268/339/149 267/340/149
f 263/311/150 262/312/150 266/341/150 267/342/150
f 261/343/151 264/344/151 268/345/151 265/346/151
f 262/334/147 261/333/147 265/336/147 266/335/147
o Cube.004
v -0.030002 0.111606 -0.122510
v -0.030002 0.175043 -0.122510
v 0.090491 0.111606 -0.002017
v 0.090491 0.175043 -0.002017
v -0.080160 0.111606 0.001664
v -0.080160 0.175043 0.001664
v -0.033682 0.111606 0.048141
v -0.033682 0.175043 0.048141
v -0.482974 0.141915 0.530999
v -0.482974 0.079594 0.530999
v -0.563018 0.079594 0.450956
v -0.563018 0.141915 0.450956
v -0.484448 -0.004492 0.480557
v -0.512576 -0.004492 0.452429
v -0.495138 -0.005953 0.492278
v -0.524297 -0.005953 0.463119
v -0.474339 0.175043 0.382106
v -0.474339 0.061099 0.382106
v -0.414125 0.175043 0.442320
v -0.414125 0.061099 0.442320
v -0.507127 0.141915 0.445325
v -0.507127 0.083606 0.445325
v -0.477343 0.141915 0.475109
v -0.477343 0.083606 0.475109
v -0.549462 0.086466 0.597486
v -0.549462 0.040154 0.597486
v -0.629505 0.040154 0.517443
v -0.629505 0.086466 0.517443
v -0.581461 -0.003053 0.629485
v -0.581461 -0.049364 0.629485
v -0.661504 -0.049364 0.549442
v -0.661504 -0.003053 0.549442
vn 0.7071 -0.0000 -0.7071
vn 0.3745 -0.0000 0.9272
vn -0.0000 1.0000 -0.0000
vn -0.9272 -0.0000 -0.3745
vn -0.0000 -1.0000 -0.0000
vn -0.3592 0.8614 0.3592
vn 0.9950 -0.0000 0.1002
vn -0.1002 -0.0000 -0.9950
vn -0.6907 -0.2144 0.6907
vn -0.2206 -0.1492 -0.9639
vn 0.0649 -0.9958 -0.0649
vn 0.9639 -0.1492 0.2206
vn 0.7195 -0.0000 0.6945
vn 0.7035 -0.1002 -0.7035
vn -0.6945 -0.0000 -0.7195
vn -0.2225 -0.9492 0.2225
vn -0.8877 -0.0000 -0.4604
vn 0.4604 -0.0000 0.8877
vn -0.3101 0.8987 0.3101
vn -0.7071 -0.0000 -0.7071
vn 0.7071 -0.0000 0.7071
vn 0.2735 -0.9222 -0.2735
vn -0.7071 -0.0000 0.7071
vn 0.6311 -0.4512 -0.6311
vn -0.6311 0.4512 0.6311
vt 0.940235 0.879018
vt 0.970095 0.879018
vt 0.970095 0.959228
vt 0.940235 0.959228
vt 0.902475 0.359988
vt 0.971561 0.359988
vt 0.971561 0.463923
vt 0.902475 0.463923
vt 0.884508 0.768215
vt 0.838143 0.768215
vt 0.838143 0.789365
vt 0.884508 0.789365
vt 0.884508 0.361896
vt 0.884508 0.463597
vt 0.838143 0.463597
vt 0.838143 0.361896
vt 0.838143 0.835044
vt 0.884508 0.835044
vt 0.902475 0.753971
vt 0.971561 0.753971
vt 0.971561 0.773004
vt 0.902475 0.773004
vt 0.867238 0.899298
vt 0.867238 0.938860
vt 0.831670 0.938860
vt 0.831670 0.899298
vt 0.838143 0.712312
vt 0.884508 0.712312
vt 0.899411 0.973166
vt 0.899411 0.939193
vt 0.867905 0.939193
vt 0.867905 0.973166
vt 0.971561 0.703575
vt 0.902475 0.703575
vt 0.867802 0.898224
vt 0.867802 0.866953
vt 0.899351 0.866953
vt 0.899351 0.898224
vt 0.971561 0.785667
vt 0.902475 0.785667
vt 0.902475 0.857907
vt 0.971561 0.857907
vt 0.867383 0.899230
vt 0.898985 0.899230
vt 0.898985 0.938611
vt 0.867383 0.938611
vt 0.884508 0.857021
vt 0.838143 0.857021
vt 0.898948 0.899160
vt 0.898948 0.938463
vt 0.931695 0.938463
vt 0.931695 0.899160
s 0
usemtl Material.003
f 269/347/152 270/348/152 272/349/152 271/350/152
f 271/351/153 272/352/153 276/353/153 275/354/153
f 291/355/154 289/356/154 280/357/154 277/358/154
f 273/354/155 274/353/155 270/352/155 269/351/155
f 271/359/156 275/360/156 273/361/156 269/362/156
f 276/360/154 272/359/154 270/362/154 274/361/154
f 277/358/157 280/357/157 296/363/157 293/364/157
f 292/365/158 291/366/158 277/367/158 278/368/158
f 289/366/159 290/365/159 279/368/159 280/367/159
f 278/369/160 279/370/160 284/371/160 283/372/160
f 276/360/154 274/361/154 285/373/154 287/374/154
f 279/375/161 290/376/161 282/377/161 284/378/161
f 273/361/162 275/360/162 288/374/162 286/373/162
f 292/376/163 278/375/163 283/378/163 281/377/163
f 275/354/164 276/353/164 287/379/164 288/380/164
f 290/381/165 292/382/165 281/383/165 282/384/165
f 274/353/166 273/354/166 286/380/166 285/379/166
f 286/373/167 288/374/167 292/355/167 290/356/167
f 285/379/168 286/380/168 290/365/168 289/366/168
f 288/380/169 287/379/169 291/366/169 292/365/169
f 287/374/170 285/373/170 289/356/170 291/355/170
f 296/385/171 295/386/171 299/387/171 300/388/171
f 278/368/172 277/367/172 293/385/172 294/386/172
f 280/367/171 279/368/171 295/386/171 296/385/171
f 279/357/173 278/358/173 294/364/173 295/363/173
f 298/389/174 297/390/174 300/391/174 299/392/174
f 295/363/175 294/364/175 298/393/175 299/394/175
f 293/395/176 296/396/176 300/397/176 297/398/176
f 294/386/172 293/385/172 297/388/172 298/387/172
o Cylinder.004
v -0.484707 0.063078 0.521297
v -0.558151 0.063078 0.447853
v -0.542414 0.029554 0.592926
v -0.623542 0.029554 0.511798
v -0.566119 -0.051381 0.616631
v -0.647247 -0.051381 0.535503
v -0.542414 -0.132315 0.592926
v -0.623542 -0.132315 0.511798
v -0.485184 -0.165839 0.535697
v -0.566313 -0.165839 0.454568
v -0.427955 -0.132315 0.478468
v -0.509084 -0.132315 0.397339
v -0.404250 -0.028289 0.454763
v -0.485378 -0.028289 0.373634
v -0.457855 0.053662 0.494444
v -0.531299 0.053662 0.421000
v 0.718618 0.063078 -0.043415
v 0.718618 0.063078 0.060451
v 0.810073 0.029554 -0.053259
v 0.810072 0.029554 0.061474
v 0.843597 -0.051381 -0.053259
v 0.843597 -0.051381 0.061474
v 0.810073 -0.132315 -0.053259
v 0.810072 -0.132315 0.061474
v 0.729138 -0.165839 -0.053259
v 0.729138 -0.165839 0.061474
v 0.648204 -0.132315 -0.053259
v 0.648204 -0.132315 0.061474
v 0.614680 -0.028289 -0.053259
v 0.614680 -0.028289 0.061474
v 0.680643 0.053662 -0.043415
v 0.680643 0.053662 0.060451
v 0.153983 0.063078 -0.712985
v 0.254309 0.063078 -0.686102
v 0.168143 0.029554 -0.803871
v 0.278967 0.029554 -0.774176
v 0.176820 -0.051381 -0.836253
v 0.287643 -0.051381 -0.806557
v 0.168143 -0.132315 -0.803871
v 0.278967 -0.132315 -0.774176
v 0.147196 -0.165839 -0.725694
v 0.258019 -0.165839 -0.695999
v 0.126248 -0.132315 -0.647518
v 0.237072 -0.132315 -0.617822
v 0.117572 -0.028289 -0.615136
v 0.228395 -0.028289 -0.585441
v 0.144154 0.053662 -0.676303
v 0.244481 0.053662 -0.649421
v -0.638911 0.063078 -0.340886
v -0.586978 0.063078 -0.430836
v -0.723035 0.029554 -0.378087
v -0.665669 0.029554 -0.477449
v -0.752068 -0.051381 -0.394849
v -0.694701 -0.051381 -0.494211
v -0.723035 -0.132315 -0.378087
v -0.665669 -0.132315 -0.477449
v -0.652944 -0.165839 -0.337620
v -0.595577 -0.165839 -0.436982
v -0.582853 -0.132315 -0.297153
v -0.525486 -0.132315 -0.396514
v -0.553820 -0.028289 -0.280391
v -0.496453 -0.028289 -0.379752
v -0.606023 0.053662 -0.321898
v -0.554090 0.053662 -0.411849
v 0.388009 0.063078 0.595497
v 0.298058 0.063078 0.647430
v 0.442262 0.029554 0.669776
v 0.342900 0.029554 0.727142
v 0.459024 -0.051381 0.698808
v 0.359662 -0.051381 0.756175
v 0.442262 -0.132315 0.669776
v 0.342900 -0.132315 0.727142
v 0.401794 -0.165839 0.599684
v 0.302433 -0.165839 0.657051
v 0.361327 -0.132315 0.529593
v 0.261965 -0.132315 0.586960
v 0.344565 -0.028289 0.500560
v 0.245203 -0.028289 0.557927
v 0.369021 0.053662 0.562609
v 0.279070 0.053662 0.614542
vn -0.2434 0.9389 0.2434
vn -0.6533 0.3827 0.6533
vn -0.6533 -0.3827 0.6533
vn -0.2706 -0.9239 0.2706
vn 0.2706 -0.9239 -0.2706
vn 0.6730 -0.3067 -0.6730
vn 0.7297 0.1581 0.6652
vn 0.5508 0.6270 -0.5508
vn 0.7071 -0.0000 0.7071
vn -0.7036 0.0166 -0.7104
vn -0.7071 -0.0000 -0.7071
vn 0.3442 0.9389 -0.0000
vn 0.9239 0.3827 -0.0000
vn 0.9239 -0.3827 -0.0000
vn 0.3827 -0.9239 -0.0000
vn -0.3827 -0.9239 -0.0000
vn -0.9518 -0.3067 -0.0000
vn -0.0456 0.1581 -0.9864
vn -0.7790 0.6270 -0.0000
vn -0.0000 -0.0000 -1.0000
vn -0.0048 0.0166 0.9998
vn -0.0000 -0.0000 1.0000
vn 0.0891 0.9389 -0.3324
vn 0.2391 0.3827 -0.8924
vn 0.2391 -0.3827 -0.8924
vn 0.0990 -0.9239 -0.3696
vn -0.0990 -0.9239 0.3696
vn -0.2463 -0.3067 0.9194
vn -0.9646 0.1581 -0.2113
vn -0.2016 0.6270 0.7525
vn -0.9659 -0.0000 -0.2588
vn 0.9645 0.0166 0.2634
vn 0.9659 -0.0000 0.2588
vn -0.2981 0.9389 -0.1721
vn -0.8001 0.3827 -0.4619
vn -0.8001 -0.3827 -0.4619
vn -0.3314 -0.9239 -0.1913
vn 0.3314 -0.9239 0.1913
vn 0.8243 -0.3067 0.4759
vn -0.4537 0.1581 0.8770
vn 0.6746 0.6270 0.3895
vn -0.5000 -0.0000 0.8660
vn 0.5041 0.0166 -0.8635
vn 0.5000 -0.0000 -0.8660
vn 0.1721 0.9389 0.2981
vn 0.4619 0.3827 0.8001
vn 0.4619 -0.3827 0.8001
vn 0.1913 -0.9239 0.3314
vn -0.1913 -0.9239 -0.3314
vn -0.4759 -0.3067 -0.8243
vn 0.8314 0.1581 -0.5327
vn -0.3895 0.6270 -0.6746
vn 0.8660 -0.0000 -0.5000
vn -0.8683 0.0166 0.4958
vn -0.8660 -0.0000 0.5000
vt 0.666371 0.572790
vt 0.780138 0.572790
vt 0.780138 0.601232
vt 0.666371 0.601232
vt 0.780138 0.629674
vt 0.666371 0.629674
vt 0.780138 0.658115
vt 0.666371 0.658115
vt 0.780138 0.686557
vt 0.666371 0.686557
vt 0.780138 0.714998
vt 0.666371 0.714998
vt 0.780138 0.743440
vt 0.666371 0.743440
vt 0.640624 0.644944
vt 0.626008 0.684819
vt 0.600788 0.599626
vt 0.636519 0.628387
vt 0.780138 0.771882
vt 0.666371 0.771882
vt 0.590720 0.699436
vt 0.555432 0.614243
vt 0.555432 0.684819
vt 0.540815 0.649531
s 0
usemtl Material.003
f 301/399/177 302/400/177 304/401/177 303/402/177
f 303/402/178 304/401/178 306/403/178 305/404/178
f 305/404/179 306/403/179 308/405/179 307/406/179
f 307/406/180 308/405/180 310/407/180 309/408/180
f 309/408/181 310/407/181 312/409/181 311/410/181
f 311/410/182 312/409/182 314/411/182 313/412/182
f 301/413/183 303/414/183 313/415/183 315/416/183
f 313/412/184 314/411/184 316/417/184 315/418/184
f 303/414/185 305/419/185 311/420/185 313/415/185
f 305/419/185 307/421/185 309/422/185 311/420/185
f 304/414/186 302/413/186 316/416/186 314/415/186
f 306/419/187 304/414/187 314/415/187 312/420/187
f 308/421/187 306/419/187 312/420/187 310/422/187
f 317/399/188 318/400/188 320/401/188 319/402/188
f 319/402/189 320/401/189 322/403/189 321/404/189
f 321/404/190 322/403/190 324/405/190 323/406/190
f 323/406/191 324/405/191 326/407/191 325/408/191
f 325/408/192 326/407/192 328/409/192 327/410/192
f 327/410/193 328/409/193 330/411/193 329/412/193
f 317/413/194 319/414/194 329/415/194 331/416/194
f 329/412/195 330/411/195 332/417/195 331/418/195
f 319/414/196 321/419/196 327/420/196 329/415/196
f 321/419/196 323/421/196 325/422/196 327/420/196
f 320/414/197 318/413/197 332/416/197 330/415/197
f 322/419/198 320/414/198 330/415/198 328/420/198
f 324/421/198 322/419/198 328/420/198 326/422/198
f 333/399/199 334/400/199 336/401/199 335/402/199
f 335/402/200 336/401/200 338/403/200 337/404/200
f 337/404/201 338/403/201 340/405/201 339/406/201
f 339/406/202 340/405/202 342/407/202 341/408/202
f 341/408/203 342/407/203 344/409/203 343/410/203
f 343/410/204 344/409/204 346/411/204 345/412/204
f 333/413/205 335/414/205 345/415/205 347/416/205
f 345/412/206 346/411/206 348/417/206 347/418/206
f 335/414/207 337/419/207 343/420/207 345/415/207
f 337/419/207 339/421/207 341/422/207 343/420/207
f 336/414/208 334/413/208 348/416/208 346/415/208
f 338/419/209 336/414/209 346/415/209 344/420/209
f 340/421/209 338/419/209 344/420/209 342/422/209
f 349/399/210 350/400/210 352/401/210 351/402/210
f 351/402/211 352/401/211 354/403/211 353/404/211
f 353/404/212 354/403/212 356/405/212 355/406/212
f 355/406/213 356/405/213 358/407/213 357/408/213
f 357/408/214 358/407/214 360/409/214 359/410/214
f 359/410/215 360/409/215 362/411/215 361/412/215
f 349/413/216 351/414/216 361/415/216 363/416/216
f 361/412/217 362/411/217 364/417/217 363/418/217
f 351/414/218 353/419/218 359/420/218 361/415/218
f 353/419/218 355/421/218 357/422/218 359/420/218
f 352/414/219 350/413/219 364/416/219 362/415/219
f 354/419/220 352/414/220 362/415/220 360/420/220
f 356/421/220 354/419/220 360/420/220 358/422/220
f 365/399/221 366/400/221 368/401/221 367/402/221
f 367/402/222 368/401/222 370/403/222 369/404/222
f 369/404/223 370/403/223 372/405/223 371/406/223
f 371/406/224 372/405/224 374/407/224 373/408/224
f 373/408/225 374/407/225 376/409/225 375/410/225
f 375/410/226 376/409/226 378/411/226 377/412/226
f 365/413/227 367/414/227 377/415/227 379/416/227
f 377/412/228 378/411/228 380/417/228 379/418/228
f 367/414/229 369/419/229 375/420/229 377/415/229
f 369/419/229 371/421/229 373/422/229 375/420/229
f 368/414/230 366/413/230 380/416/230 378/415/230
f 370/419/231 368/414/231 378/415/231 376/420/231
f 372/421/231 370/419/231 376/420/231 374/422/231
o Cube.006
v -0.116175 0.111606 -0.010344
v -0.116175 0.175043 -0.010344
v 0.031398 0.111606 -0.095546
v 0.031398 0.175043 -0.095546
v -0.009215 0.111606 0.070243
v -0.009215 0.175043 0.070243
v 0.047709 0.111606 0.037378
v 0.047709 0.175043 0.037378
v 0.397828 0.141915 0.596334
v 0.397828 0.079594 0.596334
v 0.299796 0.079594 0.652933
v 0.299796 0.141915 0.652933
v 0.348724 -0.004492 0.584701
v 0.314274 -0.004492 0.604591
v 0.357279 -0.005953 0.598062
v 0.321567 -0.005953 0.618680
v 0.256244 0.175043 0.549456
v 0.256244 0.061099 0.549456
v 0.329991 0.175043 0.506879
v 0.329991 0.061099 0.506879
v 0.308822 0.141915 0.597490
v 0.308822 0.083606 0.597490
v 0.345300 0.141915 0.576429
v 0.345300 0.083606 0.576429
v 0.444842 0.086466 0.677764
v 0.444842 0.040154 0.677764
v 0.346810 0.040154 0.734363
v 0.346810 0.086466 0.734363
v 0.467469 -0.003053 0.716955
v 0.467469 -0.049364 0.716955
v 0.369437 -0.049364 0.773554
v 0.369437 -0.003053 0.773554
vn -0.5000 -0.0000 -0.8660
vn 0.9926 -0.0000 -0.1218
vn -0.0000 1.0000 -0.0000
vn -0.6018 -0.0000 0.7987
vn -0.0000 -1.0000 -0.0000
vn 0.2540 0.8614 0.4399
vn 0.3543 -0.0000 -0.9351
vn -0.9870 -0.0000 -0.1607
vn 0.4884 -0.2144 0.8459
vn -0.9881 -0.1492 -0.0364
vn -0.0459 -0.9958 -0.0795
vn 0.4626 -0.1492 -0.8739
vn 0.8570 -0.0000 -0.5153
vn -0.4975 -0.1002 -0.8617
vn -0.8748 -0.0000 0.4846
vn 0.1573 -0.9492 0.2725
vn -0.6745 -0.0000 0.7383
vn 0.9766 -0.0000 -0.2150
vn 0.2193 0.8987 0.3798
vn -0.8660 -0.0000 0.5000
vn 0.8660 -0.0000 -0.5000
vn -0.1934 -0.9222 -0.3350
vn 0.5000 -0.0000 0.8660
vn -0.4462 -0.4512 -0.7729
vn 0.4462 0.4512 0.7729
vt 0.940235 0.879018
vt 0.970095 0.879018
vt 0.970095 0.959228
vt 0.940235 0.959228
vt 0.902475 0.359988
vt 0.971561 0.359988
vt 0.971561 0.463923
vt 0.902475 0.463923
vt 0.884508 0.768215
vt 0.838143 0.768215
vt 0.838143 0.789365
vt 0.884508 0.789365
vt 0.884508 0.361896
vt 0.884508 0.463597
vt 0.838143 0.463597
vt 0.838143 0.361896
vt 0.838143 0.835044
vt 0.884508 0.835044
vt 0.902475 0.753971
vt 0.971561 0.753971
vt 0.971561 0.773004
vt 0.902475 0.773004
vt 0.867238 0.899298
vt 0.867238 0.938860
vt 0.831670 0.938860
vt 0.831670 0.899298
vt 0.838143 0.712312
vt 0.884508 0.712312
vt 0.899411 0.973166
vt 0.899411 0.939193
vt 0.867905 0.939193
vt 0.867905 0.973166
vt 0.971561 0.703575
vt 0.902475 0.703575
vt 0.867802 0.898224
vt 0.867802 0.866953
vt 0.899351 0.866953
vt 0.899351 0.898224
vt 0.971561 0.785667
vt 0.902475 0.785667
vt 0.902475 0.857907
vt 0.971561 0.857907
vt 0.867383 0.899230
vt 0.898985 0.899230
vt 0.898985 0.938611
vt 0.867383 0.938611
vt 0.884508 0.857021
vt 0.838143 0.857021
vt 0.898948 0.899160
vt 0.898948 0.938463
vt 0.931695 0.938463
vt 0.931695 0.899160
s 0
usemtl Material.003
f 381/423/232 382/424/232 384/425/232 383/426/232
f 383/427/233 384/428/233 388/429/233 387/430/233
f 403/431/234 401/432/234 392/433/234 389/434/234
f 385/430/235 386/429/235 382/428/235 381/427/235
f 383/435/236 387/436/236 385/437/236 381/438/236
f 388/436/234 384/435/234 382/438/234 386/437/234
f 389/434/237 392/433/237 408/439/237 405/440/237
f 404/441/238 403/442/238 389/443/238 390/444/238
f 401/442/239 402/441/239 391/444/239 392/443/239
f 390/445/240 391/446/240 396/447/240 395/448/240
f 388/436/234 386/437/234 397/449/234 399/450/234
f 391/451/241 402/452/241 394/453/241 396/454/241
f 385/437/242 387/436/242 400/450/242 398/449/242
f 404/452/243 390/451/243 395/454/243 393/453/243
f 387/430/244 388/429/244 399/455/244 400/456/244
f 402/457/245 404/458/245 393/459/245 394/460/245
f 386/429/246 385/430/246 398/456/246 397/455/246
f 398/449/247 400/450/247 404/431/247 402/432/247
f 397/455/248 398/456/248 402/441/248 401/442/248
f 400/456/249 399/455/249 403/442/249 404/441/249
f 399/450/250 397/449/250 401/432/250 403/431/250
f 408/461/251 407/462/251 411/463/251 412/464/251
f 390/444/252 389/443/252 405/461/252 406/462/252
f 392/443/251 391/444/251 407/462/251 408/461/251
f 391/433/253 390/434/253 406/440/253 407/439/253
f 410/465/254 409/466/254 412/467/254 411/468/254
f 407/439/255 406/440/255 410/469/255 411/470/255
f 405/471/256 408/472/256 412/473/256 409/474/256
f 406/462/252 405/461/252 409/464/252 410/463/252
