# Blender 5.1.2
# www.blender.org
mtllib props_plate_2.mtl
o Cube.004
v -0.037446 0.016915 0.190131
v -0.190131 0.016915 0.037446
v -0.137046 0.017850 0.137046
v -0.344307 0.051021 0.073576
v -0.073576 0.051021 0.344307
v -0.250180 0.049864 0.250180
v -0.190131 0.016915 -0.037446
v -0.037446 0.016915 -0.190131
v -0.137046 0.017850 -0.137046
v -0.073576 0.051021 -0.344307
v -0.344307 0.051021 -0.073576
v -0.250180 0.049864 -0.250180
v 0.190131 0.016915 0.037446
v 0.037446 0.016915 0.190131
v 0.137046 0.017850 0.137046
v 0.073576 0.051021 0.344307
v 0.344307 0.051021 0.073576
v 0.250180 0.049864 0.250180
v 0.037446 0.016915 -0.190131
v 0.190131 0.016915 -0.037446
v 0.137046 0.017850 -0.137046
v 0.344307 0.051021 -0.073576
v 0.073576 0.051021 -0.344307
v 0.250180 0.049864 -0.250180
v -0.089468 0.050910 0.398339
v -0.290951 0.049976 0.290951
v -0.398339 0.050910 0.089468
v -0.290951 0.049976 -0.290951
v -0.089468 0.050910 -0.398339
v -0.398339 0.050910 -0.089468
v 0.290951 0.049976 -0.290951
v 0.398339 0.050910 -0.089468
v 0.089468 0.050910 -0.398339
v 0.290951 0.049976 0.290951
v 0.089468 0.050910 0.398339
v 0.398339 0.050910 0.089468
v -0.059439 0.036897 0.278154
v -0.202112 0.035963 0.202112
v -0.278154 0.036897 0.059439
v -0.202112 0.035963 -0.202112
v -0.059439 0.036897 -0.278154
v -0.278154 0.036897 -0.059439
v 0.202112 0.035963 -0.202112
v 0.278154 0.036897 -0.059439
v 0.059439 0.036897 -0.278154
v 0.202112 0.035963 0.202112
v 0.059439 0.036897 0.278154
v 0.278154 0.036897 0.059439
v -0.290951 0.017850 0.290951
v -0.089468 0.016915 0.398339
v -0.398339 0.016915 0.089468
v -0.089468 0.016915 -0.398339
v -0.290951 0.017850 -0.290951
v -0.398339 0.016915 -0.089468
v 0.398339 0.016915 -0.089468
v 0.290951 0.017850 -0.290951
v 0.089468 0.016915 -0.398339
v 0.089468 0.016915 0.398339
v 0.290951 0.017850 0.290951
v 0.398339 0.016915 0.089468
v -0.137046 0.002960 0.137046
v -0.037446 0.002026 0.190131
v -0.190131 0.002026 0.037446
v -0.037446 0.002026 -0.190131
v -0.137046 0.002960 -0.137046
v -0.190131 0.002026 -0.037446
v 0.190131 0.002026 -0.037446
v 0.137046 0.002960 -0.137046
v 0.037446 0.002026 -0.190131
v 0.037446 0.002026 0.190131
v 0.137046 0.002960 0.137046
v 0.190131 0.002026 0.037446
vn -0.4703 -0.0000 0.8825
vn -0.8825 -0.0000 0.4703
vn -0.4703 -0.0000 -0.8825
vn -0.8825 -0.0000 -0.4703
vn 0.8825 -0.0000 -0.4703
vn 0.4703 -0.0000 -0.8825
vn 0.4703 -0.0000 0.8825
vn 0.8825 -0.0000 0.4703
vn -1.0000 -0.0000 -0.0000
vn -0.0000 -0.0000 1.0000
vn -0.0000 -0.0000 -1.0000
vn 1.0000 -0.0000 -0.0000
vn 0.1886 0.9775 0.0941
vn -0.0042 1.0000 -0.0025
vn 0.0025 1.0000 0.0042
vn -0.0042 1.0000 0.0025
vn 0.0025 1.0000 -0.0042
vn -0.0025 1.0000 -0.0042
vn 0.0042 1.0000 0.0025
vn 0.0042 1.0000 -0.0025
vn -0.0025 1.0000 0.0042
vn -0.0021 1.0000 -0.0000
vn -0.0000 1.0000 0.0021
vn 0.0021 1.0000 -0.0000
vn -0.0000 1.0000 -0.0021
vn -0.0000 1.0000 -0.0000
vn -0.2088 0.9780 -0.0000
vn 0.0941 0.9775 -0.1886
vn -0.1886 0.9775 -0.0941
vn -0.1886 0.9775 0.0941
vn -0.0000 0.9780 0.2088
vn 0.1886 0.9775 -0.0941
vn 0.2088 0.9780 -0.0000
vn -0.0941 0.9775 0.1886
vn 0.0941 0.9775 0.1886
vn -0.0000 0.9780 -0.2088
vn -0.0941 0.9775 -0.1886
vn -0.0048 -1.0000 -0.0027
vn 0.0027 -1.0000 0.0048
vn -0.0048 -1.0000 0.0027
vn 0.0027 -1.0000 -0.0048
vn -0.0027 -1.0000 -0.0048
vn 0.0048 -1.0000 0.0027
vn 0.0048 -1.0000 -0.0027
vn -0.0027 -1.0000 0.0048
vn -0.0000 -1.0000 -0.0000
vn -0.0000 0.9999 -0.0123
vn -0.0000 1.0000 0.0065
vn -0.0000 1.0000 -0.0065
vn -0.0000 0.9999 0.0123
vn -0.0000 -0.9998 -0.0176
vn -0.0000 -1.0000 0.0094
vn -0.0000 -1.0000 -0.0094
vn -0.0000 -0.9998 0.0176
vt 0.740903 0.839581
vt 0.740903 0.702249
vt 0.763583 0.702249
vt 0.763583 0.839581
vt 0.786263 0.702249
vt 0.786263 0.839581
vt 0.848274 0.702249
vt 0.848274 0.839581
vt 0.825595 0.839581
vt 0.825595 0.702249
vt 0.802915 0.839581
vt 0.802915 0.702249
vt 0.924479 0.702249
vt 0.924479 0.839581
vt 0.901800 0.839581
vt 0.901800 0.702249
vt 0.879120 0.839581
vt 0.879120 0.702249
vt 0.986491 0.702249
vt 0.986491 0.839581
vt 0.963811 0.839581
vt 0.963811 0.702249
vt 0.941131 0.839581
vt 0.941131 0.702249
vt 0.710058 0.839581
vt 0.710058 0.702249
vt 0.761995 0.914634
vt 0.729949 0.914634
vt 0.729949 0.857012
vt 0.761995 0.857012
vt 0.698943 0.744364
vt 0.698943 0.754960
vt 0.631795 0.754960
vt 0.631795 0.744364
vt 0.642329 0.914634
vt 0.674375 0.914634
vt 0.674375 0.924374
vt 0.642329 0.924374
vt 0.706421 0.914634
vt 0.706421 0.924374
vt 0.794041 0.914634
vt 0.794041 0.924374
vt 0.761995 0.924374
vt 0.729949 0.924374
vt 0.869670 0.914634
vt 0.901716 0.914634
vt 0.901716 0.924374
vt 0.869670 0.924374
vt 0.837624 0.914634
vt 0.837624 0.924374
vt 0.957290 0.914634
vt 0.989336 0.914634
vt 0.989336 0.924374
vt 0.957290 0.924374
vt 0.925244 0.914634
vt 0.925244 0.924374
vt 0.598746 0.914634
vt 0.598746 0.924374
vt 0.906739 0.672781
vt 0.953536 0.586872
vt 0.971271 0.596215
vt 0.923409 0.682391
vt 0.901716 0.857012
vt 0.925244 0.857012
vt 0.642329 0.857012
vt 0.674375 0.857012
vt 0.957290 0.857012
vt 0.869670 0.857012
vt 0.794041 0.857012
vt 0.837624 0.857012
vt 0.706421 0.857012
vt 0.598746 0.857012
vt 0.989336 0.857012
vt 0.666909 0.985605
vt 0.634220 0.985605
vt 0.634220 0.945757
vt 0.666909 0.945757
vt 0.699598 0.985605
vt 0.699598 0.945757
vt 0.788978 0.985605
vt 0.756289 0.985605
vt 0.756289 0.945757
vt 0.788978 0.945757
vt 0.723600 0.985605
vt 0.723600 0.945757
vt 0.898816 0.985605
vt 0.866127 0.985605
vt 0.866127 0.945757
vt 0.898816 0.945757
vt 0.833438 0.985605
vt 0.833438 0.945757
vt 0.988196 0.985605
vt 0.955507 0.985605
vt 0.955507 0.945757
vt 0.988196 0.945757
vt 0.922818 0.985605
vt 0.922818 0.945757
vt 0.589761 0.985605
vt 0.589761 0.945757
vt 0.698943 0.801163
vt 0.698943 0.808944
vt 0.631795 0.808944
vt 0.631795 0.801163
vt 0.698943 0.715389
vt 0.698943 0.725986
vt 0.631795 0.725986
vt 0.631795 0.715389
vt 0.698943 0.819540
vt 0.631795 0.819540
vt 0.698943 0.790566
vt 0.631795 0.790566
vt 0.698943 0.700977
vt 0.631795 0.700977
vt 0.698943 0.736583
vt 0.631795 0.736583
vt 0.698943 0.779969
vt 0.631795 0.779969
vt 0.698943 0.765557
vt 0.631795 0.765557
vt 0.698943 0.830137
vt 0.631795 0.830137
vt 0.952919 0.683662
vt 0.986829 0.618904
vt 0.988092 0.652192
vt 0.978481 0.668862
vt 0.890854 0.647879
vt 0.926026 0.586872
vt 0.890854 0.618342
vt 0.900464 0.601672
s 0
usemtl Utililities
f 50/1/1 25/2/1 26/3/1 49/4/1
f 49/4/2 26/3/2 27/5/2 51/6/2
f 29/7/3 52/8/3 53/9/3 28/10/3
f 28/10/4 53/9/4 54/11/4 30/12/4
f 32/13/5 55/14/5 56/15/5 31/16/5
f 31/16/6 56/15/6 57/17/6 33/18/6
f 35/19/7 58/20/7 59/21/7 34/22/7
f 34/22/8 59/21/8 60/23/8 36/24/8
f 51/6/9 27/5/9 30/12/9 54/11/9
f 58/25/10 35/26/10 25/2/10 50/1/10
f 52/8/11 29/7/11 33/18/11 57/17/11
f 55/14/12 32/13/12 36/24/12 60/23/12
f 12/27/13 11/28/13 42/29/13 40/30/13
f 7/31/4 9/32/4 65/33/4 66/34/4
f 5/35/14 6/36/14 26/37/14 25/38/14
f 6/36/15 4/39/15 27/40/15 26/37/15
f 12/27/16 10/41/16 29/42/16 28/43/16
f 11/28/17 12/27/17 28/43/17 30/44/17
f 24/45/18 22/46/18 32/47/18 31/48/18
f 23/49/19 24/45/19 31/48/19 33/50/19
f 18/51/20 16/52/20 35/53/20 34/54/20
f 17/55/21 18/51/21 34/54/21 36/56/21
f 4/39/22 11/28/22 30/44/22 27/40/22
f 16/57/23 5/35/23 25/38/23 35/58/23
f 22/46/24 17/55/24 36/56/24 32/47/24
f 10/41/25 23/49/25 33/50/25 29/42/25
f 44/59/26 42/60/26 39/61/26 48/62/26
f 17/55/27 22/46/27 44/63/27 48/64/27
f 6/36/28 5/35/28 37/65/28 38/66/28
f 18/51/29 17/55/29 48/64/29 46/67/29
f 22/46/30 24/45/30 43/68/30 44/63/30
f 23/49/31 10/41/31 41/69/31 45/70/31
f 4/39/32 6/36/32 38/66/32 39/71/32
f 11/28/33 4/39/33 39/71/33 42/29/33
f 24/45/34 23/49/34 45/70/34 43/68/34
f 10/41/35 12/27/35 40/30/35 41/69/35
f 5/35/36 16/57/36 47/72/36 37/65/36
f 16/52/37 18/51/37 46/67/37 47/73/37
f 3/74/38 1/75/38 50/76/38 49/77/38
f 2/78/39 3/74/39 49/77/39 51/79/39
f 8/80/40 9/81/40 53/82/40 52/83/40
f 9/81/41 7/84/41 54/85/41 53/82/41
f 20/86/42 21/87/42 56/88/42 55/89/42
f 21/87/43 19/90/43 57/91/43 56/88/43
f 14/92/44 15/93/44 59/94/44 58/95/44
f 15/93/45 13/96/45 60/97/45 59/94/45
f 7/84/46 2/78/46 51/79/46 54/85/46
f 19/90/46 8/80/46 52/83/46 57/91/46
f 13/96/46 20/86/46 55/89/46 60/97/46
f 1/75/46 14/98/46 58/99/46 50/76/46
f 72/59/46 63/60/46 66/61/46 67/62/46
f 20/100/12 13/101/12 72/102/12 67/103/12
f 1/104/1 3/105/1 61/106/1 62/107/1
f 13/101/8 15/108/8 71/109/8 72/102/8
f 21/110/5 20/100/5 67/103/5 68/111/5
f 14/112/10 1/104/10 62/107/10 70/113/10
f 3/105/2 2/114/2 63/115/2 61/106/2
f 2/114/9 7/31/9 66/34/9 63/115/9
f 19/116/6 21/110/6 68/111/6 69/117/6
f 9/32/3 8/118/3 64/119/3 65/33/3
f 8/118/11 19/116/11 69/117/11 64/119/11
f 15/108/7 14/120/7 70/121/7 71/109/7
f 46/122/47 38/123/47 37/124/47 47/125/47
f 48/62/48 39/61/48 38/123/48 46/122/48
f 42/60/49 44/59/49 43/126/49 40/127/49
f 40/127/50 43/126/50 45/128/50 41/129/50
f 61/127/51 71/126/51 70/128/51 62/129/51
f 63/60/52 72/59/52 71/126/52 61/127/52
f 67/62/53 66/61/53 65/123/53 68/122/53
f 68/122/54 65/123/54 64/124/54 69/125/54
