# Blender 5.1.2
# www.blender.org
mtllib car.mtl
o Cube.018
v 5.329022 0.385027 2.188002
v 5.329022 1.357845 2.065286
v 6.253739 0.385027 1.657179
v 6.228915 1.336078 1.633169
v 5.329022 0.665765 2.188002
v 5.329022 1.011805 2.188002
v 6.424717 1.011805 1.599397
v 6.405193 0.665765 1.642206
v 5.329022 0.385027 -0.000602
v 5.329022 1.357845 -0.000602
v 6.607836 0.458165 -0.000602
v 6.580844 1.336078 -0.000602
v 6.776314 0.665765 -0.000602
v 6.770655 1.011805 -0.000602
v 5.329022 0.665765 -0.000602
v 5.329022 1.011805 -0.000602
v 5.827663 0.385027 1.901694
v 5.836733 1.346961 1.844531
v 5.973939 0.665765 1.983018
v 5.973939 1.011805 1.961614
v 5.827663 1.346961 -0.000602
v 5.827663 0.421596 -0.000602
v 5.329022 0.385027 -2.189206
v 5.329022 1.357845 -2.066489
v 6.253739 0.385027 -1.658383
v 6.228915 1.336078 -1.634373
v 5.329022 0.665765 -2.189206
v 5.329022 1.011805 -2.189206
v 6.424717 1.011805 -1.600601
v 6.405193 0.665765 -1.643409
v 5.827663 0.385027 -1.902898
v 5.836733 1.346961 -1.845735
v 5.973939 0.665765 -1.984221
v 5.973939 1.011805 -1.962817
v -0.246771 2.480351 2.190522
v -0.246771 3.618507 1.441255
v 0.926889 2.480351 2.190522
v 0.926889 3.618507 1.441255
v 3.244561 2.552570 1.904537
v -1.650518 2.556181 2.190522
v -1.217207 3.618507 1.441255
v -3.293489 2.832417 2.047590
v 0.857879 0.470621 2.139957
v -0.246771 3.681698 -0.000602
v -0.315780 0.470621 2.139957
v 0.926889 3.681698 -0.000602
v -1.217207 3.681698 -0.000602
v -0.315780 0.470621 -0.000602
v 3.296559 2.606734 -0.000602
v -3.293489 2.886580 -0.000602
v 2.051458 3.241326 1.468681
v 2.153543 3.241326 -0.000602
v 0.926889 3.087861 1.722015
v -1.477194 3.131193 1.885269
v -2.291990 3.295490 -0.000602
v -2.202544 3.295489 1.758294
v -0.246771 3.087861 1.885269
v -1.697863 0.470621 -0.000602
v -1.697863 0.470621 2.139957
v 3.227549 0.470621 2.139957
v 3.227549 0.470621 -0.000602
v -3.362499 1.608063 1.997024
v 0.857879 0.470621 -0.000602
v -3.362499 1.608063 -0.000602
v -2.745832 2.740338 2.095234
v -2.198175 2.648260 2.142878
v -1.718978 3.185958 1.842944
v -1.960761 3.240724 1.800619
v -2.753457 1.803053 2.044668
v -2.090250 1.586397 2.092312
v -2.090250 1.586397 -0.000602
v -2.753457 1.803053 -0.000602
v -4.738990 2.438122 1.829419
v -4.947956 2.486296 -0.000602
v -4.814820 0.536714 1.778854
v -5.023786 0.536714 -0.000602
v -3.713623 2.820041 -0.000602
v -3.713623 2.767351 2.047896
v -3.750135 0.460555 1.997329
v -3.750135 0.460555 -0.000602
v 3.559577 1.563931 -0.000602
v 3.559577 2.552823 -0.000602
v 3.559577 2.498659 1.917332
v 3.559577 1.563931 2.139753
v 4.236670 1.855522 -0.000602
v 4.236670 2.443199 -0.000602
v 4.236670 2.389036 1.930137
v 4.236670 1.855522 2.139558
v 4.841424 1.644476 -0.000602
v 4.841424 2.338725 -0.000602
v 4.841424 2.284561 1.903929
v 4.841424 1.644476 2.139348
v 5.335032 0.470325 -0.000602
v 5.335032 2.242837 -0.000602
v 5.335032 2.188673 1.890672
v 5.335032 0.470325 2.139090
v 6.575721 0.741810 -0.000602
v 6.526145 1.838135 -0.000602
v 6.202972 1.908526 1.617621
v 6.231086 0.489974 1.646171
v 5.955376 0.606067 -0.000602
v 5.858639 0.480149 1.907747
v 5.862721 2.048599 1.723914
v 5.930588 2.040486 -0.000602
v -0.246771 2.480351 -2.191726
v -0.246771 3.618507 -1.442459
v 0.926889 2.480351 -2.191726
v 0.926889 3.618507 -1.442459
v 3.244561 2.552570 -1.905741
v -1.650518 2.556181 -2.191726
v -1.217207 3.618507 -1.442459
v -3.293489 2.832417 -2.048793
v 0.857879 0.470621 -2.141160
v -0.315780 0.470621 -2.141160
v 2.051458 3.241326 -1.469884
v 0.926889 3.087861 -1.723219
v -1.477194 3.131193 -1.886473
v -2.202544 3.295489 -1.759498
v -0.246771 3.087861 -1.886473
v -1.697863 0.470621 -2.141160
v 3.227549 0.470621 -2.141160
v -3.362499 1.608063 -1.998227
v -2.745832 2.740338 -2.096437
v -2.198175 2.648260 -2.144082
v -1.718978 3.185958 -1.844148
v -1.960761 3.240724 -1.801823
v -2.753457 1.803053 -2.045871
v -2.090250 1.586397 -2.093516
v -4.738990 2.438122 -1.830623
v -4.814820 0.536714 -1.780057
v -3.713623 2.767351 -2.049099
v -3.750135 0.460555 -1.998533
v 3.559577 2.498659 -1.918536
v 3.559577 1.563931 -2.140956
v 4.236670 2.389036 -1.931341
v 4.236670 1.855522 -2.140761
v 4.841424 2.284561 -1.905133
v 4.841424 1.644476 -2.140552
v 5.335032 2.188673 -1.891875
v 5.335032 0.470325 -2.140294
v 6.202972 1.908526 -1.618825
v 6.231086 0.489974 -1.647375
v 5.858639 0.480149 -1.908951
v 5.862721 2.048599 -1.725118
v 4.262553 1.046037 -1.973871
v 4.262553 1.046037 1.972667
v 4.341121 1.024985 -1.973871
v 4.341121 1.024985 1.972667
v 4.398636 0.967469 -1.973871
v 4.398636 0.967469 1.972667
v 4.419688 0.888902 -1.973871
v 4.419688 0.888902 1.972667
v 4.398636 0.810334 -1.973871
v 4.398636 0.810334 1.972667
v 4.341121 0.752819 -1.973871
v 4.341121 0.752819 1.972667
v 4.262553 0.731767 -1.973871
v 4.262553 0.731767 1.972667
v 4.183985 0.752819 -1.973871
v 4.183985 0.752819 1.972667
v 4.126470 0.810334 -1.973871
v 4.126470 0.810334 1.972667
v 4.105418 0.888902 -1.973871
v 4.105418 0.888902 1.972667
v 4.126470 0.967469 -1.973871
v 4.126470 0.967469 1.972667
v 4.183985 1.024985 -1.973871
v 4.183985 1.024985 1.972667
v 4.240714 1.750790 -1.824345
v 4.240714 1.598971 -2.186570
v 4.678521 1.633480 -1.824345
v 4.602612 1.502001 -2.186570
v 4.999018 1.312983 -1.824345
v 4.867539 1.237073 -2.186570
v 5.116328 0.875176 -1.824345
v 4.964509 0.875176 -2.186570
v 4.999018 0.437369 -1.824345
v 4.867539 0.513279 -2.186570
v 4.678521 0.116872 -1.824345
v 4.602612 0.248352 -2.186570
v 4.240714 -0.000437 -1.824345
v 4.240714 0.151381 -2.186570
v 3.802907 0.116872 -1.824345
v 3.878817 0.248352 -2.186570
v 3.482411 0.437369 -1.824345
v 3.613890 0.513279 -2.186570
v 3.365101 0.875176 -1.824345
v 3.516920 0.875176 -2.186570
v 3.482411 1.312983 -1.824345
v 3.613890 1.237073 -2.186570
v 3.802907 1.633480 -1.824345
v 3.878817 1.502001 -2.186570
v 4.678521 1.633480 -2.243960
v 4.240714 1.750790 -2.243960
v 4.999018 1.312983 -2.243960
v 5.116328 0.875176 -2.243960
v 4.999018 0.437369 -2.243960
v 4.678521 0.116872 -2.243960
v 4.240714 -0.000437 -2.243960
v 3.802907 0.116872 -2.243960
v 3.482411 0.437369 -2.243960
v 3.365101 0.875176 -2.243960
v 3.482411 1.312983 -2.243960
v 3.802907 1.633480 -2.243960
v 4.240714 0.875176 -2.072704
v 4.240714 1.750790 1.822671
v 4.240714 1.598971 2.184896
v 3.802907 1.633480 1.822671
v 3.878817 1.502001 2.184896
v 3.482411 1.312983 1.822671
v 3.613890 1.237073 2.184896
v 3.365101 0.875176 1.822671
v 3.516920 0.875176 2.184896
v 3.482411 0.437369 1.822671
v 3.613890 0.513279 2.184896
v 3.802907 0.116873 1.822671
v 3.878817 0.248352 2.184896
v 4.240714 -0.000437 1.822671
v 4.240714 0.151381 2.184896
v 4.678521 0.116873 1.822671
v 4.602612 0.248352 2.184896
v 4.999018 0.437369 1.822671
v 4.867539 0.513279 2.184896
v 5.116328 0.875176 1.822671
v 4.964509 0.875176 2.184896
v 4.999018 1.312983 1.822671
v 4.867539 1.237073 2.184896
v 4.678521 1.633480 1.822671
v 4.602612 1.502001 2.184896
v 3.802907 1.633480 2.242286
v 4.240714 1.750790 2.242286
v 3.482411 1.312983 2.242286
v 3.365101 0.875176 2.242286
v 3.482411 0.437369 2.242286
v 3.802907 0.116873 2.242286
v 4.240714 -0.000437 2.242286
v 4.678521 0.116873 2.242286
v 4.999018 0.437369 2.242286
v 5.116328 0.875176 2.242286
v 4.999018 1.312983 2.242286
v 4.678521 1.633480 2.242286
v 4.240714 0.875176 2.071030
v -2.734563 1.750790 -1.824345
v -2.734566 1.598971 -2.186570
v -2.296756 1.633480 -1.824345
v -2.372665 1.502001 -2.186570
v -1.976259 1.312983 -1.824345
v -2.107738 1.237073 -2.186570
v -1.858949 0.875176 -1.824345
v -2.010767 0.875176 -2.186570
v -1.976259 0.437369 -1.824345
v -2.107738 0.513279 -2.186570
v -2.296756 0.116873 -1.824345
v -2.372669 0.248352 -2.186570
v -2.734563 -0.000437 -1.824345
v -2.734566 0.151381 -2.186570
v -3.172369 0.116873 -1.824345
v -3.096463 0.248352 -2.186570
v -3.492866 0.437369 -1.824345
v -3.361390 0.513279 -2.186570
v -3.610176 0.875176 -1.824345
v -3.458360 0.875176 -2.186570
v -3.492866 1.312983 -1.824345
v -3.361390 1.237073 -2.186570
v -3.172369 1.633480 -1.824345
v -3.096463 1.502001 -2.186570
v -2.296756 1.633480 -2.243960
v -2.734563 1.750790 -2.243960
v -1.976259 1.312983 -2.243960
v -1.858949 0.875176 -2.243960
v -1.976259 0.437369 -2.243960
v -2.296756 0.116873 -2.243960
v -2.734566 -0.000437 -2.243960
v -3.172372 0.116873 -2.243960
v -3.492869 0.437369 -2.243960
v -3.610179 0.875176 -2.243960
v -3.492869 1.312983 -2.243960
v -3.172369 1.633480 -2.243960
v -2.734566 0.875176 -2.072704
v -2.734561 1.750790 1.822671
v -2.734561 1.598971 2.184896
v -3.172368 1.633480 1.822671
v -3.096459 1.502001 2.184896
v -3.492866 1.312983 1.822671
v -3.361385 1.237073 2.184896
v -3.610175 0.875176 1.822671
v -3.458357 0.875176 2.184896
v -3.492866 0.437369 1.822671
v -3.361385 0.513279 2.184896
v -3.172368 0.116873 1.822671
v -3.096459 0.248352 2.184896
v -2.734561 -0.000437 1.822671
v -2.734561 0.151381 2.184896
v -2.296754 0.116873 1.822671
v -2.372664 0.248352 2.184896
v -1.976258 0.437369 1.822671
v -2.107736 0.513279 2.184896
v -1.858948 0.875176 1.822671
v -2.010767 0.875176 2.184896
v -1.976258 1.312983 1.822671
v -2.107736 1.237073 2.184896
v -2.296754 1.633480 1.822671
v -2.372664 1.502001 2.184896
v -3.172368 1.633480 2.242286
v -2.734561 1.750790 2.242286
v -3.492864 1.312983 2.242286
v -3.610175 0.875176 2.242286
v -3.492864 0.437369 2.242286
v -3.172368 0.116873 2.242286
v -2.734561 -0.000437 2.242286
v -2.296754 0.116873 2.242286
v -1.976258 0.437369 2.242286
v -1.858948 0.875176 2.242286
v -1.976258 1.312983 2.242286
v -2.296754 1.633480 2.242286
v -2.734561 0.875176 2.071030
v -2.712730 1.046037 -1.973871
v -2.712730 1.046037 1.972667
v -2.634162 1.024985 -1.973871
v -2.634162 1.024985 1.972667
v -2.576648 0.967469 -1.973871
v -2.576648 0.967469 1.972667
v -2.555596 0.888902 -1.973871
v -2.555596 0.888902 1.972667
v -2.576648 0.810334 -1.973871
v -2.576648 0.810334 1.972667
v -2.634162 0.752819 -1.973871
v -2.634162 0.752819 1.972667
v -2.712730 0.731767 -1.973871
v -2.712730 0.731767 1.972667
v -2.791298 0.752819 -1.973871
v -2.791298 0.752819 1.972667
v -2.848813 0.810334 -1.973871
v -2.848813 0.810334 1.972667
v -2.869865 0.888902 -1.973871
v -2.869865 0.888902 1.972667
v -2.848813 0.967469 -1.973871
v -2.848813 0.967469 1.972667
v -2.791298 1.024985 -1.973871
v -2.791298 1.024985 1.972667
v -4.611673 0.454122 2.046749
v -4.638081 1.403705 2.046750
v -4.227352 1.390269 2.103344
v -3.957345 1.369272 2.103344
v -3.751309 0.370417 2.103344
v -3.529605 1.363395 2.103344
v -3.934340 0.381204 2.103344
v -4.203811 0.410214 2.103344
v -5.189740 0.516354 -0.000602
v -5.267376 1.495329 -0.000602
v -3.751309 0.370417 -0.000602
v -3.529605 1.363395 -0.000602
v -4.227352 1.390269 -0.000602
v -3.957345 1.369272 -0.000602
v -3.934340 0.381204 -0.000602
v -4.203811 0.410214 -0.000602
v -5.155112 0.512626 0.700713
v -4.976545 0.493402 1.650176
v -3.529605 1.363395 0.700713
v -3.529605 1.363395 1.650176
v -5.005060 1.411263 1.650176
v -5.232548 1.495329 0.700713
v -3.751309 0.370417 1.650176
v -3.751309 0.370417 0.700713
v -3.957345 1.369272 0.700713
v -3.957345 1.369272 1.650176
v -4.227352 1.390269 0.700713
v -4.227352 1.390269 1.650176
v -4.203811 0.410214 0.700713
v -4.203811 0.410214 1.650176
v -3.934340 0.381204 0.700713
v -3.934340 0.381204 1.650176
v -4.638081 0.774221 2.046750
v -4.638081 1.059990 2.046750
v -3.685806 1.059990 2.103344
v -3.746270 0.774221 2.103344
v -3.685806 1.059990 -0.000602
v -3.746270 0.774221 -0.000602
v -5.315263 1.164473 -0.000602
v -5.312805 0.897179 -0.000602
v -3.956834 1.059990 2.103344
v -3.956834 0.774221 2.103344
v -4.227862 1.059990 2.103344
v -4.227862 0.774221 2.103344
v -5.100836 1.164473 1.650176
v -5.103295 0.851521 1.650176
v -5.280436 1.164473 0.700713
v -5.278776 0.889763 0.700713
v -3.685806 1.059990 0.700713
v -3.746270 0.774221 0.700713
v -3.685806 1.059990 1.650176
v -3.746270 0.774221 1.650176
v -4.611673 0.454122 -2.047953
v -4.638081 1.403705 -2.047953
v -4.227352 1.390269 -2.104548
v -3.957345 1.369272 -2.104548
v -3.751309 0.370417 -2.104548
v -3.529605 1.363395 -2.104548
v -3.934340 0.381204 -2.104548
v -4.203811 0.410214 -2.104548
v -5.155112 0.512626 -0.701917
v -4.976545 0.493402 -1.651379
v -3.529605 1.363395 -0.701917
v -3.529605 1.363395 -1.651379
v -5.005060 1.411263 -1.651379
v -5.232548 1.495329 -0.701917
v -3.751309 0.370417 -1.651379
v -3.751309 0.370417 -0.701917
v -3.957345 1.369272 -0.701917
v -3.957345 1.369272 -1.651379
v -4.227352 1.390269 -0.701917
v -4.227352 1.390269 -1.651379
v -4.203811 0.410214 -0.701917
v -4.203811 0.410214 -1.651379
v -3.934340 0.381204 -0.701917
v -3.934340 0.381204 -1.651379
v -4.638081 0.774221 -2.047953
v -4.638081 1.059990 -2.047953
v -3.685806 1.059990 -2.104548
v -3.746270 0.774221 -2.104548
v -3.956834 1.059990 -2.104548
v -3.956834 0.774221 -2.104548
v -4.227862 1.059990 -2.104548
v -4.227862 0.774221 -2.104548
v -5.100836 1.164473 -1.651379
v -5.103295 0.851521 -1.651379
v -5.280436 1.164473 -0.701917
v -5.278776 0.889763 -0.701917
v -3.685806 1.059990 -0.701917
v -3.746270 0.774221 -0.701917
v -3.685806 1.059990 -1.651379
v -3.746270 0.774221 -1.651379
v 2.381637 2.556782 2.364723
v 2.391022 2.754793 2.353328
v 2.681966 2.503796 2.000087
v 2.727607 2.727627 1.944674
v 2.384231 2.537663 2.423084
v 2.396174 2.789633 2.408584
v 2.761602 2.481307 2.018075
v 2.817906 2.757429 1.949716
v 2.603518 2.381066 2.095332
v 2.472874 2.443903 2.253949
v 2.479663 2.782551 2.245707
v 2.600539 2.777433 2.098949
v 2.516609 2.406164 2.315526
v 2.667257 2.333705 2.132621
v 2.660432 2.819153 2.140907
v 2.533670 2.824520 2.294811
v 2.789078 2.659111 1.831741
v 2.756660 2.530591 1.871099
v 2.855177 2.530591 1.952241
v 2.887594 2.659111 1.912883
v 2.875018 2.605481 1.727399
v 2.842601 2.476960 1.766757
v 2.941117 2.476960 1.847899
v 2.973534 2.605481 1.808541
v 2.441538 2.406164 2.253695
v 2.335250 2.537663 2.382741
v 2.347193 2.789633 2.368241
v 2.585362 2.819153 2.079076
v 2.742835 2.757429 1.887884
v 2.686532 2.481307 1.956243
v 2.592186 2.333705 2.070789
v 2.458599 2.824520 2.232980
v 2.341221 2.663648 2.375491
v 2.714683 2.619368 1.922064
v 2.813200 2.619368 2.003206
v 2.416292 2.663648 2.437322
v 2.730177 2.576429 2.191397
v 2.591471 2.615342 2.359802
v 2.476269 2.613227 2.249828
v 2.602029 2.579250 2.097140
v 2.772869 2.594851 1.851419
v 2.871385 2.594851 1.932562
v 2.858809 2.541221 1.747078
v 2.957326 2.541221 1.828221
v 2.386329 2.655787 2.359025
v 2.704787 2.615712 1.972380
v 2.381637 2.556782 -2.365921
v 2.391023 2.754793 -2.354527
v 2.681967 2.503796 -2.001286
v 2.727607 2.727627 -1.945873
v 2.384231 2.537663 -2.424283
v 2.396175 2.789633 -2.409783
v 2.761602 2.481307 -2.019274
v 2.817906 2.757429 -1.950915
v 2.603519 2.381066 -2.096531
v 2.472874 2.443903 -2.255149
v 2.479663 2.782551 -2.246906
v 2.600540 2.777433 -2.100148
v 2.516609 2.406164 -2.316725
v 2.667257 2.333705 -2.133820
v 2.660433 2.819153 -2.142106
v 2.533671 2.824520 -2.296010
v 2.789078 2.659111 -1.832940
v 2.756661 2.530591 -1.872298
v 2.855177 2.530591 -1.953440
v 2.887594 2.659111 -1.914082
v 2.875018 2.605481 -1.728598
v 2.842601 2.476960 -1.767956
v 2.941117 2.476960 -1.849099
v 2.973534 2.605481 -1.809740
v 2.441538 2.406164 -2.254893
v 2.335250 2.537663 -2.383940
v 2.347193 2.789633 -2.369440
v 2.585362 2.819153 -2.080275
v 2.742835 2.757429 -1.889083
v 2.686532 2.481307 -1.957442
v 2.592186 2.333705 -2.071989
v 2.458600 2.824520 -2.234179
v 2.341222 2.663648 -2.376690
v 2.714683 2.619368 -1.923263
v 2.813200 2.619368 -2.004405
v 2.416292 2.663648 -2.438521
v 2.730177 2.576429 -2.192597
v 2.591472 2.615342 -2.361001
v 2.476269 2.613227 -2.251027
v 2.602030 2.579250 -2.098340
v 2.772869 2.594851 -1.852619
v 2.871386 2.594851 -1.933761
v 2.858809 2.541221 -1.748277
v 2.957326 2.541221 -1.829420
v 2.386330 2.655787 -2.360224
v 2.704787 2.615712 -1.973580
v -4.632321 2.009084 1.679507
v -4.632550 2.406038 1.676979
v -4.811244 2.009084 1.695723
v -4.811473 2.406038 1.693196
v -4.647306 1.972481 1.514164
v -4.647306 2.427414 1.514164
v -4.826230 1.972481 1.530380
v -4.826230 2.427414 1.530380
v -4.662195 1.991431 1.349884
v -4.662195 2.408465 1.349884
v -4.841118 1.991431 1.366101
v -4.841118 2.408465 1.366101
v -4.685329 2.085289 1.094620
v -4.685329 2.314607 1.094620
v -4.864254 2.085289 1.110835
v -4.864254 2.314607 1.110835
v -4.623388 2.199948 1.778075
v -4.802311 2.199948 1.794291
v -4.826230 2.199948 1.530380
v -4.841118 2.199948 1.366101
v -4.869979 2.199948 1.047651
v -4.691057 2.199948 1.031435
v -4.632321 2.009084 -1.680705
v -4.632550 2.406038 -1.678178
v -4.811244 2.009084 -1.696921
v -4.811473 2.406038 -1.694394
v -4.647306 1.972481 -1.515362
v -4.647306 2.427414 -1.515362
v -4.826229 1.972481 -1.531578
v -4.826229 2.427414 -1.531578
v -4.662194 1.991431 -1.351083
v -4.662194 2.408465 -1.351083
v -4.841118 1.991431 -1.367299
v -4.841118 2.408465 -1.367299
v -4.685329 2.085289 -1.095818
v -4.685329 2.314607 -1.095818
v -4.864253 2.085289 -1.112034
v -4.864253 2.314607 -1.112034
v -4.623388 2.199948 -1.779273
v -4.802310 2.199948 -1.795489
v -4.826229 2.199948 -1.531578
v -4.841118 2.199948 -1.367299
v -4.869979 2.199948 -1.048850
v -4.691056 2.199948 -1.032633
vn 0.8491 0.4953 0.1833
vn 0.3387 0.3724 0.8641
vn 0.0245 -0.9993 -0.0284
vn 0.0216 0.9998 -0.0001
vn 0.3842 -0.2296 0.8942
vn 0.3170 0.0293 0.9480
vn 0.8267 -0.5364 0.1698
vn 0.9764 -0.0062 0.2159
vn -1.0000 -0.0000 -0.0000
vn 0.6224 0.0549 0.7808
vn 0.5241 -0.3687 0.7677
vn 0.0194 0.9998 0.0019
vn 0.0341 -0.9994 -0.0089
vn 0.5273 0.3633 0.7681
vn 0.8491 0.4953 -0.1833
vn 0.3387 0.3724 -0.8641
vn 0.0245 -0.9993 0.0284
vn 0.0216 0.9998 0.0001
vn 0.3842 -0.2296 -0.8942
vn 0.3170 0.0293 -0.9480
vn 0.8267 -0.5364 -0.1698
vn 0.9764 -0.0062 -0.2159
vn 0.6224 0.0549 -0.7808
vn 0.5241 -0.3687 -0.7677
vn 0.0194 0.9998 -0.0019
vn 0.0341 -0.9994 0.0089
vn 0.5273 0.3633 -0.7681
vn 0.3279 0.9442 0.0320
vn 0.0586 0.5362 0.8420
vn -0.0000 0.9990 0.0438
vn 0.1341 0.4634 0.8759
vn 0.0206 0.4563 0.8896
vn -0.0008 0.5194 0.8545
vn -0.3216 0.9465 0.0277
vn 0.4874 0.8724 0.0363
vn -0.3820 0.9239 0.0221
vn 0.0573 0.5630 0.8244
vn 0.0129 0.6554 0.7551
vn 0.0208 0.6673 0.7445
vn 0.0817 0.6197 0.7806
vn -0.0007 -0.0247 0.9997
vn -0.2849 0.9577 0.0403
vn -0.0000 -0.0252 0.9997
vn 0.1826 0.9827 0.0303
vn -0.0000 -1.0000 -0.0000
vn 0.3049 -0.9524 -0.0000
vn -0.0781 -0.0438 0.9960
vn 0.0602 0.0438 0.9972
vn -0.1446 -0.0346 0.9889
vn -0.0922 -0.0549 0.9942
vn -0.9434 -0.3318 -0.0000
vn -0.3105 -0.9506 -0.0000
vn -0.0101 0.4823 0.8759
vn -0.0052 0.5018 0.8650
vn -0.9926 0.0376 0.1154
vn -0.2025 -0.0181 0.9791
vn -0.0653 -0.9979 0.0036
vn 0.9474 -0.3200 -0.0000
vn 0.0457 -0.0300 0.9985
vn -0.1547 0.9876 0.0258
vn 0.3955 -0.9185 -0.0000
vn -0.2540 0.1465 0.9560
vn 0.9568 -0.2906 -0.0000
vn -0.3295 -0.9442 -0.0000
vn 0.1595 0.9868 0.0278
vn -0.0468 0.2819 0.9583
vn 0.2624 0.1939 0.9453
vn 0.1708 0.9849 0.0278
vn 0.1122 0.3522 0.9292
vn 0.4672 0.0664 0.8816
vn -0.9219 -0.3875 -0.0000
vn 0.1910 0.9812 0.0280
vn 0.9788 0.0325 0.2020
vn 0.1212 -0.9885 -0.0900
vn 0.3454 0.9383 0.0184
vn 0.2940 0.9557 0.0177
vn 0.1206 -0.9923 -0.0280
vn 0.3646 0.1210 0.9233
vn 0.3279 0.9442 -0.0320
vn 0.0586 0.5362 -0.8420
vn -0.0000 0.9990 -0.0438
vn 0.1341 0.4634 -0.8759
vn 0.0206 0.4563 -0.8896
vn -0.0008 0.5194 -0.8545
vn -0.3216 0.9465 -0.0277
vn 0.4874 0.8724 -0.0363
vn -0.3820 0.9239 -0.0221
vn 0.0573 0.5630 -0.8244
vn 0.0129 0.6554 -0.7551
vn 0.0208 0.6673 -0.7445
vn 0.0817 0.6197 -0.7806
vn -0.0007 -0.0247 -0.9997
vn -0.2849 0.9577 -0.0403
vn -0.0000 -0.0252 -0.9997
vn 0.1826 0.9827 -0.0303
vn -0.0781 -0.0438 -0.9960
vn 0.0602 0.0438 -0.9972
vn -0.1446 -0.0346 -0.9889
vn -0.0922 -0.0549 -0.9942
vn -0.0101 0.4823 -0.8759
vn -0.0052 0.5018 -0.8650
vn -0.9926 0.0376 -0.1154
vn -0.2025 -0.0181 -0.9791
vn -0.0653 -0.9979 -0.0036
vn 0.0457 -0.0300 -0.9985
vn -0.1547 0.9876 -0.0258
vn -0.2540 0.1465 -0.9560
vn 0.1595 0.9868 -0.0278
vn -0.0468 0.2819 -0.9583
vn 0.2624 0.1939 -0.9453
vn 0.1708 0.9849 -0.0278
vn 0.1122 0.3522 -0.9292
vn 0.4672 0.0664 -0.8816
vn 0.1910 0.9812 -0.0280
vn 0.9788 0.0325 -0.2020
vn 0.1212 -0.9885 0.0900
vn 0.3454 0.9383 -0.0184
vn 0.2940 0.9557 -0.0177
vn 0.1206 -0.9923 0.0280
vn 0.3646 0.1210 -0.9233
vn 0.2588 0.9659 -0.0000
vn 0.7071 0.7071 -0.0000
vn 0.9659 0.2588 -0.0000
vn 0.9659 -0.2588 -0.0000
vn 0.7071 -0.7071 -0.0000
vn 0.2588 -0.9659 -0.0000
vn -0.2588 -0.9659 -0.0000
vn -0.7071 -0.7071 -0.0000
vn -0.9659 -0.2588 -0.0000
vn -0.9659 0.2588 -0.0000
vn -0.7071 0.7071 -0.0000
vn -0.2588 0.9659 -0.0000
vn -0.0000 -0.0000 1.0000
vn -0.0943 -0.3520 -0.9312
vn -0.2577 -0.2577 -0.9312
vn -0.3520 -0.0943 -0.9312
vn -0.3520 0.0943 -0.9312
vn -0.2577 0.2577 -0.9312
vn -0.0943 0.3520 -0.9312
vn 0.0943 0.3520 -0.9312
vn 0.2577 0.2577 -0.9312
vn 0.3520 0.0943 -0.9312
vn 0.3520 -0.0943 -0.9312
vn 0.2577 -0.2577 -0.9312
vn 0.0943 -0.3520 -0.9312
vn -0.0416 -0.1553 -0.9870
vn 0.0416 -0.1553 -0.9870
vn 0.1137 -0.1137 -0.9870
vn 0.1553 -0.0416 -0.9870
vn 0.1553 0.0416 -0.9870
vn 0.1137 0.1137 -0.9870
vn 0.0416 0.1553 -0.9870
vn -0.0416 0.1553 -0.9870
vn -0.1137 0.1137 -0.9870
vn -0.1553 0.0416 -0.9870
vn -0.1553 -0.0416 -0.9870
vn -0.1137 -0.1137 -0.9870
vn -0.0000 -0.0000 -1.0000
vn 0.0943 -0.3520 0.9312
vn 0.2577 -0.2577 0.9312
vn 0.3520 -0.0943 0.9312
vn 0.3520 0.0943 0.9312
vn 0.2577 0.2577 0.9312
vn 0.0943 0.3520 0.9312
vn -0.0943 0.3520 0.9312
vn -0.2577 0.2577 0.9312
vn -0.3520 0.0943 0.9312
vn -0.3520 -0.0943 0.9312
vn -0.2577 -0.2577 0.9312
vn -0.0943 -0.3520 0.9312
vn 0.0416 -0.1553 0.9870
vn -0.0416 -0.1553 0.9870
vn -0.1137 -0.1137 0.9870
vn -0.1553 -0.0416 0.9870
vn -0.1553 0.0416 0.9870
vn -0.1137 0.1137 0.9870
vn -0.0416 0.1553 0.9870
vn 0.0416 0.1553 0.9870
vn 0.1137 0.1137 0.9870
vn 0.1553 0.0416 0.9870
vn 0.1553 -0.0416 0.9870
vn 0.1137 -0.1137 0.9870
vn -0.1070 -0.9943 -0.0000
vn 0.8891 -0.4577 -0.0000
vn -0.1366 0.0001 0.9906
vn -0.0588 -0.9983 -0.0000
vn 0.0291 0.9996 -0.0037
vn 0.0775 0.9970 -0.0000
vn 0.0137 0.9999 -0.0000
vn -0.9885 0.1431 0.0491
vn -0.6790 0.1101 0.7259
vn -0.9480 0.2358 0.2137
vn 0.1022 0.9948 -0.0025
vn 0.0705 0.9969 0.0357
vn 0.9999 -0.0125 -0.0000
vn 0.9783 -0.2070 -0.0000
vn -0.9337 -0.3180 0.1645
vn -0.9830 0.0013 0.1838
vn -0.6937 -0.1567 0.7030
vn -0.6494 0.0027 0.7604
vn -0.9500 -0.3092 0.0440
vn -0.9988 -0.0076 0.0490
vn -0.1376 -0.0102 0.9904
vn -0.1367 -0.0000 0.9906
vn -0.1366 0.0001 -0.9906
vn 0.0291 0.9996 0.0037
vn -0.9885 0.1431 -0.0491
vn -0.6790 0.1101 -0.7259
vn -0.9480 0.2358 -0.2137
vn 0.1022 0.9948 0.0025
vn 0.0705 0.9969 -0.0357
vn -0.9337 -0.3180 -0.1645
vn -0.9830 0.0013 -0.1838
vn -0.6937 -0.1567 -0.7030
vn -0.6494 0.0027 -0.7604
vn -0.9500 -0.3092 -0.0440
vn -0.9988 -0.0076 -0.0490
vn -0.1376 -0.0101 -0.9904
vn -0.1367 -0.0000 -0.9906
vn -0.7719 -0.0000 -0.6358
vn 0.5111 0.5947 -0.6205
vn 0.5015 0.3392 0.7959
vn -0.6340 0.0743 0.7698
vn -0.3930 -0.7860 0.4772
vn -0.1241 0.9808 0.1507
vn 0.1537 0.9703 -0.1866
vn 0.0171 0.9996 -0.0208
vn 0.4483 -0.7090 -0.5443
vn -0.1859 -0.9563 0.2257
vn 0.8176 0.2774 0.5045
vn 0.7450 0.3546 0.5649
vn 0.7719 -0.0000 0.6358
vn 0.6743 -0.1011 0.7315
vn 0.2593 -0.9130 -0.3149
vn 0.5910 -0.3688 -0.7175
vn -0.2345 -0.9295 0.2847
vn 0.2345 0.9295 -0.2847
vn -0.4696 0.3952 -0.7895
vn -0.3484 -0.0374 -0.9366
vn -0.7445 -0.4879 -0.4557
vn -0.9716 0.1536 -0.1799
vn -0.8926 0.3565 -0.2758
vn -0.5737 0.4809 -0.6630
vn -0.6048 -0.4932 -0.6253
vn -0.6758 -0.5027 -0.5391
vn 0.5909 -0.3688 -0.7175
vn 0.7236 0.1674 0.6696
vn 0.6643 -0.3528 0.6590
vn 0.8928 -0.3066 0.3301
vn 0.3733 -0.2738 0.8864
vn -0.7719 -0.0000 0.6358
vn 0.5111 0.5947 0.6205
vn 0.5015 0.3392 -0.7959
vn -0.6340 0.0744 -0.7698
vn -0.3930 -0.7860 -0.4772
vn -0.1241 0.9808 -0.1507
vn 0.1537 0.9703 0.1866
vn 0.0171 0.9996 0.0208
vn 0.4483 -0.7090 0.5443
vn -0.1859 -0.9563 -0.2257
vn 0.8176 0.2774 -0.5045
vn 0.7450 0.3546 -0.5649
vn 0.7719 -0.0000 -0.6358
vn 0.6743 -0.1011 -0.7315
vn 0.2593 -0.9130 0.3149
vn 0.5909 -0.3688 0.7175
vn -0.2345 -0.9295 -0.2847
vn 0.2345 0.9295 0.2847
vn -0.4696 0.3952 0.7895
vn -0.3484 -0.0374 0.9366
vn -0.7445 -0.4879 0.4557
vn -0.9716 0.1536 0.1799
vn -0.8926 0.3565 0.2758
vn -0.5737 0.4809 0.6630
vn -0.6048 -0.4932 0.6253
vn -0.6758 -0.5027 0.5391
vn 0.7236 0.1674 -0.6696
vn 0.6643 -0.3528 -0.6590
vn 0.8928 -0.3066 -0.3301
vn 0.3733 -0.2738 -0.8864
vn 0.0810 0.4419 0.8934
vn -0.9959 -0.0000 0.0903
vn 0.0194 -0.9765 0.2144
vn 0.0117 0.9916 0.1291
vn -0.0103 -0.9935 -0.1137
vn -0.0103 0.9935 -0.1137
vn -0.0790 0.4842 -0.8714
vn -0.0310 -0.9390 -0.3425
vn -0.0310 0.9390 -0.3425
vn -0.0790 -0.4842 -0.8714
vn 0.0801 -0.4603 0.8841
vn 0.0810 0.4419 -0.8934
vn -0.9959 -0.0000 -0.0903
vn 0.0194 -0.9765 -0.2144
vn 0.0117 0.9916 -0.1291
vn -0.0103 -0.9935 0.1137
vn -0.0103 0.9935 0.1137
vn -0.0790 0.4842 0.8714
vn -0.0310 -0.9390 0.3425
vn -0.0310 0.9390 0.3425
vn -0.0790 -0.4842 0.8714
vn 0.0801 -0.4603 -0.8841
vt 0.195685 0.264467
vt 0.129056 0.264467
vt 0.129056 0.154562
vt 0.195685 0.154562
vt 0.195685 0.082847
vt 0.129056 0.082847
vt 0.129056 0.010587
vt 0.195685 0.010587
vt 0.432047 0.066715
vt 0.432047 0.153294
vt 0.352770 0.113110
vt 0.341664 0.065869
vt 0.425073 0.246761
vt 0.425078 0.301954
vt 0.327218 0.301963
vt 0.337670 0.245767
vt 0.315814 0.082847
vt 0.262561 0.082847
vt 0.262561 0.010587
vt 0.315814 0.010587
vt 0.315814 0.264467
vt 0.262561 0.264467
vt 0.262561 0.154562
vt 0.315814 0.154562
vt 0.012328 0.210184
vt 0.012328 0.142200
vt 0.116001 0.142200
vt 0.116001 0.210184
vt 0.012328 0.264318
vt 0.116001 0.264318
vt 0.012328 0.074468
vt 0.116001 0.074468
vt 0.425078 0.163429
vt 0.347678 0.202337
vt 0.432017 0.011113
vt 0.328344 0.010657
vt 0.504128 0.440870
vt 0.480811 0.440443
vt 0.480059 0.387738
vt 0.504138 0.383600
vt 0.258098 0.609220
vt 0.228837 0.609408
vt 0.229348 0.551766
vt 0.258002 0.551696
vt 0.504119 0.491814
vt 0.480700 0.491784
vt 0.200365 0.609486
vt 0.213237 0.657732
vt 0.226973 0.491445
vt 0.253894 0.482888
vt 0.243975 0.429190
vt 0.220961 0.467739
vt 0.217955 0.455882
vt 0.239013 0.402322
vt 0.384452 0.841368
vt 0.407989 0.840287
vt 0.407989 0.890955
vt 0.379449 0.887336
vt 0.504112 0.534246
vt 0.480678 0.534238
vt 0.472630 0.325263
vt 0.504148 0.324546
vt 0.407989 0.939052
vt 0.374707 0.940077
vt 0.200218 0.551888
vt 0.200059 0.504252
vt 0.223967 0.479593
vt 0.254001 0.723026
vt 0.363953 0.480302
vt 0.364070 0.548143
vt 0.102737 0.912909
vt 0.135994 0.912467
vt 0.135866 0.968962
vt 0.105813 0.960678
vt 0.364149 0.605744
vt 0.503915 0.976018
vt 0.472860 0.977759
vt 0.472674 0.963655
vt 0.503915 0.964154
vt 0.507197 0.644830
vt 0.507197 0.696443
vt 0.472508 0.696443
vt 0.472508 0.644830
vt 0.472508 0.584050
vt 0.507197 0.584050
vt 0.409396 0.725412
vt 0.376251 0.725413
vt 0.377023 0.697085
vt 0.409396 0.697085
vt 0.507197 0.800654
vt 0.472508 0.800654
vt 0.303646 0.398676
vt 0.293461 0.428614
vt 0.364126 0.722160
vt 0.248938 0.456048
vt 0.305004 0.461140
vt 0.409396 0.811864
vt 0.374707 0.811864
vt 0.375479 0.756326
vt 0.409396 0.756326
vt 0.074314 0.983815
vt 0.043262 0.986039
vt 0.042435 0.893745
vt 0.072701 0.893805
vt 0.364149 0.379399
vt 0.242365 0.381690
vt 0.259567 0.331155
vt 0.359941 0.327016
vt 0.409396 0.640179
vt 0.377017 0.640181
vt 0.380553 0.593220
vt 0.409396 0.584050
vt 0.102737 0.894157
vt 0.136037 0.893745
vt 0.444121 0.501914
vt 0.409457 0.501912
vt 0.409457 0.469111
vt 0.444121 0.469119
vt 0.306387 0.738644
vt 0.256818 0.738511
vt 0.444124 0.555627
vt 0.409457 0.555626
vt 0.409457 0.440707
vt 0.444127 0.440731
vt 0.472508 0.933396
vt 0.503915 0.933889
vt 0.290936 0.771892
vt 0.262483 0.771799
vt 0.267796 0.801553
vt 0.301895 0.801676
vt 0.363638 0.826725
vt 0.272706 0.825837
vt 0.472976 0.906321
vt 0.503915 0.906871
vt 0.279696 0.852052
vt 0.362661 0.852776
vt 0.361774 0.871663
vt 0.286828 0.868995
vt 0.409457 0.380846
vt 0.444207 0.381143
vt 0.473248 0.884122
vt 0.503915 0.884778
vt 0.184339 0.925580
vt 0.184977 0.862625
vt 0.255708 0.863096
vt 0.255164 0.926519
vt 0.440753 0.358208
vt 0.409457 0.352595
vt 0.409457 0.324546
vt 0.437274 0.341779
vt 0.503915 0.856976
vt 0.475953 0.859964
vt 0.477616 0.843585
vt 0.503915 0.829077
vt 0.528216 0.387746
vt 0.527444 0.440451
vt 0.071948 0.589460
vt 0.071853 0.646983
vt 0.043198 0.636837
vt 0.042687 0.579195
vt 0.527538 0.491792
vt 0.014216 0.579117
vt 0.034063 0.523895
vt 0.067744 0.715792
vt 0.040823 0.697158
vt 0.057826 0.769490
vt 0.052863 0.796358
vt 0.031805 0.732721
vt 0.034811 0.720865
vt 0.431527 0.841368
vt 0.436530 0.887336
vt 0.527545 0.534246
vt 0.535666 0.325274
vt 0.441272 0.940077
vt 0.014068 0.636716
vt 0.013909 0.684352
vt 0.037817 0.709011
vt 0.067851 0.475653
vt 0.177921 0.650537
vt 0.177803 0.718377
vt 0.169249 0.913060
vt 0.165956 0.960815
vt 0.178000 0.592936
vt 0.535157 0.963655
vt 0.534971 0.977759
vt 0.541886 0.644830
vt 0.541886 0.696443
vt 0.541886 0.584050
vt 0.441768 0.697085
vt 0.442540 0.725412
vt 0.541886 0.800654
vt 0.107311 0.770065
vt 0.117496 0.800003
vt 0.177976 0.476520
vt 0.118854 0.737540
vt 0.062788 0.742632
vt 0.443312 0.756326
vt 0.444085 0.811864
vt 0.012175 0.984372
vt 0.012175 0.894348
vt 0.178000 0.819280
vt 0.173791 0.871664
vt 0.073417 0.867525
vt 0.056215 0.816989
vt 0.438239 0.593220
vt 0.441775 0.640181
vt 0.169334 0.894308
vt 0.374793 0.501914
vt 0.374793 0.469119
vt 0.070668 0.460169
vt 0.120237 0.460035
vt 0.374791 0.555627
vt 0.374788 0.440731
vt 0.535323 0.933396
vt 0.076333 0.426880
vt 0.104786 0.426788
vt 0.081646 0.397127
vt 0.086557 0.372842
vt 0.177488 0.371954
vt 0.115745 0.397003
vt 0.534855 0.906321
vt 0.093546 0.346628
vt 0.100679 0.329684
vt 0.175624 0.327016
vt 0.176511 0.345904
vt 0.374707 0.381143
vt 0.534583 0.884122
vt 0.254729 0.987067
vt 0.182639 0.985963
vt 0.378162 0.358208
vt 0.381640 0.341779
vt 0.530215 0.843585
vt 0.531877 0.859964
vt 0.820503 0.308873
vt 0.820503 0.368250
vt 0.805135 0.368250
vt 0.805135 0.308873
vt 0.989550 0.308873
vt 0.989550 0.368250
vt 0.974182 0.368250
vt 0.974182 0.308873
vt 0.958814 0.368250
vt 0.958814 0.308873
vt 0.943447 0.368250
vt 0.943447 0.308873
vt 0.928079 0.368250
vt 0.928079 0.308873
vt 0.912711 0.368250
vt 0.912711 0.308873
vt 0.897343 0.368250
vt 0.897343 0.308873
vt 0.881975 0.368250
vt 0.881975 0.308873
vt 0.866607 0.368250
vt 0.866607 0.308873
vt 0.851239 0.368250
vt 0.851239 0.308873
vt 0.835871 0.368250
vt 0.835871 0.308873
vt 0.557636 0.238757
vt 0.541158 0.238757
vt 0.541158 0.302420
vt 0.557636 0.302420
vt 0.524681 0.238757
vt 0.524681 0.302420
vt 0.508204 0.238757
vt 0.508204 0.302420
vt 0.491727 0.238757
vt 0.491727 0.302420
vt 0.475250 0.238757
vt 0.475250 0.302420
vt 0.458773 0.238757
vt 0.458773 0.302420
vt 0.656498 0.238757
vt 0.640021 0.238757
vt 0.640021 0.302420
vt 0.656498 0.302420
vt 0.623544 0.238757
vt 0.623544 0.302420
vt 0.607067 0.238757
vt 0.607067 0.302420
vt 0.590590 0.238757
vt 0.590590 0.302420
vt 0.574113 0.238757
vt 0.574113 0.302420
vt 0.898789 0.191578
vt 0.885810 0.240014
vt 0.885810 0.143141
vt 0.850352 0.275472
vt 0.850352 0.107683
vt 0.801916 0.288451
vt 0.801916 0.094704
vt 0.753479 0.275472
vt 0.753479 0.107683
vt 0.718021 0.240014
vt 0.718021 0.143141
vt 0.705043 0.191578
vt 0.670786 0.119592
vt 0.689654 0.119592
vt 0.675075 0.065182
vt 0.658735 0.074616
vt 0.635244 0.025351
vt 0.625810 0.041691
vt 0.580833 0.010772
vt 0.580833 0.029640
vt 0.526423 0.025351
vt 0.535857 0.041691
vt 0.486592 0.065182
vt 0.502932 0.074616
vt 0.472012 0.119592
vt 0.490880 0.119592
vt 0.486592 0.174003
vt 0.502932 0.164569
vt 0.526423 0.213834
vt 0.535857 0.197494
vt 0.580833 0.228413
vt 0.580833 0.209546
vt 0.635244 0.213834
vt 0.625810 0.197494
vt 0.675075 0.174003
vt 0.658735 0.164569
vt 0.580833 0.119592
vt 0.557636 0.238757
vt 0.541158 0.238757
vt 0.541158 0.302420
vt 0.557635 0.302420
vt 0.524681 0.302420
vt 0.508204 0.238757
vt 0.508204 0.302420
vt 0.491727 0.238757
vt 0.491727 0.302420
vt 0.475250 0.238757
vt 0.475250 0.302420
vt 0.458772 0.238757
vt 0.458772 0.302420
vt 0.656498 0.238757
vt 0.640021 0.238757
vt 0.640021 0.302420
vt 0.656498 0.302420
vt 0.623544 0.238757
vt 0.623544 0.302420
vt 0.607067 0.238757
vt 0.607067 0.302420
vt 0.590590 0.238757
vt 0.590590 0.302420
vt 0.574113 0.238757
vt 0.574113 0.302420
vt 0.885811 0.143141
vt 0.885811 0.240014
vt 0.718021 0.143141
vt 0.675075 0.174003
vt 0.635244 0.213834
vt 0.526423 0.213834
vt 0.535857 0.197494
vt 0.486592 0.174003
vt 0.502932 0.164569
vt 0.490881 0.119592
vt 0.502932 0.074616
vt 0.526423 0.025351
vt 0.535857 0.041691
vt 0.557635 0.238757
vt 0.541158 0.238757
vt 0.524681 0.302420
vt 0.491727 0.238757
vt 0.475250 0.238757
vt 0.656498 0.238757
vt 0.640021 0.302420
vt 0.656498 0.302420
vt 0.623544 0.238757
vt 0.623544 0.302420
vt 0.607067 0.302420
vt 0.590590 0.302420
vt 0.574113 0.238757
vt 0.898789 0.191578
vt 0.885810 0.240014
vt 0.885810 0.143141
vt 0.850352 0.107683
vt 0.801916 0.094704
vt 0.753479 0.107683
vt 0.718021 0.240014
vt 0.718021 0.143141
vt 0.705043 0.191578
vt 0.670786 0.119593
vt 0.689654 0.119593
vt 0.675075 0.065182
vt 0.658735 0.074616
vt 0.635244 0.025351
vt 0.625810 0.041691
vt 0.580833 0.010772
vt 0.580833 0.029640
vt 0.535857 0.041691
vt 0.486592 0.065182
vt 0.502932 0.074617
vt 0.472012 0.119593
vt 0.490880 0.119593
vt 0.486592 0.174004
vt 0.502932 0.164570
vt 0.526423 0.213835
vt 0.535857 0.197495
vt 0.580833 0.228414
vt 0.580833 0.209546
vt 0.635244 0.213835
vt 0.625810 0.197495
vt 0.675075 0.174003
vt 0.658735 0.164570
vt 0.580833 0.119593
vt 0.557635 0.238757
vt 0.541158 0.238757
vt 0.541158 0.302420
vt 0.557635 0.302420
vt 0.524681 0.238757
vt 0.508204 0.238757
vt 0.508204 0.302420
vt 0.491727 0.238757
vt 0.491727 0.302420
vt 0.458772 0.238757
vt 0.458772 0.302420
vt 0.656498 0.238757
vt 0.640021 0.238757
vt 0.640021 0.302420
vt 0.623544 0.238757
vt 0.623544 0.302420
vt 0.607067 0.302420
vt 0.590590 0.238757
vt 0.590590 0.302420
vt 0.574113 0.302420
vt 0.885811 0.143141
vt 0.658735 0.164569
vt 0.635244 0.213834
vt 0.625810 0.197494
vt 0.580833 0.228414
vt 0.580833 0.209545
vt 0.526423 0.213834
vt 0.535857 0.197494
vt 0.502932 0.164569
vt 0.502932 0.074616
vt 0.625810 0.041691
vt 0.658735 0.074616
vt 0.866607 0.308873
vt 0.851239 0.368250
vt 0.580843 0.719932
vt 0.580843 0.659634
vt 0.607347 0.659634
vt 0.607347 0.719932
vt 0.919841 0.938769
vt 0.952910 0.938769
vt 0.952910 0.958745
vt 0.919841 0.958745
vt 0.670683 0.951162
vt 0.718098 0.951162
vt 0.718098 0.971138
vt 0.670683 0.971138
vt 0.631916 0.719932
vt 0.631916 0.659634
vt 0.697249 0.659634
vt 0.697249 0.719932
vt 0.975246 0.938769
vt 0.975246 0.958745
vt 0.819158 0.725064
vt 0.818568 0.819792
vt 0.801366 0.774998
vt 0.799184 0.724959
vt 0.825013 0.938769
vt 0.869789 0.956250
vt 0.819303 0.692061
vt 0.799339 0.691977
vt 0.819494 0.640007
vt 0.799533 0.639933
vt 0.753359 0.719932
vt 0.753359 0.659634
vt 0.776427 0.659634
vt 0.776427 0.719932
vt 0.720618 0.659634
vt 0.720618 0.719932
vt 0.892215 0.640235
vt 0.892064 0.692294
vt 0.861152 0.692217
vt 0.861315 0.640145
vt 0.891996 0.725289
vt 0.861070 0.725267
vt 0.798850 0.866002
vt 0.919841 0.866002
vt 0.919841 0.896917
vt 0.803099 0.896917
vt 0.892215 0.852787
vt 0.861292 0.848630
vt 0.952909 0.866002
vt 0.975246 0.866002
vt 0.975246 0.896916
vt 0.952909 0.896916
vt 0.670683 0.878395
vt 0.718098 0.878395
vt 0.718098 0.909309
vt 0.670683 0.909309
vt 0.571305 0.909309
vt 0.629116 0.909309
vt 0.629116 0.951162
vt 0.571305 0.951162
vt 0.571305 0.878395
vt 0.629116 0.878395
vt 0.720618 0.845356
vt 0.720618 0.773501
vt 0.753359 0.773501
vt 0.753359 0.845356
vt 0.697249 0.845356
vt 0.697249 0.773501
vt 0.607347 0.845356
vt 0.607347 0.773501
vt 0.631916 0.773501
vt 0.631916 0.845356
vt 0.776427 0.773501
vt 0.776427 0.845356
vt 0.629116 0.971138
vt 0.571305 0.971138
vt 0.580843 0.845356
vt 0.580843 0.773501
vt 0.759456 0.471749
vt 0.723191 0.481243
vt 0.723191 0.442284
vt 0.745372 0.443753
vt 0.909442 0.615558
vt 0.909442 0.556736
vt 0.930309 0.556736
vt 0.930309 0.615558
vt 0.635748 0.483078
vt 0.679492 0.506681
vt 0.661622 0.546414
vt 0.631811 0.530512
vt 0.774880 0.556736
vt 0.800768 0.556736
vt 0.800768 0.615558
vt 0.774880 0.615558
vt 0.714764 0.615558
vt 0.714764 0.556736
vt 0.748992 0.556736
vt 0.748992 0.615558
vt 0.834996 0.556736
vt 0.834996 0.615558
vt 0.872176 0.615558
vt 0.872176 0.556736
vt 0.640318 0.615558
vt 0.640318 0.556736
vt 0.677584 0.556736
vt 0.677584 0.615558
vt 0.656212 0.411946
vt 0.693927 0.412751
vt 0.694318 0.466338
vt 0.636829 0.453805
vt 0.760926 0.537517
vt 0.742418 0.540690
vt 0.730947 0.516371
vt 0.762267 0.509607
vt 0.659167 0.389935
vt 0.644805 0.389341
vt 0.645376 0.359580
vt 0.659532 0.359801
vt 0.856520 0.507315
vt 0.857655 0.536846
vt 0.836120 0.522084
vt 0.837414 0.507604
vt 0.619270 0.405930
vt 0.619451 0.615558
vt 0.619451 0.556736
vt 0.981317 0.615558
vt 0.955429 0.615558
vt 0.955429 0.556736
vt 0.981317 0.556736
vt 0.594331 0.615558
vt 0.594331 0.556736
vt 0.805547 0.519116
vt 0.806958 0.504582
vt 0.959988 0.474180
vt 0.930361 0.460273
vt 0.934225 0.444779
vt 0.972181 0.464564
vt 0.963223 0.491730
vt 0.979128 0.490025
vt 0.870681 0.525210
vt 0.906731 0.527973
vt 0.907481 0.544173
vt 0.871769 0.504864
vt 0.892272 0.458833
vt 0.874658 0.483631
vt 0.859823 0.477785
vt 0.885351 0.444779
vt 0.942854 0.520647
vt 0.966070 0.508988
vt 0.980318 0.516588
vt 0.948714 0.535557
vt 0.839014 0.493132
vt 0.808411 0.490031
vt 0.568443 0.615558
vt 0.568443 0.556736
vt 0.673532 0.389690
vt 0.673687 0.359925
vt 0.793587 0.502843
vt 0.795721 0.462255
vt 0.779434 0.534344
vt 0.582825 0.432776
vt 0.582825 0.486023
vt 0.598011 0.534316
vt 0.767553 0.445222
vt 0.851077 0.010764
vt 0.874617 0.010764
vt 0.874617 0.066001
vt 0.851077 0.066001
vt 0.912434 0.103226
vt 0.925177 0.083434
vt 0.942070 0.083170
vt 0.939410 0.106325
vt 0.958640 0.087028
vt 0.956202 0.108254
vt 0.829046 0.066001
vt 0.811626 0.066001
vt 0.811626 0.010764
vt 0.829046 0.010764
vt 0.891511 0.066001
vt 0.891511 0.010764
vt 0.794612 0.066001
vt 0.794612 0.010764
vt 0.908525 0.010764
vt 0.908525 0.066001
vt 0.949922 0.066001
vt 0.936494 0.066001
vt 0.936494 0.010764
vt 0.949922 0.010764
vt 0.991318 0.010764
vt 0.991318 0.066001
vt 0.963349 0.066001
vt 0.963349 0.010764
vt 0.983635 0.099580
vt 0.988752 0.111994
vt 0.953763 0.129481
vt 0.980953 0.122924
vt 0.936750 0.129481
vt 0.920277 0.123814
s 0
usemtl Material
f 14/1/1 12/2/1 4/3/1 7/4/1
f 20/5/2 18/6/2 2/7/2 6/8/2
f 22/9/3 11/10/3 3/11/3 17/12/3
f 21/13/4 10/14/4 2/15/4 18/16/4
f 17/17/5 19/18/5 5/19/5 1/20/5
f 19/18/6 20/5/6 6/8/6 5/19/6
f 11/21/7 13/22/7 8/23/7 3/24/7
f 13/22/8 14/1/8 7/4/8 8/23/8
f 5/25/9 6/26/9 16/27/9 15/28/9
f 1/29/9 5/25/9 15/28/9 9/30/9
f 6/26/9 2/31/9 10/32/9 16/27/9
f 8/23/10 7/4/10 20/5/10 19/18/10
f 3/24/11 8/23/11 19/18/11 17/17/11
f 12/33/12 21/13/12 18/16/12 4/34/12
f 9/35/13 22/9/13 17/12/13 1/36/13
f 7/4/14 4/3/14 18/6/14 20/5/14
f 14/1/15 29/4/15 26/3/15 12/2/15
f 34/5/16 28/8/16 24/7/16 32/6/16
f 22/9/17 31/12/17 25/11/17 11/10/17
f 21/13/18 32/16/18 24/15/18 10/14/18
f 31/17/19 23/20/19 27/19/19 33/18/19
f 33/18/20 27/19/20 28/8/20 34/5/20
f 11/21/21 25/24/21 30/23/21 13/22/21
f 13/22/22 30/23/22 29/4/22 14/1/22
f 27/25/9 15/28/9 16/27/9 28/26/9
f 23/29/9 9/30/9 15/28/9 27/25/9
f 28/26/9 16/27/9 10/32/9 24/31/9
f 30/23/23 33/18/23 34/5/23 29/4/23
f 25/24/24 31/17/24 33/18/24 30/23/24
f 12/33/25 26/34/25 32/16/25 21/13/25
f 9/35/26 23/36/26 31/12/26 22/9/26
f 29/4/27 34/5/27 32/6/27 26/3/27
f 46/37/28 38/38/28 51/39/28 52/40/28
f 37/41/29 53/42/29 57/43/29 35/44/29
f 46/37/30 44/45/30 36/46/30 38/38/30
f 38/47/31 53/42/31 51/48/31
f 35/44/32 57/43/32 54/49/32 40/50/32
f 65/51/33 68/52/33 56/53/33 42/54/33
f 41/55/34 47/56/34 55/57/34 56/58/34
f 36/46/30 44/45/30 47/59/30 41/60/30
f 52/40/35 51/39/35 39/61/35 49/62/35
f 56/58/36 55/57/36 50/63/36 42/64/36
f 57/43/37 53/42/37 38/47/37 36/65/37
f 54/49/38 57/43/38 36/65/38 41/66/38
f 56/53/39 68/52/39 67/67/39 54/49/39 41/66/39
f 51/48/40 53/42/40 37/41/40 39/68/40
f 35/44/41 40/50/41 59/69/41 45/70/41
f 78/71/42 77/72/42 74/73/42 73/74/42
f 37/41/43 35/44/43 45/70/43 43/75/43
f 49/76/44 39/77/44 83/78/44 82/79/44
f 48/80/45 63/81/45 43/82/45 45/83/45
f 48/80/45 45/83/45 59/84/45 58/85/45
f 72/86/46 69/87/46 62/88/46 64/89/46
f 43/82/45 63/81/45 61/90/45 60/91/45
f 65/51/47 42/54/47 62/92/47 69/93/47
f 39/68/48 37/41/48 43/75/48 60/94/48
f 40/50/49 66/95/49 70/96/49 59/69/49
f 66/95/50 65/51/50 69/93/50 70/96/50
f 58/97/51 59/98/51 70/99/51 71/100/51
f 71/100/52 70/99/52 69/87/52 72/86/52
f 40/50/53 54/49/53 67/67/53 66/95/53
f 66/95/54 67/67/54 68/52/54 65/51/54
f 73/101/55 74/102/55 76/103/55 75/104/55
f 79/105/56 78/106/56 73/107/56 75/108/56
f 80/109/57 79/110/57 75/111/57 76/112/57
f 64/89/58 62/88/58 79/110/58 80/109/58
f 62/92/59 42/54/59 78/106/59 79/105/59
f 42/113/60 50/114/60 77/72/60 78/71/60
f 84/115/61 81/116/61 85/117/61 88/118/61
f 39/68/62 60/94/62 84/119/62 83/120/62
f 60/121/63 61/122/63 81/116/63 84/115/63
f 88/118/64 85/117/64 89/123/64 92/124/64
f 82/79/65 83/78/65 87/125/65 86/126/65
f 83/120/66 84/119/66 88/127/66 87/128/66
f 91/129/67 92/130/67 96/131/67 95/132/67
f 86/126/68 87/125/68 91/133/68 90/134/68
f 87/128/69 88/127/69 92/130/69 91/129/69
f 103/135/70 102/136/70 100/137/70 99/138/70
f 92/124/71 89/123/71 93/139/71 96/140/71
f 90/134/72 91/133/72 95/141/72 94/142/72
f 98/143/73 99/144/73 100/145/73 97/146/73
f 102/147/74 101/148/74 97/149/74 100/150/74
f 104/151/75 103/152/75 99/153/75 98/154/75
f 94/142/76 95/141/76 103/152/76 104/151/76
f 96/140/77 93/139/77 101/148/77 102/147/77
f 95/132/78 96/131/78 102/136/78 103/135/78
f 46/37/79 52/40/79 115/155/79 108/156/79
f 107/157/80 105/158/80 119/159/80 116/160/80
f 46/37/81 108/156/81 106/161/81 44/45/81
f 108/162/82 115/163/82 116/160/82
f 105/158/83 110/164/83 117/165/83 119/159/83
f 123/166/84 112/167/84 118/168/84 126/169/84
f 111/170/85 118/171/85 55/57/85 47/56/85
f 106/161/81 111/172/81 47/59/81 44/45/81
f 52/40/86 49/62/86 109/173/86 115/155/86
f 118/171/87 112/174/87 50/63/87 55/57/87
f 119/159/88 106/175/88 108/162/88 116/160/88
f 117/165/89 111/176/89 106/175/89 119/159/89
f 118/168/90 111/176/90 117/165/90 125/177/90 126/169/90
f 115/163/91 109/178/91 107/157/91 116/160/91
f 105/158/92 114/179/92 120/180/92 110/164/92
f 131/181/93 129/182/93 74/73/93 77/72/93
f 107/157/94 113/183/94 114/179/94 105/158/94
f 49/76/95 82/79/95 133/184/95 109/185/95
f 48/80/45 114/186/45 113/187/45 63/81/45
f 48/80/45 58/85/45 120/188/45 114/186/45
f 72/86/46 64/89/46 122/189/46 127/190/46
f 113/187/45 121/191/45 61/90/45 63/81/45
f 123/166/96 127/192/96 122/193/96 112/167/96
f 109/178/97 121/194/97 113/183/97 107/157/97
f 110/164/98 120/180/98 128/195/98 124/196/98
f 124/196/99 128/195/99 127/192/99 123/166/99
f 58/97/51 71/100/51 128/197/51 120/198/51
f 71/100/52 72/86/52 127/190/52 128/197/52
f 110/164/100 124/196/100 125/177/100 117/165/100
f 124/196/101 123/166/101 126/169/101 125/177/101
f 129/199/102 130/200/102 76/103/102 74/102/102
f 132/201/103 130/202/103 129/203/103 131/204/103
f 80/109/104 76/112/104 130/205/104 132/206/104
f 64/89/58 80/109/58 132/206/58 122/189/58
f 122/193/105 132/201/105 131/204/105 112/167/105
f 112/207/106 131/181/106 77/72/106 50/114/106
f 134/208/61 136/209/61 85/117/61 81/116/61
f 109/178/107 133/210/107 134/211/107 121/194/107
f 121/212/63 134/208/63 81/116/63 61/122/63
f 136/209/64 138/213/64 89/123/64 85/117/64
f 82/79/108 86/126/108 135/214/108 133/184/108
f 133/210/109 135/215/109 136/216/109 134/211/109
f 137/217/110 139/218/110 140/219/110 138/220/110
f 86/126/111 90/134/111 137/221/111 135/214/111
f 135/215/112 137/217/112 138/220/112 136/216/112
f 144/222/113 141/223/113 142/224/113 143/225/113
f 138/213/71 140/226/71 93/139/71 89/123/71
f 90/134/114 94/142/114 139/227/114 137/221/114
f 98/143/115 97/146/115 142/228/115 141/229/115
f 143/230/116 142/231/116 97/149/116 101/148/116
f 104/151/117 98/154/117 141/232/117 144/233/117
f 94/142/118 104/151/118 144/233/118 139/227/118
f 140/226/119 143/230/119 101/148/119 93/139/119
f 139/218/120 144/222/120 143/225/120 140/219/120
f 169/260/121 171/261/121 193/262/121 194/263/121
f 171/261/122 173/264/122 195/265/122 193/262/122
f 173/264/123 175/266/123 196/267/123 195/265/123
f 175/266/124 177/268/124 197/269/124 196/267/124
f 177/268/125 179/270/125 198/271/125 197/269/125
f 179/270/126 181/272/126 199/273/126 198/271/126
f 181/274/127 183/275/127 200/276/127 199/277/127
f 183/275/128 185/278/128 201/279/128 200/276/128
f 185/278/129 187/280/129 202/281/129 201/279/129
f 187/280/130 189/282/130 203/283/130 202/281/130
f 189/282/131 191/284/131 204/285/131 203/283/131
f 191/284/132 169/260/132 194/263/132 204/285/132
f 169/286/133 191/287/133 171/288/133
f 191/287/133 189/289/133 173/290/133 171/288/133
f 189/289/133 187/291/133 175/292/133 173/290/133
f 187/291/133 185/293/133 177/294/133 175/292/133
f 185/293/133 183/295/133 179/296/133 177/294/133
f 183/295/133 181/297/133 179/296/133
f 170/298/134 194/299/134 193/300/134 172/301/134
f 172/301/135 193/300/135 195/302/135 174/303/135
f 174/303/136 195/302/136 196/304/136 176/305/136
f 176/305/137 196/304/137 197/306/137 178/307/137
f 178/307/138 197/306/138 198/308/138 180/309/138
f 180/309/139 198/308/139 199/310/139 182/311/139
f 182/311/140 199/310/140 200/312/140 184/313/140
f 184/313/141 200/312/141 201/314/141 186/315/141
f 186/315/142 201/314/142 202/316/142 188/317/142
f 188/317/143 202/316/143 203/318/143 190/319/143
f 190/319/144 203/318/144 204/320/144 192/321/144
f 192/321/145 204/320/145 194/299/145 170/298/145
f 172/301/146 205/322/146 170/298/146
f 170/298/147 205/322/147 192/321/147
f 192/321/148 205/322/148 190/319/148
f 190/319/149 205/322/149 188/317/149
f 188/317/150 205/322/150 186/315/150
f 186/315/151 205/322/151 184/313/151
f 184/313/152 205/322/152 182/311/152
f 182/311/153 205/322/153 180/309/153
f 180/309/154 205/322/154 178/307/154
f 178/307/155 205/322/155 176/305/155
f 176/305/156 205/322/156 174/303/156
f 174/303/157 205/322/157 172/301/157
f 206/323/132 208/324/132 230/325/132 231/326/132
f 208/324/131 210/264/131 232/327/131 230/325/131
f 210/264/130 212/328/130 233/329/130 232/327/130
f 212/328/129 214/330/129 234/331/129 233/329/129
f 214/330/128 216/332/128 235/333/128 234/331/128
f 216/332/127 218/334/127 236/335/127 235/333/127
f 218/336/126 220/337/126 237/338/126 236/339/126
f 220/337/125 222/340/125 238/341/125 237/338/125
f 222/340/124 224/342/124 239/343/124 238/341/124
f 224/342/123 226/344/123 240/345/123 239/343/123
f 226/344/122 228/346/122 241/347/122 240/345/122
f 228/346/121 206/323/121 231/326/121 241/347/121
f 206/286/158 228/348/158 208/349/158
f 228/348/158 226/290/158 210/289/158 208/349/158
f 226/290/158 224/292/158 212/291/158 210/289/158
f 224/292/158 222/294/158 214/293/158 212/291/158
f 222/294/158 220/350/158 216/295/158 214/293/158
f 220/350/158 218/297/158 216/295/158
f 207/298/159 231/299/159 230/351/159 209/321/159
f 209/321/160 230/351/160 232/352/160 211/319/160
f 211/319/161 232/352/161 233/316/161 213/317/161
f 213/317/162 233/316/162 234/353/162 215/354/162
f 215/354/163 234/353/163 235/355/163 217/356/163
f 217/356/164 235/355/164 236/310/164 219/357/164
f 219/357/165 236/310/165 237/308/165 221/358/165
f 221/358/166 237/308/166 238/359/166 223/360/166
f 223/360/167 238/359/167 239/304/167 225/305/167
f 225/305/168 239/304/168 240/302/168 227/303/168
f 227/303/169 240/302/169 241/300/169 229/301/169
f 229/301/170 241/300/170 231/299/170 207/298/170
f 209/321/171 242/322/171 207/298/171
f 207/298/172 242/322/172 229/301/172
f 229/301/173 242/322/173 227/303/173
f 227/303/174 242/322/174 225/305/174
f 225/305/175 242/322/175 223/360/175
f 223/360/176 242/322/176 221/358/176
f 221/358/177 242/322/177 219/357/177
f 219/357/178 242/322/178 217/356/178
f 217/356/179 242/322/179 215/354/179
f 215/354/180 242/322/180 213/317/180
f 213/317/181 242/322/181 211/319/181
f 211/319/182 242/322/182 209/321/182
f 243/361/121 245/362/121 267/262/121 268/263/121
f 245/362/122 247/264/122 269/363/122 267/262/122
f 247/264/123 249/328/123 270/329/123 269/363/123
f 249/328/124 251/364/124 271/269/124 270/329/124
f 251/364/125 253/365/125 272/271/125 271/269/125
f 253/365/126 255/272/126 273/273/126 272/271/126
f 255/366/127 257/275/127 274/367/127 273/368/127
f 257/275/128 259/369/128 275/370/128 274/367/128
f 259/369/129 261/280/129 276/371/129 275/370/129
f 261/280/130 263/282/130 277/372/130 276/371/130
f 263/282/131 265/373/131 278/285/131 277/372/131
f 265/373/132 243/361/132 268/263/132 278/285/132
f 243/374/133 265/375/133 245/376/133
f 265/375/133 263/289/133 247/377/133 245/376/133
f 263/289/133 261/291/133 249/378/133 247/377/133
f 261/291/133 259/293/133 251/379/133 249/378/133
f 259/293/133 257/380/133 253/381/133 251/379/133
f 257/380/133 255/382/133 253/381/133
f 244/383/134 268/384/134 267/385/134 246/386/134
f 246/386/135 267/385/135 269/387/135 248/388/135
f 248/388/136 269/387/136 270/389/136 250/390/136
f 250/390/137 270/389/137 271/306/137 252/391/137
f 252/391/138 271/306/138 272/392/138 254/393/138
f 254/393/139 272/392/139 273/394/139 256/395/139
f 256/395/140 273/394/140 274/396/140 258/397/140
f 258/397/141 274/396/141 275/398/141 260/399/141
f 260/399/142 275/398/142 276/400/142 262/401/142
f 262/401/143 276/400/143 277/402/143 264/403/143
f 264/403/144 277/402/144 278/404/144 266/405/144
f 266/405/145 278/404/145 268/384/145 244/383/145
f 246/386/146 279/406/146 244/383/146
f 244/383/147 279/406/147 266/405/147
f 266/405/148 279/406/148 264/403/148
f 264/403/149 279/406/149 262/401/149
f 262/401/150 279/406/150 260/399/150
f 260/399/151 279/406/151 258/397/151
f 258/397/152 279/406/152 256/395/152
f 256/395/153 279/406/153 254/393/153
f 254/393/154 279/406/154 252/391/154
f 252/391/155 279/406/155 250/390/155
f 250/390/156 279/406/156 248/388/156
f 248/388/157 279/406/157 246/386/157
f 280/407/132 282/408/132 304/409/132 305/410/132
f 282/408/131 284/411/131 306/327/131 304/409/131
f 284/411/130 286/412/130 307/413/130 306/327/130
f 286/412/129 288/414/129 308/415/129 307/413/129
f 288/414/128 290/270/128 309/271/128 308/415/128
f 290/270/127 292/416/127 310/417/127 309/271/127
f 292/418/126 294/419/126 311/420/126 310/368/126
f 294/419/125 296/421/125 312/422/125 311/420/125
f 296/421/124 298/342/124 313/423/124 312/422/124
f 298/342/123 300/424/123 314/425/123 313/423/123
f 300/424/122 302/346/122 315/426/122 314/425/122
f 302/346/121 280/407/121 305/410/121 315/426/121
f 280/286/158 302/427/158 282/349/158
f 302/427/158 300/290/158 284/289/158 282/349/158
f 300/290/158 298/292/158 286/291/158 284/289/158
f 298/292/158 296/294/158 288/293/158 286/291/158
f 296/294/158 294/296/158 290/295/158 288/293/158
f 294/296/158 292/297/158 290/295/158
f 281/298/159 305/299/159 304/320/159 283/428/159
f 283/428/160 304/320/160 306/429/160 285/430/160
f 285/430/161 306/429/161 307/431/161 287/432/161
f 287/432/162 307/431/162 308/433/162 289/434/162
f 289/434/163 308/433/163 309/312/163 291/435/163
f 291/435/164 309/312/164 310/310/164 293/311/164
f 293/311/165 310/310/165 311/308/165 295/436/165
f 295/436/166 311/308/166 312/306/166 297/307/166
f 297/307/167 312/306/167 313/304/167 299/305/167
f 299/305/168 313/304/168 314/302/168 301/437/168
f 301/437/169 314/302/169 315/300/169 303/438/169
f 303/438/170 315/300/170 305/299/170 281/298/170
f 283/428/171 316/322/171 281/298/171
f 281/298/172 316/322/172 303/438/172
f 303/438/173 316/322/173 301/437/173
f 301/437/174 316/322/174 299/305/174
f 299/305/175 316/322/175 297/307/175
f 297/307/176 316/322/176 295/436/176
f 295/436/177 316/322/177 293/311/177
f 293/311/178 316/322/178 291/435/178
f 291/435/179 316/322/179 289/434/179
f 289/434/180 316/322/180 287/432/180
f 287/432/181 316/322/181 285/430/181
f 285/430/182 316/322/182 283/428/182
f 317/234/121 318/235/121 320/236/121 319/237/121
f 319/238/122 320/239/122 322/240/122 321/241/122
f 321/241/123 322/240/123 324/242/123 323/243/123
f 323/243/124 324/242/124 326/244/124 325/245/124
f 325/245/125 326/244/125 328/246/125 327/247/125
f 327/247/126 328/246/126 330/248/126 329/249/126
f 329/249/127 330/248/127 332/250/127 331/251/127
f 331/251/128 332/250/128 334/252/128 333/253/128
f 333/253/129 334/252/129 336/254/129 335/439/129
f 335/439/130 336/254/130 338/440/130 337/257/130
f 337/257/131 338/440/131 340/258/131 339/259/131
f 339/259/132 340/258/132 318/235/132 317/234/132
f 375/441/133 346/442/133 344/443/133 381/444/133
f 370/445/183 372/446/183 347/447/183 348/448/183
f 391/449/184 360/450/184 346/451/184 375/452/184
f 383/453/185 343/454/185 342/455/185 374/456/185
f 372/446/186 363/457/186 345/458/186 347/447/186
f 368/459/187 361/460/187 342/461/187 343/462/187
f 358/463/183 370/445/183 348/448/183 341/464/183
f 366/465/188 368/459/188 343/462/188 344/466/188
f 360/467/189 366/465/189 344/466/189 346/468/189
f 387/469/190 362/470/190 350/471/190 379/472/190
f 381/444/133 344/443/133 343/454/133 383/453/133
f 374/456/191 342/455/191 361/473/191 385/474/191
f 385/474/192 361/473/192 362/470/192 387/469/192
f 352/475/189 354/476/189 365/477/189 359/478/189
f 359/478/189 365/477/189 366/465/189 360/467/189
f 354/476/188 353/479/188 367/480/188 365/477/188
f 365/477/188 367/480/188 368/459/188 366/465/188
f 349/481/183 356/482/183 369/483/183 357/484/183
f 357/484/183 369/483/183 370/445/183 358/463/183
f 353/479/193 350/485/193 362/486/193 367/480/193
f 367/480/194 362/486/194 361/460/194 368/459/194
f 355/487/186 351/488/186 364/489/186 371/490/186
f 371/490/186 364/489/186 363/457/186 372/446/186
f 377/491/184 352/492/184 359/493/184 389/494/184
f 389/494/184 359/493/184 360/450/184 391/449/184
f 356/482/183 355/487/183 371/490/183 369/483/183
f 369/483/183 371/490/183 372/446/183 370/445/183
f 364/495/195 390/496/195 392/497/195 363/498/195
f 390/496/196 389/494/196 391/449/196 392/497/196
f 351/499/195 378/500/195 390/496/195 364/495/195
f 378/500/196 377/491/196 389/494/196 390/496/196
f 358/501/197 386/502/197 388/503/197 357/504/197
f 386/502/198 385/474/198 387/469/198 388/503/198
f 341/505/199 373/506/199 386/502/199 358/501/199
f 373/506/200 374/456/200 385/474/200 386/502/200
f 347/507/133 382/508/133 384/509/133 348/510/133
f 382/508/133 381/444/133 383/453/133 384/509/133
f 357/504/201 388/503/201 380/511/201 349/512/201
f 388/503/202 387/469/202 379/472/202 380/511/202
f 348/510/203 384/509/203 373/506/203 341/505/203
f 384/509/204 383/453/204 374/456/204 373/506/204
f 363/498/195 392/497/195 376/513/195 345/514/195
f 392/497/196 391/449/196 375/452/196 376/513/196
f 345/515/133 376/516/133 382/508/133 347/507/133
f 376/516/133 375/441/133 381/444/133 382/508/133
f 419/441/158 421/444/158 396/443/158 398/442/158
f 414/445/183 400/448/183 399/447/183 416/446/183
f 431/449/184 419/452/184 398/451/184 404/450/184
f 423/453/205 418/456/205 394/455/205 395/454/205
f 416/446/186 399/447/186 397/458/186 407/457/186
f 412/459/206 395/462/206 394/461/206 405/460/206
f 402/463/183 393/464/183 400/448/183 414/445/183
f 410/465/188 396/466/188 395/462/188 412/459/188
f 404/467/189 398/468/189 396/466/189 410/465/189
f 427/469/207 379/472/207 350/471/207 406/470/207
f 421/444/158 423/453/158 395/454/158 396/443/158
f 418/456/208 425/474/208 405/473/208 394/455/208
f 425/474/209 427/469/209 406/470/209 405/473/209
f 352/475/189 403/478/189 409/477/189 354/476/189
f 403/478/189 404/467/189 410/465/189 409/477/189
f 354/476/188 409/477/188 411/480/188 353/479/188
f 409/477/188 410/465/188 412/459/188 411/480/188
f 349/481/183 401/484/183 413/483/183 356/482/183
f 401/484/183 402/463/183 414/445/183 413/483/183
f 353/479/210 411/480/210 406/486/210 350/485/210
f 411/480/211 412/459/211 405/460/211 406/486/211
f 355/487/186 415/490/186 408/489/186 351/488/186
f 415/490/186 416/446/186 407/457/186 408/489/186
f 377/491/184 429/494/184 403/493/184 352/492/184
f 429/494/184 431/449/184 404/450/184 403/493/184
f 356/482/183 413/483/183 415/490/183 355/487/183
f 413/483/183 414/445/183 416/446/183 415/490/183
f 408/495/195 407/498/195 432/497/195 430/496/195
f 430/496/196 432/497/196 431/449/196 429/494/196
f 351/499/195 408/495/195 430/496/195 378/500/195
f 378/500/196 430/496/196 429/494/196 377/491/196
f 402/501/212 401/504/212 428/503/212 426/502/212
f 426/502/213 428/503/213 427/469/213 425/474/213
f 393/505/214 402/501/214 426/502/214 417/506/214
f 417/506/215 426/502/215 425/474/215 418/456/215
f 399/507/158 400/510/158 424/509/158 422/508/158
f 422/508/158 424/509/158 423/453/158 421/444/158
f 401/504/216 349/512/216 380/511/216 428/503/216
f 428/503/217 380/511/217 379/472/217 427/469/217
f 400/510/218 393/505/218 417/506/218 424/509/218
f 424/509/219 417/506/219 418/456/219 423/453/219
f 407/498/195 397/514/195 420/513/195 432/497/195
f 432/497/196 420/513/196 419/452/196 431/449/196
f 397/515/158 399/507/158 422/508/158 420/516/158
f 420/516/158 422/508/158 421/444/158 419/441/158
f 472/517/220 444/518/220 436/519/220 478/520/220
f 461/521/221 440/522/221 452/523/221 449/524/221
f 470/525/222 448/526/222 438/527/222 468/528/222
f 468/529/223 438/530/223 459/531/223 465/532/223
f 457/533/224 445/534/224 437/535/224 458/536/224
f 448/537/225 464/538/225 459/531/225 438/530/225
f 440/522/226 461/521/226 460/539/226 447/540/226
f 447/540/227 460/539/227 464/538/227 448/537/227
f 462/541/228 439/542/228 446/543/228 463/544/228
f 463/544/229 446/543/229 445/534/229 457/533/229
f 467/545/230 440/546/230 447/547/230 469/548/230
f 469/548/231 447/547/231 448/526/231 470/525/231
f 477/549/220 434/550/220 443/551/220 471/552/220
f 471/552/220 443/551/220 444/518/220 472/517/220
f 474/553/232 451/554/232 455/555/232 476/556/232
f 466/557/220 461/558/220 449/559/220 473/560/220
f 467/545/233 439/561/233 451/554/233 474/553/233
f 439/542/234 462/541/234 450/562/234 451/563/234
f 475/564/235 453/565/235 456/566/235 476/567/235
f 451/563/236 450/562/236 454/568/236 455/569/236
f 449/524/237 452/523/237 456/566/237 453/565/237
f 473/560/220 449/559/220 453/570/220 475/571/220
f 433/572/238 442/573/238 457/574/238 458/575/238
f 477/576/239 433/572/239 458/575/239 465/577/239
f 436/578/240 444/579/240 460/580/240 461/558/240
f 478/581/241 436/578/241 461/558/241 466/557/241
f 441/582/242 435/583/242 462/584/242 463/585/242
f 442/573/243 441/582/243 463/585/243 457/574/243
f 443/586/244 434/587/244 459/588/244 464/589/244
f 444/579/245 443/586/245 464/589/245 460/580/245
f 435/583/241 478/581/241 466/557/241 462/584/241
f 434/587/239 477/576/239 465/577/239 459/588/239
f 450/590/220 473/560/220 475/571/220 454/591/220
f 454/568/246 475/592/246 476/593/246 455/569/246
f 440/546/247 467/545/247 474/553/247 452/594/247
f 462/584/220 466/557/220 473/560/220 450/590/220
f 452/594/232 474/553/232 476/556/232 456/595/232
f 442/596/220 471/552/220 472/517/220 441/597/220
f 433/598/220 477/549/220 471/552/220 442/596/220
f 446/599/248 469/548/248 470/525/248 445/600/248
f 439/561/249 467/545/249 469/548/249 446/599/249
f 437/535/223 468/529/223 465/532/223 458/536/223
f 445/600/250 470/525/250 468/528/250 437/601/250
f 441/597/220 472/517/220 478/520/220 435/602/220
f 518/517/251 524/520/251 482/519/251 490/518/251
f 507/521/252 495/524/252 498/523/252 486/522/252
f 516/525/253 514/528/253 484/527/253 494/526/253
f 514/529/254 511/532/254 505/531/254 484/530/254
f 503/533/255 504/536/255 483/535/255 491/534/255
f 494/537/256 484/530/256 505/531/256 510/538/256
f 486/522/257 493/540/257 506/539/257 507/521/257
f 493/540/258 494/537/258 510/538/258 506/539/258
f 508/541/259 509/544/259 492/543/259 485/542/259
f 509/544/260 503/533/260 491/534/260 492/543/260
f 513/545/261 515/548/261 493/547/261 486/546/261
f 515/548/262 516/525/262 494/526/262 493/547/262
f 523/549/251 517/552/251 489/551/251 480/550/251
f 517/552/251 518/517/251 490/518/251 489/551/251
f 520/553/263 522/556/263 501/555/263 497/554/263
f 512/557/251 519/560/251 495/559/251 507/558/251
f 513/545/264 520/553/264 497/554/264 485/561/264
f 485/542/265 497/563/265 496/562/265 508/541/265
f 521/564/266 522/567/266 502/566/266 499/565/266
f 497/563/267 501/569/267 500/568/267 496/562/267
f 495/524/268 499/565/268 502/566/268 498/523/268
f 519/560/251 521/571/251 499/570/251 495/559/251
f 479/572/269 504/575/269 503/574/269 488/573/269
f 523/576/270 511/577/270 504/575/270 479/572/270
f 482/578/271 507/558/271 506/580/271 490/579/271
f 524/581/272 512/557/272 507/558/272 482/578/272
f 487/582/273 509/585/273 508/584/273 481/583/273
f 488/573/274 503/574/274 509/585/274 487/582/274
f 489/586/275 510/589/275 505/588/275 480/587/275
f 490/579/276 506/580/276 510/589/276 489/586/276
f 481/583/272 508/584/272 512/557/272 524/581/272
f 480/587/270 505/588/270 511/577/270 523/576/270
f 496/590/251 500/591/251 521/571/251 519/560/251
f 500/568/266 501/569/266 522/593/266 521/592/266
f 486/546/277 498/594/277 520/553/277 513/545/277
f 508/584/251 496/590/251 519/560/251 512/557/251
f 498/594/263 502/595/263 522/556/263 520/553/263
f 488/596/251 487/597/251 518/517/251 517/552/251
f 479/598/251 488/596/251 517/552/251 523/549/251
f 492/599/278 491/600/278 516/525/278 515/548/278
f 485/561/279 492/599/279 515/548/279 513/545/279
f 483/535/254 504/536/254 511/532/254 514/529/254
f 491/600/280 483/601/280 514/528/280 516/525/280
f 487/597/251 481/602/251 524/520/251 518/517/251
f 541/603/281 526/604/281 528/605/281 542/606/281
f 542/607/282 528/608/282 532/609/282 543/610/282
f 543/610/282 532/609/282 536/611/282 544/612/282
f 527/613/283 531/614/283 529/615/283 525/616/283
f 532/617/284 528/605/284 526/604/284 530/618/284
f 529/615/285 531/614/285 535/619/285 533/620/285
f 532/617/286 530/618/286 534/621/286 536/622/286
f 545/623/287 540/624/287 538/625/287 546/626/287
f 533/627/288 535/628/288 539/629/288 537/630/288
f 536/622/289 534/621/289 538/625/289 540/624/289
f 544/612/282 536/611/282 540/631/282 545/632/282
f 535/633/282 544/612/282 545/632/282 539/634/282
f 539/629/290 545/623/290 546/626/290 537/630/290
f 531/635/282 543/610/282 544/612/282 535/633/282
f 527/636/282 542/607/282 543/610/282 531/635/282
f 525/616/291 541/603/291 542/606/291 527/613/291
f 563/603/292 564/606/292 550/605/292 548/604/292
f 564/607/293 565/610/293 554/609/293 550/608/293
f 565/610/293 566/612/293 558/611/293 554/609/293
f 549/613/294 547/616/294 551/615/294 553/614/294
f 554/617/295 552/618/295 548/604/295 550/605/295
f 551/615/296 555/620/296 557/619/296 553/614/296
f 554/617/297 558/622/297 556/621/297 552/618/297
f 567/623/298 568/626/298 560/625/298 562/624/298
f 555/627/299 559/630/299 561/629/299 557/628/299
f 558/622/300 562/624/300 560/625/300 556/621/300
f 566/612/293 567/632/293 562/631/293 558/611/293
f 557/633/293 561/634/293 567/632/293 566/612/293
f 561/629/301 559/630/301 568/626/301 567/623/301
f 553/635/293 557/633/293 566/612/293 565/610/293
f 549/636/293 553/635/293 565/610/293 564/607/293
f 547/616/302 549/613/302 564/606/302 563/603/302
usemtl 
f 145/234/121 146/235/121 148/236/121 147/237/121
f 147/238/122 148/239/122 150/240/122 149/241/122
f 149/241/123 150/240/123 152/242/123 151/243/123
f 151/243/124 152/242/124 154/244/124 153/245/124
f 153/245/125 154/244/125 156/246/125 155/247/125
f 155/247/126 156/246/126 158/248/126 157/249/126
f 157/249/127 158/248/127 160/250/127 159/251/127
f 159/251/128 160/250/128 162/252/128 161/253/128
f 161/253/129 162/252/129 164/254/129 163/255/129
f 163/255/130 164/254/130 166/256/130 165/257/130
f 165/257/131 166/256/131 168/258/131 167/259/131
f 167/259/132 168/258/132 146/235/132 145/234/132
