# Blender 5.0.1
# www.blender.org
mtllib props_chair.mtl
o geometry_chair:Mesh
v -0.758758 1.117047 0.775027
v -0.758758 1.191298 0.775027
v -0.758758 1.117047 -0.724973
v -0.758758 1.191298 -0.724973
v 0.741242 1.117047 0.775027
v 0.741242 1.191298 0.775027
v 0.741242 1.117047 -0.724973
v 0.741242 1.191298 -0.724973
v -0.758758 1.191298 -0.793062
v 0.741242 1.191298 -0.793062
v 0.685785 1.117047 -0.724973
v 0.494332 1.117047 -0.724973
v -0.511848 1.117047 -0.724973
v -0.703301 1.117047 -0.724973
v -0.703301 1.191298 -0.724973
v -0.511848 1.191298 -0.724973
v 0.494332 1.191298 -0.724973
v 0.685785 1.191298 -0.724973
v -0.703301 1.117047 0.775027
v -0.511848 1.117047 0.775027
v 0.494332 1.117047 0.775027
v 0.685785 1.117047 0.775027
v 0.685785 1.191298 0.775027
v 0.494332 1.191298 0.775027
v -0.511848 1.191298 0.775027
v -0.703301 1.191298 0.775027
v 0.685785 1.117047 -0.793062
v 0.494332 1.117047 -0.793062
v -0.511848 1.117047 -0.793062
v -0.703301 1.117047 -0.793062
v -0.703301 1.191298 -0.793062
v -0.511848 1.191298 -0.793062
v 0.494332 1.191298 -0.793062
v 0.685785 1.191298 -0.793062
v -0.703301 2.601821 -1.050327
v -0.511848 2.601821 -1.050327
v 0.494332 2.601821 -1.050327
v 0.685785 2.601821 -1.050327
v -0.703301 2.601821 -1.118416
v -0.511848 2.601821 -1.118416
v 0.494332 2.601821 -1.118416
v 0.685785 2.601821 -1.118416
v -0.758758 1.117047 -0.546576
v -0.758758 1.117047 0.596629
v -0.758758 1.191298 0.596629
v -0.758758 1.191298 -0.546576
v 0.741242 1.117047 0.596629
v 0.741242 1.117047 -0.546576
v 0.741242 1.191298 -0.546576
v 0.741242 1.191298 0.596629
v 0.685785 1.191298 -0.546576
v 0.685785 1.191298 0.596629
v 0.494332 1.191298 -0.546576
v 0.494332 1.191298 0.596629
v -0.511848 1.191298 -0.546576
v -0.511848 1.191298 0.596629
v -0.703301 1.191298 -0.546576
v -0.703301 1.191298 0.596629
v -0.703301 1.117047 -0.546576
v -0.703301 1.117047 0.596629
v 0.685785 1.117047 -0.546576
v 0.685785 1.117047 0.596629
v 0.657067 -0.009572 -0.698214
v 0.523051 -0.009572 -0.698214
v -0.540566 -0.009572 -0.698214
v -0.674583 -0.009572 -0.698214
v -0.674583 -0.009572 0.748267
v -0.540566 -0.009572 0.748267
v 0.523051 -0.009572 0.748267
v 0.657067 -0.009572 0.748267
v -0.674583 -0.009572 0.623389
v -0.540566 -0.009572 0.623389
v 0.523051 -0.009572 0.623389
v 0.657067 -0.009572 0.623389
v -0.674583 -0.009572 -0.573336
v -0.540566 -0.009572 -0.573336
v 0.523051 -0.009572 -0.573336
v 0.657067 -0.009572 -0.573336
v 0.685785 1.117047 0.825864
v -0.703301 1.191298 0.825864
v -0.703301 1.117047 0.825864
v -0.511848 1.117047 0.825864
v 0.494332 1.117047 0.825864
v 0.685785 1.191298 0.825864
v 0.494332 1.191298 0.825864
v -0.511848 1.191298 0.825864
v 0.494332 1.101037 -0.724973
v -0.511848 1.101037 -0.724973
v -0.511848 1.101037 0.775027
v 0.494332 1.101037 0.775027
v -0.511848 1.056870 0.596629
v 0.494332 1.056870 0.596629
v -0.703301 1.101037 -0.546576
v -0.703301 1.101037 0.596629
v -0.511848 1.056870 -0.546576
v 0.494332 1.056870 -0.546576
v 0.685785 1.101037 -0.546576
v 0.685785 1.101037 0.596629
v -0.758758 2.553299 -1.039136
v -0.758758 2.553299 -1.107224
v 0.741242 2.553299 -1.107224
v 0.741242 2.553299 -1.039136
v 0.685785 2.553299 -1.107224
v 0.494332 2.553299 -1.107224
v -0.511848 2.553299 -1.107224
v -0.703301 2.553299 -1.107224
v -0.703301 2.553299 -1.039136
v -0.511848 2.553299 -1.039136
v 0.494332 2.553299 -1.039136
v 0.685785 2.553299 -1.039136
v -0.700965 1.099374 -0.722797
v 0.683315 1.099374 -0.722672
v 0.682783 1.099374 0.772229
v -0.700524 1.099374 0.772439
vn -1.0000 -0.0000 -0.0000
vn -0.0000 -0.0000 -1.0000
vn 1.0000 -0.0000 -0.0000
vn -0.0000 1.0000 -0.0000
vn -0.0000 -1.0000 -0.0000
vn -0.6585 0.7526 -0.0000
vn 0.6585 0.7526 -0.0000
vn -0.0000 -0.2248 -0.9744
vn 0.6710 -0.5011 -0.5465
vn -0.0000 0.2247 0.9744
vn -0.0000 0.2248 0.9744
vn -0.6710 -0.5011 -0.5465
vn -0.0000 -0.0000 1.0000
vn -0.6757 -0.0000 0.7371
vn 0.6757 -0.0000 0.7371
vn -0.0000 -0.9707 0.2403
vn -0.0000 -0.9707 -0.2403
vn -0.0033 -0.0246 0.9997
vn 0.9996 -0.0264 -0.0038
vn -0.0066 -0.0231 -0.9997
vn -0.9997 -0.0248 -0.0076
vn -0.9996 -0.0264 -0.0038
vn 0.0033 -0.0246 0.9997
vn 0.9997 -0.0247 -0.0081
vn 0.0070 -0.0231 -0.9997
vn 0.0086 -0.0228 0.9997
vn 0.9997 -0.0245 0.0099
vn 0.0033 -0.0246 -0.9997
vn -0.9996 -0.0264 0.0038
vn -0.0033 -0.0246 -0.9997
vn -0.9997 -0.0246 0.0091
vn -0.0079 -0.0229 0.9997
vn 0.9996 -0.0264 0.0038
vn -0.0054 -0.0649 -0.9979
vn -0.9976 -0.0696 -0.0062
vn -0.9965 -0.0827 0.0074
vn -0.0064 -0.0771 0.9970
vn 0.0070 -0.0834 0.9965
vn 0.9960 -0.0894 0.0080
vn 0.9973 -0.0736 -0.0066
vn 0.0057 -0.0686 -0.9976
vn 0.2248 -0.9744 -0.0000
vn -0.2248 -0.9744 -0.0000
vt 0.953538 0.363578
vt 0.943118 0.363578
vt 0.943118 0.338541
vt 0.953538 0.338541
vt 0.042873 0.977102
vt 0.031326 0.968477
vt 0.042873 0.968477
vt 0.953538 0.790148
vt 0.943118 0.790148
vt 0.943118 0.765112
vt 0.953538 0.765112
vt 0.783888 0.784934
vt 0.783888 0.755161
vt 0.791794 0.755161
vt 0.791794 0.784934
vt 0.350826 0.687421
vt 0.350856 0.696045
vt 0.323114 0.696142
vt 0.323083 0.687518
vt 0.756145 0.755161
vt 0.756145 0.746536
vt 0.783888 0.746536
vt 0.566938 0.686662
vt 0.556380 0.695324
vt 0.556350 0.686699
vt 0.031326 0.752458
vt 0.042873 0.743834
vt 0.042873 0.752458
vt 0.842953 0.543738
vt 0.841382 0.554079
vt 0.831826 0.554079
vt 0.833397 0.543738
vt 0.887042 0.352595
vt 0.877487 0.352595
vt 0.887042 0.342174
vt 0.833397 0.759365
vt 0.831827 0.749023
vt 0.841382 0.749023
vt 0.842953 0.759365
vt 0.267986 0.968477
vt 0.260242 0.977102
vt 0.260242 0.968477
vt 0.027895 0.981696
vt 0.260242 0.752458
vt 0.260242 0.743834
vt 0.267986 0.752458
vt 0.294170 0.970796
vt 0.301914 0.970796
vt 0.301914 0.979420
vt 0.260242 0.938704
vt 0.267986 0.938704
vt 0.260242 0.782231
vt 0.267986 0.782231
vt 0.294170 0.754777
vt 0.301914 0.746153
vt 0.301914 0.754777
vt 0.301914 0.784550
vt 0.294170 0.784550
vt 0.301914 0.941023
vt 0.294170 0.941023
vt 0.027895 0.739240
vt 0.841382 0.580948
vt 0.831826 0.580948
vt 0.841382 0.722155
vt 0.831827 0.722155
vt 0.887042 0.950508
vt 0.887042 0.960928
vt 0.877487 0.950508
vt 0.556246 0.656926
vt 0.566834 0.656889
vt 0.555696 0.500454
vt 0.566285 0.500417
vt 0.555592 0.470681
vt 0.566180 0.470644
vt 0.555561 0.462057
vt 0.042873 0.782231
vt 0.031326 0.782231
vt 0.042873 0.938704
vt 0.031326 0.938704
vt 0.756145 0.979804
vt 0.756145 0.971180
vt 0.783888 0.971180
vt 0.783888 0.979804
vt 0.756145 0.941407
vt 0.783888 0.941407
vt 0.756145 0.784934
vt 0.350038 0.462778
vt 0.350068 0.471403
vt 0.322325 0.471500
vt 0.322295 0.462876
vt 0.952038 0.276653
vt 0.817253 0.356131
vt 0.815988 0.353987
vt 0.950773 0.274508
vt 0.322979 0.657745
vt 0.315178 0.687546
vt 0.315073 0.657773
vt 0.791794 0.941407
vt 0.324873 0.412974
vt 0.157599 0.352758
vt 0.158443 0.350415
vt 0.325716 0.410631
vt 0.764863 0.378609
vt 0.593453 0.425780
vt 0.592792 0.423380
vt 0.764202 0.376209
vt 0.527849 0.470779
vt 0.527819 0.462154
vt 0.550620 0.784934
vt 0.550620 0.755161
vt 0.578363 0.755161
vt 0.578363 0.784934
vt 0.550620 0.941407
vt 0.578363 0.941407
vt 0.550620 0.971180
vt 0.578363 0.971180
vt 0.550620 0.979804
vt 0.578363 0.979804
vt 0.550620 0.746537
vt 0.578363 0.746537
vt 0.528638 0.695421
vt 0.528607 0.686797
vt 0.953538 0.975622
vt 0.943118 0.975622
vt 0.943118 0.950586
vt 0.953538 0.950586
vt 0.953538 0.549052
vt 0.943118 0.549052
vt 0.943118 0.524015
vt 0.953538 0.524015
vt 0.613364 0.196263
vt 0.596200 0.212037
vt 0.580397 0.197099
vt 0.597426 0.190222
vt 0.381882 0.142319
vt 0.398935 0.157656
vt 0.382538 0.164400
vt 0.365450 0.155946
vt 0.823766 0.141703
vt 0.806587 0.148202
vt 0.790789 0.141804
vt 0.808299 0.126417
vt 0.162494 0.200180
vt 0.179970 0.207808
vt 0.164213 0.222211
vt 0.146441 0.207713
vt 0.314420 0.471528
vt 0.953538 0.754554
vt 0.943118 0.754554
vt 0.943118 0.727686
vt 0.953538 0.727686
vt 0.943118 0.586478
vt 0.953538 0.586478
vt 0.943118 0.559610
vt 0.953538 0.559610
vt 0.322430 0.501273
vt 0.314524 0.501301
vt 0.791794 0.971180
vt 0.069901 0.501983
vt 0.069901 0.658456
vt 0.041320 0.658456
vt 0.041320 0.501983
vt 0.276264 0.501983
vt 0.276264 0.658456
vt 0.247683 0.658456
vt 0.247683 0.501983
vt 0.536980 0.431660
vt 0.380702 0.423857
vt 0.380826 0.421371
vt 0.537105 0.429174
vt 0.519283 0.941023
vt 0.519283 0.970796
vt 0.519283 0.784550
vt 0.519283 0.754777
vt 0.519283 0.746153
vt 0.519283 0.979420
vt 0.050474 0.347958
vt 0.023692 0.332241
vt 0.309450 0.325404
vt 0.285021 0.341112
vt 0.161144 0.032377
vt 0.190966 0.032585
vt 0.133335 0.033119
vt 0.935610 0.014650
vt 0.959081 0.031665
vt 0.661866 0.024475
vt 0.687689 0.007331
vt 0.804961 0.317379
vt 0.777226 0.316608
vt 0.834704 0.317219
vt 0.375798 0.332065
vt 0.346122 0.330446
vt 0.403515 0.332680
vt 0.501550 0.022193
vt 0.527545 0.039182
vt 0.241781 0.032245
vt 0.266939 0.017732
vt 0.744876 0.310684
vt 0.719441 0.328401
vt 0.595275 0.021054
vt 0.622976 0.021197
vt 0.565590 0.021867
vt 0.471411 0.326616
vt 0.447567 0.310128
vt 0.977695 0.261548
vt 0.975977 0.259346
vt 0.131488 0.343384
vt 0.132743 0.340889
vt 0.350964 0.422402
vt 0.351532 0.419649
vt 0.566715 0.433180
vt 0.566391 0.430377
vt 0.791618 0.371274
vt 0.790539 0.368693
vt 0.247683 0.689011
vt 0.069901 0.689011
vt 0.069901 0.471428
vt 0.247683 0.471428
s 1
usemtl standardSurface1
f 43/1/1 46/2/1 4/3/1 3/4/1
f 10/5/2 27/6/2 34/7/2
f 47/8/3 50/9/3 6/10/3 5/11/3
f 25/12/4 26/13/4 80/14/4 86/15/4
f 62/16/5 47/17/5 5/18/5 22/19/5
f 58/20/4 45/21/4 2/22/4 26/13/4
f 27/23/5 7/24/5 11/25/5
f 30/26/2 9/27/2 31/28/2
f 99/29/6 35/30/6 39/31/6 100/32/6
f 4/33/1 9/34/1 3/35/1
f 101/36/7 42/37/7 38/38/7 102/39/7
f 42/40/8 101/41/8 103/42/8
f 27/6/9 10/5/9 7/43/9
f 106/44/8 100/45/8 39/46/8
f 38/47/10 110/48/11 102/49/11
f 103/42/8 104/50/8 41/51/8 42/40/8
f 104/50/8 105/52/8 40/53/8 41/51/8
f 105/52/8 106/44/8 39/46/8 40/53/8
f 35/54/10 99/55/11 107/56/11
f 107/56/11 108/57/11 36/58/10 35/54/10
f 108/57/11 109/59/11 37/60/10 36/58/10
f 109/59/11 110/48/11 38/47/10 37/60/10
f 30/26/12 3/61/12 9/27/12
f 35/30/4 36/62/4 40/63/4 39/31/4
f 36/62/4 37/64/4 41/65/4 40/63/4
f 37/64/4 38/38/4 42/37/4 41/65/4
f 8/66/3 7/67/3 10/68/3
f 11/25/5 12/69/5 28/70/5 27/23/5
f 12/69/5 13/71/5 29/72/5 28/70/5
f 13/71/5 14/73/5 30/74/5 29/72/5
f 3/75/5 30/74/5 14/73/5
f 30/26/2 31/28/2 32/76/2 29/77/2
f 29/77/2 32/76/2 33/78/2 28/79/2
f 28/79/2 33/78/2 34/7/2 27/6/2
f 50/80/4 52/81/4 23/82/4 6/83/4
f 52/81/4 54/84/4 24/85/4 23/82/4
f 54/84/4 56/86/4 25/12/4 24/85/4
f 56/86/4 58/20/4 26/13/4 25/12/4
f 44/87/5 60/88/5 19/89/5 1/90/5
f 13/91/2 12/92/2 87/93/2 88/94/2
f 2/22/4 80/14/4 26/13/4
f 21/95/5 22/19/5 79/96/5 83/97/5
f 24/85/4 25/12/4 86/15/4 85/98/4
f 60/99/1 59/100/1 93/101/1 94/102/1
f 61/103/3 62/104/3 98/105/3 97/106/3
f 3/75/5 14/73/5 59/107/5 43/108/5
f 43/108/5 59/107/5 60/88/5 44/87/5
f 16/109/4 15/110/4 57/111/4 55/112/4
f 55/112/4 57/111/4 58/20/4 56/86/4
f 17/113/4 16/109/4 55/112/4 53/114/4
f 53/114/4 55/112/4 56/86/4 54/84/4
f 18/115/4 17/113/4 53/114/4 51/116/4
f 51/116/4 53/114/4 54/84/4 52/81/4
f 8/117/4 18/115/4 51/116/4 49/118/4
f 49/118/4 51/116/4 52/81/4 50/80/4
f 15/110/4 4/119/4 46/120/4 57/111/4
f 57/111/4 46/120/4 45/21/4 58/20/4
f 11/25/5 7/24/5 48/121/5 61/122/5
f 61/122/5 48/121/5 47/17/5 62/16/5
f 7/123/3 8/124/3 49/125/3 48/126/3
f 48/126/3 49/125/3 50/9/3 47/8/3
f 1/127/1 2/128/1 45/129/1 44/130/1
f 44/130/1 45/129/1 46/2/1 43/1/1
f 71/131/5 72/132/5 68/133/5 67/134/5
f 73/135/5 74/136/5 70/137/5 69/138/5
f 64/139/5 63/140/5 78/141/5 77/142/5
f 66/143/5 65/144/5 76/145/5 75/146/5
f 19/89/5 81/147/5 1/90/5
f 79/148/13 84/149/13 85/150/13 83/151/13
f 83/151/13 85/150/13 86/152/13 82/153/13
f 82/153/13 86/152/13 80/154/13 81/155/13
f 19/89/5 20/156/5 82/157/5 81/147/5
f 23/82/4 24/85/4 85/98/4 84/158/4
f 20/156/5 21/95/5 83/97/5 82/157/5
f 1/127/14 81/155/14 80/154/14 2/128/14
f 23/82/4 84/158/4 6/83/4
f 5/18/5 79/96/5 22/19/5
f 5/11/15 6/10/15 84/149/15 79/148/15
f 91/159/16 92/160/16 90/161/16 89/162/16
f 88/163/17 87/164/17 96/165/17 95/166/17
f 95/166/5 96/165/5 92/160/5 91/159/5
f 21/167/13 20/168/13 89/169/13 90/170/13
f 17/171/11 18/172/11 110/48/11 109/59/11
f 16/173/11 17/171/11 109/59/11 108/57/11
f 15/174/11 16/173/11 108/57/11 107/56/11
f 4/175/11 15/174/11 107/56/11 99/55/11
f 32/76/8 31/28/8 106/44/8 105/52/8
f 33/78/8 32/76/8 105/52/8 104/50/8
f 34/7/8 33/78/8 104/50/8 103/42/8
f 10/5/8 34/7/8 103/42/8 101/41/8
f 31/28/8 9/27/8 100/45/8 106/44/8
f 18/172/11 8/176/11 102/49/11 110/48/11
f 8/66/3 10/68/3 101/36/3 102/39/3
f 9/34/1 4/33/1 99/29/1 100/32/1
f 95/177/18 93/178/18 75/146/18 76/145/18
f 88/179/19 95/180/19 76/145/19 65/144/19
f 111/181/20 88/182/20 65/144/20 66/143/20
f 93/183/21 111/181/21 66/143/21 75/146/21
f 96/184/22 87/185/22 64/139/22 77/142/22
f 97/186/23 96/187/23 77/142/23 78/141/23
f 112/188/24 97/189/24 78/141/24 63/140/24
f 87/190/25 112/188/25 63/140/25 64/139/25
f 113/191/26 90/192/26 69/138/26 70/137/26
f 98/193/27 113/191/27 70/137/27 74/136/27
f 92/194/28 98/195/28 74/136/28 73/135/28
f 90/196/29 92/197/29 73/135/29 69/138/29
f 94/198/30 91/199/30 72/132/30 71/131/30
f 114/200/31 94/201/31 71/131/31 67/134/31
f 89/202/32 114/200/32 67/134/32 68/133/32
f 91/203/33 89/204/33 68/133/33 72/132/33
f 14/205/34 13/91/34 88/94/34 111/206/34
f 59/100/35 14/207/35 111/208/35 93/101/35
f 19/209/36 60/99/36 94/102/36 114/210/36
f 20/168/37 19/209/37 114/210/37 89/169/37
f 22/211/38 21/167/38 90/170/38 113/212/38
f 62/104/39 22/211/39 113/212/39 98/105/39
f 11/213/40 61/103/40 97/106/40 112/214/40
f 12/92/41 11/213/41 112/214/41 87/93/41
f 97/215/42 98/216/42 92/160/42 96/165/42
f 94/217/43 93/218/43 95/166/43 91/159/43
