# Blender 5.1.2
# www.blender.org
mtllib props_threek.mtl
o Cube.015
v -0.142137 0.002569 0.018757
v -0.142137 0.020679 0.018757
v -0.142137 0.002569 -0.018757
v -0.142137 0.020679 -0.018757
v 0.363642 0.002569 0.018757
v 0.363642 0.020679 0.018757
v 0.363642 0.002569 -0.018757
v 0.363642 0.020679 -0.018757
v -0.142137 0.002569 -0.006252
v -0.142137 0.002569 0.006252
v -0.142137 0.020679 0.006252
v -0.142137 0.020679 -0.006252
v 0.363642 0.002569 0.006252
v 0.363642 0.002569 -0.006252
v 0.363642 0.020679 -0.006252
v 0.363642 0.020679 0.006252
v -0.171219 0.002569 0.022926
v -0.171219 0.002569 0.042619
v -0.171219 0.020679 0.042619
v -0.171219 0.020679 0.022926
v -0.171598 0.002569 -0.009833
v -0.171598 0.002569 0.009860
v -0.171598 0.020679 0.009860
v -0.171598 0.020679 -0.009833
v -0.171451 0.020679 -0.022973
v -0.171451 0.020679 -0.042667
v -0.171451 0.002569 -0.042667
v -0.171451 0.002569 -0.022973
v -0.306255 0.002569 0.014549
v -0.306255 0.002569 0.027054
v -0.306255 0.020679 0.027054
v -0.306255 0.020679 0.014549
v -0.306633 0.002569 -0.006252
v -0.306633 0.002569 0.006252
v -0.306633 0.020679 0.006252
v -0.306633 0.020679 -0.006252
v -0.306487 0.020679 -0.014596
v -0.306487 0.020679 -0.027101
v -0.306487 0.002569 -0.027101
v -0.306487 0.002569 -0.014596
vn -0.4955 -0.0000 0.8686
vn -0.0000 -0.0000 -1.0000
vn 1.0000 -0.0000 -0.0000
vn -0.0000 -0.0000 1.0000
vn -0.0000 -1.0000 -0.0000
vn -0.0000 1.0000 -0.0000
vn 0.1206 -0.0000 -0.9927
vn -0.0267 -0.0000 0.9996
vn 0.6343 -0.0000 0.7731
vn -0.4974 -0.0000 -0.8675
vn 0.0619 -0.0000 -0.9981
vn 0.1216 -0.0000 0.9926
vn 0.6321 -0.0000 -0.7749
vn -1.0000 -0.0000 -0.0000
vn -0.1145 -0.0000 -0.9934
vn -0.0265 -0.0000 -0.9996
vn -0.1145 -0.0000 0.9934
vn 0.0619 -0.0000 0.9981
vt 0.090326 0.292489
vt 0.090326 0.285550
vt 0.096568 0.285550
vt 0.096568 0.292489
vt 0.156048 0.292489
vt 0.156048 0.285550
vt 0.249604 0.285550
vt 0.249604 0.292489
vt 0.254230 0.292489
vt 0.254230 0.285550
vt 0.256544 0.285550
vt 0.256543 0.292489
vt 0.350100 0.285550
vt 0.350100 0.292489
vt 0.073969 0.269206
vt 0.200229 0.269206
vt 0.200229 0.272327
vt 0.073969 0.272327
vt 0.200229 0.240992
vt 0.073969 0.240992
vt 0.073969 0.237871
vt 0.200229 0.237871
vt 0.200229 0.247236
vt 0.073969 0.247236
vt 0.073969 0.244114
vt 0.200229 0.244114
vt 0.073969 0.262962
vt 0.200229 0.262962
vt 0.200229 0.266084
vt 0.073969 0.266084
vt 0.251917 0.285550
vt 0.251917 0.292489
vt 0.066709 0.236830
vt 0.066709 0.231914
vt 0.084836 0.292489
vt 0.084836 0.285550
vt 0.032549 0.292489
vt 0.032549 0.285550
vt 0.057536 0.285550
vt 0.057536 0.292489
vt 0.357058 0.285550
vt 0.357058 0.292489
vt 0.415742 0.285550
vt 0.415742 0.292489
vt 0.409541 0.292489
vt 0.409541 0.285550
vt 0.066709 0.278284
vt 0.066709 0.273368
vt 0.384515 0.292489
vt 0.384515 0.285550
vt 0.066614 0.245008
vt 0.066614 0.240092
vt 0.027059 0.292489
vt 0.027059 0.285550
vt 0.066614 0.270106
vt 0.066614 0.265190
vt 0.066651 0.248288
vt 0.066651 0.253204
vt 0.032941 0.249319
vt 0.032941 0.246197
vt 0.149051 0.292489
vt 0.149051 0.285550
vt 0.066651 0.261910
vt 0.066651 0.256993
vt 0.382202 0.292489
vt 0.382202 0.285550
vt 0.059849 0.285550
vt 0.059849 0.292489
vt 0.121594 0.292489
vt 0.121594 0.285550
vt 0.123907 0.285550
vt 0.123907 0.292489
vt 0.032999 0.274398
vt 0.032999 0.271277
vt 0.032941 0.264001
vt 0.032941 0.260879
vt 0.032905 0.269205
vt 0.032905 0.266084
vt 0.032999 0.238921
vt 0.032999 0.235800
vt 0.032905 0.244114
vt 0.032905 0.240992
s 0
usemtl Utililities
f 9/1/1 12/2/1 25/3/1 28/4/1
f 3/5/2 4/6/2 8/7/2 7/8/2
f 13/9/3 16/10/3 6/11/3 5/12/3
f 5/12/4 6/11/4 2/13/4 1/14/4
f 10/15/5 13/16/5 5/17/5 1/18/5
f 16/19/6 11/20/6 2/21/6 6/22/6
f 8/23/6 4/24/6 12/25/6 15/26/6
f 15/26/6 12/25/6 11/20/6 16/19/6
f 3/27/5 7/28/5 14/29/5 9/30/5
f 9/30/5 14/29/5 13/16/5 10/15/5
f 7/8/3 8/7/3 15/31/3 14/32/3
f 14/32/3 15/31/3 16/10/3 13/9/3
f 2/21/6 11/20/6 20/33/6 19/34/6
f 12/2/7 9/1/7 21/35/7 24/36/7
f 22/37/8 23/38/8 35/39/8 34/40/8
f 1/14/9 2/13/9 19/41/9 18/42/9
f 11/43/10 10/44/10 17/45/10 20/46/10
f 10/15/5 1/18/5 18/47/5 17/48/5
f 20/46/11 17/45/11 29/49/11 32/50/11
f 11/20/6 12/25/6 24/51/6 23/52/6
f 10/53/12 11/54/12 23/38/12 22/37/12
f 9/30/5 10/15/5 22/55/5 21/56/5
f 25/57/6 26/58/6 38/59/6 37/60/6
f 4/6/13 3/5/13 27/61/13 26/62/13
f 3/27/5 9/30/5 28/63/5 27/64/5
f 12/25/6 4/24/6 26/58/6 25/57/6
f 30/65/14 31/66/14 32/50/14 29/49/14
f 34/40/14 35/39/14 36/67/14 33/68/14
f 40/69/14 37/70/14 38/71/14 39/72/14
f 26/62/15 27/61/15 39/72/15 38/71/15
f 17/48/5 18/47/5 30/73/5 29/74/5
f 24/36/16 21/35/16 33/68/16 36/67/16
f 27/64/5 28/63/5 40/75/5 39/76/5
f 18/42/17 19/41/17 31/66/17 30/65/17
f 21/56/5 22/55/5 34/77/5 33/78/5
f 28/4/18 25/3/18 37/70/18 40/69/18
f 19/34/6 20/33/6 32/79/6 31/80/6
f 23/52/6 24/51/6 36/81/6 35/82/6
