# Blender 5.1.2
# www.blender.org
mtllib props_spoon.mtl
o Cube.013
v 0.221336 0.037079 -0.032014
v 0.221336 0.000637 -0.032014
v 0.221336 0.037079 0.032014
v 0.221336 0.000637 0.032014
v -0.221336 0.037079 -0.018221
v -0.221336 0.000637 -0.018221
v -0.221336 0.037079 0.018221
v -0.221336 0.000637 0.018221
v 0.129539 0.037079 0.018221
v 0.129539 0.000637 0.018221
v 0.129539 0.037079 -0.018221
v 0.129539 0.000637 -0.018221
v -0.408197 0.000637 0.018221
v -0.408197 0.037079 0.018221
v -0.408197 0.037079 -0.018221
v -0.408197 0.000637 -0.018221
v -0.268052 0.000637 -0.080539
v -0.314767 0.000637 -0.080539
v -0.361482 0.000637 -0.080539
v -0.361482 0.000637 0.080539
v -0.314767 0.000637 0.080539
v -0.268052 0.000637 0.080539
v -0.361482 0.037079 0.080539
v -0.314767 0.037079 0.080539
v -0.268052 0.037079 0.080539
v -0.268052 0.037079 -0.080539
v -0.314767 0.037079 -0.080539
v -0.361482 0.037079 -0.080539
vn 1.0000 -0.0000 -0.0000
vn -0.0000 -0.0000 1.0000
vn -0.0000 -1.0000 -0.0000
vn -0.1486 -0.0000 -0.9889
vn -0.0000 1.0000 -0.0000
vn -0.0000 -0.0000 -1.0000
vn -0.1486 -0.0000 0.9889
vn -1.0000 -0.0000 -0.0000
vn -0.8001 -0.0000 0.5998
vn -0.8001 -0.0000 -0.5998
vn 0.8001 -0.0000 -0.5998
vn 0.8001 -0.0000 0.5998
vt 0.373768 0.134607
vt 0.319401 0.134607
vt 0.319401 0.165551
vt 0.373768 0.165551
vt 0.306047 0.134607
vt 0.281520 0.134607
vt 0.281520 0.165551
vt 0.306047 0.165551
vt 0.230702 0.062597
vt 0.247074 0.040756
vt 0.247074 0.027985
vt 0.230702 0.006145
vt 0.387122 0.134607
vt 0.387122 0.165551
vt 0.058444 0.104738
vt 0.058444 0.091967
vt 0.181412 0.091967
vt 0.181412 0.104738
vt 0.058618 0.040756
vt 0.058618 0.027985
vt 0.026446 0.023151
vt 0.026446 0.045590
vt 0.181586 0.040756
vt 0.181586 0.027985
vt 0.026272 0.109572
vt 0.026272 0.087133
vt 0.411649 0.134607
vt 0.411649 0.165551
vt 0.168956 0.134607
vt 0.138012 0.134607
vt 0.138012 0.165551
vt 0.168956 0.165551
vt 0.221973 0.134607
vt 0.221973 0.165551
vt 0.084996 0.165551
vt 0.084996 0.134607
vt 0.230528 0.070127
vt 0.246900 0.091967
vt 0.246900 0.104738
vt 0.230528 0.126579
vt 0.197784 0.070127
vt 0.197784 0.126579
vt 0.214156 0.070127
vt 0.214156 0.126579
vt 0.025448 0.165551
vt 0.078465 0.165551
vt 0.078465 0.134607
vt 0.025448 0.134607
vt 0.081730 0.165551
vt 0.081730 0.134607
vt 0.228503 0.134607
vt 0.228503 0.165551
vt 0.225238 0.134607
vt 0.225238 0.165551
vt 0.197958 0.062597
vt 0.197958 0.006145
vt 0.214330 0.062597
vt 0.214330 0.006145
s 0
usemtl Utililities
f 1/1/1 3/2/1 4/3/1 2/4/1
f 9/5/2 7/6/2 8/7/2 10/8/2
f 20/9/3 13/10/3 16/11/3 19/12/3
f 11/13/4 1/1/4 2/4/4 12/14/4
f 9/15/5 11/16/5 5/17/5 7/18/5
f 10/19/3 12/20/3 2/21/3 4/22/3
f 8/23/3 6/24/3 12/20/3 10/19/3
f 3/25/5 1/26/5 11/16/5 9/15/5
f 5/27/6 11/13/6 12/14/6 6/28/6
f 3/2/7 9/5/7 10/8/7 4/3/7
f 14/29/8 15/30/8 16/31/8 13/32/8
f 23/33/9 14/29/9 13/32/9 20/34/9
f 19/35/10 16/31/10 15/30/10 28/36/10
f 28/37/5 15/38/5 14/39/5 23/40/5
f 5/17/5 26/41/5 25/42/5 7/18/5
f 26/41/5 27/43/5 24/44/5 25/42/5
f 27/43/5 28/37/5 23/40/5 24/44/5
f 6/45/11 17/46/11 26/47/11 5/48/11
f 17/46/6 18/49/6 27/50/6 26/47/6
f 18/49/6 19/35/6 28/36/6 27/50/6
f 7/6/12 25/51/12 22/52/12 8/7/12
f 25/51/2 24/53/2 21/54/2 22/52/2
f 24/53/2 23/33/2 20/34/2 21/54/2
f 8/23/3 22/55/3 17/56/3 6/24/3
f 22/55/3 21/57/3 18/58/3 17/56/3
f 21/57/3 20/9/3 19/12/3 18/58/3
