# Blender 5.1.2
# www.blender.org
mtllib props_hammer.mtl
o Cube.016
v -0.169448 0.023033 -0.506041
v -0.169448 0.174541 -0.506041
v -0.210012 -0.017531 -0.738677
v -0.210012 0.215105 -0.738677
v 0.268722 -0.017531 -0.506041
v 0.268722 0.215105 -0.506041
v 0.268722 -0.017531 -0.738677
v 0.268722 0.215105 -0.738677
v -0.014657 -0.017531 -0.738677
v -0.014657 0.215105 -0.738677
v -0.055221 0.023033 -0.506041
v -0.055221 0.174541 -0.506041
v -0.210012 -0.017531 -0.506041
v -0.210012 0.215105 -0.506041
v -0.014657 0.215105 -0.506041
v -0.014657 -0.017531 -0.506041
v -0.169448 0.023033 0.669582
v -0.169448 0.174541 0.669582
v -0.055221 0.174541 0.669582
v -0.055221 0.023033 0.669582
vn -1.0000 -0.0000 -0.0000
vn -0.0000 -0.0000 -1.0000
vn 1.0000 -0.0000 -0.0000
vn -0.0000 -1.0000 -0.0000
vn -0.0000 1.0000 -0.0000
vn -0.0000 -0.0000 1.0000
vt 0.669069 0.499714
vt 0.669069 0.576069
vt 0.592714 0.576069
vt 0.592714 0.499714
vt 0.948280 0.764061
vt 0.871926 0.764061
vt 0.871926 0.671052
vt 0.948280 0.671052
vt 0.592714 0.809551
vt 0.592714 0.733196
vt 0.669069 0.733196
vt 0.669069 0.809551
vt 0.720770 0.499714
vt 0.770497 0.499714
vt 0.770497 0.885571
vt 0.720770 0.885571
vt 0.592714 0.902560
vt 0.669069 0.902560
vt 0.592714 0.640187
vt 0.669069 0.640187
vt 0.592714 0.966679
vt 0.669069 0.966679
vt 0.871926 0.499714
vt 0.948280 0.499714
vt 0.948280 0.592723
vt 0.871926 0.592723
vt 0.948280 0.828180
vt 0.871926 0.828180
vt 0.885239 0.643528
vt 0.934966 0.643528
vt 0.948280 0.656842
vt 0.871926 0.656842
vt 0.934966 0.606037
vt 0.885239 0.606037
vt 0.909416 0.842390
vt 0.909416 0.892117
vt 0.871926 0.892117
vt 0.871926 0.842390
vt 0.807988 0.499714
vt 0.807988 0.885571
vt 0.683279 0.499714
vt 0.683279 0.885571
vt 0.857715 0.499714
vt 0.857715 0.885571
s 0
f 13/1/1 14/2/1 4/3/1 3/4/1
f 9/5/2 10/6/2 8/7/2 7/8/2
f 7/9/3 8/10/3 6/11/3 5/12/3
f 11/13/3 12/14/3 19/15/3 20/16/3
f 9/17/4 7/9/4 5/12/4 16/18/4
f 10/19/5 4/3/5 14/2/5 15/20/5
f 8/10/5 10/19/5 15/20/5 6/11/5
f 3/21/4 9/17/4 16/18/4 13/22/4
f 5/23/6 6/24/6 15/25/6 16/26/6
f 3/27/2 4/28/2 10/6/2 9/5/2
f 1/29/6 2/30/6 14/31/6 13/32/6
f 2/30/6 12/33/6 15/25/6 14/31/6
f 11/34/6 1/29/6 13/32/6 16/26/6
f 12/33/6 11/34/6 16/26/6 15/25/6
f 20/35/6 19/36/6 18/37/6 17/38/6
f 12/14/5 2/39/5 18/40/5 19/15/5
f 1/41/4 11/13/4 20/16/4 17/42/4
f 2/39/1 1/43/1 17/44/1 18/40/1
