# Blender 4.5.0
# www.blender.org
mtllib Floor2.mtl
o Floor2
v 4.880363 13.228350 57.874599
v 4.880363 13.228350 57.431667
v 5.410238 13.228350 57.874599
v 5.410238 13.228350 57.431667
v 5.410238 13.228350 59.890724
v 4.880363 13.228350 59.890724
v 4.880363 13.228350 59.514015
v 5.410238 13.228350 59.514015
v 25.058495 13.228350 59.514015
v 25.058495 13.228350 59.890724
v 25.435205 13.228350 59.890724
v 25.435205 13.228350 59.514015
v 25.058495 13.228350 48.077827
v 25.435205 13.228350 48.077827
v 25.058495 13.228350 47.562485
v 25.435205 13.228350 47.562485
v 27.496572 13.228350 48.077827
v 27.496572 13.228350 47.562485
v 27.903421 13.228350 48.077827
v 27.903421 13.228350 47.562485
v 27.496902 13.228350 41.538815
v 27.903421 13.228350 41.538815
v 27.496902 13.228350 41.023472
v 27.903421 13.228350 41.023472
v 27.496572 13.228350 25.701141
v 27.903421 13.228350 25.701141
v 27.496572 13.228350 25.294292
v 27.903421 13.228350 25.294292
v 9.308628 13.076680 41.079445
v 15.553041 18.733536 41.077766
v 15.555286 13.077984 41.079445
v 15.555286 13.078130 41.573532
v 15.553041 18.733685 41.571854
v 12.273144 13.076826 41.573532
v 12.764984 18.732576 41.571854
v 12.767231 13.077023 41.573532
v 12.270899 18.732380 41.571854
v -12.592564 13.228350 57.874599
v -12.592564 13.228350 57.431667
v -13.067221 13.228350 57.874599
v -13.067221 13.228350 57.431667
v -29.205555 13.228350 57.874599
v -29.205555 13.228350 57.431667
v -29.725418 13.228350 57.874599
v -29.725418 13.228350 57.431667
v -12.592564 13.228350 56.278931
v -13.067221 13.228350 56.278931
v -29.205555 13.228350 41.700180
v -29.725418 13.228350 41.700180
v -29.205555 13.228350 41.270729
v -29.725418 13.228350 41.270729
v -21.707615 13.228350 41.700180
v -21.707615 13.228350 41.270729
v -33.703491 13.228350 41.700180
v -33.703491 13.228350 41.270729
v -34.155544 13.228350 41.700180
v -34.155544 13.228350 41.270729
v -14.578100 13.228350 41.700180
v -14.578100 13.228350 41.270729
v -13.089825 13.228350 41.700180
v -13.089825 13.228350 41.270729
v -12.637772 13.228350 41.700180
v -12.637772 13.228350 41.270729
v -8.501476 13.228350 41.700180
v -8.501476 13.228350 41.270729
v -13.089825 13.228350 50.763866
v -12.637772 13.228350 50.763866
v -13.089825 13.228350 40.502235
v -12.637772 13.228350 40.502235
v 0.478225 13.074951 25.509731
v 0.478225 13.074951 25.820934
v 0.117209 13.074951 25.509731
v 0.117209 13.074951 25.820934
v 0.478225 13.074951 34.236641
v 0.117209 13.074951 34.236641
v 0.478225 13.074951 34.597656
v 0.117209 13.074951 34.597656
v 12.273146 13.074951 34.236641
v 12.273146 13.074951 34.597656
v 0.478225 13.074951 20.125893
v 0.117209 13.074951 20.125893
v 0.478225 13.074951 19.874752
v 0.117209 13.074951 19.874752
v -12.738081 13.074951 20.125893
v -12.738081 13.074951 19.874752
v -13.020615 13.074951 20.125893
v -13.020615 13.074951 19.874752
v -12.738081 13.074951 21.161850
v -13.020615 13.074951 21.161850
v -12.738081 13.074951 21.522865
v -13.020615 13.074951 21.522865
v -12.738081 13.074951 35.739967
v -13.020615 13.074951 35.739967
v -33.743473 13.228350 37.932114
v -34.195526 13.228350 37.932114
v -33.992702 13.074951 21.191465
v -33.785152 13.074951 21.516432
v 4.878118 18.883902 57.872921
v 4.878118 18.883902 57.429989
v 5.407993 18.883902 57.429989
v 5.407993 18.883902 57.872921
v 5.407993 18.883902 59.889046
v 4.878118 18.883902 59.889046
v 5.407993 18.883902 59.512337
v 4.878118 18.883902 59.512337
v 25.056250 18.883902 59.889046
v 25.056250 18.883902 59.512337
v 25.432961 18.883902 59.889046
v 25.432961 18.883902 59.512337
v 25.056250 18.883902 48.076149
v 25.432961 18.883902 48.076149
v 25.056250 18.883902 47.560806
v 25.432961 18.883902 47.560806
v 27.494328 18.883902 47.560806
v 27.494328 18.883902 48.076149
v 27.901176 18.883902 47.560806
v 27.901176 18.883902 48.076149
v 27.493998 18.883902 41.537136
v 27.901176 18.883902 41.537136
v 27.493998 18.883902 41.021793
v 27.901176 18.883902 41.021793
v 27.494328 18.883902 25.699463
v 27.901176 18.883902 25.699463
v 27.494328 18.883902 25.292614
v 27.901176 18.883902 25.292614
v 9.306383 18.732233 41.077766
v 9.306383 18.732380 41.571854
v 9.308628 13.076826 41.573532
v 12.270899 18.732233 41.077766
v 12.767231 13.076876 41.079445
v 12.764984 18.732430 41.077766
v 12.273144 13.076680 41.079445
v 12.764986 18.730701 34.595978
v 12.764986 18.730701 34.234962
v 12.767231 13.075148 34.597656
v 12.767231 13.075148 34.236641
v -12.594809 18.883902 57.872921
v -12.594809 18.883902 57.429989
v -13.069466 18.883902 57.872921
v -13.069466 18.883902 57.429989
v -29.207800 18.883902 57.872921
v -29.207800 18.883902 57.429989
v -29.727663 18.883902 57.872921
v -29.727663 18.883902 57.429989
v -13.069466 18.883902 56.277252
v -12.594809 18.883902 56.277252
v -29.207800 18.883902 41.698502
v -29.727663 18.883902 41.698502
v -29.207800 18.883902 41.269051
v -29.727663 18.883902 41.269051
v -21.709860 18.883902 41.269051
v -21.709860 18.883902 41.698502
v -33.705738 18.883902 41.698502
v -33.705738 18.883902 41.269051
v -34.157791 18.883902 41.698502
v -34.157791 18.883902 41.269051
v -14.580345 18.883902 41.269051
v -14.580345 18.883902 41.698502
v -13.092070 18.883902 41.269051
v -13.092070 18.883902 41.698502
v -12.640017 18.883902 41.269051
v -12.640017 18.883902 41.698502
v -8.503721 18.883902 41.269051
v -8.503721 18.883902 41.698502
v -12.640017 18.883902 50.762188
v -13.092070 18.883902 50.762188
v -12.640017 18.883902 40.500557
v -13.092070 18.883902 40.500557
v 0.475979 18.730505 25.508053
v 0.475979 18.730505 25.819256
v 0.114964 18.730505 25.508053
v 0.114964 18.730505 25.819256
v 0.475979 18.730505 34.234962
v 0.114964 18.730505 34.234962
v 0.475979 18.730505 34.595978
v 0.114964 18.730505 34.595978
v 12.270899 18.730505 34.234962
v 12.270899 18.730505 34.595978
v 0.475979 18.730505 20.124214
v 0.114964 18.730505 20.124214
v 0.475979 18.730505 19.873074
v 0.114964 18.730505 19.873074
v -12.740326 18.730505 19.873074
v -12.740326 18.730505 20.124214
v -13.022860 18.730505 19.873074
v -13.022860 18.730505 20.124214
v -13.022860 18.730505 21.160172
v -12.740326 18.730505 21.160172
v -13.022860 18.730505 21.521187
v -12.740326 18.730505 21.521187
v -13.022860 18.730505 35.738289
v -12.740326 18.730505 35.738289
v -33.745720 18.883902 37.930435
v -34.197773 18.883902 37.930435
v -33.787399 18.730505 21.514753
v -33.994949 18.730505 21.189787
v 23.676878 13.228350 41.538815
v 23.676878 13.228350 41.023472
v 23.673973 18.883902 41.537136
v 23.673973 18.883902 41.021793
v 6.686742 13.074951 34.236641
v 9.560835 13.074951 34.236641
v 6.686742 13.074951 34.597656
v 9.560835 13.074951 34.597656
v 6.683307 18.730505 34.234962
v 9.557398 18.730505 34.234962
v 6.683307 18.730505 34.595978
v 9.557398 18.730505 34.595978
v 4.782787 13.223491 41.646282
v 5.312663 13.223491 41.646282
v 4.780541 18.879044 41.644604
v 5.310417 18.879044 41.644604
v 4.782787 13.223302 41.011028
v 5.312663 13.223302 41.011028
v 4.780541 18.878853 41.009350
v 5.310417 18.878853 41.009350
v 6.933843 18.879688 41.644604
v 6.936089 13.224135 41.646282
v 6.933843 18.879498 41.009350
v 6.936089 13.223947 41.011028
v 3.159361 13.222846 41.646282
v 3.157116 18.878399 41.644604
v 3.159361 13.222658 41.011028
v 3.157116 18.878208 41.009350
v 4.878118 18.882282 56.393372
v 4.780541 18.880663 50.719841
v 4.782787 13.225110 50.721519
v 4.880363 13.226730 56.395050
v 5.410238 13.226729 56.395050
v 5.312663 13.225110 50.721519
v 5.310417 18.880661 50.719841
v 5.407993 18.882282 56.393372
v -12.637772 13.228350 45.681427
v -13.089825 13.228350 45.681427
v -12.640017 18.883902 45.679749
v -13.092070 18.883902 45.679749
v -12.637772 13.228350 46.123253
v -12.640017 18.883902 46.121574
v -13.089825 13.228350 46.123253
v -13.092070 18.883902 46.121574
v 4.780541 18.879852 46.121574
v 5.312663 13.224300 46.123253
v 4.782787 13.224300 46.123253
v 5.310417 18.879852 46.121574
v 4.780541 18.879761 45.668530
v 5.312663 13.224209 45.670208
v 4.782787 13.224209 45.670208
v 5.310417 18.879761 45.668530
vn -1.0000 -0.0004 -0.0000
vn 1.0000 0.0004 -0.0000
vn -0.0000 0.0003 1.0000
vn 1.0000 0.0004 -0.0025
vn -0.0000 -0.0003 -1.0000
vn 0.9999 0.0004 -0.0120
vn -0.9999 -0.0004 0.0120
vn -1.0000 -0.0005 -0.0000
vn -0.0014 -0.0003 -1.0000
vn -0.0003 0.0003 1.0000
vn -0.9999 -0.0004 -0.0121
vn 0.0044 0.0003 1.0000
vn -1.0000 -0.0006 -0.0000
vn 1.0000 0.0006 -0.0000
vn -0.0080 -0.0003 -1.0000
vn -0.0006 -0.0003 -1.0000
vt 0.156917 0.426711
vt 0.154207 0.423160
vt 0.823638 0.521834
vt 0.821975 0.524577
vt 0.190631 0.529672
vt 0.195061 0.529502
vt 0.607153 0.287168
vt 0.930877 0.268350
vt 0.210659 0.548142
vt 0.000000 0.000000
vt 0.192547 0.531879
vt 0.928169 0.273377
vt 0.606822 0.291925
vt 0.598437 0.292409
vt 0.598708 0.287659
vt 0.544824 0.608442
vt 0.544863 0.609298
vt 0.196955 0.531710
vt 0.160556 0.422854
vt 0.361342 0.413175
vt 0.541909 0.609388
vt 0.362695 0.416860
vt 0.163225 0.426409
vt 0.234202 0.527997
vt 0.206417 0.548297
vt 0.403246 0.527920
vt 0.401760 0.523880
vt 0.856101 0.468297
vt 0.235899 0.530221
vt 0.406336 0.523705
vt 0.407780 0.527748
vt 0.819349 0.521993
vt 0.851270 0.468498
vt 0.543944 0.589018
vt 0.367358 0.412886
vt 0.541863 0.608532
vt 0.540818 0.589119
vt 0.557420 0.553308
vt 0.391230 0.495245
vt 0.380790 0.466854
vt 0.391230 0.495245
vt 0.258371 0.529362
vt 0.241008 0.530026
vt 0.415301 0.549954
vt 0.435706 0.606955
vt 0.853362 0.464992
vt 0.858229 0.464788
vt 0.433401 0.607026
vt 0.412623 0.550050
vt 0.239337 0.527800
vt 0.256788 0.527129
vt 0.592175 0.402049
vt 0.396927 0.497349
vt 0.405518 0.521413
vt 0.396927 0.497349
vt 0.385961 0.466630
vt 0.552397 0.553484
vt 0.599169 0.401711
vt 0.547428 0.555308
vt 0.542425 0.555483
vt 0.557432 0.554957
vt 0.448381 0.522098
vt 0.937233 0.267980
vt 0.934476 0.273014
vt 0.540754 0.587930
vt 0.308310 0.527453
vt 0.306983 0.525200
vt 0.437406 0.611703
vt 0.783650 0.581819
vt 0.817713 0.524734
vt 0.437707 0.612544
vt 0.372005 0.425943
vt 0.366132 0.426219
vt 0.787336 0.581701
vt 0.435438 0.612612
vt 0.435132 0.611773
vt 0.400918 0.521589
vt 0.368671 0.416574
vt 0.828762 0.466019
vt 0.786358 0.583314
vt 0.782688 0.583431
vt 0.824278 0.466207
vt 0.539013 0.555602
vt 0.543890 0.587829
vt 0.826850 0.469511
vt 0.822398 0.469695
vt 0.265809 0.613318
vt 0.433853 0.608265
vt 0.538925 0.553958
vt 0.542351 0.553837
vt 0.436150 0.608195
vt 0.598901 0.405553
vt 0.447783 0.519788
vt 0.552430 0.555132
vt 0.552430 0.555132
vt 0.547374 0.553661
vt 0.598901 0.405553
vt 0.598901 0.405553
vt 0.598902 0.405553
vt 0.396105 0.495045
vt 0.396105 0.495045
vt 0.392076 0.497547
vt 0.392076 0.497547
s 0
f 45/1/1 44/2/1 143/2/1 144/1/1
f 22/3/2 24/4/2 121/4/2 119/3/2
f 56/5/3 54/6/3 153/6/3 155/5/3
f 5/7/3 10/8/3 106/8/3 102/7/3
f 94/9/4 97/10/4 195/10/4 193/9/4
f 57/11/1 56/5/1 155/5/1 156/11/1
f 9/12/5 8/13/5 104/13/5 107/12/5
f 7/14/1 6/15/1 103/15/1 105/14/1
f 80/16/2 82/17/2 181/17/2 179/16/2
f 55/18/6 94/9/6 193/9/6 154/18/6
f 42/19/3 40/20/3 139/20/3 141/19/3
f 82/17/5 83/21/5 182/21/5 181/17/5
f 41/22/5 43/23/5 142/23/5 140/22/5
f 54/6/3 49/24/3 148/24/3 153/6/3
f 95/25/7 57/11/7 156/11/7 194/25/7
f 68/26/1 61/27/1 159/27/1 168/26/1
f 20/28/2 22/3/2 119/3/2 116/28/2
f 51/29/5 55/18/5 154/18/5 150/29/5
f 63/30/2 69/31/2 167/31/2 161/30/2
f 69/31/5 68/26/5 168/26/5 167/31/5
f 21/32/8 18/33/8 114/33/8 118/32/8
f 70/34/2 80/16/2 179/16/2 169/34/2
f 40/20/3 38/35/3 137/35/3 139/20/3
f 81/36/1 72/37/1 171/37/1 180/36/1
f 34/38/3 37/38/3 127/38/3 128/38/3
f 239/39/1 66/40/1 166/40/1 240/41/1
f 53/42/5 50/43/5 149/43/5 151/42/5
f 92/44/2 90/45/2 190/45/2 192/44/2
f 17/46/3 19/47/3 117/47/3 115/46/3
f 91/48/1 93/49/1 191/49/1 189/48/1
f 48/50/3 52/51/3 152/51/3 147/50/3
f 1/52/1 7/14/1 105/14/1 98/52/1
f 93/49/3 92/44/3 192/44/3 191/49/3
f 233/53/2 62/54/2 162/54/2 235/55/2
f 66/40/3 67/56/3 165/56/3 166/40/3
f 204/57/3 79/38/3 178/38/3 208/57/3
f 52/51/2 53/42/2 151/42/2 152/51/2
f 8/13/2 3/58/2 101/58/2 104/13/2
f 19/47/2 20/28/2 116/28/2 117/47/2
f 135/38/2 133/38/2 131/38/2 130/38/2
f 201/59/5 74/60/5 173/60/5 205/59/5
f 135/38/2 136/61/2 134/61/2 133/38/2
f 129/38/5 132/38/5 29/38/5 126/38/5
f 65/62/5 63/30/5 161/30/5 163/62/5
f 35/38/3 36/38/3 32/38/3 33/38/3
f 130/38/5 131/38/5 30/38/5 31/38/5
f 178/38/1 79/38/1 132/38/1 129/38/1
f 37/38/3 34/38/3 36/38/3 35/38/3
f 11/63/2 12/64/2 109/64/2 108/63/2
f 44/2/3 42/19/3 141/19/3 143/2/3
f 10/8/3 11/63/3 108/63/3 106/8/3
f 72/37/1 73/65/1 172/65/1 171/37/1
f 59/66/1 58/67/1 158/67/1 157/66/1
f 84/68/3 81/36/3 180/36/3 184/68/3
f 25/69/8 23/70/8 120/70/8 122/69/8
f 83/21/5 85/71/5 183/71/5 182/21/5
f 31/38/2 30/38/2 33/38/2 32/38/2
f 46/72/5 47/73/5 145/73/5 146/72/5
f 24/4/2 26/74/2 123/74/2 121/4/2
f 126/38/1 29/38/1 128/38/1 127/38/1
f 87/75/1 86/76/1 186/76/1 185/75/1
f 58/67/3 60/77/3 160/77/3 158/67/3
f 39/78/2 46/72/2 146/72/2 138/78/2
f 12/64/2 14/79/2 111/79/2 109/64/2
f 61/27/5 59/66/5 157/66/5 159/27/5
f 28/80/5 27/81/5 124/81/5 125/80/5
f 13/82/1 9/12/1 107/12/1 110/82/1
f 47/73/1 41/22/1 140/22/1 145/73/1
f 85/71/5 87/75/5 185/75/5 183/71/5
f 73/65/1 75/83/1 174/83/1 172/65/1
f 26/74/2 28/80/2 125/80/2 123/74/2
f 74/60/2 71/84/2 170/84/2 173/60/2
f 16/85/5 15/86/5 112/86/5 113/85/5
f 49/24/1 45/1/1 144/1/1 148/24/1
f 196/87/9 187/88/9 89/88/9 96/87/9
f 91/48/10 189/48/10 195/10/10 97/10/10
f 43/23/2 48/50/2 147/50/2 142/23/2
f 78/61/5 177/61/5 134/61/5 136/61/5
f 86/76/1 89/88/1 187/88/1 186/76/1
f 77/89/3 76/90/3 175/90/3 176/89/3
f 39/78/5 138/78/5 99/10/5 2/10/5
f 88/91/2 84/68/2 184/68/2 188/91/2
f 50/43/5 51/29/5 150/29/5 149/43/5
f 3/58/2 4/92/2 100/92/2 101/58/2
f 64/93/2 65/62/2 163/62/2 164/93/2
f 75/83/1 77/89/1 176/89/1 174/83/1
f 14/79/3 17/46/3 115/46/3 111/79/3
f 194/25/11 196/87/11 96/87/11 95/25/11
f 18/33/5 16/85/5 113/85/5 114/33/5
f 190/45/2 90/45/2 88/91/2 188/91/2
f 62/54/3 64/93/3 164/93/3 162/54/3
f 6/15/3 5/7/3 102/7/3 103/15/3
f 1/52/3 98/52/3 137/35/3 38/35/3
f 120/70/5 23/70/5 198/70/5 200/70/5
f 21/32/3 118/32/3 199/32/3 197/32/3
f 78/61/5 202/94/5 206/95/5 177/61/5
f 76/90/3 203/96/3 207/96/3 175/90/3
f 247/10/1 245/10/1 211/10/1 209/10/1
f 25/69/12 122/69/12 170/84/12 71/84/12
f 209/10/3 211/10/3 222/10/3 221/10/3
f 248/92/2 246/97/2 210/92/2 212/92/2
f 215/10/5 216/92/5 214/92/5 213/10/5
f 217/92/2 218/92/2 220/92/2 219/92/2
f 214/92/5 216/92/5 219/92/5 220/92/5
f 212/92/3 210/92/3 218/92/3 217/92/3
f 221/10/1 222/10/1 224/10/1 223/10/1
f 215/10/5 213/10/5 223/10/5 224/10/5
f 208/57/13 206/95/13 202/94/13 204/57/13
f 207/96/14 203/96/14 201/59/14 205/59/14
f 100/92/2 4/92/2 229/98/2 232/98/2
f 227/10/3 230/98/3 231/99/3 226/10/3
f 2/10/1 99/10/1 225/10/1 228/10/1
f 228/10/5 225/10/5 232/98/5 229/98/5
f 237/100/2 233/53/2 235/55/2 238/101/2
f 60/77/1 234/102/1 236/103/1 160/77/1
f 67/56/2 237/100/2 238/101/2 165/56/2
f 234/102/1 239/39/1 240/41/1 236/103/1
f 231/99/2 230/98/2 242/97/2 244/92/2
f 227/10/1 226/10/1 241/10/1 243/10/1
f 169/34/15 124/81/15 27/81/15 70/34/15
f 244/92/2 242/97/2 246/97/2 248/92/2
f 243/10/1 241/10/1 245/10/1 247/10/1
f 235/55/16 245/10/16 247/10/16 233/53/16
f 238/101/3 237/100/3 243/10/3 241/10/3
f 112/86/1 15/86/1 13/82/1 110/82/1
f 197/32/8 199/32/8 200/70/8 198/70/8
