# Blender 4.5.0
# www.blender.org
mtllib Ground.mtl
o Ground
v 5.024747 6.121023 68.455193
v 25.198086 6.121023 68.455193
v 5.024747 6.121023 47.456825
v 25.198086 6.121023 47.456821
v 27.515369 6.121023 47.456821
v 5.024747 6.121023 38.168415
v 27.515369 6.121023 38.168415
v -12.903149 6.121023 57.763924
v 5.024747 6.121023 57.763924
v -12.903149 6.121023 41.191086
v 5.024747 6.121023 41.191086
v -29.661728 6.121023 57.763924
v 0.223890 6.121023 33.781906
v 8.427854 6.121023 33.781906
v 0.223890 6.121023 25.757637
v 8.427854 6.121023 25.757639
v 0.223890 6.121023 41.191086
v -12.903149 6.121023 19.960428
v 0.223890 6.121023 19.960428
v 0.223890 6.121023 38.168415
v 8.427854 6.121023 38.168415
v -33.751423 6.121023 41.191086
v -33.754269 6.121023 21.138212
v -12.903149 6.121023 21.138212
v -33.754269 6.121023 38.168415
v -37.199852 6.121023 33.781906
v 27.515369 6.121023 25.757637
v 21.146694 6.121023 22.756296
v 11.707520 6.121023 22.756296
v -12.903149 6.121023 47.456821
v -29.661724 6.121023 47.456825
v 25.198086 6.121023 57.763924
v 27.515369 6.121023 41.191086
v -12.903149 6.121023 38.168415
v 5.024747 6.121023 33.781906
v 5.024747 6.121023 25.757639
v 8.427854 6.121023 47.456825
v 8.427854 6.121023 41.191086
v 8.427854 6.121023 68.455185
v 8.427854 6.121023 57.763924
v -29.579315 6.121023 21.138212
v -29.579315 6.121023 41.191086
v -29.579315 6.121023 38.168415
v 0.223890 6.121023 21.138212
v 0.223890 6.121023 57.763924
v 25.198086 6.121023 38.168415
v 25.198086 6.121023 25.757641
v 25.198086 6.121023 41.191086
v -12.903149 6.121023 33.781906
v 27.515369 6.121023 33.781906
v 25.198086 6.121023 33.781906
v -33.754269 6.121023 33.781906
v -29.579315 6.121023 33.781906
v 0.223890 6.121023 47.456821
v 11.707520 6.121023 68.455185
v -29.579315 6.121023 25.757637
v 11.707520 6.121023 25.757637
v 11.707520 6.121023 41.191086
v 11.707520 6.121023 57.763924
v 11.707520 6.121023 47.456825
v 11.707520 6.121023 38.168415
v 11.707520 6.121023 33.781906
v 21.146694 6.121023 68.455185
v 21.146694 6.121023 38.168415
v -12.903149 6.121023 25.757637
v 21.146694 6.121023 25.757637
v 21.146694 6.121023 41.191086
v 21.146694 6.121023 57.763924
v 21.146694 6.121023 47.456825
v 21.146694 6.121023 33.781906
v -33.754269 6.121023 25.757637
v -37.199852 6.121023 25.757637
vn -0.0000 1.0000 -0.0000
vt 0.874382 0.508815
vt 1.000000 0.508815
vt 1.000000 1.000000
vt 0.874382 1.000000
vt 0.876045 0.681244
vt 1.000000 0.681244
vt 0.876045 1.000000
vt 0.734127 0.623529
vt 1.000000 0.623529
vt 0.734127 1.000000
vt 0.000000 0.623529
vt 1.000000 0.623529
vt 0.000000 1.000000
vt 0.580813 0.000000
vt 1.000000 0.000000
vt 0.580812 1.000000
vt 0.000000 0.944520
vt 1.000000 0.944520
vt 0.580812 0.000000
vt 0.000000 0.000000
vt 0.200000 0.836290
vt 1.000000 0.836290
vt 0.200000 1.000000
vt 0.854037 0.349642
vt 1.000000 0.349642
vt 0.854037 1.000000
vt 0.734127 0.000000
vt 0.874382 0.000000
vt 0.876045 0.000000
vt 0.200000 0.000000
vt 1.000000 0.159314
vt 0.200000 0.159314
vt 1.000000 0.151163
vt 0.000000 0.151163
vt 0.150775 0.000000
vt 0.150775 0.681244
vt 0.000000 0.681244
vt 0.150775 1.000000
vt 0.168639 0.000000
vt 0.168639 0.508815
vt 0.000000 0.508815
vt 0.168639 1.000000
vt 0.000000 0.159314
vt 0.000000 0.836290
vt 0.000000 0.790286
vt 1.000000 0.790286
vt 0.766457 0.000000
vt 0.766457 0.681244
vt 0.724993 0.349642
vt 0.724993 1.000000
vt 0.766457 1.000000
vt 1.000000 0.357952
vt 0.000000 0.357952
vt 0.724993 0.000000
vt 0.854037 0.000000
vt 0.200000 0.377394
vt 0.000000 0.377394
vt 1.000000 0.377394
vt 0.427019 0.000000
vt 0.427019 0.349642
vt 0.000000 0.349642
vt 0.513410 0.681244
vt 0.513410 1.000000
vt 0.427019 1.000000
vt 0.513410 0.000000
vt 0.584319 0.000000
vt 0.584320 0.508815
vt 0.584320 1.000000
s 0
f 68/1/1 32/2/1 4/3/1 69/4/1
f 48/5/1 33/6/1 7/3/1 46/7/1
f 54/8/1 3/9/1 11/3/1 17/10/1
f 31/11/1 30/12/1 10/3/1 42/13/1
f 35/14/1 14/15/1 16/3/1 36/16/1
f 24/17/1 44/18/1 19/3/1 18/13/1
f 6/19/1 21/15/1 14/3/1 35/16/1
f 17/20/1 11/15/1 6/3/1 20/13/1
f 56/21/1 65/22/1 24/3/1 41/23/1
f 72/20/1 71/20/1 23/20/1
f 51/24/1 50/25/1 27/3/1 47/26/1
f 29/20/1 16/20/1 57/20/1
f 12/20/1 8/15/1 30/12/1 31/11/1
f 45/27/1 9/15/1 3/9/1 54/8/1
f 63/28/1 2/15/1 32/2/1 68/1/1
f 4/29/1 5/15/1 33/6/1 48/5/1
f 42/30/1 10/15/1 34/31/1 43/32/1
f 10/20/1 17/15/1 20/33/1 34/34/1
f 20/20/1 6/19/1 35/16/1 13/13/1
f 13/20/1 35/14/1 36/16/1 15/13/1
f 3/20/1 37/35/1 38/36/1 11/37/1
f 11/37/1 38/36/1 21/38/1 6/13/1
f 1/20/1 39/39/1 40/40/1 9/41/1
f 9/41/1 40/40/1 37/42/1 3/13/1
f 22/20/1 42/30/1 43/32/1 25/43/1
f 71/44/1 56/21/1 41/23/1 23/13/1
f 65/45/1 15/46/1 44/18/1 24/17/1
f 69/47/1 4/29/1 48/5/1 67/48/1
f 70/49/1 51/24/1 47/26/1 66/50/1
f 67/48/1 48/5/1 46/7/1 64/51/1
f 34/34/1 20/33/1 13/52/1 49/53/1
f 64/54/1 46/55/1 51/24/1 70/49/1
f 46/55/1 7/15/1 50/25/1 51/24/1
f 25/43/1 43/32/1 53/56/1 52/57/1
f 43/32/1 34/31/1 49/58/1 53/56/1
f 26/20/1 25/20/1 52/20/1
f 8/20/1 45/27/1 54/8/1 30/11/1
f 30/11/1 54/8/1 17/10/1 10/13/1
f 21/20/1 61/59/1 62/60/1 14/61/1
f 38/36/1 58/62/1 61/63/1 21/38/1
f 14/61/1 62/60/1 57/64/1 16/13/1
f 37/35/1 60/65/1 58/62/1 38/36/1
f 39/39/1 55/66/1 59/67/1 40/40/1
f 28/20/1 29/20/1 57/20/1 66/20/1
f 40/40/1 59/67/1 60/68/1 37/42/1
f 28/20/1 66/20/1 47/20/1
f 61/59/1 64/54/1 70/49/1 62/60/1
f 58/62/1 67/48/1 64/51/1 61/63/1
f 62/60/1 70/49/1 66/50/1 57/64/1
f 60/65/1 69/47/1 67/48/1 58/62/1
f 55/66/1 63/28/1 68/1/1 59/67/1
f 59/67/1 68/1/1 69/4/1 60/68/1
f 49/53/1 13/52/1 15/46/1 65/45/1
f 52/57/1 53/56/1 56/21/1 71/44/1
f 26/20/1 52/20/1 71/20/1 72/20/1
f 53/56/1 49/58/1 65/22/1 56/21/1
