# Blender 4.5.0
# www.blender.org
mtllib Ground2.mtl
o Roof1
v 4.788186 12.717205 57.884792
v 4.788186 12.717205 68.752914
v 25.434471 12.717205 68.752914
v 25.434471 12.717205 48.088020
v 27.902687 12.717205 48.088020
v 27.902687 12.717205 25.304485
v 24.702145 12.717205 25.304485
v 21.176121 12.717205 22.537914
v 11.473568 12.717205 22.530346
v 8.121599 12.563807 25.519924
v -29.726154 12.717205 57.884792
v -29.726154 12.717205 41.710373
v -34.156284 12.717205 41.710373
v 0.477488 12.563807 25.519924
v 0.116472 12.563807 25.831127
v 0.116472 12.563807 35.355515
v 0.116472 12.563807 20.136086
v 0.477488 12.563807 19.884945
v -12.738817 12.563807 20.136086
v -13.021351 12.563807 19.884945
v -13.021351 12.563807 21.172043
v -12.823395 12.563807 35.355515
v -34.196266 12.717205 37.942307
v -18.728859 12.563807 21.172043
v -29.864286 12.563807 21.172043
v -33.993443 12.563807 21.201658
v -37.377945 12.563807 26.067585
v -37.377945 12.563807 34.203098
v -29.864286 12.563807 21.352551
v -23.487700 12.563807 21.352551
v -25.121332 12.563807 21.172043
v -25.121332 12.563807 21.352551
v 4.788186 13.264157 57.884792
v 4.788186 13.264157 68.752914
v 25.434471 13.264157 68.752914
v 25.434471 13.264157 48.088020
v 27.902687 13.264157 48.088020
v 27.902687 13.264157 25.304485
v 24.702145 13.264157 25.304485
v 21.176121 13.264157 22.537914
v 11.473568 13.264157 22.530346
v 8.121599 13.110760 25.519924
v -29.726154 13.264157 57.884792
v -29.726154 13.264157 41.710373
v -34.156284 13.264157 41.710373
v 0.477488 13.110760 25.519924
v 0.116472 13.110760 25.831127
v 0.116472 13.110760 35.355515
v 0.116472 13.110760 20.136086
v 0.477488 13.110760 19.884945
v -12.738817 13.110760 20.136086
v -13.021351 13.110760 19.884945
v -13.021351 13.110760 21.172043
v -12.823395 13.110760 35.355515
v -34.196266 13.264157 37.942307
v -18.728859 13.110760 21.172043
v -29.864286 13.110760 21.172043
v -33.993443 13.110760 21.201658
v -37.377945 13.110760 26.067585
v -37.377945 13.110760 34.203098
v -29.864286 13.110760 21.352551
v -23.487700 13.110760 21.352551
v -25.121332 13.110760 21.172043
v -25.121332 13.110760 21.352551
vn -0.0000 -1.0000 -0.0000
vn -0.0020 -0.9991 0.0427
vn -0.0053 -1.0000 0.0063
vn -0.0000 -1.0000 0.0068
vn -0.0050 -0.9999 0.0107
vn -0.0000 -0.9999 0.0120
vn 0.0029 -1.0000 0.0062
vn 0.0054 -1.0000 0.0002
vn 0.0056 -0.9996 -0.0268
vn 0.0092 -1.0000 -0.0013
vn -0.0000 1.0000 -0.0000
vn 0.0020 0.9991 -0.0427
vn 0.0053 1.0000 -0.0063
vn -0.0000 1.0000 -0.0068
vn 0.0050 0.9999 -0.0107
vn -0.0000 0.9999 -0.0120
vn -0.0029 1.0000 -0.0062
vn -0.0054 1.0000 -0.0002
vn -0.0056 0.9996 0.0268
vn -0.0092 1.0000 0.0013
vn -0.0000 -0.0000 -1.0000
vn 0.6173 -0.0000 -0.7867
vn 0.0008 -0.0000 -1.0000
vn -0.6656 -0.0000 -0.7463
vn 1.0000 -0.0000 -0.0000
vn -1.0000 -0.0000 -0.0000
vn -0.0072 -0.0000 -1.0000
vn -0.8209 -0.0000 -0.5710
vn -0.7616 -0.0000 0.6480
vn -0.0000 -0.0000 1.0000
vn -0.9999 -0.0000 0.0106
vn 1.0000 -0.0000 0.0056
vt 0.000000 0.000000
s 0
f 19/1/1 22/1/1 20/1/1
f 19/1/1 20/1/1 18/1/1 17/1/1
f 16/1/1 15/1/1 17/1/1 18/1/1 14/1/1
f 32/1/1 31/1/1 30/1/1
f 31/1/1 24/1/1 30/1/1
f 24/1/1 21/1/1 30/1/1
f 26/1/1 25/1/1 29/1/1 27/1/1
f 27/1/1 29/1/1 22/1/1 28/1/1
f 28/1/2 22/1/2 23/1/2
f 23/1/3 22/1/3 12/1/3 13/1/3
f 11/1/1 12/1/1 1/1/1
f 22/1/4 16/1/4 1/1/4
f 12/1/5 22/1/5 1/1/5
f 5/1/6 4/1/6 16/1/6
f 16/1/7 4/1/7 1/1/7
f 2/1/1 1/1/1 4/1/1 3/1/1
f 6/1/1 5/1/1 7/1/1
f 16/1/8 14/1/8 5/1/8
f 10/1/4 5/1/4 14/1/4
f 8/1/9 7/1/9 10/1/9 9/1/9
f 5/1/10 10/1/10 7/1/10
f 22/1/1 30/1/1 21/1/1
f 29/1/1 30/1/1 22/1/1
f 51/1/11 52/1/11 54/1/11
f 51/1/11 49/1/11 50/1/11 52/1/11
f 48/1/11 46/1/11 50/1/11 49/1/11 47/1/11
f 64/1/11 62/1/11 63/1/11
f 63/1/11 62/1/11 56/1/11
f 56/1/11 62/1/11 53/1/11
f 58/1/11 59/1/11 61/1/11 57/1/11
f 59/1/11 60/1/11 54/1/11 61/1/11
f 60/1/12 55/1/12 54/1/12
f 55/1/13 45/1/13 44/1/13 54/1/13
f 43/1/11 33/1/11 44/1/11
f 54/1/14 33/1/14 48/1/14
f 44/1/15 33/1/15 54/1/15
f 37/1/16 48/1/16 36/1/16
f 48/1/17 33/1/17 36/1/17
f 34/1/11 35/1/11 36/1/11 33/1/11
f 38/1/11 39/1/11 37/1/11
f 48/1/18 37/1/18 46/1/18
f 42/1/14 46/1/14 37/1/14
f 40/1/19 41/1/19 42/1/19 39/1/19
f 37/1/20 39/1/20 42/1/20
f 54/1/11 53/1/11 62/1/11
f 61/1/11 54/1/11 62/1/11
f 7/1/21 39/1/21 38/1/21 6/1/21
f 8/1/22 40/1/22 39/1/22 7/1/22
f 8/1/23 9/1/23 41/1/23 40/1/23
f 10/1/24 42/1/24 41/1/24 9/1/24
f 10/1/21 14/1/21 46/1/21 42/1/21
f 18/1/25 50/1/25 46/1/25 14/1/25
f 20/1/21 52/1/21 50/1/21 18/1/21
f 21/1/26 53/1/26 52/1/26 20/1/26
f 31/1/21 63/1/21 56/1/21 24/1/21
f 24/1/21 56/1/21 53/1/21 21/1/21
f 61/1/21 64/1/21 32/1/21 29/1/21
f 32/1/26 64/1/26 63/1/26 31/1/26
f 29/1/25 25/1/25 57/1/25 61/1/25
f 25/1/27 26/1/27 58/1/27 57/1/27
f 26/1/28 27/1/28 59/1/28 58/1/28
f 28/1/26 60/1/26 59/1/26 27/1/26
f 28/1/29 23/1/29 55/1/29 60/1/29
f 13/1/30 12/1/30 44/1/30 45/1/30
f 23/1/31 13/1/31 45/1/31 55/1/31
f 12/1/26 11/1/26 43/1/26 44/1/26
f 11/1/30 1/1/30 33/1/30 43/1/30
f 2/1/26 34/1/26 33/1/26 1/1/26
f 3/1/30 35/1/30 34/1/30 2/1/30
f 4/1/25 36/1/25 35/1/25 3/1/25
f 5/1/30 37/1/30 36/1/30 4/1/30
f 6/1/25 38/1/25 37/1/25 5/1/25
f 22/1/21 54/1/21 48/1/21 16/1/21
f 16/1/26 48/1/26 47/1/26 15/1/26
f 17/1/26 15/1/26 47/1/26 49/1/26
f 19/1/30 17/1/30 49/1/30 51/1/30
f 22/1/32 19/1/32 51/1/32 54/1/32
