# Blender 4.5.0
# www.blender.org
mtllib Roof.mtl
o Roof2
v 4.870113 19.547045 57.864014
v 4.870113 19.547045 59.880135
v 25.424957 19.547045 59.880135
v 25.424957 19.547045 48.067238
v 27.893173 19.547045 48.067238
v 27.893173 19.547045 25.283705
v -29.735666 19.547045 57.864014
v -29.735666 19.547045 41.689590
v -34.165798 19.547045 41.689590
v 0.467974 19.393648 25.499144
v 0.467974 19.393648 19.864164
v -13.030865 19.393648 19.864164
v -13.030865 19.393648 21.151262
v -34.002956 19.393648 21.180878
v 4.870113 18.872585 57.864014
v 4.870113 18.872585 59.880135
v 25.424957 18.872585 59.880135
v 25.424957 18.872585 48.067238
v 27.893173 18.872585 48.067238
v 27.893173 18.872585 25.283705
v -29.735666 18.872585 57.864014
v -29.735666 18.872585 41.689590
v -34.165798 18.872585 41.689590
v 0.467974 18.719189 25.499144
v 0.467974 18.719189 19.864164
v -13.030865 18.719189 19.864164
v -13.030865 18.719189 21.151262
v -34.002956 18.719189 21.180878
vn -0.0000 1.0000 -0.0000
vn -0.0038 1.0000 -0.0026
vn 0.0015 1.0000 -0.0033
vn 0.0032 1.0000 -0.0025
vn -0.0003 1.0000 -0.0078
vn -0.0000 -1.0000 -0.0000
vn 0.0038 -1.0000 0.0026
vn -0.0015 -1.0000 0.0033
vn -0.0032 -1.0000 0.0025
vn 0.0003 -1.0000 0.0078
vn -1.0000 -0.0000 -0.0079
vn -0.0000 -0.0000 1.0000
vn -1.0000 -0.0000 -0.0000
vn -0.0014 -0.0000 -1.0000
vn -0.0000 -0.0000 -1.0000
vn 1.0000 -0.0000 -0.0000
vn -0.0079 -0.0000 -1.0000
vt 0.000000 0.000000
s 0
f 2/1/1 3/1/1 4/1/1 1/1/1
f 1/1/2 4/1/2 6/1/2 10/1/2
f 5/1/1 6/1/1 4/1/1
f 7/1/3 1/1/3 10/1/3 8/1/3
f 11/1/4 9/1/4 8/1/4 10/1/4
f 12/1/1 13/1/1 11/1/1
f 14/1/5 9/1/5 11/1/5 13/1/5
f 16/1/6 15/1/6 18/1/6 17/1/6
f 15/1/7 24/1/7 20/1/7 18/1/7
f 19/1/6 18/1/6 20/1/6
f 21/1/8 22/1/8 24/1/8 15/1/8
f 25/1/9 24/1/9 22/1/9 23/1/9
f 26/1/6 25/1/6 27/1/6
f 28/1/10 27/1/10 25/1/10 23/1/10
f 14/1/11 28/1/11 23/1/11 9/1/11
f 9/1/12 23/1/12 22/1/12 8/1/12
f 8/1/13 22/1/13 21/1/13 7/1/13
f 7/1/12 21/1/12 15/1/12 1/1/12
f 2/1/13 1/1/13 15/1/13 16/1/13
f 3/1/12 2/1/12 16/1/12 17/1/12
f 14/1/14 13/1/14 27/1/14 28/1/14
f 13/1/13 12/1/13 26/1/13 27/1/13
f 12/1/15 11/1/15 25/1/15 26/1/15
f 11/1/16 10/1/16 24/1/16 25/1/16
f 10/1/17 6/1/17 20/1/17 24/1/17
f 6/1/16 5/1/16 19/1/16 20/1/16
f 5/1/12 4/1/12 18/1/12 19/1/12
f 4/1/16 3/1/16 17/1/16 18/1/16
