# This file uses meters as units for non-parametric coordinates.

mtllib floor_walls_1_final.mtl
g default
v 288.427809 105.635201 39.328512
v 288.427809 5.179795 39.328512
v 288.427809 105.635201 35.356034
v 288.427809 5.179795 35.356034
v 109.076853 105.635201 39.328512
v 109.076853 5.179795 39.328512
v 109.076853 105.635201 35.356034
v 109.076853 5.179795 35.356034
v 112.695782 105.635201 39.328512
v 112.695782 5.179795 39.328512
v 112.695782 5.179795 35.356034
v 112.695782 105.635201 35.356034
v 112.695782 5.179795 31.925657
v 112.695782 105.635201 31.925657
v 109.076853 5.179795 31.925657
v 109.076853 105.635201 31.925657
v 112.889181 105.635201 54.705317
v 112.889181 5.179795 54.705317
v 109.270243 105.635201 54.705317
v 109.270243 5.179795 54.705317
v -206.682027 5.179795 -30.539149
v -206.682027 105.635201 -30.539149
v -206.682027 5.179795 -33.581590
v -206.682027 105.635201 -33.581590
v -93.453110 5.179795 -30.539149
v -93.453110 105.635201 -30.539149
v -93.453110 5.179795 -33.581590
v -93.453110 105.635201 -33.581590
v -97.634544 5.179795 -30.539149
v -97.634544 105.635201 -30.539149
v -97.634544 105.635201 -33.581590
v -97.634544 5.179795 -33.581590
v -97.634544 105.635201 -44.986289
v -97.634544 5.179795 -44.986289
v -93.453110 105.635201 -44.986289
v -93.453110 5.179795 -44.986289
v -46.539407 5.179795 -30.539149
v -46.539407 105.635201 -30.539149
v -46.539407 5.179795 -33.581590
v -46.539407 105.635201 -33.581590
v -97.634544 5.179795 74.943362
v -97.634544 105.635201 74.943362
v -93.453110 5.179795 74.943362
v -93.453110 105.635201 74.943362
v -342.969760 5.179795 -269.009274
v 376.323546 5.179795 -221.567772
v 349.555008 5.179795 280.888281
v -291.731549 5.179795 160.687434
v -342.929090 5.179795 -73.823024
v -343.456182 5.179795 -33.581590
v -343.456182 5.179795 -30.539149
v -288.241769 5.179795 160.456289
v -97.576743 5.179795 160.456289
v -93.526404 5.179795 160.456289
v 110.779262 5.179795 160.456289
v 110.779262 5.179795 284.318546
v 115.226702 5.179795 284.318546
v 345.949646 5.179795 284.318546
v 349.555008 5.179795 284.318546
v 349.555008 5.179795 42.363076
v 378.508415 5.179795 42.363076
v 378.508415 5.179795 38.390595
v 378.508415 5.179795 -66.768761
v 378.508415 5.179795 -70.779353
v 381.175950 5.179795 -72.931077
v 381.175950 5.179795 -218.079231
v 381.175950 5.179795 -221.567772
v 340.690302 5.179795 -221.339841
v 187.085267 5.179795 -252.657186
v 151.729185 5.179795 -222.063141
v 148.016394 5.179795 -218.850445
v 58.895926 5.179795 -284.318546
v 55.605835 5.179795 -284.318546
v 58.895926 5.179795 -282.221351
v -94.926697 5.179795 -284.318546
v -97.861138 5.179795 -284.318546
v -97.832591 5.179795 -268.630359
v -294.018677 5.179795 -269.101771
v -380.801895 5.179795 -213.105067
v -381.175950 5.179795 -117.589167
v 115.226702 5.179795 160.561151
v -291.731549 105.635201 160.687434
v 115.226702 105.635201 160.561151
v -291.731549 105.635201 155.649600
v 115.226702 105.635201 155.649600
v -291.731549 5.179795 155.649600
v 115.226702 5.179795 155.649600
v -288.241769 105.635201 160.456289
v -288.241769 105.635201 155.649600
v -288.241769 5.179795 155.649600
v -291.731549 105.635201 -33.581590
v -288.241769 105.635201 -33.581590
v -288.241769 5.179795 -33.581590
v -291.731549 5.179795 -33.581590
v -291.731549 105.635201 -30.539149
v -291.731549 5.179795 -30.539149
v -288.241769 5.179795 -30.539149
v -288.241769 105.635201 -30.539149
v -343.456182 105.635201 -30.539149
v -343.456182 105.635201 -33.581590
v -339.195905 105.635201 -30.539149
v -339.195905 5.179795 -30.539149
v -339.195905 5.179795 -33.581590
v -339.195905 105.635201 -33.581590
v -339.723036 5.179795 -76.628568
v -339.723036 105.635201 -76.628568
v -342.929090 105.635201 -73.823024
v -376.929152 5.179795 -117.927615
v -376.929152 105.635201 -117.927615
v -381.175950 105.635201 -117.589167
v -377.303206 5.179795 -210.674216
v -377.303206 105.635201 -210.674216
v -380.801895 105.635201 -213.105067
v -341.699943 5.179795 -264.942648
v -341.699943 105.635201 -264.942648
v -342.969760 105.635201 -269.009274
v -293.746997 5.179795 -264.850151
v -293.746997 105.635201 -264.850151
v -294.018677 105.635201 -269.101771
v 110.779262 105.635201 160.456289
v 110.779262 105.635201 155.649600
v 110.779262 5.179795 155.649600
v 110.779262 105.635201 284.318546
v 115.226702 105.635201 284.318546
v 110.779262 105.635201 107.847562
v 110.779262 5.179795 107.847562
v 115.226702 105.635201 107.847562
v 115.226702 5.179795 107.847562
v 110.779262 5.179795 280.888281
v 110.779262 105.635201 280.888281
v 115.226702 105.635201 280.888281
v 115.226702 5.179795 280.888281
v 349.555008 105.635201 280.888281
v 349.555008 105.635201 284.318546
v 345.949646 105.635201 280.888281
v 345.949646 5.179795 280.888281
v 345.949646 105.635201 284.318546
v 345.949646 105.635201 38.390595
v 345.949646 5.179795 38.390595
v 349.555008 105.635201 38.390595
v 349.555008 5.179795 38.390595
v 345.949646 105.635201 42.363076
v 345.949646 5.179795 42.363076
v 349.555008 105.635201 42.363076
v 378.508415 105.635201 42.363076
v 378.508415 105.635201 38.390595
v 323.192093 105.635201 41.279627
v 323.192093 5.179795 41.279627
v 323.192093 105.635201 37.307151
v 323.192093 5.179795 37.307151
v 373.656011 5.179795 42.363076
v 373.656011 105.635201 42.363076
v 373.656011 105.635201 38.390595
v 373.656011 5.179795 38.390595
v 373.656011 105.635201 -70.779353
v 373.656011 5.179795 -70.779353
v 378.508415 105.635201 -70.779353
v 373.656011 105.635201 -66.768761
v 373.656011 5.179795 -66.768761
v 378.508415 105.635201 -66.768761
v 108.438672 105.635201 -66.768761
v 108.438672 5.179795 -66.768761
v 108.438672 105.635201 -70.779353
v 108.438672 5.179795 -70.779353
v 113.288771 105.635201 -66.768761
v 113.288771 5.179795 -66.768761
v 113.288771 5.179795 -70.779353
v 113.288771 105.635201 -70.779353
v 113.288771 105.635201 -24.133368
v 113.288771 5.179795 -24.133368
v 108.438672 105.635201 -24.133368
v 108.438672 5.179795 -24.133368
v 113.288771 105.635201 -33.437557
v 113.288771 5.179795 -33.437557
v 108.438672 5.179829 -33.437557
v 108.438672 105.635163 -33.437557
v 113.288771 105.635201 -29.185325
v 113.288771 5.179795 -29.185325
v 108.438672 5.179829 -29.185325
v 108.438672 105.635163 -29.185325
v 62.026903 5.179795 -33.437557
v 62.026903 105.635201 -33.437557
v 62.026903 5.179795 -29.185325
v 62.026903 105.635201 -29.185325
v 148.234495 105.635201 -66.768761
v 148.234495 5.179795 -66.768761
v 148.234495 5.179795 -70.779353
v 148.234495 105.635201 -70.779353
v 152.905460 105.635201 -66.768761
v 152.905460 5.179795 -66.768761
v 152.905460 5.179795 -70.779353
v 152.905460 105.635201 -70.779353
v 152.905460 5.179795 -79.315295
v 152.905460 105.635201 -79.315295
v 148.234495 5.179795 -79.315295
v 148.234495 105.635201 -79.315295
v 376.323546 105.635201 -72.931077
v 376.323546 5.179795 -72.931077
v 381.175950 105.635201 -72.931077
v 376.323546 105.635201 -221.567772
v 381.175950 105.635201 -221.567772
v 376.323546 105.635201 -218.079231
v 376.323546 5.179795 -218.079231
v 381.175950 105.635201 -218.079231
v 338.966135 105.635201 -218.307161
v 338.966135 5.179795 -218.307161
v 340.690302 105.635201 -221.339841
v 300.089421 105.635201 -249.205404
v 300.089421 5.179795 -249.205404
v 299.867049 105.635201 -252.986967
v 299.867049 5.179795 -252.986967
v 189.230609 105.635201 -249.535166
v 189.230609 5.179795 -249.535166
v 187.085267 105.635201 -252.657186
v 148.199877 105.635201 -215.066867
v 148.199877 5.179795 -215.066867
v 148.016394 105.635201 -218.850445
v 55.789322 105.635201 -215.066867
v 55.789322 5.179795 -215.066867
v 55.605835 105.635201 -218.850445
v 55.605835 5.179795 -218.850445
v 152.099124 105.635201 -218.342467
v 152.099124 5.179795 -218.342467
v 151.729185 105.635201 -222.063141
v 152.099124 105.635201 -112.191059
v 152.099124 5.179795 -112.191059
v 148.199877 105.635201 -112.191039
v 148.199877 5.179795 -112.191039
v 152.099124 105.635201 -124.912027
v 152.099124 5.179795 -124.912027
v 148.199877 5.179795 -124.519467
v 148.199877 105.635201 -124.519467
v 152.099124 105.635201 -120.782922
v 152.099124 5.179795 -120.782922
v 148.199877 5.179795 -120.517759
v 148.199877 105.635201 -120.517759
v 128.035228 5.179795 -124.519467
v 128.035228 105.635201 -124.519467
v 128.035228 5.179795 -120.517759
v 128.035228 105.635201 -120.517759
v 59.079414 105.635201 -215.066867
v 59.079414 5.179795 -215.066867
v 60.140537 4.903064 -218.532477
v 58.895926 105.635201 -218.850445
v 59.079414 105.635201 -120.602974
v 59.079414 5.179795 -120.602974
v 55.789322 105.635201 -120.602974
v 55.789322 5.179795 -120.602974
v 59.079414 105.635201 -124.112411
v 59.079414 5.179795 -124.112411
v 55.789308 5.179795 -124.112411
v 55.789308 105.635201 -124.112411
v 77.139886 105.635201 -124.112411
v 77.139886 5.179795 -124.112411
v 77.139886 105.635201 -120.602974
v 77.139886 5.179795 -120.602974
v 58.895926 105.635201 -284.318546
v 55.605835 105.635201 -284.318546
v 58.895926 105.635201 -282.221351
v 55.605835 105.635201 -282.221351
v 55.605835 5.179795 -282.221351
v -97.861138 105.635201 -282.221351
v -97.861138 5.179795 -282.221351
v -97.861138 105.635201 -284.318546
v -94.926697 105.635201 -282.221351
v -94.926697 5.179795 -282.221351
v -94.926697 105.635201 -284.318546
v -94.543869 105.635201 -99.977497
v -94.543869 5.179795 -99.977497
v -97.478310 105.635201 -99.977497
v -97.478310 5.179795 -99.977497
v -94.890035 105.635201 -264.768383
v -94.890035 5.179795 -264.768383
v -97.824476 5.179795 -264.768383
v -97.824476 105.635201 -264.768383
v -94.898150 105.635201 -268.630359
v -94.898150 5.179795 -268.630359
v -97.832591 105.635201 -268.630359
v -163.356556 5.179795 -268.630359
v -163.356556 105.635201 -268.630359
v -163.348422 5.179795 -264.768383
v -163.348422 105.635201 -264.768383
v -266.734474 5.179795 -30.539149
v -266.734474 105.635201 -30.539149
v -266.734474 5.179795 -33.581590
v -266.734474 105.635201 -33.581590
v -97.576753 105.635201 160.456289
v -97.576753 105.635201 155.649600
v -97.576753 5.179795 155.649600
v -93.526404 105.635201 160.456289
v -93.526404 105.635201 155.649600
v -93.526404 5.179795 155.649600
v -97.576753 105.635201 141.501371
v -97.576753 5.179795 141.501371
v -93.526404 105.635201 141.501371
v -93.526404 5.179795 141.501371
v 80.655201 5.179790 160.456289
v 80.655216 105.635201 160.456289
v 80.655216 105.635201 155.649600
v 80.655216 5.179795 156.949349
v 31.622382 5.179790 160.456289
v 31.622399 105.635201 160.456298
v 31.622399 105.635201 155.649600
v 31.622399 5.179795 156.949349
v 31.622387 13.077642 160.456289
v 80.655206 13.077642 160.456289
v 31.622396 89.562327 160.456298
v 80.655211 89.562327 160.456279
v 80.655211 13.077535 158.702819
v 31.622394 13.077535 158.702819
v 29.534814 4.920800 182.513559
v 84.415505 4.920800 182.513559
v 29.534814 7.441208 182.513559
v 84.415505 7.441208 182.513559
v 22.017089 4.920800 182.513559
v 22.148879 10.442537 182.513559
v 92.071612 4.920800 182.513559
v 92.071612 10.435430 182.513559
v 22.037581 17.432812 162.055674
v 22.017089 4.920800 159.419669
v 29.534814 4.920800 159.419669
v 84.415505 4.920800 159.419669
v 92.071612 17.427820 160.206319
v 29.534814 11.396024 172.132222
v 22.101633 13.409825 174.097877
v 22.017089 4.920800 170.719690
v 29.534814 4.920800 170.719690
v 84.415505 4.920800 170.719690
v 29.534814 9.418594 177.782237
v 22.133632 11.398328 180.118906
v 22.017089 4.920800 176.369801
v 29.534814 4.920800 176.369801
v 84.415505 4.920800 176.369801
v 84.415505 4.920800 165.069675
v 29.534814 4.920800 165.069675
v 22.017089 4.920800 165.069675
v 22.069619 15.421321 168.076732
v 29.534814 13.373424 166.482207
v 92.071612 4.920800 159.419669
v 92.071612 4.920800 170.719690
v 92.071612 13.403647 174.116373
v 92.071612 4.920800 165.069675
v 92.071612 15.415729 168.093388
v 92.071612 4.920800 176.369801
v 92.071612 11.391521 180.139299
v 84.415505 9.418594 177.782237
v 84.415505 11.396024 172.132222
v 84.415505 13.373424 166.482207
v 22.017089 4.920800 173.544755
v 29.534814 9.418633 172.132222
v 84.415505 9.418633 172.132222
v 92.071612 4.920800 173.544755
v 84.415505 4.920800 173.544755
v 29.534814 4.920800 173.544755
v 29.534814 11.396024 166.482227
v 22.017089 4.920800 167.894721
v 29.534814 4.920800 167.894721
v 84.415505 4.920800 167.894721
v 92.071612 4.920800 167.894721
v 84.415505 11.396024 166.482227
v 22.017089 4.920800 162.244716
v 29.534814 13.373424 158.967973
v 84.415505 13.373424 160.832202
v 92.071612 4.920800 162.244716
v 84.415505 4.920800 162.244716
v 29.534814 4.920800 162.244716
v 29.534814 7.441213 177.782315
v 22.017089 4.920800 179.194770
v 29.534814 4.920800 179.194770
v 84.415505 4.920800 179.194770
v 92.071612 4.920800 179.194770
v 84.415505 7.441213 177.782315
v 29.669025 10.433435 182.513559
v 29.653810 11.389245 180.146175
v 29.557745 17.423705 160.218713
v 29.621784 13.400712 174.125107
v 29.589764 15.412233 168.103981
v 84.415505 11.391521 180.139299
v 84.415505 10.435430 182.513559
v 84.415505 13.403647 174.116373
v 84.415505 15.415729 168.093388
v 84.415505 17.427820 160.206319
vt 0.625000 0.000000
vt 0.625000 0.250000
vt 0.625000 0.250000
vt 0.625000 0.000000
vt 0.625000 0.000000
vt 0.625000 0.250000
vt 0.625000 0.250000
vt 0.625000 0.000000
vt 0.625000 0.250000
vt 0.625000 0.250000
vt 0.625000 0.000000
vt 0.625000 0.000000
vt 0.625000 0.000000
vt 0.625000 0.250000
vt 0.625000 0.250000
vt 0.625000 0.000000
vt 0.625000 0.250000
vt 0.625000 0.000000
vt 0.625000 0.000000
vt 0.625000 0.250000
vt 0.377164 0.500000
vt 0.377164 0.750000
vt 0.377164 0.750000
vt 0.377164 0.500000
vt 0.377164 0.500000
vt 0.377164 0.750000
vt 0.377164 0.750000
vt 0.377164 0.500000
vt 0.377164 0.750000
vt 0.377164 0.500000
vt 0.377164 0.500000
vt 0.377164 0.750000
vt 0.377164 0.500000
vt 0.377164 0.750000
vt 0.377164 0.750000
vt 0.377164 0.500000
vt 0.377164 0.500000
vt 0.377164 0.500000
vt 0.377164 0.750000
vt 0.377164 0.500000
vt 0.377164 0.500000
vt 0.377164 0.750000
vt 0.377164 0.750000
vt 0.377164 0.750000
vt 0.378802 0.263985
vt 0.407133 0.263985
vt 0.408042 0.263985
vt 0.470185 0.263985
vt 0.470707 0.263985
vt 0.470911 0.263985
vt 0.471037 0.263985
vt 0.526199 0.263985
vt 0.531877 0.263985
vt 0.533437 0.263985
vt 0.605297 0.263985
vt 0.606620 0.263985
vt 0.616474 0.263985
vt 0.616474 0.265871
vt 0.616474 0.338240
vt 0.616474 0.358703
vt 0.616474 0.360078
vt 0.616474 0.400089
vt 0.616474 0.401655
vt 0.616474 0.403060
vt 0.616474 0.460193
vt 0.616474 0.462094
vt 0.616474 0.486439
vt 0.591766 0.486439
vt 0.582502 0.486440
vt 0.556897 0.486439
vt 0.544460 0.486439
vt 0.543145 0.486439
vt 0.527600 0.486439
vt 0.516721 0.486439
vt 0.515566 0.486439
vt 0.514396 0.486439
vt 0.468098 0.486440
vt 0.466751 0.486440
vt 0.458205 0.486440
vt 0.446550 0.486440
vt 0.432868 0.486440
vt 0.398420 0.486439
vt 0.378802 0.486439
vt 0.378802 0.459341
vt 0.378802 0.419914
vt 0.378802 0.404559
vt 0.378802 0.390220
vt 0.378802 0.389134
vt 0.378802 0.382106
vt 0.378802 0.312768
vt 0.375000 0.000000
vt 0.377164 0.000000
vt 0.377164 0.250000
vt 0.375000 0.250000
vt 0.377164 0.500000
vt 0.375000 0.500000
vt 0.375000 0.500000
vt 0.377164 0.500000
vt 0.377164 0.750000
vt 0.375000 0.750000
vt 0.625000 0.000000
vt 0.875000 0.000000
vt 0.875000 0.250000
vt 0.625000 0.250000
vt 0.125000 0.000000
vt 0.125000 0.250000
vt 0.494283 0.000000
vt 0.494283 0.250000
vt 0.494283 0.500000
vt 0.377164 0.750000
vt 0.494283 0.750000
vt 0.377164 0.500000
vt 0.375000 0.500000
vt 0.377164 0.750000
vt 0.375000 0.750000
vt 0.375000 0.750000
vt 0.375000 0.750000
vt 0.375000 0.500000
vt 0.375000 0.500000
vt 0.375000 0.750000
vt 0.375000 0.500000
vt 0.375000 0.750000
vt 0.375000 0.500000
vt 0.375000 0.750000
vt 0.375000 0.750000
vt 0.375000 0.500000
vt 0.375000 0.500000
vt 0.375000 0.750000
vt 0.375000 0.750000
vt 0.375000 0.500000
vt 0.375000 0.500000
vt 0.375000 0.750000
vt 0.375000 0.750000
vt 0.375000 0.500000
vt 0.375000 0.500000
vt 0.375000 0.750000
vt 0.375000 0.750000
vt 0.375000 0.500000
vt 0.375000 0.500000
vt 0.375000 0.750000
vt 0.375000 0.750000
vt 0.375000 0.500000
vt 0.375000 0.500000
vt 0.375000 0.750000
vt 0.622268 0.250000
vt 0.622268 0.000000
vt 0.625000 0.000000
vt 0.625000 0.250000
vt 0.622268 0.500000
vt 0.622268 0.250000
vt 0.625000 0.500000
vt 0.622268 0.750000
vt 0.622268 0.500000
vt 0.625000 0.500000
vt 0.625000 0.750000
vt 0.622268 0.000000
vt 0.622268 0.000000
vt 0.622268 0.250000
vt 0.625000 0.250000
vt 0.625000 0.000000
vt 0.622268 0.750000
vt 0.625000 0.750000
vt 0.625000 0.000000
vt 0.625000 0.250000
vt 0.625000 0.250000
vt 0.625000 0.000000
vt 0.625000 0.250000
vt 0.625000 0.000000
vt 0.625000 0.250000
vt 0.625000 0.000000
vt 0.625000 0.000000
vt 0.625000 0.250000
vt 0.625000 0.250000
vt 0.625000 0.000000
vt 0.625000 0.250000
vt 0.625000 0.000000
vt 0.625000 0.250000
vt 0.625000 0.000000
vt 0.625000 0.250000
vt 0.625000 0.000000
vt 0.625000 0.000000
vt 0.625000 0.250000
vt 0.625000 0.000000
vt 0.625000 0.250000
vt 0.625000 0.250000
vt 0.625000 0.000000
vt 0.625000 0.250000
vt 0.625000 0.000000
vt 0.625000 0.250000
vt 0.625000 0.000000
vt 0.625000 0.000000
vt 0.625000 0.250000
vt 0.625000 0.250000
vt 0.625000 0.000000
vt 0.625000 0.250000
vt 0.625000 0.000000
vt 0.625000 0.250000
vt 0.625000 0.000000
vt 0.625000 0.000000
vt 0.625000 0.250000
vt 0.625000 0.250000
vt 0.625000 0.000000
vt 0.625000 0.000000
vt 0.625000 0.250000
vt 0.625000 0.250000
vt 0.625000 0.250000
vt 0.625000 0.000000
vt 0.625000 0.250000
vt 0.625000 0.000000
vt 0.625000 0.000000
vt 0.625000 0.000000
vt 0.625000 0.250000
vt 0.625000 0.250000
vt 0.625000 0.000000
vt 0.625000 0.250000
vt 0.625000 0.000000
vt 0.625000 0.250000
vt 0.625000 0.000000
vt 0.625000 0.250000
vt 0.625000 0.000000
vt 0.625000 0.250000
vt 0.625000 0.000000
vt 0.625000 0.250000
vt 0.625000 0.000000
vt 0.625000 0.250000
vt 0.625000 0.000000
vt 0.625000 0.000000
vt 0.625000 0.250000
vt 0.625000 0.250000
vt 0.625000 0.000000
vt 0.625000 0.000000
vt 0.625000 0.250000
vt 0.625000 0.250000
vt 0.625000 0.000000
vt 0.625000 0.250000
vt 0.625000 0.000000
vt 0.625000 0.000000
vt 0.625000 0.250000
vt 0.625000 0.250000
vt 0.625000 0.000000
vt 0.625000 0.250000
vt 0.625000 0.000000
vt 0.625000 0.250000
vt 0.625000 0.000000
vt 0.625000 0.250000
vt 0.625000 0.000000
vt 0.625000 0.000000
vt 0.625000 0.250000
vt 0.625000 0.250000
vt 0.625000 0.000000
vt 0.625000 0.250000
vt 0.625000 0.000000
vt 0.625000 0.250000
vt 0.625000 0.000000
vt 0.625000 0.250000
vt 0.625000 0.000000
vt 0.625000 0.250000
vt 0.625000 0.000000
vt 0.625000 0.250000
vt 0.625000 0.000000
vt 0.625000 0.250000
vt 0.625000 0.000000
vt 0.625000 0.250000
vt 0.625000 0.000000
vt 0.625000 0.250000
vt 0.625000 0.000000
vt 0.625000 0.000000
vt 0.625000 0.250000
vt 0.625000 0.250000
vt 0.625000 0.000000
vt 0.625000 0.250000
vt 0.625000 0.250000
vt 0.625000 0.000000
vt 0.625000 0.000000
vt 0.625000 0.000000
vt 0.625000 0.250000
vt 0.625000 0.250000
vt 0.625000 0.000000
vt 0.625000 0.250000
vt 0.625000 0.000000
vt 0.625000 0.250000
vt 0.625000 0.000000
vt 0.625000 0.250000
vt 0.625000 0.000000
vt 0.625000 0.250000
vt 0.625000 0.000000
vt 0.625000 0.000000
vt 0.625000 0.250000
vt 0.625000 0.250000
vt 0.625000 0.000000
vt 0.625000 0.000000
vt 0.625000 0.250000
vt 0.625000 0.250000
vt 0.625000 0.000000
vt 0.625000 0.250000
vt 0.625000 0.000000
vt 0.625000 0.000000
vt 0.625000 0.250000
vt 0.625000 0.250000
vt 0.625000 0.000000
vt 0.625000 0.250000
vt 0.625000 0.000000
vt 0.625000 0.000000
vt 0.625000 0.250000
vt 0.625000 0.250000
vt 0.625000 0.000000
vt 0.625000 0.000000
vt 0.625000 0.250000
vt 0.625000 0.250000
vt 0.625000 0.000000
vt 0.625000 0.000000
vt 0.625000 0.250000
vt 0.625000 0.250000
vt 0.625000 0.000000
vt 0.625000 0.250000
vt 0.625000 0.000000
vt 0.625000 0.250000
vt 0.625000 0.000000
vt 0.625000 0.000000
vt 0.625000 0.250000
vt 0.625000 0.250000
vt 0.625000 0.000000
vt 0.625000 0.250000
vt 0.625000 0.000000
vt 0.625000 0.250000
vt 0.625000 0.000000
vt 0.625000 0.000000
vt 0.625000 0.250000
vt 0.625000 0.250000
vt 0.625000 0.000000
vt 0.625000 0.000000
vt 0.625000 0.250000
vt 0.625000 0.250000
vt 0.625000 0.000000
vt 0.377164 0.750000
vt 0.377164 0.500000
vt 0.377164 0.500000
vt 0.377164 0.750000
vt 0.496771 0.000000
vt 0.496771 0.250000
vt 0.496771 0.500000
vt 0.494283 0.750000
vt 0.494283 0.500000
vt 0.496771 0.500000
vt 0.496771 0.750000
vt 0.573645 0.050000
vt 0.573645 0.000000
vt 0.573645 0.250000
vt 0.573645 0.500000
vt 0.496771 0.750000
vt 0.573645 0.750000
vt 0.603764 0.250000
vt 0.603764 0.210000
vt 0.603764 0.500000
vt 0.603764 0.750000
vt 0.573645 0.210000
vt 0.603764 0.050000
vt 0.603764 0.000000
vt 0.603764 0.400000
vt 0.573645 0.400000
vt 0.375000 0.000000
vt 0.625000 0.000000
vt 0.424561 0.226608
vt 0.375000 0.250000
vt 0.827148 0.250244
vt -0.000000 -0.000000
vt 0.375000 0.984375
vt 0.625000 0.984375
vt 0.625000 1.000000
vt 0.375000 1.000000
vt 0.349609 0.250000
vt 0.359375 0.000000
vt 0.375000 0.000000
vt 0.375000 0.250000
vt 0.359375 0.000000
vt 0.375000 0.250000
vt 0.424561 0.226608
vt 0.640625 0.000000
vt 0.640625 0.000000
vt 0.625000 0.000000
vt 0.062500 0.125000
vt 0.637939 0.258545
vt 0.637939 0.258545
vt 0.424561 0.226608
vt 0.313477 0.129069
vt 0.250000 0.000000
vt 0.265625 0.000000
vt 0.250000 0.000000
vt 0.265625 0.000000
vt 0.375000 0.875000
vt 0.625000 0.875000
vt 0.625000 0.890625
vt 0.375000 0.890625
vt 0.223145 0.264323
vt 0.312500 0.000000
vt 0.328125 0.000000
vt 0.312500 0.000000
vt 0.328125 0.000000
vt 0.375000 0.937500
vt 0.625000 0.937500
vt 0.625000 0.953125
vt 0.375000 0.953125
vt 0.375000 0.921875
vt 0.625000 0.921875
vt 0.296875 0.000000
vt 0.296875 0.000000
vt 0.424561 0.226608
vt 0.424561 0.226608
vt -0.000000 -0.000000
vt 0.424561 0.226608
vt 0.424561 0.226608
vt 0.000000 0.000000
vt 0.668498 0.280996
vt 0.734375 0.000000
vt 0.750000 0.000000
vt 0.579183 0.311991
vt 0.671875 0.000000
vt 0.687500 0.000000
vt 0.671875 0.000000
vt 0.687500 0.000000
vt 0.703125 0.000000
vt 0.703125 0.000000
vt 0.734375 0.000000
vt 0.750000 0.000000
vt 0.579183 0.311991
vt 0.626953 0.258138
vt -0.000000 -0.000000
vt 0.626953 0.258138
vt 0.626953 0.258138
vt 0.223145 0.264323
vt 0.223145 0.264323
vt 0.343750 0.000000
vt 0.187012 0.200684
vt 0.396484 0.273438
vt 0.810547 0.271484
vt 0.424561 0.226608
vt 0.626953 0.258138
vt 0.656250 0.000000
vt 0.656250 0.000000
vt 0.625000 0.968750
vt 0.375000 0.968750
vt 0.343750 0.000000
vt 0.281250 0.000000
vt 0.281250 0.000000
vt 0.375000 0.906250
vt 0.625000 0.906250
vt 0.718750 0.000000
vt 0.718750 0.000000
vt -0.000000 -0.000000
vt 0.579183 0.311991
vt -0.000000 -0.000000
vt 0.223145 0.264323
vt 0.579183 0.311991
vt 0.637939 0.258545
vt -0.000000 -0.000000
vt 0.187012 0.200684
vt 0.424561 0.226608
vt 0.000000 0.000000
vt 0.579183 0.311991
vt 0.626953 0.258138
vt 0.000000 0.000000
vt -0.000000 -0.000000
vt -0.000000 -0.000000
vt -0.000000 -0.000000
vt -0.000000 -0.000000
vt -0.000000 -0.000000
vt 0.579183 0.311991
vt 0.579183 0.311991
vt 0.579183 0.311991
vt 0.827148 0.250244
vt -0.000000 -0.000000
vt 0.703125 0.250000
vt 0.626953 0.258138
vt 0.626953 0.258138
vt 0.579183 0.311991
vt 0.579183 0.311991
vt 0.579183 0.311991
vt 0.579183 0.311991
vt 0.000000 0.000000
vt 0.579183 0.311991
vt 0.579183 0.311991
vt 0.757812 0.250000
vt 0.579183 0.311991
vt 0.396484 0.273438
vt 0.396484 0.273438
vt 0.827148 0.250244
vt 0.827148 0.250244
vt 0.187012 0.200684
vt -0.000000 -0.000000
vt -0.000000 -0.000000
vt -0.000000 -0.000000
vt -0.000000 -0.000000
vt 0.276892 -0.000000
vt 0.468845 0.207416
vn -1.000000 0.000000 0.000000
vn -1.000000 0.000000 0.000000
vn -1.000000 0.000000 0.000000
vn -1.000000 0.000000 0.000000
vn 0.000000 0.000000 1.000000
vn 0.000000 0.000000 1.000000
vn 0.000000 0.000000 1.000000
vn 0.000000 0.000000 1.000000
vn 0.000000 1.000000 0.000000
vn 0.000000 1.000000 0.000000
vn 0.000000 1.000000 0.000000
vn 0.000000 1.000000 0.000000
vn 0.000000 0.000000 -1.000000
vn 0.000000 0.000000 -1.000000
vn 0.000000 0.000000 -1.000000
vn 0.000000 0.000000 -1.000000
vn 0.000000 0.000000 1.000000
vn 0.000000 0.000000 1.000000
vn 0.000000 0.000000 1.000000
vn 0.000000 0.000000 1.000000
vn 0.000000 0.000000 -1.000000
vn 0.000000 0.000000 -1.000000
vn 0.000000 0.000000 -1.000000
vn 0.000000 0.000000 -1.000000
vn 0.000000 1.000000 0.000000
vn 0.000000 1.000000 0.000000
vn 1.000000 0.000000 0.000000
vn 1.000000 0.000000 0.000000
vn 1.000000 0.000000 0.000000
vn 1.000000 0.000000 0.000000
vn -1.000000 0.000000 0.000000
vn -1.000000 0.000000 0.000000
vn -1.000000 0.000000 0.000000
vn -1.000000 0.000000 0.000000
vn 0.000000 1.000000 0.000000
vn 0.000000 1.000000 0.000000
vn 0.000000 1.000000 0.000000
vn 0.000000 1.000000 0.000000
vn 0.999921 0.000000 -0.012576
vn 0.999921 0.000000 -0.012576
vn 0.999921 0.000000 -0.012576
vn 0.999921 0.000000 -0.012576
vn 0.000000 1.000000 -0.000001
vn 0.000000 1.000000 -0.000001
vn 0.000000 1.000000 -0.000001
vn 0.000000 1.000000 -0.000001
vn -0.999921 0.000000 0.012576
vn -0.999921 0.000000 0.012576
vn -0.999921 0.000000 0.012576
vn -0.999921 0.000000 0.012576
vn 1.000000 0.000000 0.000000
vn 1.000000 0.000000 0.000000
vn 1.000000 0.000000 0.000000
vn 1.000000 0.000000 0.000000
vn 1.000000 0.000000 0.000000
vn 1.000000 0.000000 0.000000
vn 1.000000 0.000000 0.000000
vn 1.000000 0.000000 0.000000
vn 0.000000 0.000000 1.000000
vn 0.000000 0.000000 1.000000
vn 0.000000 0.000000 1.000000
vn 0.000000 0.000000 1.000000
vn 0.000000 0.000000 -1.000000
vn 0.000000 0.000000 -1.000000
vn 0.000000 0.000000 -1.000000
vn 0.000000 0.000000 -1.000000
vn 0.000000 1.000000 0.000000
vn 0.000000 1.000000 0.000000
vn 0.000000 1.000000 0.000000
vn 0.000000 1.000000 0.000000
vn -1.000000 0.000000 0.000000
vn -1.000000 0.000000 0.000000
vn -1.000000 0.000000 0.000000
vn -1.000000 0.000000 0.000000
vn 0.000000 0.000000 1.000000
vn 0.000000 0.000000 1.000000
vn 0.000000 0.000000 1.000000
vn 0.000000 0.000000 1.000000
vn 0.000000 1.000000 0.000000
vn 0.000000 1.000000 0.000000
vn 0.000000 0.000000 -1.000000
vn 0.000000 0.000000 -1.000000
vn 0.000000 0.000000 -1.000000
vn 0.000000 0.000000 -1.000000
vn -1.000000 0.000000 0.000000
vn -1.000000 0.000000 0.000000
vn -1.000000 0.000000 0.000000
vn -1.000000 0.000000 0.000000
vn 0.000000 1.000000 0.000000
vn 0.000000 1.000000 0.000000
vn 0.000000 1.000000 0.000000
vn 0.000000 1.000000 0.000000
vn 1.000000 0.000000 0.000000
vn 1.000000 0.000000 0.000000
vn 1.000000 0.000000 0.000000
vn 1.000000 0.000000 0.000000
vn 0.000000 0.000000 1.000000
vn 0.000000 0.000000 1.000000
vn 0.000000 0.000000 1.000000
vn 0.000000 0.000000 1.000000
vn 0.000000 0.000000 -1.000000
vn 0.000000 0.000000 -1.000000
vn 0.000000 0.000000 -1.000000
vn 0.000000 0.000000 -1.000000
vn 0.000000 1.000000 0.000000
vn 0.000000 1.000000 0.000000
vn 0.000000 1.000000 0.000000
vn 0.000000 1.000000 0.000000
vn -1.000000 0.000000 0.000000
vn -1.000000 0.000000 0.000000
vn -1.000000 0.000000 0.000000
vn -1.000000 0.000000 0.000000
vn 1.000000 0.000000 0.000000
vn 1.000000 0.000000 0.000000
vn 1.000000 0.000000 0.000000
vn 1.000000 0.000000 0.000000
vn 0.000000 1.000000 0.000000
vn 0.000000 1.000000 0.000000
vn 0.000000 1.000000 0.000000
vn 0.000000 1.000000 0.000000
vn 0.000027 1.000000 -0.000038
vn 0.000027 1.000000 -0.000038
vn 0.000027 1.000000 -0.000038
vn 0.000027 1.000000 -0.000038
vn 0.000027 1.000000 -0.000038
vn 0.000027 1.000000 -0.000038
vn 0.000027 1.000000 -0.000038
vn 0.000027 1.000000 -0.000038
vn 0.000027 1.000000 -0.000038
vn 0.000027 1.000000 -0.000038
vn 0.000027 1.000000 -0.000038
vn 0.000027 1.000000 -0.000038
vn 0.000027 1.000000 -0.000038
vn 0.000027 1.000000 -0.000038
vn 0.000027 1.000000 -0.000038
vn 0.000027 1.000000 -0.000038
vn 0.000027 1.000000 -0.000038
vn 0.000027 1.000000 -0.000038
vn 0.000027 1.000000 -0.000038
vn 0.000027 1.000000 -0.000038
vn 0.000027 1.000000 -0.000038
vn 0.000027 1.000000 -0.000038
vn 0.000027 1.000000 -0.000038
vn 0.000027 1.000000 -0.000038
vn 0.000027 1.000000 -0.000038
vn 0.000027 1.000000 -0.000038
vn 0.000027 1.000000 -0.000038
vn 0.000027 1.000000 -0.000038
vn 0.000027 1.000000 -0.000038
vn 0.000027 1.000000 -0.000038
vn 0.000027 1.000000 -0.000038
vn 0.000027 1.000000 -0.000038
vn 0.000027 1.000000 -0.000038
vn 0.000027 1.000000 -0.000038
vn 0.000027 1.000000 -0.000038
vn 0.000027 1.000000 -0.000038
vn 0.000027 1.000000 -0.000038
vn 0.000027 1.000000 -0.000038
vn 0.000027 1.000000 -0.000038
vn 0.000027 1.000000 -0.000038
vn 0.000027 1.000000 -0.000038
vn 0.000027 1.000000 -0.000038
vn 0.000027 1.000000 -0.000038
vn 0.000027 1.000000 -0.000038
vn 0.000027 1.000000 -0.000038
vn 0.000027 1.000000 -0.000038
vn 0.066092 0.000000 0.997814
vn 0.001191 0.000000 0.999999
vn 0.001191 0.000000 0.999999
vn 0.066092 0.000000 0.997814
vn 0.000000 1.000000 0.000000
vn 0.000000 1.000000 0.000000
vn 0.000000 1.000000 0.000000
vn 0.000000 1.000000 0.000000
vn 0.000000 0.000000 -1.000000
vn 0.000000 0.000000 -1.000000
vn 0.000000 0.000000 -1.000000
vn 0.000000 0.000000 -1.000000
vn 1.000000 0.000000 0.000000
vn 1.000000 0.000000 0.000000
vn 1.000000 0.000000 0.000000
vn 1.000000 0.000000 0.000000
vn -1.000000 0.000000 0.000000
vn -1.000000 0.000000 0.000000
vn -1.000000 0.000000 0.000000
vn -1.000000 0.000000 0.000000
vn 0.000000 0.000000 1.000000
vn 0.000000 0.000000 1.000000
vn 0.000000 1.000000 0.000000
vn 0.000000 1.000000 0.000000
vn 0.000000 0.000000 -1.000000
vn 0.000000 0.000000 -1.000000
vn 0.000000 0.000000 -1.000000
vn 0.000000 0.000000 -1.000000
vn 0.000000 1.000000 0.000000
vn 0.000000 1.000000 0.000000
vn 0.000000 1.000000 0.000000
vn 0.000000 1.000000 0.000000
vn 1.000000 0.000000 0.000000
vn 1.000000 0.000000 0.000000
vn 1.000000 0.000000 0.000000
vn 1.000000 0.000000 0.000000
vn -1.000000 0.000000 0.000000
vn -1.000000 0.000000 0.000000
vn -1.000000 0.000000 0.000000
vn -1.000000 0.000000 0.000000
vn -1.000000 0.000000 0.000000
vn -1.000000 0.000000 0.000000
vn -1.000000 0.000000 0.000000
vn -1.000000 0.000000 0.000000
vn 0.000000 1.000000 0.000000
vn 0.000000 1.000000 0.000000
vn 0.000000 0.000000 1.000000
vn 0.000000 0.000000 1.000000
vn 0.000000 0.000000 1.000000
vn 0.000000 0.000000 1.000000
vn 0.000000 1.000000 0.000000
vn 0.000000 1.000000 0.000000
vn 0.000000 1.000000 0.000000
vn 0.000000 1.000000 0.000000
vn 0.000000 0.000000 -1.000000
vn 0.000000 0.000000 -1.000000
vn 0.000000 0.000000 -1.000000
vn 0.000000 0.000000 -1.000000
vn 0.000000 0.000000 1.000000
vn 0.000000 0.000000 1.000000
vn 0.000000 1.000000 0.000000
vn 0.000000 1.000000 0.000000
vn 0.999925 0.000000 -0.012245
vn 0.999925 0.000000 -0.012245
vn 0.999925 0.000000 -0.012245
vn 0.999925 0.000000 -0.012245
vn -0.999914 0.000000 -0.013097
vn -0.999914 0.000000 -0.013097
vn -0.999914 0.000000 -0.013097
vn -0.999914 0.000000 -0.013097
vn 0.000000 1.000000 0.000000
vn 0.000000 1.000000 0.000000
vn 0.000000 1.000000 0.000000
vn 0.000000 1.000000 0.000000
vn 0.742963 0.000000 -0.669332
vn 0.742963 0.000000 -0.669332
vn 0.742963 0.000000 -0.669332
vn 0.742963 0.000000 -0.669332
vn -0.752990 0.000000 0.658032
vn -0.752990 0.000000 0.658032
vn -0.752990 0.000000 0.658032
vn -0.752990 0.000000 0.658032
vn 0.000000 1.000000 0.000000
vn 0.000000 1.000000 0.000000
vn 0.000000 1.000000 0.000000
vn 0.000000 1.000000 0.000000
vn 0.999992 0.000000 -0.004033
vn 0.999992 0.000000 -0.004033
vn 0.999992 0.000000 -0.004033
vn 0.999992 0.000000 -0.004033
vn -0.999992 0.000000 -0.003916
vn -0.999992 0.000000 -0.003916
vn -0.999992 0.000000 -0.003916
vn -0.999992 0.000000 -0.003916
vn 0.000000 1.000000 0.000000
vn 0.000000 1.000000 0.000000
vn 0.000000 1.000000 0.000000
vn 0.000000 1.000000 0.000000
vn 0.836121 0.000000 0.548544
vn 0.836121 0.000000 0.548544
vn 0.836121 0.000000 0.548544
vn 0.836121 0.000000 0.548544
vn -0.828183 0.000000 -0.560458
vn -0.828183 0.000000 -0.560458
vn -0.828183 0.000000 -0.560458
vn -0.828183 0.000000 -0.560458
vn 0.000000 1.000000 0.000000
vn 0.000000 1.000000 0.000000
vn 0.000000 1.000000 0.000000
vn 0.000000 1.000000 0.000000
vn -0.001929 0.000000 0.999998
vn -0.001929 0.000000 0.999998
vn -0.001929 0.000000 0.999998
vn -0.001929 0.000000 0.999998
vn -0.001889 0.000000 -0.999998
vn -0.001889 0.000000 -0.999998
vn -0.001889 0.000000 -0.999998
vn -0.001889 0.000000 -0.999998
vn 0.000000 1.000000 0.000000
vn 0.000000 1.000000 0.000000
vn 0.000000 1.000000 0.000000
vn 0.000000 1.000000 0.000000
vn 0.000000 0.000000 1.000000
vn 0.000000 0.000000 1.000000
vn 0.000000 0.000000 1.000000
vn 0.000000 0.000000 1.000000
vn 0.000000 1.000000 0.000000
vn 0.000000 1.000000 0.000000
vn 0.000000 1.000000 0.000000
vn 0.000000 1.000000 0.000000
vn 0.000000 0.000000 -1.000000
vn 0.000000 0.000000 -1.000000
vn 0.000000 0.000000 -1.000000
vn 0.000000 0.000000 -1.000000
vn -1.000000 0.000000 0.000000
vn -1.000000 0.000000 0.000000
vn -1.000000 0.000000 0.000000
vn -1.000000 0.000000 0.000000
vn 1.000000 0.000000 0.000000
vn 1.000000 0.000000 0.000000
vn 1.000000 0.000000 0.000000
vn 1.000000 0.000000 0.000000
vn 0.000000 1.000000 0.000000
vn 0.000000 1.000000 0.000000
vn 0.000000 1.000000 0.000000
vn 0.000000 1.000000 0.000000
vn -1.000000 0.000000 0.000000
vn -1.000000 0.000000 0.000000
vn -1.000000 0.000000 0.000000
vn -1.000000 0.000000 0.000000
vn 0.000000 1.000000 0.000000
vn 0.000000 1.000000 0.000000
vn 0.000000 1.000000 0.000000
vn 0.000000 1.000000 0.000000
vn 1.000000 0.000000 0.000000
vn 1.000000 0.000000 0.000000
vn 1.000000 0.000000 0.000000
vn 1.000000 0.000000 0.000000
vn -1.000000 0.000000 0.000000
vn -1.000000 0.000000 0.000000
vn 0.000000 1.000000 0.000000
vn 0.000000 1.000000 0.000000
vn 1.000000 0.000000 0.000000
vn 1.000000 0.000000 0.000000
vn 1.000000 0.000000 0.000000
vn 1.000000 0.000000 0.000000
vn 0.000000 0.000000 -1.000000
vn 0.000000 0.000000 -1.000000
vn 0.000000 0.000000 -1.000000
vn 0.000000 0.000000 -1.000000
vn 0.000000 1.000000 0.000000
vn 0.000000 1.000000 0.000000
vn 0.000000 1.000000 0.000000
vn 0.000000 1.000000 0.000000
vn 0.000000 0.000000 1.000000
vn 0.000000 0.000000 1.000000
vn 0.000000 0.000000 1.000000
vn 0.000000 0.000000 1.000000
vn 0.000000 0.000000 -1.000000
vn 0.000000 0.000000 -1.000000
vn 0.000000 0.000000 -1.000000
vn 0.000000 0.000000 -1.000000
vn 0.000000 0.000000 1.000000
vn 0.000000 0.000000 1.000000
vn 0.000000 1.000000 0.000000
vn 0.000000 1.000000 0.000000
vn -1.000000 0.000000 0.000000
vn -1.000000 0.000000 0.000000
vn -1.000000 0.000000 0.000000
vn -1.000000 0.000000 0.000000
vn 0.000000 1.000000 0.000000
vn 0.000000 1.000000 0.000000
vn 0.000000 1.000000 0.000000
vn 0.000000 1.000000 0.000000
vn 1.000000 0.000000 0.000000
vn 1.000000 0.000000 0.000000
vn 1.000000 0.000000 0.000000
vn 1.000000 0.000000 0.000000
vn 1.000000 0.000000 0.000000
vn 1.000000 0.000000 0.000000
vn 1.000000 0.000000 0.000000
vn 1.000000 0.000000 0.000000
vn 0.000000 1.000000 0.000000
vn 0.000000 1.000000 0.000000
vn 0.000000 0.000000 1.000000
vn 0.000000 0.000000 1.000000
vn 0.000000 0.000000 1.000000
vn 0.000000 0.000000 1.000000
vn 0.000000 0.000000 -1.000000
vn 0.000000 0.000000 -1.000000
vn 0.000000 0.000000 -1.000000
vn 0.000000 0.000000 -1.000000
vn 0.000000 1.000000 0.000000
vn 0.000000 1.000000 0.000000
vn 0.000000 1.000000 0.000000
vn 0.000000 1.000000 0.000000
vn -0.047555 0.000000 0.998869
vn -0.047555 0.000000 0.998869
vn -0.047555 0.000000 0.998869
vn -0.047555 0.000000 0.998869
vn 0.000000 1.000000 0.000000
vn 0.000000 1.000000 0.000000
vn 0.000000 1.000000 0.000000
vn 0.000000 1.000000 0.000000
vn 0.047554 0.000000 -0.998869
vn 0.047554 0.000000 -0.998869
vn 0.047554 0.000000 -0.998869
vn 0.047554 0.000000 -0.998869
vn 0.000000 0.000000 1.000000
vn 0.000000 0.000000 1.000000
vn 0.000000 1.000000 0.000000
vn 0.000000 1.000000 0.000000
vn 0.000000 0.000000 -1.000000
vn 0.000000 0.000000 -1.000000
vn 0.000000 0.000000 -1.000000
vn 0.000000 0.000000 -1.000000
vn -1.000000 0.000000 0.000000
vn -1.000000 0.000000 0.000000
vn -1.000000 0.000000 0.000000
vn -1.000000 0.000000 0.000000
vn 0.000000 1.000000 0.000000
vn 0.000000 1.000000 0.000000
vn 0.000000 1.000000 0.000000
vn 0.000000 1.000000 0.000000
vn 1.000000 0.000000 0.000000
vn 1.000000 0.000000 0.000000
vn 1.000000 0.000000 0.000000
vn 1.000000 0.000000 0.000000
vn -1.000000 0.000000 0.000000
vn -1.000000 0.000000 0.000000
vn -1.000000 0.000000 0.000000
vn -1.000000 0.000000 0.000000
vn 1.000000 0.000000 0.000000
vn 1.000000 0.000000 0.000000
vn 0.000000 1.000000 0.000000
vn 0.000000 1.000000 0.000000
vn 0.000000 0.000000 1.000000
vn 0.000000 0.000000 1.000000
vn 0.000000 0.000000 1.000000
vn 0.000000 0.000000 1.000000
vn 0.000000 1.000000 0.000000
vn 0.000000 1.000000 0.000000
vn 0.000000 1.000000 0.000000
vn 0.000000 1.000000 0.000000
vn 0.000000 0.000000 -1.000000
vn 0.000000 0.000000 -1.000000
vn 0.000000 0.000000 -1.000000
vn 0.000000 0.000000 -1.000000
vn 0.000000 0.000000 1.000000
vn 0.000000 0.000000 1.000000
vn 0.000000 0.000000 1.000000
vn 0.000000 0.000000 1.000000
vn 0.000000 0.000000 -1.000000
vn 0.000000 0.000000 -1.000000
vn 0.000000 0.000000 -1.000000
vn 0.000000 0.000000 -1.000000
vn 0.000000 1.000000 0.000000
vn 0.000000 1.000000 0.000000
vn 0.000000 1.000000 0.000000
vn 0.000000 1.000000 0.000000
vn 1.000000 0.000000 0.000000
vn 1.000000 0.000000 0.000000
vn 1.000000 0.000000 0.000000
vn 1.000000 0.000000 0.000000
vn -0.000004 1.000000 0.000001
vn -0.000004 1.000000 0.000001
vn -0.000004 1.000000 0.000001
vn -0.000004 1.000000 0.000001
vn -1.000000 0.000000 0.000000
vn -1.000000 0.000000 0.000000
vn -1.000000 0.000000 0.000000
vn -1.000000 0.000000 0.000000
vn 1.000000 0.000000 0.000000
vn 1.000000 0.000000 0.000000
vn -1.000000 0.000000 0.000000
vn -1.000000 0.000000 0.000000
vn -1.000000 0.000000 0.000000
vn -1.000000 0.000000 0.000000
vn -0.000006 1.000000 -0.000002
vn -0.000006 1.000000 -0.000002
vn 1.000000 0.000000 0.000000
vn 1.000000 0.000000 0.000000
vn -1.000000 0.000000 0.000000
vn -1.000000 0.000000 0.000000
vn -1.000000 0.000000 0.000000
vn -1.000000 0.000000 0.000000
vn -0.000004 1.000000 -0.000004
vn -0.000004 1.000000 -0.000004
vn -0.000000 0.000000 -1.000000
vn -0.000000 0.000000 -1.000000
vn -0.000000 0.000000 -1.000000
vn -0.000000 0.000000 -1.000000
vn 0.000000 0.000000 1.000000
vn 0.000000 0.000000 1.000000
vn 0.000000 0.000000 1.000000
vn 0.000000 0.000000 1.000000
vn 0.000001 1.000000 0.000000
vn 0.000001 1.000000 0.000000
vn 0.000001 1.000000 0.000000
vn 0.000001 1.000000 0.000000
vn 0.000000 0.000000 1.000000
vn 0.000000 0.000000 1.000000
vn 0.000000 0.000000 1.000000
vn 0.000000 0.000000 1.000000
vn 0.000000 0.000000 -1.000000
vn 0.000000 0.000000 -1.000000
vn 0.000000 1.000000 0.000000
vn 0.000000 1.000000 0.000000
vn 0.000000 0.000000 -1.000000
vn 0.000000 0.000000 -1.000000
vn 0.000000 0.000000 -1.000000
vn 0.000000 0.000000 -1.000000
vn 1.000000 0.000000 0.000000
vn 1.000000 0.000000 0.000000
vn 1.000000 0.000000 0.000000
vn 1.000000 0.000000 0.000000
vn -1.000000 0.000000 0.000000
vn -1.000000 0.000000 0.000000
vn -1.000000 0.000000 0.000000
vn -1.000000 0.000000 0.000000
vn 0.000000 1.000000 0.000000
vn 0.000000 1.000000 0.000000
vn 0.000000 1.000000 0.000000
vn 0.000000 1.000000 0.000000
vn -0.627838 0.000000 -0.778344
vn -0.627838 0.000000 -0.778344
vn -0.627838 0.000000 -0.778344
vn -0.627838 0.000000 -0.778344
vn 0.000000 1.000000 -0.000005
vn 0.000000 1.000000 -0.000005
vn 0.000000 1.000000 -0.000005
vn 0.000000 1.000000 -0.000005
vn 0.627838 0.000000 0.778344
vn 0.627838 0.000000 0.778344
vn 0.627838 0.000000 0.778344
vn 0.627838 0.000000 0.778344
vn -1.000000 0.000000 0.000000
vn -1.000000 0.000000 0.000000
vn -1.000000 0.000000 0.000000
vn -1.000000 0.000000 0.000000
vn 0.000000 1.000000 0.000000
vn 0.000000 1.000000 0.000000
vn 0.000000 1.000000 0.000000
vn 0.000000 1.000000 0.000000
vn 1.000000 0.000000 0.000000
vn 1.000000 0.000000 0.000000
vn 1.000000 0.000000 0.000000
vn 1.000000 0.000000 0.000000
vn -0.998826 0.000000 0.048439
vn -0.998826 0.000000 0.048439
vn -0.998826 0.000000 0.048439
vn -0.998826 0.000000 0.048439
vn 1.000000 0.000000 0.000000
vn 1.000000 0.000000 0.000000
vn 0.000000 1.000000 0.000000
vn 0.000000 1.000000 0.000000
vn -0.006101 0.000000 0.999981
vn -0.006101 0.000000 0.999981
vn -0.006101 0.000000 0.999981
vn -0.006101 0.000000 0.999981
vn 0.000000 1.000000 -0.000003
vn 0.000000 1.000000 -0.000003
vn 0.000000 1.000000 -0.000003
vn 0.000000 1.000000 -0.000003
vn -0.006396 0.000000 -0.999979
vn -0.006396 0.000000 -0.999979
vn -0.006396 0.000000 -0.999979
vn -0.006396 0.000000 -0.999979
vn -0.622198 0.000000 0.782860
vn -0.622198 0.000000 0.782860
vn -0.622198 0.000000 0.782860
vn -0.622198 0.000000 0.782860
vn 0.000000 1.000000 -0.000002
vn 0.000000 1.000000 -0.000002
vn 0.000000 1.000000 -0.000002
vn 0.000000 1.000000 -0.000002
vn 0.612682 0.000000 -0.790330
vn 0.612682 0.000000 -0.790330
vn 0.612682 0.000000 -0.790330
vn 0.612682 0.000000 -0.790330
vn -0.002975 0.000000 0.999996
vn -0.002975 0.000000 0.999996
vn -0.002975 0.000000 0.999996
vn -0.002975 0.000000 0.999996
vn 0.000000 1.000000 0.000000
vn 0.000000 1.000000 0.000000
vn 0.000000 1.000000 0.000000
vn 0.000000 1.000000 0.000000
vn -0.002924 0.000000 -0.999996
vn -0.002924 0.000000 -0.999996
vn -0.002924 0.000000 -0.999996
vn -0.002924 0.000000 -0.999996
vn 0.643219 0.000000 0.765682
vn 0.643219 0.000000 0.765682
vn 0.643219 0.000000 0.765682
vn 0.643219 0.000000 0.765682
vn 0.000000 1.000000 0.000000
vn 0.000000 1.000000 0.000000
vn 0.000000 1.000000 0.000000
vn 0.000000 1.000000 0.000001
vn -0.654345 0.000000 -0.756196
vn -0.654345 0.000000 -0.756196
vn -0.654345 0.000000 -0.756196
vn -0.654345 0.000000 -0.756196
vn 0.000000 0.000000 1.000000
vn 0.000000 0.000000 1.000000
vn 0.000000 0.000000 1.000000
vn 0.000000 0.000000 1.000000
vn 0.000000 1.000000 -0.000005
vn 0.000000 1.000000 -0.000005
vn 0.000000 1.000000 -0.000004
vn 0.000000 1.000000 -0.000005
vn -0.001794 -0.001592 -0.999997
vn -0.001794 -0.001592 -0.999997
vn -0.001794 -0.001592 -0.999997
vn -0.001794 -0.001592 -0.999997
vn 0.000004 0.000000 1.000000
vn 0.000004 0.000000 1.000000
vn 0.000004 0.000000 1.000000
vn 0.000004 0.000000 1.000000
vn -0.654343 0.000000 -0.756198
vn -0.654343 0.000000 -0.756198
vn 0.000000 1.000000 0.000003
vn 0.000000 1.000000 0.000003
vn 1.000000 0.000000 0.000000
vn 1.000000 0.000000 0.000000
vn 1.000000 0.000000 0.000000
vn 1.000000 0.000000 0.000000
vn 0.000000 1.000000 0.000000
vn 0.000000 1.000000 0.000000
vn 0.000000 1.000000 0.000000
vn 0.000000 1.000000 0.000000
vn -1.000000 0.000000 0.000000
vn -1.000000 0.000000 0.000000
vn -1.000000 0.000000 0.000000
vn -1.000000 0.000000 0.000000
vn 1.000000 0.000000 0.000000
vn 1.000000 0.000000 0.000000
vn -1.000000 0.000000 0.000000
vn -1.000000 0.000000 0.000000
vn -1.000000 0.000000 0.000000
vn -1.000000 0.000000 0.000000
vn 0.000000 1.000000 0.000000
vn 0.000000 1.000000 0.000000
vn 1.000000 0.000000 0.000000
vn 1.000000 0.000000 0.000000
vn -1.000000 0.000000 0.000000
vn -1.000000 0.000000 0.000000
vn -1.000000 0.000000 0.000000
vn -1.000000 0.000000 0.000000
vn 0.000000 1.000000 0.000000
vn 0.000000 1.000000 0.000000
vn 0.000000 0.000000 -1.000000
vn 0.000000 0.000000 -1.000000
vn 0.000000 0.000000 -1.000000
vn 0.000000 0.000000 -1.000000
vn 0.000000 0.000000 1.000000
vn 0.000000 0.000000 1.000000
vn 0.000000 0.000000 1.000000
vn 0.000000 0.000000 1.000000
vn 0.000000 1.000000 0.000000
vn 0.000000 1.000000 0.000000
vn 0.000000 1.000000 0.000000
vn 0.000000 1.000000 0.000000
vn 0.000000 0.000000 1.000000
vn 0.000000 0.000000 1.000000
vn 0.000000 0.000000 1.000000
vn 0.000000 0.000000 1.000000
vn 0.000000 0.000000 -1.000000
vn 0.000000 0.000000 -1.000000
vn 0.000000 0.000000 -1.000000
vn 0.000000 0.000000 -1.000000
vn 0.000000 1.000000 0.000000
vn 0.000000 1.000000 0.000000
vn 1.000000 0.000000 0.000000
vn 1.000000 0.000000 0.000000
vn 1.000000 0.000000 0.000000
vn 1.000000 0.000000 0.000000
vn 0.000000 1.000000 0.000000
vn 0.000000 1.000000 0.000000
vn 0.000000 1.000000 0.000000
vn 0.000000 1.000000 0.000000
vn -1.000000 0.000000 -0.000000
vn -1.000000 0.000000 -0.000000
vn -1.000000 0.000000 0.000000
vn -1.000000 0.000000 0.000000
vn 1.000000 0.000000 0.000000
vn 1.000000 0.000000 0.000000
vn 1.000000 0.000000 0.000000
vn 1.000000 0.000000 0.000000
vn -1.000000 0.000000 0.000004
vn -1.000000 0.000000 0.000004
vn 0.000000 1.000000 0.000000
vn 0.000000 1.000000 0.000000
vn 0.000000 0.000000 -1.000000
vn 0.000000 0.000000 -1.000000
vn 0.000000 0.000000 -1.000000
vn 0.000000 0.000000 -1.000000
vn 0.000000 1.000000 0.000000
vn 0.000000 1.000000 0.000000
vn 0.000000 1.000000 0.000000
vn 0.000000 1.000000 0.000000
vn 0.000000 0.000000 1.000000
vn 0.000000 0.000000 1.000000
vn 0.000000 0.000000 1.000000
vn 0.000000 0.000000 1.000000
vn 0.999933 0.006170 -0.009781
vn 0.999933 0.006170 -0.009781
vn 0.999937 0.005974 -0.009470
vn 0.999937 0.005974 -0.009469
vn -1.000000 0.000000 0.000000
vn -1.000000 0.000000 0.000000
vn -1.000000 0.000000 0.000000
vn -1.000000 0.000000 0.000000
vn 0.000000 1.000000 0.000000
vn 0.000000 1.000000 0.000000
vn 0.000000 1.000000 0.000000
vn 0.000000 1.000000 0.000000
vn 1.000000 0.000000 0.000000
vn 1.000000 0.000000 0.000000
vn 0.000000 1.000000 0.000000
vn 0.000000 1.000000 0.000000
vn -1.000000 0.000000 0.000000
vn -1.000000 0.000000 0.000000
vn -1.000000 0.000000 0.000000
vn -1.000000 0.000000 0.000000
vn 0.000000 0.000000 1.000000
vn 0.000000 0.000000 1.000000
vn 0.000000 0.000000 1.000000
vn 0.000000 0.000000 1.000000
vn 0.000000 1.000000 0.000000
vn 0.000000 1.000000 0.000000
vn 0.000000 1.000000 0.000000
vn 0.000000 1.000000 0.000000
vn 0.000000 0.000000 -1.000000
vn 0.000000 0.000000 -1.000000
vn 0.000000 0.000000 -1.000000
vn 0.000000 0.000000 -1.000000
vn 0.000000 0.000000 1.000000
vn 0.000000 0.000000 1.000000
vn 0.000000 0.000000 1.000000
vn 0.000000 0.000000 1.000000
vn 0.000000 0.000000 -1.000000
vn 0.000000 0.000000 -1.000000
vn 0.000000 1.000000 0.000000
vn 0.000000 1.000000 0.000000
vn 0.999998 0.000000 -0.002100
vn 0.999998 0.000000 -0.002100
vn 0.999998 0.000000 -0.002101
vn 0.999998 0.000000 -0.002101
vn 0.000000 1.000000 -0.000000
vn 0.000000 1.000000 -0.000000
vn 0.000000 1.000000 -0.000000
vn 0.000000 1.000000 -0.000000
vn -0.999998 0.000000 0.002100
vn -0.999998 0.000000 0.002100
vn -0.999998 0.000000 0.002100
vn -0.999998 0.000000 0.002100
vn 0.999998 0.000000 -0.002101
vn 0.999998 0.000000 -0.002101
vn 0.999998 0.000000 -0.002101
vn 0.999998 0.000000 -0.002101
vn -0.999998 0.000000 0.002101
vn -0.999998 0.000000 0.002101
vn -0.999998 0.000000 0.002101
vn -0.999998 0.000000 0.002101
vn 0.000000 1.000000 -0.000000
vn 0.000000 1.000000 -0.000000
vn 0.000000 1.000000 0.000000
vn 0.000000 1.000000 0.000000
vn 0.000000 0.000000 -1.000000
vn 0.000000 0.000000 -1.000000
vn 0.000000 0.000000 -1.000000
vn 0.000000 0.000000 -1.000000
vn 0.000000 0.000000 1.000000
vn 0.000000 0.000000 1.000000
vn 0.000000 0.000000 1.000000
vn 0.000000 0.000000 1.000000
vn 0.000000 1.000000 0.000000
vn 0.000000 1.000000 0.000000
vn 0.000000 1.000000 0.000000
vn 0.000000 1.000000 0.000000
vn 0.000000 0.000000 1.000000
vn 0.000000 0.000000 1.000000
vn 0.000000 0.000000 1.000000
vn 0.000000 0.000000 1.000000
vn 0.000000 0.000000 -1.000000
vn 0.000000 0.000000 -1.000000
vn 0.000000 0.000000 -1.000000
vn 0.000000 0.000000 -1.000000
vn 0.000000 1.000000 0.000000
vn 0.000000 1.000000 0.000000
vn 0.000000 1.000000 0.000000
vn 0.000000 1.000000 0.000000
vn 1.000000 0.000000 0.000000
vn 1.000000 0.000000 0.000000
vn 1.000000 0.000000 0.000000
vn 1.000000 0.000000 0.000000
vn -0.000000 -0.000000 1.000000
vn -0.000000 -0.000000 1.000000
vn 0.000000 1.000000 0.000000
vn 0.000000 1.000000 0.000000
vn 0.000000 0.000000 -1.000000
vn 0.000000 0.000000 -1.000000
vn 0.000000 0.000000 -1.000000
vn 0.000000 0.000000 -1.000000
vn -0.000000 -0.000000 1.000000
vn 0.000000 0.000000 1.000000
vn 0.000000 1.000000 0.000000
vn 0.000000 1.000000 0.000000
vn 0.005193 -0.006469 -0.999966
vn 0.005193 -0.006469 -0.999966
vn 0.005193 -0.006469 -0.999966
vn 0.005193 -0.006469 -0.999966
vn -1.000000 0.000000 0.000000
vn -1.000000 0.000000 0.000000
vn -1.000000 0.000000 0.000000
vn -1.000000 0.000000 0.000000
vn 0.000000 1.000000 0.000000
vn 0.000000 1.000000 0.000000
vn 0.000000 1.000000 0.000000
vn 0.000000 1.000000 0.000000
vn 1.000000 0.000000 0.000000
vn 1.000000 0.000000 0.000000
vn 1.000000 0.000000 0.000000
vn 1.000000 0.000000 0.000000
vn -1.000000 0.000000 0.000000
vn -1.000000 0.000000 0.000000
vn -1.000000 0.000000 0.000000
vn -1.000000 0.000000 0.000000
vn 0.003608 0.000000 -0.999993
vn 0.003608 0.000000 -0.999993
vn 0.003608 0.000000 -0.999993
vn 0.003608 0.000000 -0.999993
vn -0.000627 0.000000 1.000000
vn -0.000627 0.000000 1.000000
vn -0.000627 0.000000 1.000000
vn -0.000627 0.000000 1.000000
vn 0.000000 1.000000 -0.000002
vn 0.000000 1.000000 -0.000002
vn 0.000000 1.000000 -0.000002
vn 0.000000 1.000000 -0.000002
vn 0.000000 -0.000000 1.000000
vn 0.000000 -0.000000 1.000000
vn 0.000000 0.000000 1.000000
vn 0.000000 1.000000 0.000000
vn 0.000000 1.000000 0.000000
vn -0.021568 -0.006468 -0.999747
vn -0.021568 -0.006468 -0.999747
vn -0.021568 -0.006468 -0.999747
vn -0.021568 -0.006468 -0.999747
vn 0.000000 -0.000000 1.000000
vn -0.000000 -0.000000 1.000000
vn 0.000000 0.000000 1.000000
vn 0.000000 0.000000 1.000000
vn 0.000000 0.000000 1.000000
vn -1.000000 0.000000 -0.000002
vn -1.000000 0.000000 -0.000002
vn -1.000000 0.000000 -0.000002
vn -1.000000 0.000000 -0.000002
vn -1.000000 0.000000 -0.000002
vn 1.000000 -0.000000 0.000002
vn 1.000000 -0.000000 0.000002
vn 1.000000 -0.000000 0.000002
vn 1.000000 -0.000000 0.000002
vn 1.000000 -0.000000 0.000002
vn -0.000000 -0.286518 -0.958075
vn -0.000000 -0.286518 -0.958075
vn -0.000000 -0.286518 -0.958075
vn -0.000000 -0.286518 -0.958075
vn 0.000000 1.000000 -0.000064
vn 0.000000 0.405827 -0.913950
vn 0.000000 0.405828 -0.913950
vn 0.000000 1.000000 -0.000064
vn 0.000000 0.216744 -0.976229
vn 0.000000 0.216744 -0.976229
vn 0.000000 0.000000 1.000000
vn 0.000000 0.000000 1.000000
vn 0.000000 0.000000 1.000000
vn 0.000000 0.000000 1.000000
vn 0.000000 1.000000 0.000000
vn 0.000000 1.000000 0.000000
vn 0.000000 1.000000 0.000000
vn 0.000000 1.000000 0.000000
vn 0.000000 -1.000000 0.000000
vn 0.000000 -1.000000 0.000000
vn 0.000000 -1.000000 0.000000
vn 0.000000 -1.000000 0.000000
vn -0.999876 0.014586 0.005904
vn -0.999806 0.019360 0.003709
vn -0.999777 0.020225 0.006051
vn -0.999777 0.020225 0.006051
vn 0.000000 -1.000000 0.000000
vn 0.000000 -1.000000 0.000000
vn 0.000000 -1.000000 0.000000
vn 0.000000 -1.000000 0.000000
vn 0.000000 0.000000 1.000000
vn 0.000000 0.000000 1.000000
vn 0.000000 0.000000 1.000000
vn 0.000000 0.000000 1.000000
vn 0.000447 0.928020 0.372530
vn 0.000129 0.942877 0.333140
vn 0.000127 0.942973 0.332868
vn 0.000447 0.928020 0.372530
vn 0.000000 -1.000000 0.000000
vn 0.000000 -1.000000 0.000000
vn 0.000000 -1.000000 0.000000
vn 0.000000 -1.000000 0.000000
vn 0.000000 0.942832 0.333270
vn 0.000000 0.942832 0.333270
vn 0.000000 0.927614 0.373540
vn 0.000000 0.927614 0.373540
vn -0.000002 0.000000 1.000000
vn -0.000002 0.000000 1.000000
vn -0.000002 0.000000 1.000000
vn -0.000002 0.000000 1.000000
vn -0.999989 0.002597 0.003983
vn -0.999999 0.001638 0.000000
vn -0.999992 0.002402 0.003174
vn 0.000000 -1.000000 0.000000
vn 0.000000 -1.000000 0.000000
vn 0.000000 -1.000000 0.000000
vn 0.000000 -1.000000 0.000000
vn 0.000000 -1.000000 0.000000
vn 0.000000 -1.000000 0.000000
vn 0.000000 -1.000000 0.000000
vn 0.000000 -1.000000 0.000000
vn -0.999949 0.008525 0.005367
vn -0.999968 0.006801 0.004321
vn -0.999927 0.011182 0.004573
vn 0.000000 -1.000000 0.000000
vn 0.000000 -1.000000 0.000000
vn 0.000000 -1.000000 0.000000
vn 0.000000 -1.000000 0.000000
vn 0.000000 -1.000000 0.000000
vn 0.000000 -1.000000 0.000000
vn 0.000000 -1.000000 0.000000
vn 0.000000 -1.000000 0.000000
vn 0.000000 -1.000000 0.000000
vn 0.000000 -1.000000 0.000000
vn 0.000000 -1.000000 0.000000
vn 0.000000 -1.000000 0.000000
vn -0.999982 0.004114 0.004428
vn -0.999975 0.005946 0.003747
vn -0.000000 0.948472 0.316861
vn -0.000000 0.948472 0.316861
vn 0.018338 0.954971 0.296134
vn 0.018526 0.955033 0.295920
vn 1.000000 -0.000000 0.000000
vn 1.000000 -0.000000 0.000000
vn 1.000000 -0.000001 0.000000
vn 1.000000 -0.000000 0.000000
vn 1.000000 -0.000001 0.000000
vn 1.000000 0.000000 0.000000
vn 0.000000 -1.000000 0.000000
vn 0.000000 -1.000000 0.000000
vn 0.000000 -1.000000 0.000000
vn 0.000000 -1.000000 0.000000
vn 0.000000 -1.000000 0.000000
vn 0.000000 -1.000000 0.000000
vn 0.000000 -1.000000 0.000000
vn 0.000000 -1.000000 0.000000
vn 0.000000 -1.000000 0.000000
vn 0.000000 -1.000000 0.000000
vn 0.000000 0.960609 0.277904
vn 0.000000 0.960609 0.277904
vn 0.000000 0.948473 0.316859
vn 0.000000 0.948473 0.316859
vn 0.000000 1.000000 0.000000
vn 0.000000 1.000000 0.000000
vn 0.000000 1.000000 0.000000
vn 0.000000 1.000000 0.000000
vn -0.999908 0.012363 0.005544
vn 0.000000 1.000000 0.000008
vn 0.000000 1.000000 0.000008
vn 0.000000 1.000000 0.000008
vn 0.000000 1.000000 0.000008
vn 0.000000 -1.000000 0.000000
vn 0.000000 -1.000000 0.000000
vn 0.000000 -1.000000 0.000000
vn 0.000000 -1.000000 0.000000
vn 0.000000 -1.000000 0.000000
vn 0.000000 -1.000000 0.000000
vn -0.999989 0.003044 0.003527
vn 0.000000 -1.000000 0.000000
vn 0.000000 -1.000000 0.000000
vn 0.000000 -1.000000 0.000000
vn 0.000000 -1.000000 0.000000
vn 0.000000 -1.000000 0.000000
vn 0.000000 -1.000000 0.000000
vn 1.000000 -0.000000 0.000000
vn 1.000000 0.000000 0.000000
vn 1.000000 -0.000000 0.000000
vn 0.034562 0.960080 0.277582
vn 0.034562 0.960080 0.277582
vn 0.000000 1.000000 0.000000
vn 0.000000 1.000000 0.000000
vn 0.000000 1.000000 0.000000
vn 0.000000 1.000000 0.000000
vn 0.000000 0.968966 0.247196
vn 0.000000 0.968966 0.247196
vn 1.000000 -0.000000 0.000000
vn 1.000000 0.000000 0.000000
vn 1.000000 -0.000001 0.000000
vn 0.999394 -0.034165 -0.006742
vn 0.999394 -0.034165 -0.006742
vn 0.999394 -0.034165 -0.006742
vn 0.999394 -0.034165 -0.006742
vn 0.000003 0.000000 1.000000
vn 0.000003 0.000000 1.000000
vn 0.000003 0.000000 1.000000
vn 0.999049 0.000000 -0.043598
vn 0.999049 0.000000 -0.043598
vn 0.999049 0.000000 -0.043598
vn 0.999784 -0.019864 -0.006167
vn 0.999784 -0.019864 -0.006167
vn 0.999784 -0.019864 -0.006167
vn 0.999784 -0.019864 -0.006167
vn 0.999552 -0.028928 -0.007729
vn 0.999552 -0.028928 -0.007729
vn 0.999552 -0.028928 -0.007729
vn 0.999552 -0.028928 -0.007729
vn 0.999426 0.000000 -0.033863
vn 0.999427 0.000000 -0.033863
vn 0.999426 0.000000 -0.033863
vn 0.999932 -0.011123 -0.003532
vn 0.999932 -0.011123 -0.003532
vn 0.999932 -0.011123 -0.003532
vn 0.999932 -0.011123 -0.003532
vn 0.998735 -0.000001 -0.050274
vn 0.998735 -0.000001 -0.050273
vn 0.998735 -0.000001 -0.050273
vn -1.000000 0.000001 0.000000
vn -1.000000 0.000001 0.000000
vn -1.000000 0.000001 0.000000
vn -1.000000 0.000001 0.000000
vn 0.000000 0.000000 1.000000
vn 0.000000 0.000000 1.000000
vn 0.000000 0.000000 1.000000
vn 1.000000 0.000000 0.000000
vn 1.000000 0.000000 0.000000
vn -1.000000 0.000000 0.000000
vn -1.000000 0.000000 0.000000
vn -1.000000 0.000000 0.000000
vn -1.000000 0.000002 0.000000
vn -1.000000 0.000002 0.000000
vn -1.000000 0.000002 0.000000
vn -1.000000 0.000002 0.000000
vn -1.000000 -0.000001 0.000000
vn -1.000000 -0.000001 0.000000
vn -1.000000 -0.000001 0.000000
vn -1.000000 -0.000001 0.000000
vn -1.000000 0.000008 0.000000
vn -1.000000 0.000008 0.000000
vn -1.000000 0.000008 0.000000
vn -1.000000 -0.000000 0.000000
vn -1.000000 -0.000000 0.000000
vn -1.000000 -0.000000 0.000000
vn -1.000000 -0.000000 0.000000
vn -1.000000 0.000000 0.000000
vn -1.000000 0.000000 0.000000
vn -1.000000 0.000000 0.000000
vn 0.000000 0.000010 1.000000
vn 0.000000 0.000010 1.000000
vn 0.000000 0.000010 1.000000
vn 0.000000 0.000010 1.000000
vn 0.000000 0.000000 1.000000
vn 0.000000 0.000000 1.000000
vn 0.000000 0.000000 1.000000
vn 0.000000 0.000000 1.000000
vn 0.000000 0.000039 1.000000
vn 0.000000 0.000039 1.000000
vn 0.000000 0.000039 1.000000
vn 0.000000 0.000039 1.000000
vn -0.054634 0.067510 -0.996222
vn 0.000000 0.164826 -0.986323
vn -0.074800 0.031063 -0.996715
vn -0.234341 0.187054 -0.953989
vn -0.177167 0.127811 -0.975846
vn -0.266778 0.220850 -0.938112
vn -0.266778 0.220850 -0.938112
vn 0.016955 0.056737 -0.998245
vn 0.016955 0.056737 -0.998245
vn 0.016955 0.056737 -0.998245
vn 0.016955 0.056737 -0.998245
vn 0.000000 -0.053363 -0.998575
vn -0.086562 0.009670 -0.996200
vn -0.086562 0.009670 -0.996200
s off
g map
usemtl initialShadingGroup
f 6/1/1 5/2/2 7/3/3 8/4/4
f 2/5/5 1/6/6 9/7/7 10/8/8
s 1
f 1/6/9 3/9/10 12/10/11 9/7/12
s off
f 3/9/13 4/11/14 11/12/15 12/10/16
f 18/13/17 17/14/18 19/15/19 20/16/20
f 14/17/21 13/18/22 15/19/23 16/20/24
s 1
f 9/7/12 12/10/11 7/3/25 5/2/26
s off
f 12/10/27 11/12/28 13/18/29 14/17/30
f 8/4/31 7/3/32 16/20/33 15/19/34
f 7/3/35 12/10/36 14/17/37 16/20/38
f 10/8/39 9/7/40 17/14/41 18/13/42
f 9/7/43 5/2/44 19/15/45 17/14/46
f 5/2/47 6/1/48 20/16/49 19/15/50
f 2/5/51 4/11/52 3/9/53 1/6/54
f 38/21/55 37/22/56 39/23/57 40/24/58
f 22/25/59 21/26/60 29/27/61 30/28/62
f 23/29/63 24/30/64 31/31/65 32/32/66
s 2
f 24/30/67 22/25/68 30/28/69 31/31/70
s off
f 22/25/71 24/30/72 23/29/73 21/26/74
f 42/33/75 41/34/76 43/35/77 44/36/78
s 2
f 31/31/70 30/28/69 26/37/79 28/38/80
s off
f 34/39/81 33/40/82 35/41/83 36/42/84
f 32/32/85 31/31/86 33/40/87 34/39/88
f 31/31/89 28/38/90 35/41/91 33/40/92
f 28/38/93 27/43/94 36/42/95 35/41/96
f 26/37/97 25/44/98 37/22/99 38/21/100
f 27/43/101 28/38/102 40/24/103 39/23/104
f 28/38/105 26/37/106 38/21/107 40/24/108
f 30/28/109 29/27/110 41/34/111 42/33/112
f 25/44/113 26/37/114 44/36/115 43/35/116
f 26/37/117 30/28/118 42/33/119 44/36/120
f 48/45/121 52/46/122 53/47/123 54/48/124 301/49/125 297/50/126 55/51/127 129/52/128 56/53/129 57/54/130 58/55/131 59/56/132 47/57/133 60/58/134 151/59/135 61/60/136 62/61/137 63/62/138 64/63/139 65/64/140 66/65/141 67/66/142 46/67/143 68/68/144 211/69/145 69/70/146 70/71/147 71/72/148 243/73/149 74/74/150 72/75/151 73/76/152 75/77/153 76/78/154 263/79/155 77/80/156 279/81/157 78/82/158 45/83/159 79/84/160 80/85/161 49/86/162 50/87/163 51/88/164 96/89/165 86/90/166
s 3
f 48/91/167 52/92/168 88/93/169 82/94/170
s 4
f 82/94/171 88/93/172 89/95/173 84/96/174
s off
f 91/97/175 92/98/176 93/99/177 94/100/178
f 81/101/179 87/102/180 85/103/181 83/104/182
f 86/105/183 48/91/184 82/94/185 84/106/186
s 3
f 88/93/169 52/92/168 53/107/187 287/108/188
s 4
f 89/95/173 88/93/172 287/108/189 288/109/190
s off
f 90/110/191 89/95/192 288/109/193 289/111/194
s 5
f 84/96/195 89/95/196 98/112/197 95/113/198
s off
f 89/95/199 90/110/200 97/114/201 98/112/202
f 86/115/203 84/96/204 95/113/205 96/116/206
f 51/117/207 99/118/208 100/119/209 50/120/210
s 5
f 95/113/198 98/112/197 92/98/211 91/97/212
s 6
f 96/116/213 95/113/214 101/121/215 102/122/216
s 7
f 95/113/217 91/97/218 104/123/219 101/121/220
s off
f 91/97/221 94/100/222 103/124/223 104/123/224
s 6
f 102/122/216 101/121/215 99/118/225 51/117/226
s 7
f 101/121/220 104/123/219 100/119/227 99/118/228
s off
f 104/123/229 103/124/230 105/125/231 106/126/232
f 50/120/233 100/119/234 107/127/235 49/128/236
f 100/119/237 104/123/238 106/126/239 107/127/240
f 106/126/241 105/125/242 108/129/243 109/130/244
f 49/128/245 107/127/246 110/131/247 80/132/248
f 107/127/249 106/126/250 109/130/251 110/131/252
f 109/130/253 108/129/254 111/133/255 112/134/256
f 80/132/257 110/131/258 113/135/259 79/136/260
f 110/131/261 109/130/262 112/134/263 113/135/264
f 112/134/265 111/133/266 114/137/267 115/138/268
f 79/136/269 113/135/270 116/139/271 45/140/272
f 113/135/273 112/134/274 115/138/275 116/139/276
f 115/138/277 114/137/278 117/141/279 118/142/280
f 45/140/281 116/139/282 119/143/283 78/144/284
f 116/139/285 115/138/286 118/142/287 119/143/288
f 123/145/289 56/146/290 57/147/291 124/148/292
s 4
f 121/149/293 120/150/294 83/104/295 85/151/296
s off
f 126/152/297 125/153/298 127/154/299 128/155/300
s 9
f 120/150/301 55/156/302 129/157/303 130/158/304
s off
f 81/101/305 83/104/306 131/159/307 132/160/308
s 10
f 83/104/309 120/150/310 130/158/311 131/159/312
s off
f 122/161/313 121/149/314 125/153/315 126/152/316
f 121/149/317 85/151/318 127/154/319 125/153/320
f 85/151/321 87/162/322 128/155/323 127/154/324
s 9
f 130/158/304 129/157/303 56/146/325 123/145/326
s 10
f 131/159/312 130/158/311 123/145/327 124/148/328
s off
f 47/163/329 133/164/330 134/165/331 59/166/332
f 132/160/333 131/159/334 135/167/335 136/168/336
s 11
f 131/159/337 124/148/338 137/169/339 135/167/340
s 12
f 124/148/341 57/147/342 58/170/343 137/169/344
s off
f 139/171/345 138/172/346 140/173/347 141/174/348
s 12
f 137/169/344 58/170/343 59/166/349 134/165/350
s 11
f 135/167/340 137/169/339 134/165/351 133/164/352
s off
f 136/168/353 135/167/354 142/175/355 143/176/356
s 13
f 135/167/357 133/164/358 144/177/359 142/175/360
s off
f 133/164/361 47/163/362 60/178/363 144/177/364
f 145/179/365 61/180/366 62/181/367 146/182/368
s 13
f 142/175/360 144/177/359 140/173/369 138/172/370
s 14
f 144/177/371 60/178/372 151/183/373 152/184/374
s off
f 141/174/375 140/173/376 153/185/377 154/186/378
s 15
f 140/173/379 144/177/380 152/184/381 153/185/382
s off
f 143/176/383 142/175/384 147/187/385 148/188/386
f 142/175/387 138/172/388 149/189/389 147/187/390
f 138/172/391 139/171/392 150/190/393 149/189/394
s 14
f 152/184/374 151/183/373 61/180/395 145/179/396
s 15
f 153/185/382 152/184/381 145/179/397 146/182/398
s off
f 46/191/399 200/192/400 201/193/401 67/194/402
f 154/186/403 153/185/404 158/195/405 159/196/406
s 16
f 153/185/407 146/182/408 160/197/409 158/195/410
s 17
f 146/182/411 62/181/412 63/198/413 160/197/414
s off
f 162/199/415 161/200/416 163/201/417 164/202/418
s 17
f 160/197/414 63/198/413 64/203/419 157/204/420
s 16
f 158/195/410 160/197/409 157/204/421 155/205/422
s 18
f 159/196/423 158/195/424 189/206/425 190/207/426
s 19
f 158/195/427 155/205/428 192/208/429 189/206/430
s off
f 155/205/431 156/209/432 191/210/433 192/208/434
f 170/211/435 169/212/436 171/213/437 172/214/438
s 20
f 168/215/439 167/216/440 164/202/441 163/201/442
s 19
f 165/217/443 168/215/444 163/201/445 161/200/446
s 22
f 166/218/447 165/217/448 173/219/449 174/220/450
s 23
f 165/217/451 161/200/452 176/221/453 173/219/454
s off
f 161/200/455 162/199/456 175/222/457 176/221/458
s 22
f 174/220/450 173/219/449 177/223/459 178/224/460
s off
f 182/225/461 181/226/462 183/227/463 184/228/464
s 23
f 173/219/454 176/221/453 180/229/465 177/223/466
s 22
f 178/224/460 177/223/459 169/212/467 170/211/468
s off
f 180/229/469 179/230/470 172/214/471 171/213/472
s 23
f 177/223/466 180/229/465 171/213/473 169/212/474
s off
f 176/221/475 175/222/476 181/226/477 182/225/478
f 179/230/479 180/229/480 184/228/481 183/227/482
f 180/229/483 176/221/484 182/225/485 184/228/486
s 18
f 186/231/487 185/232/488 165/217/489 166/218/490
s 20
f 188/233/491 187/234/492 167/216/440 168/215/439
s 19
f 185/232/493 188/233/494 168/215/444 165/217/443
s 18
f 190/207/426 189/206/425 185/232/488 186/231/487
s off
f 194/235/495 193/236/496 195/237/497 196/238/498
s 19
f 189/206/430 192/208/429 188/233/494 185/232/493
s off
f 192/208/499 191/210/500 193/236/501 194/235/502
f 187/234/503 188/233/504 196/238/505 195/237/506
f 188/233/507 192/208/508 194/235/509 196/238/510
f 156/209/511 155/205/512 197/239/513 198/240/514
f 155/205/515 157/204/516 199/241/517 197/239/518
f 157/204/519 64/203/520 65/242/521 199/241/522
f 198/240/523 197/239/524 202/243/525 203/244/526
s 24
f 197/239/527 199/241/528 204/245/529 202/243/530
s 25
f 199/241/531 65/242/532 66/246/533 204/245/534
s off
f 219/247/535 218/248/536 220/249/537 221/250/538
s 25
f 204/245/534 66/246/533 67/194/539 201/193/540
s 24
f 202/243/530 204/245/529 201/193/541 200/192/542
s off
f 203/244/543 202/243/544 205/251/545 206/252/546
f 202/243/547 200/192/548 207/253/549 205/251/550
f 200/192/551 46/191/552 68/254/553 207/253/554
f 206/252/555 205/251/556 208/255/557 209/256/558
f 205/251/559 207/253/560 210/257/561 208/255/562
f 207/253/563 68/254/564 211/258/565 210/257/566
f 209/256/567 208/255/568 212/259/569 213/260/570
f 208/255/571 210/257/572 214/261/573 212/259/574
f 210/257/575 211/258/576 69/262/577 214/261/578
f 213/260/579 212/259/580 222/263/581 223/264/582
s 26
f 212/259/583 214/261/584 224/265/585 222/263/586
s 27
f 214/261/587 69/262/588 70/266/589 224/265/590
s off
f 216/267/591 215/268/592 241/269/593 242/270/594
s 28
f 215/268/595 217/271/596 244/272/597 241/269/598
s off
f 217/271/599 71/273/600 243/274/601 244/272/602
f 226/275/603 225/276/604 227/277/605 228/278/606
s 27
f 224/265/590 70/266/589 71/273/607 217/271/608
s 26
f 222/263/586 224/265/585 217/271/609 215/268/610
s 29
f 223/264/611 222/263/612 229/279/613 230/280/614
s 30
f 222/263/615 215/268/616 232/281/617 229/279/618
s off
f 215/268/619 216/267/620 231/282/621 232/281/622
s 29
f 230/280/614 229/279/613 233/283/623 234/284/624
s off
f 238/285/625 237/286/626 239/287/627 240/288/628
s 30
f 229/279/618 232/281/617 236/289/629 233/283/630
s 29
f 234/284/624 233/283/623 225/276/631 226/275/632
s off
f 236/289/633 235/290/634 228/278/635 227/277/636
s 30
f 233/283/630 236/289/629 227/277/637 225/276/638
s off
f 232/281/639 231/282/640 237/286/641 238/285/642
f 235/290/643 236/289/644 240/288/645 239/287/646
f 236/289/647 232/281/648 238/285/649 240/288/650
f 246/291/651 245/292/652 247/293/653 248/294/654
f 257/295/655 72/296/656 73/297/657 258/298/658
s 28
f 241/269/598 244/272/597 220/249/659 218/248/660
s off
f 242/270/661 241/269/662 249/299/663 250/300/664
s 31
f 241/269/665 218/248/666 252/301/667 249/299/668
s 32
f 218/248/669 219/247/670 251/302/671 252/301/672
s off
f 254/303/673 253/304/674 255/305/675 256/306/676
s 32
f 252/301/672 251/302/671 248/294/677 247/293/678
s 31
f 249/299/668 252/301/667 247/293/679 245/292/680
s off
f 250/300/681 249/299/682 253/304/683 254/303/684
f 249/299/685 245/292/686 255/305/687 253/304/688
f 245/292/689 246/291/690 256/306/691 255/305/692
s 33
f 244/272/693 243/274/694 74/307/695 259/308/696
s off
f 221/250/697 220/249/698 260/309/699 261/310/700
s 34
f 220/249/701 244/272/702 259/308/703 260/309/704
s 33
f 259/308/696 74/307/695 72/296/705 257/295/706
s 34
f 260/309/704 259/308/703 257/295/707 258/298/708
s off
f 263/311/709 262/312/710 264/313/711 76/314/712
f 261/310/713 260/309/714 265/315/715 266/316/716
s 35
f 260/309/717 258/298/718 267/317/719 265/315/720
s 36
f 258/298/721 73/297/722 75/318/723 267/317/724
s off
f 269/319/725 268/320/726 270/321/727 271/322/728
s 36
f 267/317/724 75/318/723 76/314/729 264/313/730
s 35
f 265/315/720 267/317/719 264/313/731 262/312/732
s 37
f 266/316/733 265/315/734 276/323/735 277/324/736
s 38
f 265/315/737 262/312/738 278/325/739 276/323/740
s off
f 262/312/741 263/311/742 77/326/743 278/325/744
s 37
f 273/327/745 272/328/746 268/320/747 269/319/748
s off
f 275/329/749 274/330/750 271/322/751 270/321/752
s 38
f 272/328/753 275/329/754 270/321/755 268/320/756
s 37
f 277/324/736 276/323/735 272/328/746 273/327/745
s 38
f 276/323/740 278/325/739 275/329/754 272/328/753
s off
f 278/325/757 77/326/758 279/331/759 280/332/760
f 274/330/761 275/329/762 282/333/763 281/334/764
f 275/329/765 278/325/766 280/332/767 282/333/768
f 98/112/769 97/114/770 283/335/771 284/336/772
f 93/99/773 92/98/774 286/337/775 285/338/776
f 92/98/777 98/112/778 284/336/779 286/337/780
f 284/336/781 283/335/782 285/338/783 286/337/784
s 3
f 287/108/188 53/107/187 54/339/785 290/340/786
s 4
f 288/109/190 287/108/189 290/340/787 291/341/788
s off
f 294/342/789 293/343/790 295/344/791 296/345/792
s 3
f 305/346/793 54/339/785 301/347/794
s 4
f 291/341/788 290/340/787 302/348/795 303/349/796
s off
f 292/350/797 291/341/798 303/349/799 304/351/800
f 289/111/801 288/109/802 293/343/803 294/342/804
f 288/109/805 291/341/806 295/344/807 293/343/808
f 291/341/809 292/350/810 296/345/811 295/344/812
f 148/188/813 147/187/814 149/189/815 150/190/816
f 78/144/817 119/143/818 280/332/819 279/331/820
f 118/142/821 117/141/822 281/334/823 282/333/824
f 280/332/825 119/143/826 118/142/827 282/333/828
s 3
f 298/352/829 308/353/830 120/150/831
s 4
f 299/354/832 298/352/833 120/150/294 121/149/293
s off
f 300/355/834 299/354/835 121/149/836 122/161/837
s 3
f 302/348/838 307/356/839 308/353/830 298/352/829
s 4
f 303/349/796 302/348/795 298/352/833 299/354/832
s 3
f 306/357/840 305/346/793 301/347/794 297/358/841
f 55/156/842 306/357/840 297/358/841
f 290/340/786 54/339/785 305/346/793 307/356/839
f 120/150/831 308/353/830 306/357/840 55/156/842
f 290/340/786 307/356/839 302/348/838
s off
f 299/354/843 300/355/844 309/359/845 306/357/846 308/353/847
f 304/351/848 303/349/849 307/356/850 305/346/851 310/360/852
f 299/354/853 308/353/854 307/356/855 303/349/856
s 40
f 306/357/857 309/359/858 310/360/859 305/346/860
f 310/360/859 309/359/858 300/355/861 304/351/862
s off
f 311/361/863 312/362/864 314/363/865 313/364/866
f 313/364/867 314/363/868 372/365/869 367/366/870
s 41
f 369/367/871 370/368/872 312/369/873 311/370/874
s 42
f 330/371/875 368/372/876 315/373/877 316/374/878
s 43
f 368/372/879 369/375/880 311/361/881 315/373/882
s off
f 311/361/883 313/364/884 316/374/885 315/373/886
s 44
f 373/376/887 374/377/888 330/371/889 316/374/890
s 45
f 312/362/891 370/378/892 371/379/893 317/380/894
s 46
f 345/381/895 378/382/896 379/383/897 318/384/898
s off
f 314/363/899 312/362/900 317/380/901 318/384/902
s 42
f 319/385/903 320/386/904 361/387/905
s 43
f 320/386/906 321/388/907 366/389/908 361/387/909
s 41
f 321/390/910 322/391/911 365/392/912 366/393/913
s 42
f 325/394/914 326/395/915 349/396/916
s 43
f 326/395/917 327/397/918 354/398/919 349/396/920
s 41
f 327/399/921 328/400/922 353/401/923 354/402/924
f 357/403/925 358/404/926 328/400/922 327/399/921
s 43
f 356/405/927 357/406/928 327/397/918 326/395/917
s 42
f 337/407/929 356/405/930 326/395/915 325/408/914
s 44
f 325/409/931 376/410/932 377/411/933 337/412/934
s 53
f 323/413/935 364/414/936 339/415/937
f 341/416/938 352/417/939 340/418/940
s 45
f 352/417/941 353/419/942 328/420/943 340/418/944
f 340/418/944 328/420/943 358/421/945 359/422/946
f 364/414/947 365/423/948 322/424/949 339/415/950
s 46
f 343/425/951 381/426/952 380/427/953 341/416/954
s off
f 324/428/955 347/429/956 360/430/957 355/431/958
s 42
f 325/394/914 349/396/916 331/432/959 330/433/875
s 44
f 330/371/889 374/377/888 376/410/932 325/409/931
s off
f 329/434/960 346/435/961 351/436/962 350/437/963
s 46
f 341/416/954 380/427/953 378/382/896 345/381/895
s 45
f 344/438/964 333/439/965 353/419/942 352/417/941
s 41
f 354/402/924 353/401/923 333/440/966 332/441/967
s 43
f 349/396/920 354/398/919 332/442/968 331/432/969
s 42
f 337/407/929 336/443/970 356/405/930
s 43
f 336/443/971 335/444/972 357/406/928 356/405/927
s 41
f 335/445/973 334/446/974 358/404/926 357/403/925
s 45
f 359/422/946 358/421/945 334/447/975 342/448/976
s 53
f 343/425/977 359/422/978 342/448/979
s 42
f 319/385/903 361/387/905 336/443/970 337/449/929
s 44
f 337/412/934 377/411/933 375/450/980 319/385/981
s off
f 338/451/982 348/452/983 363/453/984 362/454/985
s 46
f 323/413/986 382/455/987 381/426/952 343/425/951
s 45
f 342/448/976 334/447/975 365/423/948 364/414/947
s 41
f 366/393/913 365/392/912 334/446/974 335/445/973
s 43
f 361/387/909 366/389/908 335/444/972 336/443/971
s 42
f 330/371/875 331/432/959 368/372/876
s 43
f 331/432/969 332/442/968 369/375/880 368/372/879
s 41
f 332/441/967 333/440/966 370/368/872 369/367/871
s 45
f 371/379/893 370/378/892 333/439/965 344/438/964
s 53
f 345/456/988 371/379/989 344/438/990
s off
f 313/364/991 367/457/992 374/377/993 373/376/994
f 316/374/995 313/364/996 373/376/997
f 350/437/998 324/428/999 376/458/1000
f 324/459/1001 355/460/1002 377/461/1003 376/462/1004
f 329/463/1005 350/464/1006 376/462/1007 374/465/1008
f 355/431/1009 338/451/1010 377/466/1011
f 338/467/1012 362/468/1013 375/450/1014 377/469/1015
f 367/366/1016 329/434/1017 374/470/1018
f 372/471/1019 314/472/1020 379/473/1021 378/474/1022
f 314/475/1023 318/476/1024 379/477/1025
s 53
f 345/478/988 318/384/1026 317/380/1027 371/379/989
s off
f 347/429/1028 351/436/1029 380/479/1030
f 360/480/1031 347/481/1032 380/482/1033 381/483/1034
s 53
f 343/425/977 341/416/938 340/418/940 359/422/978
s off
f 351/484/1035 346/485/1036 378/486/1037 380/487/1038
s 53
f 341/488/938 345/456/988 344/438/990 352/417/939
s off
f 348/452/1039 360/430/1040 381/489/1041
f 363/490/1042 348/452/1043 381/489/1044 382/491/1045
s 53
f 323/492/935 343/425/977 342/448/979 364/414/936
s off
f 346/435/1046 372/365/1047 378/486/1048
f 348/452/1049 338/451/1050 355/431/1051 360/430/1052
f 347/429/1053 324/428/1054 350/437/1055 351/436/1056
f 346/435/1057 329/434/1058 367/366/1059 372/365/1060
s 59
f 339/415/1061 322/424/1062 363/493/1063
s 60
f 362/494/1064 320/386/1065 319/385/1066 375/450/1067
s off
f 322/391/1068 321/390/1069 362/454/1070 363/453/1071
s 60
f 321/388/1072 320/386/1065 362/494/1064
s 59
f 339/415/1061 363/493/1063 382/455/1073 323/413/1074
