# Blender 4.5.0
# www.blender.org
mtllib Item_camera.mtl
o Objectif_camera
v -0.079927 2.381006 -0.090288
v 0.390994 2.378420 -0.057617
v -0.080533 2.333822 -0.070753
v 0.390542 2.343250 -0.043055
v -0.080996 2.297710 -0.034656
v 0.390197 2.316332 -0.016149
v -0.081247 2.278166 0.012507
v 0.390010 2.301764 0.019005
v -0.081247 2.278166 0.063555
v 0.390010 2.301764 0.057056
v -0.080996 2.297710 0.110718
v 0.390197 2.316332 0.092211
v -0.080533 2.333822 0.146814
v 0.390542 2.343250 0.119117
v -0.079927 2.381006 0.166350
v 0.390994 2.378420 0.133679
v -0.079271 2.432077 0.166350
v 0.391483 2.416487 0.133679
v -0.078665 2.479260 0.146814
v 0.391935 2.451657 0.119117
v -0.078202 2.515373 0.110718
v 0.392280 2.478575 0.092211
v -0.077951 2.534917 0.063555
v 0.392467 2.493143 0.057056
v -0.077951 2.534917 0.012507
v 0.392467 2.493143 0.019005
v -0.078202 2.515373 -0.034656
v 0.392280 2.478575 -0.016149
v -0.078665 2.479260 -0.070753
v 0.391935 2.451657 -0.043055
v -0.079271 2.432077 -0.090288
v 0.391483 2.416487 -0.057617
v 0.390911 2.371918 -0.090288
v 0.390305 2.324735 -0.070753
v 0.389841 2.288622 -0.034656
v 0.389590 2.269078 0.012507
v 0.389590 2.269078 0.063555
v 0.389841 2.288622 0.110718
v 0.390305 2.324735 0.146814
v 0.390911 2.371918 0.166350
v 0.391566 2.422989 0.166350
v 0.392172 2.470172 0.146814
v 0.392636 2.506285 0.110718
v 0.392887 2.525829 0.063555
v 0.392887 2.525829 0.012507
v 0.392636 2.506285 -0.034656
v 0.392172 2.470172 -0.070753
v 0.391566 2.422989 -0.090288
v 0.373229 2.382585 -0.036684
v 0.372877 2.355113 -0.025309
v 0.372607 2.334086 -0.004292
v 0.372461 2.322706 0.023169
v 0.372461 2.322706 0.052893
v 0.372607 2.334086 0.080354
v 0.372877 2.355113 0.101371
v 0.373229 2.382585 0.112746
v 0.373611 2.412322 0.112746
v 0.373964 2.439795 0.101371
v 0.374234 2.460822 0.080354
v 0.374380 2.472201 0.052893
v 0.374380 2.472201 0.023169
v 0.374234 2.460822 -0.004292
v 0.373964 2.439795 -0.025309
v 0.373611 2.412322 -0.036684
v 0.373176 2.378420 -0.057617
v 0.372724 2.343250 -0.043055
v 0.372379 2.316332 -0.016149
v 0.372192 2.301764 0.019005
v 0.372192 2.301764 0.057056
v 0.372379 2.316332 0.092211
v 0.372724 2.343250 0.119117
v 0.373176 2.378420 0.133679
v 0.373665 2.416488 0.133679
v 0.374116 2.451657 0.119117
v 0.374462 2.478575 0.092211
v 0.374649 2.493143 0.057056
v 0.374649 2.493143 0.019005
v 0.374462 2.478575 -0.016149
v 0.374116 2.451657 -0.043055
v 0.373665 2.416488 -0.057617
v 0.344457 2.382955 -0.036684
v 0.344104 2.355482 -0.025309
v 0.343835 2.334455 -0.004292
v 0.343688 2.323075 0.023169
v 0.343688 2.323075 0.052893
v 0.343835 2.334455 0.080354
v 0.344104 2.355482 0.101371
v 0.344457 2.382955 0.112746
v 0.344839 2.412691 0.112746
v 0.345192 2.440164 0.101371
v 0.345462 2.461191 0.080354
v 0.345608 2.472571 0.052893
v 0.345608 2.472571 0.023169
v 0.345462 2.461191 -0.004292
v 0.345192 2.440164 -0.025309
v 0.344839 2.412691 -0.036684
v 0.344648 2.397823 0.038031
v -0.079599 2.406541 0.038031
v -0.130474 2.300741 -0.122882
v -0.130474 2.506095 -0.122882
v 0.113329 2.300741 -0.122882
v 0.113329 2.506095 -0.122882
v -0.335009 2.161458 0.186711
v -0.335009 2.269341 0.294594
v -0.335009 2.193056 0.262996
v -0.335009 2.558940 0.294594
v -0.335009 2.666823 0.186711
v -0.335009 2.635225 0.262996
v -0.335009 2.269341 -0.210771
v -0.335009 2.161458 -0.102888
v -0.335009 2.193056 -0.179173
v -0.335009 2.666823 -0.102888
v -0.335009 2.558940 -0.210771
v -0.335009 2.635225 -0.179173
v 0.316084 2.269341 0.294594
v 0.316084 2.161458 0.186711
v 0.316084 2.193056 0.262996
v 0.316084 2.666823 0.186711
v 0.316084 2.558940 0.294594
v 0.316084 2.635225 0.262996
v 0.316084 2.161458 -0.102888
v 0.316084 2.269341 -0.210771
v 0.316084 2.193056 -0.179173
v 0.316084 2.558940 -0.210771
v 0.316084 2.666823 -0.102888
v 0.316084 2.635225 -0.179173
v 0.249031 2.688028 0.022509
v 0.258019 2.679533 0.013520
v 0.264025 2.666823 0.007515
v 0.253422 2.688028 0.033111
v 0.266134 2.679533 0.033111
v 0.274627 2.666823 0.033111
v 0.249031 2.688028 0.043714
v 0.258019 2.679533 0.052702
v 0.264025 2.666823 0.058708
v 0.238428 2.688028 0.048106
v 0.238428 2.679533 0.060817
v 0.238428 2.666823 0.069310
v 0.227826 2.688028 0.043714
v 0.218837 2.679533 0.052702
v 0.212831 2.666823 0.058708
v 0.223434 2.688028 0.033111
v 0.210722 2.679533 0.033111
v 0.202229 2.666823 0.033111
v 0.227826 2.688028 0.022509
v 0.218837 2.679533 0.013520
v 0.212831 2.666823 0.007515
v 0.238428 2.691010 0.033111
v 0.238428 2.688028 0.018117
v 0.238428 2.679533 0.005406
v 0.238428 2.666823 -0.003088
v 0.316084 2.414140 0.041912
v -0.335009 2.414140 0.041912
v 0.113329 2.300741 -0.210771
v 0.113329 2.359524 -0.210771
v 0.113329 2.506095 -0.210771
v -0.130474 2.506095 -0.210771
v -0.130474 2.300741 -0.210771
v -0.031826 0.471172 -0.982737
v -0.031826 0.485428 -1.031677
v 0.024072 0.471172 -0.982737
v 0.024072 0.485428 -1.031677
v -0.031826 0.951836 -0.544040
v -0.031826 0.937579 -0.495101
v 0.024072 0.951836 -0.544040
v 0.024072 0.937579 -0.495101
v -0.031826 0.470057 -0.983903
v 0.024072 0.470057 -0.983903
v 0.024072 0.484313 -1.032842
v -0.031826 0.484313 -1.032842
v 0.406919 0.931699 0.387068
v 0.036669 1.429387 -0.015839
v 0.441524 0.945955 0.421674
v 0.099855 1.455418 0.047349
v 0.367393 0.931699 0.426593
v -0.035503 1.429387 0.056330
v 0.401998 0.945955 0.461198
v 0.027683 1.455418 0.119518
v 0.472137 0.951843 0.419642
v 0.408951 0.925812 0.356454
v 0.399965 0.951843 0.491812
v 0.336780 0.925812 0.428624
v -0.032099 0.932433 -0.498183
v -0.055183 1.430121 0.048522
v -0.032099 0.946690 -0.547122
v -0.055183 1.456152 -0.040837
v 0.023798 0.932433 -0.498183
v 0.046882 1.430121 0.048522
v 0.023798 0.946690 -0.547122
v 0.046882 1.456152 -0.040837
v -0.055183 0.952577 -0.567332
v -0.055183 0.926546 -0.477972
v 0.046882 0.952577 -0.567332
v 0.046882 0.926546 -0.477972
v -0.545269 0.936034 0.120087
v -0.001202 1.433722 0.061691
v -0.593665 0.950291 0.127358
v -0.089570 1.459754 0.074967
v -0.553574 0.936034 0.064810
v -0.016365 1.433722 -0.039241
v -0.601970 0.950291 0.072081
v -0.104733 1.459754 -0.025965
v -0.610222 0.956178 0.153188
v -0.521854 0.930147 0.139912
v -0.625385 0.956178 0.052256
v -0.537017 0.930147 0.038980
v 1.026197 0.068308 1.066262
v 1.044032 0.075655 1.084096
v 0.717257 0.513757 0.716570
v 0.696886 0.513757 0.736940
v 0.714720 0.521104 0.754775
v 0.735091 0.521104 0.734405
v 1.078075 0.057160 1.077399
v 1.057704 0.057160 1.097769
v 1.039870 0.049813 1.079934
v 1.060241 0.049813 1.059564
v 1.052988 0.064965 1.086872
v 1.047813 0.061823 1.100883
v 1.045899 0.056117 1.112633
v 1.047538 0.048716 1.120329
v 1.052481 0.040745 1.122802
v 1.059974 0.033419 1.119674
v 1.068878 0.027854 1.111423
v 1.046230 0.062524 1.078004
v 1.035325 0.057314 1.084499
v 1.029583 0.050225 1.091224
v 1.029878 0.042338 1.097157
v 1.036164 0.034853 1.101393
v 1.047486 0.028909 1.103289
v 1.062119 0.025413 1.102554
v 1.048295 0.060676 1.066638
v 1.039140 0.053898 1.063498
v 1.034568 0.045763 1.063787
v 1.035273 0.037507 1.067459
v 1.041149 0.030390 1.073956
v 1.051301 0.025494 1.082289
v 1.064184 0.023564 1.091190
v 1.057973 0.060503 1.059433
v 1.057023 0.053577 1.050185
v 1.057933 0.045343 1.046391
v 1.060564 0.037054 1.048630
v 1.064515 0.029971 1.056561
v 1.069185 0.025173 1.068975
v 1.073862 0.023391 1.083984
v 1.069596 0.062106 1.060609
v 1.078499 0.056540 1.052357
v 1.085993 0.049214 1.049230
v 1.090935 0.041244 1.051702
v 1.092574 0.033842 1.059399
v 1.090661 0.028135 1.071147
v 1.085485 0.024994 1.085160
v 1.076354 0.064547 1.069477
v 1.090987 0.061050 1.068743
v 1.102309 0.055106 1.070639
v 1.108596 0.047621 1.074875
v 1.108890 0.039734 1.080807
v 1.103148 0.032645 1.087533
v 1.092244 0.027434 1.094028
v 1.074290 0.066395 1.080842
v 1.087172 0.064465 1.089743
v 1.097325 0.059569 1.098076
v 1.103201 0.052451 1.104573
v 1.103906 0.044196 1.108245
v 1.099333 0.036061 1.108534
v 1.090179 0.029283 1.105392
v 1.077836 0.024894 1.099303
v 1.060638 0.065065 1.072729
v 1.064611 0.066568 1.088048
v 1.069289 0.064786 1.103056
v 1.073959 0.059988 1.115471
v 1.077910 0.052905 1.123402
v 1.080540 0.044616 1.125639
v 1.081450 0.036382 1.121846
v 1.080500 0.029457 1.112597
v 0.010254 0.069042 -1.416340
v 0.010254 0.076389 -1.441563
v -0.018554 0.514491 -0.950618
v 0.010254 0.514491 -0.950618
v 0.010254 0.521838 -0.975840
v -0.018554 0.521838 -0.975840
v -0.018554 0.057894 -1.460899
v 0.010254 0.057894 -1.460899
v 0.010254 0.050547 -1.435677
v -0.018554 0.050547 -1.435677
v 0.005882 0.065699 -1.449859
v 0.019450 0.062557 -1.456107
v 0.029111 0.056852 -1.463062
v 0.033394 0.049449 -1.469664
v 0.031648 0.041479 -1.474907
v 0.024137 0.034153 -1.477993
v 0.012007 0.028587 -1.478454
v 0.004391 0.063258 -1.438810
v 0.016695 0.058048 -1.435691
v 0.025511 0.050959 -1.436386
v 0.029497 0.043072 -1.440789
v 0.028048 0.035586 -1.448231
v 0.021382 0.029643 -1.457577
v 0.010515 0.026146 -1.467404
v -0.005105 0.061410 -1.432232
v -0.000852 0.054632 -1.423539
v 0.002585 0.046496 -1.420509
v 0.004682 0.038241 -1.423604
v 0.005122 0.031124 -1.432353
v 0.003835 0.026228 -1.445425
v 0.001019 0.024298 -1.460827
v -0.017043 0.061237 -1.433982
v -0.022911 0.054311 -1.426771
v -0.026237 0.046078 -1.424731
v -0.026514 0.037788 -1.428174
v -0.023700 0.030705 -1.436576
v -0.018224 0.025907 -1.448657
v -0.010919 0.024125 -1.462577
v -0.024431 0.062840 -1.443030
v -0.036561 0.057274 -1.443491
v -0.044071 0.049948 -1.446579
v -0.045818 0.041977 -1.451823
v -0.041535 0.034576 -1.458423
v -0.031874 0.028870 -1.465378
v -0.018307 0.025728 -1.471627
v -0.022939 0.065280 -1.454080
v -0.033806 0.061784 -1.463909
v -0.040471 0.055840 -1.473255
v -0.041921 0.048355 -1.480695
v -0.037935 0.040468 -1.485098
v -0.029119 0.033379 -1.485795
v -0.016815 0.028168 -1.482676
v -0.013443 0.067129 -1.460657
v -0.016259 0.065199 -1.476061
v -0.017546 0.060303 -1.489132
v -0.017107 0.053185 -1.497880
v -0.015009 0.044930 -1.500975
v -0.011572 0.036795 -1.497947
v -0.007319 0.030017 -1.489253
v -0.002898 0.025629 -1.476218
v -0.009527 0.065798 -1.445266
v -0.001505 0.067302 -1.458909
v 0.005800 0.065520 -1.472829
v 0.011276 0.060722 -1.484910
v 0.014090 0.053639 -1.493311
v 0.013813 0.045350 -1.496754
v 0.010487 0.037116 -1.494714
v 0.004619 0.030190 -1.487504
v -1.459530 0.072643 0.214615
v -1.484472 0.079990 0.218362
v -0.994695 0.518093 0.173911
v -0.998975 0.518093 0.145423
v -1.023917 0.525440 0.149170
v -1.019637 0.525440 0.177658
v -1.499314 0.061496 0.249723
v -1.503594 0.061496 0.221235
v -1.478652 0.054149 0.217488
v -1.474372 0.054149 0.245976
v -1.492026 0.069301 0.223917
v -1.500222 0.066159 0.211429
v -1.508534 0.060453 0.202908
v -1.515699 0.053051 0.199654
v -1.520624 0.045080 0.202160
v -1.522561 0.037754 0.210045
v -1.521214 0.032189 0.222110
v -1.480878 0.066860 0.223751
v -1.479622 0.061649 0.211121
v -1.481620 0.054561 0.202506
v -1.486567 0.046674 0.199217
v -1.493710 0.039188 0.201757
v -1.501962 0.033245 0.209737
v -1.510066 0.029748 0.221943
v -1.472964 0.065012 0.232164
v -1.464998 0.058234 0.226667
v -1.462513 0.050098 0.222818
v -1.465885 0.041843 0.221203
v -1.474603 0.034726 0.222069
v -1.487338 0.029829 0.225283
v -1.502152 0.027899 0.230356
v -1.472920 0.064838 0.244230
v -1.464916 0.057913 0.248962
v -1.462406 0.049679 0.251947
v -1.465770 0.041390 0.252733
v -1.474496 0.034307 0.251199
v -1.487256 0.029509 0.247578
v -1.502107 0.027726 0.242422
v -1.480771 0.066442 0.252880
v -1.479424 0.060875 0.264944
v -1.481361 0.053549 0.272830
v -1.486287 0.045579 0.275336
v -1.493451 0.038177 0.272081
v -1.501764 0.032471 0.263561
v -1.509959 0.029329 0.251072
v -1.491919 0.068882 0.253047
v -1.500024 0.065385 0.265253
v -1.508276 0.059442 0.273233
v -1.515419 0.051957 0.275772
v -1.520366 0.044070 0.272484
v -1.522363 0.036981 0.263869
v -1.521107 0.031770 0.251239
v -1.499834 0.070730 0.244633
v -1.514648 0.068800 0.249706
v -1.527383 0.063905 0.252920
v -1.536100 0.056787 0.253786
v -1.539473 0.048532 0.252171
v -1.536987 0.040396 0.248323
v -1.529022 0.033618 0.242825
v -1.516789 0.029230 0.236516
v -1.485196 0.069400 0.238473
v -1.499878 0.070904 0.232567
v -1.514730 0.069121 0.227412
v -1.527490 0.064323 0.223791
v -1.536216 0.057241 0.222257
v -1.539580 0.048951 0.223042
v -1.537069 0.040717 0.226028
v -1.529066 0.033792 0.230759
v 0.749352 0.470438 0.729898
v 0.783957 0.484695 0.764504
v 0.709827 0.470438 0.769423
v 0.744431 0.484695 0.804028
v 0.439151 0.951102 0.419688
v 0.404547 0.936846 0.385082
v 0.399625 0.951102 0.459212
v 0.365021 0.936846 0.424606
v 0.750177 0.469323 0.730722
v 0.710651 0.469323 0.770247
v 0.745256 0.483579 0.804853
v 0.784781 0.483579 0.765328
v -1.024486 0.474773 0.191807
v -1.072883 0.489030 0.199078
v -1.032791 0.474773 0.136530
v -1.081187 0.489030 0.143801
v -0.590658 0.955438 0.126630
v -0.542262 0.941181 0.119359
v -0.598963 0.955438 0.071353
v -0.550567 0.941181 0.064082
v -1.025640 0.473659 0.191980
v -1.033944 0.473659 0.136704
v -1.082340 0.487915 0.143974
v -1.074035 0.487915 0.199251
v 0.025577 1.527807 0.011355
v 0.052642 1.514307 -0.015710
v 0.070725 1.494104 -0.033793
v 0.077075 1.470273 -0.040144
v 0.070725 1.446441 -0.033793
v 0.052642 1.426238 -0.015710
v 0.025577 1.412738 0.011355
v 0.038801 1.527807 0.043279
v 0.077075 1.514307 0.043279
v 0.102650 1.494104 0.043279
v 0.111630 1.470273 0.043279
v 0.102650 1.446441 0.043279
v 0.077075 1.426238 0.043279
v 0.038801 1.412738 0.043279
v 0.025577 1.527807 0.075204
v 0.052642 1.514307 0.102268
v 0.070725 1.494104 0.120352
v 0.077075 1.470273 0.126702
v 0.070725 1.446441 0.120352
v 0.052642 1.426238 0.102268
v 0.025577 1.412738 0.075204
v -0.006347 1.527807 0.088427
v -0.006347 1.514307 0.126702
v -0.006347 1.494104 0.152276
v -0.006347 1.470273 0.161257
v -0.006347 1.446441 0.152276
v -0.006347 1.426238 0.126702
v -0.006347 1.412738 0.088427
v -0.038272 1.527807 0.075204
v -0.065336 1.514307 0.102268
v -0.083420 1.494104 0.120352
v -0.089770 1.470273 0.126702
v -0.083420 1.446441 0.120352
v -0.065336 1.426238 0.102268
v -0.038272 1.412738 0.075204
v -0.051496 1.527807 0.043279
v -0.089770 1.514307 0.043279
v -0.115345 1.494104 0.043279
v -0.124325 1.470273 0.043279
v -0.115345 1.446441 0.043279
v -0.089770 1.426238 0.043279
v -0.051496 1.412738 0.043279
v -0.038272 1.527807 0.011355
v -0.065336 1.514307 -0.015710
v -0.083420 1.494104 -0.033793
v -0.089770 1.470273 -0.040144
v -0.083420 1.446441 -0.033793
v -0.065336 1.426238 -0.015710
v -0.038272 1.412738 0.011355
v -0.006347 1.407998 0.043279
v -0.006347 1.532547 0.043279
v -0.006347 1.527807 -0.001869
v -0.006347 1.514307 -0.040144
v -0.006347 1.494104 -0.065718
v -0.006347 1.470273 -0.074699
v -0.006347 1.446441 -0.065718
v -0.006347 1.426238 -0.040144
v -0.006347 1.412738 -0.001869
v 0.075534 2.146157 -0.042431
v 0.069184 2.122325 -0.036080
v 0.051100 2.102122 -0.017997
v 0.024036 2.088623 0.009068
v -0.039814 1.841713 0.009068
v 0.110089 2.146157 0.040992
v 0.101108 2.122325 0.040992
v 0.075534 2.102122 0.040992
v 0.037259 2.088623 0.040992
v -0.007889 1.836973 0.040992
v 0.024036 1.841713 0.072917
v 0.075534 2.146157 0.124415
v 0.069184 2.122325 0.118065
v 0.051100 2.102122 0.099981
v 0.024036 2.088623 0.072917
v -0.007889 1.840431 0.006268
v -0.007889 1.841713 0.086140
v 0.037259 1.841713 0.040992
v -0.007889 2.146157 0.158970
v -0.007889 2.122325 0.149990
v -0.007889 2.102122 0.124415
v -0.007889 2.088623 0.086140
v -0.042613 1.840431 0.040992
v 0.016665 1.840431 0.016438
v -0.091312 2.146157 0.124415
v -0.084962 2.122325 0.118065
v -0.066878 2.102122 0.099981
v -0.039814 2.088623 0.072917
v -0.032443 1.840431 0.065546
v -0.125867 2.146157 0.040992
v -0.116886 2.122325 0.040992
v -0.091312 2.102122 0.040992
v -0.053037 2.088623 0.040992
v -0.091312 2.146157 -0.042431
v -0.084962 2.122325 -0.036080
v -0.066878 2.102122 -0.017997
v -0.039814 2.088623 0.009068
v -0.007889 2.146157 -0.076986
v -0.007889 2.122325 -0.068005
v -0.007889 2.102122 -0.042431
v -0.007889 2.088623 -0.004156
v -0.053037 1.841713 0.040992
v -0.039814 1.841713 0.072917
v -0.007889 1.841713 -0.004156
v 0.024036 1.841713 0.009068
v 0.026835 1.840431 0.040992
v -0.007889 1.840431 0.075717
v 0.016665 1.840431 0.065546
v -0.032443 1.840431 0.016438
v -0.007889 1.841162 0.040992
v -0.007889 1.844620 0.006268
v -0.042613 1.844620 0.040992
v 0.016665 1.844620 0.016438
v -0.032443 1.844620 0.065546
v 0.026835 1.844620 0.040992
v -0.007889 1.844620 0.075717
v 0.016665 1.844620 0.065546
v -0.032443 1.844620 0.016438
v -0.007889 1.516313 0.040992
v -0.007889 1.519771 0.006268
v -0.042613 1.519771 0.040992
v 0.016665 1.519771 0.016438
v -0.032443 1.519771 0.065546
v 0.026835 1.519771 0.040992
v -0.007889 1.519771 0.075717
v 0.016665 1.519771 0.065546
v -0.032443 1.519771 0.016438
v -0.130474 2.300741 -0.188169
v -0.130474 2.506095 -0.188169
v 0.094372 2.370144 -0.188169
v 0.094372 2.436692 -0.188169
v -0.130474 2.300741 -0.214254
v -0.130474 2.506095 -0.214254
v -0.099632 2.436692 -0.214254
v -0.099632 2.370144 -0.214254
v 0.113329 2.506095 -0.188169
v 0.113329 2.300741 -0.188169
v -0.130474 2.370144 -0.188169
v -0.130474 2.436692 -0.188169
v 0.113329 2.506095 -0.214254
v 0.113329 2.300741 -0.214254
v -0.130474 2.377344 -0.221453
v -0.130474 2.429492 -0.221453
v -0.130474 2.377344 -0.227514
v -0.130474 2.429492 -0.227514
v -0.099632 2.436692 -0.234714
v -0.099632 2.370144 -0.234714
v -0.130474 2.370144 -0.214254
v -0.130474 2.436692 -0.214254
v -0.130474 2.370144 -0.234714
v -0.130474 2.436692 -0.234714
v -0.130474 2.370144 -0.214254
v -0.130474 2.436692 -0.214254
v -0.130474 2.370144 -0.234714
v -0.130474 2.436692 -0.234714
v -0.158936 2.377344 -0.221453
v -0.158936 2.429492 -0.221453
v -0.158936 2.377344 -0.227514
v -0.158936 2.429492 -0.227514
vn -0.0074 -0.3824 -0.9240
vn -0.0136 -0.7068 -0.7073
vn -0.0178 -0.9236 -0.3828
vn -0.0193 -0.9998 -0.0000
vn -0.0178 -0.9236 0.3828
vn -0.0136 -0.7068 0.7073
vn -0.0074 -0.3825 0.9239
vn -0.0000 -0.0000 1.0000
vn 0.0074 0.3825 0.9239
vn 0.0136 0.7068 0.7073
vn 0.0178 0.9236 0.3828
vn 0.0193 0.9998 -0.0000
vn 0.0178 0.9236 -0.3828
vn 0.0136 0.7068 -0.7073
vn 0.0074 0.3824 -0.9239
vn 0.9999 -0.0128 -0.0000
vn -0.0000 0.9238 0.3828
vn -0.0000 -0.3826 -0.9239
vn -0.0049 -0.3825 -0.9239
vn -0.0000 -0.7069 -0.7073
vn -0.0000 1.0000 -0.0000
vn -0.0000 -0.9238 -0.3828
vn -0.0000 0.9238 -0.3828
vn -0.0000 -1.0000 -0.0000
vn -0.0000 0.7069 -0.7073
vn -0.0000 -0.9238 0.3828
vn -0.0000 0.3826 -0.9239
vn -0.0000 -0.7069 0.7073
vn -0.0000 0.3826 0.9239
vn -0.0000 -0.0000 -1.0000
vn -0.0000 -0.3826 0.9239
vn -0.0000 0.7069 0.7073
vn -0.9999 0.0128 -0.0000
vn 0.0118 0.9237 0.3829
vn -0.0091 -0.7069 -0.7073
vn 0.0128 0.9999 -0.0000
vn -0.0119 -0.9237 -0.3829
vn 0.0118 0.9237 -0.3829
vn -0.0129 -0.9999 -0.0000
vn 0.0091 0.7069 -0.7073
vn -0.0119 -0.9237 0.3829
vn 0.0049 0.3825 -0.9239
vn -0.0091 -0.7069 0.7073
vn 0.0049 0.3825 0.9239
vn -0.0049 -0.3825 0.9239
vn 0.0091 0.7069 0.7073
vn 1.0000 -0.0000 -0.0000
vn -0.0000 -0.9239 -0.3827
vn -0.0000 -0.3827 -0.9239
vn -0.0000 0.9239 -0.3827
vn -0.0000 0.3827 -0.9239
vn -0.0000 -0.9239 0.3827
vn -0.0000 -0.3827 0.9239
vn -0.0000 0.9239 0.3827
vn -0.0000 0.3827 0.9239
vn 0.3256 0.5253 -0.7861
vn 0.0805 0.9776 -0.1944
vn 0.2243 0.8103 -0.5415
vn 0.5415 0.8103 -0.2243
vn 0.7861 0.5253 -0.3256
vn 0.1944 0.9776 -0.0805
vn 0.5415 0.8103 0.2243
vn 0.7861 0.5253 0.3256
vn 0.1944 0.9776 0.0805
vn 0.3256 0.5253 0.7861
vn 0.0805 0.9776 0.1944
vn 0.2243 0.8103 0.5415
vn -0.0805 0.9776 0.1944
vn -0.2243 0.8103 0.5415
vn -0.3256 0.5253 0.7861
vn -0.5414 0.8103 0.2243
vn -0.7861 0.5253 0.3256
vn -0.1944 0.9776 0.0805
vn -0.7861 0.5253 -0.3256
vn -0.1944 0.9776 -0.0805
vn -0.5414 0.8103 -0.2243
vn -0.3256 0.5253 -0.7861
vn -0.0805 0.9776 -0.1944
vn -0.2243 0.8103 -0.5415
vn -1.0000 -0.0000 -0.0000
vn -0.0000 0.7227 -0.6912
vn -0.0000 -0.7227 0.6912
vn -0.0249 -0.9598 -0.2796
vn 0.7071 -0.0000 -0.7071
vn 0.4887 0.7227 0.4888
vn -0.7071 -0.0000 0.7071
vn -0.4887 -0.7227 -0.4888
vn -0.1978 0.9601 -0.1978
vn 0.1978 -0.9601 0.1978
vn -0.0000 -0.9601 -0.2797
vn 0.1486 -0.0000 0.9889
vn -0.6835 0.7227 0.1027
vn -0.1486 -0.0000 -0.9889
vn 0.6835 -0.7227 -0.1027
vn -0.2766 -0.9601 0.0415
vn -0.1282 0.2204 0.9670
vn -0.1652 0.8975 0.4090
vn -0.1301 0.9895 -0.0634
vn 0.0998 -0.9471 0.3050
vn -0.0336 -0.4212 0.9063
vn -0.1665 0.6928 0.7016
vn -0.1510 0.9750 0.1629
vn 0.0504 -0.8019 0.5953
vn 0.0200 -0.9678 0.2511
vn -0.4597 -0.7022 0.5436
vn -0.7889 0.3503 0.5049
vn -0.4032 0.9134 0.0559
vn -0.1946 -0.8976 0.3954
vn -0.7325 -0.2589 0.6296
vn -0.6131 0.7453 0.2621
vn -0.2105 0.9717 -0.1070
vn -0.5273 0.8183 -0.2289
vn -0.2253 -0.9673 0.1164
vn -0.7566 -0.6531 -0.0312
vn -0.8516 0.4704 -0.2312
vn -0.2401 0.9503 -0.1982
vn 0.0007 -0.9870 0.1607
vn -0.4716 -0.8800 0.0575
vn -0.9766 -0.1514 -0.1528
vn -0.0856 -0.9922 -0.0911
vn -0.3861 -0.7752 -0.5000
vn -0.5678 0.2919 -0.7697
vn -0.1941 0.9392 -0.2833
vn 0.0460 -0.9953 0.0858
vn -0.2231 -0.9345 -0.2773
vn -0.5575 -0.3767 -0.7398
vn -0.3802 0.7586 -0.5290
vn -0.0998 0.9471 -0.3049
vn 0.1301 -0.9895 0.0634
vn 0.1652 -0.8975 -0.4090
vn 0.1282 -0.2205 -0.9669
vn -0.0504 0.8019 -0.5953
vn 0.1510 -0.9750 -0.1628
vn 0.1665 -0.6928 -0.7017
vn 0.0335 0.4213 -0.9063
vn 0.6131 -0.7453 -0.2621
vn 0.7325 0.2589 -0.6296
vn 0.1947 0.8976 -0.3954
vn 0.4032 -0.9134 -0.0559
vn 0.7889 -0.3503 -0.5049
vn 0.4596 0.7023 -0.5436
vn -0.0201 0.9678 -0.2511
vn 0.2104 -0.9717 0.1070
vn 0.5273 -0.8182 0.2289
vn 0.9766 0.1513 0.1528
vn 0.4715 0.8800 -0.0575
vn -0.0007 0.9870 -0.1607
vn 0.2401 -0.9503 0.1982
vn 0.8516 -0.4705 0.2312
vn 0.7566 0.6531 0.0312
vn 0.2253 0.9673 -0.1164
vn 0.5575 0.3767 0.7398
vn 0.2231 0.9345 0.2772
vn -0.0460 0.9953 -0.0858
vn 0.1941 -0.9392 0.2834
vn 0.5678 -0.2919 0.7697
vn 0.3861 0.7752 0.5000
vn 0.0856 0.9921 0.0912
vn 0.3802 -0.7587 0.5290
vn 0.7744 0.2205 -0.5931
vn 0.4060 0.8975 -0.1724
vn 0.0471 0.9895 0.1368
vn 0.1451 -0.9471 -0.2862
vn 0.6646 -0.4213 -0.6172
vn 0.6139 0.6928 -0.3784
vn 0.2219 0.9750 -0.0084
vn 0.3853 -0.8019 -0.4566
vn 0.1633 -0.9678 -0.1917
vn 0.7094 -0.7023 -0.0594
vn 0.9149 0.3502 0.2008
vn 0.3246 0.9134 0.2456
vn 0.4172 -0.8976 -0.1420
vn 0.9632 -0.2589 0.0728
vn 0.6188 0.7453 0.2481
vn 0.0732 0.9717 0.2245
vn 0.2110 0.8183 0.5347
vn 0.2416 -0.9673 0.0770
vn 0.5129 -0.6531 0.5571
vn 0.4387 0.4704 0.7657
vn 0.0297 0.9503 0.3099
vn 0.1131 -0.9870 -0.1141
vn 0.3741 -0.8800 0.2928
vn 0.5825 -0.1515 0.7986
vn -0.0039 -0.9921 0.1250
vn -0.0805 -0.7752 0.6266
vn -0.1428 0.2919 0.9457
vn -0.0631 0.9392 0.3376
vn 0.0281 -0.9953 -0.0932
vn -0.0382 -0.9345 0.3538
vn -0.1289 -0.3768 0.9173
vn -0.1052 0.7586 0.6430
vn -0.1451 0.9471 0.2862
vn -0.0471 -0.9895 -0.1368
vn -0.4060 -0.8975 0.1724
vn -0.7744 -0.2205 0.5931
vn -0.3853 0.8019 0.4566
vn -0.2219 -0.9750 0.0084
vn -0.6139 -0.6927 0.3784
vn -0.6646 0.4213 0.6171
vn -0.6188 -0.7453 -0.2481
vn -0.9631 0.2590 -0.0728
vn -0.4173 0.8976 0.1419
vn -0.3246 -0.9134 -0.2455
vn -0.9149 -0.3502 -0.2008
vn -0.7095 0.7022 0.0594
vn -0.1634 0.9678 0.1917
vn -0.0732 -0.9717 -0.2245
vn -0.2110 -0.8183 -0.5347
vn -0.5825 0.1514 -0.7986
vn -0.3741 0.8800 -0.2928
vn -0.1131 0.9870 0.1141
vn -0.0296 -0.9503 -0.3099
vn -0.4387 -0.4704 -0.7657
vn -0.5129 0.6531 -0.5570
vn -0.2416 0.9673 -0.0770
vn 0.1289 0.3767 -0.9173
vn 0.0382 0.9345 -0.3538
vn -0.0281 0.9953 0.0932
vn 0.0631 -0.9392 -0.3376
vn 0.1428 -0.2918 -0.9458
vn 0.0805 0.7752 -0.6266
vn 0.0039 0.9921 -0.1250
vn 0.1052 -0.7587 -0.6429
vn -0.2766 -0.9601 0.0416
vn -0.7015 0.2205 -0.6777
vn -0.2308 0.8975 -0.3758
vn 0.1283 0.9895 -0.0669
vn -0.3046 -0.9471 -0.1010
vn -0.7090 -0.4213 -0.5655
vn -0.4655 0.6927 -0.5509
vn -0.0413 0.9750 -0.2182
vn -0.5087 -0.8019 -0.3132
vn -0.2139 -0.9678 -0.1331
vn -0.1641 -0.7023 -0.6927
vn 0.0627 0.3503 -0.9345
vn 0.1946 0.9134 -0.3575
vn -0.2024 -0.8976 -0.3915
vn -0.0711 -0.2589 -0.9633
vn 0.1535 0.7453 -0.6488
vn 0.2112 0.9717 -0.1057
vn 0.4974 0.8183 -0.2881
vn 0.0403 -0.9673 -0.2504
vn 0.4746 -0.6532 -0.5900
vn 0.6920 0.4704 -0.5476
vn 0.3021 0.9503 -0.0754
vn -0.1297 -0.9870 -0.0949
vn 0.2340 -0.8800 -0.4134
vn 0.7032 -0.1513 -0.6947
vn 0.1242 -0.9921 -0.0147
vn 0.6316 -0.7752 -0.0135
vn 0.9565 0.2918 0.0007
vn 0.3433 0.9392 0.0123
vn -0.0963 -0.9953 -0.0139
vn 0.3556 -0.9345 -0.0147
vn 0.9263 -0.3767 -0.0088
vn 0.6514 0.7587 0.0085
vn 0.3047 0.9471 0.1009
vn -0.1283 -0.9895 0.0669
vn 0.2308 -0.8975 0.3759
vn 0.7016 -0.2205 0.6777
vn 0.5087 0.8019 0.3132
vn 0.0413 -0.9750 0.2182
vn 0.4654 -0.6927 0.5509
vn 0.7090 0.4212 0.5655
vn -0.1535 -0.7453 0.6489
vn 0.0711 0.2589 0.9633
vn 0.2024 0.8976 0.3915
vn -0.1946 -0.9134 0.3575
vn -0.0627 -0.3503 0.9345
vn 0.1641 0.7023 0.6927
vn 0.2138 0.9678 0.1331
vn -0.2111 -0.9717 0.1057
vn -0.4974 -0.8183 0.2881
vn -0.7032 0.1514 0.6947
vn -0.2340 0.8800 0.4134
vn 0.1296 0.9870 0.0949
vn -0.3020 -0.9503 0.0753
vn -0.6920 -0.4704 0.5476
vn -0.4747 0.6531 0.5900
vn -0.0403 0.9673 0.2504
vn -0.9263 0.3767 0.0088
vn -0.3556 0.9345 0.0147
vn 0.0963 0.9953 0.0140
vn -0.3432 -0.9392 -0.0123
vn -0.9564 -0.2919 -0.0007
vn -0.6316 0.7752 0.0135
vn -0.1242 0.9921 0.0147
vn -0.6514 -0.7586 -0.0085
vn 0.2154 -0.9598 0.1801
vn -0.2728 -0.9598 0.0661
vn 0.2487 -0.7600 -0.6004
vn 0.3614 0.3288 -0.8725
vn 0.1365 0.9342 -0.3295
vn 0.1365 -0.9342 -0.3295
vn 0.3614 -0.3288 -0.8725
vn 0.2487 0.7600 -0.6004
vn 0.0432 0.9936 -0.1043
vn 0.0432 -0.9936 -0.1043
vn 0.3295 -0.9342 -0.1365
vn 0.8725 -0.3288 -0.3614
vn 0.6004 0.7600 -0.2487
vn 0.1043 0.9936 -0.0432
vn 0.1043 -0.9936 -0.0432
vn 0.6004 -0.7600 -0.2487
vn 0.8725 0.3288 -0.3614
vn 0.3295 0.9342 -0.1365
vn 0.6004 0.7600 0.2487
vn 0.1043 0.9936 0.0432
vn 0.1043 -0.9936 0.0432
vn 0.6004 -0.7600 0.2487
vn 0.8725 0.3288 0.3614
vn 0.3295 0.9342 0.1365
vn 0.3295 -0.9342 0.1365
vn 0.8725 -0.3288 0.3614
vn 0.0432 -0.9936 0.1043
vn 0.2487 -0.7600 0.6004
vn 0.3614 0.3288 0.8725
vn 0.1365 0.9342 0.3295
vn 0.1365 -0.9342 0.3295
vn 0.3614 -0.3288 0.8725
vn 0.2487 0.7600 0.6004
vn 0.0432 0.9936 0.1043
vn -0.1365 0.9342 0.3295
vn -0.1365 -0.9342 0.3295
vn -0.3614 -0.3288 0.8725
vn -0.2487 0.7600 0.6004
vn -0.0432 0.9936 0.1043
vn -0.0432 -0.9936 0.1043
vn -0.2487 -0.7600 0.6004
vn -0.3614 0.3288 0.8725
vn -0.3295 -0.9342 0.1365
vn -0.8725 -0.3288 0.3614
vn -0.6004 0.7600 0.2487
vn -0.1043 0.9936 0.0432
vn -0.1043 -0.9936 0.0432
vn -0.6004 -0.7600 0.2487
vn -0.8725 0.3288 0.3614
vn -0.3295 0.9342 0.1365
vn -0.1043 0.9936 -0.0432
vn -0.1043 -0.9936 -0.0432
vn -0.6004 -0.7600 -0.2487
vn -0.8725 0.3288 -0.3614
vn -0.3295 0.9342 -0.1365
vn -0.3295 -0.9342 -0.1365
vn -0.8725 -0.3288 -0.3614
vn -0.6004 0.7600 -0.2487
vn -0.2487 -0.7600 -0.6004
vn -0.3614 0.3288 -0.8725
vn -0.1365 0.9342 -0.3295
vn -0.1365 -0.9342 -0.3295
vn -0.3614 -0.3288 -0.8725
vn -0.2487 0.7600 -0.6004
vn -0.0432 0.9936 -0.1043
vn -0.0432 -0.9936 -0.1043
vn -0.9239 -0.0000 -0.3827
vn 0.9239 -0.0000 0.3827
vn 0.9239 -0.0000 -0.3827
vn -0.0410 -0.9942 0.0990
vn -0.0990 -0.9942 0.0410
vn -0.3827 -0.0000 -0.9239
vn 0.0990 -0.9942 -0.0410
vn -0.3827 -0.0000 0.9239
vn 0.0410 -0.9942 -0.0990
vn 0.0410 -0.9942 0.0990
vn -0.0410 -0.9942 -0.0990
vn -0.9239 -0.0000 0.3827
vn 0.0990 -0.9942 0.0410
vn 0.3827 -0.0000 -0.9239
vn -0.0990 -0.9942 -0.0410
vn 0.3827 -0.0000 0.9239
vn -0.1219 -0.9913 0.0505
vn 0.0505 -0.9913 -0.1219
vn 0.1219 -0.9913 -0.0505
vn -0.0505 -0.9913 0.1219
vn 0.0505 -0.9913 0.1219
vn 0.1219 -0.9913 0.0505
vn -0.0505 -0.9913 -0.1219
vn -0.1219 -0.9913 -0.0505
vn 0.0410 0.9942 -0.0990
vn 0.0990 0.9942 -0.0410
vn -0.0990 0.9942 0.0410
vn -0.0410 0.9942 0.0990
vn -0.0410 0.9942 -0.0990
vn 0.0410 0.9942 0.0990
vn -0.0990 0.9942 -0.0410
vn 0.0990 0.9942 0.0410
vn -0.0000 -0.0000 -0.0000
vt 0.968750 1.000000
vt 0.906250 1.000000
vt 0.906250 0.500000
vt 0.968750 0.500000
vt 0.843750 1.000000
vt 0.843750 0.500000
vt 0.781250 1.000000
vt 0.781250 0.500000
vt 0.718750 1.000000
vt 0.718750 0.500000
vt 0.656250 1.000000
vt 0.656250 0.500000
vt 0.593750 1.000000
vt 0.593750 0.500000
vt 0.531250 1.000000
vt 0.531250 0.500000
vt 0.468750 1.000000
vt 0.468750 0.500000
vt 0.406250 1.000000
vt 0.406250 0.500000
vt 0.343750 1.000000
vt 0.343750 0.500000
vt 0.281250 1.000000
vt 0.281250 0.500000
vt 0.218750 1.000000
vt 0.218750 0.500000
vt 0.156250 1.000000
vt 0.156250 0.500000
vt 0.093750 1.000000
vt 0.093750 0.500000
vt 0.031250 1.000000
vt 0.031250 0.500000
vt 0.215100 0.425456
vt 0.284900 0.425456
vt 0.296822 0.485388
vt 0.203178 0.485388
vt 0.425456 0.284900
vt 0.398744 0.349388
vt 0.349388 0.398744
vt 0.383337 0.449553
vt 0.449553 0.383337
vt 0.485388 0.296822
vt 0.425456 0.215100
vt 0.485388 0.203178
vt 0.398744 0.150612
vt 0.449553 0.116663
vt 0.349388 0.101256
vt 0.383337 0.050447
vt 0.284900 0.074544
vt 0.296822 0.014612
vt 0.215100 0.074544
vt 0.203178 0.014612
vt 0.150612 0.101256
vt 0.116663 0.050447
vt 0.101256 0.150612
vt 0.050447 0.116663
vt 0.074544 0.215100
vt 0.014612 0.203178
vt 0.074544 0.284900
vt 0.014612 0.296822
vt 0.101256 0.349388
vt 0.050447 0.383337
vt 0.150612 0.398744
vt 0.116663 0.449553
vt 0.222738 0.112943
vt 0.172363 0.133809
vt 0.222738 0.387057
vt 0.277262 0.387057
vt 0.327637 0.366191
vt 0.366191 0.327637
vt 0.387057 0.277262
vt 0.387057 0.222738
vt 0.366191 0.172363
vt 0.327637 0.133809
vt 0.277262 0.112943
vt 0.133809 0.172363
vt 0.112943 0.222738
vt 0.112943 0.277262
vt 0.133809 0.327637
vt 0.172363 0.366192
vt 0.796822 0.485388
vt 0.883337 0.449553
vt 0.750000 0.250000
vt 0.250000 0.250000
vt 0.703178 0.485388
vt 0.949553 0.383337
vt 0.985388 0.296822
vt 0.985388 0.203178
vt 0.949553 0.116663
vt 0.883337 0.050447
vt 0.796822 0.014612
vt 0.703178 0.014612
vt 0.616663 0.050447
vt 0.550447 0.116663
vt 0.514612 0.203178
vt 0.514612 0.296822
vt 0.550447 0.383337
vt 0.616663 0.449553
vt 0.375000 0.000000
vt 0.375000 0.160353
vt 0.625000 0.160353
vt 0.625000 0.000000
vt 0.375000 0.750000
vt 0.375000 1.000000
vt 0.625000 1.000000
vt 0.625000 0.750000
vt 0.375000 0.553369
vt 0.125000 0.553369
vt 0.125000 0.500000
vt 0.380947 0.505947
vt 0.383616 0.241384
vt 0.428369 0.250000
vt 0.428369 0.500000
vt 0.875000 0.553369
vt 0.625000 0.553369
vt 0.619053 0.505947
vt 0.875000 0.500000
vt 0.616384 0.241384
vt 0.571631 0.500000
vt 0.571631 0.250000
vt 0.125000 0.696631
vt 0.375000 0.696631
vt 0.380947 0.744053
vt 0.125000 0.750000
vt 0.428369 0.750000
vt 0.428369 1.000000
vt 0.625000 0.696631
vt 0.875000 0.696631
vt 0.875000 0.750000
vt 0.619053 0.744053
vt 0.571631 1.000000
vt 0.571631 0.750000
vt 0.500000 0.625000
vt 0.750000 0.625000
vt 0.750000 0.750000
vt 0.625000 0.625000
vt 0.750000 0.875000
vt 0.687500 1.000000
vt 0.625000 0.875000
vt 0.500000 0.875000
vt 0.500000 0.750000
vt 0.562500 1.000000
vt 0.375000 0.875000
vt 0.375000 0.625000
vt 0.437500 1.000000
vt 0.250000 0.750000
vt 0.250000 0.625000
vt 0.312500 1.000000
vt 0.250000 0.875000
vt 0.187500 1.000000
vt 0.125000 0.875000
vt 0.125000 0.625000
vt 0.000000 0.875000
vt 0.000000 0.750000
vt 0.000000 0.625000
vt 0.062500 1.000000
vt 1.000000 0.625000
vt 1.000000 0.750000
vt 0.875000 0.625000
vt 1.000000 0.875000
vt 0.937500 1.000000
vt 0.875000 0.875000
vt 0.812500 1.000000
vt 0.375000 0.196631
vt 0.375000 0.053369
vt 0.500000 0.125524
vt 0.390631 0.015631
vt 0.428369 0.000000
vt 0.571631 0.000000
vt 0.609369 0.015631
vt 0.625000 0.053369
vt 0.625000 0.196631
vt 0.375000 0.589647
vt 0.625000 0.589647
vt 0.446564 0.589647
vt 0.125000 0.589647
vt 0.875000 0.589647
vt 0.000000 0.000000
vt 0.318458 0.556542
vt 0.318458 0.693458
vt 0.181542 0.693458
vt 0.181542 0.556542
vt 0.625000 0.250000
vt 0.375000 0.250000
vt 0.625000 0.500000
vt 0.375000 0.500000
vt 0.285281 0.660281
vt 0.214719 0.660282
vt 0.285281 0.589719
vt 0.214719 0.589719
vt 0.750000 0.375000
vt 0.750000 0.500000
vt 0.625000 0.375000
vt 0.687500 0.000000
vt 0.750000 0.125000
vt 0.625000 0.125000
vt 0.562500 0.000000
vt 0.500000 0.125000
vt 0.500000 0.375000
vt 0.500000 0.250000
vt 0.500000 0.500000
vt 0.375000 0.125000
vt 0.375000 0.375000
vt 0.437500 0.000000
vt 0.250000 0.125000
vt 0.250000 0.500000
vt 0.250000 0.375000
vt 0.312500 0.000000
vt 0.187500 0.000000
vt 0.125000 0.125000
vt 0.125000 0.375000
vt 0.125000 0.250000
vt 0.000000 0.375000
vt 0.000000 0.250000
vt 0.000000 0.500000
vt 0.000000 0.125000
vt 0.062500 0.000000
vt 1.000000 0.125000
vt 1.000000 0.250000
vt 0.875000 0.250000
vt 0.875000 0.125000
vt 1.000000 0.375000
vt 1.000000 0.500000
vt 0.875000 0.375000
vt 0.937500 0.000000
vt 0.812500 0.000000
vt 0.264430 0.095921
vt 0.139430 0.095921
vt 0.014430 0.095921
vt 0.610570 0.095921
vt 0.485570 0.095921
vt 0.764430 0.095921
vt 0.389430 0.095921
vt 0.889430 0.095921
vt 0.985570 0.095921
vt 0.459492 0.769438
vt 0.540508 0.769438
vt 0.540508 1.000000
vt 0.459492 1.000000
vt 0.540508 0.968374
vt 0.459492 0.968374
vt 0.531743 1.000000
vt 0.468257 1.000000
s 1
f 33/1/1 34/2/1 3/3/1 1/4/1
f 34/2/2 35/5/2 5/6/2 3/3/2
f 35/5/3 36/7/3 7/8/3 5/6/3
f 36/7/4 37/9/4 9/10/4 7/8/4
f 37/9/5 38/11/5 11/12/5 9/10/5
f 38/11/6 39/13/6 13/14/6 11/12/6
f 39/13/7 40/15/7 15/16/7 13/14/7
f 40/15/8 41/17/8 17/18/8 15/16/8
f 41/17/9 42/19/9 19/20/9 17/18/9
f 42/19/10 43/21/10 21/22/10 19/20/10
f 43/21/11 44/23/11 23/24/11 21/22/11
f 44/23/12 45/25/12 25/26/12 23/24/12
f 45/25/13 46/27/13 27/28/13 25/26/13
f 46/27/14 47/29/14 29/30/14 27/28/14
f 47/29/15 48/31/15 31/32/15 29/30/15
f 32/33/16 2/34/16 33/35/16 48/36/16
f 8/37/17 6/38/17 67/38/17 68/37/17
f 2/34/16 4/39/16 34/40/16 33/35/16
f 4/39/16 6/38/16 35/41/16 34/40/16
f 6/38/16 8/37/16 36/42/16 35/41/16
f 8/37/16 10/43/16 37/44/16 36/42/16
f 10/43/16 12/45/16 38/46/16 37/44/16
f 12/45/16 14/47/16 39/48/16 38/46/16
f 14/47/16 16/49/16 40/50/16 39/48/16
f 16/49/16 18/51/16 41/52/16 40/50/16
f 18/51/16 20/53/16 42/54/16 41/52/16
f 20/53/16 22/55/16 43/56/16 42/54/16
f 22/55/16 24/57/16 44/58/16 43/56/16
f 24/57/16 26/59/16 45/60/16 44/58/16
f 26/59/16 28/61/16 46/62/16 45/60/16
f 28/61/16 30/63/16 47/64/16 46/62/16
f 30/63/16 32/33/16 48/36/16 47/64/16
f 18/51/18 73/51/18 74/53/18 20/53/18
f 57/65/19 89/65/19 90/66/19 58/66/19
f 22/55/20 20/53/20 74/53/20 75/55/20
f 10/43/21 8/37/21 68/37/21 69/43/21
f 24/57/22 22/55/22 75/55/22 76/57/22
f 12/45/23 10/43/23 69/43/23 70/45/23
f 26/59/24 24/57/24 76/57/24 77/59/24
f 14/47/25 12/45/25 70/45/25 71/47/25
f 28/61/26 26/59/26 77/59/26 78/61/26
f 16/49/27 14/47/27 71/47/27 72/49/27
f 2/34/8 32/33/8 80/33/8 65/34/8
f 30/63/28 28/61/28 78/61/28 79/63/28
f 4/39/29 2/34/29 65/34/29 66/39/29
f 18/51/30 16/49/30 72/49/30 73/51/30
f 32/33/31 30/63/31 79/63/31 80/33/31
f 6/38/32 4/39/32 66/39/32 67/38/32
f 64/67/16 49/68/16 65/34/16 80/33/16
f 49/68/16 50/69/16 66/39/16 65/34/16
f 50/69/16 51/70/16 67/38/16 66/39/16
f 51/70/16 52/71/16 68/37/16 67/38/16
f 52/71/16 53/72/16 69/43/16 68/37/16
f 53/72/16 54/73/16 70/45/16 69/43/16
f 54/73/16 55/74/16 71/47/16 70/45/16
f 55/74/16 56/75/16 72/49/16 71/47/16
f 56/75/16 57/65/16 73/51/16 72/49/16
f 57/65/16 58/66/16 74/53/16 73/51/16
f 58/66/16 59/76/16 75/55/16 74/53/16
f 59/76/16 60/77/16 76/57/16 75/55/16
f 60/77/16 61/78/16 77/59/16 76/57/16
f 61/78/16 62/79/16 78/61/16 77/59/16
f 62/79/16 63/80/16 79/63/16 78/61/16
f 63/80/16 64/67/16 80/33/16 79/63/16
f 49/68/8 64/67/8 96/67/8 81/68/8
f 1/81/33 3/82/33 98/83/33
f 52/71/34 51/70/34 83/70/34 84/71/34
f 59/76/35 58/66/35 90/66/35 91/76/35
f 53/72/36 52/71/36 84/71/36 85/72/36
f 60/77/37 59/76/37 91/76/37 92/77/37
f 54/73/38 53/72/38 85/72/38 86/73/38
f 61/78/39 60/77/39 92/77/39 93/78/39
f 55/74/40 54/73/40 86/73/40 87/74/40
f 62/79/41 61/78/41 93/78/41 94/79/41
f 56/75/42 55/74/42 87/74/42 88/75/42
f 63/80/43 62/79/43 94/79/43 95/80/43
f 50/69/44 49/68/44 81/68/44 82/69/44
f 57/65/30 56/75/30 88/75/30 89/65/30
f 64/67/45 63/80/45 95/80/45 96/67/45
f 51/70/46 50/69/46 82/69/46 83/70/46
f 81/68/16 96/67/16 97/84/16
f 95/80/16 97/84/16 96/67/16
f 94/79/16 97/84/16 95/80/16
f 93/78/16 97/84/16 94/79/16
f 92/77/16 97/84/16 93/78/16
f 91/76/16 97/84/16 92/77/16
f 90/66/16 97/84/16 91/76/16
f 89/65/16 97/84/16 90/66/16
f 88/75/16 97/84/16 89/65/16
f 87/74/16 97/84/16 88/75/16
f 86/73/16 97/84/16 87/74/16
f 85/72/16 97/84/16 86/73/16
f 84/71/16 97/84/16 85/72/16
f 83/70/16 97/84/16 84/71/16
f 82/69/16 97/84/16 83/70/16
f 81/68/16 97/84/16 82/69/16
f 31/85/33 1/81/33 98/83/33
f 3/82/33 5/86/33 98/83/33
f 5/86/33 7/87/33 98/83/33
f 7/87/33 9/88/33 98/83/33
f 9/88/33 11/89/33 98/83/33
f 11/89/33 13/90/33 98/83/33
f 13/90/33 15/91/33 98/83/33
f 15/91/33 17/92/33 98/83/33
f 17/92/33 19/93/33 98/83/33
f 19/93/33 21/94/33 98/83/33
f 21/94/33 23/95/33 98/83/33
f 23/95/33 25/96/33 98/83/33
f 25/96/33 27/97/33 98/83/33
f 27/97/33 29/98/33 98/83/33
f 29/98/33 31/85/33 98/83/33
f 31/32/30 48/31/30 33/1/30 1/4/30
f 99/99/47 158/100/47 157/101/47 100/102/47
f 101/103/30 99/104/30 100/105/30 102/106/30
f 121/107/48 110/108/48 111/109/48 123/110/48
f 123/110/49 111/111/49 109/112/49 122/113/49
f 112/114/50 125/115/50 126/116/50 114/117/50
f 114/118/51 126/116/51 124/119/51 113/120/51
f 103/121/52 116/122/52 117/123/52 105/124/52
f 105/104/53 117/123/53 115/125/53 104/126/53
f 118/127/54 107/128/54 108/129/54 120/130/54
f 120/130/55 108/105/55 106/131/55 119/132/55
f 110/108/24 121/107/24 116/122/24 103/121/24
f 121/107/47 123/110/47 152/133/47
f 115/125/8 119/132/8 106/131/8 104/126/8
f 125/115/21 112/114/21 107/128/21 118/127/21
f 151/134/56 150/135/56 128/106/56 129/136/56
f 149/137/57 148/138/57 127/139/57
f 150/135/58 149/137/58 127/139/58 128/106/58
f 128/106/59 127/139/59 130/140/59 131/141/59
f 129/136/60 128/106/60 131/141/60 132/133/60
f 127/139/61 148/142/61 130/140/61
f 131/141/62 130/140/62 133/143/62 134/103/62
f 132/133/63 131/141/63 134/103/63 135/144/63
f 130/140/64 148/145/64 133/143/64
f 135/144/65 134/103/65 137/146/65 138/147/65
f 133/143/66 148/148/66 136/149/66
f 134/103/67 133/143/67 136/149/67 137/146/67
f 136/149/68 148/150/68 139/151/68
f 137/146/69 136/149/69 139/151/69 140/124/69
f 138/147/70 137/146/70 140/124/70 141/152/70
f 140/124/71 139/151/71 142/153/71 143/154/71
f 141/152/72 140/124/72 143/154/72 144/155/72
f 139/151/73 148/156/73 142/153/73
f 144/157/74 143/158/74 146/129/74 147/159/74
f 142/160/75 148/161/75 145/162/75
f 143/158/76 142/160/76 145/162/76 146/129/76
f 147/159/77 146/129/77 150/135/77 151/134/77
f 145/162/78 148/163/78 149/137/78
f 146/129/79 145/162/79 149/137/79 150/135/79
f 123/110/47 122/113/47 152/133/47
f 122/113/47 124/119/47 152/133/47
f 124/119/47 126/116/47 152/133/47
f 126/116/47 125/115/47 152/133/47
f 125/115/47 118/127/47 152/133/47
f 118/127/47 120/130/47 152/133/47
f 120/130/47 119/132/47 152/133/47
f 119/132/47 115/125/47 152/133/47
f 115/125/47 117/123/47 152/133/47
f 117/123/47 116/122/47 152/133/47
f 116/122/47 121/107/47 152/133/47
f 110/164/80 103/165/80 153/166/80
f 103/165/80 105/167/80 153/166/80
f 105/167/80 104/168/80 153/166/80
f 104/168/80 106/169/80 153/166/80
f 106/169/80 108/170/80 153/166/80
f 108/170/80 107/171/80 153/166/80
f 107/171/80 112/172/80 153/166/80
f 112/172/80 114/118/80 153/166/80
f 114/118/80 113/120/80 153/166/80
f 113/120/80 109/112/80 153/166/80
f 109/112/80 111/111/80 153/166/80
f 111/111/80 110/164/80 153/166/80
f 154/173/80 101/103/80 102/106/80 156/174/80 155/175/80
f 158/176/21 99/124/21 101/103/21 154/173/21
f 156/174/24 102/106/24 100/129/24 157/177/24
f 124/119/30 122/113/30 154/178/30 156/178/30
f 124/119/30 156/178/30 157/177/30 113/120/30
f 109/112/30 113/120/30 157/101/30 158/100/30
f 109/112/30 158/100/30 154/173/30 122/113/30
f 162/179/80 161/180/80 166/180/80 165/179/80
f 164/181/80 163/182/80 170/182/80 167/181/80
f 159/181/47 160/182/47 163/182/47 164/181/47
f 161/180/81 159/181/81 164/181/81 166/180/81
f 160/182/82 162/179/82 165/179/82 163/182/82
f 166/180/82 164/181/82 167/181/82 168/180/82
f 163/182/81 165/179/81 169/179/81 170/182/81
f 165/179/47 166/180/47 168/180/47 169/179/47
f 160/178/83 170/178/83 169/178/83 168/178/83 167/178/83 164/178/83 159/178/83
f 180/99/84 172/102/84 174/183/84 179/184/84
f 179/184/85 174/183/85 178/185/85 181/186/85
f 181/186/86 178/185/86 176/106/86 182/103/86
f 182/103/87 176/106/87 172/105/87 180/104/87
f 178/185/88 174/117/88 172/129/88 176/106/88
f 173/182/89 171/181/89 180/124/89 179/109/89
f 177/179/89 173/182/89 179/109/89 181/186/89
f 175/180/89 177/179/89 181/186/89 182/103/89
f 171/181/89 175/180/89 182/103/89 180/124/89
f 192/99/80 184/102/80 186/183/80 191/184/80
f 191/184/81 186/183/81 190/185/81 193/186/81
f 193/186/47 190/185/47 188/106/47 194/103/47
f 194/103/82 188/106/82 184/105/82 192/104/82
f 185/182/90 183/181/90 192/124/90 191/109/90
f 189/179/90 185/182/90 191/109/90 193/186/90
f 187/180/90 189/179/90 193/186/90 194/103/90
f 183/181/90 187/180/90 194/103/90 192/124/90
f 204/99/91 196/102/91 198/183/91 203/184/91
f 203/184/92 198/183/92 202/185/92 205/186/92
f 205/186/93 202/185/93 200/106/93 206/103/93
f 206/103/94 200/106/94 196/105/94 204/104/94
f 197/182/95 195/181/95 204/124/95 203/109/95
f 201/179/95 197/182/95 203/109/95 205/186/95
f 199/180/95 201/179/95 205/186/95 206/103/95
f 195/181/95 199/180/95 206/103/95 204/124/95
f 210/187/87 209/188/87 216/188/87 215/187/87
f 208/189/84 207/187/84 210/187/84 211/189/84
f 213/190/89 214/189/89 215/187/89 216/188/89
f 209/188/84 212/190/84 213/190/84 216/188/84
f 211/189/86 210/187/86 215/187/86 214/189/86
f 212/190/85 211/189/85 214/189/85 213/190/85
f 272/191/96 271/192/96 220/185/96 221/193/96
f 270/134/97 269/135/97 218/106/97 219/136/97
f 268/137/98 267/138/98 217/139/98
f 266/194/99 274/195/99 223/196/99
f 273/83/100 272/191/100 221/193/100 222/183/100
f 271/192/101 270/134/101 219/136/101 220/185/101
f 269/135/102 268/137/102 217/139/102 218/106/102
f 274/195/103 273/83/103 222/183/103 223/196/103
f 266/197/104 223/196/104 230/198/104
f 222/183/105 221/193/105 228/199/105 229/200/105
f 220/185/106 219/136/106 226/133/106 227/201/106
f 218/106/107 217/139/107 224/140/107 225/141/107
f 223/196/108 222/183/108 229/200/108 230/198/108
f 221/193/109 220/185/109 227/201/109 228/199/109
f 219/136/110 218/106/110 225/141/110 226/133/110
f 217/139/111 267/142/111 224/140/111
f 225/141/112 224/140/112 231/143/112 232/103/112
f 230/198/113 229/200/113 236/184/113 237/202/113
f 228/199/114 227/201/114 234/186/114 235/203/114
f 226/133/115 225/141/115 232/103/115 233/144/115
f 224/140/116 267/145/116 231/143/116
f 266/204/117 230/198/117 237/202/117
f 229/200/118 228/199/118 235/203/118 236/184/118
f 227/201/119 226/133/119 233/144/119 234/186/119
f 237/202/120 236/184/120 243/84/120 244/205/120
f 235/203/121 234/186/121 241/206/121 242/207/121
f 233/144/122 232/103/122 239/146/122 240/147/122
f 231/143/123 267/148/123 238/149/123
f 266/208/124 237/202/124 244/205/124
f 236/184/125 235/203/125 242/207/125 243/84/125
f 234/186/126 233/144/126 240/147/126 241/206/126
f 232/103/127 231/143/127 238/149/127 239/146/127
f 238/149/128 267/150/128 245/151/128
f 266/209/129 244/205/129 251/210/129
f 243/84/130 242/207/130 249/211/130 250/212/130
f 241/206/131 240/147/131 247/152/131 248/109/131
f 239/146/132 238/149/132 245/151/132 246/124/132
f 244/205/133 243/84/133 250/212/133 251/210/133
f 242/207/134 241/206/134 248/109/134 249/211/134
f 240/147/135 239/146/135 246/124/135 247/152/135
f 250/212/136 249/211/136 256/213/136 257/214/136
f 248/109/137 247/152/137 254/155/137 255/215/137
f 246/124/138 245/151/138 252/153/138 253/154/138
f 251/210/139 250/212/139 257/214/139 258/216/139
f 249/211/140 248/109/140 255/215/140 256/213/140
f 247/152/141 246/124/141 253/154/141 254/155/141
f 245/151/142 267/156/142 252/153/142
f 266/217/143 251/210/143 258/216/143
f 258/218/144 257/219/144 264/220/144 265/221/144
f 256/222/145 255/223/145 262/117/145 263/224/145
f 254/157/146 253/158/146 260/129/146 261/159/146
f 252/160/147 267/161/147 259/162/147
f 266/225/148 258/218/148 265/221/148
f 257/219/149 256/222/149 263/224/149 264/220/149
f 255/223/150 254/157/150 261/159/150 262/117/150
f 253/158/151 252/160/151 259/162/151 260/129/151
f 263/224/152 262/117/152 271/192/152 272/191/152
f 261/159/153 260/129/153 269/135/153 270/134/153
f 259/162/154 267/163/154 268/137/154
f 266/226/155 265/221/155 274/195/155
f 264/220/156 263/224/156 272/191/156 273/83/156
f 262/117/157 261/159/157 270/134/157 271/192/157
f 260/129/158 259/162/158 268/137/158 269/135/158
f 265/221/159 264/220/159 273/83/159 274/195/159
f 278/187/82 277/188/82 284/188/82 283/187/82
f 276/189/80 275/187/80 278/187/80 279/189/80
f 281/190/90 282/189/90 283/187/90 284/188/90
f 277/188/80 280/190/80 281/190/80 284/188/80
f 279/189/47 278/187/47 283/187/47 282/189/47
f 280/190/81 279/189/81 282/189/81 281/190/81
f 340/191/160 339/192/160 288/185/160 289/193/160
f 338/134/161 337/135/161 286/106/161 287/136/161
f 336/137/162 335/138/162 285/139/162
f 334/194/163 342/195/163 291/196/163
f 341/83/164 340/191/164 289/193/164 290/183/164
f 339/192/165 338/134/165 287/136/165 288/185/165
f 337/135/166 336/137/166 285/139/166 286/106/166
f 342/195/167 341/83/167 290/183/167 291/196/167
f 334/197/168 291/196/168 298/198/168
f 290/183/169 289/193/169 296/199/169 297/200/169
f 288/185/170 287/136/170 294/133/170 295/201/170
f 286/106/171 285/139/171 292/140/171 293/141/171
f 291/196/172 290/183/172 297/200/172 298/198/172
f 289/193/173 288/185/173 295/201/173 296/199/173
f 287/136/174 286/106/174 293/141/174 294/133/174
f 285/139/175 335/142/175 292/140/175
f 293/141/176 292/140/176 299/143/176 300/103/176
f 298/198/177 297/200/177 304/184/177 305/202/177
f 296/199/178 295/201/178 302/186/178 303/203/178
f 294/133/179 293/141/179 300/103/179 301/144/179
f 292/140/180 335/145/180 299/143/180
f 334/204/181 298/198/181 305/202/181
f 297/200/182 296/199/182 303/203/182 304/184/182
f 295/201/183 294/133/183 301/144/183 302/186/183
f 305/202/184 304/184/184 311/84/184 312/205/184
f 303/203/185 302/186/185 309/206/185 310/207/185
f 301/144/186 300/103/186 307/146/186 308/147/186
f 299/143/187 335/148/187 306/149/187
f 334/208/188 305/202/188 312/205/188
f 304/184/189 303/203/189 310/207/189 311/84/189
f 302/186/190 301/144/190 308/147/190 309/206/190
f 300/103/191 299/143/191 306/149/191 307/146/191
f 306/149/192 335/150/192 313/151/192
f 334/209/193 312/205/193 319/210/193
f 311/84/194 310/207/194 317/211/194 318/212/194
f 309/206/195 308/147/195 315/152/195 316/109/195
f 307/146/196 306/149/196 313/151/196 314/124/196
f 312/205/197 311/84/197 318/212/197 319/210/197
f 310/207/198 309/206/198 316/109/198 317/211/198
f 308/147/199 307/146/199 314/124/199 315/152/199
f 318/212/200 317/211/200 324/213/200 325/214/200
f 316/109/201 315/152/201 322/155/201 323/215/201
f 314/124/202 313/151/202 320/153/202 321/154/202
f 319/210/203 318/212/203 325/214/203 326/216/203
f 317/211/204 316/109/204 323/215/204 324/213/204
f 315/152/205 314/124/205 321/154/205 322/155/205
f 313/151/206 335/156/206 320/153/206
f 334/217/207 319/210/207 326/216/207
f 326/218/208 325/219/208 332/220/208 333/221/208
f 324/222/209 323/223/209 330/117/209 331/224/209
f 322/157/210 321/158/210 328/129/210 329/159/210
f 320/160/211 335/161/211 327/162/211
f 334/225/212 326/218/212 333/221/212
f 325/219/213 324/222/213 331/224/213 332/220/213
f 323/223/214 322/157/214 329/159/214 330/117/214
f 321/158/215 320/160/215 327/162/215 328/129/215
f 331/224/216 330/117/216 339/192/216 340/191/216
f 329/159/217 328/129/217 337/135/217 338/134/217
f 327/162/218 335/163/218 336/137/218
f 334/226/219 333/221/219 342/195/219
f 332/220/220 331/224/220 340/191/220 341/83/220
f 330/117/221 329/159/221 338/134/221 339/192/221
f 328/129/222 327/162/222 336/137/222 337/135/222
f 333/221/223 332/220/223 341/83/223 342/195/223
f 346/187/94 345/188/94 352/188/94 351/187/94
f 344/189/91 343/187/91 346/187/91 347/189/91
f 349/190/224 350/189/224 351/187/224 352/188/224
f 345/188/91 348/190/91 349/190/91 352/188/91
f 347/189/93 346/187/93 351/187/93 350/189/93
f 348/190/92 347/189/92 350/189/92 349/190/92
f 408/191/225 407/192/225 356/185/225 357/193/225
f 406/134/226 405/135/226 354/106/226 355/136/226
f 404/137/227 403/138/227 353/139/227
f 402/194/228 410/195/228 359/196/228
f 409/83/229 408/191/229 357/193/229 358/183/229
f 407/192/230 406/134/230 355/136/230 356/185/230
f 405/135/231 404/137/231 353/139/231 354/106/231
f 410/195/232 409/83/232 358/183/232 359/196/232
f 402/197/233 359/196/233 366/198/233
f 358/183/234 357/193/234 364/199/234 365/200/234
f 356/185/235 355/136/235 362/133/235 363/201/235
f 354/106/236 353/139/236 360/140/236 361/141/236
f 359/196/237 358/183/237 365/200/237 366/198/237
f 357/193/238 356/185/238 363/201/238 364/199/238
f 355/136/239 354/106/239 361/141/239 362/133/239
f 353/139/240 403/142/240 360/140/240
f 361/141/241 360/140/241 367/143/241 368/103/241
f 366/198/242 365/200/242 372/184/242 373/202/242
f 364/199/243 363/201/243 370/186/243 371/203/243
f 362/133/244 361/141/244 368/103/244 369/144/244
f 360/140/245 403/145/245 367/143/245
f 402/204/246 366/198/246 373/202/246
f 365/200/247 364/199/247 371/203/247 372/184/247
f 363/201/248 362/133/248 369/144/248 370/186/248
f 373/202/249 372/184/249 379/84/249 380/205/249
f 371/203/250 370/186/250 377/206/250 378/207/250
f 369/144/251 368/103/251 375/146/251 376/147/251
f 367/143/252 403/148/252 374/149/252
f 402/208/253 373/202/253 380/205/253
f 372/184/254 371/203/254 378/207/254 379/84/254
f 370/186/255 369/144/255 376/147/255 377/206/255
f 368/103/256 367/143/256 374/149/256 375/146/256
f 374/149/257 403/150/257 381/151/257
f 402/209/258 380/205/258 387/210/258
f 379/84/259 378/207/259 385/211/259 386/212/259
f 377/206/260 376/147/260 383/152/260 384/109/260
f 375/146/261 374/149/261 381/151/261 382/124/261
f 380/205/262 379/84/262 386/212/262 387/210/262
f 378/207/263 377/206/263 384/109/263 385/211/263
f 376/147/264 375/146/264 382/124/264 383/152/264
f 386/212/265 385/211/265 392/213/265 393/214/265
f 384/109/266 383/152/266 390/155/266 391/215/266
f 382/124/267 381/151/267 388/153/267 389/154/267
f 387/210/268 386/212/268 393/214/268 394/216/268
f 385/211/269 384/109/269 391/215/269 392/213/269
f 383/152/270 382/124/270 389/154/270 390/155/270
f 381/151/271 403/156/271 388/153/271
f 402/217/272 387/210/272 394/216/272
f 394/218/273 393/219/273 400/220/273 401/221/273
f 392/222/274 391/223/274 398/117/274 399/224/274
f 390/157/275 389/158/275 396/129/275 397/159/275
f 388/160/276 403/161/276 395/162/276
f 402/225/277 394/218/277 401/221/277
f 393/219/278 392/222/278 399/224/278 400/220/278
f 391/223/279 390/157/279 397/159/279 398/117/279
f 389/158/280 388/160/280 395/162/280 396/129/280
f 399/224/281 398/117/281 407/192/281 408/191/281
f 397/159/282 396/129/282 405/135/282 406/134/282
f 395/162/283 403/163/283 404/137/283
f 402/226/284 401/221/284 410/195/284
f 400/220/285 399/224/285 408/191/285 409/83/285
f 398/117/286 397/159/286 406/134/286 407/192/286
f 396/129/287 395/162/287 404/137/287 405/135/287
f 401/221/288 400/220/288 409/83/288 410/195/288
f 414/179/84 413/180/84 418/180/84 417/179/84
f 416/181/84 415/182/84 422/182/84 419/181/84
f 411/181/86 412/182/86 415/182/86 416/181/86
f 413/180/85 411/181/85 416/181/85 418/180/85
f 412/182/87 414/179/87 417/179/87 415/182/87
f 418/180/87 416/181/87 419/181/87 420/180/87
f 415/182/85 417/179/85 421/179/85 422/182/85
f 417/179/86 418/180/86 420/180/86 421/179/86
f 412/178/289 422/178/289 421/178/289 420/178/289 419/178/289 416/178/289 411/178/289
f 426/179/91 425/180/91 430/180/91 429/179/91
f 428/181/91 427/182/91 434/182/91 431/181/91
f 423/181/93 424/182/93 427/182/93 428/181/93
f 425/180/92 423/181/92 428/181/92 430/180/92
f 424/182/94 426/179/94 429/179/94 427/182/94
f 430/180/94 428/181/94 431/181/94 432/180/94
f 427/182/92 429/179/92 433/179/92 434/182/92
f 429/179/93 430/180/93 432/180/93 433/179/93
f 424/178/290 434/178/290 433/178/290 432/178/290 431/178/290 428/178/290 423/178/290
f 491/83/291 490/191/291 439/193/291 440/183/291
f 489/192/292 488/134/292 437/136/292 438/185/292
f 487/135/293 486/137/293 435/139/293 436/106/293
f 492/195/294 491/83/294 440/183/294 441/196/294
f 490/191/295 489/192/295 438/185/295 439/193/295
f 488/134/296 487/135/296 436/106/296 437/136/296
f 486/137/297 485/138/297 435/139/297
f 484/194/298 492/195/298 441/196/298
f 441/196/299 440/183/299 447/200/299 448/198/299
f 439/193/300 438/185/300 445/201/300 446/199/300
f 437/136/301 436/106/301 443/141/301 444/133/301
f 435/139/302 485/142/302 442/140/302
f 484/197/303 441/196/303 448/198/303
f 440/183/304 439/193/304 446/199/304 447/200/304
f 438/185/305 437/136/305 444/133/305 445/201/305
f 436/106/306 435/139/306 442/140/306 443/141/306
f 444/133/307 443/141/307 450/103/307 451/144/307
f 442/140/308 485/145/308 449/143/308
f 484/204/309 448/198/309 455/202/309
f 447/200/310 446/199/310 453/203/310 454/184/310
f 445/201/311 444/133/311 451/144/311 452/186/311
f 443/141/312 442/140/312 449/143/312 450/103/312
f 448/198/313 447/200/313 454/184/313 455/202/313
f 446/199/314 445/201/314 452/186/314 453/203/314
f 484/208/315 455/202/315 462/205/315
f 454/184/316 453/203/316 460/207/316 461/84/316
f 452/186/317 451/144/317 458/147/317 459/206/317
f 450/103/318 449/143/318 456/149/318 457/146/318
f 455/202/319 454/184/319 461/84/319 462/205/319
f 453/203/320 452/186/320 459/206/320 460/207/320
f 451/144/321 450/103/321 457/146/321 458/147/321
f 449/143/322 485/148/322 456/149/322
f 457/146/323 456/149/323 463/151/323 464/124/323
f 462/205/324 461/84/324 468/212/324 469/210/324
f 460/207/325 459/206/325 466/109/325 467/211/325
f 458/147/326 457/146/326 464/124/326 465/152/326
f 456/149/327 485/150/327 463/151/327
f 484/209/328 462/205/328 469/210/328
f 461/84/329 460/207/329 467/211/329 468/212/329
f 459/206/330 458/147/330 465/152/330 466/109/330
f 469/210/331 468/212/331 475/214/331 476/216/331
f 467/211/332 466/109/332 473/215/332 474/213/332
f 465/152/333 464/124/333 471/154/333 472/155/333
f 463/151/334 485/156/334 470/153/334
f 484/217/335 469/210/335 476/216/335
f 468/212/336 467/211/336 474/213/336 475/214/336
f 466/109/337 465/152/337 472/155/337 473/215/337
f 464/124/338 463/151/338 470/153/338 471/154/338
f 470/160/339 485/161/339 477/162/339
f 484/225/340 476/218/340 483/221/340
f 475/219/341 474/222/341 481/224/341 482/220/341
f 473/223/342 472/157/342 479/159/342 480/117/342
f 471/158/343 470/160/343 477/162/343 478/129/343
f 476/218/344 475/219/344 482/220/344 483/221/344
f 474/222/345 473/223/345 480/117/345 481/224/345
f 472/157/346 471/158/346 478/129/346 479/159/346
f 482/220/347 481/224/347 490/191/347 491/83/347
f 480/117/348 479/159/348 488/134/348 489/192/348
f 478/129/349 477/162/349 486/137/349 487/135/349
f 483/221/350 482/220/350 491/83/350 492/195/350
f 481/224/351 480/117/351 489/192/351 490/191/351
f 479/159/352 478/129/352 487/135/352 488/134/352
f 477/162/353 485/163/353 486/137/353
f 484/226/354 483/221/354 492/195/354
f 525/218/355 529/221/355 497/221/355 534/218/355
f 532/83/291 531/191/291 494/193/291 495/183/291
f 533/195/294 532/83/294 495/183/294 496/196/294
f 531/191/295 530/192/295 493/185/295 494/193/295
f 496/196/299 495/183/299 500/200/299 501/198/299
f 494/193/300 493/185/300 498/201/300 499/199/300
f 501/198/356 507/202/356 503/202/356 510/198/356
f 495/183/304 494/193/304 499/199/304 500/200/304
f 501/198/313 500/200/313 506/184/313 507/202/313
f 499/199/314 498/201/314 504/186/314 505/203/314
f 496/196/357 501/198/357 510/198/357 537/196/357
f 500/200/310 499/199/310 505/203/310 506/184/310
f 502/209/358 539/227/358 521/228/358
f 502/217/359 521/228/359 515/229/359
f 529/221/360 533/195/360 536/195/360 497/221/360
f 506/184/316 505/203/316 512/207/316 513/84/316
f 502/197/361 516/230/361 538/231/361
f 507/202/319 506/184/319 513/84/319 514/205/319
f 505/203/320 504/186/320 511/206/320 512/207/320
f 514/205/362 520/210/362 535/210/362 509/205/362
f 513/84/329 512/207/329 518/211/329 519/212/329
f 502/194/363 508/232/363 516/230/363
f 514/205/324 513/84/324 519/212/324 520/210/324
f 512/207/325 511/206/325 517/109/325 518/211/325
f 502/208/364 540/233/364 539/227/364
f 520/210/331 519/212/331 524/214/331 525/216/331
f 518/211/332 517/109/332 522/215/332 523/213/332
f 502/226/365 541/234/365 508/232/365
f 520/210/366 525/216/366 534/216/366 535/210/366
f 519/212/336 518/211/336 523/213/336 524/214/336
f 502/204/367 538/231/367 540/233/367
f 525/218/344 524/219/344 528/220/344 529/221/344
f 523/222/345 522/223/345 526/117/345 527/224/345
f 533/195/368 496/196/368 537/196/368 536/195/368
f 524/219/341 523/222/341 527/224/341 528/220/341
f 502/225/369 515/235/369 541/234/369
f 507/202/370 514/205/370 509/205/370 503/202/370
f 528/220/347 527/224/347 531/191/347 532/83/347
f 529/221/350 528/220/350 532/83/350 533/195/350
f 527/224/351 526/117/351 530/192/351 531/191/351
f 493/185/21 530/192/21 526/117/21 522/215/21 517/109/21 511/206/21 504/186/21 498/201/21
f 515/229/371 521/228/371 535/210/371 534/216/371
f 516/230/372 508/232/372 536/195/372 537/196/372
f 538/231/373 516/230/373 537/196/373 510/198/373
f 521/228/374 539/227/374 509/205/374 535/210/374
f 539/227/375 540/233/375 503/202/375 509/205/375
f 540/233/376 538/231/376 510/198/376 503/202/376
f 508/232/377 541/234/377 497/221/377 536/195/377
f 541/234/378 515/235/378 534/218/378 497/221/378
f 542/209/379 546/228/379 548/227/379
f 542/217/380 544/229/380 546/228/380
f 542/197/381 547/231/381 545/230/381
f 542/194/382 545/230/382 543/232/382
f 542/208/383 548/227/383 549/233/383
f 542/226/384 543/232/384 550/234/384
f 542/204/385 549/233/385 547/231/385
f 542/225/386 550/234/386 544/235/386
f 551/209/358 557/227/358 555/228/358
f 551/217/359 555/228/359 553/229/359
f 551/197/361 554/230/361 556/231/361
f 551/194/363 552/232/363 554/230/363
f 551/208/364 558/233/364 557/227/364
f 551/226/365 559/234/365 552/232/365
f 551/204/367 556/231/367 558/233/367
f 551/225/369 553/235/369 559/234/369
f 545/230/357 547/231/357 556/231/357 554/230/357
f 546/228/366 544/229/366 553/229/366 555/228/366
f 544/235/355 550/234/355 559/234/355 553/235/355
f 547/231/356 549/233/356 558/233/356 556/231/356
f 548/227/362 546/228/362 555/228/362 557/227/362
f 543/232/368 545/230/368 554/230/368 552/232/368
f 550/234/360 543/232/360 552/232/360 559/234/360
f 549/233/370 548/227/370 557/227/370 558/233/370
f 562/236/8 563/237/8 571/238/8 570/239/8
f 581/238/21 566/240/21 578/240/21 583/238/21
f 570/239/80 571/238/80 581/238/80 580/239/80
f 561/105/21 568/106/21 572/106/21 565/105/21
f 568/106/47 569/103/47 573/103/47 572/106/47
f 569/103/24 560/104/24 564/104/24 573/103/24
f 563/237/8 562/236/8 569/103/8 568/106/8
f 562/236/8 570/239/8 560/104/8 569/103/8
f 571/238/8 563/237/8 568/106/8 561/105/8
f 567/241/30 566/240/30 572/106/30 573/103/30
f 580/239/30 567/241/30 573/103/30 564/104/30
f 566/240/30 581/238/30 565/105/30 572/106/30
f 581/238/80 571/238/80 561/105/80 565/105/80
f 570/239/80 580/239/80 564/104/80 560/104/80
f 579/241/30 582/239/30 583/238/30 578/240/30
f 577/242/30 576/243/30 590/243/30 591/242/30
f 566/240/47 567/241/47 579/241/47 578/240/47
f 567/241/24 580/239/24 582/239/24 579/241/24
s 0
f 585/178/21 584/178/30 580/178/21 581/178/30
f 586/178/21 587/178/30 583/178/21 582/178/30
f 587/238/387 585/238/387 581/238/387 583/238/387
f 584/239/387 586/239/387 582/239/387 580/239/387
s 1
f 575/242/80 574/243/80 584/239/80 585/238/80
f 576/243/80 577/242/80 587/238/80 586/239/80
f 577/242/80 575/242/80 585/238/80 587/238/80
f 574/243/80 576/243/80 586/239/80 584/239/80
f 588/243/80 589/242/80 591/242/80 590/243/80
f 575/242/21 577/242/21 591/242/21 589/242/21
f 574/243/8 575/242/8 589/242/8 588/243/8
f 576/243/24 574/243/24 588/243/24 590/243/24
