# This file uses meters as units for non-parametric coordinates.

mtllib FLOOR_RESCALE.mtl
g default
v -455.087496 5.495926 1061.096733
v -449.643592 5.495926 1060.736097
v -152.215131 5.495926 1060.736097
v -145.896793 5.495926 1060.736097
v 49.329430 5.495926 1060.736097
v 125.818327 5.495926 1060.736097
v 172.810433 5.495926 1060.736097
v 172.810433 5.495911 1248.604410
v 172.810433 5.495911 1253.955517
v 179.748235 5.495911 1253.955517
v 539.665196 5.495911 1253.955517
v 545.289462 5.495903 1253.955517
v 545.289462 5.495903 1248.604410
v 545.289462 5.495926 876.516266
v 582.885808 5.495926 876.516266
v 590.455355 5.495926 876.516266
v 590.455355 5.495926 870.319388
v 590.455355 5.495926 706.275765
v 590.455355 5.495926 700.019387
v 594.616593 5.495926 470.238533
v 594.616593 5.495926 464.796536
v 587.047046 5.495926 464.796536
v 531.460922 5.495926 465.152118
v 467.778485 5.495926 415.784064
v 291.844219 5.495926 416.298549
v 236.690402 5.495926 464.023744
v 230.898609 5.495926 469.035496
v 93.816409 5.495926 469.531449
v 91.874886 5.495926 370.179813
v 91.874886 5.495926 366.908283
v 86.742487 5.495926 366.908283
v -148.081183 5.495926 366.908283
v -152.658788 5.495926 366.908283
v -152.658788 5.495926 370.179813
v -152.614241 5.495926 391.381133
v -254.828532 5.495926 391.381133
v -458.655373 5.495926 390.645762
v -535.016696 5.495926 390.789945
v -594.033031 5.495926 477.997931
v -594.616593 5.495926 626.998317
v -534.953250 5.495926 695.271439
v -535.775477 5.495926 758.046168
v -535.775477 5.495926 762.792253
v -455.087496 5.495926 762.792253
v -455.087496 5.495926 1053.237932
v -449.643592 14.560196 758.046168
v -455.087496 14.560196 758.046168
v 179.748235 14.560196 1060.899789
v -152.215142 14.560196 1053.237932
v -449.643592 14.560196 1053.237932
v -449.643592 14.560196 762.792253
v -529.129645 5.644501 762.792253
v -529.129645 14.560196 758.046168
v -529.952005 14.560196 690.894946
v -587.991732 14.560196 626.470353
v -588.575250 14.560196 481.790064
v -533.035857 14.560196 397.133755
v -458.231513 14.560196 397.278027
v 179.748235 14.560196 988.281297
v 172.810433 14.560196 988.281297
v 179.748235 14.560196 1248.604410
v 172.810433 14.560196 1053.237932
v 539.665196 14.560196 1248.604410
v 545.289462 14.560196 870.319388
v 539.665196 14.560196 870.319388
v 539.665196 14.560196 876.516266
v 582.885808 14.560196 870.319388
v 504.164478 14.560196 874.826144
v 504.164478 14.560196 868.629267
v 582.885808 14.560196 706.275765
v 169.159235 14.560196 700.019387
v 169.159235 14.560196 706.275765
v 238.525328 14.560196 706.275765
v 582.885808 14.560196 700.019387
v 238.525328 14.560196 700.019387
v 169.159235 14.560196 767.100025
v 176.725158 14.560196 767.100025
v 176.725158 14.560196 700.019387
v 176.725158 14.560196 744.322307
v 176.725158 14.560196 706.275765
v 169.159235 14.560226 737.689066
v 96.759048 14.560196 737.689066
v 96.759048 14.560196 744.322307
v 169.159235 14.560226 744.322307
v 231.238850 14.560196 706.275765
v 231.238850 14.560196 700.019387
v 238.525328 14.560196 686.703780
v 231.238850 14.560196 686.703780
v 587.047046 14.560196 470.238533
v 86.742487 14.560196 469.035496
v 87.028726 14.560196 474.937711
v 528.771225 14.560196 469.882951
v 468.125377 14.560196 421.683175
v 295.190878 14.560196 421.168690
v 237.267469 14.560196 469.827885
v 92.161108 14.560196 474.937711
v 231.184870 14.560196 474.937711
v 231.184870 14.560196 592.758451
v 237.267469 14.560196 592.758362
v 237.267469 14.560196 567.199391
v 231.184870 14.560196 567.811772
v 237.267469 14.560196 573.640654
v 206.878061 14.560196 567.811772
v 206.878061 14.560196 574.054228
v 231.184870 14.560196 574.054228
v 87.028726 14.560196 573.921306
v 92.161108 14.560196 573.921306
v 92.161108 14.560196 568.446765
v 87.028704 14.560196 568.446765
v 115.547400 14.560196 573.921306
v 115.547400 14.560196 568.446765
v 86.742487 14.560196 370.179813
v -148.081183 14.560196 370.179813
v -152.061582 14.560196 649.986369
v -147.483987 14.560196 649.986369
v -148.036646 14.560196 391.381133
v -148.023999 14.560196 397.405629
v -152.601583 14.560196 397.405629
v -254.815851 14.560196 397.405629
v -416.093209 14.560196 762.792253
v -416.093209 14.560196 758.046168
v -145.896793 14.560196 1031.167387
v -152.215142 14.560196 1031.167387
v 49.329453 14.560196 1055.265546
v -145.896793 14.560196 1053.237932
v 125.818338 14.560196 1055.265546
v -455.087496 115.998230 1061.096733
v -449.643592 115.998230 1060.736097
v -152.215131 115.998230 1060.736097
v -145.896793 115.998230 1060.736097
v 49.329430 115.998230 1060.736097
v 49.329453 116.146790 1055.265546
v -145.896793 116.146790 1053.238021
v -145.896793 116.146790 1031.167387
v -152.215142 116.146790 1031.167387
v -152.215142 116.146790 1053.238021
v -449.643592 116.146790 1053.238021
v -449.643592 116.146790 762.792253
v -416.093209 116.146790 762.792253
v -416.093209 116.146790 758.046168
v -449.643592 116.146790 758.046168
v -455.087496 116.146790 758.046168
v -529.129645 116.146790 758.046168
v -529.952005 116.146790 690.894946
v -587.991732 116.146790 626.470353
v -588.575250 116.146790 481.790064
v -533.035857 116.146790 397.133755
v -458.231513 116.146790 397.278027
v -254.815851 116.146790 397.405629
v -152.601583 116.146790 397.405629
v -152.061582 116.146790 649.986369
v -147.483987 116.146790 649.986369
v -148.023999 116.146790 397.405629
v -148.036646 116.146790 391.381133
v -148.081183 116.146790 370.179813
v 86.742487 116.146790 370.179813
v 86.742487 116.146790 469.035496
v 87.028726 116.146790 474.937711
v 87.028709 116.146790 568.446765
v 87.028726 116.146790 573.921306
v 92.161108 116.146790 573.921306
v 115.547400 116.146790 573.921306
v 115.547400 116.146790 568.446765
v 92.161108 116.146790 568.446765
v 92.161108 116.146790 474.937711
v 231.184870 116.146790 474.937711
v 231.184870 116.146790 567.811772
v 206.878061 116.146790 567.811772
v 206.878061 116.146790 574.054228
v 231.184870 116.146790 574.054228
v 231.184870 116.146790 592.758451
v 237.267469 116.146790 592.758362
v 237.267469 116.146790 573.640654
v 237.267469 116.146790 567.199391
v 237.267469 116.146790 469.827885
v 295.190878 116.146790 421.168690
v 468.125377 116.146790 421.683175
v 528.771225 116.146790 469.882951
v 587.047046 116.146790 470.238533
v 582.885808 116.146790 700.019387
v 238.525328 116.146790 700.019387
v 238.525328 116.146790 686.703780
v 231.238850 116.146790 686.703780
v 231.238850 116.146790 700.019387
v 176.725169 116.146790 700.019387
v 169.159235 116.146790 700.019387
v 169.159235 116.146790 706.275765
v 169.159235 116.146820 737.689066
v 96.759048 116.146790 737.689066
v 96.759048 116.146790 744.322307
v 169.159235 116.146820 744.322307
v 169.159235 116.146790 767.100025
v 176.725169 116.146790 767.100025
v 176.725169 116.146790 744.322307
v 176.725169 116.146790 737.689066
v 176.725169 116.146790 706.275765
v 231.238850 116.146790 706.275765
v 238.525328 116.146790 706.275765
v 582.885808 116.146790 706.275765
v 582.885808 116.146790 870.319388
v 545.289462 116.146790 870.319388
v 539.665196 116.146790 870.319388
v 504.164478 116.146790 868.629267
v 504.164478 116.146790 874.826144
v 539.665196 116.146790 876.516266
v 539.665196 116.146790 1248.604410
v 179.748235 116.146790 1248.604410
v 179.748235 116.146790 1060.899789
v 179.748235 116.146790 1053.238021
v 179.748235 116.146790 988.281297
v 172.810444 116.146790 988.281297
v 172.810444 116.146790 1053.238021
v 125.818338 116.146790 1055.265546
v 125.818327 115.998230 1060.736097
v 172.810444 115.998230 1060.736097
v 172.810444 115.998230 1248.604410
v 172.810444 115.998230 1253.955517
v 179.748235 115.998199 1253.955517
v 539.665196 115.998199 1253.955517
v 545.289462 115.998230 1253.955517
v 545.289462 115.998230 1248.604410
v 545.289462 115.998230 876.516266
v 582.885808 115.998230 876.516266
v 590.455355 115.998230 876.516266
v 590.455355 115.998230 870.319388
v 590.455355 115.998230 706.275765
v 590.455355 115.998230 700.019387
v 594.616593 115.998230 470.238533
v 594.616593 115.998230 464.796536
v 587.047046 115.998230 464.796536
v 531.460922 115.998230 465.152118
v 467.778485 115.998230 415.784064
v 291.844219 115.998230 416.298549
v 236.690402 115.998230 464.023744
v 230.898609 115.998230 469.035496
v 93.816409 115.998230 469.531449
v 91.874886 115.998230 370.179813
v 91.874886 115.998230 366.908283
v 86.742487 115.998230 366.908283
v -148.081183 115.998230 366.908283
v -152.658788 115.998230 366.908283
v -152.658788 115.998230 370.179813
v -152.614241 115.998230 391.381133
v -254.828532 115.998230 391.381133
v -458.655373 115.998230 390.645850
v -535.016696 115.998230 390.789945
v -594.033031 115.998230 477.997931
v -594.616593 115.998230 626.998317
v -534.953250 115.998230 695.271439
v -535.775477 115.998230 758.046168
v -535.775477 115.998230 762.792253
v -529.129645 116.146790 762.792253
v -455.087496 115.998230 762.792253
v -455.087496 115.998230 1053.238021
v 514.569501 14.560196 700.019387
v 515.759725 116.146790 700.019299
v 515.373373 116.146790 706.275765
v 514.183505 14.560196 706.275765
v -152.305302 14.560196 927.339988
v -145.782460 14.560196 927.339988
v -145.782460 14.560196 762.792253
v -152.305302 14.560196 762.792253
v -152.305302 14.560196 758.046168
v -145.782460 14.560196 758.046168
v -322.414233 14.560196 758.046168
v -322.414233 14.560196 762.792253
v -145.782460 14.560196 740.255373
v -152.305302 14.560196 740.255373
v -72.599288 14.560196 762.792253
v -72.599288 14.560196 758.046168
v -72.599288 116.146790 762.792253
v -72.599288 116.146790 758.046168
v -145.782460 116.146790 758.046168
v -145.782460 116.146790 740.255373
v -152.305302 116.146790 740.255373
v -152.305302 116.146790 758.046168
v -322.414233 116.146790 758.046168
v -322.414233 116.146790 762.792253
v -152.305302 116.146790 762.792253
v -152.305302 116.146790 927.339988
v -145.782460 116.146790 927.339988
v -145.782460 116.146790 762.792253
v 175.800124 14.560196 871.782506
v 175.800124 14.560196 865.585628
v 418.537900 14.560196 871.782506
v 418.537900 14.560196 865.585628
v 170.456444 14.560196 895.769556
v 176.101815 14.560196 895.769556
v 175.800124 14.560196 860.234433
v 170.154765 14.560196 860.234433
v 170.154765 14.560196 871.782506
v 170.154776 116.146790 865.585628
v 170.154776 116.146790 871.782506
v 170.456444 116.146790 895.769556
v 176.101815 116.146790 895.769556
v 175.800124 116.146790 871.782506
v 418.537900 116.146790 871.782506
v 418.537900 116.146790 865.585628
v 175.800124 116.146790 865.585628
v 175.800124 116.146790 860.234433
v 170.154776 116.146790 860.234433
v 49.329430 14.804245 1060.736097
v 125.818327 14.804245 1060.736097
v 46.072923 5.414353 1095.432012
v 131.684218 5.414353 1095.432012
v 46.072923 8.120599 1095.432012
v 131.684218 8.120599 1095.432012
v 34.345626 5.414353 1095.432012
v 34.551208 11.343226 1095.432012
v 143.627388 5.414353 1095.432012
v 143.627388 11.335594 1095.432012
v 34.377590 18.848917 1061.110389
v 34.345626 5.414353 1061.110300
v 46.072923 5.414353 1061.110300
v 131.684218 5.414353 1061.110300
v 143.627388 18.843557 1061.110389
v 46.072923 12.367017 1079.237612
v 34.477509 14.529303 1082.303950
v 34.345626 5.414353 1077.034157
v 46.072923 5.414353 1077.034157
v 131.684218 5.414353 1077.034157
v 46.072923 10.243785 1088.051429
v 34.527427 12.369491 1091.696541
v 34.345626 5.414353 1085.848063
v 46.072923 5.414353 1085.848063
v 131.684218 5.414353 1085.848063
v 131.684218 5.414353 1068.220429
v 46.072923 5.414353 1068.220429
v 34.345626 5.414353 1068.220429
v 34.427566 16.689112 1072.911271
v 46.072923 14.490216 1070.423883
v 143.627388 5.414353 1061.110300
v 143.627388 5.414353 1077.034157
v 143.627388 14.522669 1082.332858
v 143.627388 5.414353 1068.220429
v 143.627388 16.683107 1072.937252
v 143.627388 5.414353 1085.848063
v 143.627388 12.362182 1091.728286
v 131.684218 10.243785 1088.051429
v 131.684218 12.367017 1079.237612
v 131.684218 14.490216 1070.423883
v 34.345626 5.414353 1081.441155
v 46.072923 10.243827 1079.237612
v 131.684218 10.243827 1079.237612
v 143.627388 5.414353 1081.441155
v 131.684218 5.414353 1081.441155
v 46.072923 5.414353 1081.441155
v 46.072923 12.367017 1070.423883
v 34.345626 5.414353 1072.627337
v 46.072923 5.414353 1072.627337
v 131.684218 5.414353 1072.627337
v 143.627388 5.414353 1072.627337
v 131.684218 12.367017 1070.423883
v 34.345626 5.414353 1063.813609
v 46.072923 14.490216 1061.110300
v 131.684218 14.490216 1061.110389
v 143.627388 5.414353 1063.813609
v 131.684218 5.414353 1063.813609
v 46.072923 5.414353 1063.813609
v 46.072923 8.120605 1088.051518
v 34.345626 5.414353 1090.254883
v 46.072923 5.414353 1090.254883
v 131.684218 5.414353 1090.254883
v 143.627388 5.414353 1090.254883
v 131.684218 8.120605 1088.051518
v 46.282284 11.333453 1095.432012
v 46.258550 12.359737 1091.739016
v 46.108694 18.839138 1061.110300
v 46.208591 14.519517 1082.346425
v 46.158640 16.679354 1072.953745
v 131.684218 12.362182 1091.728286
v 131.684218 11.335594 1095.432012
v 131.684218 14.522669 1082.332858
v 131.684218 16.683107 1072.937252
v 131.684218 18.843557 1061.110389
vt 0.000000 0.900000
vt 1.000000 0.900000
vt 1.000000 1.000000
vt 0.000000 1.000000
vt 0.000000 0.900000
vt 1.000000 0.900000
vt 1.000000 1.000000
vt 0.000000 1.000000
vt 0.000000 0.900000
vt 1.000000 0.900000
vt 1.000000 1.000000
vt 0.000000 1.000000
vt 0.500000 0.900000
vt 1.000000 0.900000
vt 1.000000 1.000000
vt 0.000000 1.000000
vt 0.500000 1.000000
vt 0.000000 0.900000
vt 1.000000 0.900000
vt 0.000000 1.000000
vt 0.000000 0.900000
vt 1.000000 0.900000
vt 1.000000 1.000000
vt 0.000000 1.000000
vt 0.000000 0.900000
vt 1.000000 0.900000
vt 1.000000 1.000000
vt 0.000000 1.000000
vt 0.000000 0.900000
vt 1.000000 0.900000
vt 1.000000 1.000000
vt 0.000000 1.000000
vt 0.000000 0.900000
vt 1.000000 0.900000
vt 1.000000 1.000000
vt 0.000000 1.000000
vt 0.000000 0.900000
vt 1.000000 0.900000
vt 1.000000 1.000000
vt 0.000000 1.000000
vt 0.000000 0.900000
vt 1.000000 0.900000
vt 1.000000 1.000000
vt 0.000000 1.000000
vt 0.000000 0.900000
vt 1.000000 0.900000
vt 1.000000 1.000000
vt 0.000000 1.000000
vt 0.000000 0.900000
vt 1.000000 0.900000
vt 1.000000 1.000000
vt 0.000000 1.000000
vt 0.000000 0.900000
vt 1.000000 0.900000
vt 1.000000 1.000000
vt 0.000000 1.000000
vt 0.000000 0.900000
vt 1.000000 0.900000
vt 1.000000 1.000000
vt 0.000000 1.000000
vt 0.000000 0.900000
vt 1.000000 0.900000
vt 1.000000 1.000000
vt 0.000000 1.000000
vt 0.000000 0.900000
vt 1.000000 0.900000
vt 1.000000 1.000000
vt 0.000000 1.000000
vt 0.000000 0.900000
vt 1.000000 0.900000
vt 1.000000 1.000000
vt 0.000000 1.000000
vt 0.000000 0.900000
vt 1.000000 0.900000
vt 1.000000 1.000000
vt 0.000000 1.000000
vt 0.000000 0.900000
vt 1.000000 0.900000
vt 1.000000 1.000000
vt 0.000000 1.000000
vt 0.000000 0.900000
vt 1.000000 0.900000
vt 1.000000 1.000000
vt 0.000000 1.000000
vt 0.000000 0.900000
vt 1.000000 0.900000
vt 1.000000 1.000000
vt 0.000000 1.000000
vt 0.000000 0.900000
vt 1.000000 0.900000
vt 1.000000 1.000000
vt 0.000000 1.000000
vt 0.000000 0.900000
vt 1.000000 0.900000
vt 1.000000 1.000000
vt 0.000000 1.000000
vt 0.005041 0.900000
vt 1.000000 0.900000
vt 1.000000 1.000000
vt 0.000000 1.000000
vt 0.255840 0.900000
vt 1.000000 0.900000
vt 1.000000 1.000000
vt 0.000000 1.000000
vt 0.000000 0.900000
vt 1.000000 0.900000
vt 1.000000 1.000000
vt 0.000000 1.000000
vt 0.000000 0.900000
vt 1.000000 0.900000
vt 1.000000 1.000000
vt 0.000000 1.000000
vt 0.000000 0.900000
vt 1.000000 0.900000
vt 1.000000 1.000000
vt 0.000000 1.000000
vt 0.000000 0.900000
vt 1.000000 0.900000
vt 1.000000 1.000000
vt 0.000000 1.000000
vt 0.000000 0.900000
vt 1.000000 0.900000
vt 1.000000 1.000000
vt 0.000000 1.000000
vt 0.000000 0.900000
vt 1.000000 0.900000
vt 1.000000 1.000000
vt 0.000000 1.000000
vt 0.000000 0.900000
vt 1.000000 0.900000
vt 1.000000 1.000000
vt 0.000000 1.000000
vt 0.500000 0.900000
vt 1.000000 0.900000
vt 1.000000 1.000000
vt 0.000000 1.000000
vt 0.500000 1.000000
vt 0.000000 0.900000
vt 1.000000 0.900000
vt 0.000000 1.000000
vt 0.000000 0.900000
vt 1.000000 0.900000
vt 1.000000 1.000000
vt 0.000000 1.000000
vt 0.000000 0.900000
vt 1.000000 0.900000
vt 1.000000 1.000000
vt 0.000000 1.000000
vt 0.000000 0.900000
vt 1.000000 0.900000
vt 1.000000 1.000000
vt 0.000000 1.000000
vt 0.500000 0.900000
vt 1.000000 0.900000
vt 1.000000 1.000000
vt 0.000000 1.000000
vt 0.500000 1.000000
vt 0.000000 0.900000
vt 1.000000 0.900000
vt 0.000000 1.000000
vt 0.500000 0.900000
vt 1.000000 0.900000
vt 1.000000 1.000000
vt 0.000000 1.000000
vt 0.500000 1.000000
vt 0.000000 0.900000
vt 1.000000 0.900000
vt 0.000000 1.000000
vt 0.000000 0.900000
vt 1.000000 0.900000
vt 1.000000 1.000000
vt 0.000000 1.000000
vt 0.000000 0.900000
vt 1.000000 0.900000
vt 1.000000 1.000000
vt 0.000000 1.000000
vt 0.000000 0.900000
vt 1.000000 0.900000
vt 1.000000 1.000000
vt 0.000000 1.000000
vt 0.000000 0.900000
vt 1.000000 0.900000
vt 1.000000 1.000000
vt 0.000000 1.000000
vt 0.000000 0.900000
vt 1.000000 0.900000
vt 1.000000 1.000000
vt 0.000000 1.000000
vt 0.000000 0.900000
vt 1.000000 0.900000
vt 1.000000 1.000000
vt 0.000000 1.000000
vt 0.000000 0.900000
vt 1.000000 0.900000
vt 1.000000 1.000000
vt 0.333333 1.000000
vt 0.666667 0.900000
vt 0.000000 0.900000
vt 1.000000 1.000000
vt 0.000000 1.000000
vt 0.500000 0.900000
vt 1.000000 0.900000
vt 1.000000 1.000000
vt 0.000000 1.000000
vt 0.500000 1.000000
vt 0.000000 0.900000
vt 1.000000 0.900000
vt 0.000000 1.000000
vt 0.000000 0.900000
vt 1.000000 0.900000
vt 1.000000 1.000000
vt 0.000000 1.000000
vt 0.000000 0.900000
vt 1.000000 0.900000
vt 1.000000 1.000000
vt 0.000000 1.000000
vt 0.000000 0.900000
vt 1.000000 0.900000
vt 1.000000 1.000000
vt 0.000000 1.000000
vt 0.000000 0.900000
vt 1.000000 0.900000
vt 1.000000 1.000000
vt 0.000000 1.000000
vt 0.000000 0.900000
vt 1.000000 0.900000
vt 1.000000 1.000000
vt 0.000000 1.000000
vt 0.000000 0.900000
vt 1.000000 0.900000
vt 1.000000 1.000000
vt 0.000000 1.000000
vt 0.000000 0.900000
vt 1.000000 0.900000
vt 1.000000 1.000000
vt 0.000000 1.000000
vt 0.000000 0.900000
vt 1.000000 0.900000
vt 1.000000 1.000000
vt 0.000000 1.000000
vt 0.000000 0.900000
vt 1.000000 0.900000
vt 1.000000 1.000000
vt 0.000000 1.000000
vt 0.000000 0.900000
vt 1.000000 0.900000
vt 1.000000 1.000000
vt 0.000000 1.000000
vt 0.000000 0.900000
vt 1.000000 0.900000
vt 0.500000 1.000000
vt 0.000000 0.900000
vt 1.000000 0.900000
vt 1.000000 1.000000
vt 0.000000 1.000000
vt 0.000000 0.900000
vt 1.000000 0.900000
vt 1.000000 1.000000
vt 0.000000 1.000000
vt 0.000000 0.900000
vt 1.000000 0.900000
vt 1.000000 1.000000
vt 0.000000 1.000000
vt 0.000000 0.900000
vt 1.000000 0.900000
vt 1.000000 1.000000
vt 0.000000 1.000000
vt 0.000000 0.900000
vt 1.000000 0.900000
vt 1.000000 1.000000
vt 0.000000 1.000000
vt 0.000000 0.900000
vt 1.000000 0.900000
vt 1.000000 1.000000
vt 0.000000 1.000000
vt 0.000000 0.900000
vt 1.000000 0.900000
vt 1.000000 1.000000
vt 0.000000 1.000000
vt 0.000000 0.900000
vt 1.000000 0.900000
vt 1.000000 1.000000
vt 0.000000 1.000000
vt 0.000000 0.900000
vt 1.000000 0.900000
vt 1.000000 1.000000
vt 0.000000 1.000000
vt 0.000000 0.900000
vt 1.000000 0.900000
vt 1.000000 1.000000
vt 0.000000 1.000000
vt 0.000000 0.900000
vt 1.000000 0.900000
vt 1.000000 1.000000
vt 0.000000 1.000000
vt 0.000000 0.900000
vt 1.000000 0.900000
vt 1.000000 1.000000
vt 0.000000 1.000000
vt 0.000000 0.900000
vt 1.000000 0.900000
vt 1.000000 1.000000
vt 0.000000 1.000000
vt 0.000000 0.900000
vt 1.000000 0.900000
vt 0.500000 1.000000
vt 0.000000 0.900000
vt 1.000000 0.900000
vt 1.000000 1.000000
vt 0.000000 1.000000
vt 0.000000 0.900000
vt 1.000000 0.900000
vt 1.000000 1.000000
vt 0.000000 1.000000
vt 0.000000 0.900000
vt 1.000000 0.900000
vt 1.000000 1.000000
vt 0.000000 1.000000
vt 0.500000 0.900000
vt 1.000000 0.900000
vt 1.000000 1.000000
vt 0.000000 1.000000
vt 0.500000 1.000000
vt 0.000000 0.900000
vt 1.000000 0.900000
vt 0.000000 1.000000
vt 0.000000 0.900000
vt 1.000000 0.900000
vt 1.000000 1.000000
vt 0.000000 1.000000
vt 0.000000 0.900000
vt 1.000000 0.900000
vt 1.000000 1.000000
vt 0.000000 1.000000
vt 0.000000 0.900000
vt 1.000000 0.900000
vt 1.000000 1.000000
vt 0.000000 1.000000
vt 0.000000 0.900000
vt 1.000000 0.900000
vt 1.000000 1.000000
vt 0.000000 1.000000
vt 0.000000 0.900000
vt 1.000000 0.900000
vt 1.000000 1.000000
vt 0.000000 1.000000
vt 0.000000 0.900000
vt 1.000000 0.900000
vt 1.000000 1.000000
vt 0.000000 1.000000
vt 0.000000 0.900000
vt 1.000000 0.900000
vt 1.000000 1.000000
vt 0.000000 1.000000
vt 0.000000 0.900000
vt 1.000000 0.900000
vt 1.000000 1.000000
vt 0.000000 1.000000
vt 0.000000 0.900000
vt 1.000000 0.900000
vt 1.000000 1.000000
vt 0.000000 1.000000
vt 0.000000 0.900000
vt 1.000000 0.900000
vt 1.000000 1.000000
vt 0.000000 1.000000
vt 0.000000 0.900000
vt 1.000000 0.900000
vt 1.000000 1.000000
vt 0.000000 1.000000
vt 0.000000 0.900000
vt 1.000000 0.900000
vt 1.000000 1.000000
vt 0.000000 1.000000
vt 0.666667 0.900000
vt 0.000000 0.900000
vt 1.000000 1.000000
vt 0.000000 1.000000
vt 0.000000 0.900000
vt 1.000000 0.900000
vt 1.000000 1.000000
vt 0.000000 1.000000
vt 0.000000 0.900000
vt 1.000000 0.900000
vt 1.000000 1.000000
vt 0.000000 1.000000
vt 0.000000 0.900000
vt 1.000000 0.900000
vt 1.000000 1.000000
vt 0.000000 1.000000
vt 0.000000 0.900000
vt 1.000000 0.900000
vt 1.000000 1.000000
vt 0.000000 1.000000
vt 0.000000 0.900000
vt 1.000000 0.900000
vt 1.000000 1.000000
vt 0.000000 1.000000
vt 0.000000 0.900000
vt 1.000000 0.900000
vt 1.000000 1.000000
vt 0.000000 1.000000
vt 0.000000 0.900000
vt 1.000000 0.900000
vt 1.000000 1.000000
vt 0.000000 1.000000
vt 0.000000 0.900000
vt 1.000000 0.900000
vt 1.000000 1.000000
vt 0.000000 1.000000
vt 0.000000 0.900000
vt 1.000000 0.900000
vt 1.000000 1.000000
vt 0.000000 1.000000
vt 0.000000 0.900000
vt 1.000000 0.900000
vt 1.000000 1.000000
vt 0.000000 1.000000
vt 0.000000 0.900000
vt 1.000000 0.900000
vt 1.000000 1.000000
vt 0.000000 1.000000
vt 0.000000 0.900000
vt 1.000000 0.900000
vt 1.000000 1.000000
vt 0.000000 1.000000
vt 0.000000 0.900000
vt 1.000000 0.900000
vt 1.000000 1.000000
vt 0.000000 1.000000
vt 0.000000 0.900000
vt 1.000000 0.900000
vt 1.000000 1.000000
vt 0.000000 1.000000
vt 0.000000 0.900000
vt 1.000000 0.900000
vt 1.000000 1.000000
vt 0.000000 1.000000
vt 0.000000 0.900000
vt 1.000000 0.900000
vt 1.000000 1.000000
vt 0.000000 1.000000
vt 0.000000 0.900000
vt 1.000000 0.900000
vt 1.000000 1.000000
vt 0.000000 1.000000
vt 0.000000 0.900000
vt 1.000000 0.900000
vt 1.000000 1.000000
vt 0.000000 1.000000
vt 0.000000 0.900000
vt 1.000000 0.900000
vt 1.000000 1.000000
vt 0.000000 1.000000
vt 0.000000 0.900000
vt 1.000000 0.900000
vt 1.000000 1.000000
vt 0.000000 1.000000
vt 0.000000 0.900000
vt 1.000000 0.900000
vt 1.000000 1.000000
vt 0.000000 1.000000
vt 0.000000 0.900000
vt 1.000000 0.900000
vt 1.000000 1.000000
vt 0.000000 1.000000
vt 0.000000 0.900000
vt 1.000000 0.900000
vt 1.000000 1.000000
vt 0.000000 1.000000
vt 0.000000 0.900000
vt 1.000000 0.900000
vt 1.000000 1.000000
vt 0.000000 1.000000
vt 0.000000 0.900000
vt 1.000000 0.900000
vt 1.000000 1.000000
vt 0.000000 1.000000
vt 0.000000 0.900000
vt 1.000000 0.900000
vt 1.000000 1.000000
vt 0.000000 1.000000
vt 0.000000 0.900000
vt 1.000000 0.900000
vt 1.000000 1.000000
vt 0.000000 1.000000
vt 0.801614 1.000000
vt 0.000000 1.000000
vt 1.000000 0.900000
vt 0.837186 0.900000
vt 1.000000 0.900000
vt 0.163936 0.900000
vt 0.199507 1.000000
vt 0.000000 1.000000
vt 0.000000 1.000000
vt 0.000000 1.000000
vt 0.000000 1.000000
vt 0.000000 1.000000
vt 0.000000 1.000000
vt 0.000000 1.000000
vt 0.000000 1.000000
vt 0.000000 1.000000
vt 0.000000 1.000000
vt 0.000000 1.000000
vt 0.000000 1.000000
vt 0.000000 1.000000
vt 0.000000 0.900000
vt 1.000000 0.900000
vt 1.000000 1.000000
vt 0.000000 1.000000
vt 0.000000 0.900000
vt 1.000000 0.900000
vt 1.000000 1.000000
vt 0.000000 1.000000
vt 0.000000 0.900000
vt 1.000000 0.900000
vt 1.000000 1.000000
vt 0.000000 1.000000
vt 0.000000 0.900000
vt 1.000000 0.900000
vt 1.000000 1.000000
vt 0.000000 1.000000
vt 0.000000 0.900000
vt 1.000000 0.900000
vt 1.000000 1.000000
vt 0.000000 1.000000
vt 0.000000 0.900000
vt 1.000000 0.900000
vt 1.000000 1.000000
vt 0.000000 1.000000
vt 0.000000 0.900000
vt 1.000000 0.900000
vt 1.000000 1.000000
vt 0.000000 1.000000
vt 0.000000 0.900000
vt 1.000000 0.900000
vt 1.000000 1.000000
vt 0.000000 1.000000
vt 0.000000 0.900000
vt 1.000000 0.900000
vt 1.000000 1.000000
vt 0.000000 1.000000
vt 0.000000 0.900000
vt 1.000000 0.900000
vt 1.000000 1.000000
vt 0.000000 1.000000
vt 0.000000 0.900000
vt 1.000000 0.900000
vt 1.000000 1.000000
vt 0.000000 1.000000
vt 0.000000 0.900000
vt 1.000000 0.900000
vt 1.000000 1.000000
vt 0.000000 1.000000
vt 0.000000 1.000000
vt 0.000000 1.000000
vt 0.000000 1.000000
vt 0.000000 1.000000
vt 0.000000 1.000000
vt 0.000000 1.000000
vt 0.000000 1.000000
vt 0.000000 1.000000
vt 0.000000 1.000000
vt 0.000000 0.900000
vt 1.000000 0.900000
vt 0.500000 0.994516
vt 0.000000 0.900000
vt 1.000000 0.900000
vt 1.000000 1.000000
vt 0.000000 1.000000
vt 0.000000 0.900000
vt 1.000000 0.900000
vt 1.000000 1.000000
vt 0.000000 1.000000
vt 0.000000 0.900000
vt 1.000000 0.900000
vt 1.000000 1.000000
vt 0.000000 1.000000
vt 0.000000 0.900000
vt 1.000000 0.900000
vt 1.000000 1.000000
vt 0.000000 1.000000
vt 0.000000 0.900000
vt 1.000000 0.900000
vt 1.000000 1.000000
vt 0.000000 1.000000
vt 0.000000 0.900000
vt 1.000000 0.900000
vt 1.000000 1.000000
vt 0.000000 1.000000
vt 0.000000 0.900000
vt 1.000000 0.900000
vt 1.000000 1.000000
vt 0.000000 1.000000
vt 0.000000 0.900000
vt 1.000000 0.900000
vt 1.000000 1.000000
vt 0.000000 1.000000
vt 0.000000 0.900000
vt 1.000000 0.900000
vt 0.503350 1.000000
vt 0.000000 0.989032
vt 0.400000 0.920000
vt 0.900000 0.920000
vt 0.375000 0.000000
vt 0.625000 0.000000
vt 0.424561 0.226608
vt 0.375000 0.250000
vt 0.827148 0.250244
vt -0.000000 -0.000000
vt 0.375000 0.984375
vt 0.625000 0.984375
vt 0.625000 1.000000
vt 0.375000 1.000000
vt 0.349609 0.250000
vt 0.359375 0.000000
vt 0.375000 0.000000
vt 0.375000 0.250000
vt 0.359375 0.000000
vt 0.375000 0.250000
vt 0.424561 0.226608
vt 0.640625 0.000000
vt 0.640625 0.000000
vt 0.625000 0.000000
vt 0.062500 0.125000
vt 0.637939 0.258545
vt 0.637939 0.258545
vt 0.424561 0.226608
vt 0.313477 0.129069
vt 0.250000 0.000000
vt 0.265625 0.000000
vt 0.250000 0.000000
vt 0.265625 0.000000
vt 0.375000 0.875000
vt 0.625000 0.875000
vt 0.625000 0.890625
vt 0.375000 0.890625
vt 0.223145 0.264323
vt 0.312500 0.000000
vt 0.328125 0.000000
vt 0.312500 0.000000
vt 0.328125 0.000000
vt 0.375000 0.937500
vt 0.625000 0.937500
vt 0.625000 0.953125
vt 0.375000 0.953125
vt 0.375000 0.921875
vt 0.625000 0.921875
vt 0.296875 0.000000
vt 0.296875 0.000000
vt 0.424561 0.226608
vt 0.424561 0.226608
vt -0.000000 -0.000000
vt 0.424561 0.226608
vt 0.424561 0.226608
vt 0.000000 0.000000
vt 0.668498 0.280996
vt 0.734375 0.000000
vt 0.750000 0.000000
vt 0.579183 0.311991
vt 0.671875 0.000000
vt 0.687500 0.000000
vt 0.671875 0.000000
vt 0.687500 0.000000
vt 0.703125 0.000000
vt 0.703125 0.000000
vt 0.734375 0.000000
vt 0.750000 0.000000
vt 0.579183 0.311991
vt 0.626953 0.258138
vt -0.000000 -0.000000
vt 0.626953 0.258138
vt 0.626953 0.258138
vt 0.223145 0.264323
vt 0.223145 0.264323
vt 0.343750 0.000000
vt 0.187012 0.200684
vt 0.396484 0.273438
vt 0.810547 0.271484
vt 0.424561 0.226608
vt 0.626953 0.258138
vt 0.656250 0.000000
vt 0.656250 0.000000
vt 0.625000 0.968750
vt 0.375000 0.968750
vt 0.343750 0.000000
vt 0.281250 0.000000
vt 0.281250 0.000000
vt 0.375000 0.906250
vt 0.625000 0.906250
vt 0.718750 0.000000
vt 0.718750 0.000000
vt -0.000000 -0.000000
vt 0.579183 0.311991
vt -0.000000 -0.000000
vt 0.223145 0.264323
vt 0.579183 0.311991
vt 0.637939 0.258545
vt -0.000000 -0.000000
vt 0.187012 0.200684
vt 0.424561 0.226608
vt 0.000000 0.000000
vt 0.579183 0.311991
vt 0.626953 0.258138
vt 0.000000 0.000000
vt -0.000000 -0.000000
vt -0.000000 -0.000000
vt -0.000000 -0.000000
vt -0.000000 -0.000000
vt -0.000000 -0.000000
vt 0.579183 0.311991
vt 0.579183 0.311991
vt 0.579183 0.311991
vt 0.827148 0.250244
vt -0.000000 -0.000000
vt 0.703125 0.250000
vt 0.626953 0.258138
vt 0.626953 0.258138
vt 0.579183 0.311991
vt 0.579183 0.311991
vt 0.579183 0.311991
vt 0.579183 0.311991
vt 0.000000 0.000000
vt 0.579183 0.311991
vt 0.579183 0.311991
vt 0.757812 0.250000
vt 0.579183 0.311991
vt 0.396484 0.273438
vt 0.396484 0.273438
vt 0.827148 0.250244
vt 0.827148 0.250244
vt 0.187012 0.200684
vt -0.000000 -0.000000
vt -0.000000 -0.000000
vt -0.000000 -0.000000
vt -0.000000 -0.000000
vt 0.276892 -0.000000
vt 0.468845 0.207416
vn 0.066100 0.000000 0.997813
vn 0.066100 0.000000 0.997813
vn 0.066100 0.000000 0.997813
vn 0.066100 0.000000 0.997813
vn 0.000000 0.000000 1.000000
vn 0.000000 0.000000 1.000000
vn 0.000000 0.000000 1.000000
vn 0.000000 0.000000 1.000000
vn 0.000000 0.000000 1.000000
vn 0.000000 0.000000 1.000000
vn 0.000000 0.000000 1.000000
vn 0.000000 0.000000 1.000000
vn 0.000000 0.000000 1.000000
vn 0.000000 0.000000 1.000000
vn 0.000000 0.000000 1.000000
vn 0.000000 0.000000 1.000000
vn 0.000000 0.000000 1.000000
vn 0.010385 0.000000 -0.999946
vn 0.010385 0.000000 -0.999946
vn 0.010385 0.000000 -0.999946
vn 0.010385 0.000000 -0.999946
vn 1.000000 0.000000 0.000000
vn 1.000000 0.000000 0.000000
vn 1.000000 0.000000 0.000000
vn 1.000000 0.000000 0.000000
vn 0.000000 0.000000 -1.000000
vn 0.000000 0.000000 -1.000000
vn 0.000000 0.000000 -1.000000
vn 0.000000 0.000000 -1.000000
vn -1.000000 -0.000000 0.000000
vn -1.000000 -0.000000 0.000000
vn -1.000000 -0.000000 0.000000
vn -1.000000 -0.000000 0.000000
vn 0.000000 0.000001 -1.000000
vn 0.000000 0.000001 -1.000000
vn 0.000000 0.000001 -1.000000
vn 0.000000 0.000001 -1.000000
vn 1.000000 0.000000 0.000000
vn 1.000000 0.000000 0.000000
vn 1.000000 0.000000 0.000000
vn 1.000000 0.000000 0.000000
vn 0.000000 0.000000 1.000000
vn 0.000000 0.000000 1.000000
vn 0.000000 0.000000 1.000000
vn 0.000000 0.000000 1.000000
vn 1.000000 0.000000 0.000000
vn 1.000000 0.000000 0.000000
vn 1.000000 0.000000 0.000000
vn 1.000000 0.000000 0.000000
vn 0.000000 0.000000 -1.000000
vn 0.000000 0.000000 -1.000000
vn 0.000000 0.000000 -1.000000
vn 0.000000 0.000000 -1.000000
vn 0.000000 0.000000 -1.000000
vn 0.000000 0.000000 -1.000000
vn 0.000000 0.000000 -1.000000
vn 0.000000 0.000000 -1.000000
vn 0.000000 0.000000 -1.000000
vn 0.000000 0.000000 -1.000000
vn 0.000000 0.000000 -1.000000
vn 0.000000 0.000000 -1.000000
vn 0.999925 0.000000 -0.012245
vn 0.999925 0.000000 -0.012245
vn 0.999925 0.000000 -0.012245
vn 0.999925 0.000000 -0.012245
vn 0.742964 0.000000 -0.669332
vn 0.742964 0.000000 -0.669332
vn 0.742964 0.000000 -0.669332
vn 0.742964 0.000000 -0.669332
vn 0.999992 0.000000 -0.004033
vn 0.999992 0.000000 -0.004033
vn 0.999992 0.000000 -0.004033
vn 0.999992 0.000000 -0.004033
vn 0.836122 0.000000 0.548544
vn 0.836122 0.000000 0.548544
vn 0.836122 0.000000 0.548544
vn 0.836122 0.000000 0.548544
vn -0.001928 0.000000 0.999998
vn -0.001928 0.000000 0.999998
vn -0.001928 0.000000 0.999998
vn -0.001928 0.000000 0.999998
vn -0.000627 0.000000 1.000000
vn -0.000627 0.000000 1.000000
vn -0.000627 0.000000 1.000000
vn -0.000627 0.000000 1.000000
vn 0.000000 0.000000 1.000000
vn 0.000000 0.000000 1.000000
vn 0.000000 0.000000 1.000000
vn 0.000000 0.000000 1.000000
vn -0.999998 0.000000 0.002138
vn -0.999998 0.000000 0.002138
vn -0.999998 0.000000 0.002138
vn -0.999998 0.000000 0.002138
vn 0.000000 0.000000 1.000000
vn 0.000000 0.000000 1.000000
vn 0.000000 0.000000 1.000000
vn 0.000000 0.000000 1.000000
vn 0.999998 0.000000 -0.002138
vn 0.999998 0.000000 -0.002138
vn 0.999998 0.000000 -0.002138
vn 0.999998 0.000000 -0.002138
vn 0.999998 0.000000 -0.002101
vn 0.999998 0.000000 -0.002101
vn 0.999998 0.000000 -0.002101
vn 0.999998 0.000000 -0.002101
vn 0.000000 0.000000 1.000000
vn 0.000000 0.000000 1.000000
vn 0.000000 0.000000 1.000000
vn 0.000000 0.000000 1.000000
vn -1.000000 0.000000 0.000000
vn -1.000000 0.000000 0.000000
vn -1.000000 0.000000 0.000000
vn -1.000000 0.000000 0.000000
vn -0.998826 0.000000 0.048440
vn -0.998826 0.000000 0.048440
vn -0.998826 0.000000 0.048440
vn -0.998826 0.000000 0.048440
vn -1.000000 0.000000 -0.000000
vn -1.000000 0.000000 -0.000000
vn -1.000000 0.000000 -0.000000
vn -1.000000 0.000000 -0.000000
vn -1.000000 0.000000 0.000004
vn -1.000000 0.000000 0.000004
vn -1.000000 0.000000 0.000004
vn -1.000000 0.000000 0.000004
vn 0.000000 0.000000 1.000000
vn 0.000000 0.000000 1.000000
vn 0.000000 0.000000 1.000000
vn 0.000000 0.000000 1.000000
vn 0.000000 0.000000 1.000000
vn 0.000000 0.000000 1.000000
vn 0.000000 0.000000 1.000000
vn 0.000000 0.000000 1.000000
vn 0.000000 0.000000 -1.000000
vn 0.000000 0.000000 -1.000000
vn 0.000000 0.000000 -1.000000
vn 0.000000 0.000000 -1.000000
vn 1.000000 0.000000 0.000000
vn 1.000000 0.000000 0.000000
vn 1.000000 0.000000 0.000000
vn 1.000000 0.000000 0.000000
vn 0.000000 0.000000 1.000000
vn 0.000000 0.000000 1.000000
vn 0.000000 0.000000 1.000000
vn 0.000000 0.000000 1.000000
vn -1.000000 0.000000 0.000000
vn -1.000000 0.000000 0.000000
vn -1.000000 0.000000 0.000000
vn -1.000000 0.000000 0.000000
vn 0.000000 0.000000 -1.000000
vn 0.000000 0.000000 -1.000000
vn 0.000000 0.000000 -1.000000
vn 0.000000 0.000000 -1.000000
vn 0.000000 0.000000 1.000000
vn 0.000000 0.000000 1.000000
vn 0.000000 0.000000 1.000000
vn 0.000000 0.000000 1.000000
vn -1.000000 0.000000 0.000000
vn -1.000000 0.000000 0.000000
vn -1.000000 0.000000 0.000000
vn -1.000000 0.000000 0.000000
vn 1.000000 0.000000 0.000000
vn 1.000000 0.000000 0.000000
vn 1.000000 0.000000 0.000000
vn 1.000000 0.000000 0.000000
vn 1.000000 0.000000 0.000000
vn 1.000000 0.000000 0.000000
vn 1.000000 0.000000 0.000000
vn 1.000000 0.000000 0.000000
vn 1.000000 0.000000 0.000000
vn 1.000000 0.000000 0.000000
vn 1.000000 0.000000 0.000000
vn 1.000000 0.000000 0.000000
vn 0.643219 0.000000 0.765682
vn 0.643219 0.000000 0.765682
vn 0.643219 0.000000 0.765682
vn 0.643219 0.000000 0.765682
vn -0.002975 0.000000 0.999996
vn -0.002975 0.000000 0.999996
vn -0.002975 0.000000 0.999996
vn -0.002975 0.000000 0.999996
vn -0.622197 0.000000 0.782860
vn -0.622197 0.000000 0.782860
vn -0.622197 0.000000 0.782860
vn -0.622197 0.000000 0.782860
vn -0.006102 0.000000 0.999981
vn -0.006102 0.000000 0.999981
vn -0.006102 0.000000 0.999981
vn -0.006102 0.000000 0.999981
vn -0.999836 0.000000 -0.018107
vn -0.999836 0.000000 -0.018107
vn -0.999836 0.000000 -0.018107
vn -0.999836 0.000000 -0.018107
vn 0.000000 -0.000000 -1.000000
vn 0.000000 -0.000000 -1.000000
vn 0.000000 -0.000000 -1.000000
vn 0.000000 -0.000000 -1.000000
vn 1.000000 0.000000 0.000000
vn 1.000000 0.000000 0.000000
vn 1.000000 0.000000 0.000000
vn 1.000000 0.000000 0.000000
vn -1.000000 0.000000 0.000000
vn -1.000000 0.000000 0.000000
vn -1.000000 0.000000 0.000000
vn -1.000000 0.000000 0.000000
vn 0.000000 0.000000 -1.000000
vn 0.000000 0.000000 -1.000000
vn 0.000000 0.000000 -1.000000
vn 0.000000 0.000000 -1.000000
vn 0.000000 0.000000 -1.000000
vn 0.000000 0.000000 -1.000000
vn 0.000000 0.000000 -1.000000
vn 0.000000 0.000000 -1.000000
vn -1.000000 0.000000 0.000000
vn -1.000000 0.000000 0.000000
vn -1.000000 0.000000 0.000000
vn -1.000000 0.000000 0.000000
vn -1.000000 0.000000 0.000000
vn -1.000000 0.000000 0.000000
vn -1.000000 0.000000 0.000000
vn -1.000000 0.000000 0.000000
vn 0.000000 0.000000 -1.000000
vn 0.000000 0.000000 -1.000000
vn 0.000000 0.000000 -1.000000
vn 0.000000 0.000000 -1.000000
vn -1.000000 0.000000 0.000000
vn -1.000000 0.000000 0.000000
vn -1.000000 0.000000 0.000000
vn -1.000000 0.000000 0.000000
vn 0.000000 0.000000 1.000000
vn 0.000000 0.000000 1.000000
vn 0.000000 0.000000 1.000000
vn 0.000000 0.000000 1.000000
vn -1.000000 0.000000 0.000000
vn -1.000000 0.000000 0.000000
vn -1.000000 0.000000 0.000000
vn -1.000000 0.000000 0.000000
vn 0.000000 0.000000 1.000000
vn 0.000000 0.000000 1.000000
vn 0.000000 0.000000 1.000000
vn 0.000000 0.000000 1.000000
vn 1.000000 -0.000000 0.000000
vn 1.000000 -0.000000 0.000000
vn 1.000000 -0.000000 0.000000
vn 1.000000 -0.000000 0.000000
vn 1.000000 0.000000 0.000000
vn 1.000000 0.000000 0.000000
vn 1.000000 0.000000 0.000000
vn 1.000000 -0.000000 0.000000
vn 1.000000 -0.000000 0.000000
vn 1.000000 -0.000000 0.000000
vn 1.000000 -0.000000 0.000000
vn 0.000000 0.000000 1.000000
vn 0.000000 0.000000 1.000000
vn 0.000000 0.000000 1.000000
vn 0.000000 0.000000 1.000000
vn 0.000000 0.000000 1.000000
vn 0.000000 0.000000 1.000000
vn 0.000000 0.000000 1.000000
vn 0.000000 0.000000 1.000000
vn 0.000000 0.000000 1.000000
vn 0.000000 0.000000 1.000000
vn 0.000000 0.000000 1.000000
vn 0.000000 0.000000 1.000000
vn -1.000000 0.000000 0.000000
vn -1.000000 0.000000 0.000000
vn -1.000000 0.000000 0.000000
vn -1.000000 0.000000 0.000000
vn 0.000000 0.000000 -1.000000
vn 0.000000 0.000000 -1.000000
vn 0.000000 0.000000 -1.000000
vn 0.000000 0.000000 -1.000000
vn 0.000000 0.000000 -1.000000
vn 0.000000 0.000000 -1.000000
vn 0.000000 0.000000 -1.000000
vn 0.000000 0.000000 -1.000000
vn 0.047555 0.000000 -0.998869
vn 0.047555 0.000000 -0.998869
vn 0.047555 0.000000 -0.998869
vn 0.047555 0.000000 -0.998869
vn -1.000000 0.000000 0.000000
vn -1.000000 0.000000 0.000000
vn -1.000000 0.000000 0.000000
vn -1.000000 0.000000 0.000000
vn -0.047555 0.000000 0.998869
vn -0.047555 0.000000 0.998869
vn -0.047555 0.000000 0.998869
vn -0.047555 0.000000 0.998869
vn -1.000000 0.000000 0.000000
vn -1.000000 0.000000 0.000000
vn -1.000000 0.000000 0.000000
vn -1.000000 0.000000 0.000000
vn 0.000000 0.000000 -1.000000
vn 0.000000 0.000000 -1.000000
vn 0.000000 0.000000 -1.000000
vn 0.000000 0.000000 -1.000000
vn 1.000000 0.000000 0.000000
vn 1.000000 0.000000 0.000000
vn 1.000000 0.000000 0.000000
vn 1.000000 0.000000 0.000000
vn 1.000000 0.000000 0.000000
vn 1.000000 0.000000 0.000000
vn 1.000000 0.000000 0.000000
vn 1.000000 0.000000 0.000000
vn 1.000000 0.000000 0.000000
vn 1.000000 0.000000 0.000000
vn 1.000000 0.000000 0.000000
vn 0.000000 0.000000 -1.000000
vn 0.000000 0.000000 -1.000000
vn 0.000000 0.000000 -1.000000
vn 0.000000 0.000000 -1.000000
vn -1.000000 0.000000 0.000000
vn -1.000000 0.000000 0.000000
vn -1.000000 0.000000 0.000000
vn -1.000000 0.000000 0.000000
vn -0.043107 0.000000 -0.999070
vn -0.043107 0.000000 -0.999070
vn -0.043107 0.000000 -0.999070
vn -0.043107 0.000000 -0.999070
vn 0.000000 0.000000 1.000000
vn 0.000000 0.000000 1.000000
vn 0.000000 0.000000 1.000000
vn 0.000000 0.000000 1.000000
vn 0.000000 0.000000 1.000000
vn -1.000000 0.000000 0.000000
vn -1.000000 0.000000 0.000000
vn -1.000000 0.000000 0.000000
vn -1.000000 0.000000 0.000000
vn -1.000000 0.000000 0.000000
vn -1.000000 0.000000 0.000000
vn -1.000000 0.000000 0.000000
vn -1.000000 0.000000 0.000000
vn 0.000000 0.000000 1.000000
vn 0.000000 0.000000 1.000000
vn 0.000000 0.000000 1.000000
vn 0.000000 0.000000 1.000000
vn 0.000000 0.000000 1.000000
vn 0.000000 0.000000 1.000000
vn 0.000000 0.000000 1.000000
vn 0.000000 0.000000 1.000000
vn 0.000000 0.000000 1.000000
vn 0.000000 0.000000 1.000000
vn 0.000000 0.000000 1.000000
vn 0.000000 0.000000 1.000000
vn 1.000000 0.000000 0.000000
vn 1.000000 0.000000 0.000000
vn 1.000000 0.000000 0.000000
vn 1.000000 0.000000 0.000000
vn 1.000000 0.000000 0.000000
vn 1.000000 0.000000 0.000000
vn 1.000000 0.000000 0.000000
vn 1.000000 0.000000 0.000000
vn 0.000000 0.000000 1.000000
vn 0.000000 0.000000 1.000000
vn 0.000000 0.000000 1.000000
vn 0.000000 0.000000 1.000000
vn 0.000000 0.000000 1.000000
vn 0.000000 0.000000 1.000000
vn 0.000000 0.000000 1.000000
vn 0.000000 0.000000 1.000000
vn 1.000000 0.000000 0.000000
vn 1.000000 0.000000 0.000000
vn 1.000000 0.000000 0.000000
vn 1.000000 0.000000 0.000000
vn 1.000000 0.000000 0.000000
vn 1.000000 0.000000 0.000000
vn 1.000000 0.000000 0.000000
vn 1.000000 0.000000 0.000000
vn 1.000000 0.000000 0.000000
vn 1.000000 0.000000 0.000000
vn 1.000000 0.000000 0.000000
vn 1.000000 0.000000 0.000000
vn 0.999836 0.000000 0.018107
vn 0.999836 0.000000 0.018107
vn 0.999836 0.000000 0.018107
vn 0.999836 0.000000 0.018107
vn 1.000000 0.000000 0.000000
vn 1.000000 0.000000 0.000000
vn 1.000000 0.000000 0.000000
vn 1.000000 0.000000 0.000000
vn 0.000000 0.000000 -1.000000
vn 0.000000 0.000000 -1.000000
vn 0.000000 0.000000 -1.000000
vn 0.000000 0.000000 -1.000000
vn -0.006397 0.000000 -0.999980
vn -0.006397 0.000000 -0.999980
vn -0.006397 0.000000 -0.999980
vn -0.006397 0.000000 -0.999980
vn 0.612681 0.000000 -0.790330
vn 0.612681 0.000000 -0.790330
vn 0.612681 0.000000 -0.790330
vn 0.612681 0.000000 -0.790330
vn -0.002924 0.000000 -0.999996
vn -0.002924 0.000000 -0.999996
vn -0.002924 0.000000 -0.999996
vn -0.002924 0.000000 -0.999996
vn -0.654345 0.000000 -0.756196
vn -0.654345 0.000000 -0.756196
vn -0.654345 0.000000 -0.756196
vn -0.654345 0.000000 -0.756196
vn -0.654346 0.000000 -0.756195
vn -0.654346 0.000000 -0.756195
vn -0.654346 0.000000 -0.756195
vn -0.654346 0.000000 -0.756195
vn -0.003618 0.000000 -0.999994
vn -0.003618 0.000000 -0.999994
vn -0.003618 0.000000 -0.999994
vn -0.003618 0.000000 -0.999994
vn 0.999809 0.000000 -0.019538
vn 0.999809 0.000000 -0.019538
vn 0.999809 0.000000 -0.019538
vn 0.999809 0.000000 -0.019538
vn 1.000000 0.000000 0.000000
vn 1.000000 0.000000 0.000000
vn 1.000000 0.000000 0.000000
vn 1.000000 0.000000 0.000000
vn 0.000000 0.000000 -1.000000
vn 0.000000 0.000000 -1.000000
vn 0.000000 0.000000 -1.000000
vn 0.000000 0.000000 -1.000000
vn 0.000000 0.000000 -1.000000
vn 0.000000 0.000000 -1.000000
vn 0.000000 0.000000 -1.000000
vn 0.000000 0.000000 -1.000000
vn 0.000000 0.000000 -1.000000
vn 0.000000 0.000000 -1.000000
vn 0.000000 0.000000 -1.000000
vn 0.000000 0.000000 -1.000000
vn -1.000000 0.000000 0.000000
vn -1.000000 0.000000 0.000000
vn -1.000000 0.000000 0.000000
vn -1.000000 0.000000 0.000000
vn -0.999998 0.000000 0.002101
vn -0.999998 0.000000 0.002101
vn -0.999998 0.000000 0.002101
vn -0.999998 0.000000 0.002101
vn 0.000000 0.000000 -1.000000
vn 0.000000 0.000000 -1.000000
vn 0.000000 0.000000 -1.000000
vn 0.000000 0.000000 -1.000000
vn 0.003607 0.000000 -0.999994
vn 0.003607 0.000000 -0.999994
vn 0.003607 0.000000 -0.999994
vn 0.003607 0.000000 -0.999994
vn -0.001887 0.000000 -0.999998
vn -0.001887 0.000000 -0.999998
vn -0.001887 0.000000 -0.999998
vn -0.001887 0.000000 -0.999998
vn -0.828183 0.000000 -0.560457
vn -0.828183 0.000000 -0.560457
vn -0.828183 0.000000 -0.560457
vn -0.828183 0.000000 -0.560457
vn -0.999992 0.000000 -0.003916
vn -0.999992 0.000000 -0.003916
vn -0.999992 0.000000 -0.003916
vn -0.999992 0.000000 -0.003916
vn -0.752990 0.000000 0.658032
vn -0.752990 0.000000 0.658032
vn -0.752990 0.000000 0.658032
vn -0.752990 0.000000 0.658032
vn -0.999914 0.000000 -0.013097
vn -0.999914 0.000000 -0.013097
vn -0.999914 0.000000 -0.013097
vn -0.999914 0.000000 -0.013097
vn -1.000000 0.000000 0.000000
vn -1.000000 0.000000 0.000000
vn -1.000000 0.000000 0.000000
vn -1.000000 0.000000 0.000000
vn 0.000000 0.000000 1.000000
vn 0.000000 0.000000 1.000000
vn 0.000000 0.000000 1.000000
vn 0.000000 0.000000 1.000000
vn 0.000000 0.000000 1.000000
vn 0.000000 0.000000 1.000000
vn 0.000000 0.000000 1.000000
vn 0.000000 0.000000 1.000000
vn -1.000000 -0.000000 0.000000
vn -1.000000 -0.000000 0.000000
vn -1.000000 -0.000000 0.000000
vn -1.000000 -0.000000 0.000000
vn -1.000000 0.000000 0.000000
vn -1.000000 0.000000 0.000000
vn -1.000000 0.000000 0.000000
vn -1.000000 0.000000 0.000000
vn 0.000000 1.000000 0.000000
vn 0.000000 1.000000 0.000000
vn 0.000000 1.000000 0.000000
vn 0.000000 1.000000 0.000000
vn 0.000000 1.000000 -0.000000
vn 0.000000 1.000000 0.000000
vn 0.000000 1.000000 -0.000000
vn 0.000000 1.000000 -0.000000
vn 0.000000 1.000000 0.000000
vn 0.000000 1.000000 0.000000
vn 0.000000 1.000000 0.000000
vn 0.000000 1.000000 0.000000
vn 0.000000 1.000000 0.000000
vn 0.000000 1.000000 0.000000
vn 0.000000 1.000000 0.000000
vn 0.000000 1.000000 -0.000000
vn 0.000000 1.000000 -0.000000
vn 0.000000 1.000000 0.000000
vn 0.000000 1.000000 0.000000
vn 0.000000 -0.000000 -1.000000
vn 0.000000 -0.000000 -1.000000
vn 0.000000 1.000000 0.000001
vn 0.000000 1.000000 0.000001
vn 0.000000 1.000000 0.000002
vn 0.000000 1.000000 0.000002
vn 0.000000 0.000000 1.000000
vn 0.000000 0.000000 1.000000
vn 0.000000 1.000000 0.000000
vn 0.000000 1.000000 0.000000
vn 0.000000 1.000000 0.000000
vn 0.000000 1.000000 0.000000
vn 0.000000 1.000000 0.000000
vn 0.000000 1.000000 0.000000
vn 0.000000 1.000000 0.000000
vn 0.000000 1.000000 0.000000
vn 0.000000 1.000000 0.000000
vn 0.000000 1.000000 0.000000
vn 0.000000 1.000000 -0.000000
vn 0.000000 1.000000 -0.000000
vn 0.000000 1.000000 -0.000000
vn 0.000000 1.000000 -0.000000
vn 0.000000 1.000000 -0.000000
vn 0.000000 1.000000 0.000000
vn 0.000000 1.000000 0.000000
vn 0.000000 1.000000 -0.000000
vn 0.000000 1.000000 0.000000
vn 0.000000 1.000000 0.000000
vn 0.000000 1.000000 0.000000
vn 0.000000 1.000000 0.000000
vn 0.000000 1.000000 0.000000
vn 0.000000 1.000000 0.000000
vn 0.000000 1.000000 0.000000
vn 0.000000 1.000000 0.000000
vn 0.000000 1.000000 0.000000
vn 0.000000 1.000000 0.000000
vn 0.000000 1.000000 0.000000
vn 0.000000 1.000000 -0.000000
vn -0.000000 1.000000 -0.000000
vn 0.000000 1.000000 0.000000
vn -0.000000 1.000000 0.000000
vn 1.000000 0.000000 0.000000
vn 1.000000 0.000000 0.000000
vn 1.000000 0.000000 0.000000
vn 1.000000 0.000000 0.000000
vn 0.000000 0.000000 -1.000000
vn 0.000000 0.000000 -1.000000
vn 0.000000 0.000000 -1.000000
vn 0.000000 0.000000 -1.000000
vn 1.000000 0.000000 0.000000
vn 1.000000 0.000000 0.000000
vn 1.000000 0.000000 0.000000
vn 1.000000 0.000000 0.000000
vn 0.000000 0.000000 -1.000000
vn 0.000000 0.000000 -1.000000
vn 0.000000 0.000000 -1.000000
vn 0.000000 0.000000 -1.000000
vn -1.000000 0.000000 0.000000
vn -1.000000 0.000000 0.000000
vn -1.000000 0.000000 0.000000
vn -1.000000 0.000000 0.000000
vn 0.000000 0.000000 -1.000000
vn 0.000000 0.000000 -1.000000
vn 0.000000 0.000000 -1.000000
vn 0.000000 0.000000 -1.000000
vn -1.000000 0.000000 0.000000
vn -1.000000 0.000000 0.000000
vn -1.000000 0.000000 0.000000
vn -1.000000 0.000000 0.000000
vn 0.000000 0.000000 1.000000
vn 0.000000 0.000000 1.000000
vn 0.000000 0.000000 1.000000
vn 0.000000 0.000000 1.000000
vn -1.000000 0.000000 0.000000
vn -1.000000 0.000000 0.000000
vn -1.000000 0.000000 0.000000
vn -1.000000 0.000000 0.000000
vn 0.000000 0.000000 1.000000
vn 0.000000 0.000000 1.000000
vn 0.000000 0.000000 1.000000
vn 0.000000 0.000000 1.000000
vn 1.000000 0.000000 0.000000
vn 1.000000 0.000000 0.000000
vn 1.000000 0.000000 0.000000
vn 1.000000 0.000000 0.000000
vn 0.000000 0.000000 1.000000
vn 0.000000 0.000000 1.000000
vn 0.000000 0.000000 1.000000
vn 0.000000 0.000000 1.000000
vn 0.000000 1.000000 0.000000
vn 0.000000 1.000000 0.000000
vn 0.000000 1.000000 0.000000
vn 0.000000 1.000000 0.000000
vn 0.000000 1.000000 -0.000000
vn 0.000000 1.000000 0.000000
vn 0.000000 1.000000 -0.000000
vn 0.000000 1.000000 -0.000000
vn 0.000000 1.000000 -0.000000
vn 0.000000 1.000000 -0.000000
vn 0.000000 1.000000 0.000000
vn 0.000000 1.000000 0.000000
vn 0.000000 1.000000 -0.000000
vn 0.000000 1.000000 -0.000000
vn 0.000000 1.000000 0.000000
vn 0.000000 1.000000 -0.000000
vn -0.000000 1.000000 0.000000
vn -0.000000 1.000000 0.000000
vn 0.000000 1.000000 0.000000
vn 0.000000 1.000000 0.000000
vn -1.000000 0.000000 0.000000
vn -1.000000 0.000000 0.000000
vn -1.000000 0.000000 0.000000
vn -0.999921 0.000000 0.012575
vn -0.999921 0.000000 0.012575
vn -0.999921 0.000000 0.012575
vn -0.999921 0.000000 0.012575
vn 0.000000 0.000000 1.000000
vn 0.000000 0.000000 1.000000
vn 0.000000 0.000000 1.000000
vn 0.000000 0.000000 1.000000
vn 0.999921 0.000000 -0.012576
vn 0.999921 0.000000 -0.012576
vn 0.999921 0.000000 -0.012576
vn 0.999921 0.000000 -0.012576
vn 0.000000 0.000000 1.000000
vn 0.000000 0.000000 1.000000
vn 0.000000 0.000000 1.000000
vn 0.000000 0.000000 1.000000
vn 1.000000 0.000000 0.000000
vn 1.000000 0.000000 0.000000
vn 1.000000 0.000000 0.000000
vn 1.000000 0.000000 0.000000
vn 0.000000 0.000000 -1.000000
vn 0.000000 0.000000 -1.000000
vn 0.000000 0.000000 -1.000000
vn 0.000000 0.000000 -1.000000
vn 1.000000 0.000000 0.000000
vn 1.000000 0.000000 0.000000
vn 1.000000 0.000000 0.000000
vn 1.000000 0.000000 0.000000
vn 0.000000 0.000000 -1.000000
vn 0.000000 0.000000 -1.000000
vn 0.000000 0.000000 -1.000000
vn 0.000000 0.000000 -1.000000
vn 0.000000 1.000000 0.000000
vn 0.000000 1.000000 0.000000
vn 0.000000 1.000000 0.000000
vn 0.000000 1.000000 0.000000
vn 0.000000 1.000000 0.000000
vn 0.000000 1.000000 0.000000
vn 0.000000 1.000000 0.000000
vn 0.000000 1.000000 0.000000
vn 0.000000 1.000000 0.000000
vn 0.000000 1.000000 0.000000
vn 0.000000 1.000000 0.000000
vn 0.000000 1.000000 0.000000
vn -0.016999 0.999845 0.004571
vn -0.021009 0.999779 0.000369
vn -0.010821 0.999893 0.009799
vn -0.001211 0.999780 0.020930
vn -0.018148 0.999609 -0.021291
vn -0.018453 0.999595 -0.021648
vn -0.004413 0.999652 -0.026017
vn -0.007004 0.999660 -0.025100
vn 0.009292 0.999824 -0.016286
vn 0.000426 0.999890 -0.014826
vn -0.000612 0.999656 -0.026205
vn -0.001295 0.999658 -0.026124
vn 0.000000 0.999804 0.019808
vn 0.000000 0.999804 0.019808
vn -0.000115 0.999740 0.022793
vn -0.000115 0.999740 0.022792
vn 0.023779 0.999717 -0.000788
vn 0.000876 0.999999 -0.000805
vn 0.000000 1.000000 0.000000
vn 0.000000 1.000000 0.000000
vn 0.000000 1.000000 0.000000
vn 0.000000 1.000000 0.000000
vn 0.000000 1.000000 0.000000
vn 0.000000 1.000000 0.000000
vn 0.000000 1.000000 0.000000
vn 0.000000 1.000000 0.000000
vn 0.000000 1.000000 0.000000
vn 0.000000 1.000000 0.000000
vn 0.000002 1.000000 0.000001
vn 0.000002 1.000000 0.000001
vn 0.000002 1.000000 0.000001
vn 0.000002 1.000000 0.000001
vn 0.000000 1.000000 0.000000
vn 0.000000 1.000000 0.000000
vn -0.000000 1.000000 0.000000
vn -0.000000 1.000000 0.000000
vn -0.000000 1.000000 0.000000
vn -0.000000 1.000000 0.000000
vn 0.000001 1.000000 -0.000000
vn 0.000000 1.000000 0.000000
vn 0.000000 1.000000 0.000000
vn 0.000002 1.000000 -0.000000
vn 0.000004 1.000000 0.000000
vn 0.000004 1.000000 0.000000
vn 0.000004 1.000000 0.000000
vn 0.000004 1.000000 0.000000
vn 0.000000 1.000000 0.000000
vn 0.000000 1.000000 -0.000000
vn 0.000000 1.000000 0.000000
vn 0.000000 1.000000 0.000000
vn 0.000000 1.000000 -0.000000
vn 0.000000 1.000000 -0.000000
vn 0.000000 1.000000 -0.000000
vn 0.000000 1.000000 0.000000
vn 0.000000 1.000000 0.000000
vn 0.000000 1.000000 0.000000
vn 0.000000 1.000000 0.000000
vn 0.000000 1.000000 0.000000
vn 0.000494 0.999738 0.022905
vn 0.000494 0.999738 0.022905
vn -0.000119 0.999738 0.022905
vn -0.000119 0.999738 0.022905
vn 0.000000 1.000000 0.000000
vn 0.000000 1.000000 0.000000
vn 0.000000 1.000000 0.000000
vn 0.000000 1.000000 0.000000
vn -0.000255 0.999808 0.019614
vn -0.011341 0.999869 0.011570
vn -0.026920 0.999638 0.000249
vn -0.013322 0.999864 0.009672
vn 0.000000 1.000000 0.000000
vn 0.000000 1.000000 0.000000
vn 0.000000 1.000000 0.000000
vn 0.000000 1.000000 0.000000
vn 0.000000 1.000000 0.000000
vn 0.000000 1.000000 0.000000
vn 0.000000 1.000000 0.000000
vn 0.000000 1.000000 0.000000
vn 0.000000 1.000000 0.000000
vn 0.000000 1.000000 0.000000
vn 0.000000 1.000000 0.000000
vn 0.000000 1.000000 0.000000
vn 0.000000 1.000000 0.000000
vn 0.000000 1.000000 0.000000
vn 0.000000 1.000000 0.000000
vn 0.000000 1.000000 0.000000
vn -0.027060 0.999634 0.000252
vn -0.022027 0.999753 0.003014
vn -0.000920 0.999897 0.014360
vn -0.013091 0.999888 0.007252
vn -0.025257 0.999681 0.000000
vn -0.022348 0.999750 0.000000
vn -0.013642 0.999784 0.015648
vn 0.000000 0.999878 0.015649
vn -0.020554 0.999719 0.011808
vn -0.022126 0.999723 0.008057
vn -0.021908 0.999733 0.007366
vn -0.022951 0.999726 0.004494
vn -0.023386 0.999716 -0.004565
vn -0.022648 0.999716 -0.007382
vn -0.012548 0.999768 -0.017529
vn -0.009791 0.999777 -0.018708
vn 0.000037 0.999728 -0.023321
vn 0.000035 0.999729 -0.023302
vn 0.000034 0.999715 -0.023854
vn 0.000034 0.999715 -0.023852
vn 0.000000 1.000000 -0.000000
vn 0.000000 1.000000 -0.000000
vn 0.000000 1.000000 -0.000000
vn 0.000000 1.000000 -0.000000
vn -0.000697 0.999709 -0.024121
vn -0.004856 0.999769 -0.020954
vn 0.000309 0.998992 -0.044878
vn 0.010765 0.999618 -0.025472
vn 0.024080 0.999710 -0.000838
vn 0.014468 0.999638 -0.022695
vn -0.016224 0.999793 -0.012293
vn -0.028843 0.999580 -0.002672
vn 0.999998 0.000000 -0.002099
vn 0.999998 0.000000 -0.002099
vn 0.999998 0.000000 -0.002099
vn 0.999998 0.000000 -0.002099
vn -0.003855 0.999193 -0.039972
vn -0.030268 0.999537 -0.002978
vn -0.000310 0.998990 -0.044930
vn -0.016221 0.999611 -0.022696
vn 0.007218 0.999633 -0.026127
vn 0.003326 0.999632 -0.026909
vn 0.011987 0.999597 -0.025747
vn 0.009771 0.999604 -0.026385
vn 0.009812 0.999859 -0.013648
vn 0.001226 0.999628 -0.027252
vn 0.016720 0.999852 -0.004002
vn 0.019393 0.999812 0.000028
vn 0.001644 0.999758 0.021959
vn 0.016316 0.999859 0.004039
vn 0.001718 0.999747 0.022408
vn 0.023605 0.999718 0.002542
vn 0.001984 0.999998 -0.000002
vn 0.015846 0.999874 0.000279
vn 0.019622 0.999807 0.000346
vn 0.019622 0.999807 0.000000
vn 0.019622 0.999807 0.000000
vn 0.019622 0.999807 0.000000
vn 0.019265 0.999814 0.000436
vn 0.009812 0.999880 0.011986
vn -0.000202 0.999622 0.027495
vn -0.008662 0.999826 0.016530
vn -0.021112 0.999777 0.000385
vn -0.010702 0.999846 0.013882
vn 0.023803 0.999717 0.000178
vn 0.001760 0.999997 0.001598
vn 0.000000 1.000000 0.000000
vn 0.000000 1.000000 0.000000
vn 0.013748 0.999817 0.013310
vn 0.026218 0.999656 0.000197
vn 0.000203 0.999621 0.027544
vn 0.013201 0.999816 0.013881
vn 0.000000 1.000000 0.000000
vn 0.000000 1.000000 -0.000000
vn 0.000000 1.000000 -0.000000
vn 0.000000 1.000000 0.000000
vn 0.000000 1.000000 0.000000
vn 0.000000 1.000000 0.000000
vn 0.000000 1.000000 0.000000
vn 0.000000 1.000000 0.000000
vn 0.000000 1.000000 -0.000000
vn 0.000000 1.000000 -0.000000
vn 0.000000 1.000000 -0.000000
vn 0.000000 0.000000 -1.000000
vn 0.000000 0.000000 -1.000000
vn 0.000000 0.000000 -1.000000
vn 0.000000 0.000000 -1.000000
vn 0.000018 0.000000 1.000000
vn 0.000018 0.000000 1.000000
vn 0.000018 0.000000 1.000000
vn 0.000018 0.000000 1.000000
vn -1.000000 0.000000 0.000000
vn -1.000000 0.000000 0.000000
vn -1.000000 0.000000 0.000000
vn -1.000000 0.000000 0.000000
vn 1.000000 0.000000 0.000000
vn 1.000000 0.000000 0.000000
vn 1.000000 0.000000 0.000000
vn 1.000000 0.000000 0.000000
vn 0.000000 1.000000 0.000000
vn -0.000000 1.000000 -0.000000
vn 0.000000 1.000000 0.000000
vn 0.000000 1.000000 0.000000
vn 0.000000 1.000000 0.000000
vn 0.000000 1.000000 0.000000
vn -0.000000 1.000000 -0.000001
vn 0.000000 1.000000 -0.000000
vn 0.000000 1.000000 -0.000000
vn 0.000000 1.000000 0.000000
vn 0.000000 1.000000 0.000000
vn 0.000000 1.000000 0.000000
vn 0.000000 1.000000 0.000000
vn 0.000000 1.000000 0.000000
vn 0.000002 1.000000 -0.000000
vn 0.000002 1.000000 -0.000000
vn 0.000000 1.000000 0.000000
vn 0.000000 1.000000 0.000000
vn 0.000000 1.000000 -0.000000
vn 0.000000 1.000000 0.000000
vn 0.000000 1.000000 -0.000000
vn 0.000000 1.000000 -0.000000
vn -1.000000 0.000000 0.000000
vn -1.000000 0.000000 0.000000
vn -1.000000 0.000000 0.000000
vn -1.000000 0.000000 0.000000
vn -0.000000 1.000000 0.000000
vn 0.000000 1.000000 0.000000
vn 0.000000 1.000000 0.000000
vn 0.000000 1.000000 -0.000000
vn 0.000000 1.000000 -0.000000
vn 0.000000 1.000000 0.000000
vn 0.000000 1.000000 -0.000000
vn 0.000000 1.000000 -0.000000
vn 0.000000 1.000000 0.000000
vn 0.000000 1.000000 0.000000
vn 0.000000 1.000000 0.000000
vn 0.000000 1.000000 0.000000
vn 0.000000 1.000000 0.000000
vn 0.000000 1.000000 0.000000
vn 0.000000 1.000000 0.000000
vn 0.000000 1.000000 0.000000
vn 0.000000 1.000000 0.000000
vn 0.000000 1.000000 0.000000
vn 0.000000 0.000000 1.000000
vn 0.000000 0.000000 1.000000
vn 0.000000 0.000000 1.000000
vn 0.000000 0.000000 1.000000
vn 0.000000 0.999006 -0.044567
vn 0.000000 0.999006 -0.044567
vn 0.000000 0.999006 -0.044567
vn 0.000000 0.999006 -0.044567
vn -1.000000 0.000000 -0.000002
vn -1.000000 0.000000 -0.000002
vn -1.000000 0.000000 -0.000002
vn -1.000000 0.000000 -0.000002
vn 1.000000 0.000000 0.000004
vn 1.000000 0.000000 0.000004
vn 1.000000 0.000000 0.000004
vn 1.000000 0.000000 0.000004
vn 0.000000 0.000000 1.000000
vn 0.000000 0.000000 1.000000
vn 0.000000 0.000000 1.000000
vn 0.000000 0.000000 1.000000
vn 0.000000 1.000000 0.000000
vn 0.000000 1.000000 0.000000
vn 0.000000 1.000000 0.000000
vn 0.000000 1.000000 0.000000
vn 0.000000 -1.000000 0.000000
vn 0.000000 -1.000000 0.000000
vn 0.000000 -1.000000 0.000000
vn 0.000000 -1.000000 0.000000
vn -0.999758 0.021188 0.005903
vn -0.999598 0.028121 0.003708
vn -0.999550 0.029377 0.006050
vn -0.999550 0.029377 0.006050
vn 0.000000 -1.000000 0.000000
vn 0.000000 -1.000000 0.000000
vn 0.000000 -1.000000 0.000000
vn 0.000000 -1.000000 0.000000
vn 0.000000 0.000000 1.000000
vn 0.000000 0.000000 1.000000
vn 0.000000 0.000000 1.000000
vn 0.000000 0.000000 1.000000
vn 0.000320 0.963883 0.266326
vn 0.000092 0.971678 0.236308
vn 0.000090 0.971728 0.236103
vn 0.000320 0.963883 0.266326
vn 0.000000 -1.000000 0.000000
vn 0.000000 -1.000000 0.000000
vn 0.000000 -1.000000 0.000000
vn 0.000000 -1.000000 0.000000
vn 0.000000 0.971654 0.236406
vn 0.000000 0.971654 0.236406
vn 0.000000 0.963667 0.267105
vn 0.000000 0.963667 0.267105
vn -0.000002 0.000000 1.000000
vn -0.000002 0.000000 1.000000
vn -0.000002 0.000000 1.000000
vn -0.000002 0.000000 1.000000
vn -0.999985 0.003773 0.003983
vn -0.999997 0.002380 0.000000
vn -0.999989 0.003490 0.003174
vn 0.000000 -1.000000 0.000000
vn 0.000000 -1.000000 0.000000
vn 0.000000 -1.000000 0.000000
vn 0.000000 -1.000000 0.000000
vn 0.000000 -1.000000 0.000000
vn 0.000000 -1.000000 0.000000
vn 0.000000 -1.000000 0.000000
vn 0.000000 -1.000000 0.000000
vn -0.999909 0.012385 0.005367
vn -0.999942 0.009880 0.004321
vn -0.999858 0.016244 0.004573
vn 0.000000 -1.000000 0.000000
vn 0.000000 -1.000000 0.000000
vn 0.000000 -1.000000 0.000000
vn 0.000000 -1.000000 0.000000
vn 0.000000 -1.000000 0.000000
vn 0.000000 -1.000000 0.000000
vn 0.000000 -1.000000 0.000000
vn 0.000000 -1.000000 0.000000
vn 0.000000 -1.000000 0.000000
vn 0.000000 -1.000000 0.000000
vn 0.000000 -1.000000 0.000000
vn 0.000000 -1.000000 0.000000
vn 0.000000 -1.000000 0.000000
vn 0.000000 -1.000000 0.000000
vn 0.000000 -1.000000 0.000000
vn 0.000000 -1.000000 0.000000
vn -0.999972 0.005977 0.004428
vn -0.999956 0.008638 0.003747
vn -0.999942 0.009880 0.004321
vn -0.999909 0.012385 0.005367
vn 0.000000 0.974566 0.224099
vn 0.000000 0.974566 0.224099
vn 0.012925 0.977889 0.208724
vn 0.013057 0.977921 0.208567
vn 1.000000 0.000000 0.000000
vn 1.000000 0.000000 0.000000
vn 1.000000 -0.000001 0.000000
vn 1.000000 0.000000 0.000000
vn 1.000000 -0.000001 0.000000
vn 1.000000 0.000000 0.000000
vn 0.000000 -1.000000 0.000000
vn 0.000000 -1.000000 0.000000
vn 0.000000 -1.000000 0.000000
vn 0.000000 -1.000000 0.000000
vn 0.000000 -1.000000 0.000000
vn 0.000000 -1.000000 0.000000
vn 0.000000 -1.000000 0.000000
vn 0.000000 -1.000000 0.000000
vn 0.000000 -1.000000 0.000000
vn 0.000000 -1.000000 0.000000
vn 0.000000 -1.000000 0.000000
vn 0.000000 -1.000000 0.000000
vn 0.000000 0.980745 0.195294
vn 0.000000 0.980745 0.195294
vn 0.000000 0.974567 0.224098
vn 0.000000 0.974567 0.224098
vn 0.000000 1.000000 0.000000
vn 0.000000 1.000000 0.000000
vn 0.000000 1.000000 0.000000
vn 0.000000 1.000000 0.000000
vn -0.999909 0.012385 0.005367
vn -0.999858 0.016244 0.004573
vn -0.999823 0.017960 0.005544
vn -0.999758 0.021188 0.005903
vn 0.000090 0.971728 0.236103
vn 0.000092 0.971678 0.236308
vn 0.000000 0.974566 0.224099
vn 0.000000 0.974566 0.224099
vn 0.000000 1.000000 0.000006
vn 0.000000 1.000000 0.000006
vn 0.000000 1.000000 0.000006
vn 0.000000 1.000000 0.000006
vn 0.000000 0.974567 0.224098
vn 0.000000 0.974567 0.224098
vn 0.000000 0.971654 0.236406
vn 0.000000 0.971654 0.236406
vn 0.000000 -1.000000 0.000000
vn 0.000000 -1.000000 0.000000
vn 0.000000 -1.000000 0.000000
vn 0.000000 -1.000000 0.000000
vn 0.000000 -1.000000 0.000000
vn 0.000000 -1.000000 0.000000
vn 0.000000 -1.000000 0.000000
vn 0.000000 -1.000000 0.000000
vn 0.000000 -1.000000 0.000000
vn 0.000000 -1.000000 0.000000
vn 0.000000 -1.000000 0.000000
vn 0.000000 -1.000000 0.000000
vn -0.999972 0.005977 0.004428
vn -0.999984 0.004422 0.003527
vn -0.999956 0.008638 0.003747
vn 0.000000 -1.000000 0.000000
vn 0.000000 -1.000000 0.000000
vn 0.000000 -1.000000 0.000000
vn 0.000000 -1.000000 0.000000
vn 0.000000 -1.000000 0.000000
vn 0.000000 -1.000000 0.000000
vn 0.000000 -1.000000 0.000000
vn 0.000000 -1.000000 0.000000
vn 0.000000 -1.000000 0.000000
vn 0.000000 -1.000000 0.000000
vn 0.000000 -1.000000 0.000000
vn 0.000000 -1.000000 0.000000
vn 1.000000 0.000000 0.000000
vn 1.000000 0.000000 0.000000
vn 1.000000 0.000000 0.000000
vn -0.999985 0.003773 0.003983
vn -0.999989 0.003490 0.003174
vn -0.999984 0.004422 0.003527
vn -0.999972 0.005977 0.004428
vn 0.013057 0.977921 0.208567
vn 0.012925 0.977889 0.208724
vn 0.024295 0.980478 0.195122
vn 0.024295 0.980478 0.195122
vn 0.000000 1.000000 0.000000
vn 0.000000 1.000000 0.000000
vn 0.000000 1.000000 0.000000
vn 0.000000 1.000000 0.000000
vn 0.000000 0.984930 0.172951
vn 0.000000 0.984930 0.172951
vn 0.000000 0.980745 0.195294
vn 0.000000 0.980745 0.195294
vn 0.000000 -1.000000 0.000000
vn 0.000000 -1.000000 0.000000
vn 0.000000 -1.000000 0.000000
vn 0.000000 -1.000000 0.000000
vn 0.000000 -1.000000 0.000000
vn 0.000000 -1.000000 0.000000
vn 0.000000 -1.000000 0.000000
vn 0.000000 -1.000000 0.000000
vn 0.000000 -1.000000 0.000000
vn 0.000000 -1.000000 0.000000
vn 0.000000 -1.000000 0.000000
vn 0.000000 -1.000000 0.000000
vn -0.999758 0.021188 0.005903
vn -0.999823 0.017960 0.005544
vn -0.999598 0.028121 0.003708
vn 0.000000 -1.000000 0.000000
vn 0.000000 -1.000000 0.000000
vn 0.000000 -1.000000 0.000000
vn 0.000000 -1.000000 0.000000
vn 0.000000 -1.000000 0.000000
vn 0.000000 -1.000000 0.000000
vn 0.000000 -1.000000 0.000000
vn 0.000000 -1.000000 0.000000
vn 0.000000 -1.000000 0.000000
vn 0.000000 -1.000000 0.000000
vn 0.000000 -1.000000 0.000000
vn 0.000000 -1.000000 0.000000
vn 1.000000 0.000000 0.000000
vn 1.000000 0.000000 0.000000
vn 1.000000 -0.000001 0.000000
vn 0.998746 -0.049604 -0.006738
vn 0.998746 -0.049604 -0.006738
vn 0.998746 -0.049604 -0.006738
vn 0.998746 -0.049604 -0.006738
vn 0.000003 0.000000 1.000000
vn 0.000003 0.000000 1.000000
vn 0.000003 0.000000 1.000000
vn 0.999049 0.000000 -0.043598
vn 0.999049 0.000000 -0.043598
vn 0.999049 0.000000 -0.043598
vn 0.999565 -0.028853 -0.006166
vn 0.999565 -0.028853 -0.006166
vn 0.999565 -0.028853 -0.006166
vn 0.999565 -0.028853 -0.006166
vn 0.999087 -0.042008 -0.007725
vn 0.999087 -0.042008 -0.007725
vn 0.999087 -0.042008 -0.007725
vn 0.999087 -0.042008 -0.007725
vn 0.999426 0.000000 -0.033863
vn 0.999426 0.000000 -0.033863
vn 0.999426 0.000000 -0.033863
vn 0.999863 -0.016159 -0.003532
vn 0.999863 -0.016159 -0.003532
vn 0.999863 -0.016159 -0.003532
vn 0.999863 -0.016159 -0.003532
vn 0.998735 -0.000001 -0.050274
vn 0.998735 -0.000001 -0.050273
vn 0.998735 -0.000001 -0.050273
vn -1.000000 0.000001 0.000000
vn -1.000000 0.000001 0.000000
vn -1.000000 0.000001 0.000000
vn -1.000000 0.000001 0.000000
vn 0.000000 0.000000 1.000000
vn 0.000000 0.000000 1.000000
vn 0.000000 0.000000 1.000000
vn 1.000000 0.000000 0.000000
vn 1.000000 0.000000 0.000000
vn 1.000000 0.000000 0.000000
vn 1.000000 0.000000 0.000000
vn -1.000000 0.000000 0.000000
vn -1.000000 0.000000 0.000000
vn -1.000000 0.000000 0.000000
vn -1.000000 0.000003 0.000000
vn -1.000000 0.000003 0.000000
vn -1.000000 0.000003 0.000000
vn -1.000000 0.000003 0.000000
vn 1.000000 0.000000 0.000000
vn 1.000000 0.000000 0.000000
vn 1.000000 0.000000 0.000000
vn 1.000000 0.000000 0.000000
vn -1.000000 -0.000001 0.000000
vn -1.000000 -0.000001 0.000000
vn -1.000000 -0.000001 0.000000
vn -1.000000 -0.000001 0.000000
vn 1.000000 0.000000 0.000000
vn 1.000000 0.000000 0.000000
vn 1.000000 -0.000001 0.000000
vn 1.000000 -0.000001 0.000000
vn -1.000000 0.000012 0.000000
vn -1.000000 0.000012 0.000000
vn -1.000000 0.000012 0.000000
vn -1.000000 0.000000 0.000000
vn -1.000000 0.000000 0.000000
vn -1.000000 0.000000 0.000000
vn -1.000000 0.000000 0.000000
vn 1.000000 0.000000 0.000000
vn 1.000000 0.000000 0.000000
vn 1.000000 0.000000 0.000000
vn 1.000000 0.000000 0.000000
vn -1.000000 0.000000 0.000000
vn -1.000000 0.000000 0.000000
vn -1.000000 0.000000 0.000000
vn 0.000000 0.000015 1.000000
vn 0.000000 0.000015 1.000000
vn 0.000000 0.000015 1.000000
vn 0.000000 0.000015 1.000000
vn 0.000000 0.000000 1.000000
vn 0.000000 0.000000 1.000000
vn 0.000000 0.000000 1.000000
vn 0.000000 0.000000 1.000000
vn 0.000000 0.000057 1.000000
vn 0.000000 0.000057 1.000000
vn 0.000000 0.000057 1.000000
vn 0.000000 0.000057 1.000000
vn -0.054496 0.097833 -0.993710
vn 0.000000 0.235931 -0.971770
vn -0.074760 0.045105 -0.996181
vn -0.229916 0.266626 -0.935975
vn -0.175581 0.184026 -0.967112
vn -0.259833 0.312505 -0.913689
vn -0.259833 0.312505 -0.913689
vn 0.016925 0.082282 -0.996465
vn 0.016925 0.082282 -0.996465
vn 0.016925 0.082282 -0.996465
vn 0.016925 0.082282 -0.996465
vn 0.000000 -0.077405 -0.997000
vn -0.175581 0.184026 -0.967112
vn -0.229916 0.266626 -0.935975
vn -0.054496 0.097833 -0.993710
vn -0.074760 0.045105 -0.996181
vn -0.086557 0.014048 -0.996148
vn -0.086557 0.014048 -0.996148
s off
g polySurface4
usemtl initialShadingGroup
f 128/1/1 127/2/2 1/3/3 2/4/4
f 129/5/5 128/6/6 2/7/7 3/8/8
f 130/9/9 129/10/10 3/11/11 4/12/12
f 131/13/13 130/14/14 4/15/15 5/16/16 302/603/17
f 133/18/18 132/19/19 124/17/20 125/20/21
f 134/21/22 133/22/23 125/23/24 122/24/25
f 135/25/26 134/26/27 122/27/28 123/28/29
f 136/29/30 135/30/31 123/31/32 49/32/33
f 137/33/34 136/34/35 49/35/36 50/36/37
f 138/37/38 137/38/39 50/39/40 51/40/41
f 139/41/42 138/42/43 51/43/44 120/44/45
f 140/45/46 139/46/47 120/47/48 121/48/49
f 141/49/50 140/50/51 121/51/52 46/52/53
f 142/53/54 141/54/55 46/55/56 47/56/57
f 143/57/58 142/58/59 47/59/60 53/60/61
f 144/61/62 143/62/63 53/63/64 54/64/65
f 145/65/66 144/66/67 54/67/68 55/68/69
f 146/69/70 145/70/71 55/71/72 56/72/73
f 147/73/74 146/74/75 56/75/76 57/76/77
f 148/77/78 147/78/79 57/79/80 58/80/81
f 149/81/82 148/82/83 58/83/84 119/84/85
f 150/85/86 149/86/87 119/87/88 118/88/89
f 151/89/90 150/90/91 118/91/92 114/92/93
f 152/93/94 151/94/95 114/95/96 115/96/97
f 117/100/98 153/97/99 152/98/100 115/99/101
f 155/105/102 154/106/103 116/107/104 113/108/105
f 156/109/106 155/110/107 113/111/108 112/112/109
f 157/113/110 156/114/111 112/115/112 90/116/113
f 158/117/114 157/118/115 90/119/116 91/120/117
f 159/121/118 158/122/119 91/123/120 109/124/121
f 160/125/122 159/126/123 109/127/124 106/128/125
f 161/129/126 160/130/127 106/131/128 107/132/129
f 162/133/130 161/134/131 107/135/132 110/136/133
f 164/138/134 163/139/135 111/137/136 108/140/137
f 165/141/138 164/142/139 108/143/140 96/144/141
f 166/145/142 165/146/143 96/147/144 97/148/145
f 167/149/146 166/150/147 97/151/148 101/152/149
f 168/153/150 167/154/151 101/155/152 103/156/153
f 170/158/154 169/159/155 104/157/156 105/160/157
f 171/161/158 170/162/159 105/163/160 98/164/161
f 173/166/162 172/167/163 99/165/164 102/168/165
f 174/169/166 173/170/167 102/171/168 100/172/169
f 175/173/170 174/174/171 100/175/172 95/176/173
f 176/177/174 175/178/175 95/179/176 94/180/177
f 177/181/178 176/182/179 94/183/180 93/184/181
f 178/185/182 177/186/183 93/187/184 92/188/185
f 179/189/186 178/190/187 92/191/188 89/192/189
f 180/193/190 179/194/191 89/195/192 74/196/193
s 1
f 255/487/194 256/490/195 180/197/196 74/199/197
s off
f 182/201/198 181/202/199 75/203/200 87/204/201
f 184/206/202 183/207/203 88/205/204 86/208/205
f 185/209/206 184/210/207 86/211/208 78/212/209
f 186/213/210 185/214/211 78/215/212 71/216/213
f 187/217/214 186/218/215 71/219/216 72/220/217
f 188/221/218 187/222/219 72/223/220 81/224/221
f 189/225/222 188/226/223 81/227/224 82/228/225
f 190/229/226 189/230/227 82/231/228 83/232/229
f 191/233/230 190/234/231 83/235/232 84/236/233
f 192/237/234 191/238/235 84/239/236 76/240/237
f 193/241/238 192/242/239 76/243/240 77/244/241
f 194/245/242 193/246/243 77/247/244 79/248/245
f 195/249/246 194/250/247 79/251/248
f 196/252/249 195/253/250 79/254/251 80/255/252
f 197/256/253 196/257/254 80/258/255 85/259/256
f 198/260/257 197/261/258 85/262/259 73/263/260
s 2
f 199/264/261 257/492/262 258/493/263 70/267/264
s off
f 200/268/265 199/269/266 70/270/267 67/271/268
f 201/272/269 200/273/270 67/274/271 64/275/272
f 202/276/273 201/277/274 64/278/275 65/279/276
f 203/280/277 202/281/278 65/282/279 69/283/280
f 204/284/281 203/285/282 69/286/283 68/287/284
f 205/288/285 204/289/286 68/290/287 66/291/288
f 206/292/289 205/293/290 66/294/291 63/295/292
f 207/296/293 206/297/294 63/298/295 61/299/296
f 208/300/297 207/301/298 61/302/299 48/303/300
f 209/304/301 208/305/302 48/306/303
f 210/307/304 209/308/305 48/309/306 59/310/307
f 211/311/308 210/312/309 59/313/310 60/314/311
f 212/315/312 211/316/313 60/317/314 62/318/315
f 213/319/316 212/320/317 62/321/318 126/322/319
f 215/324/320 214/325/321 303/604/322 6/323/323 7/326/324
f 216/327/325 215/328/326 7/329/327 8/330/328
f 217/331/329 216/332/330 8/333/331 9/334/332
f 218/335/333 217/336/334 9/337/335 10/338/336
f 219/339/337 218/340/338 10/341/339 11/342/340
f 220/343/341 219/344/342 11/345/343 12/346/344
f 221/347/345 220/348/346 12/349/347 13/350/348
f 222/351/349 221/352/350 13/353/351 14/354/352
f 223/355/353 222/356/354 14/357/355 15/358/356
f 224/359/357 223/360/358 15/361/359 16/362/360
f 225/363/361 224/364/362 16/365/363 17/366/364
f 226/367/365 225/368/366 17/369/367 18/370/368
f 227/371/369 226/372/370 18/373/371 19/374/372
f 228/376/373 227/375/374 19/377/375 20/378/376
f 229/379/377 228/380/378 20/381/379 21/382/380
f 230/383/381 229/384/382 21/385/383 22/386/384
f 231/387/385 230/388/386 22/389/387 23/390/388
f 232/391/389 231/392/390 23/393/391 24/394/392
f 233/395/393 232/396/394 24/397/395 25/398/396
f 234/399/397 233/400/398 25/401/399 26/402/400
f 235/403/401 234/404/402 26/405/403 27/406/404
f 236/407/405 235/408/406 27/409/407 28/410/408
f 237/411/409 236/412/410 28/413/411 29/414/412
f 238/415/413 237/416/414 29/417/415 30/418/416
f 239/419/417 238/420/418 30/421/419 31/422/420
f 240/423/421 239/424/422 31/425/423 32/426/424
f 241/427/425 240/428/426 32/429/427 33/430/428
f 242/431/429 241/432/430 33/433/431 34/434/432
f 243/435/433 242/436/434 34/437/435 35/438/436
f 244/439/437 243/440/438 35/441/439 36/442/440
f 245/443/441 244/444/442 36/445/443 37/446/444
f 246/447/445 245/448/446 37/449/447 38/450/448
f 247/451/449 246/452/450 38/453/451 39/454/452
f 248/455/453 247/456/454 39/457/455 40/458/456
f 249/459/457 248/460/458 40/461/459 41/462/460
f 250/463/461 249/464/462 41/465/463 42/466/464
f 251/467/465 250/468/466 42/469/467 43/470/468
f 252/471/469 251/472/470 43/473/471 52/474/472
f 253/475/473 252/476/474 52/477/475 44/478/476
f 254/479/477 253/480/478 44/481/479 45/482/480
f 127/483/481 254/484/482 45/485/483 1/486/484
f 175/178/485 166/150/486 167/154/487 174/174/488
s 3
f 95/176/489 92/188/490 93/184/491 94/180/492
s 4
f 111/137/493 96/144/494 108/140/495
s 5
f 258/494/496 69/283/497 65/279/498
s 3
f 92/188/490 255/488/499 74/196/500 89/192/501
f 99/165/502 255/488/499 92/188/490 102/168/503
s 1
f 181/198/504 256/490/195 255/487/194 75/200/505
s 7
f 257/491/506 256/489/507 181/202/508 198/265/509
s 2
f 258/493/263 257/492/262 198/265/510 73/266/511
s 5
f 104/157/512 88/205/513 98/164/514 105/160/515
s 4
f 97/148/516 103/156/517 101/152/518
f 97/148/516 96/144/494 111/137/493 103/156/517
s 5
f 115/96/519 106/128/520 109/124/521 117/100/522
f 50/36/523 266/502/524 120/44/525 51/40/526
f 260/496/527 259/495/528 123/28/529 122/24/530
f 115/96/519 267/503/531 264/500/532 270/506/533
f 47/56/534 46/52/535 54/64/536 53/60/537
f 266/502/524 265/501/538 121/48/539 120/44/525
f 114/92/540 268/504/541 267/503/531 115/96/519
f 82/228/542 270/506/533 269/505/543 83/232/544
s off
f 272/507/545 271/508/546 269/509/547 270/510/548
f 273/511/549 272/512/550 270/513/551 264/514/552
f 274/515/553 273/516/554 264/517/555 267/518/556
f 275/519/557 274/520/558 267/521/559 268/522/560
f 276/523/561 275/524/562 268/525/563 263/526/564
f 277/527/565 276/528/566 263/529/567 265/530/568
f 278/531/569 277/532/570 265/533/571 266/534/572
f 279/535/573 278/536/574 266/537/575 262/538/576
f 280/539/577 279/540/578 262/541/579 259/542/580
f 281/543/581 280/544/582 259/545/583 260/546/584
f 282/547/585 281/548/586 260/549/587 261/550/588
f 271/551/589 282/552/590 261/553/591 269/554/592
f 272/512/593 273/516/594 282/552/595 271/508/596
s 5
f 124/17/597 260/496/527 122/24/530 125/20/598
f 68/287/599 285/557/600 48/303/601 61/299/602
f 73/263/603 286/558/604 69/283/497 258/494/496
f 69/283/497 286/558/604 285/557/600 68/287/599
f 288/560/605 287/559/606 60/314/607 59/310/608
f 76/240/609 290/562/610 289/561/611 77/244/612
s off
f 293/564/613 292/565/614 291/566/615
f 294/567/616 293/568/617 291/569/618 287/570/619
f 295/571/620 294/572/621 287/573/622 288/574/623
f 296/575/624 295/576/625 288/577/626 283/578/627
f 297/579/628 296/580/629 283/581/630 285/582/631
f 298/583/632 297/584/633 285/585/634 286/586/635
f 299/587/636 298/588/637 286/589/638 284/590/639
f 300/591/640 299/592/641 284/593/642 289/594/643
f 301/595/644 300/596/645 289/597/646 290/598/647
f 292/565/648 299/592/649 300/596/650 301/600/651
s 5
f 115/96/519 270/506/533 82/228/542 106/128/520
s 17
f 170/162/652 167/154/653 168/153/654 169/159/655
f 173/170/656 170/162/652 171/161/657 172/167/658
f 174/174/659 167/154/653 170/162/652 173/170/656
s 18
f 215/328/660 208/305/661 209/308/662 212/320/663
s 7
f 234/404/664 175/178/665 176/182/666 233/400/667
f 236/412/668 165/146/669 166/150/670 235/408/671
f 136/34/672 129/10/673 130/14/674 133/22/675
f 236/412/668 157/118/676 158/122/677 165/146/669
f 164/142/678 161/134/679 162/133/680 163/139/681
f 165/146/669 158/122/677 159/126/682 164/142/678
f 164/142/678 159/126/682 160/130/683 161/134/679
s off
f 184/210/684 181/202/685 182/201/686 183/207/687
f 194/250/688 191/238/689 192/242/690 193/246/691
s 7
f 198/265/509 181/202/508 184/210/692 197/261/693
s off
f 191/238/694 188/226/695 189/230/696 190/234/697
s 23
f 196/257/698 185/214/699 186/218/700 187/222/701
s off
f 195/253/702 188/226/703 191/238/704 194/250/705
s 24
f 299/592/706 296/580/707 297/584/708 298/588/709
f 293/568/710 294/572/711 295/576/712 296/580/707
f 293/568/710 296/580/707 299/592/706 292/565/713
s off
f 212/320/714 209/308/715 210/312/716 211/316/717
s 18
f 215/328/660 212/320/663 213/319/718 214/325/719
s 7
f 133/22/675 130/14/674 131/13/720 132/19/721
s off
f 136/34/722 133/22/723 134/26/724 135/30/725
s 7
f 128/6/726 137/38/727 254/484/728 127/2/729
s off
f 282/552/730 279/540/731 280/544/732 281/548/733
s 25
f 279/540/734 276/528/735 277/532/736 278/536/737
f 276/528/735 273/516/738 274/520/739 275/524/740
f 282/552/741 273/516/738 276/528/735 279/540/734
s 7
f 128/6/726 129/10/673 136/34/672 137/38/727
s off
f 141/54/742 138/42/743 139/46/744 140/50/745
s 7
f 254/484/728 137/38/727 138/42/746 253/480/747
f 252/476/748 143/62/749 250/468/750 251/472/751
f 253/480/747 138/42/746 141/54/752 142/58/753
f 253/480/747 142/58/753 143/62/749 252/476/748
f 250/468/750 143/62/749 144/66/754 249/464/755
f 249/464/755 144/66/754 145/70/756 248/460/757
f 248/460/757 145/70/756 146/74/758 247/456/759
f 247/456/759 146/74/758 147/78/760 246/452/761
f 246/452/761 147/78/760 148/82/762 245/448/763
f 245/448/763 148/82/762 149/86/764 244/444/765
s off
f 153/102/766 150/90/767 151/94/768 152/98/769
s 7
f 244/444/765 149/86/764 150/90/770 243/440/771
f 239/424/772 156/114/773 237/416/774 238/420/775
f 243/440/771 150/90/770 153/102/776 154/106/777
s off
f 116/104/778 154/101/779 153/102/780 117/103/781
s 7
f 243/440/771 154/106/777 155/110/782 242/436/783
f 242/436/783 155/110/782 240/428/784 241/432/785
f 240/428/784 155/110/782 156/114/773 239/424/772
f 237/416/774 156/114/773 157/118/676 236/412/668
f 233/400/667 176/182/666 177/186/786 232/396/787
f 232/396/787 177/186/786 178/190/788 231/392/789
f 229/384/790 230/388/791 179/194/792 228/380/793
s 18
f 223/360/794 200/273/795 201/277/796 222/356/797
s 7
f 199/269/798 180/197/799 256/489/507 257/491/506
f 227/375/800 180/197/799 199/269/798 226/372/801
s 18
f 226/372/802 199/269/803 200/273/795 225/368/804
f 225/368/804 200/273/795 223/360/794 224/364/805
f 218/340/806 207/301/807 216/332/808 217/336/809
f 205/293/810 202/281/811 203/285/812 204/289/813
f 222/356/797 201/277/796 202/281/811 205/293/810
f 222/356/797 205/293/810 206/297/814 221/352/815
f 221/352/815 206/297/814 219/344/816 220/348/817
f 219/344/816 206/297/814 207/301/807 218/340/806
f 216/332/808 207/301/807 208/305/661 215/328/660
s 3
f 102/168/503 92/188/490 95/176/489 100/172/818
f 75/200/819 255/488/499 99/165/502 87/204/820
s 5
f 258/494/496 65/279/498 64/275/821 70/267/822
f 70/267/822 64/275/821 67/271/823
f 85/259/824 284/556/825 286/558/604 73/263/603
f 85/259/824 77/244/612 289/561/611 284/556/825
f 68/287/599 61/299/602 63/295/826 66/291/827
f 48/303/601 285/557/600 288/560/605 59/310/608
f 288/560/605 285/557/600 283/555/828
s 7
f 179/194/792 230/388/791 231/392/789 178/190/788
f 228/380/793 179/194/792 180/197/799 227/375/800
f 235/408/671 166/150/670 175/178/665 234/404/664
s off
f 182/201/829 87/204/830 88/205/831 183/207/832
f 171/161/833 98/164/834 99/165/835 172/167/836
f 168/153/837 103/156/838 104/157/839 169/159/840
f 162/133/841 110/136/842 111/137/843 163/139/844
s 5
f 107/132/845 72/220/846 71/216/847 110/136/848
f 104/157/512 78/212/849 86/208/850 88/205/513
f 110/136/848 71/216/847 78/212/849 104/157/512
f 72/220/846 82/228/542 81/224/851
f 106/128/520 82/228/542 72/220/846 107/132/845
f 117/100/522 109/124/521 91/120/852 116/104/853
f 116/104/853 112/112/854 113/108/855
f 116/104/853 91/120/852 90/116/856 112/112/854
f 85/259/824 80/255/857 79/248/858 77/244/612
s 23
f 196/257/698 187/222/701 188/226/859 195/253/860
f 197/261/861 184/210/862 185/214/699 196/257/698
s 5
f 287/559/606 126/322/863 62/318/864 60/314/607
f 291/563/865 261/497/866 260/496/527 287/559/606
f 287/559/606 260/496/527 124/17/597 126/322/863
f 290/562/610 269/505/543 261/497/866 291/563/865
s off
f 292/599/867 301/600/868 290/601/869 291/602/870
s 5
f 83/232/544 290/562/610 76/240/609 84/236/871
f 83/232/544 269/505/543 290/562/610
f 262/498/872 266/502/524 123/28/529 259/495/528
f 123/28/529 266/502/524 50/36/523 49/32/873
f 114/92/540 265/501/538 263/499/874 268/504/541
f 54/64/536 46/52/535 121/48/539 55/68/875
f 55/68/875 121/48/539 58/80/876
f 55/68/875 58/80/876 57/76/877 56/72/878
f 58/80/876 114/92/540 118/88/879 119/84/880
f 58/80/876 121/48/539 265/501/538 114/92/540
s off
f 87/204/881 99/165/882 98/164/883 88/205/884
f 103/156/885 111/137/886 110/136/887 104/157/888
f 303/604/889 302/603/890 5/16/891 6/323/892
f 126/322/893 124/17/894 302/603/895 303/604/896
f 214/325/897 213/319/898 126/322/899 303/604/900
f 131/13/901 302/603/902 124/17/903 132/19/904
f 304/605/905 305/606/906 307/607/907 306/608/908
f 306/608/909 307/607/910 365/609/911 360/610/912
f 362/611/913 363/612/914 305/613/915 304/614/916
f 323/615/917 361/616/918 308/617/919 309/618/920
f 361/616/921 362/619/922 304/605/923 308/617/924
f 304/605/925 306/608/926 309/618/927 308/617/928
f 366/620/929 367/621/930 323/615/931 309/618/932
f 305/606/933 363/622/934 364/623/935 310/624/936
f 338/625/937 371/626/938 372/627/939 311/628/940
f 307/607/941 305/606/942 310/624/943 311/628/944
f 312/629/945 313/630/946 354/631/947
f 313/630/948 314/632/949 359/633/950 354/631/951
f 314/634/952 315/635/953 358/636/954 359/637/955
f 318/638/956 319/639/957 342/640/958
f 319/639/959 320/641/960 347/642/961 342/640/962
f 320/643/963 321/644/964 346/645/965 347/646/966
f 350/647/967 351/648/968 321/644/969 320/643/970
f 349/649/971 350/650/972 320/641/973 319/639/974
f 330/651/975 349/649/976 319/639/977 318/652/978
f 318/653/979 369/654/980 370/655/981 330/656/982
f 316/657/983 357/658/984 332/659/985
f 334/660/986 345/661/987 333/662/988
f 345/661/989 346/663/990 321/664/991 333/662/992
f 333/662/993 321/664/994 351/665/995 352/666/996
f 357/658/997 358/667/998 315/668/999 332/659/1000
f 336/669/1001 374/670/1002 373/671/1003 334/660/1004
f 317/672/1005 340/673/1006 353/674/1007 348/675/1008
f 318/638/1009 342/640/1010 324/676/1011 323/677/1012
f 323/615/1013 367/621/1014 369/654/1015 318/653/1016
f 322/678/1017 339/679/1018 344/680/1019 343/681/1020
f 334/660/1021 373/671/1022 371/626/1023 338/625/1024
f 337/682/1025 326/683/1026 346/663/1027 345/661/1028
f 347/646/1029 346/645/1030 326/684/1031 325/685/1032
f 342/640/1033 347/642/1034 325/686/1035 324/676/1036
f 330/651/1037 329/687/1038 349/649/1039
f 329/687/1040 328/688/1041 350/650/1042 349/649/1043
f 328/689/1044 327/690/1045 351/648/1046 350/647/1047
f 352/666/1048 351/665/1049 327/691/1050 335/692/1051
f 336/669/1052 352/666/1053 335/692/1054
f 312/629/1055 354/631/1056 329/687/1057 330/693/1058
f 330/656/1059 370/655/1060 368/694/1061 312/629/1062
f 331/695/1063 341/696/1064 356/697/1065 355/698/1066
f 316/657/1067 375/699/1068 374/670/1069 336/669/1070
f 335/692/1071 327/691/1072 358/667/1073 357/658/1074
f 359/637/1075 358/636/1076 327/690/1077 328/689/1078
f 354/631/1079 359/633/1080 328/688/1081 329/687/1082
f 323/615/1083 324/676/1084 361/616/1085
f 324/676/1086 325/686/1087 362/619/1088 361/616/1089
f 325/685/1090 326/684/1091 363/612/1092 362/611/1093
f 364/623/1094 363/622/1095 326/683/1096 337/682/1097
f 338/700/1098 364/623/1099 337/682/1100
f 306/608/1101 360/701/1102 367/621/1103 366/620/1104
f 309/618/1105 306/608/1106 366/620/1107
f 343/681/1108 317/672/1109 369/702/1110
f 317/703/1111 348/704/1112 370/705/1113 369/706/1114
f 322/707/1115 343/708/1116 369/706/1117 367/709/1118
f 348/675/1119 331/695/1120 370/710/1121
f 331/711/1122 355/712/1123 368/694/1124 370/713/1125
f 360/610/1126 322/678/1127 367/714/1128
f 365/715/1129 307/716/1130 372/717/1131 371/718/1132
f 307/719/1133 311/720/1134 372/721/1135
f 338/722/1136 311/628/1137 310/624/1138 364/623/1139
f 340/673/1140 344/680/1141 373/723/1142
f 353/724/1143 340/725/1144 373/726/1145 374/727/1146
f 336/669/1147 334/660/1148 333/662/1149 352/666/1150
f 344/728/1151 339/729/1152 371/730/1153 373/731/1154
f 334/732/1155 338/700/1156 337/682/1157 345/661/1158
f 341/696/1159 353/674/1160 374/733/1161
f 356/734/1162 341/696/1163 374/733/1164 375/735/1165
f 316/736/1166 336/669/1167 335/692/1168 357/658/1169
f 339/679/1170 365/609/1171 371/730/1172
f 341/696/1173 331/695/1174 348/675/1175 353/674/1176
f 340/673/1177 317/672/1178 343/681/1179 344/680/1180
f 339/679/1181 322/678/1182 360/610/1183 365/609/1184
f 332/659/1185 315/668/1186 356/737/1187
f 355/738/1188 313/630/1189 312/629/1190 368/694/1191
f 315/635/1192 314/634/1193 355/698/1194 356/697/1195
f 314/632/1196 313/630/1197 355/738/1198
f 332/659/1199 356/737/1200 375/699/1201 316/657/1202
