# Blender 5.0.1
# www.blender.org
mtllib item_monkey.mtl
o Icosphere
v 0.648400 2.179492 0.676716
v -0.015631 2.181211 0.943024
v -0.692826 2.182729 0.661445
v -0.612475 2.189040 -0.177769
v 0.639759 2.189040 -0.177769
v 0.000000 -0.728722 1.000000
v 0.000000 -0.728722 -0.389671
v 0.000000 2.161075 -0.209697
v 1.000000 -0.728722 1.000000
v 1.000000 -0.728722 -0.389671
v 0.000000 -0.728722 0.901096
v 1.000000 -0.728722 0.901096
v 1.000000 -0.728722 0.474798
v 0.000000 -0.728722 0.474798
v 0.000000 -0.348012 1.000000
v 0.000000 -0.348012 -0.389671
v 1.000000 -0.348012 -0.389671
v 1.000000 -0.348012 1.000000
v 1.000000 -0.348012 0.901096
v 0.000000 -0.348012 0.901096
v 1.000000 -0.348012 0.474798
v 0.000000 -0.348012 0.474798
v 0.971090 -0.811586 3.196594
v 0.548967 -0.829269 3.139765
v 1.750446 -0.287376 1.581361
v 2.188112 -0.283120 1.650389
v 1.751880 0.036905 1.701674
v 2.165369 0.016387 1.803337
v 1.726269 0.024918 1.187699
v 1.726269 0.024918 1.613997
v 1.726269 -0.312150 1.187699
v 0.950900 -0.922424 3.331836
v 0.528777 -0.940108 3.275007
v 0.973499 -1.023940 3.282125
v 0.551377 -1.030340 3.225297
v 0.915392 -1.014984 3.842059
v 0.479311 -1.016973 3.783351
v 0.915392 -1.052803 3.842059
v 0.479311 -1.054793 3.783351
v -1.000000 -0.728722 1.000000
v -1.000000 -0.728722 -0.389671
v -1.000000 -0.728722 0.901096
v -1.000000 -0.728722 0.474798
v -1.000000 -0.348012 -0.389671
v -1.000000 -0.348012 1.000000
v -1.000000 -0.348012 0.901096
v -1.000000 -0.348012 0.474798
v -0.971090 -0.811586 3.196594
v -0.548967 -0.829269 3.139765
v -1.750446 -0.287376 1.581361
v -2.188112 -0.283120 1.650389
v -1.751880 0.036905 1.701674
v -2.165369 0.016387 1.803337
v -1.726269 0.024918 1.187699
v -1.726269 0.024918 1.613997
v -1.726269 -0.312150 1.187699
v -0.950900 -0.922424 3.331836
v -0.528777 -0.940108 3.275007
v -0.973499 -1.023940 3.282125
v -0.551377 -1.030340 3.225297
v -0.915392 -1.014984 3.842059
v -0.479311 -1.016973 3.783351
v -0.915392 -1.052803 3.842059
v -0.479311 -1.054793 3.783351
v 0.000000 4.336467 0.290449
v 0.000000 2.996232 -0.709551
v 0.181636 4.270871 0.040449
v 0.345491 4.080504 -0.185079
v 0.475528 3.784002 -0.364059
v 0.559017 3.410387 -0.478972
v 0.587785 2.996232 -0.518568
v 0.559017 2.582077 -0.478972
v 0.345491 1.911959 -0.185079
v 0.293893 4.270871 0.194958
v 0.559017 4.080504 0.108814
v 0.769421 3.784002 0.040449
v 0.904509 3.410387 -0.003443
v 0.951057 2.996232 -0.018568
v 0.904509 2.582077 -0.003443
v 0.559017 1.911959 0.108814
v 0.293893 4.270871 0.385941
v 0.559017 4.080504 0.472085
v 0.769421 3.784002 0.540449
v 0.904509 3.410387 0.584342
v 0.951057 2.996232 0.599466
v 0.904509 2.582077 0.584342
v 0.559017 1.911959 0.472085
v 0.181636 4.270871 0.540449
v 0.345492 4.080504 0.765978
v 0.475528 3.784002 0.944958
v 0.559017 3.410387 1.059870
v 0.587785 2.996232 1.099467
v 0.559017 2.582077 1.059870
v 0.345492 1.911959 0.765978
v 0.000000 4.270871 0.599466
v 0.000000 4.080504 0.878235
v 0.000000 3.784002 1.099466
v 0.000000 3.410387 1.241506
v 0.000000 2.582077 1.241506
v 0.000000 2.206850 1.195917
v 0.000000 1.911959 0.878235
v -0.181636 4.270871 0.540449
v -0.345491 4.080504 0.765978
v -0.475528 3.784002 0.944958
v -0.559017 3.410387 1.059870
v -0.587785 2.996232 1.099467
v -0.559017 2.582077 1.059870
v -0.345491 1.911959 0.765978
v -0.293893 4.270871 0.385941
v -0.559017 4.080504 0.472085
v -0.769421 3.784002 0.540450
v -0.904508 3.410387 0.584342
v -0.951057 2.996232 0.599467
v -0.904508 2.582077 0.584342
v -0.559017 1.911959 0.472085
v -0.293893 4.270871 0.194958
v -0.559017 4.080504 0.108814
v -0.769421 3.784002 0.040450
v -0.904509 3.410387 -0.003443
v -0.951057 2.996232 -0.018568
v -0.904509 2.582077 -0.003443
v -0.559017 1.911959 0.108814
v -0.181636 4.270871 0.040449
v -0.345492 4.080504 -0.185079
v -0.475528 3.784002 -0.364059
v -0.559017 3.410387 -0.478971
v -0.587785 2.996232 -0.518568
v -0.559017 2.582077 -0.478971
v -0.345492 1.911959 -0.185079
v -0.000000 4.270871 -0.018568
v -0.000000 4.080504 -0.297336
v -0.000000 3.784002 -0.518568
v -0.000000 3.410387 -0.660607
v -0.000000 2.582077 -0.660607
v -0.000000 2.208462 -0.518568
v -0.000000 1.911959 -0.297336
v 0.000000 3.600334 1.244142
v 0.393570 3.755704 1.123719
v 0.556592 3.365468 1.244142
v 0.480743 2.475137 1.244142
v -0.480743 2.475137 1.244142
v -0.556592 3.365468 1.244142
v -0.393570 3.755704 1.123719
v 0.266735 3.043515 1.244142
v -0.266735 3.043515 1.244142
vn 0.0181 0.0787 -0.9967
vn 0.9905 0.1378 -0.0000
vn 0.1575 0.0854 0.9838
vn -0.0000 -1.0000 -0.0000
vn 0.9902 0.1395 -0.0042
vn -1.0000 -0.0000 -0.0000
vn 1.0000 -0.0000 -0.0000
vn 0.7533 0.1790 -0.6328
vn -0.0000 -0.0000 1.0000
vn -0.0000 -0.0000 -1.0000
vn -0.0839 0.8848 0.4584
vn 0.8274 -0.2043 0.5231
vn -0.9508 -0.1041 0.2919
vn -0.8097 0.0766 -0.5819
vn -0.4568 0.8896 -0.0000
vn 0.0301 0.9992 -0.0248
vn 0.6554 0.2886 0.6980
vn -0.8107 -0.0016 -0.5854
vn 0.4940 -0.8694 0.0117
vn -0.6679 -0.0582 0.7420
vn 0.7005 -0.0000 -0.7136
vn -0.0002 -0.9980 0.0628
vn 0.0159 -0.9988 -0.0458
vn -0.8248 0.1000 -0.5565
vn -0.1159 0.7766 0.6192
vn -0.1334 -0.0000 0.9911
vn -0.0442 0.9861 0.1603
vn -0.9843 -0.1255 -0.1241
vn 0.9872 0.1243 0.1005
vn 0.0658 -0.9263 -0.3711
vn -0.0184 0.0788 -0.9967
vn -0.9927 0.1205 -0.0000
vn -0.1649 0.0863 0.9825
vn -0.9892 0.1392 -0.0461
vn -0.7533 0.1790 -0.6328
vn 0.0839 0.8848 0.4584
vn -0.8274 -0.2043 0.5231
vn 0.9508 -0.1041 0.2919
vn 0.8097 0.0766 -0.5819
vn 0.4568 0.8896 -0.0000
vn -0.0301 0.9992 -0.0248
vn -0.6554 0.2886 0.6980
vn 0.8107 -0.0016 -0.5854
vn -0.4940 -0.8694 0.0117
vn 0.6679 -0.0582 0.7420
vn -0.7005 -0.0000 -0.7136
vn 0.0002 -0.9980 0.0628
vn -0.0159 -0.9988 -0.0458
vn 0.8248 0.1000 -0.5565
vn 0.1159 0.7766 0.6192
vn 0.1334 -0.0000 0.9911
vn 0.0442 0.9861 0.1603
vn 0.9843 -0.1255 -0.1241
vn -0.9872 0.1243 0.1005
vn -0.0658 -0.9263 -0.3711
vn 0.1802 0.8123 -0.5547
vn 0.3071 -0.1117 -0.9451
vn 0.2520 0.5787 -0.7756
vn 0.3527 -0.4402 -0.8257
vn 0.2906 0.3400 -0.8944
vn 0.0673 0.9760 -0.2072
vn 0.3582 -0.4820 -0.7996
vn 0.3071 0.1117 -0.9451
vn 0.8040 -0.1117 -0.5841
vn 0.6598 0.5787 -0.4794
vn 0.7782 -0.2734 -0.5654
vn 0.7608 0.3400 -0.5528
vn 0.1762 0.9760 -0.1280
vn 0.6183 -0.6448 -0.4493
vn 0.8040 0.1117 -0.5841
vn 0.4719 0.8123 -0.3428
vn 0.9937 0.1117 -0.0000
vn 0.5832 0.8123 -0.0000
vn 0.9937 -0.1117 -0.0000
vn 0.8155 0.5787 -0.0000
vn 0.8370 -0.5471 -0.0086
vn 0.9404 0.3400 -0.0000
vn 0.2178 0.9760 -0.0000
vn 0.9541 -0.2994 -0.0091
vn 0.1762 0.9760 0.1280
vn 0.6566 -0.5842 0.4770
vn 0.8040 0.1117 0.5841
vn 0.4719 0.8123 0.3428
vn 0.8040 -0.1117 0.5841
vn 0.6598 0.5787 0.4794
vn 0.7563 -0.3551 0.5495
vn 0.7608 0.3400 0.5528
vn 0.2906 0.3400 0.8944
vn 0.0673 0.9760 0.2072
vn 0.4436 -0.5319 0.7213
vn 0.1802 0.8123 0.5547
vn 0.2520 0.5787 0.7756
vn 0.4559 -0.3889 0.8006
vn -0.4531 -0.3831 0.8049
vn -0.2906 0.3400 0.8944
vn -0.0673 0.9760 0.2072
vn -0.4362 -0.5393 0.7204
vn -0.1802 0.8123 0.5547
vn -0.2520 0.5787 0.7756
vn -0.8040 -0.1117 0.5841
vn -0.6598 0.5787 0.4794
vn -0.7716 -0.3008 0.5606
vn -0.7608 0.3400 0.5528
vn -0.1762 0.9760 0.1280
vn -0.6284 -0.6298 0.4566
vn -0.8040 0.1117 0.5841
vn -0.4719 0.8123 0.3428
vn -0.5832 0.8123 -0.0000
vn -0.9937 -0.1117 -0.0000
vn -0.8155 0.5787 -0.0000
vn -0.8456 -0.5314 -0.0500
vn -0.9404 0.3400 -0.0000
vn -0.2178 0.9760 -0.0000
vn -0.9407 -0.3330 -0.0646
vn -0.9937 0.1117 -0.0000
vn -0.8040 0.1117 -0.5841
vn -0.4719 0.8123 -0.3428
vn -0.8040 -0.1117 -0.5841
vn -0.6598 0.5787 -0.4794
vn -0.7659 -0.3223 -0.5564
vn -0.7608 0.3400 -0.5528
vn -0.1762 0.9760 -0.1280
vn -0.6429 -0.6071 -0.4671
vn -0.0673 0.9760 -0.2072
vn -0.3694 -0.4708 -0.8012
vn -0.3071 0.1117 -0.9451
vn -0.1802 0.8123 -0.5547
vn -0.3071 -0.1117 -0.9451
vn -0.2520 0.5787 -0.7756
vn -0.3578 -0.4486 -0.8190
vn -0.2906 0.3400 -0.8944
vn 0.0259 0.8331 0.5525
vn 0.8848 0.3720 0.2807
vn 0.6257 0.0867 0.7753
vn -0.6963 -0.2101 0.6863
vn -0.8848 0.3720 0.2807
vn -0.0259 0.8331 0.5525
vn 0.6963 -0.2101 0.6863
vn -0.6257 0.0867 0.7753
vn -0.0030 -0.9988 0.0489
vn 0.5621 -0.6537 0.5067
vn -0.5586 -0.6418 0.5254
vn -0.0654 0.1550 0.9857
vn 0.0654 0.1550 0.9857
vn 0.0826 -0.0311 0.9961
vn -0.0826 -0.0311 0.9961
vn -0.0000 -0.0575 0.9983
vt 0.426564 0.250000
vt 0.625000 0.250000
vt 0.625000 0.500000
vt 0.426564 0.500000
vt 0.426564 0.737637
vt 0.625000 0.750000
vt 0.426564 0.750000
vt 0.625000 1.000000
vt 0.426564 1.000000
vt 0.125000 0.737637
vt 0.375000 0.737637
vt 0.375000 0.750000
vt 0.125000 0.750000
vt 0.125000 0.684350
vt 0.375000 0.684350
vt 0.426564 0.684350
vt 0.625000 0.737637
vt 0.625000 0.684350
vt 0.125000 0.500000
vt 0.375000 0.500000
vt 0.399906 0.012363
vt 0.426564 0.012363
vt 0.426564 0.065650
vt 0.399906 0.065650
vt 0.399906 0.500000
vt 0.399906 0.684350
vt 0.399906 0.000000
vt 0.426564 0.000000
vt 0.399906 0.750000
vt 0.399906 1.000000
vt 0.399906 0.737637
vt 0.399906 0.250000
vt 0.000000 0.000000
vt 0.700000 0.800000
vt 0.700000 0.900000
vt 0.600000 0.900000
vt 0.600000 0.800000
vt 0.700000 0.400000
vt 0.700000 0.500000
vt 0.600000 0.500000
vt 0.600000 0.400000
vt 0.700000 0.700000
vt 0.600000 0.700000
vt 0.700000 0.300000
vt 0.600000 0.300000
vt 0.700000 0.600000
vt 0.600000 0.600000
vt 0.650000 1.000000
vt 0.700000 0.200000
vt 0.600000 0.200000
vt 0.500000 0.500000
vt 0.500000 0.400000
vt 0.500000 0.800000
vt 0.500000 0.700000
vt 0.500000 0.600000
vt 0.550000 1.000000
vt 0.500000 0.900000
vt 0.500000 0.300000
vt 0.500000 0.200000
vt 0.400000 0.600000
vt 0.400000 0.500000
vt 0.400000 0.900000
vt 0.400000 0.800000
vt 0.400000 0.400000
vt 0.400000 0.700000
vt 0.400000 0.300000
vt 0.450000 1.000000
vt 0.400000 0.200000
vt 0.350000 1.000000
vt 0.300000 0.900000
vt 0.300000 0.300000
vt 0.300000 0.200000
vt 0.300000 0.600000
vt 0.300000 0.500000
vt 0.300000 0.800000
vt 0.300000 0.400000
vt 0.300000 0.700000
vt 0.200000 0.700000
vt 0.200000 0.600000
vt 0.250000 1.000000
vt 0.200000 0.900000
vt 0.200000 0.300000
vt 0.200000 0.200000
vt 0.200000 0.800000
vt 0.200000 0.400000
vt 0.100000 0.400000
vt 0.100000 0.300000
vt 0.100000 0.700000
vt 0.100000 0.600000
vt 0.150000 1.000000
vt 0.100000 0.900000
vt 0.100000 0.200000
vt 0.100000 0.800000
vt 0.100000 0.500000
vt 0.000000 0.500000
vt 0.000000 0.400000
vt 0.000000 0.800000
vt 0.000000 0.700000
vt 0.000000 0.600000
vt 0.050000 1.000000
vt 0.000000 0.900000
vt 0.000000 0.300000
vt 0.000000 0.200000
vt 1.000000 0.800000
vt 1.000000 0.900000
vt 0.900000 0.900000
vt 0.900000 0.800000
vt 1.000000 0.400000
vt 1.000000 0.500000
vt 0.900000 0.500000
vt 0.900000 0.400000
vt 1.000000 0.700000
vt 0.900000 0.700000
vt 1.000000 0.300000
vt 0.900000 0.300000
vt 1.000000 0.600000
vt 0.900000 0.600000
vt 0.950000 1.000000
vt 1.000000 0.200000
vt 0.900000 0.200000
vt 0.800000 0.600000
vt 0.800000 0.500000
vt 0.800000 0.900000
vt 0.800000 0.800000
vt 0.800000 0.400000
vt 0.800000 0.700000
vt 0.850000 1.000000
vt 0.800000 0.300000
vt 0.800000 0.200000
vt 0.750000 1.000000
vt 1.000000 0.500000
vt 1.000000 1.000000
vt 0.875000 1.000000
vt 0.875000 0.500000
vt 0.750000 0.500000
vt 0.687500 0.500000
vt 0.687500 1.000000
vt 0.312500 0.500000
vt 0.312500 1.000000
vt 0.250000 0.500000
vt 0.125000 1.000000
vt 0.000000 1.000000
vt 0.375000 1.000000
vt 0.457638 1.000000
vt 0.457638 0.500000
vt 0.542362 0.500000
vt 0.542362 1.000000
s 0
f 16/1/1 8/2/1 5/3/1 17/4/1
f 19/5/2 1/6/2 18/7/2
f 18/7/3 1/6/3 2/8/3 15/9/3
f 11/10/4 12/11/4 9/12/4 6/13/4
f 14/14/4 13/15/4 12/11/4 11/10/4
f 21/16/2 1/17/2 19/5/2
f 17/4/5 5/3/5 1/18/5 21/16/5
f 7/19/4 10/20/4 13/15/4 14/14/4
f 11/21/6 20/22/6 22/23/6 14/24/6
f 10/25/7 17/4/7 21/16/7 13/26/7
f 6/27/6 15/28/6 20/22/6 11/21/6
f 31/26/8 29/16/8 28/16/8 26/26/8
f 9/29/9 18/7/9 15/9/9 6/30/9
f 12/31/7 19/5/7 18/7/7 9/29/7
f 7/32/10 16/1/10 17/4/10 10/25/10
f 14/24/6 22/23/6 16/1/6 7/32/6
f 28/16/11 27/5/11 24/5/11 23/16/11
f 28/16/12 34/33/12 26/26/12
f 30/5/13 25/31/13 27/5/13
f 30/33/14 33/33/14 24/33/14 27/33/14
f 21/16/15 19/5/15 30/5/15 29/16/15
f 29/16/16 30/5/16 27/5/16 28/16/16
f 28/16/17 23/16/17 32/16/17 34/33/17
f 33/33/18 30/33/18 25/33/18
f 12/31/19 13/26/19 31/26/19 25/31/19
f 19/5/20 12/31/20 25/31/20 30/5/20
f 13/26/21 21/16/21 29/16/21 31/26/21
f 25/31/22 31/26/22 26/26/22
f 35/31/23 34/26/23 38/26/23 39/31/23
f 33/5/24 25/33/24 35/31/24
f 23/16/25 24/5/25 33/5/25 32/16/25
f 39/31/26 38/26/26 36/16/26 37/5/26
f 32/16/27 33/5/27 37/5/27 36/16/27
f 33/5/28 35/31/28 39/31/28 37/5/28
f 34/26/29 32/16/29 36/16/29 38/26/29
f 34/26/30 35/31/30 25/33/30 26/26/30
f 16/1/31 44/4/31 4/3/31 8/2/31
f 46/5/32 45/7/32 3/17/32
f 45/7/33 15/9/33 2/8/33 3/6/33
f 11/10/4 6/13/4 40/12/4 42/11/4
f 14/14/4 11/10/4 42/11/4 43/15/4
f 47/16/32 46/5/32 3/18/32
f 44/4/34 47/16/34 3/18/34 4/3/34
f 7/19/4 14/14/4 43/15/4 41/20/4
f 41/25/6 43/26/6 47/16/6 44/4/6
f 56/26/35 51/26/35 53/16/35 54/16/35
f 40/29/9 6/30/9 15/9/9 45/7/9
f 42/31/6 40/29/6 45/7/6 46/5/6
f 7/32/10 41/25/10 44/4/10 16/1/10
f 53/16/36 48/16/36 49/5/36 52/5/36
f 53/16/37 51/26/37 59/33/37
f 55/5/38 52/5/38 50/31/38
f 55/33/39 52/33/39 49/33/39 58/33/39
f 47/16/40 54/16/40 55/5/40 46/5/40
f 54/16/41 53/16/41 52/5/41 55/5/41
f 53/16/42 59/33/42 57/16/42 48/16/42
f 58/33/43 50/33/43 55/33/43
f 42/31/44 50/31/44 56/26/44 43/26/44
f 46/5/45 55/5/45 50/31/45 42/31/45
f 43/26/46 56/26/46 54/16/46 47/16/46
f 50/31/47 51/26/47 56/26/47
f 60/31/48 64/31/48 63/26/48 59/26/48
f 58/5/49 60/31/49 50/33/49
f 48/16/50 57/16/50 58/5/50 49/5/50
f 64/31/51 62/5/51 61/16/51 63/26/51
f 57/16/52 61/16/52 62/5/52 58/5/52
f 58/5/53 62/5/53 64/31/53 60/31/53
f 59/26/54 63/26/54 61/16/54 57/16/54
f 59/26/55 51/26/55 50/33/55 60/31/55
f 131/34/56 130/35/56 67/36/56 68/37/56
f 134/38/57 66/39/57 71/40/57 72/41/57
f 132/42/58 131/34/58 68/37/58 69/43/58
f 135/44/59 134/38/59 72/41/59 5/45/59
f 133/46/60 132/42/60 69/43/60 70/47/60
f 130/35/61 65/48/61 67/36/61
f 136/49/62 135/44/62 5/45/62 73/50/62
f 66/39/63 133/46/63 70/47/63 71/40/63
f 72/41/64 71/40/64 78/51/64 79/52/64
f 69/43/65 68/37/65 75/53/65 76/54/65
f 5/45/66 72/41/66 79/52/66
f 70/47/67 69/43/67 76/54/67 77/55/67
f 67/36/68 65/56/68 74/57/68
f 73/50/69 5/58/69 80/59/69
f 71/40/70 70/47/70 77/55/70 78/51/70
f 68/37/71 67/36/71 74/57/71 75/53/71
f 78/51/72 77/55/72 84/60/72 85/61/72
f 75/53/73 74/57/73 81/62/73 82/63/73
f 79/52/74 78/51/74 85/61/74 86/64/74
f 76/54/75 75/53/75 82/63/75 83/65/75
f 5/58/76 79/52/76 86/64/76 1/66/76
f 77/55/77 76/54/77 83/65/77 84/60/77
f 74/57/78 65/67/78 81/62/78
f 80/59/79 5/58/79 1/66/79 87/68/79
f 81/62/80 65/69/80 88/70/80
f 87/68/81 1/71/81 94/72/81
f 85/61/82 84/60/82 91/73/82 92/74/82
f 82/63/83 81/62/83 88/70/83 89/75/83
f 86/64/84 85/61/84 92/74/84 93/76/84
f 83/65/85 82/63/85 89/75/85 90/77/85
f 1/66/86 86/64/86 93/76/86
f 84/60/87 83/65/87 90/77/87 91/73/87
f 91/73/88 90/77/88 97/78/88 98/79/88
f 88/70/89 65/80/89 95/81/89
f 94/72/90 1/71/90 100/82/90 101/83/90
f 89/75/91 88/70/91 95/81/91 96/84/91
f 90/77/92 89/75/92 96/84/92 97/78/92
f 1/71/93 93/76/93 99/85/93 100/82/93
f 100/82/94 99/85/94 107/86/94 3/87/94
f 98/79/95 97/78/95 104/88/95 105/89/95
f 95/81/96 65/90/96 102/91/96
f 101/83/97 100/82/97 3/87/97 108/92/97
f 96/84/98 95/81/98 102/91/98 103/93/98
f 97/78/99 96/84/99 103/93/99 104/88/99
f 107/86/100 106/94/100 113/95/100 114/96/100
f 104/88/101 103/93/101 110/97/101 111/98/101
f 3/87/102 107/86/102 114/96/102
f 105/89/103 104/88/103 111/98/103 112/99/103
f 102/91/104 65/100/104 109/101/104
f 108/92/105 3/102/105 115/103/105
f 106/94/106 105/89/106 112/99/106 113/95/106
f 103/93/107 102/91/107 109/101/107 110/97/107
f 110/104/108 109/105/108 116/106/108 117/107/108
f 114/108/109 113/109/109 120/110/109 121/111/109
f 111/112/110 110/104/110 117/107/110 118/113/110
f 3/114/111 114/108/111 121/111/111 4/115/111
f 112/116/112 111/112/112 118/113/112 119/117/112
f 109/105/113 65/118/113 116/106/113
f 115/119/114 3/114/114 4/115/114 122/120/114
f 113/109/115 112/116/115 119/117/115 120/110/115
f 120/110/116 119/117/116 126/121/116 127/122/116
f 117/107/117 116/106/117 123/123/117 124/124/117
f 121/111/118 120/110/118 127/122/118 128/125/118
f 118/113/119 117/107/119 124/124/119 125/126/119
f 4/115/120 121/111/120 128/125/120
f 119/117/121 118/113/121 125/126/121 126/121/121
f 116/106/122 65/127/122 123/123/122
f 122/120/123 4/128/123 129/129/123
f 123/123/124 65/130/124 130/35/124
f 129/129/125 4/128/125 135/44/125 136/49/125
f 127/122/126 126/121/126 133/46/126 66/39/126
f 124/124/127 123/123/127 130/35/127 131/34/127
f 128/125/128 127/122/128 66/39/128 134/38/128
f 125/126/129 124/124/129 131/34/129 132/42/129
f 4/128/130 128/125/130 134/38/130 135/44/130
f 126/121/131 125/126/131 132/42/131 133/46/131
f 97/131/132 137/132/132 138/133/132 90/134/132
f 90/134/133 138/133/133 139/130/133 91/135/133
f 92/136/134 144/137/134 140/8/134 93/3/134
f 106/138/135 145/139/135 142/80/135 105/140/135
f 105/140/136 142/80/136 143/141/136 104/19/136
f 104/19/137 143/141/137 137/142/137 97/95/137
f 91/135/138 139/130/138 144/137/138 92/136/138
f 107/20/139 141/143/139 145/139/139 106/138/139
f 100/144/140 3/145/140 1/146/140
f 93/3/141 140/8/141 100/147/141 1/146/141
f 3/145/142 100/144/142 141/143/142 107/20/142
f 142/80/143 145/139/143 137/142/143 143/141/143
f 138/133/144 137/132/144 144/137/144 139/130/144
f 145/139/9 144/137/9 137/132/9
f 141/143/145 100/144/145 145/139/145
f 144/137/146 100/147/146 140/8/146
f 100/147/147 144/137/147 145/139/147
l 4 5
o Cylinder
v 0.286559 2.350904 1.317414
v 0.389751 2.617301 1.113310
v 0.282438 2.538237 1.447677
v 0.281477 2.617301 1.448970
v 0.020082 2.538237 1.588006
v 0.020082 2.617301 1.588006
v -0.241313 2.538237 1.448970
v -0.241313 2.617301 1.448970
v -0.246395 2.350904 1.317414
v -0.349587 2.617301 1.113310
v 0.190753 2.932256 1.238824
v 0.389751 2.631425 1.113310
v 0.281477 2.710489 1.377750
v 0.281477 2.631425 1.448970
v 0.020082 2.710489 1.588006
v 0.020082 2.631425 1.588006
v -0.241313 2.710489 1.377750
v -0.241313 2.631425 1.448970
v -0.150589 2.932256 1.238824
v -0.349587 2.631425 1.113310
v 0.306660 2.614830 1.530052
v 0.425360 2.614830 1.214136
v 0.307713 2.507466 1.528836
v 0.020095 2.507466 1.660909
v 0.020095 2.614830 1.660909
v -0.266471 2.507466 1.530052
v -0.266471 2.614830 1.530052
v -0.385171 2.614830 1.214136
v 0.306660 2.634011 1.530052
v 0.425360 2.634011 1.214136
v 0.306660 2.741376 1.530052
v 0.020095 2.741376 1.660909
v 0.020095 2.634011 1.660909
v -0.266471 2.741376 1.530052
v -0.266471 2.634011 1.530052
v -0.385171 2.634011 1.214136
vn 0.0398 0.9991 0.0138
vn -0.2816 0.9402 -0.1919
vn -0.0000 1.0000 -0.0000
vn 0.0008 -0.7301 0.6834
vn -0.0000 -0.6082 -0.7938
vn -0.0153 -0.9994 0.0311
vn -0.0146 0.9995 0.0297
vn -0.0000 -1.0000 -0.0000
vn -0.0000 0.7682 0.6402
vn -0.0000 0.3851 -0.9229
vn 0.8535 0.4785 0.2064
vn 0.2815 0.9402 -0.1919
vn 0.1528 0.9573 -0.2455
vn -0.8535 0.4785 0.2064
vn 0.1684 -0.9245 -0.3420
vn -0.9496 -0.1625 0.2680
vn 0.0153 -0.9994 0.0311
vn 0.9499 -0.1641 0.2661
vn 0.4163 -0.0031 0.9092
vn -0.4154 -0.0000 0.9096
vn 0.4154 -0.0000 0.9096
vn 0.9361 -0.0000 0.3517
vn -0.9361 -0.0000 0.3517
vn 0.9361 0.0052 0.3517
vn 0.0416 -0.9990 0.0145
vn -0.1460 -0.9634 -0.2248
vn 0.1478 -0.9630 -0.2254
vn -0.0398 0.9991 0.0139
vn -0.0416 -0.9990 0.0145
vn -0.1692 -0.9245 -0.3415
vn -0.1528 0.9573 -0.2455
vn 0.0146 0.9995 0.0297
vt 0.490000 0.250000
vt 0.419706 0.080294
vt 0.375000 0.500000
vt 0.250000 1.000000
vt 0.010000 0.250000
vt 0.080294 0.080294
vt 0.250000 0.010000
vt 0.990000 0.250000
vt 0.919706 0.080294
vt 0.750000 0.010000
vt 0.580294 0.080294
vt 0.510000 0.250000
vt 0.750000 1.000000
vt 0.750000 0.500000
vt 0.250000 0.500000
vt 0.625000 0.500000
vt 0.625000 1.000000
vt 0.500000 1.000000
vt 0.500000 0.500000
vt 0.375000 1.000000
s 0
f 147/148/148 149/149/148 166/149/148 167/148/148
f 162/150/149 165/151/149 181/151/149 179/150/149
f 147/148/150 155/152/150 153/153/150 151/154/150 149/149/150
f 146/155/151 148/156/151 150/157/151 152/158/151 154/159/151
f 147/160/152 146/161/152 154/162/152 155/151/152
f 163/153/153 161/154/153 178/154/153 180/153/153
f 151/154/154 153/153/154 172/153/154 170/154/154
f 157/148/155 159/149/155 161/154/155 163/153/155 165/152/155
f 156/155/156 164/159/156 162/158/156 160/157/156 158/156/156
f 157/160/157 165/151/157 164/162/157 156/161/157
f 156/155/158 158/156/158 157/160/158
f 157/160/159 158/156/159 176/156/159 175/160/159
f 160/157/160 162/158/160 179/158/160 177/157/160
f 164/162/161 165/151/161 162/150/161
f 152/158/162 150/157/162 169/157/162 171/158/162
f 154/162/163 152/150/163 155/151/163
f 161/154/164 159/149/164 174/149/164 178/154/164
f 146/155/165 147/148/165 148/156/165
f 168/163/166 166/164/166 170/165/166 169/166/166
f 169/166/167 170/165/167 172/167/167 171/150/167
f 176/163/168 177/166/168 178/165/168 174/164/168
f 177/166/167 179/150/167 180/167/167 178/165/167
f 175/160/169 176/156/169 174/164/169
f 180/153/170 179/150/170 181/152/170
f 172/153/170 173/152/170 171/150/170
f 167/148/171 166/164/171 168/163/171
f 159/149/172 157/148/172 175/148/172 174/149/172
f 155/151/173 152/150/173 171/150/173 173/151/173
f 148/156/174 147/148/174 167/148/174 168/156/174
f 153/153/175 155/152/175 173/152/175 172/153/175
f 165/152/176 163/153/176 180/153/176 181/152/176
f 150/157/177 148/156/177 168/156/177 169/157/177
f 158/156/178 160/157/178 177/157/178 176/156/178
f 149/149/179 151/154/179 170/154/179 166/149/179
o Cube.001
v 0.726819 1.436632 0.900509
v 0.726819 1.930150 0.900509
v 0.726819 1.436632 0.406992
v 0.726819 1.930150 0.406992
v 1.243471 1.436632 0.850281
v 1.243471 1.930150 0.850281
v 1.541905 1.436632 0.457220
v 1.541905 1.930150 0.457220
v 2.692223 1.930150 1.467753
v 2.692223 1.436632 1.467753
v 2.199542 1.436632 1.439043
v 2.199542 1.930150 1.439043
v 2.483192 1.930150 3.635165
v 2.483192 1.436632 3.635165
v 2.176842 1.436632 3.248242
v 2.176842 1.930150 3.248242
v 1.934508 1.735118 2.994701
v 2.066252 1.735118 2.925609
v 2.009516 1.345226 3.137724
v 2.141260 1.345226 3.068631
v 2.190600 1.183728 3.483012
v 2.322344 1.183728 3.413920
v 2.371684 1.345226 3.828301
v 2.503428 1.345226 3.759208
v 2.446691 1.735118 3.971324
v 2.578436 1.735118 3.902231
v 2.371684 2.125009 3.828301
v 2.503428 2.125009 3.759208
v 2.190600 2.286508 3.483012
v 2.322344 2.286508 3.413920
v 2.009516 2.125009 3.137724
v 2.141260 2.125009 3.068631
v 1.583780 1.735118 2.672078
v 1.719813 1.028011 2.931464
v 1.851558 1.028011 2.862372
v 1.715524 1.735118 2.602986
v 2.048227 0.735118 3.557679
v 2.179971 0.735118 3.488586
v 2.376641 1.028011 4.183893
v 2.508385 1.028011 4.114800
v 2.512675 1.735118 4.443280
v 2.644419 1.735118 4.374187
v 2.376641 2.442225 4.183893
v 2.508385 2.442225 4.114800
v 2.048227 2.735118 3.557679
v 2.179971 2.735118 3.488586
v 1.719813 2.442225 2.931464
v 1.851558 2.442225 2.862372
v -0.735297 1.436632 0.900509
v -0.735297 1.930150 0.900509
v -0.735297 1.436632 0.406992
v -0.735297 1.930150 0.406992
v -1.251949 1.436632 0.850281
v -1.251949 1.930150 0.850281
v -1.550383 1.436632 0.457220
v -1.550383 1.930150 0.457220
v -2.700701 1.930150 1.467753
v -2.700701 1.436632 1.467753
v -2.208020 1.436632 1.439043
v -2.208020 1.930150 1.439043
v -2.491670 1.930150 3.635165
v -2.491670 1.436632 3.635165
v -2.185320 1.436632 3.248242
v -2.185320 1.930150 3.248242
v -1.942986 1.735118 2.994701
v -2.074731 1.735118 2.925609
v -2.017994 1.345226 3.137724
v -2.149738 1.345226 3.068631
v -2.199078 1.183728 3.483012
v -2.330822 1.183728 3.413920
v -2.380162 1.345226 3.828301
v -2.511906 1.345226 3.759208
v -2.455169 1.735118 3.971324
v -2.586914 1.735118 3.902231
v -2.380162 2.125009 3.828301
v -2.511906 2.125009 3.759208
v -2.199078 2.286508 3.483012
v -2.330822 2.286508 3.413920
v -2.017994 2.125009 3.137724
v -2.149738 2.125009 3.068631
v -1.592258 1.735118 2.672078
v -1.728291 1.028011 2.931464
v -1.860036 1.028011 2.862372
v -1.724002 1.735118 2.602986
v -2.056705 0.735118 3.557679
v -2.188449 0.735118 3.488586
v -2.385119 1.028011 4.183893
v -2.516864 1.028011 4.114800
v -2.521153 1.735118 4.443280
v -2.652897 1.735118 4.374187
v -2.385119 2.442225 4.183893
v -2.516864 2.442225 4.114800
v -2.056705 2.735118 3.557679
v -2.188449 2.735118 3.488586
v -1.728291 2.442225 2.931464
v -1.860036 2.442225 2.862372
vn -1.0000 -0.0000 -0.0000
vn 0.0615 -0.0000 -0.9981
vn -0.0000 1.0000 -0.0000
vn 0.0968 -0.0000 0.9953
vn -0.0000 -1.0000 -0.0000
vn -0.9999 -0.0000 -0.0125
vn 0.6600 -0.0000 -0.7513
vn -0.5244 -0.0000 0.8515
vn -0.7840 -0.0000 0.6207
vn 0.9954 -0.0000 0.0960
vn -0.4291 -0.3827 -0.8182
vn -0.1777 -0.9239 -0.3389
vn 0.1777 -0.9239 0.3389
vn 0.4291 -0.3827 0.8182
vn 0.4291 0.3827 0.8182
vn 0.1777 0.9239 0.3389
vn 0.8856 -0.0000 -0.4644
vn -0.1777 0.9239 -0.3389
vn -0.4291 0.3827 -0.8182
vn -0.8856 -0.0000 0.4644
vn -0.6705 0.1384 0.7289
vn 0.6705 -0.1384 -0.7289
vn -0.7614 0.3341 0.5556
vn 0.7614 -0.3341 -0.5556
vn -0.8899 0.3341 0.3105
vn 0.8899 -0.3341 -0.3105
vn -0.9808 0.1384 0.1371
vn 0.9808 -0.1384 -0.1371
vn -0.9808 -0.1384 0.1371
vn 0.9808 0.1384 -0.1371
vn -0.8899 -0.3341 0.3105
vn 0.8899 0.3341 -0.3105
vn -0.7614 -0.3341 0.5556
vn 0.7614 0.3341 -0.5556
vn -0.6705 -0.1384 0.7289
vn 0.6705 0.1384 -0.7289
vn 1.0000 -0.0000 -0.0000
vn -0.0615 -0.0000 -0.9981
vn -0.0968 -0.0000 0.9953
vn 0.9999 -0.0000 -0.0125
vn -0.6600 -0.0000 -0.7513
vn 0.5244 -0.0000 0.8515
vn 0.7840 -0.0000 0.6207
vn -0.9954 -0.0000 0.0960
vn 0.4291 -0.3827 -0.8182
vn 0.1777 -0.9239 -0.3389
vn -0.1777 -0.9239 0.3389
vn -0.4291 -0.3827 0.8182
vn -0.4291 0.3827 0.8182
vn -0.1777 0.9239 0.3389
vn -0.8856 -0.0000 -0.4644
vn 0.1777 0.9239 -0.3389
vn 0.4291 0.3827 -0.8182
vn 0.8856 -0.0000 0.4644
vn 0.6705 0.1384 0.7289
vn -0.6705 -0.1384 -0.7289
vn 0.7614 0.3341 0.5556
vn -0.7614 -0.3341 -0.5556
vn 0.8899 0.3341 0.3105
vn -0.8899 -0.3341 -0.3105
vn 0.9808 0.1384 0.1371
vn -0.9808 -0.1384 -0.1371
vn 0.9808 -0.1384 0.1371
vn -0.9808 0.1384 -0.1371
vn 0.8899 -0.3341 0.3105
vn -0.8899 0.3341 -0.3105
vn 0.7614 -0.3341 0.5556
vn -0.7614 0.3341 -0.5556
vn 0.6705 -0.1384 0.7289
vn -0.6705 0.1384 -0.7289
vt 0.375000 0.000000
vt 0.625000 0.000000
vt 0.625000 0.250000
vt 0.375000 0.250000
vt 0.625000 0.500000
vt 0.375000 0.500000
vt 0.625000 0.750000
vt 0.375000 0.750000
vt 0.625000 1.000000
vt 0.375000 1.000000
vt 0.125000 0.500000
vt 0.125000 0.750000
vt 0.875000 0.500000
vt 0.875000 0.750000
vt 1.000000 0.500000
vt 1.000000 1.000000
vt 0.875000 1.000000
vt 0.750000 1.000000
vt 0.750000 0.500000
vt 0.500000 1.000000
vt 0.500000 0.500000
vt 0.250000 1.000000
vt 0.250000 0.500000
vt 0.343574 0.343574
vt 0.250000 0.382334
vt 0.156426 0.343574
vt 0.117666 0.250000
vt 0.156426 0.156426
vt 0.250000 0.117666
vt 0.343574 0.156426
vt 0.382334 0.250000
vt 0.125000 1.000000
vt 0.000000 1.000000
vt 0.000000 0.500000
vt 0.750000 0.382334
vt 0.843574 0.343574
vt 0.882334 0.250000
vt 0.843574 0.156426
vt 0.750000 0.117666
vt 0.656426 0.156426
vt 0.617666 0.250000
vt 0.656426 0.343574
vt 0.750000 0.490000
vt 0.919706 0.419706
vt 0.419706 0.419706
vt 0.250000 0.490000
vt 0.990000 0.250000
vt 0.490000 0.250000
vt 0.919706 0.080294
vt 0.419706 0.080294
vt 0.750000 0.010000
vt 0.250000 0.010000
vt 0.580294 0.080294
vt 0.080294 0.080294
vt 0.510000 0.250000
vt 0.010000 0.250000
vt 0.580294 0.419706
vt 0.080294 0.419706
s 0
f 182/168/180 183/169/180 185/170/180 184/171/180
f 184/171/181 185/170/181 189/172/181 188/173/181
f 189/172/182 187/174/182 193/174/182 190/172/182
f 186/175/183 187/174/183 183/176/183 182/177/183
f 184/178/184 188/173/184 186/175/184 182/179/184
f 189/172/182 185/180/182 183/181/182 187/174/182
f 193/174/185 192/175/185 196/175/185 197/174/185
f 188/173/186 189/172/186 190/172/186 191/173/186
f 187/174/187 186/175/187 192/175/187 193/174/187
f 186/175/184 188/173/184 191/173/184 192/175/184
f 195/173/188 194/172/188 197/174/188 196/175/188
f 192/175/184 191/173/184 195/173/184 196/175/184
f 190/172/182 193/174/182 197/174/182 194/172/182
f 191/173/189 190/172/189 194/172/189 195/173/189
f 214/182/190 217/183/190 216/184/190 215/180/190
f 215/180/191 216/184/191 219/185/191 218/186/191
f 218/186/192 219/185/192 221/176/192 220/172/192
f 220/172/193 221/176/193 223/187/193 222/188/193
f 222/188/194 223/187/194 225/177/194 224/173/194
f 224/173/195 225/177/195 227/189/195 226/190/195
f 201/191/196 199/192/196 213/193/196 211/194/196 209/195/196 207/196/196 205/197/196 203/198/196
f 226/190/197 227/189/197 229/199/197 228/178/197
f 228/178/198 229/199/198 217/200/198 214/201/198
f 198/202/199 200/203/199 202/204/199 204/205/199 206/206/199 208/207/199 210/208/199 212/209/199
f 200/203/200 198/202/200 214/210/200 215/211/200
f 199/192/201 201/191/201 216/212/201 217/213/201
f 202/204/202 200/203/202 215/211/202 218/214/202
f 201/191/203 203/198/203 219/215/203 216/212/203
f 204/205/204 202/204/204 218/214/204 220/216/204
f 203/198/205 205/197/205 221/217/205 219/215/205
f 206/206/206 204/205/206 220/216/206 222/218/206
f 205/197/207 207/196/207 223/219/207 221/217/207
f 208/207/208 206/206/208 222/218/208 224/220/208
f 207/196/209 209/195/209 225/221/209 223/219/209
f 210/208/210 208/207/210 224/220/210 226/222/210
f 209/195/211 211/194/211 227/223/211 225/221/211
f 212/209/212 210/208/212 226/222/212 228/224/212
f 211/194/213 213/193/213 229/225/213 227/223/213
f 198/202/214 212/209/214 228/224/214 214/210/214
f 213/193/215 199/192/215 217/213/215 229/225/215
f 230/168/216 232/171/216 233/170/216 231/169/216
f 232/171/217 236/173/217 237/172/217 233/170/217
f 237/172/182 238/172/182 241/174/182 235/174/182
f 234/175/218 230/177/218 231/176/218 235/174/218
f 232/178/184 230/179/184 234/175/184 236/173/184
f 237/172/182 235/174/182 231/181/182 233/180/182
f 241/174/219 245/174/219 244/175/219 240/175/219
f 236/173/220 239/173/220 238/172/220 237/172/220
f 235/174/221 241/174/221 240/175/221 234/175/221
f 234/175/184 240/175/184 239/173/184 236/173/184
f 243/173/222 244/175/222 245/174/222 242/172/222
f 240/175/184 244/175/184 243/173/184 239/173/184
f 238/172/182 242/172/182 245/174/182 241/174/182
f 239/173/223 243/173/223 242/172/223 238/172/223
f 262/182/224 263/180/224 264/184/224 265/183/224
f 263/180/225 266/186/225 267/185/225 264/184/225
f 266/186/226 268/172/226 269/176/226 267/185/226
f 268/172/227 270/188/227 271/187/227 269/176/227
f 270/188/228 272/173/228 273/177/228 271/187/228
f 272/173/229 274/190/229 275/189/229 273/177/229
f 249/191/230 251/198/230 253/197/230 255/196/230 257/195/230 259/194/230 261/193/230 247/192/230
f 274/190/231 276/178/231 277/199/231 275/189/231
f 276/178/232 262/201/232 265/200/232 277/199/232
f 246/202/233 260/209/233 258/208/233 256/207/233 254/206/233 252/205/233 250/204/233 248/203/233
f 248/203/234 263/211/234 262/210/234 246/202/234
f 247/192/235 265/213/235 264/212/235 249/191/235
f 250/204/236 266/214/236 263/211/236 248/203/236
f 249/191/237 264/212/237 267/215/237 251/198/237
f 252/205/238 268/216/238 266/214/238 250/204/238
f 251/198/239 267/215/239 269/217/239 253/197/239
f 254/206/240 270/218/240 268/216/240 252/205/240
f 253/197/241 269/217/241 271/219/241 255/196/241
f 256/207/242 272/220/242 270/218/242 254/206/242
f 255/196/243 271/219/243 273/221/243 257/195/243
f 258/208/244 274/222/244 272/220/244 256/207/244
f 257/195/245 273/221/245 275/223/245 259/194/245
f 260/209/246 276/224/246 274/222/246 258/208/246
f 259/194/247 275/223/247 277/225/247 261/193/247
f 246/202/248 262/210/248 276/224/248 260/209/248
f 261/193/249 277/225/249 265/213/249 247/192/249
o Sphere.001
v -0.266332 3.539608 1.248560
v -0.266332 3.500690 1.154604
v -0.266332 3.457583 1.125801
v -0.266332 3.406734 1.115687
v -0.266332 3.355886 1.125801
v -0.266332 3.312779 1.154604
v -0.266332 3.273861 1.248560
v -0.230376 3.529493 1.212605
v -0.199895 3.500690 1.182123
v -0.179528 3.457583 1.161756
v -0.172376 3.406734 1.154604
v -0.179528 3.355886 1.161756
v -0.199895 3.312779 1.182123
v -0.230376 3.283975 1.212605
v -0.215483 3.529493 1.248560
v -0.172376 3.500690 1.248560
v -0.143573 3.457583 1.248560
v -0.133458 3.406734 1.248560
v -0.143573 3.355886 1.248560
v -0.172376 3.312779 1.248560
v -0.215483 3.283975 1.248560
v -0.230376 3.529493 1.284515
v -0.199895 3.500690 1.314996
v -0.179528 3.457583 1.335363
v -0.172376 3.406734 1.342515
v -0.179528 3.355886 1.335363
v -0.199895 3.312779 1.314996
v -0.230376 3.283975 1.284515
v -0.266332 3.529493 1.299408
v -0.266332 3.500690 1.342515
v -0.266332 3.457583 1.371319
v -0.266332 3.406734 1.381433
v -0.266332 3.355886 1.371319
v -0.266332 3.312779 1.342515
v -0.266332 3.283975 1.299408
v -0.302287 3.529493 1.284515
v -0.332768 3.500690 1.314996
v -0.353135 3.457583 1.335363
v -0.360287 3.406734 1.342515
v -0.353135 3.355886 1.335363
v -0.332768 3.312779 1.314996
v -0.302287 3.283975 1.284515
v -0.317180 3.529493 1.248560
v -0.360287 3.500690 1.248560
v -0.389090 3.457583 1.248560
v -0.399205 3.406734 1.248560
v -0.389090 3.355886 1.248560
v -0.360287 3.312779 1.248560
v -0.317180 3.283975 1.248560
v -0.302287 3.529493 1.212605
v -0.332768 3.500690 1.182123
v -0.353135 3.457583 1.161756
v -0.360287 3.406734 1.154604
v -0.353135 3.355886 1.161756
v -0.332768 3.312779 1.182123
v -0.302287 3.283975 1.212605
v -0.266332 3.529493 1.197711
v -0.266332 3.283975 1.197711
vn 0.3256 -0.5253 -0.7862
vn 0.3764 0.1807 -0.9087
vn 0.2243 0.8103 -0.5414
vn 0.2243 -0.8103 -0.5414
vn 0.3764 -0.1807 -0.9087
vn 0.3256 0.5253 -0.7862
vn 0.0805 0.9776 -0.1945
vn 0.0805 -0.9776 -0.1945
vn 0.5414 -0.8103 -0.2243
vn 0.9087 -0.1807 -0.3764
vn 0.7862 0.5253 -0.3256
vn 0.1945 0.9776 -0.0805
vn 0.1945 -0.9776 -0.0805
vn 0.7862 -0.5253 -0.3256
vn 0.9087 0.1807 -0.3764
vn 0.5414 0.8103 -0.2243
vn 0.7862 0.5253 0.3256
vn 0.1945 0.9776 0.0805
vn 0.1945 -0.9776 0.0805
vn 0.7862 -0.5253 0.3256
vn 0.9087 0.1807 0.3764
vn 0.5414 0.8103 0.2243
vn 0.5414 -0.8103 0.2243
vn 0.9087 -0.1807 0.3764
vn 0.0805 -0.9776 0.1945
vn 0.3256 -0.5253 0.7862
vn 0.3764 0.1807 0.9087
vn 0.2243 0.8103 0.5414
vn 0.2243 -0.8103 0.5414
vn 0.3764 -0.1807 0.9087
vn 0.3256 0.5253 0.7862
vn 0.0805 0.9776 0.1945
vn -0.2243 0.8103 0.5414
vn -0.2243 -0.8103 0.5414
vn -0.3764 -0.1807 0.9087
vn -0.3256 0.5253 0.7862
vn -0.0805 0.9776 0.1945
vn -0.0805 -0.9776 0.1945
vn -0.3256 -0.5253 0.7862
vn -0.3764 0.1807 0.9087
vn -0.5414 -0.8103 0.2243
vn -0.9087 -0.1807 0.3764
vn -0.7862 0.5253 0.3256
vn -0.1945 0.9776 0.0805
vn -0.1945 -0.9776 0.0805
vn -0.7862 -0.5253 0.3256
vn -0.9087 0.1807 0.3764
vn -0.5414 0.8103 0.2243
vn -0.1945 0.9776 -0.0805
vn -0.1945 -0.9776 -0.0805
vn -0.7862 -0.5253 -0.3256
vn -0.9087 0.1807 -0.3764
vn -0.5414 0.8103 -0.2243
vn -0.5414 -0.8103 -0.2243
vn -0.9087 -0.1807 -0.3764
vn -0.7862 0.5253 -0.3256
vn -0.3256 -0.5253 -0.7862
vn -0.3764 0.1807 -0.9087
vn -0.2243 0.8103 -0.5414
vn -0.2243 -0.8103 -0.5414
vn -0.3764 -0.1807 -0.9087
vn -0.3256 0.5253 -0.7862
vn -0.0805 0.9776 -0.1945
vn -0.0805 -0.9776 -0.1945
vt 0.750000 0.250000
vt 0.750000 0.375000
vt 0.625000 0.375000
vt 0.625000 0.250000
vt 0.750000 0.500000
vt 0.750000 0.625000
vt 0.625000 0.625000
vt 0.625000 0.500000
vt 0.750000 0.750000
vt 0.750000 0.875000
vt 0.625000 0.875000
vt 0.625000 0.750000
vt 0.750000 0.125000
vt 0.625000 0.125000
vt 0.687500 1.000000
vt 0.687500 0.000000
vt 0.500000 0.250000
vt 0.500000 0.125000
vt 0.500000 0.500000
vt 0.500000 0.375000
vt 0.500000 0.750000
vt 0.500000 0.625000
vt 0.562500 1.000000
vt 0.500000 0.875000
vt 0.562500 0.000000
vt 0.375000 0.750000
vt 0.375000 0.625000
vt 0.437500 1.000000
vt 0.375000 0.875000
vt 0.437500 0.000000
vt 0.375000 0.125000
vt 0.375000 0.375000
vt 0.375000 0.250000
vt 0.375000 0.500000
vt 0.312500 0.000000
vt 0.250000 0.125000
vt 0.250000 0.375000
vt 0.250000 0.250000
vt 0.250000 0.625000
vt 0.250000 0.500000
vt 0.250000 0.875000
vt 0.250000 0.750000
vt 0.312500 1.000000
vt 0.125000 0.875000
vt 0.125000 0.750000
vt 0.125000 0.250000
vt 0.125000 0.125000
vt 0.125000 0.500000
vt 0.125000 0.375000
vt 0.125000 0.625000
vt 0.187500 1.000000
vt 0.187500 0.000000
vt 0.000000 0.250000
vt 0.000000 0.125000
vt 0.000000 0.500000
vt 0.000000 0.375000
vt 0.000000 0.750000
vt 0.000000 0.625000
vt 0.062500 1.000000
vt 0.000000 0.875000
vt 0.062500 0.000000
vt 1.000000 0.875000
vt 0.937500 1.000000
vt 0.875000 0.875000
vt 0.937500 0.000000
vt 1.000000 0.125000
vt 0.875000 0.125000
vt 1.000000 0.250000
vt 1.000000 0.375000
vt 0.875000 0.375000
vt 0.875000 0.250000
vt 1.000000 0.500000
vt 1.000000 0.625000
vt 0.875000 0.625000
vt 0.875000 0.500000
vt 1.000000 0.750000
vt 0.875000 0.750000
vt 0.812500 1.000000
vt 0.812500 0.000000
s 0
f 283/226/250 282/227/250 289/228/250 290/229/250
f 281/230/251 280/231/251 287/232/251 288/233/251
f 279/234/252 334/235/252 285/236/252 286/237/252
f 335/238/253 283/226/253 290/229/253 291/239/253
f 282/227/254 281/230/254 288/233/254 289/228/254
f 280/231/255 279/234/255 286/237/255 287/232/255
f 334/235/256 278/240/256 285/236/256
f 284/241/257 335/238/257 291/239/257
f 291/239/258 290/229/258 297/242/258 298/243/258
f 289/228/259 288/233/259 295/244/259 296/245/259
f 287/232/260 286/237/260 293/246/260 294/247/260
f 285/236/261 278/248/261 292/249/261
f 284/250/262 291/239/262 298/243/262
f 290/229/263 289/228/263 296/245/263 297/242/263
f 288/233/264 287/232/264 294/247/264 295/244/264
f 286/237/265 285/236/265 292/249/265 293/246/265
f 294/247/266 293/246/266 300/251/266 301/252/266
f 292/249/267 278/253/267 299/254/267
f 284/255/268 298/243/268 305/256/268
f 297/242/269 296/245/269 303/257/269 304/258/269
f 295/244/270 294/247/270 301/252/270 302/259/270
f 293/246/271 292/249/271 299/254/271 300/251/271
f 298/243/272 297/242/272 304/258/272 305/256/272
f 296/245/273 295/244/273 302/259/273 303/257/273
f 284/260/274 305/256/274 312/261/274
f 304/258/275 303/257/275 310/262/275 311/263/275
f 302/259/276 301/252/276 308/264/276 309/265/276
f 300/251/277 299/254/277 306/266/277 307/267/277
f 305/256/278 304/258/278 311/263/278 312/261/278
f 303/257/279 302/259/279 309/265/279 310/262/279
f 301/252/280 300/251/280 307/267/280 308/264/280
f 299/254/281 278/268/281 306/266/281
f 307/267/282 306/266/282 313/269/282 314/270/282
f 312/261/283 311/263/283 318/271/283 319/272/283
f 310/262/284 309/265/284 316/273/284 317/274/284
f 308/264/285 307/267/285 314/270/285 315/275/285
f 306/266/286 278/276/286 313/269/286
f 284/277/287 312/261/287 319/272/287
f 311/263/288 310/262/288 317/274/288 318/271/288
f 309/265/289 308/264/289 315/275/289 316/273/289
f 319/272/290 318/271/290 325/278/290 326/279/290
f 317/274/291 316/273/291 323/280/291 324/281/291
f 315/275/292 314/270/292 321/282/292 322/283/292
f 313/269/293 278/284/293 320/285/293
f 284/286/294 319/272/294 326/279/294
f 318/271/295 317/274/295 324/281/295 325/278/295
f 316/273/296 315/275/296 322/283/296 323/280/296
f 314/270/297 313/269/297 320/285/297 321/282/297
f 320/287/298 278/288/298 327/289/298
f 284/290/299 326/291/299 333/292/299
f 325/293/300 324/294/300 331/295/300 332/296/300
f 323/297/301 322/298/301 329/299/301 330/300/301
f 321/301/302 320/287/302 327/289/302 328/302/302
f 326/291/303 325/293/303 332/296/303 333/292/303
f 324/294/304 323/297/304 330/300/304 331/295/304
f 322/298/305 321/301/305 328/302/305 329/299/305
f 332/296/306 331/295/306 282/227/306 283/226/306
f 330/300/307 329/299/307 280/231/307 281/230/307
f 328/302/308 327/289/308 334/235/308 279/234/308
f 333/292/309 332/296/309 283/226/309 335/238/309
f 331/295/310 330/300/310 281/230/310 282/227/310
f 329/299/311 328/302/311 279/234/311 280/231/311
f 327/289/312 278/303/312 334/235/312
f 284/304/313 333/292/313 335/238/313
o Sphere.002
v 0.254193 3.539608 1.248560
v 0.254193 3.500690 1.154604
v 0.254193 3.457583 1.125801
v 0.254193 3.406734 1.115687
v 0.254193 3.355886 1.125801
v 0.254193 3.312779 1.154604
v 0.254193 3.273861 1.248560
v 0.290148 3.529493 1.212605
v 0.320629 3.500690 1.182123
v 0.340996 3.457583 1.161756
v 0.348148 3.406734 1.154604
v 0.340996 3.355886 1.161756
v 0.320629 3.312779 1.182123
v 0.290148 3.283975 1.212605
v 0.305041 3.529493 1.248560
v 0.348148 3.500690 1.248560
v 0.376951 3.457583 1.248560
v 0.387066 3.406734 1.248560
v 0.376951 3.355886 1.248560
v 0.348148 3.312779 1.248560
v 0.305041 3.283975 1.248560
v 0.290148 3.529493 1.284515
v 0.320629 3.500690 1.314996
v 0.340996 3.457583 1.335363
v 0.348148 3.406734 1.342515
v 0.340996 3.355886 1.335363
v 0.320629 3.312779 1.314996
v 0.290148 3.283975 1.284515
v 0.254193 3.529493 1.299408
v 0.254193 3.500690 1.342515
v 0.254193 3.457583 1.371319
v 0.254193 3.406734 1.381433
v 0.254193 3.355886 1.371319
v 0.254193 3.312779 1.342515
v 0.254193 3.283975 1.299408
v 0.218237 3.529493 1.284515
v 0.187756 3.500690 1.314996
v 0.167389 3.457583 1.335363
v 0.160237 3.406734 1.342515
v 0.167389 3.355886 1.335363
v 0.187756 3.312779 1.314996
v 0.218237 3.283975 1.284515
v 0.203344 3.529493 1.248560
v 0.160237 3.500690 1.248560
v 0.131434 3.457583 1.248560
v 0.121319 3.406734 1.248560
v 0.131434 3.355886 1.248560
v 0.160237 3.312779 1.248560
v 0.203344 3.283975 1.248560
v 0.218237 3.529493 1.212605
v 0.187756 3.500690 1.182123
v 0.167389 3.457583 1.161756
v 0.160237 3.406734 1.154604
v 0.167389 3.355886 1.161756
v 0.187756 3.312779 1.182123
v 0.218237 3.283975 1.212605
v 0.254193 3.529493 1.197711
v 0.254193 3.283975 1.197711
vn 0.3256 -0.5253 -0.7862
vn 0.3764 0.1807 -0.9087
vn 0.2243 0.8103 -0.5414
vn 0.2243 -0.8103 -0.5414
vn 0.3764 -0.1807 -0.9087
vn 0.3256 0.5253 -0.7862
vn 0.0805 0.9776 -0.1945
vn 0.0805 -0.9776 -0.1945
vn 0.5414 -0.8103 -0.2243
vn 0.9087 -0.1807 -0.3764
vn 0.7862 0.5253 -0.3256
vn 0.1945 0.9776 -0.0805
vn 0.1945 -0.9776 -0.0805
vn 0.7862 -0.5253 -0.3256
vn 0.9087 0.1807 -0.3764
vn 0.5414 0.8103 -0.2243
vn 0.7862 0.5253 0.3256
vn 0.1945 0.9776 0.0805
vn 0.1945 -0.9776 0.0805
vn 0.7862 -0.5253 0.3256
vn 0.9087 0.1807 0.3764
vn 0.5414 0.8103 0.2243
vn 0.5414 -0.8103 0.2243
vn 0.9087 -0.1807 0.3764
vn 0.0805 -0.9776 0.1945
vn 0.3256 -0.5253 0.7862
vn 0.3764 0.1807 0.9087
vn 0.2243 0.8103 0.5414
vn 0.2243 -0.8103 0.5414
vn 0.3764 -0.1807 0.9087
vn 0.3256 0.5253 0.7862
vn 0.0805 0.9776 0.1945
vn -0.2243 0.8103 0.5414
vn -0.2243 -0.8103 0.5414
vn -0.3764 -0.1807 0.9087
vn -0.3256 0.5253 0.7862
vn -0.0805 0.9776 0.1945
vn -0.0805 -0.9776 0.1945
vn -0.3256 -0.5253 0.7862
vn -0.3764 0.1807 0.9087
vn -0.5414 -0.8103 0.2243
vn -0.9087 -0.1807 0.3764
vn -0.7862 0.5253 0.3256
vn -0.1945 0.9776 0.0805
vn -0.1945 -0.9776 0.0805
vn -0.7862 -0.5253 0.3256
vn -0.9087 0.1807 0.3764
vn -0.5414 0.8103 0.2243
vn -0.1945 0.9776 -0.0805
vn -0.1945 -0.9776 -0.0805
vn -0.7862 -0.5253 -0.3256
vn -0.9087 0.1807 -0.3764
vn -0.5414 0.8103 -0.2243
vn -0.5414 -0.8103 -0.2243
vn -0.9087 -0.1807 -0.3764
vn -0.7862 0.5253 -0.3256
vn -0.3256 -0.5253 -0.7862
vn -0.3764 0.1807 -0.9087
vn -0.2243 0.8103 -0.5414
vn -0.2243 -0.8103 -0.5414
vn -0.3764 -0.1807 -0.9087
vn -0.3256 0.5253 -0.7862
vn -0.0805 0.9776 -0.1945
vn -0.0805 -0.9776 -0.1945
vt 0.750000 0.250000
vt 0.750000 0.375000
vt 0.625000 0.375000
vt 0.625000 0.250000
vt 0.750000 0.500000
vt 0.750000 0.625000
vt 0.625000 0.625000
vt 0.625000 0.500000
vt 0.750000 0.750000
vt 0.750000 0.875000
vt 0.625000 0.875000
vt 0.625000 0.750000
vt 0.750000 0.125000
vt 0.625000 0.125000
vt 0.687500 1.000000
vt 0.687500 0.000000
vt 0.500000 0.250000
vt 0.500000 0.125000
vt 0.500000 0.500000
vt 0.500000 0.375000
vt 0.500000 0.750000
vt 0.500000 0.625000
vt 0.562500 1.000000
vt 0.500000 0.875000
vt 0.562500 0.000000
vt 0.375000 0.750000
vt 0.375000 0.625000
vt 0.437500 1.000000
vt 0.375000 0.875000
vt 0.437500 0.000000
vt 0.375000 0.125000
vt 0.375000 0.375000
vt 0.375000 0.250000
vt 0.375000 0.500000
vt 0.312500 0.000000
vt 0.250000 0.125000
vt 0.250000 0.375000
vt 0.250000 0.250000
vt 0.250000 0.625000
vt 0.250000 0.500000
vt 0.250000 0.875000
vt 0.250000 0.750000
vt 0.312500 1.000000
vt 0.125000 0.875000
vt 0.125000 0.750000
vt 0.125000 0.250000
vt 0.125000 0.125000
vt 0.125000 0.500000
vt 0.125000 0.375000
vt 0.125000 0.625000
vt 0.187500 1.000000
vt 0.187500 0.000000
vt 0.000000 0.250000
vt 0.000000 0.125000
vt 0.000000 0.500000
vt 0.000000 0.375000
vt 0.000000 0.750000
vt 0.000000 0.625000
vt 0.062500 1.000000
vt 0.000000 0.875000
vt 0.062500 0.000000
vt 1.000000 0.875000
vt 0.937500 1.000000
vt 0.875000 0.875000
vt 0.937500 0.000000
vt 1.000000 0.125000
vt 0.875000 0.125000
vt 1.000000 0.250000
vt 1.000000 0.375000
vt 0.875000 0.375000
vt 0.875000 0.250000
vt 1.000000 0.500000
vt 1.000000 0.625000
vt 0.875000 0.625000
vt 0.875000 0.500000
vt 1.000000 0.750000
vt 0.875000 0.750000
vt 0.812500 1.000000
vt 0.812500 0.000000
s 0
f 341/305/314 340/306/314 347/307/314 348/308/314
f 339/309/315 338/310/315 345/311/315 346/312/315
f 337/313/316 392/314/316 343/315/316 344/316/316
f 393/317/317 341/305/317 348/308/317 349/318/317
f 340/306/318 339/309/318 346/312/318 347/307/318
f 338/310/319 337/313/319 344/316/319 345/311/319
f 392/314/320 336/319/320 343/315/320
f 342/320/321 393/317/321 349/318/321
f 349/318/322 348/308/322 355/321/322 356/322/322
f 347/307/323 346/312/323 353/323/323 354/324/323
f 345/311/324 344/316/324 351/325/324 352/326/324
f 343/315/325 336/327/325 350/328/325
f 342/329/326 349/318/326 356/322/326
f 348/308/327 347/307/327 354/324/327 355/321/327
f 346/312/328 345/311/328 352/326/328 353/323/328
f 344/316/329 343/315/329 350/328/329 351/325/329
f 352/326/330 351/325/330 358/330/330 359/331/330
f 350/328/331 336/332/331 357/333/331
f 342/334/332 356/322/332 363/335/332
f 355/321/333 354/324/333 361/336/333 362/337/333
f 353/323/334 352/326/334 359/331/334 360/338/334
f 351/325/335 350/328/335 357/333/335 358/330/335
f 356/322/336 355/321/336 362/337/336 363/335/336
f 354/324/337 353/323/337 360/338/337 361/336/337
f 342/339/338 363/335/338 370/340/338
f 362/337/339 361/336/339 368/341/339 369/342/339
f 360/338/340 359/331/340 366/343/340 367/344/340
f 358/330/341 357/333/341 364/345/341 365/346/341
f 363/335/342 362/337/342 369/342/342 370/340/342
f 361/336/343 360/338/343 367/344/343 368/341/343
f 359/331/344 358/330/344 365/346/344 366/343/344
f 357/333/345 336/347/345 364/345/345
f 365/346/346 364/345/346 371/348/346 372/349/346
f 370/340/347 369/342/347 376/350/347 377/351/347
f 368/341/348 367/344/348 374/352/348 375/353/348
f 366/343/349 365/346/349 372/349/349 373/354/349
f 364/345/350 336/355/350 371/348/350
f 342/356/351 370/340/351 377/351/351
f 369/342/352 368/341/352 375/353/352 376/350/352
f 367/344/353 366/343/353 373/354/353 374/352/353
f 377/351/354 376/350/354 383/357/354 384/358/354
f 375/353/355 374/352/355 381/359/355 382/360/355
f 373/354/356 372/349/356 379/361/356 380/362/356
f 371/348/357 336/363/357 378/364/357
f 342/365/358 377/351/358 384/358/358
f 376/350/359 375/353/359 382/360/359 383/357/359
f 374/352/360 373/354/360 380/362/360 381/359/360
f 372/349/361 371/348/361 378/364/361 379/361/361
f 378/366/362 336/367/362 385/368/362
f 342/369/363 384/370/363 391/371/363
f 383/372/364 382/373/364 389/374/364 390/375/364
f 381/376/365 380/377/365 387/378/365 388/379/365
f 379/380/366 378/366/366 385/368/366 386/381/366
f 384/370/367 383/372/367 390/375/367 391/371/367
f 382/373/368 381/376/368 388/379/368 389/374/368
f 380/377/369 379/380/369 386/381/369 387/378/369
f 390/375/370 389/374/370 340/306/370 341/305/370
f 388/379/371 387/378/371 338/310/371 339/309/371
f 386/381/372 385/368/372 392/314/372 337/313/372
f 391/371/373 390/375/373 341/305/373 393/317/373
f 389/374/374 388/379/374 339/309/374 340/306/374
f 387/378/375 386/381/375 337/313/375 338/310/375
f 385/368/376 336/382/376 392/314/376
f 342/383/377 391/371/377 393/317/377
