# Blender 5.0.1
# www.blender.org
mtllib item_radio.mtl
o Cube
v -0.352826 -0.446469 0.461036
v -0.352826 -0.446469 -0.145306
v 0.352145 -0.446469 0.461036
v 0.352145 -0.446469 -0.145306
v -0.167437 0.494658 0.404743
v -0.334534 0.022489 0.442744
v -0.286041 0.269239 0.429854
v -0.334534 0.022489 -0.127014
v -0.167437 0.493695 -0.127014
v -0.286041 0.269239 -0.127014
v 0.333853 0.022489 0.442744
v 0.166756 0.494658 0.404743
v 0.285360 0.269239 0.429854
v 0.166756 0.493695 -0.127014
v 0.333853 0.022489 -0.127014
v 0.285360 0.269239 -0.127014
v -0.000341 0.555681 0.357632
v -0.000341 0.570351 -0.127014
v -0.334534 -0.445402 -0.127014
v -0.334534 -0.445402 0.442744
v 0.333853 -0.445402 -0.127014
v 0.333853 -0.445402 0.442744
v -0.383046 -0.467514 -0.157444
v -0.383046 -0.467514 0.473174
v 0.382365 -0.467514 -0.157444
v 0.382365 -0.467514 0.473174
v 0.251826 -0.445402 -0.127014
v -0.252508 -0.445402 -0.127014
v -0.057840 0.493695 -0.127014
v 0.057158 0.493695 -0.127014
v -0.215917 0.269239 -0.127014
v 0.215236 0.269239 -0.127014
v -0.252508 0.022489 -0.127014
v 0.251826 0.022489 -0.127014
v 0.101207 0.537195 -0.127014
v 0.101207 0.524066 0.389824
v -0.101888 0.537195 -0.127014
v -0.101888 0.524066 0.389824
v -0.000341 0.523680 -0.127014
v 0.251826 -0.445402 -0.090564
v -0.252508 -0.445402 -0.090564
v -0.057840 0.493695 -0.090564
v 0.057158 0.493695 -0.090564
v -0.215917 0.269239 -0.090564
v 0.215236 0.269239 -0.090564
v -0.252508 0.022489 -0.090564
v 0.251826 0.022489 -0.090564
v -0.000341 0.523680 -0.090564
v 0.333853 0.002205 0.442744
v -0.334534 0.002205 0.442744
v -0.334534 0.002205 -0.127014
v 0.333853 0.002205 -0.127014
v 0.251826 0.002205 -0.127014
v -0.252508 0.002205 -0.127014
v 0.251826 0.002205 -0.090564
v -0.252508 0.002205 -0.090564
v 0.251826 0.022489 -0.147066
v -0.252508 0.022489 -0.147066
v 0.251826 0.002205 -0.147066
v -0.252508 0.002205 -0.147066
v -0.354585 0.022489 -0.147066
v -0.354585 0.002205 -0.147066
v 0.353904 0.022489 -0.147066
v 0.353904 0.002205 -0.147066
v -0.034840 0.493695 -0.090564
v 0.034159 0.493695 -0.090564
v -0.129687 0.269239 -0.090564
v 0.129005 0.269239 -0.090564
v -0.090737 0.022489 -0.090564
v 0.090055 0.022489 -0.090564
v -0.076148 0.002205 -0.090564
v 0.075466 0.002205 -0.090564
v -0.151641 -0.355880 -0.090564
v -0.050774 -0.408214 -0.090564
v 0.050093 -0.408214 -0.090564
v 0.150960 -0.355880 -0.090564
v -0.209848 -0.266359 -0.090564
v 0.209167 -0.266359 -0.090564
v -0.151641 -0.125469 -0.090564
v 0.150960 -0.125469 -0.090564
v -0.076148 -0.087316 -0.090564
v 0.075466 -0.087316 -0.090564
v -0.034840 0.493695 -0.065703
v 0.034159 0.493695 -0.065703
v -0.129687 0.269239 -0.065703
v 0.129005 0.269239 -0.065703
v -0.090737 0.022489 -0.065703
v 0.090055 0.022489 -0.065703
v -0.076148 0.002205 -0.065703
v 0.075466 0.002205 -0.065703
v -0.151641 -0.355880 -0.065703
v -0.050774 -0.408214 -0.065703
v 0.050093 -0.408214 -0.065703
v 0.150960 -0.355880 -0.065703
v -0.209848 -0.266359 -0.065703
v -0.050774 -0.266359 -0.065703
v 0.050093 -0.266359 -0.065703
v 0.209167 -0.266359 -0.065703
v -0.151641 -0.125469 -0.065703
v -0.050774 -0.212454 -0.065703
v 0.050093 -0.212454 -0.065703
v 0.150960 -0.125469 -0.065703
v -0.076148 -0.087316 -0.065703
v 0.075466 -0.087316 -0.065703
v -0.041237 -0.213908 -0.027108
v 0.059630 -0.213908 -0.027108
v -0.041237 -0.160004 -0.027108
v 0.059630 -0.160004 -0.027108
v -0.354585 0.022489 0.419816
v -0.354585 0.002205 0.419816
v 0.353904 0.022489 0.419816
v 0.353904 0.002205 0.419816
vn -0.0000 -0.0000 -1.0000
vn 0.2999 0.9536 0.0265
vn 0.7528 -0.0000 0.6583
vn -0.0000 -1.0000 -0.0000
vn -0.0000 0.4996 0.8662
vn 0.9892 -0.1467 -0.0000
vn -0.8176 -0.5758 -0.0000
vn -0.4851 0.8744 0.0101
vn 1.0000 -0.0000 -0.0000
vn -0.4624 -0.8867 -0.0000
vn -0.9892 -0.1467 -0.0000
vn 0.8176 -0.5758 -0.0000
vn 0.4624 -0.8867 -0.0000
vn -1.0000 -0.0000 -0.0000
vn -0.0000 1.0000 -0.0000
vn -0.0582 0.9983 -0.0000
vn 0.5715 0.8206 -0.0000
vn -0.0000 0.9983 0.0582
vn 0.4511 -0.8925 -0.0000
vn 0.9211 -0.3892 -0.0000
vn -0.9878 0.1559 -0.0000
vn -0.4605 0.8876 -0.0000
vn -0.8384 0.5451 -0.0000
vn -0.4510 -0.8925 -0.0000
vn 0.4605 0.8876 -0.0000
vn 0.9242 -0.3818 -0.0000
vn 0.9878 0.1559 -0.0000
vn 0.8118 0.5839 -0.0000
vn -0.9211 -0.3892 -0.0000
vn -0.9242 -0.3818 -0.0000
vn 0.8384 0.5451 -0.0000
vn -0.8118 0.5839 -0.0000
vn -0.0000 0.4996 -0.8662
vn -0.0000 0.9983 -0.0582
vn -0.9708 -0.0000 0.2399
vn -0.0000 0.5927 -0.8054
vn -0.0000 -0.5927 0.8054
vn 0.9708 -0.0000 -0.2399
vn -0.0000 0.4524 0.8918
vn -0.0000 0.7135 0.7007
vn -0.0000 0.1107 0.9939
vn 0.9812 0.1928 -0.0000
vn 0.0582 0.9983 -0.0000
vn -0.5715 0.8206 -0.0000
vn -0.0000 -0.0000 1.0000
vn 0.8846 0.4664 -0.0004
vn 0.4851 0.8744 0.0101
vn -0.2999 0.9536 0.0265
vn -0.8846 0.4664 -0.0004
vn -0.7528 -0.0000 0.6583
vn -0.9812 0.1928 -0.0000
vn -0.0000 0.0522 0.9986
vt 0.000000 0.000000
vt 0.625000 0.493810
vt 0.625000 0.500000
vt 0.625000 0.416667
vt 0.625000 0.427952
vt 0.526308 0.416667
vt 0.526308 0.500000
vt 0.625000 0.487621
vt 0.625000 0.750000
vt 0.519749 0.750000
vt 0.519749 0.739940
vt 0.526308 0.739939
vt 0.526308 0.750000
vt 0.519749 0.500000
vt 0.125000 0.750000
vt 0.375000 0.750000
vt 0.526308 0.250000
vt 0.625000 0.250000
vt 0.625000 0.333333
vt 0.526308 0.333333
vt 0.625000 0.283855
vt 0.625000 0.355904
vt 0.625000 0.000000
vt 0.519749 0.350000
vt 0.519749 0.333333
vt 0.526308 0.350000
vt 0.526308 0.400000
vt 0.625000 0.400000
vt 0.625000 0.413542
vt 0.625000 0.370313
vt 0.519749 0.416667
vt 0.461849 0.350000
vt 0.432899 0.350000
vt 0.519749 0.250000
vt 0.519749 0.010061
vt 0.526308 0.010061
vt 0.125000 0.500000
vt 0.375000 0.000000
vt 0.375000 0.500000
vt 0.526308 0.000000
vt 0.375000 0.416667
vt 0.403950 0.350000
vt 0.375000 0.333333
vt 0.490799 0.350000
vt 0.461849 0.400000
vt 0.490799 0.400000
vt 0.519749 0.400000
vt 0.403950 0.400000
vt 0.403950 0.383333
vt 0.432899 0.400000
vt 0.625000 0.350000
vt 0.403950 0.366667
vt 0.461849 0.383333
vt 0.461849 0.366667
vt 0.432899 0.383333
vt 0.432899 0.366667
vt 0.625000 0.783855
vt 0.519749 0.956647
s 1
f 30/1/1 39/1/1 35/2/1 14/3/1
f 32/4/1 30/5/1 14/3/1 16/3/1
f 34/6/1 32/4/1 16/3/1 15/7/1
f 35/2/2 18/8/2 17/9/2 36/9/2
f 49/10/3 112/11/3 111/12/3 11/13/3
f 49/10/4 52/14/4 64/1/4 112/11/4
f 1/15/5 24/15/5 26/16/5 3/16/5
f 8/17/1 10/18/1 31/19/1 33/20/1
f 33/20/6 31/19/6 44/19/6 46/20/6
f 10/18/1 9/21/1 29/22/1 31/19/1
f 30/5/7 32/4/7 45/4/7 43/5/7
f 37/18/8 9/21/8 5/23/8 38/23/8
f 71/24/1 56/25/1 46/20/1 69/26/1
f 70/27/1 68/28/1 45/4/1 47/6/1
f 68/28/1 66/29/1 43/5/1 45/4/1
f 65/30/1 48/1/1 66/29/1
f 54/25/9 33/20/9 46/20/9 56/25/9
f 39/1/10 30/1/10 43/1/10 48/1/10
f 32/4/11 34/6/11 47/6/11 45/4/11
f 31/19/12 29/22/12 42/22/12 44/19/12
f 29/1/13 39/1/13 48/1/13 42/1/13
f 18/8/1 35/2/1 39/1/1
f 39/1/1 37/18/1 18/18/1
f 9/21/1 37/18/1 39/1/1 29/22/1
f 34/6/14 53/31/14 55/31/14 47/6/14
f 79/32/1 77/33/1 56/25/1
f 21/1/9 52/14/9 49/10/9 22/1/9
f 53/31/14 34/6/14 57/6/14 59/31/14
f 59/31/1 57/6/1 63/1/1 64/1/1
f 51/34/4 62/34/4 60/25/4 54/25/4
f 33/20/9 54/25/9 60/25/9 58/20/9
f 62/34/14 110/35/14 109/36/14 61/17/14
f 11/13/15 111/12/15 63/1/15 15/7/15
f 52/14/4 53/31/4 59/31/4 64/1/4
f 19/37/16 2/37/16 1/15/16 20/38/16
f 23/37/4 25/39/4 26/16/4 24/15/4
f 26/16/17 25/39/17 4/39/17 3/16/17
f 1/15/18 3/16/18 22/1/18 20/38/18
f 61/17/15 109/36/15 6/40/15 8/17/15
f 40/41/14 55/31/14 53/31/14 27/1/14
f 77/33/1 73/42/1 41/43/1
f 77/33/1 41/43/1 56/25/1
f 56/25/1 71/24/1 81/44/1 79/32/1
f 55/31/1 80/45/1 82/46/1 72/47/1
f 21/1/1 27/1/1 53/31/1 52/14/1
f 76/48/1 40/41/1 75/49/1
f 80/45/1 55/31/1 78/50/1
f 79/32/19 81/44/19 103/44/19 99/32/19
f 67/51/20 65/30/20 83/30/20 85/51/20
f 40/41/1 76/48/1 78/50/1
f 43/1/1 66/29/1 48/1/1
f 68/28/21 70/27/21 88/27/21 86/28/21
f 81/44/9 71/24/9 89/24/9 103/44/9
f 78/50/1 55/31/1 40/41/1
f 76/48/22 75/49/22 93/49/22 94/48/22
f 42/22/1 48/1/1 65/30/1
f 75/49/15 74/52/15 92/52/15 93/49/15
f 74/52/1 75/49/1 40/41/1 41/43/1
f 41/43/9 28/43/9 54/25/9 56/25/9
f 84/29/4 83/30/4 65/30/4 66/29/4
f 78/50/23 76/48/23 94/48/23 98/50/23
f 82/46/24 80/45/24 102/45/24 104/46/24
f 44/19/1 42/22/1 65/30/1 67/51/1
f 74/52/25 73/42/25 91/42/25 92/52/25
f 77/33/26 79/32/26 99/32/26 95/33/26
f 69/26/27 67/51/27 85/51/27 87/26/27
f 46/20/1 44/19/1 67/51/1 69/26/1
f 71/24/28 69/26/28 87/26/28 89/24/28
f 72/47/14 82/46/14 104/46/14 90/47/14
f 66/29/29 68/28/29 86/28/29 84/29/29
f 55/31/1 72/47/1 70/27/1 47/6/1
f 80/45/30 78/50/30 98/50/30 102/45/30
f 73/42/31 77/33/31 95/33/31 91/42/31
f 70/27/32 72/47/32 90/47/32 88/27/32
f 23/37/33 2/37/33 4/39/33 25/39/33
f 2/37/34 19/37/34 21/39/34 4/39/34
f 102/45/1 101/53/1 104/46/1
f 100/54/1 103/44/1 104/46/1 101/53/1
f 100/54/1 99/32/1 103/44/1
f 98/50/1 97/55/1 101/53/1 102/45/1
f 101/53/35 97/55/35 106/55/35 108/53/35
f 96/56/1 95/33/1 99/32/1 100/54/1
f 98/50/1 94/48/1 97/55/1
f 93/49/1 92/52/1 96/56/1 97/55/1
f 94/48/1 93/49/1 97/55/1
f 87/26/1 88/27/1 90/47/1 89/24/1
f 86/28/1 88/27/1 87/26/1 85/51/1
f 86/28/1 85/51/1 83/30/1 84/29/1
f 92/52/1 91/42/1 96/56/1
f 95/33/1 96/56/1 91/42/1
f 106/55/1 105/56/1 107/54/1 108/53/1
f 97/55/36 96/56/36 105/56/36 106/55/36
f 100/54/37 101/53/37 108/53/37 107/54/37
f 96/56/38 100/54/38 107/54/38 105/56/38
f 36/9/39 38/23/39 5/23/39 12/57/39
f 17/9/40 38/23/40 36/9/40
f 5/23/41 7/23/41 13/9/41 12/57/41
f 11/13/42 15/7/42 16/3/42 13/9/42
f 62/34/4 51/34/4 50/58/4 110/35/4
f 4/39/43 21/39/43 22/1/43 3/16/43
f 2/37/44 23/37/44 24/15/44 1/15/44
f 22/1/45 49/10/45 50/58/45 20/38/45
f 64/1/9 63/1/9 111/12/9 112/11/9
f 20/38/14 50/58/14 51/34/14 19/37/14
f 13/9/46 16/3/46 14/3/46 12/57/46
f 15/7/15 63/1/15 57/6/15 34/6/15
f 36/9/47 12/57/47 14/3/47 35/2/47
f 38/23/48 17/9/48 18/18/48 37/18/48
f 5/23/49 9/21/49 10/18/49 7/23/49
f 50/58/50 6/40/50 109/36/50 110/35/50
f 7/23/51 10/18/51 8/17/51 6/40/51
f 90/47/1 104/46/1 103/44/1 89/24/1
f 33/20/15 58/20/15 61/17/15 8/17/15
f 60/25/1 62/34/1 61/17/1 58/20/1
f 40/41/15 27/41/15 28/43/15 41/43/15
f 49/10/45 11/13/45 6/40/45 50/58/45
f 7/23/52 6/40/52 11/13/52 13/9/52
f 73/42/1 74/52/1 41/43/1
f 28/43/1 19/37/1 51/34/1 54/25/1
