# Blender 5.0.1
# www.blender.org
mtllib geometrie_PcSetup.mtl
o PC
v -1.796352 -0.031193 0.211107
v -1.796352 1.901987 0.211107
v -1.796352 -0.031193 -0.508751
v -1.796352 1.901987 -0.508751
v 0.186330 -0.064603 0.244517
v 0.186330 1.935397 0.244517
v 0.186330 -0.064603 -0.542161
v 0.186330 1.935397 -0.542161
v -1.813670 -0.064603 -0.542161
v -1.813670 -0.064603 0.244517
v -1.813670 1.935397 0.244517
v -1.813670 1.935397 -0.542161
vn -1.0000 -0.0000 -0.0000
vn -0.0000 -0.0000 -1.0000
vn 1.0000 -0.0000 -0.0000
vn -0.0000 -0.0000 1.0000
vn -0.0000 -1.0000 -0.0000
vn -0.0000 1.0000 -0.0000
vn -0.8878 0.4602 -0.0000
vn -0.8878 -0.0000 -0.4602
vn -0.8878 -0.4602 -0.0000
vn -0.8878 -0.0000 0.4602
vt 0.379176 0.010618
vt 0.620824 0.010618
vt 0.620824 0.239382
vt 0.379176 0.239382
vt 0.375000 0.250000
vt 0.625000 0.250000
vt 0.625000 0.500000
vt 0.375000 0.500000
vt 0.625000 0.750000
vt 0.375000 0.750000
vt 0.625000 1.000000
vt 0.375000 1.000000
vt 0.125000 0.500000
vt 0.125000 0.750000
vt 0.875000 0.500000
vt 0.875000 0.750000
vt 0.375000 0.000000
vt 0.625000 0.000000
s 0
f 1/1/1 2/2/1 4/3/1 3/4/1
f 9/5/2 12/6/2 8/7/2 7/8/2
f 7/8/3 8/7/3 6/9/3 5/10/3
f 5/10/4 6/9/4 11/11/4 10/12/4
f 9/13/5 7/8/5 5/10/5 10/14/5
f 8/7/6 12/15/6 11/16/6 6/9/6
f 1/1/7 3/4/7 9/5/7 10/17/7
f 2/2/8 1/1/8 10/17/8 11/18/8
f 4/3/9 2/2/9 11/18/9 12/6/9
f 3/4/10 4/3/10 12/6/10 9/5/10
o Screan
v -0.681467 0.329893 -1.552169
v -1.075380 1.362448 -1.302167
v -0.681467 0.329893 -2.099243
v -1.075380 1.362448 -2.349245
v 0.179394 0.261386 -1.232177
v 0.179394 1.430956 -1.232177
v 0.179394 0.261386 -2.419235
v 0.179394 1.430956 -2.419235
v 0.204065 1.467781 -2.456060
v 0.204065 0.224561 -2.456060
v 0.204065 0.224561 -1.195353
v 0.204065 1.467781 -1.195353
v -0.058333 0.224561 -2.456060
v -0.058333 1.467781 -2.456060
v -0.058333 0.224561 -1.195353
v -0.058333 1.467781 -1.195353
v -0.345184 0.329893 -2.099243
v -0.239093 1.362448 -1.302167
v -0.239093 1.362448 -2.349245
v -0.345184 0.329893 -1.552169
v -1.075380 0.329893 -2.349245
v -1.075380 0.329893 -1.302167
v -0.239093 0.329893 -2.349245
v -0.239093 0.329893 -1.302167
v -0.681467 0.136644 -2.099243
v -0.681467 0.136644 -1.552169
v -0.345184 0.136644 -2.099243
v -0.345184 0.136644 -1.552169
v -0.769967 0.064493 -2.243216
v -0.769967 0.064493 -1.408196
v -0.256685 0.064493 -2.243216
v -0.256685 0.064493 -1.408196
v -0.820820 -0.001764 -2.325946
v -0.820820 -0.001764 -1.325466
v -0.205831 -0.001764 -2.325946
v -0.205831 -0.001764 -1.325466
v -0.820820 -0.097666 -2.325946
v -0.820820 -0.097666 -1.325466
v -0.205831 -0.097666 -2.325946
v -0.205831 -0.097666 -1.325466
vn -1.0000 -0.0000 -0.0000
vn -0.0000 -0.0000 -1.0000
vn 1.0000 -0.0000 -0.0000
vn -0.0000 -0.0000 1.0000
vn -0.0000 -1.0000 -0.0000
vn -0.0000 1.0000 -0.0000
vn 0.8308 -0.0000 0.5566
vn 0.8308 0.5566 -0.0000
vn 0.8308 -0.5566 -0.0000
vn 0.8308 -0.0000 -0.5566
vn -0.5035 -0.8640 -0.0000
vn -0.5087 -0.0000 -0.8609
vn -0.5035 0.8640 -0.0000
vn -0.5087 -0.0000 0.8609
vn -0.6319 0.7751 -0.0000
vn 0.7933 0.6089 -0.0000
vn 0.6319 0.7751 -0.0000
vn -0.0000 0.8940 -0.4480
vn -0.0000 0.8940 0.4480
vn -0.0000 0.7805 -0.6251
vn -0.0000 0.7805 0.6251
vn -0.7933 0.6089 -0.0000
vt 0.375000 0.000000
vt 0.625000 0.000000
vt 0.625000 0.250000
vt 0.375000 0.250000
vt 0.375000 0.375000
vt 0.625000 0.375000
vt 0.625000 0.500000
vt 0.375000 0.500000
vt 0.382405 0.507302
vt 0.617595 0.507302
vt 0.617595 0.742698
vt 0.382405 0.742698
vt 0.375000 0.937500
vt 0.625000 0.937500
vt 0.625000 1.000000
vt 0.375000 1.000000
vt 0.250000 0.500000
vt 0.375000 0.750000
vt 0.250000 0.750000
vt 0.812500 0.500000
vt 0.875000 0.500000
vt 0.875000 0.750000
vt 0.812500 0.750000
vt 0.625000 0.750000
vt 0.750000 0.500000
vt 0.750000 0.750000
vt 0.187500 0.500000
vt 0.187500 0.750000
vt 0.625000 0.875000
vt 0.375000 0.875000
vt 0.375000 0.312500
vt 0.625000 0.312500
vt 0.168816 0.690310
vt 0.143684 0.690310
vt 0.143684 0.559690
vt 0.125000 0.750000
vt 0.125000 0.500000
vt 0.168816 0.559690
s 0
f 34/19/11 14/20/11 16/21/11 33/22/11
f 25/23/12 26/24/12 21/25/12 22/26/12
f 19/27/13 20/28/13 18/29/13 17/30/13
f 36/31/14 30/32/14 14/33/14 34/34/14
f 25/35/15 22/26/15 23/36/15 27/37/15
f 31/38/16 16/39/16 14/40/16 30/41/16
f 20/28/17 19/27/17 22/26/17 21/25/17
f 19/27/18 17/30/18 23/36/18 22/26/18
f 18/29/19 20/28/19 21/25/19 24/42/19
f 17/30/20 18/29/20 24/42/20 23/36/20
f 21/25/16 26/43/16 28/44/16 24/42/16
f 35/45/21 25/35/21 27/37/21 36/46/21
f 23/36/14 24/42/14 28/47/14 27/48/14
f 35/49/22 31/50/22 26/24/22 25/23/22
f 33/22/12 16/21/12 31/50/12 35/49/12
f 32/51/14 13/52/14 38/52/14 40/51/14
f 26/43/23 31/38/23 30/41/23 28/44/23
f 27/48/24 28/47/24 30/32/24 36/31/24
f 15/53/15 13/52/15 34/54/15 33/55/15
f 29/56/15 15/53/15 33/55/15 35/45/15
f 13/52/15 32/51/15 36/46/15 34/54/15
f 32/51/15 29/56/15 35/45/15 36/46/15
f 38/52/25 37/53/25 41/53/25 42/52/25
f 13/52/11 15/53/11 37/53/11 38/52/11
f 29/56/13 32/51/13 40/51/13 39/56/13
f 15/53/12 29/56/12 39/56/12 37/53/12
f 43/56/26 44/51/26 48/51/26 47/56/26
f 39/56/27 40/51/27 44/51/27 43/56/27
f 37/53/28 39/56/28 43/56/28 41/53/28
f 40/51/29 38/52/29 42/52/29 44/51/29
f 48/51/14 46/52/14 50/52/14 52/51/14
f 41/53/30 43/56/30 47/56/30 45/53/30
f 44/51/31 42/52/31 46/52/31 48/51/31
f 42/52/32 41/53/32 45/53/32 46/52/32
f 49/53/15 51/56/15 52/51/15 50/52/15
f 46/52/11 45/53/11 49/53/11 50/52/11
f 47/56/13 48/51/13 52/51/13 51/56/13
f 45/53/12 47/56/12 51/56/12 49/53/12
o Keyboard
v 0.504262 0.000247 -0.809453
v 0.558539 0.110964 -0.852274
v 0.504262 0.000247 -2.809453
v 0.558539 0.110964 -2.766632
v 1.359990 -0.086598 -0.809453
v 1.329063 0.032766 -0.852274
v 1.359990 -0.086598 -2.809453
v 1.329063 0.032766 -2.766632
v 0.515937 0.115287 -0.809453
v 0.515937 0.115287 -2.809453
v 1.371665 0.028443 -2.809453
v 1.371665 0.028443 -0.809453
v 0.560051 0.125860 -0.852274
v 0.560051 0.125860 -2.766632
v 1.330575 0.047662 -2.766632
v 1.330575 0.047662 -0.852274
v 0.588866 -0.065511 -2.809453
v 0.600541 0.106701 -2.809453
v 0.588866 -0.065511 -0.809453
v 0.600541 0.106701 -0.809453
v 0.634719 0.103232 -2.766632
v 0.634719 0.103232 -0.852274
v 0.636231 0.118129 -2.766632
v 0.636231 0.118129 -0.852274
vn -0.9949 0.1010 -0.0000
vn -0.0000 -0.0000 -1.0000
vn 0.9949 -0.1010 -0.0000
vn -0.0000 -0.0000 1.0000
vn -0.0273 -0.9996 -0.0000
vn 0.1010 0.9949 -0.0000
vn -0.6137 -0.7896 -0.0000
vt 0.375000 0.000000
vt 0.625000 0.000000
vt 0.625000 0.250000
vt 0.375000 0.250000
vt 0.375000 0.375000
vt 0.625000 0.375000
vt 0.625000 0.500000
vt 0.375000 0.500000
vt 0.625000 0.750000
vt 0.375000 0.750000
vt 0.375000 0.875000
vt 0.625000 0.875000
vt 0.625000 1.000000
vt 0.375000 1.000000
vt 0.250000 0.500000
vt 0.250000 0.750000
vt 0.750000 0.744647
vt 0.637446 0.744647
vt 0.862554 0.744647
vt 0.862554 0.505353
vt 0.875000 0.500000
vt 0.875000 0.750000
vt 0.750000 0.505353
vt 0.637446 0.505353
vt 0.750000 0.500000
vt 0.750000 0.750000
vt 0.125000 0.500000
vt 0.125000 0.750000
s 0
f 53/57/33 61/58/33 62/59/33 55/60/33
f 69/61/34 70/62/34 63/63/34 59/64/34
f 59/64/35 63/63/35 64/65/35 57/66/35
f 71/67/36 72/68/36 61/69/36 53/70/36
f 69/71/37 59/64/37 57/66/37 71/72/37
f 74/73/36 58/74/36 68/74/36 76/73/36
f 54/75/38 56/76/38 62/77/38 61/78/38
f 73/79/38 60/80/38 63/63/38 70/81/38
f 60/80/38 58/74/38 64/65/38 63/63/38
f 74/73/38 54/75/38 61/78/38 72/82/38
f 75/79/38 66/76/38 65/75/38 76/73/38
f 73/79/34 56/76/34 66/76/34 75/79/34
f 58/74/35 60/80/35 67/80/35 68/74/35
f 56/76/33 54/75/33 65/75/33 66/76/33
f 60/80/34 73/79/34 75/79/34 67/80/34
f 67/80/38 75/79/38 76/73/38 68/74/38
f 58/74/38 74/73/38 72/82/38 64/65/38
f 56/76/38 73/79/38 70/81/38 62/77/38
f 54/75/36 74/73/36 76/73/36 65/75/36
f 55/83/39 69/71/39 71/72/39 53/84/39
f 57/66/36 64/65/36 72/68/36 71/67/36
f 55/60/34 62/59/34 70/62/34 69/61/34
o Mouse
v 0.655240 -0.043964 -3.138278
v 0.668877 0.002068 -3.152806
v 0.655240 -0.043964 -3.453922
v 0.668590 0.002029 -3.439683
v 1.202273 -0.037397 -3.167641
v 1.202273 0.034428 -3.167641
v 1.202273 -0.037397 -3.424559
v 1.202273 0.034428 -3.424559
v 0.919217 -0.043964 -3.453922
v 0.905868 0.049743 -3.439683
v 0.919217 -0.043964 -3.138278
v 0.905581 0.049704 -3.152806
v 0.655240 -0.043964 -3.296100
v 0.668590 0.002029 -3.298172
v 1.202273 -0.037397 -3.296100
v 1.202273 0.044278 -3.296100
v 0.905868 0.049743 -3.298172
v 0.919217 -0.043964 -3.296100
v 0.668877 0.002068 -3.293738
v 0.656455 -0.003261 -3.453922
v 0.918002 0.047768 -3.453922
v 0.905581 0.049704 -3.293738
v 0.918002 0.047768 -3.138278
v 0.656455 -0.003261 -3.138278
v 0.918002 0.047768 -3.296100
v 0.656455 -0.003261 -3.296100
v 1.083827 0.064262 -3.453922
v 1.084333 -0.043964 -3.138278
v 1.084333 -0.043964 -3.453922
v 1.083827 0.064262 -3.138278
v 1.083827 0.064262 -3.296100
v 1.084333 -0.043964 -3.296100
v 0.751163 0.040445 -3.308958
v 0.751163 0.040445 -3.285013
v 0.778989 0.024379 -3.308958
v 0.778989 0.024379 -3.285013
v 0.778989 -0.007752 -3.308958
v 0.778989 -0.007752 -3.285013
v 0.751163 -0.023818 -3.308958
v 0.751163 -0.023818 -3.285013
v 0.723336 -0.007752 -3.308958
v 0.723336 -0.007752 -3.285013
v 0.723336 0.024379 -3.308958
v 0.723336 0.024379 -3.285013
vn -0.9996 0.0298 -0.0000
vn 0.2412 0.0007 -0.9705
vn 1.0000 -0.0000 -0.0000
vn -0.0000 -0.0000 1.0000
vn 0.0556 -0.9985 -0.0000
vn -0.1973 0.9803 -0.0000
vn -0.0990 0.9951 -0.0000
vn -0.0000 -1.0000 -0.0000
vn -0.0000 -0.0000 -1.0000
vn -0.1971 0.9804 -0.0000
vn -0.3997 0.9167 -0.0000
vn -0.1884 0.9516 -0.2428
vn 0.1607 0.9870 -0.0000
vn -0.0976 0.4931 0.8645
vn -0.1887 0.9527 0.2382
vn 0.1540 0.9881 -0.0000
vn -0.3943 0.9190 -0.0000
vn -0.1073 0.5419 -0.8336
vn 0.2097 0.9772 -0.0336
vn 0.2412 0.0007 0.9705
vn 0.2097 0.9772 0.0336
vn 0.5000 0.8660 -0.0000
vn 0.5000 -0.8660 -0.0000
vn -0.5000 -0.8660 -0.0000
vn -1.0000 -0.0000 -0.0000
vn -0.5000 0.8660 -0.0000
vt 0.375000 0.125000
vt 0.625000 0.125000
vt 0.625000 0.250000
vt 0.375000 0.250000
vt 0.375000 0.437500
vt 0.625000 0.437500
vt 0.625000 0.500000
vt 0.375000 0.500000
vt 0.375000 0.625000
vt 0.625000 0.625000
vt 0.625000 0.750000
vt 0.375000 0.750000
vt 0.375000 0.875000
vt 0.625000 0.875000
vt 0.625000 1.000000
vt 0.375000 1.000000
vt 0.312500 0.625000
vt 0.312500 0.750000
vt 0.751212 0.627027
vt 0.873788 0.627027
vt 0.873788 0.747973
vt 0.751212 0.747973
vt 0.687500 0.625000
vt 0.750000 0.625000
vt 0.750000 0.750000
vt 0.687500 0.750000
vt 0.125000 0.625000
vt 0.250000 0.625000
vt 0.250000 0.750000
vt 0.125000 0.750000
vt 0.375000 0.812500
vt 0.625000 0.812500
vt 0.625000 0.375000
vt 0.375000 0.375000
vt 0.125000 0.500000
vt 0.250000 0.500000
vt 0.687500 0.500000
vt 0.750000 0.500000
vt 0.751063 0.501778
vt 0.873937 0.501778
vt 0.873937 0.623222
vt 0.751063 0.623222
vt 0.312500 0.500000
vt 0.375000 0.000000
vt 0.625000 0.000000
vt 0.875000 0.500000
vt 0.875000 0.625000
vt 0.875000 0.750000
vt 1.000000 0.500000
vt 1.000000 1.000000
vt 0.833333 1.000000
vt 0.833333 0.500000
vt 0.666667 1.000000
vt 0.666667 0.500000
vt 0.500000 1.000000
vt 0.500000 0.500000
vt 0.333333 1.000000
vt 0.333333 0.500000
vt 0.457846 0.370000
vt 0.250000 0.490000
vt 0.042154 0.370000
vt 0.042154 0.130000
vt 0.250000 0.010000
vt 0.457846 0.130000
vt 0.166667 1.000000
vt 0.166667 0.500000
vt -0.000000 1.000000
vt -0.000000 0.500000
vt 0.750000 0.490000
vt 0.957846 0.370000
vt 0.957846 0.130000
vt 0.750000 0.010000
vt 0.542154 0.130000
vt 0.542154 0.370000
s 0
f 89/85/40 102/86/40 96/87/40 79/88/40
f 105/89/41 103/90/41 84/91/41 83/92/41
f 91/93/42 92/94/42 82/95/42 81/96/42
f 87/97/43 99/98/43 100/99/43 77/100/43
f 108/101/44 91/93/44 81/96/44 104/102/44
f 98/103/45 95/104/45 78/105/45 88/106/45
f 107/107/46 101/108/46 99/109/46 106/110/46
f 89/111/47 94/112/47 87/113/47 77/114/47
f 104/115/43 106/116/43 99/98/43 87/97/43
f 79/88/48 96/87/48 97/117/48 85/118/48
f 79/119/47 85/120/47 94/112/47 89/111/47
f 103/121/46 97/122/46 101/108/46 107/107/46
f 86/123/49 80/124/49 90/125/49 93/126/49
f 105/127/44 83/92/44 91/93/44 108/101/44
f 83/92/42 84/91/42 92/94/42 91/93/42
f 77/128/40 100/129/40 102/86/40 89/85/40
f 90/125/50 80/124/50 96/130/50 102/131/50
f 80/124/51 86/123/51 97/122/51 96/130/51
f 86/123/52 93/126/52 101/108/52 97/122/52
f 93/126/53 90/125/53 102/131/53 101/108/53
f 88/106/54 78/105/54 100/132/54 99/109/54
f 98/103/55 88/106/55 99/109/55 101/108/55
f 78/105/56 95/104/56 102/131/56 100/132/56
f 95/104/57 98/103/57 101/108/57 102/131/57
f 85/120/47 105/127/47 108/101/47 94/112/47
f 84/91/58 103/121/58 107/107/58 92/94/58
f 81/96/59 82/95/59 106/116/59 104/115/59
f 92/94/60 107/107/60 106/110/60 82/95/60
f 94/112/47 108/101/47 104/102/47 87/113/47
f 85/118/48 97/117/48 103/90/48 105/89/48
f 109/133/61 110/134/61 112/135/61 111/136/61
f 111/136/42 112/135/42 114/137/42 113/138/42
f 113/138/62 114/137/62 116/139/62 115/140/62
f 115/140/63 116/139/63 118/141/63 117/142/63
f 112/143/43 110/144/43 120/145/43 118/146/43 116/147/43 114/148/43
f 117/142/64 118/141/64 120/149/64 119/150/64
f 119/150/65 120/149/65 110/151/65 109/152/65
f 109/153/48 111/154/48 113/155/48 115/156/48 117/157/48 119/158/48
