# Blender 4.5.0
# www.blender.org
mtllib Geometry_TV_Plate_Screen.mtl
o Screen
v 1.309904 45.831985 -17.910059
v 1.309904 16.810051 -17.910059
v 1.309904 45.831985 17.910059
v 1.309904 16.810051 17.910059
v -2.977170 49.138832 -21.991514
v -2.977170 13.503202 -21.991514
v -2.977170 49.138832 21.991514
v -2.977170 13.503202 21.991514
v -2.256812 11.094971 -11.059601
v -2.977170 9.391624 -3.327447
v -2.256812 9.391624 3.327447
v -2.256812 11.094971 11.059601
v 0.635115 9.391624 -3.327447
v 0.635115 11.094971 -11.059601
v 0.635115 11.094971 11.059601
v 1.309904 9.391624 3.327447
v 1.309904 49.138832 -21.991514
v 1.309904 13.503202 -21.991514
v 1.309904 49.138832 21.991514
v 1.309904 13.503202 21.991514
v 0.227454 45.831985 -17.910059
v 0.227454 16.810051 -17.910059
v 0.227454 45.831985 17.910059
v 0.227454 16.810051 17.910059
v 1.309904 13.503202 -21.991514
v 1.309904 9.391624 -3.327447
v -2.256812 9.391624 -3.327447
v -2.977170 13.503202 -21.991514
v -2.977170 13.503202 21.991514
v -2.977170 9.391624 3.327447
v 0.635115 9.391624 3.327447
v 1.309904 13.503202 21.991514
v 0.626965 4.229874 -3.233488
v -2.264960 4.229383 -3.236105
v -2.142515 4.173313 3.218782
v 0.748881 4.170689 3.255427
v 0.643263 4.264736 -11.150944
v -2.248662 4.264244 -11.153562
v -2.370578 4.323431 11.131621
v 0.520818 4.320807 11.168265
vn -0.0000 1.0000 -0.0000
vn -0.0000 -0.0000 1.0000
vn -1.0000 -0.0000 -0.0000
vn -0.0000 -0.0000 -1.0000
vn -0.0005 0.0179 0.9998
vn 0.9999 -0.0000 0.0146
vn -0.0000 -1.0000 -0.0000
vn 1.0000 -0.0000 -0.0000
vn -0.0000 -0.9766 -0.2151
vn -0.0000 -0.9766 0.2151
vn 0.0002 -1.0000 -0.0044
vn -0.0011 -0.9998 0.0189
vn 0.0005 0.0136 -0.9999
vn 1.0000 -0.0000 0.0010
vn -0.0063 0.0134 0.9999
vn -0.9999 -0.0000 -0.0146
vn -1.0000 -0.0000 -0.0010
vn 0.0063 0.0174 -0.9998
vt 0.625000 0.500000
vt 0.875000 0.500000
vt 0.875000 0.750000
vt 0.625000 0.750000
vt 0.375000 0.750000
vt 0.625000 1.000000
vt 0.375000 1.000000
vt 0.375000 0.000000
vt 0.625000 0.000000
vt 0.625000 0.250000
vt 0.375000 0.250000
vt 0.398199 0.726801
vt 0.398199 0.523199
vt 0.375000 0.500000
vt 0.310607 0.606087
vt 0.189393 0.606087
vt 0.310607 0.643913
vt 0.310607 0.687863
vt 0.375000 0.143913
vt 0.375000 0.106087
vt 0.189393 0.643913
vt 0.375000 0.750000
vt 0.375000 0.500000
vt 0.375000 0.643913
vt 0.375000 0.606087
vt 0.601801 0.523199
vt 0.601801 0.726801
vt 0.310607 0.562137
vt 0.189393 0.562137
vt 0.125000 0.606087
vt 0.125000 0.500000
vt 0.189393 0.687863
vt 0.125000 0.750000
vt 0.125000 0.643913
s 0
usemtl Material
f 17/1/1 5/2/1 7/3/1 19/4/1
f 20/5/2 19/4/2 7/6/2 8/7/2
f 8/8/3 7/9/3 5/10/3 6/11/3
f 4/12/1 2/13/1 22/13/1 24/12/1
f 6/11/4 5/10/4 17/1/4 18/14/4
f 13/15/5 27/16/5 34/16/5 33/15/5
f 31/17/6 15/18/6 40/18/6 36/17/6
f 8/8/3 6/11/3 28/11/3 10/19/3 30/20/3 29/8/3
f 27/16/7 13/15/7 31/17/7 11/21/7
f 6/11/1 18/14/1 25/14/1 28/11/1
f 20/22/1 8/7/1 29/7/1 32/22/1
f 18/23/8 20/5/8 32/5/8 16/24/8 26/25/8 25/23/8
f 1/26/8 2/13/8 18/14/8 17/1/8
f 4/12/8 3/27/8 19/4/8 20/5/8
f 3/27/8 1/26/8 17/1/8 19/4/8
f 2/13/8 4/12/8 20/5/8 18/14/8
f 22/13/8 21/26/8 23/27/8 24/12/8
f 3/27/4 4/12/4 24/12/4 23/27/4
f 1/26/7 3/27/7 23/27/7 21/26/7
f 2/13/2 1/26/2 21/26/2 22/13/2
f 13/15/9 14/28/9 25/23/9 26/25/9
f 9/29/9 27/16/9 10/30/9 28/31/9
f 14/28/9 9/29/9 28/31/9 25/23/9
f 11/21/10 12/32/10 29/33/10 30/34/10
f 15/18/10 31/17/10 16/24/10 32/22/10
f 12/32/10 15/18/10 32/22/10 29/33/10
f 27/16/7 11/21/7 30/34/7 10/30/7
f 31/17/7 13/15/7 26/25/7 16/24/7
f 33/15/11 34/16/11 38/29/11 37/28/11
f 35/21/12 36/17/12 40/18/12 39/32/12
f 9/29/13 14/28/13 37/28/13 38/29/13
f 14/28/14 13/15/14 33/15/14 37/28/14
f 15/18/15 12/32/15 39/32/15 40/18/15
f 12/32/16 11/21/16 35/21/16 39/32/16
f 27/16/17 9/29/17 38/29/17 34/16/17
f 11/21/18 31/17/18 36/17/18 35/21/18
o Feet
v -4.176510 1.894335 -24.584038
v -4.176510 4.282484 -24.584038
v -4.176510 1.894335 24.187714
v -4.176510 4.282484 24.187714
v 1.749551 1.894335 -24.584038
v 1.749551 4.282484 -24.584038
v 1.749551 1.894335 24.187714
v 1.749551 4.282484 24.187714
vn 1.0000 -0.0000 -0.0000
vn -0.0000 -0.0000 -1.0000
vn -1.0000 -0.0000 -0.0000
vn -0.0000 -0.0000 1.0000
vn -0.0000 1.0000 -0.0000
vn -0.0000 -1.0000 -0.0000
vt 0.375000 0.000000
vt 0.625000 0.000000
vt 0.625000 0.250000
vt 0.375000 0.250000
vt 0.625000 0.500000
vt 0.375000 0.500000
vt 0.625000 0.750000
vt 0.375000 0.750000
vt 0.625000 1.000000
vt 0.375000 1.000000
vt 0.125000 0.500000
vt 0.125000 0.750000
vt 0.875000 0.500000
vt 0.875000 0.750000
s 0
usemtl Material
f 41/35/19 42/36/19 44/37/19 43/38/19
f 43/38/20 44/37/20 48/39/20 47/40/20
f 47/40/21 48/39/21 46/41/21 45/42/21
f 45/42/22 46/41/22 42/43/22 41/44/22
f 43/45/23 47/40/23 45/42/23 41/46/23
f 48/39/24 44/47/24 42/48/24 46/41/24
