# Blender 4.5.0
# www.blender.org
mtllib geometry_door_small.mtl
o Cube.006
v 10.774294 16.858990 42.760242
v 10.774294 16.858990 43.669201
v 10.877288 16.816328 42.760242
v 10.877288 16.816328 43.669201
v 10.919950 16.713333 42.760242
v 10.919950 16.713333 43.669201
v 10.877288 16.610338 42.760242
v 10.877288 16.610338 43.669201
v 10.774294 16.567677 42.760242
v 10.774294 16.567677 43.669201
v 10.671300 16.610338 42.760242
v 10.671300 16.610338 43.669201
v 10.628638 16.713333 42.760242
v 10.628638 16.713333 43.669201
v 10.671300 16.816328 42.760242
v 10.671300 16.816328 43.669201
v 10.774294 16.713333 43.669201
v 10.774294 16.713333 42.760242
v 8.235224 13.067077 43.386265
v 8.235224 19.631874 43.386265
v 8.235224 13.067077 43.024075
v 8.235224 19.631874 43.024075
v 11.232508 13.067077 43.386265
v 11.232508 19.631874 43.386265
v 11.232508 13.067077 43.024075
v 11.232508 19.631874 43.024075
vn 0.3827 0.9239 -0.0000
vn 0.9239 0.3827 -0.0000
vn 0.9239 -0.3827 -0.0000
vn 0.3827 -0.9239 -0.0000
vn -0.3827 -0.9239 -0.0000
vn -0.9239 -0.3827 -0.0000
vn -0.9239 0.3827 -0.0000
vn -0.3827 0.9239 -0.0000
vn -0.0000 -0.0000 1.0000
vn -0.0000 -0.0000 -1.0000
vn -1.0000 -0.0000 -0.0000
vn 1.0000 -0.0000 -0.0000
vn -0.0000 -1.0000 -0.0000
vn -0.0000 1.0000 -0.0000
vt 1.000000 0.500000
vt 1.000000 1.000000
vt 0.875000 1.000000
vt 0.875000 0.500000
vt 0.750000 1.000000
vt 0.750000 0.500000
vt 0.625000 1.000000
vt 0.625000 0.500000
vt 0.500000 1.000000
vt 0.500000 0.500000
vt 0.375000 1.000000
vt 0.375000 0.500000
vt 0.250000 1.000000
vt 0.250000 0.500000
vt 0.125000 1.000000
vt 0.125000 0.500000
vt 0.000000 1.000000
vt 0.000000 0.500000
vt 0.419706 0.419706
vt 0.250000 0.490000
vt 0.250000 0.250000
vt 0.080294 0.419706
vt 0.010000 0.250000
vt 0.080294 0.080294
vt 0.250000 0.010000
vt 0.419706 0.080294
vt 0.490000 0.250000
vt 0.750000 0.490000
vt 0.919706 0.419706
vt 0.750000 0.250000
vt 0.990000 0.250000
vt 0.919706 0.080294
vt 0.750000 0.010000
vt 0.580294 0.080294
vt 0.510000 0.250000
vt 0.580294 0.419706
vt 0.375000 0.000000
vt 0.625000 0.000000
vt 0.625000 0.250000
vt 0.375000 0.250000
vt 0.625000 0.750000
vt 0.375000 0.750000
vt 0.125000 0.750000
vt 0.875000 0.750000
s 0
f 1/1/1 2/2/1 4/3/1 3/4/1
f 3/4/2 4/3/2 6/5/2 5/6/2
f 5/6/3 6/5/3 8/7/3 7/8/3
f 7/8/4 8/7/4 10/9/4 9/10/4
f 9/10/5 10/9/5 12/11/5 11/12/5
f 11/12/6 12/11/6 14/13/6 13/14/6
f 13/14/7 14/13/7 16/15/7 15/16/7
f 15/16/8 16/15/8 2/17/8 1/18/8
f 4/19/9 2/20/9 17/21/9
f 2/20/9 16/22/9 17/21/9
f 16/22/9 14/23/9 17/21/9
f 14/23/9 12/24/9 17/21/9
f 12/24/9 10/25/9 17/21/9
f 10/25/9 8/26/9 17/21/9
f 8/26/9 6/27/9 17/21/9
f 6/27/9 4/19/9 17/21/9
f 1/28/10 3/29/10 18/30/10
f 3/29/10 5/31/10 18/30/10
f 5/31/10 7/32/10 18/30/10
f 7/32/10 9/33/10 18/30/10
f 9/33/10 11/34/10 18/30/10
f 11/34/10 13/35/10 18/30/10
f 13/35/10 15/36/10 18/30/10
f 15/36/10 1/28/10 18/30/10
f 19/37/11 20/38/11 22/39/11 21/40/11
f 21/40/10 22/39/10 26/8/10 25/12/10
f 25/12/12 26/8/12 24/41/12 23/42/12
f 23/42/9 24/41/9 20/7/9 19/11/9
f 21/16/13 25/12/13 23/42/13 19/43/13
f 26/8/14 22/4/14 20/44/14 24/41/14
