# Blender 5.0.1
# www.blender.org
mtllib geometrie_Bed.mtl
o Bed
v -1.410339 -0.031821 0.963719
v -1.410339 0.116104 0.963719
v -1.410339 -0.031821 -0.954405
v -1.410339 0.116104 -0.954405
v 1.450487 -0.031821 0.963719
v 1.450487 0.116104 0.963719
v 1.450487 -0.031821 -0.954405
v 1.450487 0.116104 -0.954405
v -1.451019 -0.228824 1.028848
v -1.451019 0.050330 1.028848
v -1.451019 -0.228824 -1.019535
v -1.451019 0.050330 -1.019535
v 1.484735 -0.228824 1.028848
v 1.484735 0.050330 1.028848
v 1.484735 -0.228824 -1.019535
v 1.484735 0.050330 -1.019535
v 0.943682 0.089971 0.873721
v 0.933842 0.237569 0.873721
v 0.943682 0.089971 0.080100
v 0.933842 0.237569 0.080100
v 1.454840 0.124052 0.873721
v 1.444998 0.271649 0.873721
v 1.454840 0.124052 0.080100
v 1.444998 0.271649 0.080100
v 0.943682 0.089971 -0.031790
v 0.933842 0.237569 -0.031790
v 0.943682 0.089971 -0.825412
v 0.933842 0.237569 -0.825412
v 1.454840 0.124052 -0.031790
v 1.444998 0.271649 -0.031790
v 1.454840 0.124052 -0.825412
v 1.444998 0.271649 -0.825412
v -1.643333 -0.263673 0.952502
v -1.675190 -0.253439 0.966453
v -1.643333 -0.221494 -0.929520
v -1.738663 -0.212827 -0.944494
v 0.930115 -0.274842 1.292531
v 0.930115 -0.253400 1.321761
v 0.930115 -0.270825 -1.294485
v 0.930115 -0.252663 -1.325859
v -1.643333 -0.269102 -0.506962
v -1.643333 -0.269102 0.465746
v -1.675190 -0.251800 0.465746
v -1.675190 -0.251800 -0.506962
v 0.930115 0.152600 0.465745
v 0.930115 0.152600 -0.506962
v 0.930115 0.188852 -0.506962
v 0.930115 0.188852 0.465745
v 0.930115 0.139160 -1.057158
v 0.930115 0.157321 -1.088532
v 0.930115 0.148943 1.026623
v 0.930115 0.127502 0.997392
v -1.401930 -0.259417 -1.314192
v -1.547296 -0.250749 -1.329165
v -1.401930 -0.261375 1.310891
v -1.433786 -0.251141 1.324841
v -1.547296 0.192672 -0.506962
v -1.458033 0.192672 0.465746
v -1.401930 0.175371 -0.506962
v -1.401930 0.175371 0.465746
v -1.401930 0.150568 -1.076864
v -1.497261 0.159236 -1.091838
v -1.433786 0.151203 1.029704
v -1.401930 0.140969 1.015753
vn -1.0000 -0.0000 -0.0000
vn -0.0000 -0.0000 -1.0000
vn 1.0000 -0.0000 -0.0000
vn -0.0000 -0.0000 1.0000
vn -0.0000 -1.0000 -0.0000
vn -0.0000 1.0000 -0.0000
vn -0.9978 -0.0665 -0.0000
vn 0.9978 0.0665 -0.0000
vn 0.0665 -0.9978 -0.0000
vn -0.0665 0.9978 -0.0000
vn -0.1898 -0.9782 -0.0845
vn -0.0217 -0.9310 -0.3643
vn -0.0746 -0.9970 0.0226
vn -0.0000 -0.8654 -0.5010
vn -0.0838 -0.8851 0.4578
vn -0.1876 -0.9457 0.2654
vn -0.2355 -0.9578 0.1648
vn -0.0098 -0.5914 -0.8063
vn -0.9803 0.1739 -0.0938
vn -0.9314 0.3615 0.0427
vn -0.0075 -0.9994 0.0341
vn -0.0098 -1.0000 -0.0000
vn -0.7689 0.3782 0.5155
vn -0.4773 -0.8788 -0.0000
vn -0.0098 -0.5010 0.8654
vn -0.9483 0.2729 0.1619
vn -0.3961 -0.9182 0.0035
vn -0.0080 -0.9985 -0.0549
vn 0.0013 0.9974 0.0721
vn 0.0016 0.5009 -0.8655
vn 0.8547 -0.4571 0.2462
vn 0.8788 -0.4773 -0.0000
vn 0.8775 -0.4766 -0.0537
vn 0.0016 1.0000 -0.0001
vn 0.0012 0.9985 -0.0556
vn 0.0016 0.5915 0.8063
vn -0.0000 -0.8063 0.5915
vn -0.0784 -0.9955 0.0540
vn -0.6149 0.6941 -0.3743
vn -0.0070 -0.9999 0.0112
vn 0.9312 -0.3238 -0.1673
vn -0.8985 0.4390 0.0014
vn -0.8615 0.5024 0.0740
vt 0.375000 0.000000
vt 0.625000 0.000000
vt 0.625000 0.250000
vt 0.375000 0.250000
vt 0.625000 0.500000
vt 0.375000 0.500000
vt 0.625000 0.750000
vt 0.375000 0.750000
vt 0.625000 1.000000
vt 0.375000 1.000000
vt 0.125000 0.500000
vt 0.125000 0.750000
vt 0.875000 0.500000
vt 0.875000 0.750000
vt 0.125000 0.581169
vt 0.625000 0.168831
vt 0.375000 0.294200
vt 0.625000 0.294200
vt 0.375000 0.707251
vt 0.625000 0.707251
vt 0.375000 0.955800
vt 0.625000 0.955800
vt 0.169200 0.707251
vt 0.169200 0.750000
vt 0.830800 0.540584
vt 0.830800 0.500000
vt 0.830800 0.581169
vt 0.875000 0.581169
vt 0.875000 0.664502
vt 0.830800 0.664502
vt 0.169200 0.540584
vt 0.375000 0.540584
vt 0.375000 0.581169
vt 0.169200 0.581169
vt 0.375000 0.664502
vt 0.169200 0.664502
vt 0.625000 0.540584
vt 0.625000 0.581169
vt 0.625000 0.664502
vt 0.830800 0.707251
vt 0.375000 0.085498
vt 0.625000 0.085498
vt 0.375000 0.168831
vt 0.169200 0.500000
vt 0.125000 0.664502
vt 0.830800 0.750000
s 1
usemtl Sofa.001
f 1/1/1 2/2/1 4/3/1 3/4/1
f 3/4/2 4/3/2 8/5/2 7/6/2
f 7/6/3 8/5/3 6/7/3 5/8/3
f 5/8/4 6/7/4 2/9/4 1/10/4
f 3/11/5 7/6/5 5/8/5 1/12/5
f 8/5/6 4/13/6 2/14/6 6/7/6
f 9/1/1 10/2/1 12/3/1 11/4/1
f 11/4/2 12/3/2 16/5/2 15/6/2
f 15/6/3 16/5/3 14/7/3 13/8/3
f 13/8/4 14/7/4 10/9/4 9/10/4
f 11/11/5 15/6/5 13/8/5 9/12/5
f 16/5/6 12/13/6 10/14/6 14/7/6
f 17/1/7 18/2/7 20/3/7 19/4/7
f 19/4/2 20/3/2 24/5/2 23/6/2
f 23/6/8 24/5/8 22/7/8 21/8/8
f 21/8/4 22/7/4 18/9/4 17/10/4
f 19/11/9 23/6/9 21/8/9 17/12/9
f 24/5/10 20/13/10 18/14/10 22/7/10
f 25/1/7 26/2/7 28/3/7 27/4/7
f 27/4/2 28/3/2 32/5/2 31/6/2
f 31/6/8 32/5/8 30/7/8 29/8/8
f 29/8/4 30/7/4 26/9/4 25/10/4
f 27/11/9 31/6/9 29/8/9 25/12/9
f 32/5/10 28/13/10 26/14/10 30/7/10
f 35/4/11 41/15/11 44/16/11 36/3/11
f 53/17/12 54/18/13 40/5/14 39/6/14
f 52/19/3 51/20/3 38/7/3 37/8/3
f 55/21/15 56/22/16 34/9/17 33/10/17
f 64/23/18 52/19/18 37/8/18 55/24/18
f 62/25/19 54/26/19 57/27/19
f 57/27/20 44/28/20 43/29/20 58/30/20
f 61/31/21 49/32/21 46/33/21 59/34/21
f 59/34/22 46/33/22 45/35/22 60/36/22
f 49/32/3 50/37/3 47/38/3 46/33/3
f 46/33/3 47/38/3 48/39/3 45/35/3
f 34/9/23 56/22/23 63/40/23
f 42/41/24 43/42/24 44/16/24 41/43/24
f 39/6/3 40/5/3 50/37/3 49/32/3
f 53/44/25 39/6/25 49/32/25 61/31/25
f 57/27/26 36/3/26 44/28/26
f 33/10/27 34/9/27 43/42/27 42/41/27
f 60/36/28 45/35/28 52/19/28 64/23/28
f 45/35/3 48/39/3 51/20/3 52/19/3
f 48/39/29 58/30/29 63/40/29 51/20/29
f 40/5/30 54/26/30 62/25/30 50/37/30
f 35/4/31 53/44/31 61/31/31 59/34/31
f 41/15/32 59/34/32 60/36/32 42/45/32
f 59/34/33 41/15/33 35/4/33
f 47/38/34 57/27/34 58/30/34 48/39/34
f 50/37/35 62/25/35 57/27/35 47/38/35
f 51/20/36 63/40/36 56/46/36 38/7/36
f 37/8/37 38/7/37 56/22/16 55/21/15
f 35/4/38 36/3/38 54/18/13 53/17/12
f 57/27/39 54/26/39 36/3/39
f 42/41/40 55/21/40 33/10/40
f 42/41/41 60/36/41 64/23/41 55/21/41
f 58/30/42 43/29/42 34/9/42
f 63/40/43 58/30/43 34/9/43
