# Blender 4.5.0
# www.blender.org
mtllib Geometry_Wheel_Chair.mtl
o Cube
v 2.121064 4.613275 -0.248321
v 2.121064 4.116632 -0.248321
v 2.121064 4.613275 0.248321
v 2.121064 4.116632 0.248321
v -2.121064 4.613275 -0.248321
v -2.121064 4.116632 -0.248321
v -2.121064 4.613275 0.248321
v -2.121064 4.116632 0.248321
v -1.614858 4.116632 -0.248321
v -1.614858 4.613275 0.248321
v -1.614858 4.116632 0.248321
v -1.614858 4.613275 -0.248321
v -1.986197 3.517602 -0.124449
v -1.986197 3.517602 0.097709
v -1.749725 3.517602 -0.124449
v -1.749725 3.517602 0.097709
v -2.121064 3.517602 -0.248321
v -2.121064 3.517602 0.248321
v -1.614858 3.517602 -0.248321
v -1.614858 3.517602 0.248321
v -1.986197 3.246249 -0.124449
v -1.986197 3.246249 0.097709
v -1.749725 3.246249 -0.124449
v -1.749725 3.246249 0.097709
v 2.351022 4.613275 -0.125591
v 2.351022 4.116632 -0.125591
v 1.932382 4.613275 0.141607
v 1.932382 4.116632 0.141607
v 0.068722 4.613275 -3.701449
v 0.068722 4.116632 -3.701449
v -0.349917 4.613275 -3.434251
v -0.349917 4.116632 -3.434251
v 0.341065 4.116632 -3.274748
v -0.077574 4.613275 -3.007550
v -0.077574 4.116632 -3.007550
v 0.341065 4.613275 -3.274748
v 0.036865 3.517601 -3.521120
v -0.150401 3.517601 -3.401597
v 0.164089 3.517601 -3.321788
v -0.023177 3.517601 -3.202265
v 0.068722 3.517601 -3.701449
v -0.349917 3.517601 -3.434251
v 0.341065 3.517601 -3.274748
v -0.077574 3.517601 -3.007550
v 0.036865 3.246249 -3.521120
v -0.150401 3.246249 -3.401597
v 0.164089 3.246249 -3.321788
v -0.023177 3.246249 -3.202265
v 2.371286 4.613274 0.134280
v 2.371286 4.116632 0.134280
v 1.920823 4.613274 -0.074853
v 1.920823 4.116632 -0.074853
v 4.157624 4.613274 -3.713401
v 4.157624 4.116632 -3.713401
v 3.707160 4.613274 -3.922535
v 3.707160 4.116632 -3.922535
v 3.944463 4.116632 -3.254264
v 3.494000 4.613274 -3.463397
v 3.494000 4.116632 -3.463397
v 3.944463 4.613274 -3.254264
v 3.988478 3.517601 -3.643237
v 3.786977 3.517601 -3.736786
v 3.888900 3.517601 -3.428752
v 3.687399 3.517601 -3.522301
v 4.157624 3.517601 -3.713401
v 3.707160 3.517601 -3.922535
v 3.944463 3.517601 -3.254264
v 3.494000 3.517601 -3.463397
v 3.988478 3.246248 -3.643237
v 3.786977 3.246248 -3.736786
v 3.888900 3.246248 -3.428752
v 3.687399 3.246248 -3.522301
v 2.163133 4.613274 0.291175
v 2.163133 4.116631 0.291175
v 2.097067 4.613274 -0.201054
v 2.097067 4.116631 -0.201054
v 6.367561 4.613274 -0.273134
v 6.367561 4.116631 -0.273134
v 6.301495 4.613274 -0.765363
v 6.301495 4.116631 -0.765363
v 5.865854 4.116631 -0.205796
v 5.799788 4.613274 -0.698025
v 5.799788 4.116631 -0.698025
v 5.865854 4.613274 -0.205796
v 6.217415 3.517600 -0.377965
v 6.187862 3.517600 -0.598149
v 5.983044 3.517600 -0.346509
v 5.953491 3.517600 -0.566692
v 6.367561 3.517600 -0.273134
v 6.301495 3.517600 -0.765363
v 5.865854 3.517600 -0.205796
v 5.799788 3.517600 -0.698025
v 6.217415 3.246248 -0.377965
v 6.187862 3.246248 -0.598149
v 5.983044 3.246248 -0.346509
v 5.953491 3.246248 -0.566692
v 1.918893 4.613273 0.200125
v 1.918893 4.116631 0.200125
v 2.298268 4.613273 -0.120388
v 2.298268 4.116631 -0.120388
v 4.656588 4.613273 3.440601
v 4.656588 4.116631 3.440601
v 5.035963 4.613273 3.120088
v 5.035963 4.116631 3.120088
v 4.329903 4.116631 3.053920
v 4.709279 4.613273 2.733408
v 4.709279 4.116631 2.733408
v 4.329903 4.613273 3.053920
v 4.664175 3.517600 3.257637
v 4.833876 3.517600 3.114265
v 4.511564 3.517600 3.077000
v 4.681266 3.517600 2.933629
v 4.656588 3.517600 3.440601
v 5.035963 3.517600 3.120088
v 4.329903 3.517600 3.053920
v 4.709279 3.517600 2.733408
v 4.664175 3.246247 3.257637
v 4.833876 3.246247 3.114265
v 4.511564 3.246247 3.077000
v 4.681266 3.246247 2.933629
v 1.864239 4.613273 -0.054741
v 1.864239 4.116630 -0.054741
v 2.338519 4.613273 0.092611
v 2.338519 4.116630 0.092611
v 0.605615 4.613273 3.996373
v 0.605615 4.116630 3.996373
v 1.079895 4.613273 4.143725
v 1.079895 4.116630 4.143725
v 0.755805 4.116630 3.512960
v 1.230085 4.613273 3.660313
v 1.230085 4.116630 3.660313
v 0.755805 4.613273 3.512960
v 0.763925 3.517599 3.904332
v 0.976079 3.517599 3.970245
v 0.834085 3.517599 3.678507
v 1.046239 3.517599 3.744420
v 0.605615 3.517599 3.996373
v 1.079895 3.517599 4.143725
v 0.755805 3.517599 3.512960
v 1.230085 3.517599 3.660313
v 0.763925 3.246247 3.904332
v 0.976079 3.246247 3.970245
v 0.834085 3.246247 3.678507
v 1.046239 3.246247 3.744420
vn -0.0000 -1.0000 -0.0000
vn -0.0000 -0.0000 -1.0000
vn 1.0000 -0.0000 -0.0000
vn -0.0000 1.0000 -0.0000
vn -1.0000 -0.0000 -0.0000
vn -0.0000 -0.0000 1.0000
vn 0.8429 -0.0000 -0.5380
vn 0.5380 -0.0000 0.8429
vn -0.5380 -0.0000 -0.8429
vn -0.8429 -0.0000 0.5380
vn 0.9070 -0.0000 0.4211
vn -0.4211 -0.0000 0.9070
vn 0.4211 -0.0000 -0.9070
vn -0.9070 -0.0000 -0.4211
vn 0.1330 -0.0000 0.9911
vn -0.9911 -0.0000 0.1330
vn 0.9911 -0.0000 -0.1330
vn -0.1330 -0.0000 -0.9911
vn -0.7639 -0.0000 0.6454
vn -0.6454 -0.0000 -0.7639
vn 0.6454 -0.0000 0.7639
vn 0.7639 -0.0000 -0.6454
vn 0.9550 -0.0000 0.2967
vn -0.2967 -0.0000 0.9550
vn 0.2967 -0.0000 -0.9550
vn -0.9550 -0.0000 -0.2967
vt 0.845168 0.500000
vt 0.845168 0.750000
vt 0.875000 0.750000
vt 0.875000 0.500000
vt 0.375000 0.970168
vt 0.375000 1.000000
vt 0.625000 1.000000
vt 0.625000 0.970168
vt 0.375000 0.000000
vt 0.375000 0.250000
vt 0.625000 0.250000
vt 0.625000 0.000000
vt 0.154832 0.500000
vt 0.154832 0.750000
vt 0.375000 0.750000
vt 0.375000 0.500000
vt 0.625000 0.750000
vt 0.625000 0.500000
vt 0.375000 0.279832
vt 0.625000 0.279832
vt 0.146884 0.562355
vt 0.146884 0.674185
vt 0.132948 0.562355
vt 0.125000 0.500000
vt 0.125000 0.750000
vt 0.132948 0.674185
s 0
usemtl Material
f 12/1/1 10/2/1 7/3/1 5/4/1
f 11/5/2 8/6/2 7/7/2 10/8/2
f 8/9/3 6/10/3 5/11/3 7/12/3
f 9/13/4 11/14/4 4/15/4 2/16/4
f 2/16/5 4/15/5 3/17/5 1/18/5
f 9/19/6 2/16/6 1/18/6 12/20/6
f 6/10/6 9/19/6 12/20/6 5/11/6
f 9/13/5 19/13/5 20/14/5 11/14/5
f 4/15/2 11/5/2 10/8/2 3/17/2
f 1/18/1 3/17/1 10/2/1 12/1/1
f 15/21/5 23/21/5 24/22/5 16/22/5
f 8/9/3 18/9/3 17/10/3 6/10/3
f 11/5/2 20/5/2 18/6/2 8/6/2
f 6/10/6 17/10/6 19/19/6 9/19/6
f 13/23/4 17/24/4 18/25/4 14/26/4
f 15/21/4 19/13/4 17/24/4 13/23/4
f 14/26/4 18/25/4 20/14/4 16/22/4
f 16/22/4 20/14/4 19/13/4 15/21/4
f 21/23/4 22/26/4 24/22/4 23/21/4
f 13/23/6 21/23/6 23/21/6 15/21/6
f 16/22/2 24/22/2 22/26/2 14/26/2
f 14/26/3 22/26/3 21/23/3 13/23/3
f 36/1/1 34/2/1 31/3/1 29/4/1
f 35/5/7 32/6/7 31/7/7 34/8/7
f 32/9/8 30/10/8 29/11/8 31/12/8
f 33/13/4 35/14/4 28/15/4 26/16/4
f 26/16/9 28/15/9 27/17/9 25/18/9
f 33/19/10 26/16/10 25/18/10 36/20/10
f 30/10/10 33/19/10 36/20/10 29/11/10
f 33/13/9 43/13/9 44/14/9 35/14/9
f 28/15/7 35/5/7 34/8/7 27/17/7
f 25/18/1 27/17/1 34/2/1 36/1/1
f 39/21/9 47/21/9 48/22/9 40/22/9
f 32/9/8 42/9/8 41/10/8 30/10/8
f 35/5/7 44/5/7 42/6/7 32/6/7
f 30/10/10 41/10/10 43/19/10 33/19/10
f 37/23/4 41/24/4 42/25/4 38/26/4
f 39/21/4 43/13/4 41/24/4 37/23/4
f 38/26/4 42/25/4 44/14/4 40/22/4
f 40/22/4 44/14/4 43/13/4 39/21/4
f 45/23/4 46/26/4 48/22/4 47/21/4
f 37/23/10 45/23/10 47/21/10 39/21/10
f 40/22/7 48/22/7 46/26/7 38/26/7
f 38/26/8 46/26/8 45/23/8 37/23/8
f 60/1/1 58/2/1 55/3/1 53/4/1
f 59/5/11 56/6/11 55/7/11 58/8/11
f 56/9/12 54/10/12 53/11/12 55/12/12
f 57/13/4 59/14/4 52/15/4 50/16/4
f 50/16/13 52/15/13 51/17/13 49/18/13
f 57/19/14 50/16/14 49/18/14 60/20/14
f 54/10/14 57/19/14 60/20/14 53/11/14
f 57/13/13 67/13/13 68/14/13 59/14/13
f 52/15/11 59/5/11 58/8/11 51/17/11
f 49/18/1 51/17/1 58/2/1 60/1/1
f 63/21/13 71/21/13 72/22/13 64/22/13
f 56/9/12 66/9/12 65/10/12 54/10/12
f 59/5/11 68/5/11 66/6/11 56/6/11
f 54/10/14 65/10/14 67/19/14 57/19/14
f 61/23/4 65/24/4 66/25/4 62/26/4
f 63/21/4 67/13/4 65/24/4 61/23/4
f 62/26/4 66/25/4 68/14/4 64/22/4
f 64/22/4 68/14/4 67/13/4 63/21/4
f 69/23/4 70/26/4 72/22/4 71/21/4
f 61/23/14 69/23/14 71/21/14 63/21/14
f 64/22/11 72/22/11 70/26/11 62/26/11
f 62/26/12 70/26/12 69/23/12 61/23/12
f 84/1/1 82/2/1 79/3/1 77/4/1
f 83/5/15 80/6/15 79/7/15 82/8/15
f 80/9/16 78/10/16 77/11/16 79/12/16
f 81/13/4 83/14/4 76/15/4 74/16/4
f 74/16/17 76/15/17 75/17/17 73/18/17
f 81/19/18 74/16/18 73/18/18 84/20/18
f 78/10/18 81/19/18 84/20/18 77/11/18
f 81/13/17 91/13/17 92/14/17 83/14/17
f 76/15/15 83/5/15 82/8/15 75/17/15
f 73/18/1 75/17/1 82/2/1 84/1/1
f 87/21/17 95/21/17 96/22/17 88/22/17
f 80/9/16 90/9/16 89/10/16 78/10/16
f 83/5/15 92/5/15 90/6/15 80/6/15
f 78/10/18 89/10/18 91/19/18 81/19/18
f 85/23/4 89/24/4 90/25/4 86/26/4
f 87/21/4 91/13/4 89/24/4 85/23/4
f 86/26/4 90/25/4 92/14/4 88/22/4
f 88/22/4 92/14/4 91/13/4 87/21/4
f 93/23/4 94/26/4 96/22/4 95/21/4
f 85/23/18 93/23/18 95/21/18 87/21/18
f 88/22/15 96/22/15 94/26/15 86/26/15
f 86/26/16 94/26/16 93/23/16 85/23/16
f 108/1/1 106/2/1 103/3/1 101/4/1
f 107/5/19 104/6/19 103/7/19 106/8/19
f 104/9/20 102/10/20 101/11/20 103/12/20
f 105/13/4 107/14/4 100/15/4 98/16/4
f 98/16/21 100/15/21 99/17/21 97/18/21
f 105/19/22 98/16/22 97/18/22 108/20/22
f 102/10/22 105/19/22 108/20/22 101/11/22
f 105/13/21 115/13/21 116/14/21 107/14/21
f 100/15/19 107/5/19 106/8/19 99/17/19
f 97/18/1 99/17/1 106/2/1 108/1/1
f 111/21/21 119/21/21 120/22/21 112/22/21
f 104/9/20 114/9/20 113/10/20 102/10/20
f 107/5/19 116/5/19 114/6/19 104/6/19
f 102/10/22 113/10/22 115/19/22 105/19/22
f 109/23/4 113/24/4 114/25/4 110/26/4
f 111/21/4 115/13/4 113/24/4 109/23/4
f 110/26/4 114/25/4 116/14/4 112/22/4
f 112/22/4 116/14/4 115/13/4 111/21/4
f 117/23/4 118/26/4 120/22/4 119/21/4
f 109/23/22 117/23/22 119/21/22 111/21/22
f 112/22/19 120/22/19 118/26/19 110/26/19
f 110/26/20 118/26/20 117/23/20 109/23/20
f 132/1/4 125/4/4 127/3/4 130/2/4
f 131/5/23 130/8/23 127/7/23 128/6/23
f 128/9/24 127/12/24 125/11/24 126/10/24
f 129/13/1 122/16/1 124/15/1 131/14/1
f 122/16/25 121/18/25 123/17/25 124/15/25
f 129/19/26 132/20/26 121/18/26 122/16/26
f 126/10/26 125/11/26 132/20/26 129/19/26
f 129/13/25 131/14/25 140/14/25 139/13/25
f 124/15/23 123/17/23 130/8/23 131/5/23
f 121/18/4 132/1/4 130/2/4 123/17/4
f 135/21/25 136/22/25 144/22/25 143/21/25
f 128/9/24 126/10/24 137/10/24 138/9/24
f 131/5/23 128/6/23 138/6/23 140/5/23
f 126/10/26 129/19/26 139/19/26 137/10/26
f 133/23/1 134/26/1 138/25/1 137/24/1
f 135/21/1 133/23/1 137/24/1 139/13/1
f 134/26/1 136/22/1 140/14/1 138/25/1
f 136/22/1 135/21/1 139/13/1 140/14/1
f 141/23/1 143/21/1 144/22/1 142/26/1
f 133/23/26 135/21/26 143/21/26 141/23/26
f 136/22/23 134/26/23 142/26/23 144/22/23
f 134/26/24 133/23/24 141/23/24 142/26/24
o Wheel.001
v -2.193641 2.814820 0.284383
v -2.193641 2.816146 -0.260386
v -2.074759 2.455580 0.284117
v -2.074759 2.456905 -0.260651
v -1.736675 2.285620 0.283992
v -1.736675 2.286946 -0.260777
v -1.377435 2.404502 0.284080
v -1.377435 2.405828 -0.260689
v -1.207475 2.742586 0.284329
v -1.207475 2.743912 -0.260439
v -1.326358 3.101826 0.284595
v -1.326358 3.103152 -0.260174
v -1.664441 3.271785 0.284720
v -1.664441 3.273111 -0.260048
v -2.023682 3.152903 0.284632
v -2.023682 3.154229 -0.260136
v -1.700558 2.780029 -0.260413
v -1.700558 2.778703 0.284356
v -0.419362 2.814820 -3.476027
v 0.039845 2.816146 -3.769117
v -0.355179 2.455580 -3.375960
v 0.104028 2.456905 -3.669050
v -0.173181 2.285620 -3.091043
v 0.286026 2.286946 -3.384133
v 0.020019 2.404502 -2.788177
v 0.479226 2.405828 -3.081267
v 0.111248 2.742586 -2.644778
v 0.570456 2.743912 -2.937868
v 0.047065 3.101826 -2.744846
v 0.506272 3.103152 -3.037936
v -0.134933 3.271785 -3.029762
v 0.324274 3.273111 -3.322852
v -0.328133 3.152903 -3.332628
v 0.131074 3.154229 -3.625718
v 0.305150 2.780029 -3.353493
v -0.154057 2.778703 -3.060403
v 3.705014 2.814820 -4.003548
v 4.199128 2.816146 -3.774149
v 3.655193 2.455580 -3.895608
v 4.149308 2.456905 -3.666209
v 3.512942 2.285620 -3.588908
v 4.007057 2.286946 -3.359509
v 3.361588 2.404502 -3.263108
v 3.855702 2.405828 -3.033708
v 3.289793 2.742586 -3.109056
v 3.783907 2.743912 -2.879657
v 3.339613 3.101826 -3.216997
v 3.833727 3.103152 -2.987597
v 3.481864 3.271785 -3.523697
v 3.975978 3.273111 -3.294298
v 3.633218 3.152903 -3.849497
v 4.127332 3.154229 -3.620099
v 3.991518 2.780029 -3.326903
v 3.497403 2.778703 -3.556303
v 6.368629 2.814820 -0.810758
v 6.441097 2.816146 -0.270832
v 6.250839 2.455580 -0.794682
v 6.323307 2.456905 -0.254755
v 5.915777 2.285620 -0.749583
v 5.988245 2.286946 -0.209656
v 5.559717 2.404502 -0.701883
v 5.632185 2.405828 -0.161955
v 5.391234 2.742586 -0.679521
v 5.463702 2.743912 -0.139594
v 5.509025 3.101826 -0.695599
v 5.581493 3.103152 -0.155671
v 5.844088 3.271785 -0.740697
v 5.916556 3.273111 -0.200770
v 6.200147 3.152903 -0.788398
v 6.272615 3.154229 -0.248470
v 5.952400 2.780029 -0.205213
v 5.879932 2.778703 -0.745140
v 5.110347 2.814820 3.152255
v 4.694209 2.816146 3.503826
v 5.033423 2.455580 3.061614
v 4.617285 2.456905 3.413186
v 4.815141 2.285620 2.803441
v 4.399004 2.286946 3.155012
v 4.583370 2.404502 2.528967
v 4.167232 2.405828 2.880538
v 4.473875 2.742586 2.398977
v 4.057738 2.743912 2.750548
v 4.550800 3.101826 2.489617
v 4.134662 3.103152 2.841189
v 4.769082 3.271785 2.747792
v 4.352944 3.273111 3.099363
v 5.000853 3.152903 3.022265
v 4.584715 3.154229 3.373837
v 4.375974 2.780029 3.127187
v 4.792111 2.778703 2.775616
v 1.092799 2.814820 4.223732
v 0.572561 2.816146 4.062101
v 1.127819 2.455580 4.110125
v 0.607579 2.456905 3.948494
v 1.228006 2.285620 3.787227
v 0.707767 2.286946 3.625597
v 1.334676 2.404502 3.444189
v 0.814437 2.405828 3.282557
v 1.385340 2.742586 3.281955
v 0.865102 2.743912 3.120326
v 1.350322 3.101826 3.395564
v 0.830083 3.103152 3.233933
v 1.250134 3.271785 3.718462
v 0.729895 3.273111 3.556831
v 1.143464 3.152903 4.061501
v 0.623226 3.154229 3.899869
v 0.718832 2.780029 3.591214
v 1.239070 2.778703 3.752844
vn 0.9494 0.3142 0.0008
vn 0.4492 0.8935 0.0022
vn -0.3142 0.9494 0.0023
vn -0.8935 0.4492 0.0011
vn -0.9494 -0.3142 -0.0008
vn -0.4492 -0.8935 -0.0022
vn -0.0000 0.0007 -1.0000
vn 0.3142 -0.9494 -0.0023
vn 0.8935 -0.4492 -0.0011
vn -0.0000 -0.0007 1.0000
vn 0.5101 0.3142 0.8007
vn 0.2398 0.8935 0.3798
vn -0.1710 0.9494 -0.2636
vn -0.4816 0.4492 -0.7525
vn -0.5101 -0.3142 -0.8007
vn -0.2398 -0.8935 -0.3798
vn 0.8429 0.0007 -0.5380
vn 0.1710 -0.9494 0.2636
vn 0.4816 -0.4492 0.7525
vn -0.8429 -0.0007 0.5380
vn -0.4005 0.3142 0.8608
vn -0.1911 0.8935 0.4065
vn 0.1302 0.9494 -0.2859
vn 0.3752 0.4492 -0.8108
vn 0.4005 -0.3142 -0.8608
vn 0.1911 -0.8935 -0.4065
vn 0.9070 0.0007 0.4211
vn -0.1302 -0.9494 0.2859
vn -0.3752 -0.4492 0.8108
vn -0.9070 -0.0007 -0.4211
vn -0.9410 0.3142 0.1255
vn -0.4454 0.8935 0.0576
vn 0.3111 0.9494 -0.0441
vn 0.8854 0.4492 -0.1199
vn 0.9410 -0.3142 -0.1255
vn 0.4454 -0.8935 -0.0576
vn 0.1330 0.0007 0.9911
vn -0.3111 -0.9494 0.0441
vn -0.8854 -0.4492 0.1199
vn -0.1330 -0.0007 -0.9911
vn -0.6121 0.3142 -0.7257
vn -0.2882 0.8935 -0.3445
vn 0.2045 0.9494 0.2385
vn 0.5774 0.4492 0.6818
vn 0.6121 -0.3142 0.7257
vn 0.2882 -0.8935 0.3445
vn -0.7639 0.0007 0.6454
vn -0.2045 -0.9494 -0.2385
vn -0.5774 -0.4492 -0.6818
vn 0.7639 -0.0007 -0.6454
vn -0.2824 -0.3142 0.9064
vn -0.1353 -0.8935 0.4283
vn 0.0910 -0.9494 -0.3007
vn 0.2640 -0.4492 -0.8535
vn 0.2824 0.3142 -0.9064
vn 0.1353 0.8935 -0.4283
vn 0.9550 -0.0007 0.2967
vn -0.0910 0.9494 0.3007
vn -0.2640 0.4492 0.8535
vn -0.9550 0.0007 -0.2967
vt 1.000000 0.500000
vt 0.875000 0.500000
vt 0.875000 1.000000
vt 1.000000 1.000000
vt 0.750000 0.500000
vt 0.750000 1.000000
vt 0.625000 0.500000
vt 0.625000 1.000000
vt 0.500000 0.500000
vt 0.500000 1.000000
vt 0.375000 0.500000
vt 0.375000 1.000000
vt 0.250000 0.500000
vt 0.250000 1.000000
vt 0.750000 0.490000
vt 0.750000 0.250000
vt 0.919706 0.419706
vt 0.125000 0.500000
vt 0.125000 1.000000
vt 0.000000 0.500000
vt 0.000000 1.000000
vt 0.419706 0.419706
vt 0.250000 0.250000
vt 0.250000 0.490000
vt 0.080294 0.419706
vt 0.010000 0.250000
vt 0.080294 0.080294
vt 0.250000 0.010000
vt 0.419706 0.080294
vt 0.490000 0.250000
vt 0.990000 0.250000
vt 0.919706 0.080294
vt 0.750000 0.010000
vt 0.580294 0.080294
vt 0.510000 0.250000
vt 0.580294 0.419706
s 0
f 145/27/27 147/28/27 148/29/27 146/30/27
f 147/28/28 149/31/28 150/32/28 148/29/28
f 149/31/29 151/33/29 152/34/29 150/32/29
f 151/33/30 153/35/30 154/36/30 152/34/30
f 153/35/31 155/37/31 156/38/31 154/36/31
f 155/37/32 157/39/32 158/40/32 156/38/32
f 145/41/33 162/42/33 147/43/33
f 157/39/34 159/44/34 160/45/34 158/40/34
f 159/44/35 145/46/35 146/47/35 160/45/35
f 148/48/36 161/49/36 146/50/36
f 146/50/36 161/49/36 160/51/36
f 160/51/36 161/49/36 158/52/36
f 158/52/36 161/49/36 156/53/36
f 156/53/36 161/49/36 154/54/36
f 154/54/36 161/49/36 152/55/36
f 152/55/36 161/49/36 150/56/36
f 150/56/36 161/49/36 148/48/36
f 147/43/33 162/42/33 149/57/33
f 149/57/33 162/42/33 151/58/33
f 151/58/33 162/42/33 153/59/33
f 153/59/33 162/42/33 155/60/33
f 155/60/33 162/42/33 157/61/33
f 157/61/33 162/42/33 159/62/33
f 159/62/33 162/42/33 145/41/33
f 163/27/37 165/28/37 166/29/37 164/30/37
f 165/28/38 167/31/38 168/32/38 166/29/38
f 167/31/39 169/33/39 170/34/39 168/32/39
f 169/33/40 171/35/40 172/36/40 170/34/40
f 171/35/41 173/37/41 174/38/41 172/36/41
f 173/37/42 175/39/42 176/40/42 174/38/42
f 163/41/43 180/42/43 165/43/43
f 175/39/44 177/44/44 178/45/44 176/40/44
f 177/44/45 163/46/45 164/47/45 178/45/45
f 166/48/46 179/49/46 164/50/46
f 164/50/46 179/49/46 178/51/46
f 178/51/46 179/49/46 176/52/46
f 176/52/46 179/49/46 174/53/46
f 174/53/46 179/49/46 172/54/46
f 172/54/46 179/49/46 170/55/46
f 170/55/46 179/49/46 168/56/46
f 168/56/46 179/49/46 166/48/46
f 165/43/43 180/42/43 167/57/43
f 167/57/43 180/42/43 169/58/43
f 169/58/43 180/42/43 171/59/43
f 171/59/43 180/42/43 173/60/43
f 173/60/43 180/42/43 175/61/43
f 175/61/43 180/42/43 177/62/43
f 177/62/43 180/42/43 163/41/43
f 181/27/47 183/28/47 184/29/47 182/30/47
f 183/28/48 185/31/48 186/32/48 184/29/48
f 185/31/49 187/33/49 188/34/49 186/32/49
f 187/33/50 189/35/50 190/36/50 188/34/50
f 189/35/51 191/37/51 192/38/51 190/36/51
f 191/37/52 193/39/52 194/40/52 192/38/52
f 181/41/53 198/42/53 183/43/53
f 193/39/54 195/44/54 196/45/54 194/40/54
f 195/44/55 181/46/55 182/47/55 196/45/55
f 184/48/56 197/49/56 182/50/56
f 182/50/56 197/49/56 196/51/56
f 196/51/56 197/49/56 194/52/56
f 194/52/56 197/49/56 192/53/56
f 192/53/56 197/49/56 190/54/56
f 190/54/56 197/49/56 188/55/56
f 188/55/56 197/49/56 186/56/56
f 186/56/56 197/49/56 184/48/56
f 183/43/53 198/42/53 185/57/53
f 185/57/53 198/42/53 187/58/53
f 187/58/53 198/42/53 189/59/53
f 189/59/53 198/42/53 191/60/53
f 191/60/53 198/42/53 193/61/53
f 193/61/53 198/42/53 195/62/53
f 195/62/53 198/42/53 181/41/53
f 199/27/57 201/28/57 202/29/57 200/30/57
f 201/28/58 203/31/58 204/32/58 202/29/58
f 203/31/59 205/33/59 206/34/59 204/32/59
f 205/33/60 207/35/60 208/36/60 206/34/60
f 207/35/61 209/37/61 210/38/61 208/36/61
f 209/37/62 211/39/62 212/40/62 210/38/62
f 199/41/63 216/42/63 201/43/63
f 211/39/64 213/44/64 214/45/64 212/40/64
f 213/44/65 199/46/65 200/47/65 214/45/65
f 202/48/66 215/49/66 200/50/66
f 200/50/66 215/49/66 214/51/66
f 214/51/66 215/49/66 212/52/66
f 212/52/66 215/49/66 210/53/66
f 210/53/66 215/49/66 208/54/66
f 208/54/66 215/49/66 206/55/66
f 206/55/66 215/49/66 204/56/66
f 204/56/66 215/49/66 202/48/66
f 201/43/63 216/42/63 203/57/63
f 203/57/63 216/42/63 205/58/63
f 205/58/63 216/42/63 207/59/63
f 207/59/63 216/42/63 209/60/63
f 209/60/63 216/42/63 211/61/63
f 211/61/63 216/42/63 213/62/63
f 213/62/63 216/42/63 199/41/63
f 217/27/67 219/28/67 220/29/67 218/30/67
f 219/28/68 221/31/68 222/32/68 220/29/68
f 221/31/69 223/33/69 224/34/69 222/32/69
f 223/33/70 225/35/70 226/36/70 224/34/70
f 225/35/71 227/37/71 228/38/71 226/36/71
f 227/37/72 229/39/72 230/40/72 228/38/72
f 217/41/73 234/42/73 219/43/73
f 229/39/74 231/44/74 232/45/74 230/40/74
f 231/44/75 217/46/75 218/47/75 232/45/75
f 220/48/76 233/49/76 218/50/76
f 218/50/76 233/49/76 232/51/76
f 232/51/76 233/49/76 230/52/76
f 230/52/76 233/49/76 228/53/76
f 228/53/76 233/49/76 226/54/76
f 226/54/76 233/49/76 224/55/76
f 224/55/76 233/49/76 222/56/76
f 222/56/76 233/49/76 220/48/76
f 219/43/73 234/42/73 221/57/73
f 221/57/73 234/42/73 223/58/73
f 223/58/73 234/42/73 225/59/73
f 225/59/73 234/42/73 227/60/73
f 227/60/73 234/42/73 229/61/73
f 229/61/73 234/42/73 231/62/73
f 231/62/73 234/42/73 217/41/73
f 235/27/77 236/30/77 238/29/77 237/28/77
f 237/28/78 238/29/78 240/32/78 239/31/78
f 239/31/79 240/32/79 242/34/79 241/33/79
f 241/33/80 242/34/80 244/36/80 243/35/80
f 243/35/81 244/36/81 246/38/81 245/37/81
f 245/37/82 246/38/82 248/40/82 247/39/82
f 235/41/83 237/43/83 252/42/83
f 247/39/84 248/40/84 250/45/84 249/44/84
f 249/44/85 250/45/85 236/47/85 235/46/85
f 238/48/86 236/50/86 251/49/86
f 236/50/86 250/51/86 251/49/86
f 250/51/86 248/52/86 251/49/86
f 248/52/86 246/53/86 251/49/86
f 246/53/86 244/54/86 251/49/86
f 244/54/86 242/55/86 251/49/86
f 242/55/86 240/56/86 251/49/86
f 240/56/86 238/48/86 251/49/86
f 237/43/83 239/57/83 252/42/83
f 239/57/83 241/58/83 252/42/83
f 241/58/83 243/59/83 252/42/83
f 243/59/83 245/60/83 252/42/83
f 245/60/83 247/61/83 252/42/83
f 247/61/83 249/62/83 252/42/83
f 249/62/83 235/41/83 252/42/83
o Wheel
v -2.246683 2.625874 0.348040
v -2.246683 3.308906 0.348040
v -2.246683 2.625874 -0.334992
v -2.246683 3.308906 -0.334992
v -1.563651 2.625874 0.348040
v -1.563651 3.308906 0.348040
v -1.563651 2.625874 -0.334992
v -1.563651 3.308906 -0.334992
v -0.501559 2.625874 -3.486490
v -0.501559 3.308906 -3.486490
v 0.074196 2.625874 -3.853967
v 0.074196 3.308906 -3.853967
v -0.134082 2.625874 -2.910736
v -0.134082 3.308906 -2.910736
v 0.441673 2.625874 -3.278212
v 0.441673 3.308906 -3.278212
v 3.669611 2.625874 -4.078464
v 3.669611 3.308906 -4.078464
v 4.289132 2.625874 -3.790843
v 4.289132 3.308906 -3.790843
v 3.381989 2.625874 -3.458942
v 3.381989 3.308906 -3.458942
v 4.001511 2.625874 -3.171321
v 4.001511 3.308906 -3.171321
v 6.412731 2.625874 -0.880906
v 6.412731 3.308906 -0.880906
v 6.503592 2.625874 -0.203945
v 6.503592 3.308906 -0.203945
v 5.735770 2.625874 -0.790046
v 5.735770 3.308906 -0.790046
v 5.826630 2.625874 -0.113085
v 5.826630 3.308906 -0.113085
v 5.193204 2.625874 3.151690
v 5.193204 3.308906 3.151690
v 4.671450 2.625874 3.592492
v 4.671450 3.308906 3.592492
v 4.752404 2.625874 2.629936
v 4.752404 3.308906 2.629936
v 4.230650 2.625874 3.070737
v 4.230650 3.308906 3.070737
v 1.137854 2.625874 4.293272
v 1.137854 3.308906 4.293272
v 0.485577 2.625874 4.090620
v 0.485577 3.308906 4.090620
v 1.340507 2.625874 3.640996
v 1.340507 3.308906 3.640996
v 0.688231 2.625874 3.438344
v 0.688231 3.308906 3.438344
vn 1.0000 -0.0000 -0.0000
vn -0.0000 -0.0000 1.0000
vn -1.0000 -0.0000 -0.0000
vn -0.0000 -0.0000 -1.0000
vn -0.0000 1.0000 -0.0000
vn -0.0000 -1.0000 -0.0000
vn 0.5380 -0.0000 0.8429
vn -0.8429 -0.0000 0.5380
vn -0.5380 -0.0000 -0.8429
vn 0.8429 -0.0000 -0.5380
vn -0.4211 -0.0000 0.9070
vn -0.9070 -0.0000 -0.4211
vn 0.4211 -0.0000 -0.9070
vn 0.9070 -0.0000 0.4211
vn -0.9911 -0.0000 0.1330
vn -0.1330 -0.0000 -0.9911
vn 0.9911 -0.0000 -0.1330
vn 0.1330 -0.0000 0.9911
vn -0.6454 -0.0000 -0.7639
vn 0.7639 -0.0000 -0.6454
vn 0.6454 -0.0000 0.7639
vn -0.7639 -0.0000 0.6454
vn -0.2967 -0.0000 0.9550
vn -0.9550 -0.0000 -0.2967
vn 0.2967 -0.0000 -0.9550
vn 0.9550 -0.0000 0.2967
vt 0.375000 0.000000
vt 0.375000 0.250000
vt 0.625000 0.250000
vt 0.625000 0.000000
vt 0.375000 0.500000
vt 0.625000 0.500000
vt 0.375000 0.750000
vt 0.625000 0.750000
vt 0.375000 1.000000
vt 0.625000 1.000000
vt 0.125000 0.500000
vt 0.125000 0.750000
vt 0.875000 0.750000
vt 0.875000 0.500000
s 0
f 253/63/87 255/64/87 256/65/87 254/66/87
f 255/64/88 259/67/88 260/68/88 256/65/88
f 259/67/89 257/69/89 258/70/89 260/68/89
f 257/69/90 253/71/90 254/72/90 258/70/90
f 255/73/91 253/74/91 257/69/91 259/67/91
f 260/68/92 258/70/92 254/75/92 256/76/92
f 261/63/93 263/64/93 264/65/93 262/66/93
f 263/64/94 267/67/94 268/68/94 264/65/94
f 267/67/95 265/69/95 266/70/95 268/68/95
f 265/69/96 261/71/96 262/72/96 266/70/96
f 263/73/91 261/74/91 265/69/91 267/67/91
f 268/68/92 266/70/92 262/75/92 264/76/92
f 269/63/97 271/64/97 272/65/97 270/66/97
f 271/64/98 275/67/98 276/68/98 272/65/98
f 275/67/99 273/69/99 274/70/99 276/68/99
f 273/69/100 269/71/100 270/72/100 274/70/100
f 271/73/91 269/74/91 273/69/91 275/67/91
f 276/68/92 274/70/92 270/75/92 272/76/92
f 277/63/101 279/64/101 280/65/101 278/66/101
f 279/64/102 283/67/102 284/68/102 280/65/102
f 283/67/103 281/69/103 282/70/103 284/68/103
f 281/69/104 277/71/104 278/72/104 282/70/104
f 279/73/91 277/74/91 281/69/91 283/67/91
f 284/68/92 282/70/92 278/75/92 280/76/92
f 285/63/105 287/64/105 288/65/105 286/66/105
f 287/64/106 291/67/106 292/68/106 288/65/106
f 291/67/107 289/69/107 290/70/107 292/68/107
f 289/69/108 285/71/108 286/72/108 290/70/108
f 287/73/91 285/74/91 289/69/91 291/67/91
f 292/68/92 290/70/92 286/75/92 288/76/92
f 293/63/109 294/66/109 296/65/109 295/64/109
f 295/64/110 296/65/110 300/68/110 299/67/110
f 299/67/111 300/68/111 298/70/111 297/69/111
f 297/69/112 298/70/112 294/72/112 293/71/112
f 295/73/92 299/67/92 297/69/92 293/74/92
f 300/68/91 296/76/91 294/75/91 298/70/91
o Main_Pilar
v 2.124077 4.138880 -0.316187
v 2.124077 7.631376 -0.316187
v 2.363800 4.138880 -0.216891
v 2.363800 7.631376 -0.216891
v 2.463096 4.138880 0.022832
v 2.463096 7.631376 0.022832
v 2.363800 4.138880 0.262555
v 2.363800 7.631376 0.262555
v 2.124077 4.138880 0.361851
v 2.124077 7.631376 0.361851
v 1.884354 4.138880 0.262555
v 1.884354 7.631376 0.262555
v 1.785058 4.138880 0.022832
v 1.785058 7.631376 0.022832
v 1.884354 4.138880 -0.216891
v 1.884354 7.631376 -0.216891
vn 0.3827 -0.0000 -0.9239
vn 0.9239 -0.0000 -0.3827
vn 0.9239 -0.0000 0.3827
vn 0.3827 -0.0000 0.9239
vn -0.3827 -0.0000 0.9239
vn -0.9239 -0.0000 0.3827
vn -0.0000 1.0000 -0.0000
vn -0.9239 -0.0000 -0.3827
vn -0.3827 -0.0000 -0.9239
vn -0.0000 -1.0000 -0.0000
vt 1.000000 0.500000
vt 1.000000 1.000000
vt 0.875000 1.000000
vt 0.875000 0.500000
vt 0.750000 1.000000
vt 0.750000 0.500000
vt 0.625000 1.000000
vt 0.625000 0.500000
vt 0.500000 1.000000
vt 0.500000 0.500000
vt 0.375000 1.000000
vt 0.375000 0.500000
vt 0.250000 1.000000
vt 0.250000 0.500000
vt 0.419706 0.419706
vt 0.250000 0.490000
vt 0.080294 0.419706
vt 0.010000 0.250000
vt 0.080294 0.080294
vt 0.250000 0.010000
vt 0.419706 0.080294
vt 0.490000 0.250000
vt 0.125000 1.000000
vt 0.125000 0.500000
vt 0.000000 1.000000
vt 0.000000 0.500000
vt 0.750000 0.490000
vt 0.919706 0.419706
vt 0.990000 0.250000
vt 0.919706 0.080294
vt 0.750000 0.010000
vt 0.580294 0.080294
vt 0.510000 0.250000
vt 0.580294 0.419706
s 0
f 301/77/113 302/78/113 304/79/113 303/80/113
f 303/80/114 304/79/114 306/81/114 305/82/114
f 305/82/115 306/81/115 308/83/115 307/84/115
f 307/84/116 308/83/116 310/85/116 309/86/116
f 309/86/117 310/85/117 312/87/117 311/88/117
f 311/88/118 312/87/118 314/89/118 313/90/118
f 304/91/119 302/92/119 316/93/119 314/94/119 312/95/119 310/96/119 308/97/119 306/98/119
f 313/90/120 314/89/120 316/99/120 315/100/120
f 315/100/121 316/99/121 302/101/121 301/102/121
f 301/103/122 303/104/122 305/105/122 307/106/122 309/107/122 311/108/122 313/109/122 315/110/122
o Back_Chair
v 5.320982 8.329914 -3.174073
v 5.320982 7.638463 -3.174073
v 5.320982 8.329914 3.219737
v 5.320982 7.638463 3.219737
v -1.072828 8.329914 -3.174073
v -1.072828 7.638463 -3.174073
v -1.072828 8.329914 3.219737
v -1.072828 7.638463 3.219737
v 5.320982 8.329914 -2.348861
v 5.320982 7.638463 -2.348861
v -1.072828 8.329914 -2.348861
v -1.072828 7.638463 -2.348861
v 5.320981 13.910077 -2.983395
v 5.320981 13.832798 -3.804981
v -1.072828 13.832798 -3.804981
v -1.072828 13.910077 -2.983395
vn 1.0000 -0.0000 -0.0000
vn -0.0000 -0.0000 1.0000
vn -1.0000 -0.0000 -0.0000
vn -0.0000 -0.0000 -1.0000
vn -0.0000 -1.0000 -0.0000
vn -0.0000 1.0000 -0.0000
vn -0.0000 0.9956 -0.0936
vn -0.0000 -0.1139 -0.9935
vn -0.0000 0.1130 0.9936
vt 0.375000 0.032266
vt 0.625000 0.032266
vt 0.625000 0.250000
vt 0.375000 0.250000
vt 0.625000 0.500000
vt 0.375000 0.500000
vt 0.375000 0.717734
vt 0.625000 0.717734
vt 0.625000 0.750000
vt 0.375000 0.750000
vt 0.625000 1.000000
vt 0.375000 1.000000
vt 0.375000 0.000000
vt 0.875000 0.717734
vt 0.875000 0.750000
vt 0.875000 0.500000
vt 0.125000 0.500000
vt 0.125000 0.717734
vt 0.625000 0.000000
vt 0.125000 0.750000
s 0
f 325/111/123 319/114/123 320/113/123 326/112/123
f 319/114/124 323/116/124 324/115/124 320/113/124
f 327/117/125 321/120/125 322/119/125 328/118/125
f 321/120/126 317/122/126 318/121/126 322/119/126
f 317/123/123 330/123/123 329/111/123 325/111/123
f 328/118/127 322/119/127 318/125/127 326/124/127
f 324/115/127 328/118/127 326/124/127 320/126/127
f 319/127/128 325/128/128 327/117/128 323/116/128
f 323/116/125 327/117/125 328/118/125 324/115/125
f 317/123/123 325/111/123 326/112/123 318/129/123
f 329/128/129 330/130/129 331/120/129 332/117/129
f 327/117/125 332/117/125 331/120/125 321/120/125
f 321/120/130 331/120/130 330/122/130 317/122/130
f 325/128/131 329/128/131 332/117/131 327/117/131
o Armrest
v 5.345164 7.621813 -0.447322
v 5.345164 8.341612 -0.447322
v 6.064963 7.621813 -0.447322
v 6.064963 8.341612 -0.447322
v 5.345164 8.341612 -1.180868
v 5.345164 7.621813 -1.180868
v 6.064963 7.621813 -1.180868
v 6.064963 8.341612 -1.180868
v 5.345164 7.621813 1.066924
v 5.345164 8.341612 1.066924
v 6.064963 8.341612 1.066924
v 6.064963 7.621813 1.066924
v 5.345164 7.621813 1.785106
v 5.345164 8.341612 1.785106
v 6.064963 8.341612 1.785106
v 6.064963 7.621813 1.785106
v 5.345164 9.518484 -0.447322
v 6.064963 9.518484 -0.447322
v 5.345164 9.518484 -1.180868
v 6.064963 9.518484 -1.180868
v 6.064963 9.518484 1.066924
v 5.345164 9.518484 1.066924
v 6.064963 9.518484 1.785106
v 5.345164 9.518484 1.785106
v 5.345164 9.518484 -1.937859
v 6.064963 9.518484 -1.937859
v 6.064963 9.518484 0.309933
v 5.345164 9.518484 0.309933
v 6.064963 9.518484 2.542097
v 5.345164 9.518484 2.542097
v 5.345164 10.108455 -1.937859
v 6.064963 10.108455 -1.937859
v 6.064963 10.108455 0.309933
v 5.345164 10.108455 0.309933
v 6.064963 10.108455 2.542097
v 5.345164 10.108455 2.542097
v -1.004694 8.341612 -0.447322
v -1.724494 8.341612 -0.447322
v -1.004694 8.341612 -1.180868
v -1.004694 7.621813 -1.180868
v -1.724494 7.621813 -1.180868
v -1.724494 8.341612 -1.180868
v -1.004694 8.341612 1.066924
v -1.724494 8.341612 1.066924
v -1.004694 7.621813 1.785106
v -1.004694 8.341612 1.785106
v -1.724494 8.341612 1.785106
v -1.724494 7.621813 1.785106
v -1.004694 9.518484 -0.447322
v -1.724494 9.518484 -0.447322
v -1.004694 9.518484 -1.180868
v -1.724494 9.518484 -1.180868
v -1.724494 9.518484 1.066924
v -1.004694 9.518484 1.066924
v -1.724494 9.518484 1.785106
v -1.004694 9.518484 1.785106
v -1.004694 9.518484 -1.937859
v -1.724494 9.518484 -1.937859
v -1.724494 9.518484 0.309933
v -1.004694 9.518484 0.309933
v -1.724494 9.518484 2.542097
v -1.004694 9.518484 2.542097
v -1.004694 10.108455 -1.937859
v -1.724494 10.108455 -1.937859
v -1.724494 10.108455 0.309933
v -1.004694 10.108455 0.309933
v -1.724494 10.108455 2.542097
v -1.004694 10.108455 2.542097
vn 1.0000 -0.0000 -0.0000
vn -0.0000 -1.0000 -0.0000
vn -0.0000 1.0000 -0.0000
vn -0.0000 -0.0000 -1.0000
vn -1.0000 -0.0000 -0.0000
vn -0.0000 -0.0000 1.0000
vt 0.625000 0.500000
vt 0.625000 0.750000
vt 0.375000 0.750000
vt 0.375000 0.500000
vt 0.125000 0.750000
vt 0.125000 0.500000
vt 0.875000 0.500000
vt 0.875000 0.750000
vt 0.375000 0.250000
vt 0.625000 0.250000
vt 0.625000 1.000000
vt 0.375000 1.000000
vt 0.625000 0.000000
vt 0.375000 0.000000
vt 0.000000 0.000000
s 0
f 336/131/132 343/132/132 344/133/132 335/134/132
f 336/131/132 335/134/132 339/134/132 340/131/132
f 335/134/133 344/133/133 341/135/133 333/136/133
f 336/131/134 334/137/134 342/138/134 343/132/134
f 338/139/135 337/140/135 340/131/135 339/134/135
f 335/134/133 333/136/133 338/136/133 339/134/133
f 347/132/132 343/132/132 353/132/132 355/132/132
f 333/139/136 334/140/136 337/140/136 338/139/136
f 341/135/133 344/133/133 348/133/133 345/135/133
f 348/133/137 347/132/137 346/141/137 345/142/137
f 342/143/136 341/144/136 345/144/136 346/143/136
f 336/131/132 340/131/132 352/131/132 350/131/132
f 344/133/132 343/132/132 347/132/132 348/133/132
f 346/141/137 347/132/137 355/132/137 356/141/137
f 334/137/137 336/131/137 350/131/137 349/137/137
f 340/131/135 337/140/135 351/140/135 352/131/135
f 342/143/136 346/143/136 356/143/136 354/143/136
f 343/132/135 342/138/135 354/138/135 353/132/135
f 337/140/136 334/140/136 349/140/136 351/140/136
f 363/137/134 366/145/134 368/138/134 367/132/134 365/145/134 364/131/134
f 356/143/136 362/143/136 368/143/136 366/145/136 363/140/136 357/140/136 351/140/136 349/140/136 360/145/136 354/143/136
f 352/131/133 351/140/133 357/140/133 358/131/133
f 358/131/135 357/140/135 363/140/135 364/131/135
f 362/141/137 361/132/137 367/132/137 368/141/137
f 353/132/132 359/145/132 350/131/132 352/131/132 358/131/132 364/131/132 365/145/132 367/132/132 361/132/132 355/132/132
f 356/141/133 355/132/133 361/132/133 362/141/133
f 349/140/133 350/131/133 359/145/133 353/132/133 354/143/133 360/145/133
f 369/140/132 375/143/132 378/143/132 377/144/132 372/139/132 371/140/132
f 370/131/134 376/132/134 375/138/134 369/137/134
f 372/139/135 373/134/135 374/131/135 371/140/135
f 372/136/133 377/135/133 380/133/133 373/134/133
f 379/132/136 387/132/136 385/132/136 376/132/136
f 380/133/137 377/142/137 378/141/137 379/132/137
f 373/134/136 380/133/136 379/132/136 376/132/136 370/131/136 374/131/136
f 370/131/136 382/131/136 384/131/136 374/131/136
f 378/141/137 388/141/137 387/132/137 379/132/137
f 369/137/137 381/137/137 382/131/137 370/131/137
f 374/131/135 384/131/135 383/140/135 371/140/135
f 375/143/132 386/143/132 388/143/132 378/143/132
f 376/132/135 385/132/135 386/138/135 375/138/135
f 371/140/132 383/140/132 381/140/132 369/140/132
f 396/131/134 397/145/134 399/132/134 400/138/134 398/145/134 395/137/134
f 400/143/132 394/143/132 388/143/132 386/143/132 392/145/132 381/140/132 383/140/132 389/140/132 395/140/132 398/145/132
f 384/131/133 390/131/133 389/140/133 383/140/133
f 390/131/135 396/131/135 395/140/135 389/140/135
f 394/141/137 400/141/137 399/132/137 393/132/137
f 399/132/136 397/145/136 396/131/136 390/131/136 384/131/136 382/131/136 391/145/136 385/132/136 387/132/136 393/132/136
f 388/141/133 394/141/133 393/132/133 387/132/133
f 381/140/133 392/145/133 386/143/133 385/132/133 391/145/133 382/131/133
f 333/139/136 341/144/136 342/143/136 334/140/136
o Ajustement_Bar
v 2.298780 7.225450 0.697875
v 2.279554 6.952419 1.178361
v 2.228335 7.055199 0.694604
v 2.209110 6.782168 1.175091
v 2.058277 6.984679 0.686510
v 2.039052 6.711648 1.166997
v 1.888223 7.055199 0.678335
v 1.868997 6.782168 1.158822
v 1.817788 7.225450 0.674867
v 1.798563 6.952419 1.155354
v 1.888232 7.395700 0.678137
v 1.869007 7.122670 1.158624
v 2.058290 7.466221 0.686231
v 2.039065 7.193190 1.166718
v 2.228345 7.395700 0.694406
v 2.209119 7.122670 1.174893
v 2.398864 7.387945 0.320475
v 2.342914 7.212605 0.311328
v 2.180114 7.128660 0.291135
v 2.005829 7.185286 0.271723
v 1.922154 7.349311 0.264465
v 1.978104 7.524652 0.273612
v 2.140904 7.608595 0.293806
v 2.315189 7.551970 0.313217
v 2.252501 6.745035 1.268995
v 2.280346 6.915286 1.204205
v 2.185095 6.674515 1.425333
v 2.117614 6.745035 1.581639
v 2.089587 6.915286 1.646351
v 2.117432 7.085536 1.581561
v 2.184838 7.156057 1.425222
v 2.252319 7.085536 1.268916
v 2.360948 6.745148 1.331622
v 2.360171 6.915398 1.261106
v 2.362624 6.674627 1.501865
v 2.364219 6.745148 1.672108
v 2.364797 6.915398 1.742625
v 2.364021 7.085649 1.672110
v 2.362345 7.156169 1.501867
v 2.360750 7.085649 1.331624
v 2.984961 6.784820 1.364939
v 2.984364 6.915760 1.310705
v 3.025081 6.782409 1.495500
v 2.987477 6.784820 1.626808
v 2.987922 6.915760 1.681043
v 2.987325 7.046700 1.626809
v 3.024926 7.049157 1.495502
v 2.984809 7.046700 1.364941
v 5.313495 6.815069 1.392357
v 5.313035 6.915922 1.350585
v 5.275604 6.813172 1.493578
v 5.315433 6.815069 1.594053
v 5.315775 6.915922 1.635826
v 5.315315 7.016774 1.594054
v 5.275485 7.018626 1.493579
v 5.313377 7.016774 1.392358
vn 0.9108 -0.3735 -0.1758
vn 0.3603 -0.8172 -0.4499
vn -0.3167 -0.8192 -0.4782
vn -0.8932 -0.3746 -0.2486
vn -0.9108 0.3735 0.1758
vn -0.3603 0.8172 0.4499
vn -0.8264 -0.3220 0.4619
vn 0.3167 0.8192 0.4782
vn 0.8932 0.3746 0.2486
vn 0.4262 -0.8797 -0.2111
vn 0.1155 0.0150 -0.9932
vn -0.9316 0.3448 -0.1151
vn 0.8377 0.3982 0.3738
vn 0.9312 -0.3448 0.1178
vn -0.2921 -0.8749 -0.3862
vn -0.4262 0.8805 0.2075
vn -0.8449 -0.4009 -0.3542
vn 0.2893 0.8700 0.3992
vn -0.3130 0.3721 0.8738
vn 0.4763 0.8764 -0.0707
vn 0.3062 -0.8848 -0.3512
vn -0.8035 0.3224 0.5005
vn 0.9404 0.3005 -0.1589
vn 0.8056 -0.3224 -0.4971
vn -0.4320 -0.8887 0.1534
vn -0.3442 0.8909 0.2962
vn 0.1143 0.9617 -0.2492
vn -0.1443 -0.9187 0.3677
vn 0.5017 -0.3536 -0.7895
vn 0.5012 0.3540 -0.7896
vn -0.1454 0.9186 0.3675
vn -0.3126 -0.3723 0.8739
vn 0.1760 -0.9161 -0.3602
vn 0.1749 0.9162 -0.3604
vn 0.0133 0.9997 0.0185
vn 0.0907 0.3814 0.9199
vn 0.1202 -0.9616 0.2469
vn 0.0734 -0.3813 -0.9215
vn 0.0730 0.3814 -0.9215
vn 0.1191 0.9617 0.2469
vn 0.0911 -0.3813 0.9199
vn 0.1154 -0.9616 -0.2492
vn 1.0000 0.0006 -0.0096
vn 0.0180 -0.3827 0.9237
vn 0.0134 -0.9997 -0.0187
vn 0.0133 0.9997 -0.0187
vn 0.0179 0.3827 0.9237
vn 0.0135 -0.9997 0.0185
vn 0.0158 -0.3826 -0.9238
vn 0.0158 0.3826 -0.9238
vt 1.000000 0.500000
vt 1.000000 1.000000
vt 0.875000 1.000000
vt 0.875000 0.500000
vt 0.750000 1.000000
vt 0.750000 0.500000
vt 0.625000 1.000000
vt 0.625000 0.500000
vt 0.500000 1.000000
vt 0.500000 0.500000
vt 0.375000 1.000000
vt 0.375000 0.500000
vt 0.250000 1.000000
vt 0.250000 0.500000
vt 0.125000 1.000000
vt 0.125000 0.500000
vt 0.000000 1.000000
vt 0.000000 0.500000
vt 0.750000 0.490000
vt 0.919706 0.419706
vt 0.990000 0.250000
vt 0.919706 0.080294
vt 0.750000 0.010000
vt 0.580294 0.080294
vt 0.510000 0.250000
vt 0.580294 0.419706
vt 0.419706 0.419706
vt 0.250000 0.490000
vt 0.080294 0.419706
vt 0.010000 0.250000
vt 0.080294 0.080294
vt 0.250000 0.010000
vt 0.419706 0.080294
vt 0.490000 0.250000
s 0
f 401/146/138 402/147/138 404/148/138 403/149/138
f 403/149/139 404/148/139 406/150/139 405/151/139
f 405/151/140 406/150/140 408/152/140 407/153/140
f 407/153/141 408/152/141 410/154/141 409/155/141
f 409/155/142 410/154/142 412/156/142 411/157/142
f 411/157/143 412/156/143 414/158/143 413/159/143
f 410/154/144 408/152/144 428/152/144 429/154/144
f 413/159/145 414/158/145 416/160/145 415/161/145
f 415/161/146 416/160/146 402/162/146 401/163/146
f 403/149/147 405/151/147 419/151/147 418/149/147
f 417/164/148 418/165/148 419/166/148 420/167/148 421/168/148 422/169/148 423/170/148 424/171/148
f 409/155/149 411/157/149 422/157/149 421/155/149
f 415/161/150 401/163/150 417/163/150 424/161/150
f 401/146/151 403/149/151 418/149/151 417/146/151
f 405/151/152 407/153/152 420/153/152 419/151/152
f 411/157/153 413/159/153 423/159/153 422/157/153
f 407/153/154 409/155/154 421/155/154 420/153/154
f 413/159/155 415/161/155 424/161/155 423/159/155
f 430/156/156 429/154/156 437/154/156 438/156/156
f 416/160/157 414/158/157 431/158/157 432/160/157
f 406/150/158 404/148/158 425/148/158 427/150/158
f 412/156/159 410/154/159 429/154/159 430/156/159
f 402/162/160 416/160/160 432/160/160 426/162/160
f 404/148/161 402/147/161 426/147/161 425/148/161
f 408/152/162 406/150/162 427/150/162 428/152/162
f 414/158/163 412/156/163 430/156/163 431/158/163
f 440/160/164 439/158/164 447/158/164 448/160/164
f 428/152/165 427/150/165 435/150/165 436/152/165
f 425/148/166 426/147/166 434/147/166 433/148/166
f 426/162/167 432/160/167 440/160/167 434/162/167
f 431/158/168 430/156/168 438/156/168 439/158/168
f 429/154/169 428/152/169 436/152/169 437/154/169
f 427/150/170 425/148/170 433/148/170 435/150/170
f 432/160/171 431/158/171 439/158/171 440/160/171
f 447/158/172 446/156/172 454/156/172 455/158/172
f 438/156/173 437/154/173 445/154/173 446/156/173
f 436/152/174 435/150/174 443/150/174 444/152/174
f 433/148/175 434/147/175 442/147/175 441/148/175
f 434/162/176 440/160/176 448/160/176 442/162/176
f 439/158/177 438/156/177 446/156/177 447/158/177
f 437/154/178 436/152/178 444/152/178 445/154/178
f 435/150/179 433/148/179 441/148/179 443/150/179
f 449/172/180 450/173/180 456/174/180 455/175/180 454/176/180 453/177/180 452/178/180 451/179/180
f 445/154/181 444/152/181 452/152/181 453/154/181
f 443/150/182 441/148/182 449/148/182 451/150/182
f 448/160/183 447/158/183 455/158/183 456/160/183
f 446/156/184 445/154/184 453/154/184 454/156/184
f 444/152/185 443/150/185 451/150/185 452/152/185
f 441/148/186 442/147/186 450/147/186 449/148/186
f 442/162/187 448/160/187 456/160/187 450/162/187
o Handle_Adjustement_Bar
v 5.105926 6.809195 1.195659
v 5.105926 7.042171 1.195670
v 5.079245 6.809219 1.753444
v 5.079244 7.042195 1.753455
v 5.568521 6.809195 1.217787
v 5.747573 6.809206 1.493193
v 5.662708 6.809196 1.258042
v 5.728247 6.809201 1.358848
v 5.747573 7.042183 1.493204
v 5.568521 7.042171 1.217798
v 5.728246 7.042177 1.358859
v 5.662708 7.042173 1.258053
v 5.746362 6.809207 1.518514
v 5.541840 6.809219 1.775572
v 5.714300 6.809213 1.650401
v 5.639440 6.809217 1.744490
v 5.541839 7.042195 1.775583
v 5.746362 7.042184 1.518525
v 5.639439 7.042194 1.744501
v 5.714300 7.042190 1.650412
vn -0.9989 -0.0000 -0.0478
vn 0.9898 -0.0000 -0.1424
vn 0.8384 -0.0000 -0.5451
vn 0.3930 -0.0000 -0.9195
vn 0.3034 -0.0000 0.9528
vn 0.7825 -0.0000 0.6226
vn 0.9717 -0.0000 0.2362
vn -0.0000 -1.0000 -0.0000
vn 0.0478 -0.0000 -0.9989
vn 0.9989 -0.0000 0.0478
vn -0.0000 1.0000 -0.0000
vn -0.0478 -0.0000 0.9989
vt 0.375000 0.750000
vt 0.625000 0.750000
vt 0.625000 1.000000
vt 0.375000 1.000000
vt 0.625000 0.369326
vt 0.375000 0.369326
vt 0.375000 0.309663
vt 0.625000 0.309663
vt 0.375000 0.213365
vt 0.625000 0.213365
vt 0.375000 0.176730
vt 0.625000 0.176730
vt 0.625000 0.573270
vt 0.375000 0.573270
vt 0.361062 0.536635
vt 0.638938 0.536635
vt 0.322981 0.500915
vt 0.677019 0.500915
vt 0.265222 0.490453
vt 0.734778 0.490453
vt 0.125000 0.573270
vt 0.140987 0.536635
vt 0.184663 0.509816
vt 0.244326 0.500000
vt 0.125000 0.750000
vt 0.375000 0.000000
vt 0.625000 0.000000
vt 0.755674 0.500000
vt 0.815337 0.509816
vt 0.859013 0.536635
vt 0.875000 0.573270
vt 0.875000 0.750000
s 0
f 459/180/188 460/181/188 458/182/188 457/183/188
f 465/184/189 462/185/189 464/186/189 467/187/189
f 467/187/190 464/186/190 463/188/190 468/189/190
f 468/189/191 463/188/191 461/190/191 466/191/191
f 473/192/192 470/193/192 472/194/192 475/195/192
f 475/195/193 472/194/193 471/196/193 476/197/193
f 476/197/194 471/196/194 469/198/194 474/199/194
f 461/200/195 463/201/195 464/202/195 462/203/195 469/198/195 471/196/195 472/194/195 470/193/195 459/180/195 457/204/195
f 457/205/196 458/206/196 466/191/196 461/190/196
f 462/185/197 465/184/197 474/199/197 469/198/197
f 473/192/198 475/195/198 476/197/198 474/199/198 465/207/198 467/208/198 468/209/198 466/210/198 458/211/198 460/181/198
f 470/193/199 473/192/199 460/181/199 459/180/199
