# Blender 4.5.0
# www.blender.org
mtllib Geometry_Computer.mtl
o Screan
v 1.363606 0.385045 0.087977
v 1.736871 1.359660 -0.223416
v 1.361737 0.385045 0.773289
v 1.733295 1.359660 1.088250
v 0.550831 0.320383 -0.316774
v 0.550831 1.424324 -0.316774
v 0.546775 0.320382 1.170246
v 0.546775 1.424324 1.170246
v 0.523324 1.459083 1.216267
v 0.523324 0.285625 1.216267
v 0.527630 0.285625 -0.363015
v 0.527630 1.459082 -0.363015
v 0.771398 0.285625 1.217455
v 0.771398 1.459083 1.217455
v 0.775707 0.285625 -0.361827
v 0.775707 1.459082 -0.361827
v 1.043812 0.385045 0.771770
v 0.946234 1.359660 -0.227205
v 0.942655 1.359660 1.084466
v 1.045678 0.385045 0.086453
v 1.733295 0.385045 1.088250
v 1.736871 0.385045 -0.223416
v 0.942655 0.385045 1.084466
v 0.946234 0.385045 -0.227205
v 1.361737 0.202640 0.773289
v 1.363606 0.202640 0.087977
v 1.043812 0.202640 0.771770
v 1.045678 0.202640 0.086453
v 1.444914 0.134538 0.954047
v 1.447767 0.134538 -0.091978
v 0.959651 0.134538 0.951725
v 0.962504 0.134538 -0.094300
v 1.492710 0.071999 1.057910
v 1.496129 0.071999 -0.195381
v 0.911289 0.071999 1.055128
v 0.914708 0.071999 -0.198167
v 1.492710 -0.018521 1.057910
v 1.496129 -0.018522 -0.195381
v 0.911289 -0.018521 1.055128
v 0.914708 -0.018522 -0.198167
vn 1.0000 -0.0000 0.0027
vn -0.0048 -0.0000 1.0000
vn -1.0000 -0.0000 -0.0027
vn 0.0048 -0.0000 -1.0000
vn -0.0000 -1.0000 -0.0000
vn -0.0000 1.0000 -0.0000
vn -0.8910 -0.0000 -0.4540
vn -0.8303 0.5573 -0.0023
vn -0.8303 -0.5572 -0.0023
vn -0.8938 -0.0000 0.4485
vn 0.5029 -0.8644 0.0014
vn 0.6133 -0.0000 0.7898
vn 0.5029 0.8644 0.0014
vn 0.6196 -0.0000 -0.7849
vn 0.6313 0.7756 0.0017
vn -0.7928 0.6095 -0.0022
vn -0.6313 0.7756 -0.0017
vn -0.0017 0.9355 0.3532
vn 0.0017 0.9355 -0.3533
vn -0.0025 0.8562 0.5167
vn 0.0025 0.8562 -0.5167
vn 0.7928 0.6095 0.0022
vt 0.375000 0.000000
vt 0.625000 0.000000
vt 0.625000 0.250000
vt 0.375000 0.250000
vt 0.375000 0.375000
vt 0.625000 0.375000
vt 0.625000 0.500000
vt 0.375000 0.500000
vt 0.382405 0.507302
vt 0.617595 0.507302
vt 0.617595 0.742698
vt 0.382405 0.742698
vt 0.375000 0.937500
vt 0.625000 0.937500
vt 0.625000 1.000000
vt 0.375000 1.000000
vt 0.250000 0.500000
vt 0.375000 0.750000
vt 0.250000 0.750000
vt 0.812500 0.500000
vt 0.875000 0.500000
vt 0.875000 0.750000
vt 0.812500 0.750000
vt 0.625000 0.750000
vt 0.750000 0.500000
vt 0.750000 0.750000
vt 0.187500 0.500000
vt 0.187500 0.750000
vt 0.625000 0.875000
vt 0.375000 0.875000
vt 0.375000 0.312500
vt 0.625000 0.312500
vt 0.168816 0.690310
vt 0.143684 0.690310
vt 0.143684 0.559690
vt 0.125000 0.750000
vt 0.125000 0.500000
vt 0.168816 0.559690
s 1
usemtl Material.002
f 22/1/1 2/2/1 4/3/1 21/4/1
f 13/5/2 14/6/2 9/7/2 10/8/2
f 7/9/3 8/10/3 6/11/3 5/12/3
f 24/13/4 18/14/4 2/15/4 22/16/4
f 13/17/5 10/8/5 11/18/5 15/19/5
f 19/20/6 4/21/6 2/22/6 18/23/6
f 8/10/7 7/9/7 10/8/7 9/7/7
f 7/9/8 5/12/8 11/18/8 10/8/8
f 6/11/9 8/10/9 9/7/9 12/24/9
f 5/12/10 6/11/10 12/24/10 11/18/10
f 9/7/6 14/25/6 16/26/6 12/24/6
f 23/27/11 13/17/11 15/19/11 24/28/11
f 11/18/4 12/24/4 16/29/4 15/30/4
f 23/31/12 19/32/12 14/6/12 13/5/12
f 21/4/2 4/3/2 19/32/2 23/31/2
f 20/33/4 1/34/4 26/34/4 28/33/4
f 14/25/13 19/20/13 18/23/13 16/26/13
f 15/30/14 16/29/14 18/14/14 24/13/14
f 3/35/5 1/34/5 22/36/5 21/37/5
f 17/38/5 3/35/5 21/37/5 23/27/5
f 1/34/5 20/33/5 24/28/5 22/36/5
f 20/33/5 17/38/5 23/27/5 24/28/5
f 26/34/15 25/35/15 29/35/15 30/34/15
f 1/34/1 3/35/1 25/35/1 26/34/1
f 17/38/3 20/33/3 28/33/3 27/38/3
f 3/35/2 17/38/2 27/38/2 25/35/2
f 31/38/16 32/33/16 36/33/16 35/38/16
f 27/38/17 28/33/17 32/33/17 31/38/17
f 25/35/18 27/38/18 31/38/18 29/35/18
f 28/33/19 26/34/19 30/34/19 32/33/19
f 36/33/4 34/34/4 38/34/4 40/33/4
f 29/35/20 31/38/20 35/38/20 33/35/20
f 32/33/21 30/34/21 34/34/21 36/33/21
f 30/34/22 29/35/22 33/35/22 34/34/22
f 37/35/5 39/38/5 40/33/5 38/34/5
f 34/34/1 33/35/1 37/35/1 38/34/1
f 35/38/3 36/33/3 40/33/3 39/38/3
f 33/35/2 35/38/2 39/38/2 37/35/2
o PC
v 0.201826 -0.177768 -2.048444
v 0.201826 1.421328 -2.048444
v 0.199551 -0.177768 -1.309501
v 0.199551 1.421328 -1.309501
v 1.798637 -0.177768 -1.302710
v 1.800912 -0.177768 -2.041653
v 1.800912 1.421328 -2.041653
v 1.798637 1.421328 -1.302710
vn -0.0042 -0.0000 1.0000
vn -1.0000 -0.0000 -0.0031
vn 0.0042 -0.0000 -1.0000
vn -0.0000 -1.0000 -0.0000
vn -0.0000 1.0000 -0.0000
vn 1.0000 -0.0000 0.0031
vt -0.382957 0.312900
vt -0.382957 0.959935
vt -1.029988 0.959935
vt -1.029988 0.312900
vt -1.027776 0.262398
vt -0.375404 0.262398
vt -0.375404 0.092954
vt -1.027776 0.092954
vt -1.029068 0.312900
vt -1.029068 0.959935
vt -0.382037 0.959935
vt -0.382037 0.312900
vt -0.375870 0.263955
vt -1.028237 0.262398
vt -1.027310 0.092954
vt -0.374942 0.094511
vt -0.375404 0.263955
vt -1.027776 0.263955
vt -1.027776 0.094511
vt -0.375404 0.094511
s 1
usemtl Material.002
f 45/39/23 48/40/23 44/41/23 43/42/23
f 43/43/24 44/44/24 42/45/24 41/46/24
f 41/47/25 42/48/25 47/49/25 46/50/25
f 45/51/26 43/52/26 41/53/26 46/54/26
f 44/52/27 48/51/27 47/54/27 42/53/27
f 48/55/28 45/56/28 46/57/28 47/58/28
o Mouse
v 0.270693 0.032043 1.733704
v 0.257739 0.075608 1.747406
v 0.269616 0.032041 2.032442
v 0.257028 0.075571 2.018917
v -0.247137 0.038258 1.759623
v -0.247137 0.106236 1.759623
v -0.248018 0.038256 2.002780
v -0.248018 0.106236 2.002780
v 0.019777 0.032041 2.031534
v 0.032461 0.120730 2.018103
v 0.020858 0.032043 1.732800
v 0.033712 0.120693 1.746595
v 0.270153 0.032043 1.883071
v 0.257512 0.075571 1.884986
v -0.247577 0.038256 1.881200
v -0.247577 0.115557 1.881200
v 0.032944 0.120730 1.884176
v 0.020317 0.032043 1.882167
v 0.257255 0.075608 1.880789
v 0.268465 0.070565 2.032435
v 0.020928 0.118861 2.031541
v 0.033231 0.120693 1.879979
v 0.022009 0.118861 1.732804
v 0.269542 0.070565 1.733698
v 0.021468 0.118861 1.882174
v 0.269005 0.070565 1.883068
v -0.136016 0.134471 2.030974
v -0.135415 0.032043 1.732237
v -0.136493 0.032041 2.030974
v -0.134935 0.134471 1.732237
v -0.135475 0.134471 1.881607
v -0.135956 0.032043 1.881603
v 0.179326 0.111931 1.894911
v 0.179406 0.111931 1.872249
v 0.152990 0.096724 1.894818
v 0.153070 0.096724 1.872155
v 0.152990 0.066313 1.894818
v 0.153070 0.066313 1.872155
v 0.179326 0.051109 1.894911
v 0.179406 0.051109 1.872249
v 0.205661 0.066313 1.895008
v 0.205745 0.066313 1.872346
v 0.205661 0.096724 1.895008
v 0.205745 0.096724 1.872346
vn 0.9995 0.0298 0.0036
vn -0.2447 0.0007 0.9696
vn -1.0000 -0.0000 -0.0036
vn 0.0036 -0.0000 -1.0000
vn -0.0556 -0.9985 -0.0002
vn 0.1973 0.9803 0.0007
vn 0.0990 0.9951 0.0004
vn -0.0000 -1.0000 -0.0000
vn -0.0036 -0.0000 1.0000
vn 0.1971 0.9804 0.0007
vn 0.3995 0.9167 0.0014
vn 0.1875 0.9516 0.2434
vn -0.1606 0.9870 -0.0006
vn 0.1004 0.4929 -0.8643
vn 0.1895 0.9527 -0.2375
vn -0.1540 0.9881 -0.0006
vn 0.3942 0.9190 0.0014
vn 0.1044 0.5412 0.8344
vn -0.2098 0.9772 0.0329
vn -0.2377 0.0007 -0.9713
vn -0.2095 0.9772 -0.0344
vn -0.5000 0.8660 -0.0018
vn -1.0000 -0.0000 -0.0035
vn -0.5000 -0.8660 -0.0018
vn 0.5000 -0.8660 0.0018
vn 1.0000 -0.0000 0.0037
vn 0.5000 0.8660 0.0018
vt 0.375000 0.125000
vt 0.625000 0.125000
vt 0.625000 0.250000
vt 0.375000 0.250000
vt 0.375000 0.437500
vt 0.625000 0.437500
vt 0.625000 0.500000
vt 0.375000 0.500000
vt 0.375000 0.625000
vt 0.625000 0.625000
vt 0.625000 0.750000
vt 0.375000 0.750000
vt 0.375000 0.875000
vt 0.625000 0.875000
vt 0.625000 1.000000
vt 0.375000 1.000000
vt 0.312500 0.625000
vt 0.312500 0.750000
vt 0.751212 0.627027
vt 0.873788 0.627027
vt 0.873788 0.747973
vt 0.751212 0.747973
vt 0.687500 0.625000
vt 0.750000 0.625000
vt 0.750000 0.750000
vt 0.687500 0.750000
vt 0.125000 0.625000
vt 0.250000 0.625000
vt 0.250000 0.750000
vt 0.125000 0.750000
vt 0.375000 0.812500
vt 0.625000 0.812500
vt 0.625000 0.375000
vt 0.375000 0.375000
vt 0.125000 0.500000
vt 0.250000 0.500000
vt 0.687500 0.500000
vt 0.750000 0.500000
vt 0.751063 0.501778
vt 0.873937 0.501778
vt 0.873937 0.623222
vt 0.751063 0.623222
vt 0.312500 0.500000
vt 0.375000 0.000000
vt 0.625000 0.000000
vt 0.875000 0.500000
vt 0.875000 0.625000
vt 0.875000 0.750000
vt 1.000000 0.500000
vt 1.000000 1.000000
vt 0.833333 1.000000
vt 0.833333 0.500000
vt 0.666667 1.000000
vt 0.666667 0.500000
vt 0.500000 1.000000
vt 0.500000 0.500000
vt 0.333333 1.000000
vt 0.333333 0.500000
vt 0.457846 0.370000
vt 0.250000 0.490000
vt 0.042154 0.370000
vt 0.042154 0.130000
vt 0.250000 0.010000
vt 0.457846 0.130000
vt 0.166667 1.000000
vt 0.166667 0.500000
vt -0.000000 1.000000
vt -0.000000 0.500000
vt 0.750000 0.490000
vt 0.957846 0.370000
vt 0.957846 0.130000
vt 0.750000 0.010000
vt 0.542154 0.130000
vt 0.542154 0.370000
s 1
usemtl Material.002
f 61/59/29 74/60/29 68/61/29 51/62/29
f 77/63/30 75/64/30 56/65/30 55/66/30
f 63/67/31 64/68/31 54/69/31 53/70/31
f 59/71/32 71/72/32 72/73/32 49/74/32
f 80/75/33 63/67/33 53/70/33 76/76/33
f 70/77/34 67/78/34 50/79/34 60/80/34
f 79/81/35 73/82/35 71/83/35 78/84/35
f 61/85/36 66/86/36 59/87/36 49/88/36
f 76/89/32 78/90/32 71/72/32 59/71/32
f 51/62/37 68/61/37 69/91/37 57/92/37
f 51/93/36 57/94/36 66/86/36 61/85/36
f 75/95/35 69/96/35 73/82/35 79/81/35
f 58/97/38 52/98/38 62/99/38 65/100/38
f 77/101/33 55/66/33 63/67/33 80/75/33
f 55/66/31 56/65/31 64/68/31 63/67/31
f 49/102/29 72/103/29 74/60/29 61/59/29
f 62/99/39 52/98/39 68/104/39 74/105/39
f 52/98/40 58/97/40 69/96/40 68/104/40
f 58/97/41 65/100/41 73/82/41 69/96/41
f 65/100/42 62/99/42 74/105/42 73/82/42
f 60/80/43 50/79/43 72/106/43 71/83/43
f 70/77/44 60/80/44 71/83/44 73/82/44
f 50/79/45 67/78/45 74/105/45 72/106/45
f 67/78/46 70/77/46 73/82/46 74/105/46
f 57/94/36 77/101/36 80/75/36 66/86/36
f 56/65/47 75/95/47 79/81/47 64/68/47
f 53/70/48 54/69/48 78/90/48 76/89/48
f 64/68/49 79/81/49 78/84/49 54/69/49
f 66/86/36 80/75/36 76/76/36 59/87/36
f 57/92/37 69/91/37 75/64/37 77/63/37
f 81/107/50 82/108/50 84/109/50 83/110/50
f 83/110/51 84/109/51 86/111/51 85/112/51
f 85/112/52 86/111/52 88/113/52 87/114/52
f 87/114/53 88/113/53 90/115/53 89/116/53
f 84/117/32 82/118/32 92/119/32 90/120/32 88/121/32 86/122/32
f 89/116/54 90/115/54 92/123/54 91/124/54
f 91/124/55 92/123/55 82/125/55 81/126/55
f 81/127/37 83/128/37 85/129/37 87/130/37 89/131/37 91/132/37
o Keyboard
v 0.510686 -0.018179 -0.490001
v 0.459307 0.086325 -0.449769
v 0.503862 -0.018179 1.397759
v 0.452776 0.086325 1.357155
v -0.297020 -0.100151 -0.492922
v -0.267974 0.012517 -0.452397
v -0.303841 -0.100151 1.394838
v -0.274505 0.012517 1.354526
v 0.499666 0.090404 -0.490041
v 0.492842 0.090404 1.397720
v -0.314861 0.008435 1.394798
v -0.308040 0.008435 -0.492962
v 0.457880 0.100386 -0.449775
v 0.451349 0.100386 1.357148
v -0.275933 0.026574 1.354520
v -0.269402 0.026574 -0.452404
v 0.424006 -0.080247 1.397470
v 0.412987 0.082301 1.397430
v 0.430827 -0.080248 -0.490290
v 0.419807 0.082301 -0.490330
v 0.380873 0.079027 1.356895
v 0.387401 0.079027 -0.450028
v 0.379446 0.093088 1.356889
v 0.385977 0.093088 -0.450035
vn 0.9949 0.1010 0.0036
vn -0.0036 -0.0000 1.0000
vn -0.9949 -0.1010 -0.0036
vn 0.0036 -0.0000 -1.0000
vn 0.0273 -0.9996 0.0001
vn 0.0036 -0.0001 -1.0000
vn -0.1009 0.9949 -0.0004
vn -0.1010 0.9949 -0.0003
vn -0.1010 0.9949 -0.0004
vn -0.0036 0.0001 1.0000
vn -0.9948 -0.1015 -0.0036
vn 0.9949 0.1007 0.0036
vn 0.6137 -0.7896 0.0022
vt 0.297746 0.373097
vt 0.295365 0.385129
vt 0.571320 0.400344
vt 0.570320 0.388517
vt 0.572013 0.374501
vt 0.573415 0.392681
vt 0.595628 0.311429
vt 0.594128 0.298933
vt 0.273757 0.290117
vt 0.276849 0.277442
vt 0.297006 0.358468
vt 0.293512 0.376983
vt 0.298979 0.373976
vt 0.282102 0.296070
vt 0.281714 0.297733
vt 0.298666 0.375569
vt 0.300587 0.381399
vt 0.566609 0.396192
vt 0.568447 0.389195
vt 0.587649 0.316106
vt 0.568576 0.390761
vt 0.566734 0.397750
vt 0.300281 0.382983
vt 0.587830 0.317745
s 1
usemtl Material.005
f 93/133/56 101/134/56 102/135/56 95/136/56
f 109/137/57 110/138/57 103/139/57 99/140/57
f 99/140/58 103/139/58 104/141/58 97/142/58
f 111/143/59 112/144/59 101/134/59 93/133/59
f 109/137/60 99/140/60 97/142/60 111/143/60
f 114/145/61 98/146/61 108/147/61 116/148/61
f 94/149/62 96/150/62 102/135/62 101/134/62
f 113/151/63 100/152/64 103/139/64 110/138/63
f 100/152/64 98/146/64 104/141/64 103/139/64
f 114/145/64 94/149/62 101/134/62 112/144/64
f 115/153/64 106/154/64 105/155/64 116/148/64
f 113/151/65 96/150/65 106/154/65 115/153/65
f 98/146/66 100/152/66 107/156/66 108/147/66
f 96/150/67 94/149/67 105/155/67 106/154/67
f 100/152/65 113/151/65 115/153/65 107/156/65
f 107/156/64 115/153/64 116/148/64 108/147/64
f 98/146/64 114/145/64 112/144/64 104/141/64
f 96/150/62 113/151/63 110/138/63 102/135/62
f 94/149/61 114/145/61 116/148/61 105/155/61
f 95/136/68 109/137/68 111/143/68 93/133/68
f 97/142/59 104/141/59 112/144/59 111/143/59
f 95/136/57 102/135/57 110/138/57 109/137/57
