# Blender 4.5.0
# www.blender.org
mtllib Geometry_Chair_Without_Wheel.mtl
o Cube
v -1.000000 -1.000000 1.000000
v -1.000000 -0.900998 1.000000
v -1.000000 -1.000000 -1.000000
v -1.000000 -0.900998 -1.000000
v 1.000000 -1.000000 1.000000
v 1.000000 -0.900998 1.000000
v 1.000000 -1.000000 -1.000000
v 1.000000 -0.900998 -1.000000
v -1.000000 -0.900998 -1.090785
v 1.000000 -0.900998 -1.090785
v 0.926057 -1.000000 -1.000000
v 0.670787 -1.000000 -1.000000
v -0.670787 -1.000000 -1.000000
v -0.926057 -1.000000 -1.000000
v -0.926057 -0.900998 -1.000000
v -0.670787 -0.900998 -1.000000
v 0.670787 -0.900998 -1.000000
v 0.926057 -0.900998 -1.000000
v -0.926057 -1.000000 1.000000
v -0.670787 -1.000000 1.000000
v 0.670787 -1.000000 1.000000
v 0.926057 -1.000000 1.000000
v 0.926057 -0.900998 1.000000
v 0.670787 -0.900998 1.000000
v -0.670787 -0.900998 1.000000
v -0.926057 -0.900998 1.000000
v 0.926057 -1.000000 -1.090785
v 0.670787 -1.000000 -1.090785
v -0.670787 -1.000000 -1.090785
v -0.926057 -1.000000 -1.090785
v -0.926057 -0.900998 -1.090785
v -0.670787 -0.900998 -1.090785
v 0.670787 -0.900998 -1.090785
v 0.926057 -0.900998 -1.090785
v -0.926057 0.979699 -1.433805
v -0.670787 0.979699 -1.433805
v 0.670787 0.979699 -1.433805
v 0.926057 0.979699 -1.433805
v -0.926057 0.979699 -1.524590
v -0.670787 0.979699 -1.524590
v 0.670787 0.979699 -1.524590
v 0.926057 0.979699 -1.524590
v -1.000000 -1.000000 -0.762137
v -1.000000 -1.000000 0.762137
v -1.000000 -0.900998 0.762137
v -1.000000 -0.900998 -0.762137
v 1.000000 -1.000000 0.762137
v 1.000000 -1.000000 -0.762137
v 1.000000 -0.900998 -0.762137
v 1.000000 -0.900998 0.762137
v 0.926057 -0.900998 -0.762137
v 0.926057 -0.900998 0.762137
v 0.670787 -0.900998 -0.762137
v 0.670787 -0.900998 0.762137
v -0.670787 -0.900998 -0.762137
v -0.670787 -0.900998 0.762137
v -0.926057 -0.900998 -0.762137
v -0.926057 -0.900998 0.762137
v -0.926057 -1.000000 -0.762137
v -0.926057 -1.000000 0.762137
v -0.670787 -1.000000 -0.762137
v -0.670787 -1.000000 0.762137
v 0.670787 -1.000000 -0.762137
v 0.670787 -1.000000 0.762137
v 0.926057 -1.000000 -0.762137
v 0.926057 -1.000000 0.762137
v 0.887767 -2.502159 -0.964321
v 0.709078 -2.502159 -0.964321
v -0.709078 -2.502159 -0.964321
v -0.887767 -2.502159 -0.964321
v -0.887767 -2.502159 0.964321
v -0.709078 -2.502159 0.964321
v 0.709078 -2.502159 0.964321
v 0.887767 -2.502159 0.964321
v -0.887767 -2.502159 0.797817
v -0.709078 -2.502159 0.797817
v 0.709078 -2.502159 0.797817
v 0.887767 -2.502159 0.797817
v -0.887767 -2.502159 -0.797817
v -0.709078 -2.502159 -0.797817
v 0.709078 -2.502159 -0.797817
v 0.887767 -2.502159 -0.797817
v 0.926057 -1.000000 1.067783
v -0.926057 -0.900998 1.067783
v -0.926057 -1.000000 1.067783
v -0.670787 -1.000000 1.067783
v 0.670787 -1.000000 1.067783
v 0.926057 -0.900998 1.067783
v 0.670787 -0.900998 1.067783
v -0.670787 -0.900998 1.067783
v 0.670787 -1.021347 -1.000000
v -0.670787 -1.021347 -1.000000
v -0.670787 -1.021347 1.000000
v 0.670787 -1.021347 1.000000
v -0.670787 -1.080236 0.762137
v 0.670787 -1.080236 0.762137
v -0.926057 -1.021347 -0.762137
v -0.926057 -1.021347 0.762137
v -0.670787 -1.080236 -0.762137
v 0.670787 -1.080236 -0.762137
v 0.926057 -1.021347 -0.762137
v 0.926057 -1.021347 0.762137
v -1.000000 0.915003 -1.418883
v -1.000000 0.915003 -1.509667
v 1.000000 0.915003 -1.509667
v 1.000000 0.915003 -1.418883
v 0.926057 0.915003 -1.509667
v 0.670787 0.915003 -1.509667
v -0.670787 0.915003 -1.509667
v -0.926057 0.915003 -1.509667
v -0.926057 0.915003 -1.418883
v -0.670787 0.915003 -1.418883
v 0.670787 0.915003 -1.418883
v 0.926057 0.915003 -1.418883
vn -1.0000 -0.0000 -0.0000
vn -0.0000 -0.0000 -1.0000
vn 1.0000 -0.0000 -0.0000
vn -0.0000 1.0000 -0.0000
vn -0.0000 -1.0000 -0.0000
vn -0.6585 0.7526 -0.0000
vn 0.6585 0.7526 -0.0000
vn -0.0000 -0.2248 -0.9744
vn 0.6710 -0.5011 -0.5465
vn -0.0000 0.2248 0.9744
vn -0.6710 -0.5011 -0.5465
vn -0.0000 -0.0237 0.9997
vn -0.0000 -0.0237 -0.9997
vn -0.9997 -0.0255 -0.0000
vn 0.9997 -0.0255 -0.0000
vn -0.0000 -0.0000 1.0000
vn -0.6757 -0.0000 0.7371
vn 0.6757 -0.0000 0.7371
vn -0.0000 -0.9707 0.2403
vn 0.2248 -0.9744 -0.0000
vn -0.0000 -0.9707 -0.2403
vn -0.2248 -0.9744 -0.0000
vt 0.375000 0.166667
vt 0.625000 0.166667
vt 0.625000 0.250000
vt 0.375000 0.250000
vt 0.625000 0.500000
vt 0.375000 0.450000
vt 0.625000 0.450000
vt 0.375000 0.666667
vt 0.625000 0.666667
vt 0.625000 0.750000
vt 0.375000 0.750000
vt 0.775000 0.750000
vt 0.825000 0.750000
vt 0.325000 0.666667
vt 0.325000 0.750000
vt 0.825000 0.666667
vt 0.875000 0.666667
vt 0.875000 0.750000
vt 0.325000 0.500000
vt 0.375000 0.500000
vt 0.375000 0.300000
vt 0.625000 0.300000
vt 0.825000 0.500000
vt 0.625000 0.250000
vt 0.675000 0.500000
vt 0.625000 0.400000
vt 0.625000 0.350000
vt 0.875000 0.500000
vt 0.825000 0.500000
vt 0.775000 0.500000
vt 0.725000 0.500000
vt 0.275000 0.500000
vt 0.225000 0.500000
vt 0.175000 0.500000
vt 0.125000 0.500000
vt 0.375000 0.350000
vt 0.375000 0.400000
vt 0.675000 0.666667
vt 0.675000 0.750000
vt 0.725000 0.666667
vt 0.725000 0.750000
vt 0.775000 0.666667
vt 0.125000 0.666667
vt 0.175000 0.666667
vt 0.175000 0.750000
vt 0.125000 0.750000
vt 0.375000 0.800000
vt 0.375000 0.850000
vt 0.225000 0.583333
vt 0.175000 0.583333
vt 0.625000 0.000000
vt 0.625000 0.950000
vt 0.275000 0.583333
vt 0.325000 0.583333
vt 0.125000 0.583333
vt 0.825000 0.583333
vt 0.775000 0.583333
vt 0.725000 0.583333
vt 0.675000 0.583333
vt 0.625000 0.583333
vt 0.875000 0.583333
vt 0.375000 0.583333
vt 0.375000 0.000000
vt 0.625000 0.083333
vt 0.375000 0.083333
vt 0.225000 0.666667
vt 0.225000 0.750000
vt 0.275000 0.666667
vt 0.275000 0.750000
vt 0.375000 0.900000
vt 0.375000 0.950000
vt 0.625000 0.800000
vt 0.625000 0.850000
vt 0.625000 0.900000
s 0
f 43/1/1 46/2/1 4/3/1 3/4/1
f 10/5/2 27/6/2 34/7/2
f 47/8/3 50/9/3 6/10/3 5/11/3
f 25/12/4 26/13/4 84/13/4 90/12/4
f 66/14/5 47/8/5 5/11/5 22/15/5
f 58/16/4 45/17/4 2/18/4 26/13/4
f 27/19/5 7/20/5 11/19/5
f 30/21/2 9/3/2 31/22/2
f 103/3/6 35/23/6 39/22/6 104/24/6
f 4/3/1 9/3/1 3/4/1
f 105/5/7 42/25/7 38/25/7 106/5/7
f 42/7/8 105/5/8 107/7/8
f 27/6/9 10/5/9 7/20/9
f 110/22/8 104/24/8 39/22/8
f 38/25/10 114/25/10 106/5/10
f 107/7/8 108/26/8 41/26/8 42/7/8
f 108/26/8 109/27/8 40/27/8 41/26/8
f 109/27/8 110/22/8 39/22/8 40/27/8
f 35/23/10 103/28/10 111/29/10
f 111/29/10 112/30/10 36/30/10 35/23/10
f 112/30/10 113/31/10 37/31/10 36/30/10
f 113/31/10 114/25/10 38/25/10 37/31/10
f 30/21/11 3/4/11 9/3/11
f 35/23/4 36/30/4 40/30/4 39/23/4
f 36/30/4 37/31/4 41/31/4 40/30/4
f 37/31/4 38/25/4 42/25/4 41/31/4
f 8/5/3 7/20/3 10/5/3
f 11/19/5 12/32/5 28/32/5 27/19/5
f 12/32/5 13/33/5 29/33/5 28/32/5
f 13/33/5 14/34/5 30/34/5 29/33/5
f 3/35/5 30/34/5 14/34/5
f 30/21/2 31/22/2 32/27/2 29/36/2
f 29/36/2 32/27/2 33/26/2 28/37/2
f 28/37/2 33/26/2 34/7/2 27/6/2
f 50/9/4 52/38/4 23/39/4 6/10/4
f 52/38/4 54/40/4 24/41/4 23/39/4
f 54/40/4 56/42/4 25/12/4 24/41/4
f 56/42/4 58/16/4 26/13/4 25/12/4
f 44/43/5 60/44/5 19/45/5 1/46/5
f 22/47/12 21/48/12 73/48/12 74/47/12
f 13/33/2 12/32/2 91/32/2 92/33/2
f 61/49/12 59/50/12 79/50/12 80/49/12
f 2/51/4 84/52/4 26/13/4
f 21/48/5 22/47/5 83/47/5 87/48/5
f 24/41/4 25/12/4 90/12/4 89/41/4
f 14/34/13 13/33/13 69/33/13 70/34/13
f 63/53/2 65/54/2 101/54/2 100/53/2
f 60/44/1 59/50/1 97/50/1 98/44/1
f 12/32/3 63/53/3 100/53/3 91/32/3
f 63/53/14 12/32/14 68/32/14 81/53/14
f 65/54/3 66/14/3 102/14/3 101/54/3
f 3/35/5 14/34/5 59/50/5 43/55/5
f 43/55/5 59/50/5 60/44/5 44/43/5
f 16/30/4 15/23/4 57/56/4 55/57/4
f 55/57/4 57/56/4 58/16/4 56/42/4
f 17/31/4 16/30/4 55/57/4 53/58/4
f 53/58/4 55/57/4 56/42/4 54/40/4
f 18/25/4 17/31/4 53/58/4 51/59/4
f 51/59/4 53/58/4 54/40/4 52/38/4
f 8/5/4 18/25/4 51/59/4 49/60/4
f 49/60/4 51/59/4 52/38/4 50/9/4
f 15/23/4 4/28/4 46/61/4 57/56/4
f 57/56/4 46/61/4 45/17/4 58/16/4
f 11/19/5 7/20/5 48/62/5 65/54/5
f 65/54/5 48/62/5 47/8/5 66/14/5
f 7/20/3 8/5/3 49/60/3 48/62/3
f 48/62/3 49/60/3 50/9/3 47/8/3
f 1/63/1 2/51/1 45/64/1 44/65/1
f 44/65/1 45/64/1 46/2/1 43/1/1
f 75/44/5 76/66/5 72/67/5 71/45/5
f 77/68/5 78/14/5 74/15/5 73/69/5
f 68/32/5 67/19/5 82/54/5 81/53/5
f 70/34/5 69/33/5 80/49/5 79/50/5
f 60/44/13 62/66/13 76/66/13 75/44/13
f 19/45/14 60/44/14 75/44/14 71/45/14
f 11/19/15 65/54/15 82/54/15 67/19/15
f 62/66/15 20/67/15 72/67/15 76/66/15
f 59/50/14 14/34/14 70/34/14 79/50/14
f 21/69/14 64/68/14 77/68/14 73/69/14
f 65/54/12 63/53/12 81/53/12 82/54/12
f 66/14/15 22/15/15 74/15/15 78/14/15
f 64/68/13 66/14/13 78/14/13 77/68/13
f 13/33/15 61/49/15 80/49/15 69/33/15
f 12/32/13 11/19/13 67/19/13 68/32/13
f 20/70/12 19/71/12 71/71/12 72/70/12
f 19/71/5 85/71/5 1/63/5
f 83/47/16 88/72/16 89/73/16 87/48/16
f 87/48/16 89/73/16 90/74/16 86/70/16
f 86/70/16 90/74/16 84/52/16 85/71/16
f 19/71/5 20/70/5 86/70/5 85/71/5
f 23/39/4 24/41/4 89/41/4 88/39/4
f 20/67/5 21/69/5 87/69/5 86/67/5
f 1/63/17 85/71/17 84/52/17 2/51/17
f 23/39/4 88/39/4 6/10/4
f 5/11/5 83/47/5 22/47/5
f 5/11/18 6/10/18 88/72/18 83/47/18
f 95/66/19 96/68/19 94/69/19 93/67/19
f 100/53/20 101/54/20 102/14/20 96/68/20
f 92/33/21 91/32/21 100/53/21 99/49/21
f 99/49/5 100/53/5 96/68/5 95/66/5
f 97/50/22 99/49/22 95/66/22 98/44/22
f 59/50/2 61/49/2 99/49/2 97/50/2
f 20/67/1 62/66/1 95/66/1 93/67/1
f 61/49/1 13/33/1 92/33/1 99/49/1
f 66/14/16 64/68/16 96/68/16 102/14/16
f 21/69/16 20/67/16 93/67/16 94/69/16
f 62/66/16 60/44/16 98/44/16 95/66/16
f 64/68/3 21/69/3 94/69/3 96/68/3
f 17/31/10 18/25/10 114/25/10 113/31/10
f 16/30/10 17/31/10 113/31/10 112/30/10
f 15/23/10 16/30/10 112/30/10 111/29/10
f 4/28/10 15/23/10 111/29/10 103/28/10
f 32/27/8 31/22/8 110/22/8 109/27/8
f 33/26/8 32/27/8 109/27/8 108/26/8
f 34/7/8 33/26/8 108/26/8 107/7/8
f 10/5/8 34/7/8 107/7/8 105/5/8
f 31/22/8 9/3/8 104/24/8 110/22/8
f 18/25/10 8/5/10 106/5/10 114/25/10
f 8/5/3 10/5/3 105/5/3 106/5/3
f 9/3/1 4/3/1 103/3/1 104/24/1
