# Blender 5.1.2
# www.blender.org
mtllib props_pan.mtl
o Cube.011
v -0.069435 0.080676 1.206065
v -0.069435 0.155007 1.206065
v -0.069435 0.080676 0.673875
v -0.069435 0.155007 0.673875
v 0.069435 0.080676 1.206065
v 0.069435 0.155007 1.206065
v 0.069435 0.080676 0.673875
v 0.069435 0.155007 0.673875
v 0.000000 0.080676 0.673875
v 0.000000 0.155007 0.673875
v 0.000000 0.080676 1.257640
v 0.000000 0.155007 1.257640
v -0.062558 0.006412 0.331118
v -0.317634 0.006412 0.076042
v -0.228950 0.007521 0.242433
v -0.575201 0.206372 0.136400
v -0.122916 0.206372 0.588684
v -0.417952 0.204998 0.431435
v -0.317634 0.006412 -0.049075
v -0.062558 0.006412 -0.304151
v -0.228950 0.007521 -0.215467
v -0.122916 0.206372 -0.561718
v -0.575201 0.206372 -0.109433
v -0.417952 0.204998 -0.404468
v 0.317634 0.006412 0.076042
v 0.062558 0.006412 0.331118
v 0.228950 0.007521 0.242433
v 0.122916 0.206372 0.588684
v 0.575201 0.206372 0.136400
v 0.417952 0.204998 0.431435
v 0.062558 0.006412 -0.304151
v 0.317634 0.006412 -0.049075
v 0.228950 0.007521 -0.215467
v 0.575201 0.206372 -0.109433
v 0.122916 0.206372 -0.561718
v 0.417952 0.204998 -0.404468
v -0.149466 0.161866 0.678950
v -0.486065 0.160756 0.499548
v -0.665466 0.161866 0.162949
v -0.486065 0.160756 -0.472581
v -0.149466 0.161866 -0.651983
v -0.665466 0.161866 -0.135982
v 0.486065 0.160756 -0.472581
v 0.665466 0.161866 -0.135982
v 0.149466 0.161866 -0.651983
v 0.486065 0.160756 0.499548
v 0.149466 0.161866 0.678950
v 0.665466 0.161866 0.162949
v -0.099300 0.100793 0.478169
v -0.337649 0.099684 0.351133
v -0.464686 0.100793 0.112783
v -0.337649 0.099684 -0.324166
v -0.099300 0.100793 -0.451202
v -0.464686 0.100793 -0.085816
v 0.337649 0.099684 -0.324166
v 0.464686 0.100793 -0.085816
v 0.099300 0.100793 -0.451202
v 0.337649 0.099684 0.351133
v 0.099300 0.100793 0.478169
v 0.464686 0.100793 0.112783
v -0.486065 0.065676 0.499548
v -0.149466 0.064566 0.678950
v -0.665466 0.064566 0.162949
v -0.149466 0.064566 -0.651983
v -0.486065 0.065676 -0.472581
v -0.665466 0.064566 -0.135982
v 0.665466 0.064566 -0.135982
v 0.486065 0.065676 -0.472581
v 0.149466 0.064566 -0.651983
v 0.149466 0.064566 0.678950
v 0.486065 0.065676 0.499548
v 0.665466 0.064566 0.162949
vn -1.0000 -0.0000 -0.0000
vn 1.0000 -0.0000 -0.0000
vn -0.5963 -0.0000 0.8028
vn -0.0000 -1.0000 -0.0000
vn -0.0000 1.0000 -0.0000
vn 0.5963 -0.0000 0.8028
vn -0.4703 -0.0000 0.8825
vn -0.8825 -0.0000 0.4703
vn -0.4703 -0.0000 -0.8825
vn -0.8825 -0.0000 -0.4703
vn 0.8825 -0.0000 -0.4703
vn 0.4703 -0.0000 -0.8825
vn 0.4703 -0.0000 0.8825
vn 0.8825 -0.0000 0.4703
vn -0.0000 -0.0000 1.0000
vn -0.0000 -0.0000 -1.0000
vn 0.6160 0.7175 0.3250
vn -0.2068 0.9010 0.3813
vn -0.3813 0.9010 0.2068
vn -0.2068 0.9010 -0.3813
vn -0.3813 0.9010 -0.2068
vn 0.3813 0.9010 -0.2068
vn 0.2068 0.9010 -0.3813
vn 0.2068 0.9010 0.3813
vn 0.3813 0.9010 0.2068
vn -0.4422 0.8969 -0.0000
vn -0.0000 0.8969 0.4422
vn 0.4422 0.8969 -0.0000
vn -0.0000 0.8969 -0.4422
vn -0.6908 0.7231 -0.0000
vn 0.3250 0.7175 -0.6160
vn -0.6160 0.7175 -0.3250
vn -0.6160 0.7175 0.3250
vn -0.0000 0.7231 0.6908
vn 0.6160 0.7175 -0.3250
vn 0.6908 0.7231 -0.0000
vn -0.3250 0.7175 0.6160
vn 0.3250 0.7175 0.6160
vn -0.0000 0.7231 -0.6908
vn -0.3250 0.7175 -0.6160
vn -0.0809 -0.9863 0.1436
vn -0.1436 -0.9863 0.0809
vn -0.0809 -0.9863 -0.1436
vn -0.1436 -0.9863 -0.0809
vn 0.1436 -0.9863 -0.0809
vn 0.0809 -0.9863 -0.1436
vn 0.0809 -0.9863 0.1436
vn 0.1436 -0.9863 0.0809
vn -0.1649 -0.9863 -0.0000
vn -0.0000 -0.9863 -0.1649
vn 0.1649 -0.9863 -0.0000
vn -0.0000 -0.9863 0.1649
vn -0.0000 -0.9999 0.0125
vn -0.0000 -1.0000 -0.0067
vn -0.0000 -0.9999 -0.0125
vn -0.0000 -1.0000 0.0067
vn -0.0000 1.0000 0.0087
vn -0.0000 1.0000 -0.0047
vn -0.0000 1.0000 0.0047
vn -0.0000 1.0000 -0.0087
vt 0.520800 0.597676
vt 0.520800 0.567052
vt 0.638162 0.567052
vt 0.638162 0.597676
vt 0.365289 0.597676
vt 0.365289 0.567052
vt 0.482651 0.567052
vt 0.482651 0.597676
vt 0.501725 0.597676
vt 0.501725 0.567052
vt 0.365289 0.538158
vt 0.365289 0.522846
vt 0.482651 0.522845
vt 0.494025 0.538158
vt 0.507607 0.538158
vt 0.507607 0.522846
vt 0.624969 0.522846
vt 0.636342 0.538158
vt 0.507607 0.553470
vt 0.624969 0.553470
vt 0.365289 0.553470
vt 0.482651 0.553470
vt 0.401735 0.819955
vt 0.516133 0.819955
vt 0.516133 0.833756
vt 0.401735 0.833756
vt 0.516133 0.847557
vt 0.401735 0.847557
vt 0.516133 0.885430
vt 0.401735 0.885430
vt 0.401735 0.871630
vt 0.516133 0.871630
vt 0.401735 0.857829
vt 0.516133 0.857829
vt 0.516133 0.927240
vt 0.401735 0.927240
vt 0.401735 0.913439
vt 0.516133 0.913439
vt 0.401735 0.899639
vt 0.516133 0.899639
vt 0.516133 0.965113
vt 0.401735 0.965113
vt 0.401735 0.951313
vt 0.516133 0.951313
vt 0.401735 0.937512
vt 0.516133 0.937512
vt 0.516133 0.979322
vt 0.401735 0.979322
vt 0.462477 0.762382
vt 0.462477 0.773428
vt 0.331631 0.773428
vt 0.331631 0.762382
vt 0.462477 0.803742
vt 0.462477 0.792696
vt 0.517656 0.792696
vt 0.517657 0.803742
vt 0.462477 0.781650
vt 0.517657 0.781650
vt 0.462477 0.751336
vt 0.517656 0.751336
vt 0.517656 0.762382
vt 0.517656 0.773428
vt 0.462477 0.728917
vt 0.462477 0.717871
vt 0.517656 0.717871
vt 0.517656 0.728917
vt 0.462477 0.739963
vt 0.517656 0.739963
vt 0.462477 0.698603
vt 0.462477 0.687557
vt 0.517656 0.687557
vt 0.517657 0.698603
vt 0.462477 0.709649
vt 0.517656 0.709649
vt 0.462477 0.676185
vt 0.517656 0.676185
vt 0.331631 0.717871
vt 0.331631 0.709649
vt 0.331631 0.803742
vt 0.331631 0.792696
vt 0.331631 0.698603
vt 0.331631 0.728917
vt 0.331631 0.751336
vt 0.331631 0.739963
vt 0.331631 0.781650
vt 0.331631 0.687557
vt 0.331631 0.676185
vt 0.331631 0.833756
vt 0.331631 0.819955
vt 0.331631 0.847556
vt 0.331631 0.885430
vt 0.331631 0.871630
vt 0.331631 0.857829
vt 0.331631 0.927240
vt 0.331631 0.913439
vt 0.331631 0.899639
vt 0.331631 0.965113
vt 0.331631 0.951313
vt 0.331631 0.937512
vt 0.331631 0.979322
vt 0.788470 0.641281
vt 0.835728 0.668072
vt 0.813804 0.667867
vt 0.799906 0.659988
vt 0.789147 0.619366
vt 0.854185 0.656236
vt 0.797026 0.605468
vt 0.862064 0.642338
vt 0.815483 0.593632
vt 0.837407 0.593837
vt 0.851305 0.601716
vt 0.862741 0.620423
vt 0.752152 0.613250
vt 0.681314 0.573092
vt 0.714178 0.573399
vt 0.735011 0.585209
vt 0.751138 0.646100
vt 0.653648 0.590832
vt 0.739328 0.666933
vt 0.711661 0.684673
vt 0.640824 0.644515
vt 0.641838 0.611665
vt 0.678798 0.684367
vt 0.657965 0.672556
s 0
usemtl Utililities
f 1/1/1 2/2/1 4/3/1 3/4/1
f 7/5/2 8/6/2 6/7/2 5/8/2
f 11/9/3 12/10/3 2/2/3 1/1/3
f 9/11/4 7/12/4 5/13/4 11/14/4
f 10/15/5 4/16/5 2/17/5 12/18/5
f 8/19/5 10/15/5 12/18/5 6/20/5
f 3/21/4 9/11/4 11/14/4 1/22/4
f 5/8/6 6/7/6 12/10/6 11/9/6
f 62/23/7 37/24/7 38/25/7 61/26/7
f 61/26/8 38/25/8 39/27/8 63/28/8
f 41/29/9 64/30/9 65/31/9 40/32/9
f 40/32/10 65/31/10 66/33/10 42/34/10
f 44/35/11 67/36/11 68/37/11 43/38/11
f 43/38/12 68/37/12 69/39/12 45/40/12
f 47/41/13 70/42/13 71/43/13 46/44/13
f 46/44/14 71/43/14 72/45/14 48/46/14
f 63/28/1 39/27/1 42/34/1 66/33/1
f 70/42/15 47/41/15 37/47/15 62/48/15
f 64/30/16 41/29/16 45/40/16 69/39/16
f 67/36/2 44/35/2 48/46/2 72/45/2
f 24/49/17 23/50/17 54/51/17 52/52/17
f 17/53/18 18/54/18 38/55/18 37/56/18
f 18/54/19 16/57/19 39/58/19 38/55/19
f 24/49/20 22/59/20 41/60/20 40/61/20
f 23/50/21 24/49/21 40/61/21 42/62/21
f 36/63/22 34/64/22 44/65/22 43/66/22
f 35/67/23 36/63/23 43/66/23 45/68/23
f 30/69/24 28/70/24 47/71/24 46/72/24
f 29/73/25 30/69/25 46/72/25 48/74/25
f 16/57/26 23/50/26 42/62/26 39/58/26
f 28/70/27 17/75/27 37/76/27 47/71/27
f 34/64/28 29/73/28 48/74/28 44/65/28
f 22/59/29 35/67/29 45/68/29 41/60/29
f 29/73/30 34/64/30 56/77/30 60/78/30
f 18/54/31 17/53/31 49/79/31 50/80/31
f 30/69/32 29/73/32 60/78/32 58/81/32
f 34/64/33 36/63/33 55/82/33 56/77/33
f 35/67/34 22/59/34 53/83/34 57/84/34
f 16/57/35 18/54/35 50/80/35 51/85/35
f 23/50/36 16/57/36 51/85/36 54/51/36
f 36/63/37 35/67/37 57/84/37 55/82/37
f 22/59/38 24/49/38 52/52/38 53/83/38
f 17/75/39 28/70/39 59/86/39 49/87/39
f 28/70/40 30/69/40 58/81/40 59/86/40
f 15/88/41 13/89/41 62/23/41 61/26/41
f 14/90/42 15/88/42 61/26/42 63/28/42
f 20/91/43 21/92/43 65/31/43 64/30/43
f 21/92/44 19/93/44 66/33/44 65/31/44
f 32/94/45 33/95/45 68/37/45 67/36/45
f 33/95/46 31/96/46 69/39/46 68/37/46
f 26/97/47 27/98/47 71/43/47 70/42/47
f 27/98/48 25/99/48 72/45/48 71/43/48
f 19/93/49 14/90/49 63/28/49 66/33/49
f 31/96/50 20/91/50 64/30/50 69/39/50
f 25/99/51 32/94/51 67/36/51 72/45/51
f 13/100/52 26/97/52 70/42/52 62/48/52
f 33/101/53 21/102/53 20/103/53 31/104/53
f 32/105/54 19/106/54 21/102/54 33/101/54
f 25/107/4 14/108/4 19/106/4 32/105/4
f 27/109/55 26/110/55 13/111/55 15/112/55
f 15/112/56 14/108/56 25/107/56 27/109/56
f 52/113/57 55/114/57 57/115/57 53/116/57
f 54/117/58 56/118/58 55/114/58 52/113/58
f 51/119/59 50/120/59 58/121/59 60/122/59
f 58/121/60 50/120/60 49/123/60 59/124/60
f 60/122/5 56/118/5 54/117/5 51/119/5
