# Blender 5.1.2
# www.blender.org
mtllib props_apple.mtl
o Cube.008
v -0.007612 0.261944 0.002589
v -0.007612 0.321129 0.057211
v -0.007612 0.269804 -0.010449
v -0.007612 0.328988 0.044173
v 0.007612 0.261944 0.002589
v 0.007612 0.321129 0.057211
v 0.007612 0.269804 -0.010449
v 0.007612 0.328988 0.044173
v -0.007612 0.363469 0.063406
v -0.007612 0.361994 0.048254
v 0.007612 0.361994 0.048254
v 0.007612 0.363469 0.063406
v -0.098829 0.010284 0.010379
v -0.098829 0.196022 0.077982
v -0.098829 0.077887 -0.175359
v -0.098829 0.263625 -0.107756
v 0.098829 0.010284 0.010379
v 0.098829 0.196022 0.077982
v 0.098829 0.077887 -0.175359
v 0.098829 0.263625 -0.107756
v -0.120486 0.023734 -0.089897
v -0.120486 0.095746 0.064532
v -0.120486 0.250175 -0.007480
v -0.120486 0.178163 -0.161909
v 0.000000 0.074644 -0.182313
v -0.000000 0.270579 -0.110999
v 0.120486 0.178163 -0.161909
v 0.120486 0.023734 -0.089897
v 0.120486 0.250175 -0.007480
v 0.120486 0.095746 0.064532
v -0.000000 0.003330 0.013621
v -0.000000 0.199264 0.084936
v -0.143841 0.136954 -0.048689
v 0.000000 0.186062 -0.183610
v 0.143841 0.136954 -0.048689
v -0.000000 0.087847 0.086233
v 0.000000 0.002033 -0.097796
v -0.000000 0.271876 0.000419
vn -1.0000 -0.0000 -0.0000
vn -0.0000 0.6782 -0.7349
vn 1.0000 -0.0000 -0.0000
vn -0.0000 -0.6782 0.7349
vn -0.0000 0.9953 -0.0968
vn -0.0000 -0.1448 0.9895
vn -0.0000 0.1227 -0.9924
vn -0.9519 -0.2778 0.1296
vn -0.9519 0.1296 0.2778
vn -0.9519 0.2778 -0.1296
vn -0.9519 -0.1296 -0.2778
vn -0.1303 0.0435 -0.9905
vn -0.1303 0.6033 -0.7868
vn 0.1303 0.6033 -0.7868
vn 0.1303 0.0435 -0.9905
vn 0.9519 -0.1296 -0.2778
vn 0.9519 0.2778 -0.1296
vn 0.9519 0.1296 0.2778
vn 0.9519 -0.2778 0.1296
vn 0.1303 -0.6033 0.7868
vn 0.1303 -0.0435 0.9905
vn -0.1303 -0.0435 0.9905
vn -0.1303 -0.6033 0.7868
vn -0.1303 -0.7868 -0.6033
vn 0.1303 -0.7868 -0.6033
vn 0.1303 -0.9905 -0.0435
vn -0.1303 -0.9905 -0.0435
vn 0.1303 0.9905 0.0435
vn -0.1303 0.9905 0.0435
vn -0.1303 0.7868 0.6033
vn 0.1303 0.7868 0.6033
vt 0.153746 0.962336
vt 0.177806 0.962336
vt 0.177806 0.966771
vt 0.153746 0.966771
vt 0.177806 0.971205
vt 0.153746 0.971205
vt 0.153746 0.953467
vt 0.177806 0.953467
vt 0.177806 0.957902
vt 0.153746 0.957902
vt 0.189165 0.962336
vt 0.189165 0.966771
vt 0.100248 0.952563
vt 0.136892 0.952563
vt 0.136892 0.989206
vt 0.100248 0.989206
vt 0.189165 0.957902
vt 0.189165 0.971205
vt 0.189165 0.953467
vt 0.129534 0.798580
vt 0.129534 0.865675
vt 0.093068 0.865675
vt 0.093068 0.798580
vt 0.129534 0.932771
vt 0.093068 0.932771
vt 0.056602 0.932771
vt 0.056602 0.865675
vt 0.056602 0.798580
vt 0.019927 0.865675
vt 0.019927 0.798580
vt 0.019927 0.932771
vt 0.312490 0.865675
vt 0.312490 0.932771
vt 0.275815 0.932771
vt 0.275815 0.865675
vt 0.312490 0.798580
vt 0.275815 0.798580
vt 0.239349 0.865675
vt 0.239349 0.798580
vt 0.239349 0.932771
vt 0.202883 0.932771
vt 0.202883 0.865675
vt 0.202883 0.798580
vt 0.166209 0.865675
vt 0.166209 0.798580
vt 0.166209 0.932771
vt 0.067909 0.976606
vt 0.053134 0.976606
vt 0.054011 0.960644
vt 0.071621 0.961612
vt 0.038448 0.974988
vt 0.036401 0.959677
vt 0.040112 0.944683
vt 0.054887 0.944683
vt 0.069573 0.946301
vt 0.040112 0.944683
s 0
usemtl Utililities
f 1/1/1 2/2/1 4/3/1 3/4/1
f 3/4/2 4/3/2 8/5/2 7/6/2
f 7/7/3 8/8/3 6/9/3 5/10/3
f 5/10/4 6/9/4 2/2/4 1/1/4
f 4/3/1 2/2/1 9/11/1 10/12/1
f 11/13/5 10/14/5 9/15/5 12/16/5
f 2/2/6 6/9/6 12/17/6 9/11/6
f 8/5/7 4/3/7 10/12/7 11/18/7
f 6/9/3 8/8/3 11/19/3 12/17/3
f 13/20/8 22/21/8 33/22/8 21/23/8
f 22/21/9 14/24/9 23/25/9 33/22/9
f 33/22/10 23/25/10 16/26/10 24/27/10
f 21/23/11 33/22/11 24/27/11 15/28/11
f 15/28/12 24/27/12 34/29/12 25/30/12
f 24/27/13 16/26/13 26/31/13 34/29/13
f 34/32/14 26/33/14 20/34/14 27/35/14
f 25/36/15 34/32/15 27/35/15 19/37/15
f 19/37/16 27/35/16 35/38/16 28/39/16
f 27/35/17 20/34/17 29/40/17 35/38/17
f 35/38/18 29/40/18 18/41/18 30/42/18
f 28/39/19 35/38/19 30/42/19 17/43/19
f 17/43/20 30/42/20 36/44/20 31/45/20
f 30/42/21 18/41/21 32/46/21 36/44/21
f 36/44/22 32/46/22 14/24/22 22/21/22
f 31/45/23 36/44/23 22/21/23 13/20/23
f 15/47/24 25/48/24 37/49/24 21/50/24
f 25/48/25 19/51/25 28/52/25 37/49/25
f 37/49/26 28/52/26 17/53/26 31/54/26
f 21/50/27 37/49/27 31/54/27 13/55/27
f 20/56/28 26/54/28 38/49/28 29/52/28
f 26/54/29 16/55/29 23/50/29 38/49/29
f 38/49/30 23/50/30 14/47/30 32/48/30
f 29/52/31 38/49/31 32/48/31 18/51/31
