# Blender 5.1.2
# www.blender.org
mtllib props_sofa.mtl
o Sofa
v -1.879269 2.788822 2.924796
v -1.291601 2.888243 2.924796
v -1.879269 2.788822 -3.209943
v -1.291601 2.888243 -3.209943
v -1.599402 1.134556 2.924796
v -1.011734 1.233977 2.924796
v -1.599402 1.134556 -3.209943
v -1.011734 1.233977 -3.209943
v -2.196054 0.150078 3.435253
v -1.798763 2.162098 2.920981
v 0.880376 0.728038 2.920981
v 0.880376 2.189067 3.435253
v -2.196054 2.191087 3.435253
v 0.880376 0.150078 3.435253
v 0.880376 2.076527 2.920981
v -1.389966 0.749881 2.920981
v -0.424888 0.150078 3.435253
v -0.424888 2.191087 3.435253
v -0.424888 2.176592 2.920981
v -0.424888 0.738959 2.920981
v -2.196054 1.542458 3.435253
v 0.880376 1.542458 3.435253
v 0.880376 1.542458 2.920981
v -1.662834 1.542458 2.920981
v -0.424888 1.542458 2.920981
v -0.424888 1.542458 3.435253
v -2.196054 1.666226 3.718682
v -2.196054 2.168583 3.763689
v -0.400254 2.168583 3.763689
v 0.880376 2.009017 3.763689
v 0.880376 1.666226 3.718682
v -0.400254 1.666226 3.718682
v -2.196054 0.150078 -0.136821
v -2.196054 2.191087 -0.136821
v 0.880376 0.150078 -0.136821
v -1.389966 0.749881 -0.136821
v -1.798763 2.162098 -0.136821
v 0.880376 0.728038 -0.136821
v -0.424888 0.150078 -0.136821
v -0.424888 0.738959 -0.136821
v -1.662834 1.542458 -0.136821
v -2.196054 1.542458 -0.136821
v -2.196054 0.150078 -3.708895
v -1.798763 2.162098 -3.194623
v 0.880376 0.728038 -3.194623
v 0.880376 2.189066 -3.708895
v -2.196054 2.191087 -3.708895
v 0.880376 0.150078 -3.708895
v 0.880376 2.076527 -3.194623
v -1.389966 0.749881 -3.194623
v -0.424888 0.150078 -3.708895
v -0.424888 2.191087 -3.708895
v -0.424888 2.176592 -3.194623
v -0.424888 0.738959 -3.194623
v -2.196054 1.542458 -3.708895
v 0.880376 1.542458 -3.708895
v 0.880376 1.542458 -3.194623
v -1.662834 1.542458 -3.194623
v -0.424888 1.542458 -3.194623
v -0.424888 1.542458 -3.708895
v -2.196054 1.666226 -3.992324
v -2.196054 2.168583 -4.037330
v -0.400254 2.168583 -4.037330
v 0.880376 2.009017 -4.037330
v 0.880376 1.666226 -3.992324
v -0.400254 1.666226 -3.992324
v 0.715346 -0.001009 2.802950
v 0.715346 0.197239 2.802950
v 0.829937 -0.001009 2.850415
v 0.829937 0.197239 2.850415
v 0.877402 -0.001009 2.965006
v 0.877402 0.197239 2.965006
v 0.829937 -0.001009 3.079596
v 0.829937 0.197239 3.079596
v 0.715346 -0.001009 3.127061
v 0.715346 0.197239 3.127061
v 0.600755 -0.001009 3.079596
v 0.600755 0.197239 3.079596
v 0.553290 -0.001009 2.965006
v 0.553290 0.197239 2.965006
v 0.600755 -0.001009 2.850415
v 0.600755 0.197239 2.850415
v -1.681790 -0.001009 2.802950
v -1.681790 0.197239 2.802950
v -1.796380 -0.001009 2.850415
v -1.796380 0.197239 2.850415
v -1.843845 -0.001009 2.965006
v -1.843845 0.197239 2.965006
v -1.796380 -0.001009 3.079596
v -1.796380 0.197239 3.079596
v -1.681790 -0.001009 3.127061
v -1.681790 0.197239 3.127061
v -1.567199 -0.001009 3.079596
v -1.567199 0.197239 3.079596
v -1.519734 -0.001009 2.965006
v -1.519734 0.197239 2.965006
v -1.567199 -0.001009 2.850415
v -1.567199 0.197239 2.850415
v 0.715346 -0.001009 -3.025639
v 0.715346 0.197239 -3.025639
v 0.829937 -0.001009 -3.073104
v 0.829937 0.197239 -3.073104
v 0.877402 -0.001009 -3.187694
v 0.877402 0.197239 -3.187694
v 0.829937 -0.001009 -3.302285
v 0.829937 0.197239 -3.302285
v 0.715346 -0.001009 -3.349750
v 0.715346 0.197239 -3.349750
v 0.600755 -0.001009 -3.302285
v 0.600755 0.197239 -3.302285
v 0.553290 -0.001009 -3.187694
v 0.553290 0.197239 -3.187694
v 0.600755 -0.001009 -3.073104
v 0.600755 0.197239 -3.073104
v -1.681790 -0.001009 -3.025639
v -1.681790 0.197239 -3.025639
v -1.796380 -0.001009 -3.073104
v -1.796380 0.197239 -3.073104
v -1.843845 -0.001009 -3.187694
v -1.843845 0.197239 -3.187694
v -1.796380 -0.001009 -3.302285
v -1.796380 0.197239 -3.302285
v -1.681790 -0.001009 -3.349750
v -1.681790 0.197239 -3.349750
v -1.567199 -0.001009 -3.302285
v -1.567199 0.197239 -3.302285
v -1.519734 -0.001009 -3.187694
v -1.519734 0.197239 -3.187694
v -1.567199 -0.001009 -3.073104
v -1.567199 0.197239 -3.073104
v -1.004442 0.725785 2.924795
v -1.004442 1.321803 2.924795
v -1.004442 0.725785 -3.209942
v -1.004442 1.321803 -3.209942
v 0.998575 0.725785 2.924795
v 0.998575 1.321803 2.924795
v 0.998575 0.725785 -3.209942
v 0.998575 1.321803 -3.209942
vn -0.1668 0.9860 -0.0000
vn -0.0000 -0.0000 -1.0000
vn 0.1668 -0.9860 -0.0000
vn -0.0000 -0.0000 1.0000
vn -0.9860 -0.1668 -0.0000
vn 0.9860 0.1668 -0.0000
vn 0.0596 0.9545 0.2921
vn 0.0084 1.0000 -0.0000
vn -0.0000 -0.9164 0.4002
vn -0.0000 -1.0000 -0.0000
vn 0.9455 0.3255 -0.0000
vn 1.0000 -0.0000 -0.0000
vn -0.0046 0.9990 -0.0440
vn 0.0388 0.9917 -0.1225
vn 0.0113 0.9999 -0.0000
vn 0.9768 0.2143 -0.0000
vn -0.0000 -0.0892 0.9960
vn -0.0066 -0.1059 0.9944
vn -0.0000 0.9977 0.0684
vn -1.0000 -0.0000 -0.0000
vn 0.0728 0.9973 -0.0000
vn 0.0596 0.9545 -0.2921
vn -0.0000 -0.9164 -0.4002
vn -0.0046 0.9990 0.0440
vn 0.0388 0.9917 0.1225
vn -0.0000 -0.0892 -0.9960
vn -0.0066 -0.1059 -0.9944
vn -0.0000 0.9977 -0.0684
vn 0.3827 -0.0000 -0.9239
vn 0.9239 -0.0000 -0.3827
vn 0.9239 -0.0000 0.3827
vn 0.3827 -0.0000 0.9239
vn -0.3827 -0.0000 0.9239
vn -0.9239 -0.0000 0.3827
vn -0.9239 -0.0000 -0.3827
vn -0.3827 -0.0000 -0.9239
vn -0.0000 1.0000 -0.0000
vt 0.035836 0.874646
vt 0.035836 0.899817
vt 0.294918 0.899817
vt 0.294918 0.874646
vt 0.123748 0.874646
vt 0.123748 0.899817
vt 0.194604 0.899817
vt 0.194604 0.874646
vt 0.440405 0.945230
vt 0.440405 0.985699
vt 0.023865 0.985699
vt 0.023865 0.945230
vt 0.413907 0.475460
vt 0.413907 0.617991
vt 0.924992 0.617991
vt 0.924992 0.475460
vt 0.456708 0.221036
vt 0.347228 0.221036
vt 0.349294 0.193489
vt 0.456708 0.193489
vt 0.176034 0.218696
vt 0.024110 0.218696
vt 0.024110 0.024880
vt 0.175454 0.024880
vt 0.253292 0.409447
vt 0.411421 0.409447
vt 0.413621 0.420497
vt 0.253292 0.420497
vt 0.325703 0.016938
vt 0.380909 0.016442
vt 0.380909 0.167523
vt 0.325703 0.167523
vt 0.176034 0.486465
vt 0.024110 0.486465
vt 0.024110 0.362002
vt 0.176034 0.362002
vt 0.388673 0.674547
vt 0.096254 0.674547
vt 0.047074 0.619276
vt 0.388673 0.619276
vt 0.096254 0.752431
vt 0.091603 0.797303
vt 0.047074 0.814266
vt 0.047074 0.752431
vt 0.347228 0.264171
vt 0.231993 0.264171
vt 0.198670 0.221036
vt 0.251792 0.798694
vt 0.350767 0.798694
vt 0.361634 0.848235
vt 0.251792 0.849394
vt 0.147434 0.798694
vt 0.147434 0.841393
vt 0.456708 0.264171
vt 0.250791 0.016442
vt 0.250791 0.167523
vt 0.015665 0.797048
vt 0.019969 0.764267
vt 0.527955 0.409447
vt 0.527955 0.420497
vt 0.527955 0.285136
vt 0.411421 0.285136
vt 0.147434 0.733580
vt 0.251792 0.734453
vt 0.328951 0.735327
vt 0.176034 0.580658
vt 0.024110 0.580658
vt 0.253292 0.285136
vt 0.413621 0.465347
vt 0.253292 0.465347
vt 0.527955 0.451101
vt 0.198670 0.193489
vt 0.921878 0.273892
vt 0.921878 0.191588
vt 0.957842 0.207293
vt 0.963553 0.271036
vt 0.921878 0.014911
vt 0.468623 0.191588
vt 0.468623 0.014911
vt 0.231993 0.521631
vt 0.198670 0.520647
vt 0.468623 0.273892
vt 0.764465 0.356875
vt 0.764465 0.300489
vt 0.778562 0.300489
vt 0.778562 0.356875
vt 0.792659 0.300489
vt 0.792659 0.356875
vt 0.806755 0.300489
vt 0.806755 0.356875
vt 0.820852 0.300489
vt 0.820852 0.356875
vt 0.834949 0.300489
vt 0.834949 0.356875
vt 0.849045 0.300489
vt 0.849045 0.356875
vt 0.863142 0.300489
vt 0.863142 0.356875
vt 0.877238 0.300489
vt 0.877238 0.356875
vt 0.713509 0.323071
vt 0.706289 0.305640
vt 0.706289 0.340502
vt 0.671427 0.340502
vt 0.671427 0.305640
vt 0.664207 0.323071
vt 0.688858 0.347721
vt 0.688858 0.298420
vt 0.906830 0.422513
vt 0.906830 0.393909
vt 0.612408 0.393909
vt 0.612408 0.422513
vt 0.799879 0.422513
vt 0.799879 0.393909
vt 0.719359 0.393909
vt 0.719359 0.422513
vt 0.992059 0.721838
vt 0.950040 0.721838
vt 0.950041 0.289351
vt 0.992059 0.289351
vt 0.978573 0.915307
vt 0.978573 0.753118
vt 0.395294 0.753117
vt 0.395294 0.915307
s 0
usemtl Material.001
f 1/1/1 2/2/1 4/3/1 3/4/1
f 3/5/2 4/6/2 8/7/2 7/8/2
f 7/9/3 8/10/3 6/11/3 5/12/3
f 5/8/4 6/7/4 2/6/4 1/5/4
f 3/13/5 7/14/5 5/15/5 1/16/5
f 8/14/6 4/13/6 2/16/6 6/15/6
f 12/17/7 18/18/7 29/19/7 30/20/7
f 40/21/8 20/22/8 11/23/8 38/24/8
f 21/25/9 26/26/9 32/27/9 27/28/9
f 39/29/10 35/30/10 14/31/10 17/32/10
f 41/33/11 24/34/11 16/35/11 36/36/11
f 38/37/12 11/38/12 14/39/12 35/40/12
f 23/41/12 15/42/12 12/43/12 22/44/12
f 19/45/13 10/46/13 13/47/13 18/18/13
f 25/48/2 24/49/2 10/50/2 19/51/2
f 23/52/2 25/48/2 19/51/2 15/53/2
f 15/54/14 19/45/14 18/18/14 12/17/14
f 33/55/10 39/29/10 17/32/10 9/56/10
f 22/44/12 12/43/12 30/57/12 31/58/12
f 36/36/15 16/35/15 20/22/15 40/21/15
f 26/26/9 22/59/9 31/60/9 32/27/9
f 14/61/4 22/59/4 26/26/4 17/62/4
f 11/63/2 20/64/2 25/48/2 23/52/2
f 20/64/2 16/65/2 24/49/2 25/48/2
f 11/38/12 23/41/12 22/44/12 14/39/12
f 37/66/16 10/67/16 24/34/16 41/33/16
f 17/62/4 26/26/4 21/25/4 9/68/4
f 32/27/17 29/69/17 28/70/17 27/28/17
f 31/60/18 30/71/18 29/69/18 32/27/18
f 18/18/19 13/47/19 28/72/19 29/19/19
f 13/73/20 21/74/20 27/75/20 28/76/20
f 9/77/20 21/74/20 42/78/20 33/79/20
f 10/46/21 37/80/21 34/81/21 13/47/21
f 21/74/20 13/73/20 34/82/20 42/78/20
f 46/17/22 64/20/22 63/19/22 52/18/22
f 40/21/8 38/24/8 45/23/8 54/22/8
f 55/25/23 61/28/23 66/27/23 60/26/23
f 39/29/10 51/32/10 48/31/10 35/30/10
f 41/33/11 36/36/11 50/35/11 58/34/11
f 38/37/12 35/40/12 48/39/12 45/38/12
f 57/41/12 56/44/12 46/43/12 49/42/12
f 53/45/24 52/18/24 47/47/24 44/46/24
f 59/48/4 53/51/4 44/50/4 58/49/4
f 57/52/4 49/53/4 53/51/4 59/48/4
f 49/54/25 46/17/25 52/18/25 53/45/25
f 33/55/10 43/56/10 51/32/10 39/29/10
f 56/44/12 65/58/12 64/57/12 46/43/12
f 36/36/15 40/21/15 54/22/15 50/35/15
f 60/26/23 66/27/23 65/60/23 56/59/23
f 48/61/2 51/62/2 60/26/2 56/59/2
f 45/63/4 57/52/4 59/48/4 54/64/4
f 54/64/4 59/48/4 58/49/4 50/65/4
f 45/38/12 48/39/12 56/44/12 57/41/12
f 37/66/16 41/33/16 58/34/16 44/67/16
f 51/62/2 43/68/2 55/25/2 60/26/2
f 66/27/26 61/28/26 62/70/26 63/69/26
f 65/60/27 66/27/27 63/69/27 64/71/27
f 52/18/28 63/19/28 62/72/28 47/47/28
f 47/73/20 62/76/20 61/75/20 55/74/20
f 43/77/20 33/79/20 42/78/20 55/74/20
f 44/46/21 47/47/21 34/81/21 37/80/21
f 55/74/20 42/78/20 34/82/20 47/73/20
f 67/83/29 68/84/29 70/85/29 69/86/29
f 69/86/30 70/85/30 72/87/30 71/88/30
f 71/88/31 72/87/31 74/89/31 73/90/31
f 73/90/32 74/89/32 76/91/32 75/92/32
f 75/92/33 76/91/33 78/93/33 77/94/33
f 77/94/34 78/93/34 80/95/34 79/96/34
f 79/96/35 80/95/35 82/97/35 81/98/35
f 81/98/36 82/97/36 68/99/36 67/100/36
f 67/101/10 69/102/10 81/103/10
f 77/104/10 73/105/10 75/106/10
f 79/107/10 71/108/10 73/105/10 77/104/10
f 81/103/10 69/102/10 71/108/10 79/107/10
f 83/83/36 85/86/36 86/85/36 84/84/36
f 85/86/35 87/88/35 88/87/35 86/85/35
f 87/88/34 89/90/34 90/89/34 88/87/34
f 89/90/33 91/92/33 92/91/33 90/89/33
f 91/92/32 93/94/32 94/93/32 92/91/32
f 93/94/31 95/96/31 96/95/31 94/93/31
f 95/96/30 97/98/30 98/97/30 96/95/30
f 97/98/29 83/100/29 84/99/29 98/97/29
f 83/101/10 97/103/10 85/102/10
f 93/104/10 91/106/10 89/105/10
f 95/107/10 93/104/10 89/105/10 87/108/10
f 97/103/10 95/107/10 87/108/10 85/102/10
f 99/83/32 101/86/32 102/85/32 100/84/32
f 101/86/31 103/88/31 104/87/31 102/85/31
f 103/88/30 105/90/30 106/89/30 104/87/30
f 105/90/29 107/92/29 108/91/29 106/89/29
f 107/92/36 109/94/36 110/93/36 108/91/36
f 109/94/35 111/96/35 112/95/35 110/93/35
f 111/96/34 113/98/34 114/97/34 112/95/34
f 113/98/33 99/100/33 100/99/33 114/97/33
f 99/101/10 113/103/10 101/102/10
f 109/104/10 107/106/10 105/105/10
f 111/107/10 109/104/10 105/105/10 103/108/10
f 113/103/10 111/107/10 103/108/10 101/102/10
f 115/83/33 116/84/33 118/85/33 117/86/33
f 117/86/34 118/85/34 120/87/34 119/88/34
f 119/88/35 120/87/35 122/89/35 121/90/35
f 121/90/36 122/89/36 124/91/36 123/92/36
f 123/92/29 124/91/29 126/93/29 125/94/29
f 125/94/30 126/93/30 128/95/30 127/96/30
f 127/96/31 128/95/31 130/97/31 129/98/31
f 129/98/32 130/97/32 116/99/32 115/100/32
f 115/101/10 117/102/10 129/103/10
f 125/104/10 121/105/10 123/106/10
f 127/107/10 119/108/10 121/105/10 125/104/10
f 129/103/10 117/102/10 119/108/10 127/107/10
f 131/109/20 132/110/20 134/111/20 133/112/20
f 133/113/2 134/114/2 138/115/2 137/116/2
f 137/117/12 138/118/12 136/119/12 135/120/12
f 135/116/4 136/115/4 132/114/4 131/113/4
f 133/121/10 137/122/10 135/123/10 131/124/10
f 138/122/37 134/121/37 132/124/37 136/123/37
