# Blender 5.1.2
# www.blender.org
mtllib props_bread.mtl
o Cube.012
v -0.171927 0.002910 0.374921
v -0.171927 0.208663 0.374921
v -0.171927 0.002910 -0.374921
v -0.171927 0.208663 -0.374921
v 0.171927 0.002910 0.374921
v 0.171927 0.208663 0.374921
v 0.171927 0.002910 -0.374921
v 0.171927 0.208663 -0.374921
v -0.202081 0.002910 -0.222650
v -0.202081 0.002910 0.000000
v -0.202081 0.002910 0.222650
v -0.202081 0.278961 0.222650
v -0.202081 0.278961 0.000000
v -0.202081 0.278961 -0.222650
v 0.202081 0.002910 0.222650
v 0.202081 0.002910 0.000000
v 0.202081 0.002910 -0.222650
v 0.202081 0.278961 -0.222650
v 0.202081 0.278961 0.000000
v 0.202081 0.278961 0.222650
v 0.067360 0.002910 -0.445300
v -0.067360 0.002910 -0.445300
v -0.067360 0.235991 -0.445300
v 0.067360 0.235991 -0.445300
v -0.067360 0.002910 0.445300
v 0.067360 0.002910 0.445300
v 0.067360 0.235991 0.445300
v -0.067360 0.235991 0.445300
v -0.067360 0.350923 -0.222650
v 0.067360 0.350923 -0.222650
v -0.067360 0.350923 0.000000
v 0.067360 0.350923 0.000000
v -0.067360 0.350923 0.222650
v 0.067360 0.350923 0.222650
v 0.067360 0.002910 -0.222650
v -0.067360 0.002910 -0.222650
v 0.067360 0.002910 0.000000
v -0.067360 0.002910 0.000000
v 0.067360 0.002910 0.222650
v -0.067360 0.002910 0.222650
vn -0.9810 -0.0000 -0.1943
vn 0.5584 -0.0000 -0.8296
vn 0.9810 -0.0000 0.1943
vn -0.5584 -0.0000 0.8296
vn -0.0000 -1.0000 -0.0000
vn -0.4507 0.7854 0.4243
vn -0.4507 0.7854 -0.4243
vn -0.4712 0.8821 -0.0000
vn 0.9810 -0.0000 -0.1943
vn 1.0000 -0.0000 -0.0000
vn -0.9810 -0.0000 0.1943
vn -1.0000 -0.0000 -0.0000
vn 0.4712 0.8821 -0.0000
vn -0.0000 1.0000 -0.0000
vn 0.4507 0.7854 -0.4243
vn -0.0000 0.8886 -0.4587
vn 0.4507 0.7854 0.4243
vn -0.0000 0.8886 0.4587
vn 0.5584 -0.0000 0.8296
vn -0.0000 -0.0000 1.0000
vn -0.5584 -0.0000 -0.8296
vn -0.0000 -0.0000 -1.0000
vt 0.680127 0.501592
vt 0.680127 0.562120
vt 0.657851 0.562120
vt 0.657851 0.501592
vt 0.930402 0.501592
vt 0.930402 0.562120
vt 0.904430 0.562120
vt 0.904430 0.501592
vt 0.842579 0.501592
vt 0.842579 0.562120
vt 0.820304 0.562120
vt 0.820304 0.501592
vt 0.767949 0.501592
vt 0.767949 0.562120
vt 0.741978 0.562120
vt 0.741978 0.501592
vt 0.662893 0.404328
vt 0.630653 0.404328
vt 0.637869 0.387792
vt 0.662893 0.380149
vt 0.531795 0.450350
vt 0.525682 0.486400
vt 0.496714 0.483257
vt 0.493361 0.453594
vt 0.614714 0.455860
vt 0.609580 0.487007
vt 0.578818 0.488772
vt 0.574802 0.450884
vt 0.552384 0.489269
vt 0.553554 0.451319
vt 0.662893 0.476868
vt 0.637869 0.469224
vt 0.630653 0.452688
vt 0.662893 0.452688
vt 0.630653 0.428508
vt 0.662893 0.428508
vt 0.882155 0.562120
vt 0.882155 0.501592
vt 0.862367 0.562120
vt 0.862367 0.501592
vt 0.719702 0.562120
vt 0.719702 0.501592
vt 0.699915 0.562120
vt 0.699915 0.501592
vt 0.727372 0.428508
vt 0.695132 0.428508
vt 0.695132 0.404328
vt 0.727372 0.404328
vt 0.727372 0.452688
vt 0.695132 0.452688
vt 0.720156 0.469224
vt 0.695132 0.476868
vt 0.555689 0.384296
vt 0.554520 0.422247
vt 0.533272 0.422682
vt 0.529256 0.384795
vt 0.582392 0.387165
vt 0.576280 0.423215
vt 0.611361 0.390308
vt 0.614714 0.419971
vt 0.493361 0.417706
vt 0.498495 0.386560
vt 0.695132 0.380149
vt 0.720156 0.387792
vt 0.794333 0.562120
vt 0.794333 0.501592
vt 0.982756 0.501592
vt 0.982756 0.562120
vt 0.956785 0.562120
vt 0.956785 0.501592
s 0
usemtl Utililities
f 9/1/1 14/2/1 4/3/1 3/4/1
f 21/5/2 24/6/2 8/7/2 7/8/2
f 15/9/3 20/10/3 6/11/3 5/12/3
f 25/13/4 28/14/4 2/15/4 1/16/4
f 39/17/5 15/18/5 5/19/5 26/20/5
f 33/21/6 12/22/6 2/23/6 28/24/6
f 23/25/7 4/26/7 14/27/7 29/28/7
f 29/28/8 14/27/8 13/29/8 31/30/8
f 31/30/8 13/29/8 12/22/8 33/21/8
f 21/31/5 7/32/5 17/33/5 35/34/5
f 35/34/5 17/33/5 16/35/5 37/36/5
f 37/36/5 16/35/5 15/18/5 39/17/5
f 7/8/9 8/7/9 18/37/9 17/38/9
f 17/38/10 18/37/10 19/39/10 16/40/10
f 16/40/10 19/39/10 20/10/10 15/9/10
f 1/16/11 2/15/11 12/41/11 11/42/11
f 11/42/12 12/41/12 13/43/12 10/44/12
f 10/44/12 13/43/12 14/2/12 9/1/12
f 10/45/5 38/46/5 40/47/5 11/48/5
f 38/46/5 37/36/5 39/17/5 40/47/5
f 9/49/5 36/50/5 38/46/5 10/45/5
f 36/50/5 35/34/5 37/36/5 38/46/5
f 3/51/5 22/52/5 36/50/5 9/49/5
f 22/52/5 21/31/5 35/34/5 36/50/5
f 19/53/13 32/54/13 34/55/13 20/56/13
f 32/54/14 31/30/14 33/21/14 34/55/14
f 18/57/13 30/58/13 32/54/13 19/53/13
f 30/58/14 29/28/14 31/30/14 32/54/14
f 8/59/15 24/60/15 30/58/15 18/57/15
f 24/60/16 23/25/16 29/28/16 30/58/16
f 20/56/17 34/55/17 27/61/17 6/62/17
f 34/55/18 33/21/18 28/24/18 27/61/18
f 11/48/5 40/47/5 25/63/5 1/64/5
f 40/47/5 39/17/5 26/20/5 25/63/5
f 5/12/19 6/11/19 27/65/19 26/66/19
f 26/66/20 27/65/20 28/14/20 25/13/20
f 3/67/21 4/68/21 23/69/21 22/70/21
f 22/70/22 23/69/22 24/6/22 21/5/22
