# Blender 5.1.2
# www.blender.org
mtllib props_plate_1.mtl
o Cube.005
v -0.037446 0.017382 0.190131
v -0.190131 0.017382 0.037446
v -0.137046 0.018316 0.137046
v -0.344307 0.185727 0.073576
v -0.073576 0.185727 0.344307
v -0.250180 0.184571 0.250180
v -0.190131 0.017382 -0.037446
v -0.037446 0.017382 -0.190131
v -0.137046 0.018316 -0.137046
v -0.073576 0.185727 -0.344307
v -0.344307 0.185727 -0.073576
v -0.250180 0.184571 -0.250180
v 0.190131 0.017382 0.037446
v 0.037446 0.017382 0.190131
v 0.137046 0.018316 0.137046
v 0.073576 0.185727 0.344307
v 0.344307 0.185727 0.073576
v 0.250180 0.184571 0.250180
v 0.037446 0.017382 -0.190131
v 0.190131 0.017382 -0.037446
v 0.137046 0.018316 -0.137046
v 0.344307 0.185727 -0.073576
v 0.073576 0.185727 -0.344307
v 0.250180 0.184571 -0.250180
v -0.089468 0.148258 0.398339
v -0.290951 0.147324 0.290951
v -0.398339 0.148258 0.089468
v -0.290951 0.147324 -0.290951
v -0.089468 0.148258 -0.398339
v -0.398339 0.148258 -0.089468
v 0.290951 0.147324 -0.290951
v 0.398339 0.148258 -0.089468
v 0.089468 0.148258 -0.398339
v 0.290951 0.147324 0.290951
v 0.089468 0.148258 0.398339
v 0.398339 0.148258 0.089468
v -0.059439 0.096841 0.278154
v -0.202112 0.095907 0.202112
v -0.278154 0.096841 0.059439
v -0.202112 0.095907 -0.202112
v -0.059439 0.096841 -0.278154
v -0.278154 0.096841 -0.059439
v 0.202112 0.095907 -0.202112
v 0.278154 0.096841 -0.059439
v 0.059439 0.096841 -0.278154
v 0.202112 0.095907 0.202112
v 0.059439 0.096841 0.278154
v 0.278154 0.096841 0.059439
v -0.290951 0.067276 0.290951
v -0.089468 0.066342 0.398339
v -0.398339 0.066342 0.089468
v -0.089468 0.066342 -0.398339
v -0.290951 0.067276 -0.290951
v -0.398339 0.066342 -0.089468
v 0.398339 0.066342 -0.089468
v 0.290951 0.067276 -0.290951
v 0.089468 0.066342 -0.398339
v 0.089468 0.066342 0.398339
v 0.290951 0.067276 0.290951
v 0.398339 0.066342 0.089468
v -0.137046 0.003427 0.137046
v -0.037446 0.002493 0.190131
v -0.190131 0.002493 0.037446
v -0.037446 0.002493 -0.190131
v -0.137046 0.003427 -0.137046
v -0.190131 0.002493 -0.037446
v 0.190131 0.002493 -0.037446
v 0.137046 0.003427 -0.137046
v 0.037446 0.002493 -0.190131
v 0.037446 0.002493 0.190131
v 0.137046 0.003427 0.137046
v 0.190131 0.002493 0.037446
v 0.000000 0.002845 0.000000
v 0.000000 0.096499 0.000000
vn -0.4703 -0.0000 0.8825
vn -0.8825 -0.0000 0.4703
vn -0.4703 -0.0000 -0.8825
vn -0.8825 -0.0000 -0.4703
vn 0.8825 -0.0000 -0.4703
vn 0.4703 -0.0000 -0.8825
vn 0.4703 -0.0000 0.8825
vn 0.8825 -0.0000 0.4703
vn -1.0000 -0.0000 -0.0000
vn -0.0000 -0.0000 1.0000
vn -0.0000 -0.0000 -1.0000
vn 1.0000 -0.0000 -0.0000
vn 0.7135 0.5909 0.3764
vn -0.2673 0.8280 0.4929
vn -0.4929 0.8280 0.2673
vn -0.2673 0.8280 -0.4929
vn -0.4929 0.8280 -0.2673
vn 0.4929 0.8280 -0.2673
vn 0.2673 0.8280 -0.4929
vn 0.2673 0.8280 0.4929
vn 0.4929 0.8280 0.2673
vn -0.5699 0.8217 -0.0000
vn -0.0000 0.8217 0.5699
vn 0.5699 0.8217 -0.0000
vn -0.0000 0.8217 -0.5699
vn -0.8022 0.5970 -0.0000
vn 0.3764 0.5909 -0.7135
vn -0.7135 0.5909 -0.3764
vn -0.7135 0.5909 0.3764
vn -0.0000 0.5970 0.8022
vn 0.7135 0.5909 -0.3764
vn 0.8022 0.5970 -0.0000
vn -0.3764 0.5909 0.7135
vn 0.3764 0.5909 0.7135
vn -0.0000 0.5970 -0.8022
vn -0.3764 0.5909 -0.7135
vn -0.1123 -0.9735 0.1994
vn -0.1994 -0.9735 0.1123
vn -0.1123 -0.9735 -0.1994
vn -0.1994 -0.9735 -0.1123
vn 0.1994 -0.9735 -0.1123
vn 0.1123 -0.9735 -0.1994
vn 0.1123 -0.9735 0.1994
vn 0.1994 -0.9735 0.1123
vn -0.2289 -0.9734 -0.0000
vn -0.0000 -0.9734 -0.2289
vn 0.2289 -0.9734 -0.0000
vn -0.0000 -0.9734 0.2289
vn -0.0033 -1.0000 0.0076
vn 0.0076 -1.0000 -0.0033
vn -0.0000 -1.0000 -0.0019
vn -0.0076 -1.0000 -0.0033
vn 0.0033 -1.0000 0.0076
vn 0.0019 -1.0000 -0.0000
vn 0.0033 -1.0000 -0.0076
vn -0.0076 -1.0000 0.0033
vn -0.0000 -1.0000 0.0019
vn 0.0076 -1.0000 0.0033
vn -0.0033 -1.0000 -0.0076
vn -0.0019 -1.0000 -0.0000
vn -0.0024 1.0000 -0.0053
vn 0.0053 1.0000 0.0024
vn -0.0000 1.0000 0.0012
vn -0.0053 1.0000 0.0024
vn 0.0024 1.0000 -0.0053
vn 0.0012 1.0000 -0.0000
vn 0.0024 1.0000 0.0053
vn -0.0053 1.0000 -0.0024
vn -0.0000 1.0000 -0.0012
vn 0.0053 1.0000 -0.0024
vn -0.0024 1.0000 0.0053
vn -0.0012 1.0000 -0.0000
vt 0.066625 0.315201
vt 0.066625 0.493356
vt 0.043988 0.493356
vt 0.043988 0.315201
vt 0.021350 0.493356
vt 0.021350 0.315201
vt 0.207039 0.493356
vt 0.207039 0.315201
vt 0.229676 0.315201
vt 0.229676 0.493356
vt 0.252314 0.315201
vt 0.252314 0.493356
vt 0.145142 0.493356
vt 0.145142 0.315201
vt 0.167780 0.315201
vt 0.167780 0.493356
vt 0.190418 0.315201
vt 0.190418 0.493356
vt 0.083246 0.493356
vt 0.083246 0.315201
vt 0.105884 0.315201
vt 0.105884 0.493356
vt 0.128521 0.315201
vt 0.128521 0.493356
vt 0.268935 0.315201
vt 0.268935 0.493356
vt 0.021797 0.620726
vt 0.021797 0.603794
vt 0.216967 0.603794
vt 0.216967 0.620726
vt 0.254636 0.728309
vt 0.239175 0.709762
vt 0.244453 0.708050
vt 0.259045 0.721036
vt 0.066625 0.575480
vt 0.043988 0.575480
vt 0.021350 0.575480
vt 0.229676 0.575480
vt 0.207039 0.575480
vt 0.252314 0.575480
vt 0.167780 0.575480
vt 0.145142 0.575480
vt 0.190418 0.575480
vt 0.105884 0.575480
vt 0.083246 0.575480
vt 0.128521 0.575480
vt 0.268935 0.575480
vt 0.021797 0.696383
vt 0.021797 0.683952
vt 0.216967 0.683952
vt 0.216967 0.696383
vt 0.021797 0.759609
vt 0.021797 0.742678
vt 0.216967 0.742678
vt 0.216967 0.759609
vt 0.021797 0.713315
vt 0.216967 0.713315
vt 0.021797 0.667020
vt 0.216967 0.667020
vt 0.021797 0.650089
vt 0.021797 0.637657
vt 0.216967 0.637657
vt 0.216967 0.650089
vt 0.021797 0.776541
vt 0.216967 0.776541
vt 0.021797 0.591363
vt 0.216967 0.591363
vt 0.021797 0.730246
vt 0.216967 0.730246
vt 0.284017 0.476491
vt 0.284017 0.460293
vt 0.393299 0.460293
vt 0.393299 0.476491
vt 0.284017 0.492690
vt 0.393299 0.492690
vt 0.284017 0.359817
vt 0.284017 0.343619
vt 0.393299 0.343619
vt 0.393299 0.359817
vt 0.284017 0.327420
vt 0.393299 0.327420
vt 0.284017 0.404108
vt 0.284017 0.387910
vt 0.393299 0.387910
vt 0.393299 0.404108
vt 0.284017 0.371711
vt 0.393299 0.371711
vt 0.284017 0.448399
vt 0.284017 0.432200
vt 0.393299 0.432200
vt 0.393299 0.448399
vt 0.284017 0.416002
vt 0.393299 0.416002
vt 0.284017 0.315526
vt 0.393299 0.315526
vt 0.286284 0.657685
vt 0.299047 0.662395
vt 0.294639 0.669668
vt 0.283816 0.664535
vt 0.309799 0.717557
vt 0.291252 0.733019
vt 0.289539 0.727740
vt 0.302525 0.713149
vt 0.314508 0.680942
vt 0.309230 0.682655
vt 0.262432 0.657685
vt 0.264144 0.662964
vt 0.314508 0.704795
vt 0.307658 0.702326
vt 0.267399 0.733019
vt 0.269868 0.726169
vt 0.243884 0.673147
vt 0.251158 0.677555
vt 0.239175 0.685910
vt 0.246025 0.688378
vt 0.276842 0.695352
vt 0.316020 0.559352
vt 0.300721 0.559352
vt 0.309401 0.533514
vt 0.288525 0.550116
vt 0.283563 0.540133
vt 0.283563 0.524834
vt 0.292799 0.512638
vt 0.302781 0.507676
vt 0.318080 0.507676
vt 0.330276 0.516913
vt 0.335238 0.526895
vt 0.335238 0.542194
vt 0.326002 0.554390
s 0
usemtl Utililities
f 50/1/1 25/2/1 26/3/1 49/4/1
f 49/4/2 26/3/2 27/5/2 51/6/2
f 29/7/3 52/8/3 53/9/3 28/10/3
f 28/10/4 53/9/4 54/11/4 30/12/4
f 32/13/5 55/14/5 56/15/5 31/16/5
f 31/16/6 56/15/6 57/17/6 33/18/6
f 35/19/7 58/20/7 59/21/7 34/22/7
f 34/22/8 59/21/8 60/23/8 36/24/8
f 51/25/9 27/26/9 30/12/9 54/11/9
f 58/20/10 35/19/10 25/2/10 50/1/10
f 52/8/11 29/7/11 33/18/11 57/17/11
f 55/14/12 32/13/12 36/24/12 60/23/12
f 12/27/13 11/28/13 42/29/13 40/30/13
f 7/31/4 9/32/4 65/33/4 66/34/4
f 5/35/14 6/36/14 26/3/14 25/2/14
f 6/36/15 4/37/15 27/5/15 26/3/15
f 12/38/16 10/39/16 29/7/16 28/10/16
f 11/40/17 12/38/17 28/10/17 30/12/17
f 24/41/18 22/42/18 32/13/18 31/16/18
f 23/43/19 24/41/19 31/16/19 33/18/19
f 18/44/20 16/45/20 35/19/20 34/22/20
f 17/46/21 18/44/21 34/22/21 36/24/21
f 4/47/22 11/40/22 30/12/22 27/26/22
f 16/45/23 5/35/23 25/2/23 35/19/23
f 22/42/24 17/46/24 36/24/24 32/13/24
f 10/39/25 23/43/25 33/18/25 29/7/25
f 17/48/26 22/49/26 44/50/26 48/51/26
f 6/52/27 5/53/27 37/54/27 38/55/27
f 18/56/28 17/48/28 48/51/28 46/57/28
f 22/49/29 24/58/29 43/59/29 44/50/29
f 23/60/30 10/61/30 41/62/30 45/63/30
f 4/64/31 6/52/31 38/55/31 39/65/31
f 11/28/32 4/66/32 39/67/32 42/29/32
f 24/58/33 23/60/33 45/63/33 43/59/33
f 10/61/34 12/27/34 40/30/34 41/62/34
f 5/53/35 16/68/35 47/69/35 37/54/35
f 16/68/36 18/56/36 46/57/36 47/69/36
f 3/70/37 1/71/37 50/72/37 49/73/37
f 2/74/38 3/70/38 49/73/38 51/75/38
f 8/76/39 9/77/39 53/78/39 52/79/39
f 9/77/40 7/80/40 54/81/40 53/78/40
f 20/82/41 21/83/41 56/84/41 55/85/41
f 21/83/42 19/86/42 57/87/42 56/84/42
f 14/88/43 15/89/43 59/90/43 58/91/43
f 15/89/44 13/92/44 60/93/44 59/90/44
f 7/80/45 2/94/45 51/95/45 54/81/45
f 19/86/46 8/76/46 52/79/46 57/87/46
f 13/92/47 20/82/47 55/85/47 60/93/47
f 1/71/48 14/88/48 58/91/48 50/72/48
f 20/96/12 13/97/12 72/98/12 67/99/12
f 1/100/1 3/101/1 61/102/1 62/103/1
f 13/97/8 15/104/8 71/105/8 72/98/8
f 21/106/5 20/96/5 67/99/5 68/107/5
f 14/108/10 1/100/10 62/103/10 70/109/10
f 3/101/2 2/110/2 63/111/2 61/102/2
f 2/110/9 7/31/9 66/34/9 63/111/9
f 19/112/6 21/106/6 68/107/6 69/113/6
f 9/32/3 8/114/3 64/115/3 65/33/3
f 8/114/11 19/112/11 69/113/11 64/115/11
f 15/104/7 14/108/7 70/109/7 71/105/7
f 72/98/49 71/105/49 73/116/49
f 71/105/50 70/109/50 73/116/50
f 70/109/51 62/103/51 73/116/51
f 62/103/52 61/102/52 73/116/52
f 61/102/53 63/111/53 73/116/53
f 63/111/54 66/34/54 73/116/54
f 66/34/55 65/33/55 73/116/55
f 65/33/56 64/115/56 73/116/56
f 64/115/57 69/113/57 73/116/57
f 69/113/58 68/107/58 73/116/58
f 68/107/59 67/99/59 73/116/59
f 67/99/60 72/98/60 73/116/60
f 44/117/61 43/118/61 74/119/61
f 43/118/62 45/120/62 74/119/62
f 45/120/63 41/121/63 74/119/63
f 41/121/64 40/122/64 74/119/64
f 40/122/65 42/123/65 74/119/65
f 42/123/66 39/124/66 74/119/66
f 39/124/67 38/125/67 74/119/67
f 38/125/68 37/126/68 74/119/68
f 37/126/69 47/127/69 74/119/69
f 47/127/70 46/128/70 74/119/70
f 46/128/71 48/129/71 74/119/71
f 48/129/72 44/117/72 74/119/72
