# Blender 5.0.1
# www.blender.org
mtllib geometrie_box.mtl
o Box
v -1.077655 -0.086234 -0.995463
v -1.014176 1.968010 -1.058942
v -1.077655 -0.086235 -3.094295
v -1.014176 1.968010 -3.030816
v 1.021177 -0.086234 -0.995463
v 0.957698 1.968010 -1.058942
v 1.021177 -0.086235 -3.094295
v 0.957698 1.968010 -3.030816
v -1.077655 1.968010 -0.995463
v -1.077655 1.968010 -3.094295
v 1.021177 1.968010 -3.094295
v 1.021177 1.968010 -0.995463
v -1.014176 -0.092316 -1.058942
v -1.014176 -0.092316 -3.030816
v 0.957698 -0.092316 -3.030816
v 0.957698 -0.092316 -1.058942
vn -1.0000 -0.0000 -0.0000
vn -0.0000 -0.0000 -1.0000
vn 1.0000 -0.0000 -0.0000
vn -0.0000 -0.0000 1.0000
vn -0.0000 -1.0000 -0.0000
vn -0.0000 1.0000 -0.0000
vt 0.375000 0.000000
vt 0.625000 0.000000
vt 0.625000 0.250000
vt 0.375000 0.250000
vt 0.625000 0.500000
vt 0.375000 0.500000
vt 0.625000 0.750000
vt 0.375000 0.750000
vt 0.625000 1.000000
vt 0.375000 1.000000
vt 0.125000 0.500000
vt 0.125000 0.750000
vt 0.632561 0.507561
vt 0.867439 0.507561
vt 0.867439 0.742439
vt 0.875000 0.500000
vt 0.875000 0.750000
vt 0.632561 0.742439
s 1
f 1/1/1 9/2/1 10/3/1 3/4/1
f 3/4/2 10/3/2 11/5/2 7/6/2
f 7/6/3 11/5/3 12/7/3 5/8/3
f 5/8/4 12/7/4 9/9/4 1/10/4
f 3/11/5 7/6/5 5/8/5 1/12/5
f 8/13/4 4/14/4 14/14/4 15/13/4
f 2/15/6 4/14/6 10/16/6 9/17/6
f 4/14/6 8/13/6 11/5/6 10/16/6
f 8/13/6 6/18/6 12/7/6 11/5/6
f 6/18/6 2/15/6 9/17/6 12/7/6
f 15/13/6 14/14/6 13/15/6 16/18/6
f 6/18/1 8/13/1 15/13/1 16/18/1
f 4/14/3 2/15/3 13/15/3 14/14/3
f 2/15/2 6/18/2 16/18/2 13/15/2
o BoxCap
v -1.047955 1.970641 -1.020871
v -1.073316 2.029376 -0.995511
v -1.047955 1.970640 -3.068982
v -1.073316 2.029376 -3.094343
v 1.000156 1.970641 -1.020871
v 1.025516 2.029376 -0.995511
v 1.000156 1.970640 -3.068982
v 1.025516 2.029376 -3.094343
v -1.073316 1.970640 -3.094343
v -1.073316 1.970641 -0.995511
v 1.025516 1.970640 -3.094343
v 1.025516 1.970641 -0.995511
v -1.047955 1.945807 -3.068982
v -1.047955 1.945807 -1.020871
v 1.000156 1.945807 -3.068982
v 1.000156 1.945807 -1.020871
vn -1.0000 -0.0000 -0.0000
vn -0.0000 -0.0000 -1.0000
vn 1.0000 -0.0000 -0.0000
vn -0.0000 -0.0000 1.0000
vn -0.0000 1.0000 -0.0000
vn -0.0000 -1.0000 -0.0000
vt 0.375000 0.000000
vt 0.625000 0.000000
vt 0.625000 0.250000
vt 0.375000 0.250000
vt 0.625000 0.500000
vt 0.375000 0.500000
vt 0.625000 0.750000
vt 0.375000 0.750000
vt 0.625000 1.000000
vt 0.375000 1.000000
vt 0.371979 0.503021
vt 0.371979 0.746979
vt 0.875000 0.500000
vt 0.875000 0.750000
vt 0.128021 0.503021
vt 0.128021 0.746979
vt 0.125000 0.750000
vt 0.125000 0.500000
s 1
f 26/19/7 18/20/7 20/21/7 25/22/7
f 25/22/8 20/21/8 24/23/8 27/24/8
f 27/24/9 24/23/9 22/25/9 28/26/9
f 28/26/10 22/25/10 18/27/10 26/28/10
f 23/29/9 21/30/9 32/30/9 31/29/9
f 24/23/11 20/31/11 18/32/11 22/25/11
f 19/33/12 17/34/12 26/35/12 25/36/12
f 23/29/12 19/33/12 25/36/12 27/24/12
f 21/30/12 23/29/12 27/24/12 28/26/12
f 17/34/12 21/30/12 28/26/12 26/35/12
f 29/33/12 31/29/12 32/30/12 30/34/12
f 17/34/7 19/33/7 29/33/7 30/34/7
f 21/30/10 17/34/10 30/34/10 32/30/10
f 19/33/8 23/29/8 31/29/8 29/33/8
