# Blender 5.0.1
# www.blender.org
mtllib Geometry_Sink.mtl
o Siphon
v -2.406569 2.072315 4.315783
v -2.401128 2.076386 4.315783
v -2.400158 2.083113 4.315783
v -2.404229 2.088555 4.315783
v -2.410956 2.089525 4.315783
v -2.416398 2.085454 4.315783
v -2.417367 2.078727 4.315783
v -2.413296 2.073285 4.315783
v -2.409781 2.084917 4.284389
v -2.404151 2.088250 4.286227
v -2.402727 2.093194 4.290667
v -2.406344 2.096854 4.295107
v -2.412883 2.097085 4.296947
v -2.418513 2.093753 4.295107
v -2.419937 2.088808 4.290667
v -2.416320 2.085148 4.286227
v -2.417535 2.115339 4.271384
v -2.411451 2.116890 4.273985
v -2.408931 2.117532 4.280264
v -2.411451 2.116890 4.286543
v -2.417535 2.115339 4.289144
v -2.423620 2.113788 4.286543
v -2.426140 2.113146 4.280264
v -2.423620 2.113788 4.273985
v -2.425289 2.145761 4.284389
v -2.418751 2.145530 4.286227
v -2.415134 2.141870 4.290667
v -2.416558 2.136925 4.295107
v -2.422188 2.133592 4.296947
v -2.428726 2.133823 4.295107
v -2.432343 2.137483 4.290667
v -2.430919 2.142428 4.286227
v -2.428501 2.158362 4.315783
v -2.421774 2.157393 4.315783
v -2.417703 2.151951 4.315783
v -2.418673 2.145224 4.315783
v -2.424115 2.141153 4.315783
v -2.430841 2.142123 4.315783
v -2.434912 2.147564 4.315783
v -2.433943 2.154291 4.315783
v -2.425289 2.145761 4.347178
v -2.418751 2.145530 4.345339
v -2.415134 2.141870 4.340899
v -2.416558 2.136925 4.336459
v -2.422188 2.133592 4.334620
v -2.428726 2.133823 4.336459
v -2.432343 2.137483 4.340899
v -2.430919 2.142428 4.345339
v -2.417535 2.115339 4.360182
v -2.411451 2.116890 4.357581
v -2.408931 2.117532 4.351302
v -2.411451 2.116890 4.345023
v -2.417535 2.115339 4.342422
v -2.423620 2.113788 4.345023
v -2.426140 2.113146 4.351302
v -2.423620 2.113788 4.357581
v -2.409781 2.084917 4.347178
v -2.404151 2.088250 4.345339
v -2.402727 2.093194 4.340899
v -2.406344 2.096854 4.336459
v -2.412883 2.097085 4.334620
v -2.418513 2.093753 4.336459
v -2.419937 2.088808 4.340899
v -2.416320 2.085148 4.345339
v -2.597575 2.189591 4.356155
v -2.597575 2.275535 4.356155
v -2.597575 2.189591 4.270212
v -2.597575 2.275535 4.270212
v -2.511631 2.189591 4.356155
v -2.511631 2.275535 4.356155
v -2.511631 2.189591 4.270212
v -2.511631 2.275535 4.270212
v -2.521692 2.435379 4.356155
v -2.521692 2.435379 4.270212
v -2.476583 2.362225 4.270212
v -2.476583 2.362225 4.356155
v -2.400268 2.501656 4.356155
v -2.400268 2.501656 4.270212
v -2.403671 2.415779 4.270212
v -2.403671 2.415779 4.356155
v -2.305523 2.497900 4.356155
v -2.305523 2.497900 4.270212
v -2.308927 2.412024 4.270212
v -2.308927 2.412024 4.356155
v -2.319521 2.406539 4.313355
v -2.321588 2.422547 4.313355
v -2.326577 2.429177 4.313355
v -2.331567 2.422547 4.313355
v -2.333633 2.406539 4.313355
v -2.331567 2.390531 4.313355
v -2.326577 2.383901 4.313355
v -2.321588 2.390531 4.313355
v -2.329854 2.406539 4.288408
v -2.331316 2.422547 4.289870
v -2.334844 2.429177 4.293398
v -2.338372 2.422547 4.296926
v -2.339833 2.406539 4.298387
v -2.338372 2.390531 4.296926
v -2.334844 2.383901 4.293398
v -2.331316 2.390531 4.289870
v -2.354801 2.406539 4.278075
v -2.354801 2.422547 4.280141
v -2.354801 2.429177 4.285131
v -2.354801 2.422547 4.290121
v -2.354801 2.406539 4.292187
v -2.354801 2.390531 4.290121
v -2.354801 2.383901 4.285131
v -2.354801 2.390531 4.280141
v -2.379749 2.406539 4.288408
v -2.378287 2.422547 4.289870
v -2.374759 2.429177 4.293398
v -2.371231 2.422547 4.296926
v -2.369770 2.406539 4.298387
v -2.371231 2.390531 4.296926
v -2.374759 2.383901 4.293398
v -2.378287 2.390531 4.289870
v -2.390082 2.406539 4.313355
v -2.388015 2.422547 4.313355
v -2.383026 2.429177 4.313355
v -2.378036 2.422547 4.313355
v -2.375970 2.406539 4.313355
v -2.378036 2.390531 4.313355
v -2.383026 2.383901 4.313355
v -2.388015 2.390531 4.313355
v -2.379749 2.406539 4.338302
v -2.378287 2.422547 4.336841
v -2.374759 2.429177 4.333313
v -2.371231 2.422547 4.329785
v -2.369770 2.406539 4.328324
v -2.371231 2.390531 4.329785
v -2.374759 2.383901 4.333313
v -2.378287 2.390531 4.336841
v -2.354801 2.406539 4.348636
v -2.354801 2.422547 4.346569
v -2.354801 2.429177 4.341579
v -2.354801 2.422547 4.336590
v -2.354801 2.406539 4.334524
v -2.354801 2.390531 4.336590
v -2.354801 2.383901 4.341579
v -2.354801 2.390531 4.346569
v -2.329854 2.406539 4.338302
v -2.331316 2.422547 4.336841
v -2.334844 2.429177 4.333313
v -2.338372 2.422547 4.329785
v -2.339833 2.406539 4.328324
v -2.338372 2.390531 4.329785
v -2.334844 2.383901 4.333313
v -2.331316 2.390531 4.336841
v -2.597575 2.244073 4.424863
v -2.597575 2.330017 4.424863
v -2.597575 2.330017 4.201503
v -2.597575 2.244073 4.201503
v -2.511631 2.244073 4.201503
v -2.511631 2.330017 4.201503
v -2.511631 2.330017 4.424863
v -2.511631 2.244073 4.424863
v -2.336305 1.341932 4.247295
v -2.336305 0.003666 4.247295
v -2.336305 1.341932 4.389850
v -2.336305 0.003666 4.389850
v -2.478860 1.341932 4.247295
v -2.478860 0.003666 4.247295
v -2.478860 1.341932 4.389850
v -2.478860 0.003666 4.389850
v -2.145966 1.479188 4.056956
v -2.145966 1.359967 4.056956
v -2.145966 1.479188 4.580189
v -2.145966 1.359967 4.580189
v -2.669199 1.479188 4.056956
v -2.669199 1.359967 4.056956
v -2.669199 1.479188 4.580189
v -2.669199 1.359967 4.580189
v -1.963566 1.619743 3.874556
v -1.963566 1.619743 4.762589
v -2.665355 1.619743 3.874556
v -2.665355 1.619743 4.762589
v -2.669199 1.484705 4.580189
v -1.964812 1.790283 3.876132
v -1.964812 1.790283 4.761012
v -2.664109 1.790283 3.876132
v -2.664109 1.790283 4.761012
v -1.702004 1.967954 3.543579
v -1.702004 1.967954 5.093565
v -2.662352 1.967954 3.543579
v -2.662352 1.967954 5.093565
v -1.920294 2.188173 3.756787
v -1.920294 2.188173 4.880357
v -2.449144 2.188173 3.756787
v -2.449144 2.188173 4.880357
v -1.707086 2.188173 5.093565
v -2.662352 2.188173 5.093565
v -1.707086 2.188173 3.543579
v -2.662352 2.188173 3.543579
v -2.674636 2.138906 3.523702
v -2.674328 2.013474 3.524199
v -2.681135 2.075740 3.513186
v -1.691084 2.013452 3.524209
v -1.693657 2.138876 3.523690
v -1.685708 2.075725 3.513185
v -1.691084 2.013452 5.112935
v -1.693657 2.138876 5.113454
v -1.685708 2.075725 5.123959
v -2.674636 2.138906 5.113441
v -2.674328 2.013474 5.112945
v -2.681135 2.075740 5.123959
v -2.112630 1.946028 4.591334
v -2.365730 1.946028 4.591334
v -2.112630 1.946028 4.045810
v -2.365730 1.946028 4.045810
v -2.534570 2.252622 4.439701
v -2.534570 2.252518 4.527277
v -2.518554 2.276591 4.439730
v -2.518554 2.276487 4.527306
v -2.524178 2.304864 4.439763
v -2.524178 2.304760 4.527339
v -2.548147 2.320880 4.439782
v -2.548147 2.320776 4.527358
v -2.576421 2.315256 4.439775
v -2.576421 2.315152 4.527351
v -2.592436 2.291287 4.439747
v -2.592436 2.291183 4.527323
v -2.586812 2.263013 4.439713
v -2.586812 2.262910 4.527290
v -2.562843 2.246998 4.439694
v -2.562843 2.246894 4.527271
v -2.572434 2.265139 4.212768
v -2.572434 2.299542 4.212768
v -2.572434 2.265139 4.178364
v -2.572434 2.299543 4.178364
v -2.538031 2.265139 4.212768
v -2.538031 2.299542 4.212768
v -2.538031 2.265139 4.178364
v -2.538031 2.299543 4.178364
v -2.572434 2.265139 4.446708
v -2.572434 2.299542 4.446708
v -2.572434 2.265139 4.412304
v -2.572434 2.299542 4.412304
v -2.538031 2.265139 4.446708
v -2.538031 2.299542 4.446708
v -2.538031 2.265139 4.412304
v -2.538031 2.299542 4.412304
v -2.548147 2.247299 4.185019
v -2.548147 2.247403 4.097443
v -2.524178 2.263315 4.185038
v -2.524178 2.263419 4.097462
v -2.518554 2.291589 4.185071
v -2.518554 2.291692 4.097495
v -2.534570 2.315557 4.185100
v -2.534570 2.315661 4.097524
v -2.562843 2.321181 4.185107
v -2.562843 2.321285 4.097530
v -2.586812 2.305166 4.185088
v -2.586812 2.305269 4.097511
v -2.592436 2.276892 4.185054
v -2.592436 2.276996 4.097478
v -2.576421 2.252923 4.185026
v -2.576421 2.253027 4.097449
vn 0.5594 -0.7478 -0.3574
vn 0.9776 -0.1409 -0.1566
vn 0.7909 0.5916 0.1566
vn 0.1332 0.9244 0.3574
vn -0.5594 0.7479 0.3574
vn -0.9776 0.1409 0.1566
vn -0.7909 -0.5916 -0.1566
vn -0.1332 -0.9244 -0.3574
vn 0.4346 -0.2581 -0.8629
vn 0.9229 0.0737 -0.3780
vn 0.8456 0.3771 0.3780
vn 0.2581 0.4346 0.8629
vn -0.4346 0.2581 0.8629
vn -0.9229 -0.0737 0.3780
vn -0.8456 -0.3771 -0.3780
vn -0.2581 -0.4346 -0.8629
vn 0.2581 0.4346 -0.8629
vn 0.8456 0.3771 -0.3780
vn 0.9229 0.0737 0.3780
vn 0.4346 -0.2581 0.8629
vn -0.2581 -0.4346 0.8629
vn -0.8455 -0.3771 0.3780
vn -0.9229 -0.0737 -0.3780
vn -0.4346 0.2581 -0.8629
vn 0.1332 0.9244 -0.3574
vn 0.7909 0.5916 -0.1565
vn 0.9776 -0.1409 0.1566
vn 0.5594 -0.7479 0.3574
vn -0.1332 -0.9244 0.3574
vn -0.7909 -0.5916 0.1566
vn -0.9776 0.1409 -0.1566
vn -0.5594 0.7479 -0.3574
vn 0.7909 0.5916 0.1565
vn 0.5594 -0.7479 -0.3574
vn -0.8456 -0.3771 0.3780
vn 0.7909 0.5916 -0.1566
vn -1.0000 -0.0000 -0.0000
vn -0.0000 0.7836 0.6213
vn 1.0000 -0.0000 -0.0000
vn -0.0000 -1.0000 -0.0000
vn -0.9034 0.4289 -0.0000
vn -0.0000 -0.0000 1.0000
vn -0.0000 -0.0000 -1.0000
vn 0.9271 -0.3748 -0.0000
vn 0.5920 -0.8060 -0.0000
vn -0.4791 0.8778 -0.0000
vn 0.9992 -0.0396 -0.0000
vn -0.0396 -0.9992 -0.0000
vn 0.0396 0.9992 -0.0000
vn -0.0000 -0.7836 0.6213
vn -0.0000 -0.7836 -0.6213
vn -0.0000 0.7836 -0.6213
vn 0.9174 0.1184 -0.3800
vn 0.7586 0.5708 -0.3142
vn -0.7586 0.5708 0.3142
vn -0.9174 0.1184 0.3800
vn -0.9174 -0.1184 0.3800
vn -0.7586 -0.5708 0.3142
vn 0.7586 -0.5708 -0.3142
vn 0.9174 -0.1184 -0.3800
vn 0.3800 0.1184 -0.9174
vn 0.3142 0.5708 -0.7586
vn -0.3142 0.5708 0.7586
vn -0.3800 0.1184 0.9174
vn -0.3800 -0.1184 0.9174
vn -0.3142 -0.5708 0.7586
vn 0.3142 -0.5708 -0.7586
vn 0.3800 -0.1184 -0.9174
vn -0.3800 0.1184 -0.9174
vn -0.3142 0.5708 -0.7586
vn 0.3142 0.5708 0.7586
vn 0.3800 0.1184 0.9174
vn 0.3800 -0.1184 0.9174
vn 0.3142 -0.5708 0.7586
vn -0.3142 -0.5708 -0.7586
vn -0.3800 -0.1184 -0.9174
vn -0.9174 0.1184 -0.3800
vn -0.7586 0.5708 -0.3142
vn 0.7586 0.5708 0.3142
vn 0.9174 0.1184 0.3800
vn 0.9174 -0.1184 0.3800
vn 0.7586 -0.5708 0.3142
vn -0.7586 -0.5708 -0.3142
vn -0.9174 -0.1184 -0.3800
vn -0.0000 1.0000 -0.0000
vn 0.6104 -0.7921 -0.0000
vn -1.0000 0.0073 -0.0000
vn -1.0000 0.0076 -0.0000
vn -0.9998 -0.0000 0.0211
vn -0.0000 -0.7921 -0.6104
vn -0.0000 -0.7921 0.6104
vn -0.9996 0.0273 -0.0000
vn -1.0000 0.0099 -0.0000
vn -0.0000 0.0092 1.0000
vn -0.0000 0.0092 -1.0000
vn 1.0000 0.0073 -0.0000
vn -0.0000 -0.8820 0.4712
vn -0.0000 -0.8820 -0.4712
vn 0.5601 -0.8284 -0.0000
vn -0.0000 0.7665 -0.6422
vn -0.0000 0.1642 0.9864
vn -0.0000 -0.1742 0.9847
vn -0.9947 0.1024 -0.0000
vn -0.9941 -0.1087 -0.0000
vn 0.9922 0.1249 -0.0000
vn 0.9963 -0.0860 -0.0000
vn -0.0000 0.1642 -0.9864
vn -0.0000 -0.1742 -0.9847
vn -0.9703 0.2419 -0.0000
vn -0.0000 -0.3917 -0.9201
vn -0.0000 0.3741 -0.9274
vn -0.9671 -0.2544 -0.0000
vn 0.9648 0.2628 -0.0000
vn 0.9724 -0.2334 -0.0000
vn -0.0000 0.3741 0.9274
vn -0.0000 -0.3917 0.9201
vn -0.0000 0.7665 0.6422
vn -0.7830 0.6220 -0.0000
vn 0.9455 0.3257 -0.0000
vn 0.8315 -0.5556 -0.0007
vn 0.9808 0.1951 0.0002
vn 0.5556 0.8315 0.0010
vn -0.1951 0.9808 0.0012
vn -0.8315 0.5556 0.0007
vn -0.9808 -0.1951 -0.0002
vn -0.5556 -0.8315 -0.0010
vn -0.0000 -0.0012 1.0000
vn -0.0000 0.0012 -1.0000
vn 0.1951 -0.9808 -0.0012
vn 0.9808 -0.1951 -0.0002
vn 0.8315 0.5556 0.0007
vn 0.1951 0.9808 0.0012
vn -0.5556 0.8315 0.0010
vn -0.9808 0.1951 0.0002
vn -0.8315 -0.5556 -0.0007
vn -0.1951 -0.9808 -0.0012
vn 0.5556 -0.8315 -0.0010
vt 0.500000 0.500000
vt 0.625000 0.500000
vt 0.625000 0.625000
vt 0.500000 0.625000
vt 0.625000 0.750000
vt 0.500000 0.750000
vt 0.625000 0.875000
vt 0.500000 0.875000
vt 0.625000 1.000000
vt 0.500000 1.000000
vt 0.500000 0.000000
vt 0.625000 0.000000
vt 0.625000 0.125000
vt 0.500000 0.125000
vt 0.625000 0.250000
vt 0.500000 0.250000
vt 0.625000 0.375000
vt 0.500000 0.375000
vt 0.750000 0.500000
vt 0.750000 0.625000
vt 0.750000 0.750000
vt 0.750000 0.875000
vt 0.750000 1.000000
vt 0.750000 0.000000
vt 0.750000 0.125000
vt 0.750000 0.250000
vt 0.750000 0.375000
vt 0.875000 0.500000
vt 0.875000 0.625000
vt 0.875000 0.750000
vt 0.875000 0.875000
vt 0.875000 1.000000
vt 0.875000 0.000000
vt 0.875000 0.125000
vt 0.875000 0.250000
vt 0.875000 0.375000
vt 1.000000 0.500000
vt 1.000000 0.625000
vt 1.000000 0.750000
vt 1.000000 0.875000
vt 1.000000 1.000000
vt 1.000000 0.000000
vt 1.000000 0.125000
vt 1.000000 0.250000
vt 1.000000 0.375000
vt 0.000000 0.500000
vt 0.125000 0.500000
vt 0.125000 0.625000
vt 0.000000 0.625000
vt 0.125000 0.750000
vt 0.000000 0.750000
vt 0.125000 0.875000
vt 0.000000 0.875000
vt 0.125000 1.000000
vt 0.000000 1.000000
vt 0.000000 0.000000
vt 0.125000 0.000000
vt 0.125000 0.125000
vt 0.000000 0.125000
vt 0.125000 0.250000
vt 0.000000 0.250000
vt 0.125000 0.375000
vt 0.000000 0.375000
vt 0.250000 0.500000
vt 0.250000 0.625000
vt 0.250000 0.750000
vt 0.250000 0.875000
vt 0.250000 1.000000
vt 0.250000 0.000000
vt 0.250000 0.125000
vt 0.250000 0.250000
vt 0.250000 0.375000
vt 0.375000 0.500000
vt 0.375000 0.625000
vt 0.375000 0.750000
vt 0.375000 0.875000
vt 0.375000 1.000000
vt 0.375000 0.000000
vt 0.375000 0.125000
vt 0.375000 0.250000
vt 0.375000 0.375000
vt 0.831485 0.715611
vt 0.668515 0.715611
vt 0.668515 0.534389
vt 0.831485 0.534389
vt 0.625000 0.997681
vt 0.625000 0.749781
vt 0.625000 0.249785
vt 0.625000 0.002319
vt 0.625000 0.500219
vt 0.906250 0.500000
vt 0.781250 0.500000
vt 0.781250 1.000000
vt 0.906250 1.000000
vt 0.656250 0.500000
vt 0.656250 1.000000
vt 0.531250 0.500000
vt 0.531250 1.000000
vt 0.406250 0.500000
vt 0.406250 1.000000
vt 0.281250 0.500000
vt 0.281250 1.000000
vt 0.156250 0.500000
vt 0.156250 1.000000
vt 0.031250 0.500000
vt 0.031250 1.000000
vt 0.383337 0.449553
vt 0.485388 0.296822
vt 0.449553 0.116663
vt 0.296822 0.014612
vt 0.116663 0.050447
vt 0.014612 0.203178
vt 0.050447 0.383337
vt 0.203178 0.485388
vt 0.883337 0.449553
vt 0.703178 0.485388
vt 0.550447 0.383337
vt 0.514612 0.203178
vt 0.616663 0.050447
vt 0.796822 0.014612
vt 0.949553 0.116663
vt 0.985388 0.296822
vt 0.843750 1.000000
vt 0.718750 1.000000
vt 0.718750 0.500000
vt 0.843750 0.500000
vt 0.593750 1.000000
vt 0.593750 0.500000
vt 0.468750 1.000000
vt 0.468750 0.500000
vt 0.343750 1.000000
vt 0.343750 0.500000
vt 0.218750 1.000000
vt 0.218750 0.500000
vt 0.093750 1.000000
vt 0.093750 0.500000
vt 0.968750 1.000000
vt 0.968750 0.500000
vt 0.296822 0.485388
vt 0.116663 0.449553
vt 0.014612 0.296822
vt 0.050447 0.116663
vt 0.203178 0.014612
vt 0.383337 0.050447
vt 0.485388 0.203178
vt 0.449553 0.383337
vt 0.796822 0.485388
vt 0.949553 0.383337
vt 0.985388 0.203178
vt 0.883337 0.050447
vt 0.703178 0.014612
vt 0.550447 0.116663
vt 0.514612 0.296822
vt 0.616663 0.449553
s 1
usemtl Material.002
f 1/1/1 9/2/1 10/3/1 2/4/1
f 2/4/2 10/3/2 11/5/2 3/6/2
f 3/6/3 11/5/3 12/7/3 4/8/3
f 4/8/4 12/7/4 13/9/4 5/10/4
f 5/11/5 13/12/5 14/13/5 6/14/5
f 6/14/6 14/13/6 15/15/6 7/16/6
f 7/16/7 15/15/7 16/17/7 8/18/7
f 8/18/8 16/17/8 9/2/8 1/1/8
f 9/2/9 17/19/9 18/20/9 10/3/9
f 10/3/10 18/20/10 19/21/10 11/5/10
f 11/5/11 19/21/11 20/22/11 12/7/11
f 12/7/12 20/22/12 21/23/12 13/9/12
f 13/12/13 21/24/13 22/25/13 14/13/13
f 14/13/14 22/25/14 23/26/14 15/15/14
f 15/15/15 23/26/15 24/27/15 16/17/15
f 16/17/16 24/27/16 17/19/16 9/2/16
f 17/19/17 25/28/17 26/29/17 18/20/17
f 18/20/18 26/29/18 27/30/18 19/21/18
f 19/21/19 27/30/19 28/31/19 20/22/19
f 20/22/20 28/31/20 29/32/20 21/23/20
f 21/24/21 29/33/21 30/34/21 22/25/21
f 22/25/22 30/34/22 31/35/22 23/26/22
f 23/26/23 31/35/23 32/36/23 24/27/23
f 24/27/24 32/36/24 25/28/24 17/19/24
f 25/28/25 33/37/25 34/38/25 26/29/25
f 26/29/26 34/38/26 35/39/26 27/30/26
f 27/30/27 35/39/27 36/40/27 28/31/27
f 28/31/28 36/40/28 37/41/28 29/32/28
f 29/33/29 37/42/29 38/43/29 30/34/29
f 30/34/30 38/43/30 39/44/30 31/35/30
f 31/35/31 39/44/31 40/45/31 32/36/31
f 32/36/32 40/45/32 33/37/32 25/28/32
f 33/46/4 41/47/4 42/48/4 34/49/4
f 34/49/33 42/48/33 43/50/33 35/51/33
f 35/51/2 43/50/2 44/52/2 36/53/2
f 36/53/34 44/52/34 45/54/34 37/55/34
f 37/56/8 45/57/8 46/58/8 38/59/8
f 38/59/7 46/58/7 47/60/7 39/61/7
f 39/61/6 47/60/6 48/62/6 40/63/6
f 40/63/5 48/62/5 41/47/5 33/46/5
f 41/47/12 49/64/12 50/65/12 42/48/12
f 42/48/11 50/65/11 51/66/11 43/50/11
f 43/50/10 51/66/10 52/67/10 44/52/10
f 44/52/9 52/67/9 53/68/9 45/54/9
f 45/57/16 53/69/16 54/70/16 46/58/16
f 46/58/15 54/70/15 55/71/15 47/60/15
f 47/60/14 55/71/14 56/72/14 48/62/14
f 48/62/13 56/72/13 49/64/13 41/47/13
f 49/64/20 57/73/20 58/74/20 50/65/20
f 50/65/19 58/74/19 59/75/19 51/66/19
f 51/66/18 59/75/18 60/76/18 52/67/18
f 52/67/17 60/76/17 61/77/17 53/68/17
f 53/69/24 61/78/24 62/79/24 54/70/24
f 54/70/23 62/79/23 63/80/23 55/71/23
f 55/71/35 63/80/35 64/81/35 56/72/35
f 56/72/21 64/81/21 57/73/21 49/64/21
f 57/73/28 1/1/28 2/4/28 58/74/28
f 58/74/27 2/4/27 3/6/27 59/75/27
f 59/75/36 3/6/36 4/8/36 60/76/36
f 60/76/25 4/8/25 5/10/25 61/77/25
f 61/78/32 5/11/32 6/14/32 62/79/32
f 62/79/31 6/14/31 7/16/31 63/80/31
f 63/80/30 7/16/30 8/18/30 64/81/30
f 64/81/29 8/18/29 1/1/29 57/73/29
f 85/1/53 93/2/53 94/3/53 86/4/53
f 86/4/54 94/3/54 95/5/54 87/6/54
f 87/6/55 95/5/55 96/7/55 88/8/55
f 88/8/56 96/7/56 97/9/56 89/10/56
f 89/11/57 97/12/57 98/13/57 90/14/57
f 90/14/58 98/13/58 99/15/58 91/16/58
f 91/16/59 99/15/59 100/17/59 92/18/59
f 92/18/60 100/17/60 93/2/60 85/1/60
f 93/2/61 101/19/61 102/20/61 94/3/61
f 94/3/62 102/20/62 103/21/62 95/5/62
f 95/5/63 103/21/63 104/22/63 96/7/63
f 96/7/64 104/22/64 105/23/64 97/9/64
f 97/12/65 105/24/65 106/25/65 98/13/65
f 98/13/66 106/25/66 107/26/66 99/15/66
f 99/15/67 107/26/67 108/27/67 100/17/67
f 100/17/68 108/27/68 101/19/68 93/2/68
f 101/19/69 109/28/69 110/29/69 102/20/69
f 102/20/70 110/29/70 111/30/70 103/21/70
f 103/21/71 111/30/71 112/31/71 104/22/71
f 104/22/72 112/31/72 113/32/72 105/23/72
f 105/24/73 113/33/73 114/34/73 106/25/73
f 106/25/74 114/34/74 115/35/74 107/26/74
f 107/26/75 115/35/75 116/36/75 108/27/75
f 108/27/76 116/36/76 109/28/76 101/19/76
f 109/28/77 117/37/77 118/38/77 110/29/77
f 110/29/78 118/38/78 119/39/78 111/30/78
f 111/30/79 119/39/79 120/40/79 112/31/79
f 112/31/80 120/40/80 121/41/80 113/32/80
f 113/33/81 121/42/81 122/43/81 114/34/81
f 114/34/82 122/43/82 123/44/82 115/35/82
f 115/35/83 123/44/83 124/45/83 116/36/83
f 116/36/84 124/45/84 117/37/84 109/28/84
f 117/46/56 125/47/56 126/48/56 118/49/56
f 118/49/55 126/48/55 127/50/55 119/51/55
f 119/51/54 127/50/54 128/52/54 120/53/54
f 120/53/53 128/52/53 129/54/53 121/55/53
f 121/56/60 129/57/60 130/58/60 122/59/60
f 122/59/59 130/58/59 131/60/59 123/61/59
f 123/61/58 131/60/58 132/62/58 124/63/58
f 124/63/57 132/62/57 125/47/57 117/46/57
f 125/47/64 133/64/64 134/65/64 126/48/64
f 126/48/63 134/65/63 135/66/63 127/50/63
f 127/50/62 135/66/62 136/67/62 128/52/62
f 128/52/61 136/67/61 137/68/61 129/54/61
f 129/57/68 137/69/68 138/70/68 130/58/68
f 130/58/67 138/70/67 139/71/67 131/60/67
f 131/60/66 139/71/66 140/72/66 132/62/66
f 132/62/65 140/72/65 133/64/65 125/47/65
f 133/64/72 141/73/72 142/74/72 134/65/72
f 134/65/71 142/74/71 143/75/71 135/66/71
f 135/66/70 143/75/70 144/76/70 136/67/70
f 136/67/69 144/76/69 145/77/69 137/68/69
f 137/69/76 145/78/76 146/79/76 138/70/76
f 138/70/75 146/79/75 147/80/75 139/71/75
f 139/71/74 147/80/74 148/81/74 140/72/74
f 140/72/73 148/81/73 141/73/73 133/64/73
f 141/73/80 85/1/80 86/4/80 142/74/80
f 142/74/79 86/4/79 87/6/79 143/75/79
f 143/75/78 87/6/78 88/8/78 144/76/78
f 144/76/77 88/8/77 89/10/77 145/77/77
f 145/78/84 89/11/84 90/14/84 146/79/84
f 146/79/83 90/14/83 91/16/83 147/80/83
f 147/80/82 91/16/82 92/18/82 148/81/82
f 148/81/81 92/18/81 85/1/81 141/73/81
usemtl Material.001
f 65/78/37 66/12/37 68/15/37 67/80/37
f 68/15/38 72/2/38 154/2/38 151/15/38
f 71/73/39 72/2/39 70/5/39 69/75/39
f 69/75/39 70/5/39 155/5/39 156/75/39
f 67/47/40 71/73/40 69/75/40 65/50/40
f 68/15/41 66/12/41 73/12/41 74/15/41
f 73/9/42 76/5/42 80/5/42 77/9/42
f 66/9/42 70/5/42 76/5/42 73/9/42
f 72/2/43 68/15/43 74/15/43 75/2/43
f 70/5/44 72/2/44 75/2/44 76/5/44
f 79/2/43 78/15/43 82/15/43 83/2/43
f 75/2/43 74/15/43 78/15/43 79/2/43
f 76/5/45 75/2/45 79/2/45 80/5/45
f 74/15/46 73/12/46 77/12/46 78/15/46
f 83/2/47 82/28/47 81/30/47 84/5/47
f 80/5/48 79/2/48 83/2/48 84/5/48
f 78/15/49 77/12/49 81/12/49 82/15/49
f 77/9/42 80/5/42 84/5/42 81/9/42
f 152/80/43 151/15/43 154/2/43 153/73/43
f 156/75/42 155/5/42 150/9/42 149/77/42
f 67/80/37 68/15/37 151/15/37 152/80/37
f 66/12/37 65/78/37 149/78/37 150/12/37
f 65/50/50 69/75/50 156/75/50 149/50/50
f 72/2/39 71/73/39 153/73/39 154/2/39
f 71/73/51 67/47/51 152/47/51 153/73/51
f 70/5/52 66/9/52 150/9/52 155/5/52
f 157/2/85 161/28/85 163/30/85 159/5/85
f 160/75/42 159/5/42 163/9/42 164/77/42
f 164/78/37 163/12/37 161/15/37 162/80/37
f 162/47/40 158/73/40 160/75/40 164/50/40
f 158/73/39 157/2/39 159/5/39 160/75/39
f 162/80/43 161/15/43 157/2/43 158/73/43
f 167/5/86 165/2/86 173/2/86 174/5/86
f 168/75/42 167/5/42 171/9/42 172/77/42
f 172/78/37 171/12/37 169/15/37 170/80/37
f 170/47/40 166/73/40 168/75/40 172/50/40
f 166/73/39 165/2/39 167/5/39 168/75/39
f 170/80/43 169/15/43 165/2/43 166/73/43
f 175/15/87 176/12/87 181/12/88 180/15/88
f 171/9/89 176/9/89 177/77/89 172/77/89
f 165/2/90 169/15/90 175/15/90 173/2/90
f 171/9/91 167/5/91 174/5/91 176/9/91
f 169/15/92 171/12/92 176/12/92 175/15/92
f 180/15/88 181/12/88 185/12/93 184/15/93
f 176/9/94 174/5/94 179/5/94 181/9/94
f 173/2/95 175/15/95 180/15/95 178/2/95
f 174/5/96 173/2/96 178/2/96 179/5/96
f 181/9/97 179/5/97 183/5/97 185/9/97
f 178/2/98 180/15/98 184/15/98 182/2/98
f 179/5/99 178/2/99 182/2/99 183/5/99
f 189/82/100 187/83/100 206/83/100 207/82/100
f 187/83/85 189/82/85 191/30/85 190/5/85
f 186/84/85 187/83/85 190/5/85 192/2/85
f 189/82/85 188/85/85 193/28/85 191/30/85
f 188/85/85 186/84/85 192/2/85 193/28/85
f 201/5/101 203/9/101 205/86/101 202/87/101
f 202/87/102 205/86/102 204/9/102 200/5/102
f 203/12/103 194/15/103 196/88/103 205/89/103
f 205/89/104 196/88/104 195/15/104 204/12/104
f 198/2/105 201/5/105 202/87/105 199/90/105
f 199/90/106 202/87/106 200/5/106 197/2/106
f 194/15/107 198/2/107 199/90/107 196/88/107
f 196/88/108 199/90/108 197/2/108 195/15/108
f 194/15/109 203/12/109 191/12/109 193/15/109
f 182/2/110 184/15/110 195/15/110 197/2/110
f 198/2/111 194/15/111 193/15/111 192/2/111
f 184/15/112 185/12/112 204/12/112 195/15/112
f 201/5/113 198/2/113 192/2/113 190/5/113
f 183/5/114 182/2/114 197/2/114 200/5/114
f 203/9/115 201/5/115 190/5/115 191/9/115
f 185/9/116 183/5/116 200/5/116 204/9/116
f 208/84/85 209/85/85 207/82/85 206/83/85
f 186/84/117 188/85/117 209/85/117 208/84/117
f 187/83/118 186/84/118 208/84/118 206/83/118
f 188/85/119 189/82/119 207/82/119 209/85/119
f 210/91/120 212/92/120 213/93/120 211/94/120
f 212/92/121 214/95/121 215/96/121 213/93/121
f 214/95/122 216/97/122 217/98/122 215/96/122
f 216/97/123 218/99/123 219/100/123 217/98/123
f 218/99/124 220/101/124 221/102/124 219/100/124
f 220/101/125 222/103/125 223/104/125 221/102/125
f 222/103/126 224/105/126 225/106/126 223/104/126
f 211/107/127 213/108/127 215/109/127 217/110/127 219/111/127 221/112/127 223/113/127 225/114/127
f 210/115/128 224/116/128 222/117/128 220/118/128 218/119/128 216/120/128 214/121/128 212/122/128
f 224/105/129 210/91/129 211/94/129 225/106/129
f 226/78/37 227/12/37 229/15/37 228/80/37
f 228/80/43 229/15/43 233/2/43 232/73/43
f 232/73/39 233/2/39 231/5/39 230/75/39
f 230/75/42 231/5/42 227/9/42 226/77/42
f 228/47/40 232/73/40 230/75/40 226/50/40
f 233/2/85 229/28/85 227/30/85 231/5/85
f 234/78/37 235/12/37 237/15/37 236/80/37
f 236/80/43 237/15/43 241/2/43 240/73/43
f 240/73/39 241/2/39 239/5/39 238/75/39
f 238/75/42 239/5/42 235/9/42 234/77/42
f 236/47/40 240/73/40 238/75/40 234/50/40
f 241/2/85 237/28/85 235/30/85 239/5/85
f 245/123/130 247/124/130 246/125/130 244/126/130
f 247/124/131 249/127/131 248/128/131 246/125/131
f 249/127/132 251/129/132 250/130/132 248/128/132
f 251/129/133 253/131/133 252/132/133 250/130/133
f 253/131/134 255/133/134 254/134/134 252/132/134
f 255/133/135 257/135/135 256/136/135 254/134/135
f 257/135/136 243/137/136 242/138/136 256/136/136
f 243/139/128 257/140/128 255/141/128 253/142/128 251/143/128 249/144/128 247/145/128 245/146/128
f 242/147/127 244/148/127 246/149/127 248/150/127 250/151/127 252/152/127 254/153/127 256/154/127
f 243/137/137 245/123/137 244/126/137 242/138/137
