# Blender 4.5.0
# www.blender.org
mtllib Geometry_Shower.mtl
o Cube
v 5.132051 0.165413 -5.028704
v 5.132051 -0.165413 -5.028704
v 5.132051 0.165413 5.028704
v 5.132051 -0.165413 5.028704
v -5.132051 0.165413 -5.028704
v -5.132051 -0.165413 -5.028704
v -5.132051 0.165413 5.028704
v -5.132051 -0.165413 5.028704
v 3.996860 15.380542 3.916373
v -3.996860 15.380542 3.916373
v 3.996860 15.380542 -3.916373
v -3.996860 15.380542 -3.916373
v 5.132051 15.380542 5.028704
v -5.132051 15.380542 5.028704
v 5.132051 15.380542 -5.028704
v -5.132051 15.380542 -5.028704
v -5.132051 0.165413 -4.997185
v -3.996860 0.165413 -3.875518
v -5.132051 0.165413 4.996005
v -3.996860 0.165413 3.878272
v 2.531017 0.165413 2.480048
v -2.531017 0.165413 2.480048
v 2.531017 0.165413 -2.480048
v -2.531017 0.165413 -2.454346
v -2.531017 0.165413 -2.480048
v -2.531016 0.165413 2.457100
v 3.996860 0.165413 3.916373
v -3.996860 0.165413 3.916373
v 3.996860 0.165413 -3.916373
v -3.996860 0.165413 -3.875518
v -3.996860 0.165413 -3.916373
v -3.996860 0.165413 3.878272
v 2.531017 -0.112320 2.480048
v -2.531017 -0.112320 2.480048
v 2.531017 -0.112320 -2.480048
v -2.531017 -0.112320 -2.454346
v -2.531017 -0.112320 -2.480048
v -2.531016 -0.112320 2.457100
vn -1.0000 -0.0000 -0.0000
vn -0.0000 -0.0000 1.0000
vn -0.0000 -1.0000 -0.0000
vn 1.0000 -0.0000 -0.0000
vn -0.0000 -0.0000 -1.0000
vn -0.0000 1.0000 -0.0000
vn -0.7007 0.0017 -0.7134
vn -0.7014 0.0017 0.7128
vt 0.625000 0.250000
vt 0.625000 0.000000
vt 0.625000 0.000813
vt 0.625000 0.249217
vt 0.375000 0.750000
vt 0.625000 0.750000
vt 0.625000 1.000000
vt 0.375000 1.000000
vt 0.375000 0.000000
vt 0.375000 0.250000
vt 0.125000 0.500000
vt 0.375000 0.500000
vt 0.125000 0.750000
vt 0.625000 0.500000
vt 0.847350 0.527650
vt 0.847350 0.528665
vt 0.652650 0.722350
vt 0.847350 0.722350
vt 0.875000 0.750000
vt 0.652650 0.527650
vt 0.847350 0.721403
vt 0.875000 0.749187
vt 0.875000 0.500000
vt 0.875000 0.500784
vt 0.811647 0.686647
vt 0.688353 0.686647
vt 0.688353 0.563353
vt 0.811647 0.528665
vt 0.811647 0.563353
vt 0.811647 0.721403
s 0
usemtl Material
f 5/1/1 7/2/1 14/2/1 19/3/1 17/4/1 16/1/1
f 4/5/2 3/6/2 7/7/2 8/8/2
f 8/9/1 7/2/1 5/1/1 6/10/1
f 6/11/3 2/12/3 4/5/3 8/13/3
f 2/12/4 1/14/4 3/6/4 4/5/4
f 6/10/5 5/1/5 1/14/5 2/12/5
f 12/15/4 18/16/4 30/16/4 31/15/4
f 3/6/4 1/14/4 15/14/4 13/6/4
f 1/14/5 5/1/5 16/1/5 15/14/5
f 7/7/2 3/6/2 13/6/2 14/7/2
f 9/17/6 10/18/6 14/19/6 13/6/6
f 11/20/6 9/17/6 13/6/6 15/14/6
f 10/18/7 20/21/7 19/22/7 14/19/7
f 12/15/6 11/20/6 15/14/6 16/23/6
f 17/24/8 18/16/8 12/15/8 16/23/8
f 19/22/6 20/21/6 18/16/6 17/24/6
f 22/25/5 21/26/5 33/26/5 34/25/5
f 10/18/5 9/17/5 27/17/5 28/18/5
f 18/16/6 20/21/6 32/21/6 30/16/6
f 11/20/2 12/15/2 31/15/2 29/20/2
f 20/21/4 10/18/4 28/18/4 32/21/4
f 9/17/1 11/20/1 29/20/1 27/17/1
f 21/26/6 22/25/6 28/18/6 27/17/6
f 23/27/6 21/26/6 27/17/6 29/20/6
f 24/28/6 25/29/6 31/15/6 30/16/6
f 25/29/6 23/27/6 29/20/6 31/15/6
f 26/30/6 24/28/6 30/16/6 32/21/6
f 22/25/6 26/30/6 32/21/6 28/18/6
f 35/27/6 37/29/6 36/28/6 38/30/6 34/25/6 33/26/6
f 26/30/4 22/25/4 34/25/4 38/30/4
f 23/27/2 25/29/2 37/29/2 35/27/2
f 21/26/1 23/27/1 35/27/1 33/26/1
f 24/28/4 26/30/4 38/30/4 36/28/4
f 25/29/4 24/28/4 36/28/4 37/29/4
o Door
v -4.754389 0.202197 4.175382
v -4.754389 11.416143 4.175382
v -12.425789 0.202197 10.555258
v -12.425789 11.416143 10.555258
v -5.483765 0.228749 4.146860
v -5.483765 11.389591 4.146860
v -12.320875 0.228749 9.832903
v -12.320875 11.389591 9.832903
v -12.122467 0.202197 10.303001
v -12.122467 11.416143 10.303001
v -12.050541 0.228749 9.608080
v -12.050541 11.389591 9.608080
v -11.971260 11.416143 10.483891
v -12.274583 11.416143 10.736148
v -12.274583 0.202197 10.736148
v -11.971260 0.202197 10.483891
v -11.669735 11.416143 10.566906
v -11.938877 11.416143 10.720697
v -11.938877 0.202197 10.720697
v -11.669735 0.202197 10.566906
v -4.754389 3.054010 4.175382
v -4.754389 8.467864 4.175382
v -12.425789 7.638814 10.555258
v -12.425789 3.940179 10.555258
v -12.320875 7.630150 9.832903
v -12.320875 3.949030 9.832903
v -5.483765 8.455274 4.146860
v -5.483765 3.067058 4.146860
v -12.050541 8.455274 9.608080
v -12.050541 3.067058 9.608080
v -12.122467 8.467864 10.303001
v -12.122467 3.054010 10.303001
v -12.274583 7.638814 10.736148
v -12.274583 3.940179 10.736148
v -11.971260 7.638814 10.483891
v -11.971260 3.940179 10.483891
v -11.938877 7.638814 10.720697
v -11.938877 3.940179 10.720697
v -11.669735 7.638814 10.566906
v -11.669735 3.940179 10.566906
vn -0.7673 -0.0000 0.6413
vn -0.6394 -0.0000 -0.7689
vn -0.0347 -0.9985 -0.0417
vn -0.0347 0.9985 -0.0417
vn 0.0391 -0.0000 -0.9992
vn -0.9896 -0.0000 -0.1437
vn 0.6394 -0.0000 0.7689
vn 0.2654 -0.0000 -0.9641
vn -0.0000 -1.0000 -0.0000
vn 0.7673 -0.0000 -0.6413
vn -0.0000 1.0000 -0.0000
vn 0.4961 -0.0000 0.8682
vn 0.0460 -0.0000 0.9989
vt 0.375000 0.500000
vt 0.125000 0.500000
vt 0.375000 0.500000
vt 0.559272 0.509885
vt 0.625000 0.509885
vt 0.625000 0.750000
vt 0.559272 0.750000
vt 0.125000 0.505343
vt 0.375000 0.509885
vt 0.375000 0.750000
vt 0.125000 0.750000
vt 0.875000 0.505343
vt 0.875000 0.750000
vt 0.677816 0.750000
vt 0.622368 0.500000
vt 0.875000 0.500000
vt 0.625000 0.500000
vt 0.540789 0.500000
vt 0.559272 0.000000
vt 0.625000 0.000000
vt 0.625000 0.240115
vt 0.559272 0.240115
vt 0.540789 0.240115
vt 0.625000 0.250000
vt 0.540789 0.250000
vt 0.622368 0.500000
vt 0.622368 0.500000
vt 0.375000 0.240115
vt 0.458333 0.240115
vt 0.458333 0.250000
vt 0.375000 0.250000
vt 0.438577 0.240115
vt 0.375000 0.000000
vt 0.438577 0.000000
vt 0.458333 0.500000
vt 0.438577 0.509885
vt 0.438577 0.750000
vt 0.315732 0.750000
s 0
usemtl Material
f 62/31/9 41/32/9 53/32/9 72/33/9
f 67/34/10 50/35/10 44/36/10 65/37/10
f 47/38/11 49/39/11 43/40/11 39/41/11
f 50/35/12 48/42/12 40/43/12 44/36/12
f 60/44/13 65/37/13 44/36/13 40/43/13
f 61/45/14 42/46/14 46/47/14 63/48/14
f 46/47/12 42/46/12 48/42/12 50/35/12
f 41/32/11 45/33/11 49/39/11 47/38/11
f 63/48/10 46/47/10 50/35/10 67/34/10
f 60/49/15 40/50/15 48/51/15 69/52/15
f 73/53/16 51/51/16 55/51/16 77/53/16
f 41/32/17 47/38/17 54/38/17 53/32/17
f 69/52/18 48/51/18 51/51/18 73/53/18
f 48/42/19 42/46/19 52/46/19 51/42/19
f 77/53/20 55/51/20 56/54/20 75/55/20
f 72/33/21 53/32/21 57/32/21 76/33/21
f 53/32/17 54/38/17 58/38/17 57/32/17
f 51/42/19 52/46/19 56/46/19 55/42/19
f 52/46/21 71/56/21 75/57/21 56/46/21
f 71/56/21 72/33/21 76/33/21 75/57/21
f 58/58/20 78/59/20 76/60/20 57/61/20
f 78/59/20 77/53/20 75/55/20 76/60/20
f 47/58/18 70/62/18 74/59/18 54/58/18
f 70/62/18 69/52/18 73/53/18 74/59/18
f 54/58/16 74/59/16 78/59/16 58/58/16
f 74/59/16 73/53/16 77/53/16 78/59/16
f 39/63/15 59/64/15 70/62/15 47/58/15
f 59/64/15 60/49/15 69/52/15 70/62/15
f 45/33/10 64/65/10 68/66/10 49/39/10
f 64/65/10 63/48/10 67/34/10 68/66/10
f 41/32/14 62/31/14 64/65/14 45/33/14
f 62/31/14 61/45/14 63/48/14 64/65/14
f 39/41/13 43/40/13 66/67/13 59/68/13
f 59/68/13 66/67/13 65/37/13 60/44/13
f 49/39/10 68/66/10 66/67/10 43/40/10
f 68/66/10 67/34/10 65/37/10 66/67/10
f 42/46/9 61/45/9 71/56/9 52/46/9
f 61/45/9 62/31/9 72/33/9 71/56/9
o Cylinder
v 3.743718 -0.043087 -0.328385
v 3.743718 10.467134 -0.328385
v 3.923965 -0.043087 -0.253725
v 3.923965 10.467134 -0.253725
v 3.998625 -0.043087 -0.073479
v 3.998625 10.467134 -0.073479
v 3.923965 -0.043087 0.106767
v 3.923965 10.467134 0.106767
v 3.743718 -0.043087 0.181428
v 3.743718 10.467134 0.181428
v 3.563472 -0.043087 0.106767
v 3.563472 10.467134 0.106767
v 3.488812 -0.043087 -0.073479
v 3.488812 10.467134 -0.073479
v 3.563472 -0.043087 -0.253725
v 3.563472 10.467134 -0.253725
v 3.600719 11.182135 -0.328386
v 3.775800 11.224974 -0.253725
v 3.848320 11.242720 -0.073479
v 3.775800 11.224974 0.106767
v 3.600719 11.182135 0.181428
v 3.425638 11.139294 0.106767
v 3.353117 11.121548 -0.073479
v 3.425638 11.139294 -0.253725
v 3.312059 11.814716 -0.328386
v 3.473055 11.895765 -0.253725
v 3.539742 11.929338 -0.073479
v 3.473055 11.895765 0.106767
v 3.312059 11.814716 0.181428
v 3.151063 11.733667 0.106767
v 3.084377 11.700096 -0.073479
v 3.151063 11.733667 -0.253725
v 2.913485 12.286152 -0.328386
v 3.003484 12.442322 -0.253725
v 3.040762 12.507010 -0.073479
v 3.003484 12.442322 0.106767
v 2.913485 12.286152 0.181428
v 2.823485 12.129984 0.106767
v 2.786206 12.065296 -0.073479
v 2.823485 12.129984 -0.253725
v 2.379469 12.593904 -0.328386
v 2.379718 12.774151 -0.253725
v 2.379820 12.848810 -0.073479
v 2.379718 12.774151 0.106767
v 2.379469 12.593904 0.181428
v 2.379219 12.413658 0.106767
v 2.379116 12.338997 -0.073479
v 2.379219 12.413658 -0.253725
v 1.861119 12.594620 -0.328386
v 1.861369 12.774866 -0.253725
v 1.861471 12.849525 -0.073479
v 1.861369 12.774866 0.106767
v 1.861119 12.594620 0.181428
v 1.860870 12.414375 0.106767
v 1.860767 12.339714 -0.073479
v 1.860870 12.414375 -0.253725
v 1.289121 12.434389 -0.328386
v 1.198467 12.590179 -0.253725
v 1.160916 12.654709 -0.073479
v 1.198467 12.590179 0.106767
v 1.289121 12.434389 0.181428
v 1.379774 12.278599 0.106767
v 1.417325 12.214069 -0.073479
v 1.379774 12.278599 -0.253725
v 0.904518 12.210588 -0.328386
v 0.757429 12.314768 -0.253725
v 0.696502 12.357920 -0.073479
v 0.757429 12.314768 0.106767
v 0.904518 12.210588 0.181428
v 1.051607 12.106411 0.106767
v 1.112535 12.063257 -0.073479
v 1.051607 12.106411 -0.253726
v 0.676186 11.888206 -0.328386
v 0.496938 11.907148 -0.253726
v 0.422690 11.914993 -0.073479
v 0.496938 11.907148 0.106767
v 0.676186 11.888206 0.181428
v 0.855433 11.869267 0.106767
v 0.929681 11.861422 -0.073479
v 0.855433 11.869267 -0.253726
v 0.626921 11.421984 -0.328386
v 0.446676 11.421289 -0.253726
v 0.372016 11.421000 -0.073479
v 0.446676 11.421289 0.106767
v 0.626921 11.421984 0.181428
v 0.807164 11.422678 0.106767
v 0.881825 11.422966 -0.073479
v 0.807164 11.422678 -0.253726
v 0.626922 11.367781 -1.047027
v -0.061475 11.365128 -0.761881
v -0.346618 11.364025 -0.073479
v -0.061475 11.365128 0.614923
v 0.626922 11.367781 0.900069
v 1.315314 11.370434 0.614923
v 1.600459 11.371536 -0.073479
v 1.315315 11.370434 -0.761881
v 0.627334 11.261139 -1.047027
v -0.061064 11.258486 -0.761881
v -0.346206 11.257383 -0.073479
v -0.061064 11.258486 0.614923
v 0.627334 11.261139 0.900069
v 1.315725 11.263792 0.614923
v 1.600870 11.264894 -0.073479
v 1.315726 11.263792 -0.761881
vn 0.3827 -0.0000 -0.9239
vn 0.9239 -0.0000 -0.3827
vn 0.9239 -0.0000 0.3827
vn 0.3827 -0.0000 0.9239
vn -0.3827 -0.0000 0.9239
vn -0.9239 -0.0000 0.3827
vn 0.9082 0.1768 0.3795
vn -0.9239 -0.0000 -0.3827
vn -0.3827 -0.0000 -0.9239
vn -0.0000 -1.0000 -0.0000
vn -0.8395 -0.3889 -0.3795
vn -0.9063 -0.1869 0.3792
vn 0.3786 0.0749 0.9225
vn -0.9063 -0.1869 -0.3792
vn 0.9082 0.1768 -0.3795
vn -0.3784 -0.0766 0.9225
vn -0.3784 -0.0766 -0.9225
vn 0.3786 0.0749 -0.9225
vn 0.3023 0.2578 0.9177
vn -0.3506 -0.1609 0.9226
vn 0.8435 0.3799 0.3798
vn 0.3512 0.1594 -0.9226
vn -0.3506 -0.1609 -0.9226
vn -0.8395 -0.3889 0.3795
vn 0.3512 0.1594 0.9226
vn 0.8435 0.3799 -0.3798
vn -0.2108 -0.3488 -0.9132
vn 0.7043 0.6068 -0.3685
vn -0.7184 -0.5903 -0.3681
vn -0.3048 -0.2551 0.9176
vn 0.7043 0.6068 0.3685
vn 0.3023 0.2578 -0.9177
vn -0.3048 -0.2551 -0.9176
vn -0.7184 -0.5903 0.3681
vn -0.0005 -0.3827 0.9239
vn -0.5120 -0.7820 0.3554
vn 0.1953 0.3536 0.9148
vn 0.4326 0.8250 -0.3637
vn -0.5120 -0.7820 -0.3554
vn -0.2108 -0.3488 0.9132
vn 0.4326 0.8250 0.3637
vn 0.1953 0.3536 -0.9148
vn 0.2526 -0.8935 -0.3712
vn 0.0013 0.9239 0.3827
vn 0.0005 0.3827 -0.9239
vn -0.0005 -0.3827 -0.9239
vn -0.0013 -0.9239 0.3827
vn 0.0005 0.3827 0.9239
vn 0.0013 0.9239 -0.3827
vn -0.0013 -0.9239 -0.3827
vn 0.1940 -0.3492 -0.9168
vn 0.1067 -0.3796 0.9190
vn -0.2490 0.8945 0.3713
vn -0.1061 0.3798 -0.9190
vn 0.1067 -0.3796 -0.9190
vn 0.2526 -0.8935 0.3712
vn -0.1061 0.3798 0.9190
vn -0.2490 0.8945 -0.3713
vn 0.3248 -0.2464 0.9131
vn 0.4234 -0.8298 0.3635
vn -0.2053 0.3395 0.9179
vn -0.4963 0.7853 -0.3701
vn 0.4234 -0.8298 -0.3635
vn 0.1940 -0.3492 0.9168
vn -0.4963 0.7853 0.3701
vn -0.2053 0.3395 -0.9179
vn 0.9189 -0.0998 -0.3817
vn -0.7882 0.4951 0.3656
vn -0.3344 0.2239 -0.9154
vn 0.3248 -0.2464 -0.9131
vn 0.7084 -0.6117 0.3522
vn -0.3344 0.2239 0.9154
vn -0.7882 0.4951 -0.3656
vn 0.7084 -0.6117 -0.3522
vn 0.0713 0.9970 0.0312
vn 0.3815 -0.0408 0.9235
vn -0.9194 0.0947 0.3818
vn -0.3816 0.0399 -0.9235
vn 0.3815 -0.0408 -0.9235
vn 0.9189 -0.0998 0.3817
vn -0.3816 0.0399 0.9235
vn -0.9194 0.0947 -0.3818
vn -0.3827 -0.0015 -0.9239
vn -0.0350 0.9966 0.0752
vn -0.0790 0.9964 -0.0311
vn 0.0714 0.9970 -0.0311
vn 0.0273 0.9968 0.0752
vn -0.0790 0.9964 0.0311
vn -0.0350 0.9966 -0.0752
vn 0.0273 0.9968 -0.0752
vn 0.0039 -1.0000 -0.0000
vn 0.3827 0.0015 -0.9239
vn 0.9239 0.0036 0.3827
vn -0.3827 -0.0015 0.9239
vn -0.9239 -0.0036 -0.3827
vn 0.9239 0.0036 -0.3827
vn 0.3827 0.0015 0.9239
vn -0.9239 -0.0036 0.3827
vt 1.000000 0.500000
vt 1.000000 1.000000
vt 0.875000 1.000000
vt 0.875000 0.500000
vt 0.750000 1.000000
vt 0.750000 0.500000
vt 0.625000 1.000000
vt 0.625000 0.500000
vt 0.500000 1.000000
vt 0.500000 0.500000
vt 0.375000 1.000000
vt 0.375000 0.500000
vt 0.250000 1.000000
vt 0.250000 0.500000
vt 0.125000 1.000000
vt 0.125000 0.500000
vt 0.000000 1.000000
vt 0.000000 0.500000
vt 0.750000 0.490000
vt 0.919706 0.419706
vt 0.990000 0.250000
vt 0.919706 0.080294
vt 0.750000 0.010000
vt 0.580295 0.080294
vt 0.510000 0.250000
vt 0.580295 0.419706
vt 0.419706 0.419706
vt 0.250000 0.490000
vt 0.080295 0.419706
vt 0.010000 0.250000
vt 0.080295 0.080294
vt 0.250000 0.010000
vt 0.419706 0.080294
vt 0.490000 0.250000
s 0
f 79/69/22 80/70/22 82/71/22 81/72/22
f 81/72/23 82/71/23 84/73/23 83/74/23
f 83/74/24 84/73/24 86/75/24 85/76/24
f 85/76/25 86/75/25 88/77/25 87/78/25
f 87/78/26 88/77/26 90/79/26 89/80/26
f 89/80/27 90/79/27 92/81/27 91/82/27
f 86/75/28 84/73/28 97/73/28 98/75/28
f 91/82/29 92/81/29 94/83/29 93/84/29
f 93/84/30 94/83/30 80/85/30 79/86/30
f 79/87/31 81/88/31 83/89/31 85/90/31 87/91/31 89/92/31 91/93/31 93/94/31
f 102/83/32 101/81/32 109/81/32 110/83/32
f 92/81/33 90/79/33 100/79/33 101/81/33
f 88/77/34 86/75/34 98/75/34 99/77/34
f 94/83/35 92/81/35 101/81/35 102/83/35
f 84/73/36 82/71/36 96/71/36 97/73/36
f 90/79/37 88/77/37 99/77/37 100/79/37
f 80/85/38 94/83/38 102/83/38 95/85/38
f 82/71/39 80/70/39 95/70/39 96/71/39
f 107/77/40 106/75/40 114/75/40 115/77/40
f 100/79/41 99/77/41 107/77/41 108/79/41
f 98/75/42 97/73/42 105/73/42 106/75/42
f 96/71/43 95/70/43 103/70/43 104/71/43
f 95/85/44 102/83/44 110/83/44 103/85/44
f 101/81/45 100/79/45 108/79/45 109/81/45
f 99/77/46 98/75/46 106/75/46 107/77/46
f 97/73/47 96/71/47 104/71/47 105/73/47
f 111/85/48 118/83/48 126/83/48 119/85/48
f 105/73/49 104/71/49 112/71/49 113/73/49
f 110/83/50 109/81/50 117/81/50 118/83/50
f 108/79/51 107/77/51 115/77/51 116/79/51
f 106/75/52 105/73/52 113/73/52 114/75/52
f 104/71/53 103/70/53 111/70/53 112/71/53
f 103/85/54 110/83/54 118/83/54 111/85/54
f 109/81/55 108/79/55 116/79/55 117/81/55
f 124/79/56 123/77/56 131/77/56 132/79/56
f 117/81/57 116/79/57 124/79/57 125/81/57
f 115/77/58 114/75/58 122/75/58 123/77/58
f 113/73/59 112/71/59 120/71/59 121/73/59
f 118/83/60 117/81/60 125/81/60 126/83/60
f 116/79/61 115/77/61 123/77/61 124/79/61
f 114/75/62 113/73/62 121/73/62 122/75/62
f 112/71/63 111/70/63 119/70/63 120/71/63
f 134/83/64 133/81/64 141/81/64 142/83/64
f 122/75/65 121/73/65 129/73/65 130/75/65
f 120/71/66 119/70/66 127/70/66 128/71/66
f 119/85/67 126/83/67 134/83/67 127/85/67
f 125/81/68 124/79/68 132/79/68 133/81/68
f 123/77/69 122/75/69 130/75/69 131/77/69
f 121/73/70 120/71/70 128/71/70 129/73/70
f 126/83/71 125/81/71 133/81/71 134/83/71
f 135/85/72 142/83/72 150/83/72 143/85/72
f 132/79/73 131/77/73 139/77/73 140/79/73
f 130/75/74 129/73/74 137/73/74 138/75/74
f 128/71/75 127/70/75 135/70/75 136/71/75
f 127/85/76 134/83/76 142/83/76 135/85/76
f 133/81/77 132/79/77 140/79/77 141/81/77
f 131/77/78 130/75/78 138/75/78 139/77/78
f 129/73/79 128/71/79 136/71/79 137/73/79
f 148/79/80 147/77/80 155/77/80 156/79/80
f 141/81/81 140/79/81 148/79/81 149/81/81
f 139/77/82 138/75/82 146/75/82 147/77/82
f 137/73/83 136/71/83 144/71/83 145/73/83
f 142/83/84 141/81/84 149/81/84 150/83/84
f 140/79/85 139/77/85 147/77/85 148/79/85
f 138/75/86 137/73/86 145/73/86 146/75/86
f 136/71/87 135/70/87 143/70/87 144/71/87
f 158/83/88 157/81/88 165/81/88 166/83/88
f 146/75/89 145/73/89 153/73/89 154/75/89
f 144/71/90 143/70/90 151/70/90 152/71/90
f 143/85/91 150/83/91 158/83/91 151/85/91
f 149/81/92 148/79/92 156/79/92 157/81/92
f 147/77/93 146/75/93 154/75/93 155/77/93
f 145/73/94 144/71/94 152/71/94 153/73/94
f 150/83/95 149/81/95 157/81/95 158/83/95
f 165/81/96 164/79/96 172/79/96 173/81/96
f 156/79/97 155/77/97 163/77/97 164/79/97
f 154/75/98 153/73/98 161/73/98 162/75/98
f 152/71/99 151/70/99 159/70/99 160/71/99
f 151/85/100 158/83/100 166/83/100 159/85/100
f 157/81/101 156/79/101 164/79/101 165/81/101
f 155/77/102 154/75/102 162/75/102 163/77/102
f 153/73/103 152/71/103 160/71/103 161/73/103
f 168/71/104 167/70/104 175/70/104 176/71/104
f 163/77/105 162/75/105 170/75/105 171/77/105
f 161/73/106 160/71/106 168/71/106 169/73/106
f 166/83/107 165/81/107 173/81/107 174/83/107
f 164/79/108 163/77/108 171/77/108 172/79/108
f 162/75/109 161/73/109 169/73/109 170/75/109
f 160/71/110 159/70/110 167/70/110 168/71/110
f 159/85/111 166/83/111 174/83/111 167/85/111
f 176/95/112 175/96/112 182/97/112 181/98/112 180/99/112 179/100/112 178/101/112 177/102/112
f 167/85/113 174/83/113 182/83/113 175/85/113
f 173/81/114 172/79/114 180/79/114 181/81/114
f 171/77/115 170/75/115 178/75/115 179/77/115
f 169/73/116 168/71/116 176/71/116 177/73/116
f 174/83/117 173/81/117 181/81/117 182/83/117
f 172/79/118 171/77/118 179/77/118 180/79/118
f 170/75/119 169/73/119 177/73/119 178/75/119
o Cube.001
v 3.453851 3.232270 0.220615
v 3.453851 3.857919 0.220615
v 3.453851 3.232270 -0.405034
v 3.453851 3.857919 -0.405034
v 4.079500 3.232270 0.220615
v 4.079500 3.857919 0.220615
v 4.079500 3.232270 -0.405034
v 4.079500 3.857919 -0.405034
vn -1.0000 -0.0000 -0.0000
vn -0.0000 -0.0000 -1.0000
vn 1.0000 -0.0000 -0.0000
vn -0.0000 -0.0000 1.0000
vn -0.0000 -1.0000 -0.0000
vn -0.0000 1.0000 -0.0000
vt 0.375000 0.000000
vt 0.625000 0.000000
vt 0.625000 0.250000
vt 0.375000 0.250000
vt 0.625000 0.500000
vt 0.375000 0.500000
vt 0.625000 0.750000
vt 0.375000 0.750000
vt 0.625000 1.000000
vt 0.375000 1.000000
vt 0.125000 0.500000
vt 0.125000 0.750000
vt 0.875000 0.500000
vt 0.875000 0.750000
s 0
f 183/103/120 184/104/120 186/105/120 185/106/120
f 185/106/121 186/105/121 190/107/121 189/108/121
f 189/108/122 190/107/122 188/109/122 187/110/122
f 187/110/123 188/109/123 184/111/123 183/112/123
f 185/113/124 189/108/124 187/110/124 183/114/124
f 190/107/125 186/115/125 184/116/125 188/109/125
o Cube.002
o Cube.003
v 3.453851 8.435320 0.220615
v 3.453851 9.060968 0.220615
v 3.453851 8.435320 -0.405034
v 3.453851 9.060968 -0.405034
v 4.079500 8.435320 0.220615
v 4.079500 9.060968 0.220615
v 4.079500 8.435320 -0.405034
v 4.079500 9.060968 -0.405034
vn -1.0000 -0.0000 -0.0000
vn -0.0000 -0.0000 -1.0000
vn 1.0000 -0.0000 -0.0000
vn -0.0000 -0.0000 1.0000
vn -0.0000 -1.0000 -0.0000
vn -0.0000 1.0000 -0.0000
vt 0.375000 0.000000
vt 0.625000 0.000000
vt 0.625000 0.250000
vt 0.375000 0.250000
vt 0.625000 0.500000
vt 0.375000 0.500000
vt 0.625000 0.750000
vt 0.375000 0.750000
vt 0.625000 1.000000
vt 0.375000 1.000000
vt 0.125000 0.500000
vt 0.125000 0.750000
vt 0.875000 0.500000
vt 0.875000 0.750000
s 0
f 191/117/126 192/118/126 194/119/126 193/120/126
f 193/120/127 194/119/127 198/121/127 197/122/127
f 197/122/128 198/121/128 196/123/128 195/124/128
f 195/124/129 196/123/129 192/125/129 191/126/129
f 193/127/130 197/122/130 195/124/130 191/128/130
f 198/121/131 194/129/131 192/130/131 196/123/131
o Cube.004
v 3.453851 5.798929 1.100947
v 3.453851 6.424579 1.100947
v 3.453851 5.798929 -1.285366
v 3.453851 6.424579 -1.285366
v 4.079500 5.798929 1.100947
v 4.079500 6.424579 1.100947
v 4.079500 5.798929 -1.285366
v 4.079500 6.424579 -1.285366
vn -1.0000 -0.0000 -0.0000
vn -0.0000 -0.0000 -1.0000
vn 1.0000 -0.0000 -0.0000
vn -0.0000 -0.0000 1.0000
vn -0.0000 -1.0000 -0.0000
vn -0.0000 1.0000 -0.0000
vt 0.375000 0.000000
vt 0.625000 0.000000
vt 0.625000 0.250000
vt 0.375000 0.250000
vt 0.625000 0.500000
vt 0.375000 0.500000
vt 0.625000 0.750000
vt 0.375000 0.750000
vt 0.625000 1.000000
vt 0.375000 1.000000
vt 0.125000 0.500000
vt 0.125000 0.750000
vt 0.875000 0.500000
vt 0.875000 0.750000
s 0
f 199/131/132 200/132/132 202/133/132 201/134/132
f 201/134/133 202/133/133 206/135/133 205/136/133
f 205/136/134 206/135/134 204/137/134 203/138/134
f 203/138/135 204/137/135 200/139/135 199/140/135
f 201/141/136 205/136/136 203/138/136 199/142/136
f 206/135/137 202/143/137 200/144/137 204/137/137
o Cylinder.001
v 3.094893 5.853833 0.662290
v 3.560971 5.853336 0.662748
v 3.095127 5.922089 0.497506
v 3.561205 5.921591 0.497964
v 3.095370 6.086873 0.429251
v 3.561448 6.086375 0.429709
v 3.095479 6.251656 0.497507
v 3.561557 6.251158 0.497964
v 3.095390 6.319911 0.662290
v 3.561468 6.319414 0.662748
v 3.095156 6.251656 0.827074
v 3.561234 6.251158 0.827532
v 3.094913 6.086873 0.895329
v 3.560991 6.086375 0.895787
v 3.094804 5.922089 0.827073
v 3.560882 5.921591 0.827531
vn -0.0006 -0.9239 -0.3827
vn 0.0005 -0.3827 -0.9239
vn 0.0013 0.3827 -0.9239
vn 0.0014 0.9239 -0.3827
vn 0.0006 0.9239 0.3827
vn -0.0005 0.3827 0.9239
vn 1.0000 -0.0011 0.0010
vn -0.0013 -0.3827 0.9239
vn -0.0014 -0.9239 0.3827
vn -1.0000 0.0011 -0.0010
vt 1.000000 0.500000
vt 1.000000 1.000000
vt 0.875000 1.000000
vt 0.875000 0.500000
vt 0.750000 1.000000
vt 0.750000 0.500000
vt 0.625000 1.000000
vt 0.625000 0.500000
vt 0.500000 1.000000
vt 0.500000 0.500000
vt 0.375000 1.000000
vt 0.375000 0.500000
vt 0.250000 1.000000
vt 0.250000 0.500000
vt 0.419706 0.419706
vt 0.250000 0.490000
vt 0.080294 0.419706
vt 0.010000 0.250000
vt 0.080294 0.080294
vt 0.250000 0.010000
vt 0.419706 0.080294
vt 0.490000 0.250000
vt 0.125000 1.000000
vt 0.125000 0.500000
vt 0.000000 1.000000
vt 0.000000 0.500000
vt 0.750000 0.490000
vt 0.919706 0.419706
vt 0.990000 0.250000
vt 0.919706 0.080294
vt 0.750000 0.010000
vt 0.580294 0.080294
vt 0.510000 0.250000
vt 0.580294 0.419706
s 0
f 207/145/138 209/148/138 210/147/138 208/146/138
f 209/148/139 211/150/139 212/149/139 210/147/139
f 211/150/140 213/152/140 214/151/140 212/149/140
f 213/152/141 215/154/141 216/153/141 214/151/141
f 215/154/142 217/156/142 218/155/142 216/153/142
f 217/156/143 219/158/143 220/157/143 218/155/143
f 210/159/144 212/166/144 214/165/144 216/164/144 218/163/144 220/162/144 222/161/144 208/160/144
f 219/158/145 221/168/145 222/167/145 220/157/145
f 221/168/146 207/170/146 208/169/146 222/167/146
f 207/171/147 221/178/147 219/177/147 217/176/147 215/175/147 213/174/147 211/173/147 209/172/147
o Cylinder.002
v 3.094893 5.853833 -0.828487
v 3.560971 5.853336 -0.828029
v 3.095127 5.922089 -0.993270
v 3.561205 5.921591 -0.992812
v 3.095370 6.086873 -1.061525
v 3.561448 6.086375 -1.061068
v 3.095479 6.251656 -0.993270
v 3.561557 6.251158 -0.992812
v 3.095390 6.319911 -0.828486
v 3.561468 6.319414 -0.828028
v 3.095156 6.251656 -0.663702
v 3.561234 6.251158 -0.663245
v 3.094913 6.086873 -0.595447
v 3.560991 6.086375 -0.594989
v 3.094804 5.922089 -0.663703
v 3.560882 5.921591 -0.663245
vn -0.0006 -0.9239 -0.3827
vn 0.0005 -0.3827 -0.9239
vn 0.0013 0.3827 -0.9239
vn 0.0014 0.9239 -0.3827
vn 0.0006 0.9239 0.3827
vn -0.0005 0.3827 0.9239
vn 1.0000 -0.0011 0.0010
vn -0.0013 -0.3827 0.9239
vn -0.0014 -0.9239 0.3827
vn -1.0000 0.0011 -0.0010
vt 1.000000 0.500000
vt 1.000000 1.000000
vt 0.875000 1.000000
vt 0.875000 0.500000
vt 0.750000 1.000000
vt 0.750000 0.500000
vt 0.625000 1.000000
vt 0.625000 0.500000
vt 0.500000 1.000000
vt 0.500000 0.500000
vt 0.375000 1.000000
vt 0.375000 0.500000
vt 0.250000 1.000000
vt 0.250000 0.500000
vt 0.419706 0.419706
vt 0.250000 0.490000
vt 0.080294 0.419706
vt 0.010000 0.250000
vt 0.080294 0.080294
vt 0.250000 0.010000
vt 0.419706 0.080294
vt 0.490000 0.250000
vt 0.125000 1.000000
vt 0.125000 0.500000
vt 0.000000 1.000000
vt 0.000000 0.500000
vt 0.750000 0.490000
vt 0.919706 0.419706
vt 0.990000 0.250000
vt 0.919706 0.080294
vt 0.750000 0.010000
vt 0.580294 0.080294
vt 0.510000 0.250000
vt 0.580294 0.419706
s 0
f 223/179/148 225/182/148 226/181/148 224/180/148
f 225/182/149 227/184/149 228/183/149 226/181/149
f 227/184/150 229/186/150 230/185/150 228/183/150
f 229/186/151 231/188/151 232/187/151 230/185/151
f 231/188/152 233/190/152 234/189/152 232/187/152
f 233/190/153 235/192/153 236/191/153 234/189/153
f 226/193/154 228/200/154 230/199/154 232/198/154 234/197/154 236/196/154 238/195/154 224/194/154
f 235/192/155 237/202/155 238/201/155 236/191/155
f 237/202/156 223/204/156 224/203/156 238/201/156
f 223/205/157 237/212/157 235/211/157 233/210/157 231/209/157 229/208/157 227/207/157 225/206/157
